999
dxflib 3.26.4.0
  0
SECTION
  2
HEADER
  9
$ACADVER
  1
AC1015
  9
$HANDSEED
  5
FFFF
  9
$ANGBASE
 50
0.0
  9
$ANGDIR
 70
0
  9
$ATTMODE
 70
0
  9
$AUNITS
 70
0
  9
$AUPREC
 70
2
  9
$CECOLOR
 62
256
  9
$CELTSCALE
 40
1.0
  9
$CHAMFERA
 40
0.0
  9
$CHAMFERB
 40
0.0
  9
$CHAMFERC
 40
0.0
  9
$CHAMFERD
 40
0.0
  9
$CMLJUST
 70
0
  9
$CMLSCALE
 40
20.0
  9
$DIMADEC
 70
0
  9
$DIMALT
 70
0
  9
$DIMALTD
 70
3
  9
$DIMALTF
 40
0.03937
  9
$DIMALTRND
 40
0.0
  9
$DIMALTTD
 70
3
  9
$DIMALTTZ
 70
0
  9
$DIMALTU
 70
2
  9
$DIMALTZ
 70
0
  9
$DIMAPOST
  1

  9
$DIMASZ
 40
2.5
  9
$DIMATFIT
 70
0
  9
$DIMAUNIT
 70
0
  9
$DIMAZIN
 70
2
  9
$DIMBLK
  1
0
  9
$DIMBLK1
  1
0
  9
$DIMBLK2
  1
0
  9
$DIMCEN
 40
2.5
  9
$DIMCLRD
 70
0
  9
$DIMCLRE
 70
0
  9
$DIMDEC
 70
2
  9
$DIMDLE
 40
0.0
  9
$DIMDLI
 40
5.0
  9
$DIMDSEP
 70
46
  9
$DIMEXE
 40
1.25
  9
$DIMEXO
 40
0.625
  9
$DIMFRAC
 70
0
  9
$DIMGAP
 40
0.625
  9
$DIMJUST
 70
0
  9
$DIMLDRBLK
  1
STANDARD
  9
$DIMLFAC
 40
1.0
  9
$DIMLIM
 70
0
  9
$DIMLUNIT
 70
2
  9
$DIMLWD
 70
-2
  9
$DIMLWE
 70
-2
  9
$DIMPOST
  1

  9
$DIMRND
 40
0.0
  9
$DIMSAH
 70
0
  9
$DIMSCALE
 40
1.0
  9
$DIMSD1
 70
0
  9
$DIMSD2
 70
0
  9
$DIMSE1
 70
0
  9
$DIMSE2
 70
0
  9
$DIMSOXD
 70
0
  9
$DIMTAD
 70
1
  9
$DIMTDEC
 70
2
  9
$DIMTFAC
 40
1.0
  9
$DIMTIH
 70
0
  9
$DIMTIX
 70
0
  9
$DIMTM
 40
0.0
  9
$DIMTOFL
 70
1
  9
$DIMTOH
 70
0
  9
$DIMTOL
 70
0
  9
$DIMTOLJ
 70
0
  9
$DIMTP
 40
0.0
  9
$DIMTSZ
 40
0.0
  9
$DIMTVP
 40
0.0
  9
$DIMTXSTY
  7
STANDARD
  9
$DIMTXT
 40
2.5
  9
$DIMTZIN
 70
8
  9
$DIMUPT
 70
0
  9
$DIMZIN
 70
8
  9
$DISPSILH
 70
0
  9
$DWGCODEPAGE
  3
ANSI_1252
  9
$ELEVATION
 40
0.0
  9
$EXTMAX
 10
52.0121736111111375
 20
91.1208802995550116
 30
0.0
  9
$EXTMIN
 10
-47.125
 20
-25.25
 30
0.0
  9
$FILLETRAD
 40
0.0
  9
$FILLMODE
 70
1
  9
$INSBASE
 10
0.0
 20
0.0
 30
0.0
  9
$INSUNITS
 70
4
  9
$LIMCHECK
 70
0
  9
$LIMMAX
 10
420.0
 20
297.0
  9
$LIMMIN
 10
0.0
 20
0.0
  9
$LTSCALE
 40
1.0
  9
$LUNITS
 70
2
  9
$LUPREC
 70
4
  9
$MAXACTVP
 70
64
  9
$MEASUREMENT
 70
1
  9
$MIRRTEXT
 70
0
  9
$ORTHOMODE
 70
0
  9
$PDMODE
 70
0
  9
$PDSIZE
 40
0.0
  9
$PELEVATION
 40
0.0
  9
$PEXTMAX
 10
0.0
 20
0.0
 30
0.0
  9
$PEXTMIN
 10
0.0
 20
0.0
 30
0.0
  9
$PINSBASE
 10
0.0
 20
0.0
 30
0.0
  9
$PLIMCHECK
 70
0
  9
$PLIMMAX
 10
210.0
 20
297.0
  9
$PLIMMIN
 10
0.0
 20
0.0
  9
$PLINEGEN
 70
0
  9
$PLINEWID
 40
0.0
  9
$PROXYGRAPHICS
 70
1
  9
$PSLTSCALE
 70
1
  9
$PUCSNAME
  2

  9
$PUCSORG
 10
0.0
 20
0.0
 30
0.0
  9
$PUCSXDIR
 10
1.0
 20
0.0
 30
0.0
  9
$PUCSYDIR
 10
0.0
 20
1.0
 30
0.0
  9
$QTEXTMODE
 70
0
  9
$REGENMODE
 70
1
  9
$SHADEDGE
 70
3
  9
$SHADEDIF
 70
70
  9
$SKETCHINC
 40
1.0
  9
$SKPOLY
 70
0
  9
$SPLFRAME
 70
0
  9
$SPLINESEGS
 70
8
  9
$SPLINETYPE
 70
2
  9
$SURFTAB1
 70
6
  9
$SURFTAB2
 70
6
  9
$SURFTYPE
 70
6
  9
$SURFU
 70
6
  9
$SURFV
 70
6
  9
$TEXTSIZE
 40
2.5
  9
$TEXTSTYLE
  7
STANDARD
  9
$THICKNESS
 40
0.0
  9
$TILEMODE
 70
1
  9
$TRACEWID
 40
15.6799999999999997
  9
$TREEDEPTH
 70
3020
  9
$UCSNAME
  2

  9
$UCSORG
 10
0.0
 20
0.0
 30
0.0
  9
$UCSXDIR
 10
1.0
 20
0.0
 30
0.0
  9
$UCSYDIR
 10
0.0
 20
1.0
 30
0.0
  9
$UNITMODE
 70
0
  9
$USERI1
 70
0
  9
$USERI2
 70
0
  9
$USERI3
 70
0
  9
$USERI4
 70
0
  9
$USERI5
 70
0
  9
$USERR1
 40
0.0
  9
$USERR2
 40
0.0
  9
$USERR3
 40
0.0
  9
$USERR4
 40
0.0
  9
$USERR5
 40
0.0
  9
$USRTIMER
 70
1
  9
$VISRETAIN
 70
1
  0
ENDSEC
  0
SECTION
  2
TABLES
  0
TABLE
  2
VPORT
  5
8
100
AcDbSymbolTable
 70
1
  0
VPORT
  5
30
100
AcDbSymbolTableRecord
100
AcDbViewportTableRecord
  2
*Active
 70
0
 10
0.0
 20
0.0
 11
1.0
 21
1.0
 12
286.3055555555554861
 22
148.5
 13
0.0
 23
0.0
 14
10.0
 24
10.0
 15
10.0
 25
10.0
 16
0.0
 26
0.0
 36
1.0
 17
0.0
 27
0.0
 37
0.0
 40
297.0
 41
1.92798353909465
 42
50.0
 43
0.0
 44
0.0
 50
0.0
 51
0.0
 71
0
 72
100
 73
1
 74
3
 75
1
 76
1
 77
0
 78
0
281
0
 65
1
110
0.0
120
0.0
130
0.0
111
1.0
121
0.0
131
0.0
112
0.0
122
1.0
132
0.0
 79
0
146
0.0
  0
ENDTAB
  0
TABLE
  2
LTYPE
  5
5
100
AcDbSymbolTable
 70
47
  0
LTYPE
  5
16
100
AcDbSymbolTableRecord
100
AcDbLinetypeTableRecord
  2
Continuous
 70
0
  3
Solid line
 72
65
 73
0
 40
0.0
  0
LTYPE
  5
31
100
AcDbSymbolTableRecord
100
AcDbLinetypeTableRecord
  2
ACAD_ISO05W100
 70
0
  3
ISO long-dash double-dot ____ .. ____ .. ____ . 
 72
65
 73
6
 40
33.0000000000000071
 49
24.0
 74
0
 49
-2.9500000000000002
 74
0
 49
0.1
 74
0
 49
-2.9000000000000004
 74
0
 49
0.1
 74
0
 49
-2.9500000000000002
 74
0
  0
LTYPE
  5
32
100
AcDbSymbolTableRecord
100
AcDbLinetypeTableRecord
  2
BORDERTINY
 70
0
  3
Border (.15x) __.__.__.__.__.__.__.__.__.__.__.
 72
65
 73
6
 40
6.6674999999999995
 49
1.905
 74
0
 49
-0.9525
 74
0
 49
1.905
 74
0
 49
-0.9025
 74
0
 49
0.1
 74
0
 49
-0.9025
 74
0
  0
LTYPE
  5
33
100
AcDbSymbolTableRecord
100
AcDbLinetypeTableRecord
  2
ACAD_ISO13W100
 70
0
  3
ISO double-dash double-dot __ __ . . __ __ . . _
 72
65
 73
8
 40
36.0000000000000071
 49
12.0
 74
0
 49
-3.0
 74
0
 49
12.0
 74
0
 49
-2.9500000000000002
 74
0
 49
0.1
 74
0
 49
-2.9000000000000004
 74
0
 49
0.1
 74
0
 49
-2.9500000000000002
 74
0
  0
LTYPE
  5
34
100
AcDbSymbolTableRecord
100
AcDbLinetypeTableRecord
  2
ACAD_ISO02W100
 70
0
  3
ISO dash __ __ __ __ __ __ __ __ __ __ __ __ __
 72
65
 73
2
 40
15.0
 49
12.0
 74
0
 49
-3.0
 74
0
  0
LTYPE
  5
35
100
AcDbSymbolTableRecord
100
AcDbLinetypeTableRecord
  2
ACAD_ISO10W100
 70
0
  3
ISO dash dot __ . __ . __ . __ . __ . __ . __ . 
 72
65
 73
4
 40
18.0
 49
12.0
 74
0
 49
-2.9500000000000002
 74
0
 49
0.1
 74
0
 49
-2.9500000000000002
 74
0
  0
LTYPE
  5
36
100
AcDbSymbolTableRecord
100
AcDbLinetypeTableRecord
  2
BORDER
 70
0
  3
Border __ __ . __ __ . __ __ . __ __ . __ __ .
 72
65
 73
6
 40
44.4499999999999957
 49
12.6999999999999993
 74
0
 49
-6.3499999999999996
 74
0
 49
12.6999999999999993
 74
0
 49
-6.2999999999999998
 74
0
 49
0.1
 74
0
 49
-6.2999999999999998
 74
0
  0
LTYPE
  5
37
100
AcDbSymbolTableRecord
100
AcDbLinetypeTableRecord
  2
DOT2
 70
0
  3
Dot (.5x) .....................................
 72
65
 73
2
 40
3.1749999999999998
 49
0.1
 74
0
 49
-3.0749999999999997
 74
0
  0
LTYPE
  5
38
100
AcDbSymbolTableRecord
100
AcDbLinetypeTableRecord
  2
DASHED
 70
0
  3
Dashed _ _ _ _ _ _ _ _ _ _ _ _ _ _ _ _ _
 72
65
 73
2
 40
19.0499999999999972
 49
12.6999999999999993
 74
0
 49
-6.3499999999999996
 74
0
  0
LTYPE
  5
39
100
AcDbSymbolTableRecord
100
AcDbLinetypeTableRecord
  2
CENTER
 70
0
  3
Center ____ _ ____ _ ____ _ ____ _ ____ _ ____
 72
65
 73
4
 40
50.8000000000000043
 49
31.75
 74
0
 49
-6.3499999999999996
 74
0
 49
6.3499999999999996
 74
0
 49
-6.3499999999999996
 74
0
  0
LTYPE
  5
3A
100
AcDbSymbolTableRecord
100
AcDbLinetypeTableRecord
  2
DASHDOT
 70
0
  3
Dash dot __ . __ . __ . __ . __ . __ . __ . __
 72
65
 73
4
 40
25.4000000000000021
 49
12.6999999999999993
 74
0
 49
-6.2999999999999998
 74
0
 49
0.1
 74
0
 49
-6.2999999999999998
 74
0
  0
LTYPE
  5
3B
100
AcDbSymbolTableRecord
100
AcDbLinetypeTableRecord
  2
PHANTOM
 70
0
  3
Phantom ______  __  __  ______  __  __  ______ 
 72
65
 73
6
 40
63.5000000000000071
 49
31.75
 74
0
 49
-6.3499999999999996
 74
0
 49
6.3499999999999996
 74
0
 49
-6.3499999999999996
 74
0
 49
6.3499999999999996
 74
0
 49
-6.3499999999999996
 74
0
  0
LTYPE
  5
3C
100
AcDbSymbolTableRecord
100
AcDbLinetypeTableRecord
  2
DOTTINY
 70
0
  3
Dot (.15x) .....................................
 72
65
 73
2
 40
0.9525
 49
0.1
 74
0
 49
-0.8525
 74
0
  0
LTYPE
  5
3D
100
AcDbSymbolTableRecord
100
AcDbLinetypeTableRecord
  2
HIDDEN
 70
0
  3
Hidden __ __ __ __ __ __ __ __ __ __ __ __ __ __
 72
65
 73
2
 40
9.5249999999999986
 49
6.3499999999999996
 74
0
 49
-3.1749999999999998
 74
0
  0
LTYPE
  5
3E
100
AcDbSymbolTableRecord
100
AcDbLinetypeTableRecord
  2
PHANTOMX2
 70
0
  3
Phantom (2x) ____________    ____    ____   _
 72
65
 73
6
 40
127.0000000000000142
 49
63.5
 74
0
 49
-12.6999999999999993
 74
0
 49
12.6999999999999993
 74
0
 49
-12.6999999999999993
 74
0
 49
12.6999999999999993
 74
0
 49
-12.6999999999999993
 74
0
  0
LTYPE
  5
3F
100
AcDbSymbolTableRecord
100
AcDbLinetypeTableRecord
  2
BORDERX2
 70
0
  3
Border (2x) ____  ____  .  ____  ____  .  ___
 72
65
 73
6
 40
88.8999999999999773
 49
25.3999999999999986
 74
0
 49
-12.6999999999999993
 74
0
 49
25.3999999999999986
 74
0
 49
-12.6499999999999986
 74
0
 49
0.1
 74
0
 49
-12.6499999999999986
 74
0
  0
LTYPE
  5
40
100
AcDbSymbolTableRecord
100
AcDbLinetypeTableRecord
  2
DASHEDTINY
 70
0
  3
Dashed (.15x) _ _ _ _ _ _ _ _ _ _ _ _ _ _ _ _ _
 72
65
 73
2
 40
2.8574999999999999
 49
1.905
 74
0
 49
-0.9525
 74
0
  0
LTYPE
  5
41
100
AcDbSymbolTableRecord
100
AcDbLinetypeTableRecord
  2
DIVIDEX2
 70
0
  3
Divide (2x) ________  .  .  ________  .  .  _
 72
65
 73
6
 40
63.5
 49
25.3999999999999986
 74
0
 49
-12.6499999999999986
 74
0
 49
0.1
 74
0
 49
-12.5999999999999979
 74
0
 49
0.1
 74
0
 49
-12.6499999999999986
 74
0
  0
LTYPE
  5
42
100
AcDbSymbolTableRecord
100
AcDbLinetypeTableRecord
  2
ACAD_ISO04W100
 70
0
  3
ISO long-dash dot ____ . ____ . ____ . ____ . _
 72
65
 73
4
 40
30.0
 49
24.0
 74
0
 49
-2.9500000000000002
 74
0
 49
0.1
 74
0
 49
-2.9500000000000002
 74
0
  0
LTYPE
  5
43
100
AcDbSymbolTableRecord
100
AcDbLinetypeTableRecord
  2
ACAD_ISO15W100
 70
0
  3
ISO double-dash triple-dot __ __ . . . __ __ . .
 72
65
 73
10
 40
39.0000000000000071
 49
12.0
 74
0
 49
-3.0
 74
0
 49
12.0
 74
0
 49
-2.9500000000000002
 74
0
 49
0.1
 74
0
 49
-2.9000000000000004
 74
0
 49
0.1
 74
0
 49
-2.9000000000000004
 74
0
 49
0.1
 74
0
 49
-2.9500000000000002
 74
0
  0
LTYPE
  5
44
100
AcDbSymbolTableRecord
100
AcDbLinetypeTableRecord
  2
DOTX2
 70
0
  3
Dot (2x) .  .  .  .  .  .  .  .  .  .  .  .  .
 72
65
 73
2
 40
12.6999999999999993
 49
0.1
 74
0
 49
-12.5999999999999996
 74
0
  0
LTYPE
  5
45
100
AcDbSymbolTableRecord
100
AcDbLinetypeTableRecord
  2
DIVIDETINY
 70
0
  3
Divide (.15x) __..__..__..__..__..__..__..__.._
 72
65
 73
6
 40
4.7625000000000002
 49
1.905
 74
0
 49
-0.9025
 74
0
 49
0.1
 74
0
 49
-0.8524999999999999
 74
0
 49
0.1
 74
0
 49
-0.9025
 74
0
  0
LTYPE
  5
46
100
AcDbSymbolTableRecord
100
AcDbLinetypeTableRecord
  2
DASHEDX2
 70
0
  3
Dashed (2x) ____  ____  ____  ____  ____  ___
 72
65
 73
2
 40
38.0999999999999943
 49
25.3999999999999986
 74
0
 49
-12.6999999999999993
 74
0
  0
LTYPE
  5
15
100
AcDbSymbolTableRecord
100
AcDbLinetypeTableRecord
  2
ByLayer
 70
0
  3

 72
65
 73
0
 40
0.0
  0
LTYPE
  5
47
100
AcDbSymbolTableRecord
100
AcDbLinetypeTableRecord
  2
ACAD_ISO11W100
 70
0
  3
ISO double-dash dot __ __ . __ __ . __ __ . __ _
 72
65
 73
6
 40
33.0
 49
12.0
 74
0
 49
-3.0
 74
0
 49
12.0
 74
0
 49
-2.9500000000000002
 74
0
 49
0.1
 74
0
 49
-2.9500000000000002
 74
0
  0
LTYPE
  5
48
100
AcDbSymbolTableRecord
100
AcDbLinetypeTableRecord
  2
CENTER2
 70
0
  3
Center (.5x) ___ _ ___ _ ___ _ ___ _ ___ _ ___
 72
65
 73
4
 40
28.5750000000000028
 49
19.0500000000000007
 74
0
 49
-3.1749999999999998
 74
0
 49
3.1749999999999998
 74
0
 49
-3.1749999999999998
 74
0
  0
LTYPE
  5
49
100
AcDbSymbolTableRecord
100
AcDbLinetypeTableRecord
  2
ACAD_ISO08W100
 70
0
  3
ISO long-dash short-dash ____ __ ____ __ ____ _
 72
65
 73
4
 40
36.0
 49
24.0
 74
0
 49
-3.0
 74
0
 49
6.0
 74
0
 49
-3.0
 74
0
  0
LTYPE
  5
4A
100
AcDbSymbolTableRecord
100
AcDbLinetypeTableRecord
  2
DASHED2
 70
0
  3
Dashed (.5x) _ _ _ _ _ _ _ _ _ _ _ _ _ _ _ _ _
 72
65
 73
2
 40
9.5249999999999986
 49
6.3499999999999996
 74
0
 49
-3.1749999999999998
 74
0
  0
LTYPE
  5
4B
100
AcDbSymbolTableRecord
100
AcDbLinetypeTableRecord
  2
ACAD_ISO03W100
 70
0
  3
ISO dash space __    __    __    __    __    __
 72
65
 73
2
 40
30.0
 49
12.0
 74
0
 49
-18.0
 74
0
  0
LTYPE
  5
4C
100
AcDbSymbolTableRecord
100
AcDbLinetypeTableRecord
  2
HIDDEN2
 70
0
  3
Hidden (.5x) _ _ _ _ _ _ _ _ _ _ _ _ _ _ _ _ _ 
 72
65
 73
2
 40
4.7624999999999993
 49
3.1749999999999998
 74
0
 49
-1.5874999999999999
 74
0
  0
LTYPE
  5
4D
100
AcDbSymbolTableRecord
100
AcDbLinetypeTableRecord
  2
ACAD_ISO14W100
 70
0
  3
ISO dash triple-dot __ . . . __ . . . __ . . . _
 72
65
 73
8
 40
24.0000000000000036
 49
12.0
 74
0
 49
-2.9500000000000002
 74
0
 49
0.1
 74
0
 49
-2.9000000000000004
 74
0
 49
0.1
 74
0
 49
-2.9000000000000004
 74
0
 49
0.1
 74
0
 49
-2.9500000000000002
 74
0
  0
LTYPE
  5
4E
100
AcDbSymbolTableRecord
100
AcDbLinetypeTableRecord
  2
ACAD_ISO06W100
 70
0
  3
ISO long-dash triple-dot ____ ... ____ ... ____
 72
65
 73
8
 40
36.0000000000000071
 49
24.0
 74
0
 49
-2.9500000000000002
 74
0
 49
0.1
 74
0
 49
-2.9000000000000004
 74
0
 49
0.1
 74
0
 49
-2.9000000000000004
 74
0
 49
0.1
 74
0
 49
-2.9500000000000002
 74
0
  0
LTYPE
  5
4F
100
AcDbSymbolTableRecord
100
AcDbLinetypeTableRecord
  2
PHANTOM2
 70
0
  3
Phantom (.5x) ___ _ _ ___ _ _ ___ _ _ ___ _ _
 72
65
 73
6
 40
31.7500000000000036
 49
15.875
 74
0
 49
-3.1749999999999998
 74
0
 49
3.1749999999999998
 74
0
 49
-3.1749999999999998
 74
0
 49
3.1749999999999998
 74
0
 49
-3.1749999999999998
 74
0
  0
LTYPE
  5
50
100
AcDbSymbolTableRecord
100
AcDbLinetypeTableRecord
  2
ACAD_ISO07W100
 70
0
  3
ISO dot . . . . . . . . . . . . . . . . . . . . 
 72
65
 73
2
 40
3.0
 49
0.1
 74
0
 49
-2.8999999999999999
 74
0
  0
LTYPE
  5
51
100
AcDbSymbolTableRecord
100
AcDbLinetypeTableRecord
  2
ACAD_ISO09W100
 70
0
  3
ISO long-dash double-short-dash ____ __ __ ____
 72
65
 73
6
 40
45.0
 49
24.0
 74
0
 49
-3.0
 74
0
 49
6.0
 74
0
 49
-3.0
 74
0
 49
6.0
 74
0
 49
-3.0
 74
0
  0
LTYPE
  5
52
100
AcDbSymbolTableRecord
100
AcDbLinetypeTableRecord
  2
DASHDOTTINY
 70
0
  3
Dash dot (.15x) _._._._._._._._._._._._._._._.
 72
65
 73
4
 40
3.8100000000000001
 49
1.905
 74
0
 49
-0.9025
 74
0
 49
0.1
 74
0
 49
-0.9025
 74
0
  0
LTYPE
  5
53
100
AcDbSymbolTableRecord
100
AcDbLinetypeTableRecord
  2
CENTERTINY
 70
0
  3
Center (.15x) ___ _ ___ _ ___ _ ___ _ ___ _ ___
 72
65
 73
4
 40
7.6199999999999992
 49
4.7625000000000002
 74
0
 49
-0.9525
 74
0
 49
0.9525
 74
0
 49
-0.9525
 74
0
  0
LTYPE
  5
14
100
AcDbSymbolTableRecord
100
AcDbLinetypeTableRecord
  2
ByBlock
 70
0
  3

 72
65
 73
0
 40
0.0
  0
LTYPE
  5
54
100
AcDbSymbolTableRecord
100
AcDbLinetypeTableRecord
  2
ACAD_ISO12W100
 70
0
  3
ISO dash double-dot __ . . __ . . __ . . __ . . 
 72
65
 73
6
 40
21.0
 49
12.0
 74
0
 49
-2.9500000000000002
 74
0
 49
0.1
 74
0
 49
-2.9000000000000004
 74
0
 49
0.1
 74
0
 49
-2.9500000000000002
 74
0
  0
LTYPE
  5
55
100
AcDbSymbolTableRecord
100
AcDbLinetypeTableRecord
  2
DASHDOT2
 70
0
  3
Dash dot (.5x) _._._._._._._._._._._._._._._.
 72
65
 73
4
 40
12.6999999999999993
 49
6.3499999999999996
 74
0
 49
-3.125
 74
0
 49
0.1
 74
0
 49
-3.125
 74
0
  0
LTYPE
  5
56
100
AcDbSymbolTableRecord
100
AcDbLinetypeTableRecord
  2
CENTERX2
 70
0
  3
Center (2x) ________  __  ________  __  _____
 72
65
 73
4
 40
101.6000000000000085
 49
63.5
 74
0
 49
-12.6999999999999993
 74
0
 49
12.6999999999999993
 74
0
 49
-12.6999999999999993
 74
0
  0
LTYPE
  5
57
100
AcDbSymbolTableRecord
100
AcDbLinetypeTableRecord
  2
BORDER2
 70
0
  3
Border (.5x) __.__.__.__.__.__.__.__.__.__.__.
 72
65
 73
6
 40
22.2250000000000014
 49
6.3499999999999996
 74
0
 49
-3.1749999999999998
 74
0
 49
6.3499999999999996
 74
0
 49
-3.125
 74
0
 49
0.1
 74
0
 49
-3.125
 74
0
  0
LTYPE
  5
58
100
AcDbSymbolTableRecord
100
AcDbLinetypeTableRecord
  2
DIVIDE
 70
0
  3
Divide ____ . . ____ . . ____ . . ____ . . ____
 72
65
 73
6
 40
31.7500000000000036
 49
12.6999999999999993
 74
0
 49
-6.2999999999999998
 74
0
 49
0.1
 74
0
 49
-6.25
 74
0
 49
0.1
 74
0
 49
-6.2999999999999998
 74
0
  0
LTYPE
  5
59
100
AcDbSymbolTableRecord
100
AcDbLinetypeTableRecord
  2
DIVIDE2
 70
0
  3
Divide (.5x) __..__..__..__..__..__..__..__.._
 72
65
 73
6
 40
15.8749999999999982
 49
6.3499999999999996
 74
0
 49
-3.125
 74
0
 49
0.1
 74
0
 49
-3.0750000000000002
 74
0
 49
0.1
 74
0
 49
-3.125
 74
0
  0
LTYPE
  5
5A
100
AcDbSymbolTableRecord
100
AcDbLinetypeTableRecord
  2
DOT
 70
0
  3
Dot . . . . . . . . . . . . . . . . . . . . . .
 72
65
 73
2
 40
6.3499999999999996
 49
0.1
 74
0
 49
-6.25
 74
0
  0
LTYPE
  5
5B
100
AcDbSymbolTableRecord
100
AcDbLinetypeTableRecord
  2
DASHDOTX2
 70
0
  3
Dash dot (2x) ____  .  ____  .  ____  .  ___
 72
65
 73
4
 40
50.7999999999999972
 49
25.3999999999999986
 74
0
 49
-12.6499999999999986
 74
0
 49
0.1
 74
0
 49
-12.6499999999999986
 74
0
  0
LTYPE
  5
5C
100
AcDbSymbolTableRecord
100
AcDbLinetypeTableRecord
  2
HIDDENX2
 70
0
  3
Hidden (2x) ____ ____ ____ ____ ____ ____ ____ 
 72
65
 73
2
 40
19.0499999999999972
 49
12.6999999999999993
 74
0
 49
-6.3499999999999996
 74
0
  0
ENDTAB
  0
TABLE
  2
LAYER
  5
2
100
AcDbSymbolTable
 70
8
  0
LAYER
  5
5D
100
AcDbSymbolTableRecord
100
AcDbLayerTableRecord
  2
1
 70
0
 62
7
420
0
  6
Continuous
370
25
390
F
  0
LAYER
  5
5E
100
AcDbSymbolTableRecord
100
AcDbLayerTableRecord
  2
0 fluting
 70
1
 62
197
420
4012102
  6
Continuous
370
25
390
F
  0
LAYER
  5
5F
100
AcDbSymbolTableRecord
100
AcDbLayerTableRecord
  2
0 holders
 70
5
 62
5
420
255
  6
Continuous
370
25
390
F
  0
LAYER
  5
60
100
AcDbSymbolTableRecord
100
AcDbLayerTableRecord
  2
helper
 70
1
 62
9
420
12566463
  6
DASHED
370
13
390
F
  0
LAYER
  5
61
100
AcDbSymbolTableRecord
100
AcDbLayerTableRecord
  2
0 holes
 70
5
 62
1
420
16711680
  6
Continuous
370
25
390
F
  0
LAYER
  5
62
100
AcDbSymbolTableRecord
100
AcDbLayerTableRecord
  2
quote
 70
0
 62
9
420
12566463
  6
Continuous
370
5
390
F
  0
LAYER
  5
10
100
AcDbSymbolTableRecord
100
AcDbLayerTableRecord
  2
0
 70
4
 62
2
420
16776960
  6
Continuous
370
25
390
F
  0
LAYER
  5
63
100
AcDbSymbolTableRecord
100
AcDbLayerTableRecord
  2
1 fluting
 70
1
 62
197
420
4012102
  6
Continuous
370
25
390
F
  0
ENDTAB
  0
TABLE
  2
STYLE
  5
3
100
AcDbSymbolTable
 70
1
  0
STYLE
  5
64
100
AcDbSymbolTableRecord
100
AcDbTextStyleTableRecord
  2
Standard
 70
0
 40
0.0
 41
1.0
 50
0.0
 71
0
 42
2.5
  3

  4

1001
ACAD
1000
txt
1071
0
  0
ENDTAB
  0
TABLE
  2
VIEW
  5
6
100
AcDbSymbolTable
 70
0
  0
ENDTAB
  0
TABLE
  2
UCS
  5
7
100
AcDbSymbolTable
 70
0
  0
ENDTAB
  0
TABLE
  2
APPID
  5
9
100
AcDbSymbolTable
 70
1
  0
APPID
  5
12
100
AcDbSymbolTableRecord
100
AcDbRegAppTableRecord
  2
ACAD
 70
0
  0
APPID
  5
65
100
AcDbSymbolTableRecord
100
AcDbRegAppTableRecord
  2
QCAD
 70
0
  0
ENDTAB
  0
TABLE
  2
DIMSTYLE
  5
A
100
AcDbSymbolTable
 70
1
100
AcDbDimStyleTable
 71
0
  0
DIMSTYLE
105
27
100
AcDbSymbolTableRecord
100
AcDbDimStyleTableRecord
  2
Standard
 41
2.5
 42
0.625
 43
3.75
 44
1.25
 70
0
 73
0
 74
0
 77
1
 78
8
140
2.5
141
2.5
143
0.03937007874016
147
0.625
171
3
172
1
271
2
272
2
274
3
278
44
283
0
284
8
340
64
  0
ENDTAB
  0
TABLE
  2
BLOCK_RECORD
  5
1
100
AcDbSymbolTable
 70
1
  0
BLOCK_RECORD
  5
1F
100
AcDbSymbolTableRecord
100
AcDbBlockTableRecord
  2
*Model_Space
340
22
  0
BLOCK_RECORD
  5
1B
100
AcDbSymbolTableRecord
100
AcDbBlockTableRecord
  2
*Paper_Space
340
1E
  0
BLOCK_RECORD
  5
23
100
AcDbSymbolTableRecord
100
AcDbBlockTableRecord
  2
*Paper_Space0
340
26
  0
ENDTAB
  0
ENDSEC
  0
SECTION
  2
BLOCKS
  0
BLOCK
  5
20
100
AcDbEntity
  8
0
100
AcDbBlockBegin
  2
*Model_Space
 70
0
 10
0.0
 20
0.0
 30
0.0
  3
*Model_Space
  1

  0
ENDBLK
  5
21
100
AcDbEntity
  8
0
100
AcDbBlockEnd
  0
BLOCK
  5
1C
100
AcDbEntity
 67
1
  8
0
100
AcDbBlockBegin
  2
*Paper_Space
 70
0
 10
0.0
 20
0.0
 30
0.0
  3
*Paper_Space
  1

  0
ENDBLK
  5
1D
100
AcDbEntity
 67
1
  8
0
100
AcDbBlockEnd
  0
BLOCK
  5
24
100
AcDbEntity
  8
0
100
AcDbBlockBegin
  2
*Paper_Space0
 70
0
 10
0.0
 20
0.0
 30
0.0
  3
*Paper_Space0
  1

  0
ENDBLK
  5
25
100
AcDbEntity
  8
0
100
AcDbBlockEnd
  0
ENDSEC
  0
SECTION
  2
ENTITIES
  0
CIRCLE
  5
66
100
AcDbEntity
  8
helper
 62
256
370
-1
 48
1.0
  6
ByLayer
100
AcDbCircle
 10
-25.0000000000000107
 20
2.9999999999999991
 30
0.0
 40
3.0
  0
CIRCLE
  5
67
100
AcDbEntity
  8
helper
 62
256
370
-1
 48
1.0
  6
ByLayer
100
AcDbCircle
 10
24.9999999999999893
 20
2.9999999999999991
 30
0.0
 40
3.0
  0
CIRCLE
  5
68
100
AcDbEntity
  8
helper
 62
256
370
-1
 48
1.0
  6
ByLayer
100
AcDbCircle
 10
-25.0000000000000107
 20
84.0
 30
0.0
 40
3.0
  0
CIRCLE
  5
69
100
AcDbEntity
  8
helper
 62
256
370
-1
 48
1.0
  6
ByLayer
100
AcDbCircle
 10
24.9999999999999893
 20
84.0
 30
0.0
 40
3.0
  0
CIRCLE
  5
6A
100
AcDbEntity
  8
helper
 62
256
370
-1
 48
1.0
  6
ByLayer
100
AcDbCircle
 10
24.4999999999999893
 20
61.5
 30
0.0
 40
3.0
  0
CIRCLE
  5
6B
100
AcDbEntity
  8
helper
 62
256
370
-1
 48
1.0
  6
ByLayer
100
AcDbCircle
 10
-24.5000000000000107
 20
61.5
 30
0.0
 40
3.0
  0
LINE
  5
6C
100
AcDbEntity
  8
0
 62
256
370
-1
 48
1.0
  6
ByLayer
100
AcDbLine
 10
-25.0000000000000178
 20
0.0000000000000404
 30
0.0
 11
24.9999999999999893
 21
0.0000000000000091
 31
0.0
  0
LINE
  5
6D
100
AcDbEntity
  8
0
 62
256
370
-1
 48
1.0
  6
ByLayer
100
AcDbLine
 10
27.9999999999999787
 20
2.9999999999999987
 30
0.0
 11
27.9999999999999751
 21
84.0
 31
0.0
  0
LINE
  5
6E
100
AcDbEntity
  8
0
 62
256
370
-1
 48
1.0
  6
ByLayer
100
AcDbLine
 10
24.9999999999999893
 20
86.9999999999999858
 30
0.0
 11
-25.0000000000000107
 21
87.0
 31
0.0
  0
ARC
  5
6F
100
AcDbEntity
  8
0
 62
256
370
-1
 48
1.0
  6
ByLayer
100
AcDbCircle
 10
24.9999999999999893
 20
2.9999999999999991
 30
0.0
 40
2.9999999999999902
100
AcDbArc
 50
270.0
 51
360.0
  0
HATCH
  5
70
100
AcDbEntity
  8
0
 62
256
370
-1
 48
1.0
  6
ByLayer
100
AcDbHatch
 10
0.0
 20
0.0
 30
0.0
210
0.0
220
0.0
230
1.0
  2
SOLID
 70
1
 71
0
 91
5
 92
1
 93
1
 72
2
 10
24.4999999999999893
 20
3.5000000000000018
 40
1.3500000000000001
 50
0.0
 51
360.0
 73
1
 97
0
 92
1
 93
1
 72
2
 10
24.4999999999999893
 20
61.5
 40
1.3500000000000001
 50
0.0
 51
360.0
 73
1
 97
0
 92
1
 93
1
 72
2
 10
-24.5000000000000107
 20
3.5000000000000009
 40
1.3500000000000001
 50
0.0
 51
360.0
 73
1
 97
0
 92
1
 93
8
 72
2
 10
24.9999999999999893
 20
84.0
 40
2.9999999999999858
 50
0.0
 51
90.0
 73
1
 72
1
 10
24.9999999999999893
 20
86.9999999999999858
 11
-25.0000000000000107
 21
87.0
 72
2
 10
-25.0000000000000107
 20
84.0
 40
3.0
 50
90.0
 51
180.0
 73
1
 72
1
 10
-27.9999999999999822
 20
84.0
 11
-27.9999999999999716
 21
3.0
 72
2
 10
-25.0000000000000107
 20
2.9999999999999987
 40
2.9999999999999583
 50
180.0
 51
269.9999999999998863
 73
1
 72
1
 10
-25.0000000000000178
 20
0.0000000000000404
 11
24.9999999999999893
 21
0.0000000000000091
 72
2
 10
24.9999999999999893
 20
2.9999999999999991
 40
2.9999999999999902
 50
270.0
 51
0.0
 73
1
 72
1
 10
27.9999999999999787
 20
2.9999999999999987
 11
27.9999999999999751
 21
84.0
 97
0
 92
1
 93
1
 72
2
 10
-24.5000000000000107
 20
61.5
 40
1.3500000000000001
 50
0.0
 51
360.0
 73
1
 97
0
 75
0
 76
1
 98
0
1001
ACAD
1010
0.0
1020
0.0
1030
0
  0
LINE
  5
71
100
AcDbEntity
  8
0
 62
256
370
-1
 48
1.0
  6
ByLayer
100
AcDbLine
 10
-27.9999999999999822
 20
84.0
 30
0.0
 11
-27.9999999999999716
 21
3.0
 31
0.0
  0
ARC
  5
72
100
AcDbEntity
  8
0
 62
256
370
-1
 48
1.0
  6
ByLayer
100
AcDbCircle
 10
-25.0000000000000107
 20
2.9999999999999987
 30
0.0
 40
2.9999999999999583
100
AcDbArc
 50
180.0
 51
269.9999999999998863
  0
LINE
  5
73
100
AcDbEntity
  8
0 fluting
 62
256
370
-1
 48
1.0
  6
ByLayer
100
AcDbLine
 10
-19.0000000000000107
 20
-0.0000000000000007
 30
0.0
 11
-19.0000000000000107
 21
87.0
 31
0.0
  0
LINE
  5
74
100
AcDbEntity
  8
0 fluting
 62
256
370
-1
 48
1.0
  6
ByLayer
100
AcDbLine
 10
-21.0000000000000142
 20
87.0
 30
0.0
 11
-19.0000000000000107
 21
87.0
 31
0.0
  0
LINE
  5
75
100
AcDbEntity
  8
0 fluting
 62
256
370
-1
 48
1.0
  6
ByLayer
100
AcDbLine
 10
-19.0000000000000107
 20
0.0000000000000335
 30
0.0
 11
-21.0
 21
0.000000000000036
 31
0.0
  0
LINE
  5
76
100
AcDbEntity
  8
0 fluting
 62
256
370
-1
 48
1.0
  6
ByLayer
100
AcDbLine
 10
-21.0
 20
0.000000000000036
 30
0.0
 11
-21.0000000000000142
 21
87.0
 31
0.0
  0
LINE
  5
77
100
AcDbEntity
  8
0 fluting
 62
256
370
-1
 48
1.0
  6
ByLayer
100
AcDbLine
 10
-15.0000000000000071
 20
-0.0000000000000007
 30
0.0
 11
-15.0000000000000071
 21
87.0
 31
0.0
  0
LINE
  5
78
100
AcDbEntity
  8
0 fluting
 62
256
370
-1
 48
1.0
  6
ByLayer
100
AcDbLine
 10
-17.0000000000000107
 20
87.0
 30
0.0
 11
-15.0000000000000071
 21
87.0
 31
0.0
  0
LINE
  5
79
100
AcDbEntity
  8
0 fluting
 62
256
370
-1
 48
1.0
  6
ByLayer
100
AcDbLine
 10
-15.0000000000000071
 20
0.0000000000000335
 30
0.0
 11
-17.0
 21
0.000000000000036
 31
0.0
  0
LINE
  5
7A
100
AcDbEntity
  8
0 fluting
 62
256
370
-1
 48
1.0
  6
ByLayer
100
AcDbLine
 10
-17.0
 20
0.000000000000036
 30
0.0
 11
-17.0000000000000107
 21
87.0
 31
0.0
  0
LINE
  5
7B
100
AcDbEntity
  8
0 fluting
 62
256
370
-1
 48
1.0
  6
ByLayer
100
AcDbLine
 10
-11.0000000000000036
 20
-0.0000000000000007
 30
0.0
 11
-11.0000000000000036
 21
87.0
 31
0.0
  0
LINE
  5
7C
100
AcDbEntity
  8
0 fluting
 62
256
370
-1
 48
1.0
  6
ByLayer
100
AcDbLine
 10
-13.0000000000000071
 20
87.0
 30
0.0
 11
-11.0000000000000036
 21
87.0
 31
0.0
  0
LINE
  5
7D
100
AcDbEntity
  8
0 fluting
 62
256
370
-1
 48
1.0
  6
ByLayer
100
AcDbLine
 10
-11.0000000000000036
 20
0.0000000000000335
 30
0.0
 11
-13.0
 21
0.000000000000036
 31
0.0
  0
LINE
  5
7E
100
AcDbEntity
  8
0 fluting
 62
256
370
-1
 48
1.0
  6
ByLayer
100
AcDbLine
 10
-13.0
 20
0.000000000000036
 30
0.0
 11
-13.0000000000000071
 21
87.0
 31
0.0
  0
LINE
  5
7F
100
AcDbEntity
  8
0 fluting
 62
256
370
-1
 48
1.0
  6
ByLayer
100
AcDbLine
 10
-7.0
 20
-0.0000000000000007
 30
0.0
 11
-7.0
 21
87.0
 31
0.0
  0
LINE
  5
80
100
AcDbEntity
  8
0 fluting
 62
256
370
-1
 48
1.0
  6
ByLayer
100
AcDbLine
 10
-9.0000000000000036
 20
87.0
 30
0.0
 11
-7.0
 21
87.0
 31
0.0
  0
LINE
  5
81
100
AcDbEntity
  8
0 fluting
 62
256
370
-1
 48
1.0
  6
ByLayer
100
AcDbLine
 10
-7.0
 20
0.0000000000000335
 30
0.0
 11
-9.0
 21
0.000000000000036
 31
0.0
  0
LINE
  5
82
100
AcDbEntity
  8
0 fluting
 62
256
370
-1
 48
1.0
  6
ByLayer
100
AcDbLine
 10
-9.0
 20
0.000000000000036
 30
0.0
 11
-9.0000000000000036
 21
87.0
 31
0.0
  0
LINE
  5
83
100
AcDbEntity
  8
0 fluting
 62
256
370
-1
 48
1.0
  6
ByLayer
100
AcDbLine
 10
-2.9999999999999964
 20
-0.0000000000000007
 30
0.0
 11
-2.9999999999999964
 21
87.0
 31
0.0
  0
LINE
  5
84
100
AcDbEntity
  8
0 fluting
 62
256
370
-1
 48
1.0
  6
ByLayer
100
AcDbLine
 10
-5.0
 20
87.0
 30
0.0
 11
-2.9999999999999964
 21
87.0
 31
0.0
  0
LINE
  5
85
100
AcDbEntity
  8
0 fluting
 62
256
370
-1
 48
1.0
  6
ByLayer
100
AcDbLine
 10
-2.9999999999999964
 20
0.0000000000000335
 30
0.0
 11
-5.0
 21
0.000000000000036
 31
0.0
  0
LINE
  5
86
100
AcDbEntity
  8
0 fluting
 62
256
370
-1
 48
1.0
  6
ByLayer
100
AcDbLine
 10
-5.0
 20
0.000000000000036
 30
0.0
 11
-5.0
 21
87.0
 31
0.0
  0
LINE
  5
87
100
AcDbEntity
  8
0 fluting
 62
256
370
-1
 48
1.0
  6
ByLayer
100
AcDbLine
 10
1.0000000000000071
 20
-0.0000000000000007
 30
0.0
 11
1.0000000000000071
 21
87.0
 31
0.0
  0
LINE
  5
88
100
AcDbEntity
  8
0 fluting
 62
256
370
-1
 48
1.0
  6
ByLayer
100
AcDbLine
 10
-0.9999999999999964
 20
87.0
 30
0.0
 11
1.0000000000000071
 21
87.0
 31
0.0
  0
LINE
  5
89
100
AcDbEntity
  8
0 fluting
 62
256
370
-1
 48
1.0
  6
ByLayer
100
AcDbLine
 10
1.0000000000000071
 20
0.0000000000000335
 30
0.0
 11
-1.0
 21
0.000000000000036
 31
0.0
  0
LINE
  5
8A
100
AcDbEntity
  8
0 fluting
 62
256
370
-1
 48
1.0
  6
ByLayer
100
AcDbLine
 10
-1.0
 20
0.000000000000036
 30
0.0
 11
-0.9999999999999964
 21
87.0
 31
0.0
  0
LINE
  5
8B
100
AcDbEntity
  8
0 fluting
 62
256
370
-1
 48
1.0
  6
ByLayer
100
AcDbLine
 10
5.0000000000000107
 20
-0.0000000000000007
 30
0.0
 11
5.0000000000000107
 21
87.0
 31
0.0
  0
LINE
  5
8C
100
AcDbEntity
  8
0 fluting
 62
256
370
-1
 48
1.0
  6
ByLayer
100
AcDbLine
 10
3.0000000000000071
 20
87.0
 30
0.0
 11
5.0000000000000107
 21
87.0
 31
0.0
  0
LINE
  5
8D
100
AcDbEntity
  8
0 fluting
 62
256
370
-1
 48
1.0
  6
ByLayer
100
AcDbLine
 10
5.0000000000000107
 20
0.0000000000000335
 30
0.0
 11
3.0
 21
0.000000000000036
 31
0.0
  0
LINE
  5
8E
100
AcDbEntity
  8
0 fluting
 62
256
370
-1
 48
1.0
  6
ByLayer
100
AcDbLine
 10
3.0
 20
0.000000000000036
 30
0.0
 11
3.0000000000000071
 21
87.0
 31
0.0
  0
LINE
  5
8F
100
AcDbEntity
  8
0 fluting
 62
256
370
-1
 48
1.0
  6
ByLayer
100
AcDbLine
 10
9.0000000000000142
 20
-0.0000000000000007
 30
0.0
 11
9.0000000000000142
 21
87.0
 31
0.0
  0
LINE
  5
90
100
AcDbEntity
  8
0 fluting
 62
256
370
-1
 48
1.0
  6
ByLayer
100
AcDbLine
 10
7.0000000000000107
 20
87.0
 30
0.0
 11
9.0000000000000142
 21
87.0
 31
0.0
  0
LINE
  5
91
100
AcDbEntity
  8
0 fluting
 62
256
370
-1
 48
1.0
  6
ByLayer
100
AcDbLine
 10
9.0000000000000142
 20
0.0000000000000335
 30
0.0
 11
7.0
 21
0.000000000000036
 31
0.0
  0
LINE
  5
92
100
AcDbEntity
  8
0 fluting
 62
256
370
-1
 48
1.0
  6
ByLayer
100
AcDbLine
 10
7.0
 20
0.000000000000036
 30
0.0
 11
7.0000000000000107
 21
87.0
 31
0.0
  0
LINE
  5
93
100
AcDbEntity
  8
0 fluting
 62
256
370
-1
 48
1.0
  6
ByLayer
100
AcDbLine
 10
13.0000000000000178
 20
-0.0000000000000007
 30
0.0
 11
13.0000000000000178
 21
87.0
 31
0.0
  0
LINE
  5
94
100
AcDbEntity
  8
0 fluting
 62
256
370
-1
 48
1.0
  6
ByLayer
100
AcDbLine
 10
11.0000000000000142
 20
87.0
 30
0.0
 11
13.0000000000000178
 21
87.0
 31
0.0
  0
LINE
  5
95
100
AcDbEntity
  8
0 fluting
 62
256
370
-1
 48
1.0
  6
ByLayer
100
AcDbLine
 10
13.0000000000000178
 20
0.0000000000000335
 30
0.0
 11
11.0
 21
0.000000000000036
 31
0.0
  0
LINE
  5
96
100
AcDbEntity
  8
0 fluting
 62
256
370
-1
 48
1.0
  6
ByLayer
100
AcDbLine
 10
11.0
 20
0.000000000000036
 30
0.0
 11
11.0000000000000142
 21
87.0
 31
0.0
  0
LINE
  5
97
100
AcDbEntity
  8
0 fluting
 62
256
370
-1
 48
1.0
  6
ByLayer
100
AcDbLine
 10
17.0000000000000178
 20
-0.0000000000000007
 30
0.0
 11
17.0000000000000178
 21
87.0
 31
0.0
  0
LINE
  5
98
100
AcDbEntity
  8
0 fluting
 62
256
370
-1
 48
1.0
  6
ByLayer
100
AcDbLine
 10
15.0000000000000142
 20
87.0
 30
0.0
 11
17.0000000000000178
 21
87.0
 31
0.0
  0
LINE
  5
99
100
AcDbEntity
  8
0 fluting
 62
256
370
-1
 48
1.0
  6
ByLayer
100
AcDbLine
 10
17.0000000000000178
 20
0.0000000000000335
 30
0.0
 11
15.0
 21
0.000000000000036
 31
0.0
  0
LINE
  5
9A
100
AcDbEntity
  8
0 fluting
 62
256
370
-1
 48
1.0
  6
ByLayer
100
AcDbLine
 10
15.0
 20
0.000000000000036
 30
0.0
 11
15.0000000000000142
 21
87.0
 31
0.0
  0
LINE
  5
9B
100
AcDbEntity
  8
0 fluting
 62
256
370
-1
 48
1.0
  6
ByLayer
100
AcDbLine
 10
21.0000000000000249
 20
-0.0000000000000007
 30
0.0
 11
21.0000000000000249
 21
87.0
 31
0.0
  0
LINE
  5
9C
100
AcDbEntity
  8
0 fluting
 62
256
370
-1
 48
1.0
  6
ByLayer
100
AcDbLine
 10
19.0000000000000213
 20
87.0
 30
0.0
 11
21.0000000000000249
 21
87.0
 31
0.0
  0
LINE
  5
9D
100
AcDbEntity
  8
0 fluting
 62
256
370
-1
 48
1.0
  6
ByLayer
100
AcDbLine
 10
21.0000000000000249
 20
0.0000000000000335
 30
0.0
 11
19.0
 21
0.000000000000036
 31
0.0
  0
LINE
  5
9E
100
AcDbEntity
  8
0 fluting
 62
256
370
-1
 48
1.0
  6
ByLayer
100
AcDbLine
 10
19.0
 20
0.000000000000036
 30
0.0
 11
19.0000000000000213
 21
87.0
 31
0.0
  0
LINE
  5
9F
100
AcDbEntity
  8
0 fluting
 62
256
370
-1
 48
1.0
  6
ByLayer
100
AcDbLine
 10
27.9999999999999751
 20
6.4999979750839092
 30
0.0
 11
21.0000000000000249
 21
6.4999979750839145
 31
0.0
  0
LINE
  5
A0
100
AcDbEntity
  8
0 fluting
 62
256
370
-1
 48
1.0
  6
ByLayer
100
AcDbLine
 10
21.0000000000000249
 20
6.4999979750839145
 30
0.0
 11
21.0000000000000284
 21
-0.0
 31
0.0
  0
LINE
  5
A1
100
AcDbEntity
  8
0 fluting
 62
256
370
-1
 48
1.0
  6
ByLayer
100
AcDbLine
 10
21.0
 20
0.0
 30
0.0
 11
27.9999999999999751
 21
0.0
 31
0.0
  0
LINE
  5
A2
100
AcDbEntity
  8
0 fluting
 62
256
370
-1
 48
1.0
  6
ByLayer
100
AcDbLine
 10
27.9999999999999751
 20
0.0
 30
0.0
 11
27.9999999999999751
 21
6.4999979750839092
 31
0.0
  0
LINE
  5
A3
100
AcDbEntity
  8
0 fluting
 62
256
370
-1
 48
1.0
  6
ByLayer
100
AcDbLine
 10
-27.9999999999999716
 20
6.5023256972567252
 30
0.0
 11
-21.0
 21
6.4999999999999991
 31
0.0
  0
LINE
  5
A4
100
AcDbEntity
  8
0 fluting
 62
256
370
-1
 48
1.0
  6
ByLayer
100
AcDbLine
 10
-21.0
 20
6.4999999999999991
 30
0.0
 11
-21.0
 21
0.0000000000000382
 31
0.0
  0
LINE
  5
A5
100
AcDbEntity
  8
0 fluting
 62
256
370
-1
 48
1.0
  6
ByLayer
100
AcDbLine
 10
-21.0000000000000036
 20
0.0000000000000379
 30
0.0
 11
-27.9999999999999716
 21
0.0002912791734948
 31
0.0
  0
LINE
  5
A6
100
AcDbEntity
  8
0 fluting
 62
256
370
-1
 48
1.0
  6
ByLayer
100
AcDbLine
 10
-27.9999999999999716
 20
0.0002912791734948
 30
0.0
 11
-27.9999999999999716
 21
6.5023256972567252
 31
0.0
  0
LINE
  5
A7
100
AcDbEntity
  8
0 fluting
 62
256
370
-1
 48
1.0
  6
ByLayer
100
AcDbLine
 10
27.9999999999999716
 20
64.4999999999999716
 30
0.0
 11
21.0
 21
64.4999999999999716
 31
0.0
  0
LINE
  5
A8
100
AcDbEntity
  8
0 fluting
 62
256
370
-1
 48
1.0
  6
ByLayer
100
AcDbLine
 10
21.0
 20
64.4999999999999716
 30
0.0
 11
21.0
 21
58.4999999999999929
 31
0.0
  0
LINE
  5
A9
100
AcDbEntity
  8
0 fluting
 62
256
370
-1
 48
1.0
  6
ByLayer
100
AcDbLine
 10
21.0
 20
58.4999999999999929
 30
0.0
 11
27.9999999999999716
 21
58.4999999999999929
 31
0.0
  0
LINE
  5
AA
100
AcDbEntity
  8
0 fluting
 62
256
370
-1
 48
1.0
  6
ByLayer
100
AcDbLine
 10
27.9999999999999716
 20
58.4999999999999929
 30
0.0
 11
27.9999999999999716
 21
64.4999999999999716
 31
0.0
  0
LINE
  5
AB
100
AcDbEntity
  8
0 fluting
 62
256
370
-1
 48
1.0
  6
ByLayer
100
AcDbLine
 10
-27.9999999999999822
 20
64.5059734633511823
 30
0.0
 11
-21.0
 21
64.5059734633511823
 31
0.0
  0
LINE
  5
AC
100
AcDbEntity
  8
0 fluting
 62
256
370
-1
 48
1.0
  6
ByLayer
100
AcDbLine
 10
-21.0
 20
64.5059734633511823
 30
0.0
 11
-21.0
 21
58.4999999999999929
 31
0.0
  0
LINE
  5
AD
100
AcDbEntity
  8
0 fluting
 62
256
370
-1
 48
1.0
  6
ByLayer
100
AcDbLine
 10
-21.0
 20
58.4999999999999929
 30
0.0
 11
-27.9999999999999822
 21
58.4999999999999929
 31
0.0
  0
LINE
  5
AE
100
AcDbEntity
  8
0 fluting
 62
256
370
-1
 48
1.0
  6
ByLayer
100
AcDbLine
 10
-27.9999999999999822
 20
58.4999999999999929
 30
0.0
 11
-27.9999999999999822
 21
64.5059734633511823
 31
0.0
  0
HATCH
  5
AF
100
AcDbEntity
  8
0 fluting
 62
256
370
-1
 48
1.0
  6
ByLayer
100
AcDbHatch
 10
0.0
 20
0.0
 30
0.0
210
0.0
220
0.0
230
1.0
  2
SOLID
 70
1
 71
0
 91
1
 92
1
 93
4
 72
1
 10
-17.0
 20
0.000000000000036
 11
-17.0000000000000107
 21
87.0
 72
1
 10
-17.0000000000000107
 20
87.0
 11
-15.0000000000000071
 21
87.0
 72
1
 10
-15.0000000000000071
 20
87.0
 11
-15.0000000000000071
 21
-0.0000000000000007
 72
1
 10
-15.0000000000000071
 20
0.0000000000000335
 11
-17.0
 21
0.000000000000036
 97
0
 75
0
 76
1
 98
0
1001
ACAD
1010
0.0
1020
0.0
1030
0
  0
HATCH
  5
B0
100
AcDbEntity
  8
0 fluting
 62
256
370
-1
 48
1.0
  6
ByLayer
100
AcDbHatch
 10
0.0
 20
0.0
 30
0.0
210
0.0
220
0.0
230
1.0
  2
SOLID
 70
1
 71
0
 91
1
 92
1
 93
4
 72
1
 10
21.0
 20
0.0
 11
27.9999999999999751
 21
0.0
 72
1
 10
27.9999999999999751
 20
0.0
 11
27.9999999999999751
 21
6.4999979750839092
 72
1
 10
27.9999999999999751
 20
6.4999979750839092
 11
21.0000000000000249
 21
6.4999979750839145
 72
1
 10
21.0000000000000249
 20
6.4999979750839145
 11
21.0000000000000284
 21
-0.0
 97
0
 75
0
 76
1
 98
0
1001
ACAD
1010
0.0
1020
0.0
1030
0
  0
HATCH
  5
B1
100
AcDbEntity
  8
0 fluting
 62
256
370
-1
 48
1.0
  6
ByLayer
100
AcDbHatch
 10
0.0
 20
0.0
 30
0.0
210
0.0
220
0.0
230
1.0
  2
SOLID
 70
1
 71
0
 91
1
 92
1
 93
4
 72
1
 10
-9.0
 20
0.000000000000036
 11
-9.0000000000000036
 21
87.0
 72
1
 10
-9.0000000000000036
 20
87.0
 11
-7.0
 21
87.0
 72
1
 10
-7.0
 20
87.0
 11
-7.0
 21
-0.0000000000000007
 72
1
 10
-7.0
 20
0.0000000000000335
 11
-9.0
 21
0.000000000000036
 97
0
 75
0
 76
1
 98
0
1001
ACAD
1010
0.0
1020
0.0
1030
0
  0
HATCH
  5
B2
100
AcDbEntity
  8
0 fluting
 62
256
370
-1
 48
1.0
  6
ByLayer
100
AcDbHatch
 10
0.0
 20
0.0
 30
0.0
210
0.0
220
0.0
230
1.0
  2
SOLID
 70
1
 71
0
 91
1
 92
1
 93
4
 72
1
 10
-21.0
 20
0.000000000000036
 11
-21.0000000000000142
 21
87.0
 72
1
 10
-21.0000000000000142
 20
87.0
 11
-19.0000000000000107
 21
87.0
 72
1
 10
-19.0000000000000107
 20
87.0
 11
-19.0000000000000107
 21
-0.0000000000000007
 72
1
 10
-19.0000000000000107
 20
0.0000000000000335
 11
-21.0
 21
0.000000000000036
 97
0
 75
0
 76
1
 98
0
1001
ACAD
1010
0.0
1020
0.0
1030
0
  0
HATCH
  5
B3
100
AcDbEntity
  8
0 fluting
 62
256
370
-1
 48
1.0
  6
ByLayer
100
AcDbHatch
 10
0.0
 20
0.0
 30
0.0
210
0.0
220
0.0
230
1.0
  2
SOLID
 70
1
 71
0
 91
1
 92
1
 93
4
 72
1
 10
-1.0
 20
0.000000000000036
 11
-0.9999999999999964
 21
87.0
 72
1
 10
-0.9999999999999964
 20
87.0
 11
1.0000000000000071
 21
87.0
 72
1
 10
1.0000000000000071
 20
87.0
 11
1.0000000000000071
 21
-0.0000000000000007
 72
1
 10
1.0000000000000071
 20
0.0000000000000335
 11
-1.0
 21
0.000000000000036
 97
0
 75
0
 76
1
 98
0
1001
ACAD
1010
0.0
1020
0.0
1030
0
  0
HATCH
  5
B4
100
AcDbEntity
  8
0 fluting
 62
256
370
-1
 48
1.0
  6
ByLayer
100
AcDbHatch
 10
0.0
 20
0.0
 30
0.0
210
0.0
220
0.0
230
1.0
  2
SOLID
 70
1
 71
0
 91
1
 92
1
 93
4
 72
1
 10
-13.0
 20
0.000000000000036
 11
-13.0000000000000071
 21
87.0
 72
1
 10
-13.0000000000000071
 20
87.0
 11
-11.0000000000000036
 21
87.0
 72
1
 10
-11.0000000000000036
 20
87.0
 11
-11.0000000000000036
 21
-0.0000000000000007
 72
1
 10
-11.0000000000000036
 20
0.0000000000000335
 11
-13.0
 21
0.000000000000036
 97
0
 75
0
 76
1
 98
0
1001
ACAD
1010
0.0
1020
0.0
1030
0
  0
HATCH
  5
B5
100
AcDbEntity
  8
0 fluting
 62
256
370
-1
 48
1.0
  6
ByLayer
100
AcDbHatch
 10
0.0
 20
0.0
 30
0.0
210
0.0
220
0.0
230
1.0
  2
SOLID
 70
1
 71
0
 91
1
 92
1
 93
4
 72
1
 10
7.0
 20
0.000000000000036
 11
7.0000000000000107
 21
87.0
 72
1
 10
7.0000000000000107
 20
87.0
 11
9.0000000000000142
 21
87.0
 72
1
 10
9.0000000000000142
 20
87.0
 11
9.0000000000000142
 21
-0.0000000000000007
 72
1
 10
9.0000000000000142
 20
0.0000000000000335
 11
7.0
 21
0.000000000000036
 97
0
 75
0
 76
1
 98
0
1001
ACAD
1010
0.0
1020
0.0
1030
0
  0
HATCH
  5
B6
100
AcDbEntity
  8
0 fluting
 62
256
370
-1
 48
1.0
  6
ByLayer
100
AcDbHatch
 10
0.0
 20
0.0
 30
0.0
210
0.0
220
0.0
230
1.0
  2
SOLID
 70
1
 71
0
 91
1
 92
1
 93
4
 72
1
 10
-5.0
 20
0.000000000000036
 11
-5.0
 21
87.0
 72
1
 10
-5.0
 20
87.0
 11
-2.9999999999999964
 21
87.0
 72
1
 10
-2.9999999999999964
 20
87.0
 11
-2.9999999999999964
 21
-0.0000000000000007
 72
1
 10
-2.9999999999999964
 20
0.0000000000000335
 11
-5.0
 21
0.000000000000036
 97
0
 75
0
 76
1
 98
0
1001
ACAD
1010
0.0
1020
0.0
1030
0
  0
HATCH
  5
B7
100
AcDbEntity
  8
0 fluting
 62
256
370
-1
 48
1.0
  6
ByLayer
100
AcDbHatch
 10
0.0
 20
0.0
 30
0.0
210
0.0
220
0.0
230
1.0
  2
SOLID
 70
1
 71
0
 91
1
 92
1
 93
4
 72
1
 10
15.0
 20
0.000000000000036
 11
15.0000000000000142
 21
87.0
 72
1
 10
15.0000000000000142
 20
87.0
 11
17.0000000000000178
 21
87.0
 72
1
 10
17.0000000000000178
 20
87.0
 11
17.0000000000000178
 21
-0.0000000000000007
 72
1
 10
17.0000000000000178
 20
0.0000000000000335
 11
15.0
 21
0.000000000000036
 97
0
 75
0
 76
1
 98
0
1001
ACAD
1010
0.0
1020
0.0
1030
0
  0
HATCH
  5
B8
100
AcDbEntity
  8
0 fluting
 62
256
370
-1
 48
1.0
  6
ByLayer
100
AcDbHatch
 10
0.0
 20
0.0
 30
0.0
210
0.0
220
0.0
230
1.0
  2
SOLID
 70
1
 71
0
 91
1
 92
1
 93
4
 72
1
 10
3.0
 20
0.000000000000036
 11
3.0000000000000071
 21
87.0
 72
1
 10
3.0000000000000071
 20
87.0
 11
5.0000000000000107
 21
87.0
 72
1
 10
5.0000000000000107
 20
87.0
 11
5.0000000000000107
 21
-0.0000000000000007
 72
1
 10
5.0000000000000107
 20
0.0000000000000335
 11
3.0
 21
0.000000000000036
 97
0
 75
0
 76
1
 98
0
1001
ACAD
1010
0.0
1020
0.0
1030
0
  0
HATCH
  5
B9
100
AcDbEntity
  8
0 fluting
 62
256
370
-1
 48
1.0
  6
ByLayer
100
AcDbHatch
 10
0.0
 20
0.0
 30
0.0
210
0.0
220
0.0
230
1.0
  2
SOLID
 70
1
 71
0
 91
1
 92
1
 93
4
 72
1
 10
-27.9999999999999716
 20
6.5023256972567252
 11
-21.0
 21
6.5023256972567252
 72
1
 10
-21.0
 20
6.5023256972567252
 11
-21.0
 21
0.0002912791734948
 72
1
 10
-21.0
 20
0.0002912791734948
 11
-27.9999999999999716
 21
0.0002912791734948
 72
1
 10
-27.9999999999999716
 20
0.0002912791734948
 11
-27.9999999999999716
 21
6.5023256972567252
 97
0
 75
0
 76
1
 98
0
1001
ACAD
1010
0.0
1020
0.0
1030
0
  0
HATCH
  5
BA
100
AcDbEntity
  8
0 fluting
 62
256
370
-1
 48
1.0
  6
ByLayer
100
AcDbHatch
 10
0.0
 20
0.0
 30
0.0
210
0.0
220
0.0
230
1.0
  2
SOLID
 70
1
 71
0
 91
1
 92
1
 93
4
 72
1
 10
11.0
 20
0.000000000000036
 11
11.0000000000000142
 21
87.0
 72
1
 10
11.0000000000000142
 20
87.0
 11
13.0000000000000178
 21
87.0
 72
1
 10
13.0000000000000178
 20
87.0
 11
13.0000000000000178
 21
-0.0000000000000007
 72
1
 10
13.0000000000000178
 20
0.0000000000000335
 11
11.0
 21
0.000000000000036
 97
0
 75
0
 76
1
 98
0
1001
ACAD
1010
0.0
1020
0.0
1030
0
  0
HATCH
  5
BB
100
AcDbEntity
  8
0 fluting
 62
256
370
-1
 48
1.0
  6
ByLayer
100
AcDbHatch
 10
0.0
 20
0.0
 30
0.0
210
0.0
220
0.0
230
1.0
  2
SOLID
 70
1
 71
0
 91
1
 92
1
 93
4
 72
1
 10
-27.9999999999999822
 20
64.5059734633511823
 11
-21.0
 21
64.5059734633511823
 72
1
 10
-21.0
 20
64.5059734633511823
 11
-21.0
 21
58.4999999999999929
 72
1
 10
-21.0
 20
58.4999999999999929
 11
-27.9999999999999822
 21
58.4999999999999929
 72
1
 10
-27.9999999999999822
 20
58.4999999999999929
 11
-27.9999999999999822
 21
64.5059734633511823
 97
0
 75
0
 76
1
 98
0
1001
ACAD
1010
0.0
1020
0.0
1030
0
  0
HATCH
  5
BC
100
AcDbEntity
  8
0 fluting
 62
256
370
-1
 48
1.0
  6
ByLayer
100
AcDbHatch
 10
0.0
 20
0.0
 30
0.0
210
0.0
220
0.0
230
1.0
  2
SOLID
 70
1
 71
0
 91
1
 92
1
 93
4
 72
1
 10
27.9999999999999716
 20
64.5
 11
21.0
 21
64.4999999999999716
 72
1
 10
21.0
 20
64.4999999999999716
 11
21.0
 21
58.4999999999999929
 72
1
 10
21.0
 20
58.4999999999999929
 11
27.9999999999999716
 21
58.4999999999999929
 72
1
 10
27.9999999999999716
 20
58.4999999999999929
 11
27.9999999999999716
 21
64.5
 97
0
 75
0
 76
1
 98
0
1001
ACAD
1010
0.0
1020
0.0
1030
0
  0
HATCH
  5
BD
100
AcDbEntity
  8
0 fluting
 62
256
370
-1
 48
1.0
  6
ByLayer
100
AcDbHatch
 10
0.0
 20
0.0
 30
0.0
210
0.0
220
0.0
230
1.0
  2
SOLID
 70
1
 71
0
 91
1
 92
1
 93
4
 72
1
 10
19.0
 20
0.000000000000036
 11
19.0000000000000213
 21
87.0
 72
1
 10
19.0000000000000213
 20
87.0
 11
21.0000000000000249
 21
87.0
 72
1
 10
21.0000000000000249
 20
87.0
 11
21.0000000000000249
 21
-0.0000000000000007
 72
1
 10
21.0000000000000249
 20
0.0000000000000335
 11
19.0
 21
0.000000000000036
 97
0
 75
0
 76
1
 98
0
1001
ACAD
1010
0.0
1020
0.0
1030
0
  0
LINE
  5
BE
100
AcDbEntity
  8
1
 62
256
370
-1
 48
1.0
  6
ByLayer
100
AcDbLine
 10
-8.0000000000000107
 20
70.0
 30
0.0
 11
27.9999999999999751
 21
70.0
 31
0.0
  0
LINE
  5
BF
100
AcDbEntity
  8
1
 62
256
370
-1
 48
1.0
  6
ByLayer
100
AcDbLine
 10
27.9999999999999751
 20
70.0
 30
0.0
 11
27.9999999999999787
 21
2.9999999999999996
 31
0.0
  0
LINE
  5
C0
100
AcDbEntity
  8
1
 62
256
370
-1
 48
1.0
  6
ByLayer
100
AcDbLine
 10
24.9999999999999893
 20
-0.0000000000000073
 30
0.0
 11
-25.0000000000000107
 21
-0.0000000000000002
 31
0.0
  0
LINE
  5
C1
100
AcDbEntity
  8
1
 62
256
370
-1
 48
1.0
  6
ByLayer
100
AcDbLine
 10
-28.0000000000000107
 20
3.0
 30
0.0
 11
-27.9999999999999822
 21
66.0
 31
0.0
  0
ARC
  5
C2
100
AcDbEntity
  8
0
 62
256
370
-1
 48
1.0
  6
ByLayer
100
AcDbCircle
 10
-25.0000000000000107
 20
84.0
 30
0.0
 40
3.0
100
AcDbArc
 50
90.0
 51
180.0
  0
ARC
  5
C3
100
AcDbEntity
  8
1
 62
256
370
-1
 48
1.0
  6
ByLayer
100
AcDbCircle
 10
-25.0000000000000107
 20
2.9999999999999991
 30
0.0
 40
3.0
100
AcDbArc
 50
180.0
 51
270.0
  0
ARC
  5
C4
100
AcDbEntity
  8
1
 62
256
370
-1
 48
1.0
  6
ByLayer
100
AcDbCircle
 10
24.9999999999999893
 20
2.9999999999999991
 30
0.0
 40
2.9999999999999858
100
AcDbArc
 50
270.0
 51
0.0
  0
LINE
  5
C5
100
AcDbEntity
  8
1
 62
256
370
-1
 48
1.0
  6
ByLayer
100
AcDbLine
 10
-27.9999999999999822
 20
66.0
 30
0.0
 11
-10.0
 21
66.0
 31
0.0
  0
LINE
  5
C6
100
AcDbEntity
  8
1
 62
256
370
-1
 48
1.0
  6
ByLayer
100
AcDbLine
 10
-10.0
 20
66.0
 30
0.0
 11
-8.0000000000000107
 21
70.0
 31
0.0
  0
ARC
  5
C7
100
AcDbEntity
  8
0
 62
256
370
-1
 48
1.0
  6
ByLayer
100
AcDbCircle
 10
24.9999999999999893
 20
84.0
 30
0.0
 40
2.9999999999999858
100
AcDbArc
 50
0.0
 51
90.0
  0
ARC
  5
C8
100
AcDbEntity
  8
0 holders
 62
256
370
-1
 48
1.0
  6
ByLayer
100
AcDbCircle
 10
24.9999999999999893
 20
2.9999999999999991
 30
0.0
 40
2.9999999999999889
100
AcDbArc
 50
270.0
 51
0.0
  0
ARC
  5
C9
100
AcDbEntity
  8
0 holders
 62
256
370
-1
 48
1.0
  6
ByLayer
100
AcDbCircle
 10
-25.0077865698117527
 20
3.0002912791734939
 30
0.0
 40
3.0
100
AcDbArc
 50
180.0
 51
270.0
  0
CIRCLE
  5
CA
100
AcDbEntity
  8
0 holders
 62
256
370
-1
 48
1.0
  6
ByLayer
100
AcDbCircle
 10
-24.5000059470499743
 20
61.5059734633511823
 30
0.0
 40
1.3500000000000001
  0
CIRCLE
  5
CB
100
AcDbEntity
  8
0 holders
 62
256
370
-1
 48
1.0
  6
ByLayer
100
AcDbCircle
 10
-24.5077865698117527
 20
3.5002912791734939
 30
0.0
 40
1.3500000000000001
  0
CIRCLE
  5
CC
100
AcDbEntity
  8
0 holders
 62
256
370
-1
 48
1.0
  6
ByLayer
100
AcDbCircle
 10
24.5000028043815377
 20
3.4999960738658382
 30
0.0
 40
1.3500000000000001
  0
CIRCLE
  5
CD
100
AcDbEntity
  8
0 holders
 62
256
370
-1
 48
1.0
  6
ByLayer
100
AcDbCircle
 10
24.4999999999999893
 20
61.5
 30
0.0
 40
1.3500000000000001
  0
ARC
  5
CE
100
AcDbEntity
  8
0 holders
 62
256
370
-1
 48
1.0
  6
ByLayer
100
AcDbCircle
 10
24.4999999999999893
 20
61.5
 30
0.0
 40
3.0
100
AcDbArc
 50
90.0
 51
270.0
  0
ARC
  5
CF
100
AcDbEntity
  8
0 holders
 62
256
370
-1
 48
1.0
  6
ByLayer
100
AcDbCircle
 10
-24.5000059470499743
 20
61.5059734633511823
 30
0.0
 40
3.0
100
AcDbArc
 50
270.0
 51
90.0
  0
LINE
  5
D0
100
AcDbEntity
  8
0 holders
 62
256
370
-1
 48
1.0
  6
ByLayer
100
AcDbLine
 10
24.4999999999999893
 20
64.5
 30
0.0
 11
27.9999999999999787
 21
64.4999999999999858
 31
0.0
  0
LINE
  5
D1
100
AcDbEntity
  8
0 holders
 62
256
370
-1
 48
1.0
  6
ByLayer
100
AcDbLine
 10
24.4999999999999893
 20
58.5
 30
0.0
 11
27.9999999999999787
 21
58.5
 31
0.0
  0
LINE
  5
D2
100
AcDbEntity
  8
0 holders
 62
256
370
-1
 48
1.0
  6
ByLayer
100
AcDbLine
 10
-24.5000059470499743
 20
64.5059734633511823
 30
0.0
 11
-28.0000059470499743
 21
64.5059734633511823
 31
0.0
  0
LINE
  5
D3
100
AcDbEntity
  8
0 holders
 62
256
370
-1
 48
1.0
  6
ByLayer
100
AcDbLine
 10
-24.5000059470499743
 20
58.5059734633511823
 30
0.0
 11
-28.0000059470499743
 21
58.5059734633511823
 31
0.0
  0
DIMENSION
  5
D4
100
AcDbEntity
  8
quote
 62
256
370
-1
 48
1.0
  6
ByLayer
100
AcDbDimension
 10
41.9999999999999858
 20
-0.0000000000000646
 30
0.0
 11
40.1249999999999858
 21
3.2499998023502674
 31
0.0
 70
0
 71
8
 72
1
 74
0
 75
0
 41
1.0
 42
0.0
  1

  3
Standard
100
AcDbAlignedDimension
 13
27.9999999999999893
 23
0.0000000000000191
 33
0.0
 14
27.5015400638852903
 24
6.4999996047005144
 34
0.0
 50
90.0
100
AcDbRotatedDimension
1001
ACAD
1000
DSTYLE
1002
{
1070
144
1040
1.0
1070
40
1040
1.0
1002
}
  0
DIMENSION
  5
D5
100
AcDbEntity
  8
quote
 62
256
370
-1
 48
1.0
  6
ByLayer
100
AcDbDimension
 10
-41.0000000000000142
 20
-0.0000000000000318
 30
0.0
 11
-42.0000000000000142
 21
8.9999999999999893
 31
0.0
 70
128
 71
8
 72
1
 74
0
 75
0
 41
1.0
 42
0.0
  1

  3
Standard
100
AcDbAlignedDimension
 13
-27.5000000000000107
 23
-0.0000000000000149
 33
0.0
 14
-27.5000000000000107
 24
6.5000000000000027
 34
0.0
 50
90.0
100
AcDbRotatedDimension
1001
ACAD
1000
DSTYLE
1002
{
1070
279
1070
2
1070
144
1040
1.0
1070
40
1040
1.0
1002
}
  0
DIMENSION
  5
D6
100
AcDbEntity
  8
quote
 62
256
370
-1
 48
1.0
  6
ByLayer
100
AcDbDimension
 10
27.9999999999999858
 20
-11.0000000000000053
 30
0.0
 11
24.7499999999999893
 21
-9.1250000000000036
 31
0.0
 70
0
 71
8
 72
1
 74
0
 75
0
 41
1.0
 42
0.0
  1

  3
Standard
100
AcDbAlignedDimension
 13
27.9999999999999893
 23
2.9999999999999827
 33
0.0
 14
21.4999999999999893
 24
3.999999999999992
 34
0.0
 50
0.0
100
AcDbRotatedDimension
1001
ACAD
1000
DSTYLE
1002
{
1070
144
1040
1.0
1070
40
1040
1.0
1002
}
  0
ARC
  5
D7
100
AcDbEntity
  8
0 holders
 62
256
370
-1
 48
1.0
  6
ByLayer
100
AcDbCircle
 10
24.5000028043815377
 20
3.4999960738658382
 30
0.0
 40
2.9999999999999711
100
AcDbArc
 50
89.9999935288587096
 51
179.9216118659895187
  0
ARC
  5
D8
100
AcDbEntity
  8
0 holders
 62
256
370
-1
 48
1.0
  6
ByLayer
100
AcDbCircle
 10
-24.5077865698117527
 20
3.5002912791734939
 30
0.0
 40
3.0
100
AcDbArc
 50
360.0
 51
89.9999999999999147
  0
LINE
  5
D9
100
AcDbEntity
  8
0 holders
 62
256
370
-1
 48
1.0
  6
ByLayer
100
AcDbLine
 10
-27.9999954739662833
 20
6.5023256946200476
 30
0.0
 11
-24.5077865698117527
 21
6.5002912791734939
 31
0.0
  0
LINE
  5
DA
100
AcDbEntity
  8
0 holders
 62
256
370
-1
 48
1.0
  6
ByLayer
100
AcDbLine
 10
-21.5077865698117527
 20
3.500291279173493
 30
0.0
 11
-21.5077865698117527
 21
0.0002912791734941
 31
0.0
  0
LINE
  5
DB
100
AcDbEntity
  8
0 holders
 62
256
370
-1
 48
1.0
  6
ByLayer
100
AcDbLine
 10
24.4999999999999893
 20
6.4999960738645362
 30
0.0
 11
27.9999999999999787
 21
6.4999979750839083
 31
0.0
  0
LINE
  5
DC
100
AcDbEntity
  8
0 holders
 62
256
370
-1
 48
1.0
  6
ByLayer
100
AcDbLine
 10
21.5000056120549132
 20
3.50410046568435
 30
0.0
 11
21.4999999999999893
 21
-0.0000000000000007
 31
0.0
  0
CIRCLE
  5
DD
100
AcDbEntity
  8
helper
 62
256
370
-1
 48
1.0
  6
ByLayer
100
AcDbCircle
 10
24.4999999999999893
 20
3.4999999999999991
 30
0.0
 40
3.0
  0
CIRCLE
  5
DE
100
AcDbEntity
  8
helper
 62
256
370
-1
 48
1.0
  6
ByLayer
100
AcDbCircle
 10
-24.5000000000000107
 20
3.4999999999999991
 30
0.0
 40
3.0
  0
DIMENSION
  5
DF
100
AcDbEntity
  8
quote
 62
256
370
-1
 48
1.0
  6
ByLayer
100
AcDbDimension
 10
-24.5000000000000142
 20
-4.8973775142925389
 30
0.0
 11
-31.0000000000000107
 21
-2.9999999999999938
 31
0.0
 70
128
 71
8
 72
1
 74
0
 75
0
 41
1.0
 42
0.0
  1

  3
Standard
100
AcDbAlignedDimension
 13
-24.5000000000000142
 23
61.4999999999999929
 33
0.0
 14
-28.0
 24
3.500000000000024
 34
0.0
 50
0.0
100
AcDbRotatedDimension
1001
ACAD
1000
DSTYLE
1002
{
1070
279
1070
2
1070
144
1040
1.0
1070
40
1040
1.0
1002
}
  0
DIMENSION
  5
E0
100
AcDbEntity
  8
quote
 62
256
370
-1
 48
1.0
  6
ByLayer
100
AcDbDimension
 10
-28.0000000000000071
 20
-10.9999999999999929
 30
0.0
 11
-24.7500000000000071
 21
-9.1249999999999929
 31
0.0
 70
0
 71
8
 72
1
 74
0
 75
0
 41
1.0
 42
0.0
  1

  3
Standard
100
AcDbAlignedDimension
 13
-28.0
 23
2.9999999999999849
 33
0.0
 14
-21.5000000000000107
 24
0.0000000000000144
 34
0.0
 50
0.0
100
AcDbRotatedDimension
1001
ACAD
1000
DSTYLE
1002
{
1070
144
1040
1.0
1070
40
1040
1.0
1002
}
  0
DIMENSION
  5
E1
100
AcDbEntity
  8
quote
 62
256
370
-1
 48
1.0
  6
ByLayer
100
AcDbDimension
 10
-36.0000000000000142
 20
3.4999999999999458
 30
0.0
 11
-37.8750000000000142
 21
-2.5694444444444589
 31
0.0
 70
0
 71
8
 72
1
 74
0
 75
0
 41
1.0
 42
0.0
  1

  3
Standard
100
AcDbAlignedDimension
 13
-27.5000000000000107
 23
3.4999999999999982
 33
0.0
 14
-27.5000000000000107
 24
-0.0000000000000149
 34
0.0
 50
90.0
100
AcDbRotatedDimension
1001
ACAD
1000
DSTYLE
1002
{
1070
144
1040
1.0
1070
40
1040
1.0
1002
}
  0
DIMENSION
  5
E2
100
AcDbEntity
  8
quote
 62
256
370
-1
 48
1.0
  6
ByLayer
100
AcDbDimension
 10
36.4162846577728345
 20
3.4999999999999374
 30
0.0
 11
34.5412846577728345
 21
-2.5694444444444677
 31
0.0
 70
0
 71
8
 72
1
 74
0
 75
0
 41
1.0
 42
0.0
  1

  3
Standard
100
AcDbAlignedDimension
 13
27.4999999999999893
 23
3.4999999999999951
 33
0.0
 14
27.4999999999999893
 24
-0.0000000000000246
 34
0.0
 50
90.0
100
AcDbRotatedDimension
1001
ACAD
1000
DSTYLE
1002
{
1070
144
1040
1.0
1070
40
1040
1.0
1002
}
  0
DIMENSION
  5
E3
100
AcDbEntity
  8
quote
 62
256
370
-1
 48
1.0
  6
ByLayer
100
AcDbDimension
 10
24.4999999999999893
 20
-5.1875000000000036
 30
0.0
 11
30.5694444444444322
 21
-3.3125000000000027
 31
0.0
 70
0
 71
8
 72
1
 74
0
 75
0
 41
1.0
 42
0.0
  1

  3
Standard
100
AcDbAlignedDimension
 13
24.4999999999999858
 23
61.5
 33
0.0
 14
27.9999999999999893
 24
3.5000000000000213
 34
0.0
 50
0.0
100
AcDbRotatedDimension
1001
ACAD
1000
DSTYLE
1002
{
1070
144
1040
1.0
1070
40
1040
1.0
1002
}
  0
DIMENSION
  5
E4
100
AcDbEntity
  8
quote
 62
256
370
-1
 48
1.0
  6
ByLayer
100
AcDbDimension
 10
35.9999999999999858
 20
64.4999999999999858
 30
0.0
 11
34.1249999999999858
 21
61.5
 31
0.0
 70
0
 71
8
 72
1
 74
0
 75
0
 41
1.0
 42
0.0
  1

  3
Standard
100
AcDbAlignedDimension
 13
-24.5000000000000071
 23
64.4999999999999858
 33
0.0
 14
-24.5000000000000036
 24
58.5000000000000071
 34
0.0
 50
90.0
100
AcDbRotatedDimension
1001
ACAD
1000
DSTYLE
1002
{
1070
144
1040
1.0
1070
40
1040
1.0
1002
}
  0
LINE
  5
E5
100
AcDbEntity
  8
0 holders
 62
256
370
-1
 48
1.0
  6
ByLayer
100
AcDbLine
 10
27.9999999999999787
 20
64.5
 30
0.0
 11
27.9999999999999787
 21
58.5
 31
0.0
  0
LINE
  5
E6
100
AcDbEntity
  8
0 holders
 62
256
370
-1
 48
1.0
  6
ByLayer
100
AcDbLine
 10
-28.0000059470499636
 20
64.5059734633511823
 30
0.0
 11
-28.0000059470499636
 21
58.5059734633511752
 31
0.0
  0
LINE
  5
E7
100
AcDbEntity
  8
0 holders
 62
256
370
-1
 48
1.0
  6
ByLayer
100
AcDbLine
 10
21.4999999999999893
 20
-0.0000000000000007
 30
0.0
 11
24.9999999999999893
 21
-0.0000000000000007
 31
0.0
  0
LINE
  5
E8
100
AcDbEntity
  8
0 holders
 62
256
370
-1
 48
1.0
  6
ByLayer
100
AcDbLine
 10
27.9999999999999787
 20
6.4999999435286435
 30
0.0
 11
27.9999999999999787
 21
2.9999999999999996
 31
0.0
  0
LINE
  5
E9
100
AcDbEntity
  8
0 holders
 62
256
370
-1
 48
1.0
  6
ByLayer
100
AcDbLine
 10
-25.0077865698117527
 20
0.0002912791734941
 30
0.0
 11
-21.5077865698117492
 21
0.0002912791734948
 31
0.0
  0
LINE
  5
EA
100
AcDbEntity
  8
0 holders
 62
256
370
-1
 48
1.0
  6
ByLayer
100
AcDbLine
 10
-27.9999954739662833
 20
6.5023256946200476
 30
0.0
 11
-28.0077865698117421
 21
3.0002912791734939
 31
0.0
  0
CIRCLE
  5
EB
100
AcDbEntity
  8
0 holes
 62
256
370
-1
 48
1.0
  6
ByLayer
100
AcDbCircle
 10
-24.5000000000000107
 20
61.5
 30
0.0
 40
1.3500000000000001
  0
CIRCLE
  5
EC
100
AcDbEntity
  8
0 holes
 62
256
370
-1
 48
1.0
  6
ByLayer
100
AcDbCircle
 10
24.4999999999999893
 20
61.5
 30
0.0
 40
1.3500000000000001
  0
CIRCLE
  5
ED
100
AcDbEntity
  8
0 holes
 62
256
370
-1
 48
1.0
  6
ByLayer
100
AcDbCircle
 10
-24.5000000000000107
 20
3.5000000000000009
 30
0.0
 40
1.3500000000000001
  0
CIRCLE
  5
EE
100
AcDbEntity
  8
0 holes
 62
256
370
-1
 48
1.0
  6
ByLayer
100
AcDbCircle
 10
24.4999999999999893
 20
3.5000000000000018
 30
0.0
 40
1.3500000000000001
  0
DIMENSION
  5
EF
100
AcDbEntity
  8
quote
 62
256
370
-1
 48
1.0
  6
ByLayer
100
AcDbDimension
 10
-21.0000000000000142
 20
94.0
 30
0.0
 11
-17.8194444444444642
 21
95.875
 31
0.0
 70
0
 71
8
 72
2
 74
0
 75
0
 41
1.0
 42
0.0
  1

  3
Standard
100
AcDbAlignedDimension
 13
-21.0000000000000071
 23
87.0
 33
0.0
 14
-19.0000000000000178
 24
86.9999999999999858
 34
0.0
 50
0.0
100
AcDbRotatedDimension
1001
ACAD
1000
DSTYLE
1002
{
1070
144
1040
1.0
1070
40
1040
1.0
1002
}
  0
DIMENSION
  5
F0
100
AcDbEntity
  8
quote
 62
256
370
-1
 48
1.0
  6
ByLayer
100
AcDbDimension
 10
-28.0000000000000071
 20
93.9999999999999858
 30
0.0
 11
-24.5000000000000213
 21
95.8749999999999858
 31
0.0
 70
0
 71
8
 72
2
 74
0
 75
0
 41
1.0
 42
0.0
  1

  3
Standard
100
AcDbAlignedDimension
 13
-28.0000000000000142
 23
89.0
 33
0.0
 14
-21.000000000000032
 24
92.0
 34
0.0
 50
0.0
100
AcDbRotatedDimension
1001
ACAD
1000
DSTYLE
1002
{
1070
144
1040
1.0
1070
40
1040
1.0
1002
}
  0
DIMENSION
  5
F1
100
AcDbEntity
  8
quote
 62
256
370
-1
 48
1.0
  6
ByLayer
100
AcDbDimension
 10
-19.0000000000000071
 20
89.0
 30
0.0
 11
-15.8194444444444624
 21
90.875
 31
0.0
 70
0
 71
8
 72
2
 74
0
 75
0
 41
1.0
 42
0.0
  1

  3
Standard
100
AcDbAlignedDimension
 13
-19.0000000000000178
 23
86.9999999999999858
 33
0.0
 14
-17.0000000000000178
 24
87.0
 34
0.0
 50
0.0
100
AcDbRotatedDimension
1001
ACAD
1000
DSTYLE
1002
{
1070
144
1040
1.0
1070
40
1040
1.0
1002
}
  0
DIMENSION
  5
F2
100
AcDbEntity
  8
quote
 62
256
370
-1
 48
1.0
  6
ByLayer
100
AcDbDimension
 10
-27.9999999999999751
 20
98.0
 30
0.0
 11
-0.0000000000000034
 21
99.875
 31
0.0
 70
0
 71
8
 72
2
 74
0
 75
0
 41
1.0
 42
0.0
  1

  3
Standard
100
AcDbAlignedDimension
 13
-27.9999999999999893
 23
84.0
 33
0.0
 14
27.9999999999999787
 24
84.0
 34
0.0
 50
0.0
100
AcDbRotatedDimension
1001
ACAD
1000
DSTYLE
1002
{
1070
144
1040
1.0
1070
40
1040
1.0
1002
}
  0
DIMENSION
  5
F3
100
AcDbEntity
  8
quote
 62
256
370
-1
 48
1.0
  6
ByLayer
100
AcDbDimension
 10
-56.8760886730510009
 20
-0.0000000000000215
 30
0.0
 11
-58.7510886730510009
 21
43.4999999999999929
 31
0.0
 70
0
 71
8
 72
2
 74
0
 75
0
 41
1.0
 42
0.0
  1

  3
Standard
100
AcDbAlignedDimension
 13
-25.0000000000000107
 23
-0.0000000000000091
 33
0.0
 14
-25.0000000000000142
 24
87.0
 34
0.0
 50
90.0
100
AcDbRotatedDimension
1001
ACAD
1000
DSTYLE
1002
{
1070
144
1040
1.0
1070
40
1040
1.0
1002
}
  0
DIMENSION
  5
F4
100
AcDbEntity
  8
quote
 62
256
370
-1
 48
1.0
  6
ByLayer
100
AcDbDimension
 10
-23.0430712064641163
 20
6.1224718283646009
 30
0.0
 11
-22.0000000000000107
 21
11.0
 31
0.0
 70
131
 71
8
 72
2
 74
0
 75
0
 41
1.0
 42
0.0
  1

  3
Standard
100
AcDbDiametricDimension
 15
-25.9569287935359085
 25
0.8775281716354135
 35
0.0
 40
0.0
1001
ACAD
1000
DSTYLE
1002
{
1070
279
1070
2
1070
144
1040
1.0
1070
40
1040
1.0
1002
}
  0
DIMENSION
  5
F5
100
AcDbEntity
  8
quote
 62
256
370
-1
 48
1.0
  6
ByLayer
100
AcDbDimension
 10
24.9999999999999929
 20
83.9999999999999858
 30
0.0
 11
28.8399826589435939
 21
90.4916330883931721
 31
0.0
 70
4
 71
8
 72
2
 74
0
 41
1.0
 42
0.0
  1

  3
Standard
100
AcDbRadialDimension
 15
27.1213203435596384
 25
86.1213203435596455
 35
0.0
 40
0.0
1001
ACAD
1000
DSTYLE
1002
{
1070
144
1040
1.0
1070
40
1040
1.0
1002
}
  0
DIMENSION
  5
F6
100
AcDbEntity
  8
quote
 62
256
370
-1
 48
1.0
  6
ByLayer
100
AcDbDimension
 10
22.7562854188426975
 20
5.9412004136202023
 30
0.0
 11
21.9999999999999893
 21
10.0000000000000053
 31
0.0
 70
131
 71
8
 72
2
 74
0
 75
0
 41
1.0
 42
0.0
  1

  3
Standard
100
AcDbDiametricDimension
 15
26.2437145811572812
 25
1.0587995863797715
 35
0.0
 40
0.0
1001
ACAD
1000
DSTYLE
1002
{
1070
279
1070
2
1070
144
1040
1.0
1070
40
1040
1.0
1002
}
  0
HATCH
  5
F7
100
AcDbEntity
  8
0 holders
 62
256
370
-1
 48
1.0
  6
ByLayer
100
AcDbHatch
 10
0.0
 20
0.0
 30
0.0
210
0.0
220
0.0
230
1.0
  2
ANSI31
 70
0
 71
0
 91
2
 92
1
 93
4
 72
1
 10
27.9999999999999787
 20
64.5
 11
27.9999999999999787
 21
58.5
 72
1
 10
27.9999999999999787
 20
58.5
 11
24.4999999999999893
 21
58.5
 72
2
 10
24.4999999999999893
 20
61.5
 40
3.0
 50
90.0
 51
270.0
 73
0
 72
1
 10
24.4999999999999893
 20
64.5
 11
27.9999999999999787
 21
64.4999999999999858
 97
0
 92
1
 93
1
 72
2
 10
24.4999999999999893
 20
61.5
 40
1.3500000000000001
 50
0.0
 51
360.0
 73
1
 97
0
 75
0
 76
1
 52
0.0
 41
0.5
 77
0
 78
1
 53
45.0
 43
0.0
 44
0.0
 45
-0.0883883476483184
 46
0.0883883476483185
 79
0
 98
0
1001
ACAD
1010
0.0
1020
0.0
1030
0
  0
HATCH
  5
F8
100
AcDbEntity
  8
0 holders
 62
256
370
-1
 48
1.0
  6
ByLayer
100
AcDbHatch
 10
0.0
 20
0.0
 30
0.0
210
0.0
220
0.0
230
1.0
  2
ANSI31
 70
0
 71
0
 91
2
 92
1
 93
4
 72
1
 10
-24.5000059470499743
 20
64.5059734633511823
 11
-28.0000059470499743
 21
64.5059734633511823
 72
1
 10
-28.0000059470499636
 20
64.5059734633511823
 11
-28.0000059470499636
 21
58.5059734633511752
 72
1
 10
-28.0000059470499743
 20
58.5059734633511823
 11
-24.5000059470499743
 21
58.5059734633511823
 72
2
 10
-24.5000059470499743
 20
61.5059734633511823
 40
3.0
 50
270.0
 51
90.0
 73
1
 97
0
 92
1
 93
1
 72
2
 10
-24.5000059470499743
 20
61.5059734633511823
 40
1.3500000000000001
 50
0.0
 51
360.0
 73
1
 97
0
 75
0
 76
1
 52
0.0
 41
0.5
 77
0
 78
1
 53
45.0
 43
0.0
 44
0.0
 45
-0.0883883476483184
 46
0.0883883476483185
 79
0
 98
0
1001
ACAD
1010
0.0
1020
0.0
1030
0
  0
HATCH
  5
F9
100
AcDbEntity
  8
0 holders
 62
256
370
-1
 48
1.0
  6
ByLayer
100
AcDbHatch
 10
0.0
 20
0.0
 30
0.0
210
0.0
220
0.0
230
1.0
  2
ANSI31
 70
0
 71
0
 91
2
 92
1
 93
6
 72
1
 10
-27.9999954739662833
 20
6.5023256946200476
 11
-24.5077865698117527
 21
6.5002912791734939
 72
2
 10
-24.5077865698117527
 20
3.5002912791734939
 40
3.0
 50
270.0000000000001137
 51
360.0
 73
0
 72
1
 10
-21.5077865698117527
 20
3.500291279173493
 11
-21.5077865698117527
 21
0.0002912791734941
 72
1
 10
-21.5077865698117492
 20
0.0002912791734948
 11
-25.0077865698117527
 21
0.0002912791734941
 72
2
 10
-25.0077865698117527
 20
3.0002912791734939
 40
3.0
 50
90.0
 51
180.0
 73
0
 72
1
 10
-28.0077865698117421
 20
3.0002912791734939
 11
-27.9999954739662833
 21
6.5023256946200476
 97
0
 92
1
 93
1
 72
2
 10
-24.5077865698117527
 20
3.5002912791734939
 40
1.3500000000000001
 50
0.0
 51
360.0
 73
1
 97
0
 75
0
 76
1
 52
0.0
 41
0.5
 77
0
 78
1
 53
45.0
 43
0.0
 44
0.0
 45
-0.0883883476483184
 46
0.0883883476483185
 79
0
 98
0
1001
ACAD
1010
0.0
1020
0.0
1030
0
  0
HATCH
  5
FA
100
AcDbEntity
  8
0 holders
 62
256
370
-1
 48
1.0
  6
ByLayer
100
AcDbHatch
 10
0.0
 20
0.0
 30
0.0
210
0.0
220
0.0
230
1.0
  2
ANSI31
 70
0
 71
0
 91
2
 92
1
 93
6
 72
2
 10
24.9999999999999893
 20
2.9999999999999991
 40
2.9999999999999889
 50
270.0
 51
0.0
 73
1
 72
1
 10
27.9999999999999787
 20
2.9999999999999996
 11
27.9999999999999787
 21
6.4999999435286435
 72
1
 10
27.9999999999999787
 20
6.4999979750839083
 11
24.4999999999999893
 21
6.4999960738645362
 72
2
 10
24.5000028043815377
 20
3.4999960738658382
 40
2.9999999999999711
 50
89.9999935288587096
 51
179.9216118659895187
 73
1
 72
1
 10
21.5000056120549132
 20
3.50410046568435
 11
21.4999999999999893
 21
-0.0000000000000007
 72
1
 10
21.4999999999999893
 20
-0.0000000000000007
 11
24.9999999999999893
 21
-0.0000000000000007
 97
0
 92
1
 93
1
 72
2
 10
24.5000028043815377
 20
3.4999960738658382
 40
1.3500000000000001
 50
0.0
 51
360.0
 73
1
 97
0
 75
0
 76
1
 52
0.0
 41
0.5
 77
0
 78
1
 53
45.0
 43
0.0
 44
0.0
 45
-0.0883883476483184
 46
0.0883883476483185
 79
0
 98
0
1001
ACAD
1010
0.0
1020
0.0
1030
0
  0
DIMENSION
  5
FB
100
AcDbEntity
  8
quote
 62
256
370
-1
 48
1.0
  6
ByLayer
100
AcDbDimension
 10
-45.0000000000000142
 20
61.5
 30
0.0
 11
-46.8750000000000142
 21
32.5
 31
0.0
 70
0
 71
8
 72
2
 74
0
 75
0
 41
1.0
 42
0.0
  1

  3
Standard
100
AcDbAlignedDimension
 13
-24.5000000000000142
 23
61.4999999999999929
 33
0.0
 14
-24.5000000000000107
 24
3.5000000000000053
 34
0.0
 50
90.0
100
AcDbRotatedDimension
1001
ACAD
1000
DSTYLE
1002
{
1070
144
1040
1.0
1070
40
1040
1.0
1002
}
  0
DIMENSION
  5
FC
100
AcDbEntity
  8
quote
 62
256
370
-1
 48
1.0
  6
ByLayer
100
AcDbDimension
 10
-27.9999999999999822
 20
73.0
 30
0.0
 11
-18.9999999999999858
 21
74.875
 31
0.0
 70
0
 71
8
 72
2
 74
0
 75
0
 41
1.0
 42
0.0
  1

  3
Standard
100
AcDbAlignedDimension
 13
-27.9999999999999822
 23
66.0
 33
0.0
 14
-9.9999999999999911
 24
66.0
 34
0.0
 50
0.0
100
AcDbRotatedDimension
1001
ACAD
1000
DSTYLE
1002
{
1070
144
1040
1.0
1070
40
1040
1.0
1002
}
  0
DIMENSION
  5
FD
100
AcDbEntity
  8
quote
 62
256
370
-1
 48
1.0
  6
ByLayer
100
AcDbDimension
 10
-9.9999999999999911
 20
73.0
 30
0.0
 11
-6.8194444444444571
 21
74.875
 31
0.0
 70
0
 71
8
 72
2
 74
0
 75
0
 41
1.0
 42
0.0
  1

  3
Standard
100
AcDbAlignedDimension
 13
-9.9999999999999911
 23
66.0
 33
0.0
 14
-8.0000000000000124
 24
70.0
 34
0.0
 50
0.0
100
AcDbRotatedDimension
1001
ACAD
1000
DSTYLE
1002
{
1070
144
1040
1.0
1070
40
1040
1.0
1002
}
  0
DIMENSION
  5
FE
100
AcDbEntity
  8
quote
 62
256
370
-1
 48
1.0
  6
ByLayer
100
AcDbDimension
 10
-51.0000000000000142
 20
66.0
 30
0.0
 11
-52.8750000000000142
 21
33.0000000000000213
 31
0.0
 70
0
 71
8
 72
2
 74
0
 75
0
 41
1.0
 42
0.0
  1

  3
Standard
100
AcDbAlignedDimension
 13
-27.9999999999999822
 23
66.0
 33
0.0
 14
-28.0000000000000071
 24
0.0000000000000424
 34
0.0
 50
90.0
100
AcDbRotatedDimension
1001
ACAD
1000
DSTYLE
1002
{
1070
144
1040
1.0
1070
40
1040
1.0
1002
}
  0
DIMENSION
  5
FF
100
AcDbEntity
  8
quote
 62
256
370
-1
 48
1.0
  6
ByLayer
100
AcDbDimension
 10
40.9999999999999858
 20
-0.0000000000000469
 30
0.0
 11
39.1249999999999858
 21
34.9999999999999858
 31
0.0
 70
0
 71
8
 72
2
 74
0
 75
0
 41
1.0
 42
0.0
  1

  3
Standard
100
AcDbAlignedDimension
 13
24.9999999999999893
 23
-0.0000000000000291
 33
0.0
 14
27.9999999999999858
 24
70.0
 34
0.0
 50
90.0
100
AcDbRotatedDimension
1001
ACAD
1000
DSTYLE
1002
{
1070
144
1040
1.0
1070
40
1040
1.0
1002
}
  0
DIMENSION
  5
100
100
AcDbEntity
  8
quote
 62
256
370
-1
 48
1.0
  6
ByLayer
100
AcDbDimension
 10
23.1499999999999879
 20
61.4999999999999929
 30
0.0
 11
17.9999999999999858
 21
63.0
 31
0.0
 70
131
 71
8
 72
2
 74
0
 75
0
 41
1.0
 42
0.0
  1

  3
Standard
100
AcDbDiametricDimension
 15
25.8499999999999979
 25
61.5
 35
0.0
 40
0.0
1001
ACAD
1000
DSTYLE
1002
{
1070
279
1070
2
1070
144
1040
1.0
1070
40
1040
1.0
1002
}
  0
HATCH
  5
101
100
AcDbEntity
  8
1
 62
256
370
-1
 48
1.0
  6
ByLayer
100
AcDbHatch
 10
0.0
 20
0.0
 30
0.0
210
0.0
220
0.0
230
1.0
  2
SOLID
 70
1
 71
0
 91
1
 92
1
 93
8
 72
2
 10
24.9999999999999893
 20
2.9999999999999991
 40
2.9999999999999858
 50
270.0
 51
0.0
 73
1
 72
1
 10
27.9999999999999787
 20
2.9999999999999996
 11
27.9999999999999751
 21
70.0
 72
1
 10
27.9999999999999751
 20
70.0
 11
-8.0000000000000107
 21
70.0
 72
1
 10
-8.0000000000000107
 20
70.0
 11
-9.9999999999999964
 21
66.0
 72
1
 10
-9.9999999999999964
 20
66.0
 11
-27.9999999999999822
 21
66.0
 72
1
 10
-27.9999999999999822
 20
66.0
 11
-28.0000000000000107
 21
3.0
 72
2
 10
-25.0000000000000107
 20
2.9999999999999991
 40
3.0
 50
180.0
 51
270.0
 73
1
 72
1
 10
-25.0000000000000107
 20
-0.0000000000000002
 11
24.9999999999999893
 21
-0.0000000000000073
 97
0
 75
0
 76
1
 98
0
1001
ACAD
1010
0.0
1020
0.0
1030
0
  0
LINE
  5
102
100
AcDbEntity
  8
1 fluting
 62
256
370
-1
 48
1.0
  6
ByLayer
100
AcDbLine
 10
-19.0000000000000107
 20
67.0
 30
0.0
 11
-17.1149425287356394
 21
67.0
 31
0.0
  0
LINE
  5
103
100
AcDbEntity
  8
1 fluting
 62
256
370
-1
 48
1.0
  6
ByLayer
100
AcDbLine
 10
-15.0000000000000107
 20
67.0
 30
0.0
 11
-13.1149425287356394
 21
67.0
 31
0.0
  0
LINE
  5
104
100
AcDbEntity
  8
1 fluting
 62
256
370
-1
 48
1.0
  6
ByLayer
100
AcDbLine
 10
-17.0000000000000107
 20
67.0
 30
0.0
 11
-17.0000000000000107
 21
-0.0000000000000007
 31
0.0
  0
LINE
  5
105
100
AcDbEntity
  8
1 fluting
 62
256
370
-1
 48
1.0
  6
ByLayer
100
AcDbLine
 10
-13.0000000000000107
 20
67.0
 30
0.0
 11
-13.0000000000000107
 21
-0.0000000000000007
 31
0.0
  0
LINE
  5
106
100
AcDbEntity
  8
1 fluting
 62
256
370
-1
 48
1.0
  6
ByLayer
100
AcDbLine
 10
-17.0000000000000107
 20
-0.0000000000000011
 30
0.0
 11
-19.0000000000000107
 21
-0.0000000000000011
 31
0.0
  0
LINE
  5
107
100
AcDbEntity
  8
1 fluting
 62
256
370
-1
 48
1.0
  6
ByLayer
100
AcDbLine
 10
-13.0000000000000107
 20
-0.0000000000000011
 30
0.0
 11
-15.0000000000000107
 21
-0.0000000000000011
 31
0.0
  0
LINE
  5
108
100
AcDbEntity
  8
1 fluting
 62
256
370
-1
 48
1.0
  6
ByLayer
100
AcDbLine
 10
-19.0000000000000107
 20
-0.0000000000000011
 30
0.0
 11
-19.0000000000000107
 21
67.0
 31
0.0
  0
LINE
  5
109
100
AcDbEntity
  8
1 fluting
 62
256
370
-1
 48
1.0
  6
ByLayer
100
AcDbLine
 10
-15.0000000000000107
 20
-0.0000000000000011
 30
0.0
 11
-15.0000000000000107
 21
67.0
 31
0.0
  0
HATCH
  5
10A
100
AcDbEntity
  8
1 fluting
 62
256
370
-1
 48
1.0
  6
ByLayer
100
AcDbHatch
 10
0.0
 20
0.0
 30
0.0
210
0.0
220
0.0
230
1.0
  2
SOLID
 70
1
 71
0
 91
1
 92
1
 93
4
 72
1
 10
-17.0000000000000107
 20
-0.0000000000000007
 11
-19.0000000000000107
 21
-0.0000000000000011
 72
1
 10
-19.0000000000000107
 20
-0.0000000000000011
 11
-19.0000000000000107
 21
67.0
 72
1
 10
-19.0000000000000107
 20
67.0
 11
-17.0000000000000107
 21
67.0
 72
1
 10
-17.0000000000000107
 20
67.0
 11
-17.0000000000000107
 21
-0.0000000000000007
 97
0
 75
0
 76
1
 98
0
1001
ACAD
1010
0.0
1020
0.0
1030
0
  0
HATCH
  5
10B
100
AcDbEntity
  8
1 fluting
 62
256
370
-1
 48
1.0
  6
ByLayer
100
AcDbHatch
 10
0.0
 20
0.0
 30
0.0
210
0.0
220
0.0
230
1.0
  2
SOLID
 70
1
 71
0
 91
1
 92
1
 93
4
 72
1
 10
-13.0000000000000107
 20
-0.0000000000000007
 11
-15.0000000000000107
 21
-0.0000000000000011
 72
1
 10
-15.0000000000000107
 20
-0.0000000000000011
 11
-15.0000000000000107
 21
67.0
 72
1
 10
-15.0000000000000107
 20
67.0
 11
-13.0000000000000107
 21
67.0
 72
1
 10
-13.0000000000000107
 20
67.0
 11
-13.0000000000000107
 21
-0.0000000000000007
 97
0
 75
0
 76
1
 98
0
1001
ACAD
1010
0.0
1020
0.0
1030
0
  0
LINE
  5
10C
100
AcDbEntity
  8
1 fluting
 62
256
370
-1
 48
1.0
  6
ByLayer
100
AcDbLine
 10
-11.0000000000000107
 20
-0.0000000000000007
 30
0.0
 11
-9.0000000000000107
 21
-0.0000000000000007
 31
0.0
  0
LINE
  5
10D
100
AcDbEntity
  8
1 fluting
 62
256
370
-1
 48
1.0
  6
ByLayer
100
AcDbLine
 10
-7.0000000000000107
 20
-0.0000000000000007
 30
0.0
 11
-5.0000000000000107
 21
-0.0000000000000007
 31
0.0
  0
LINE
  5
10E
100
AcDbEntity
  8
1 fluting
 62
256
370
-1
 48
1.0
  6
ByLayer
100
AcDbLine
 10
-3.0000000000000107
 20
-0.0000000000000007
 30
0.0
 11
-1.0000000000000107
 21
-0.0000000000000007
 31
0.0
  0
LINE
  5
10F
100
AcDbEntity
  8
1 fluting
 62
256
370
-1
 48
1.0
  6
ByLayer
100
AcDbLine
 10
0.9999999999999893
 20
-0.0000000000000007
 30
0.0
 11
2.9999999999999893
 21
-0.0000000000000007
 31
0.0
  0
LINE
  5
110
100
AcDbEntity
  8
1 fluting
 62
256
370
-1
 48
1.0
  6
ByLayer
100
AcDbLine
 10
4.9999999999999893
 20
-0.0000000000000007
 30
0.0
 11
6.9999999999999893
 21
-0.0000000000000007
 31
0.0
  0
LINE
  5
111
100
AcDbEntity
  8
1 fluting
 62
256
370
-1
 48
1.0
  6
ByLayer
100
AcDbLine
 10
8.9999999999999893
 20
-0.0000000000000007
 30
0.0
 11
10.9999999999999893
 21
-0.0000000000000007
 31
0.0
  0
LINE
  5
112
100
AcDbEntity
  8
1 fluting
 62
256
370
-1
 48
1.0
  6
ByLayer
100
AcDbLine
 10
12.9999999999999893
 20
-0.0000000000000007
 30
0.0
 11
14.9999999999999893
 21
-0.0000000000000007
 31
0.0
  0
LINE
  5
113
100
AcDbEntity
  8
1 fluting
 62
256
370
-1
 48
1.0
  6
ByLayer
100
AcDbLine
 10
16.9999999999999893
 20
-0.0000000000000007
 30
0.0
 11
18.9999999999999893
 21
-0.0000000000000007
 31
0.0
  0
LINE
  5
114
100
AcDbEntity
  8
1 fluting
 62
256
370
-1
 48
1.0
  6
ByLayer
100
AcDbLine
 10
20.9999999999999893
 20
-0.0000000000000007
 30
0.0
 11
22.9999999999999893
 21
-0.0000000000000007
 31
0.0
  0
LINE
  5
115
100
AcDbEntity
  8
1 fluting
 62
256
370
-1
 48
1.0
  6
ByLayer
100
AcDbLine
 10
-9.0000000000000107
 20
-0.0000000000000007
 30
0.0
 11
-9.0000000000000107
 21
70.0
 31
0.0
  0
LINE
  5
116
100
AcDbEntity
  8
1 fluting
 62
256
370
-1
 48
1.0
  6
ByLayer
100
AcDbLine
 10
-5.0000000000000107
 20
-0.0000000000000007
 30
0.0
 11
-5.0000000000000107
 21
70.0
 31
0.0
  0
LINE
  5
117
100
AcDbEntity
  8
1 fluting
 62
256
370
-1
 48
1.0
  6
ByLayer
100
AcDbLine
 10
-1.0000000000000107
 20
-0.0000000000000007
 30
0.0
 11
-1.0000000000000107
 21
70.0
 31
0.0
  0
LINE
  5
118
100
AcDbEntity
  8
1 fluting
 62
256
370
-1
 48
1.0
  6
ByLayer
100
AcDbLine
 10
2.9999999999999893
 20
-0.0000000000000007
 30
0.0
 11
2.9999999999999893
 21
70.0
 31
0.0
  0
LINE
  5
119
100
AcDbEntity
  8
1 fluting
 62
256
370
-1
 48
1.0
  6
ByLayer
100
AcDbLine
 10
6.9999999999999893
 20
-0.0000000000000007
 30
0.0
 11
6.9999999999999893
 21
70.0
 31
0.0
  0
LINE
  5
11A
100
AcDbEntity
  8
1 fluting
 62
256
370
-1
 48
1.0
  6
ByLayer
100
AcDbLine
 10
10.9999999999999893
 20
-0.0000000000000007
 30
0.0
 11
10.9999999999999893
 21
70.0
 31
0.0
  0
LINE
  5
11B
100
AcDbEntity
  8
1 fluting
 62
256
370
-1
 48
1.0
  6
ByLayer
100
AcDbLine
 10
14.9999999999999893
 20
-0.0000000000000007
 30
0.0
 11
14.9999999999999893
 21
70.0
 31
0.0
  0
LINE
  5
11C
100
AcDbEntity
  8
1 fluting
 62
256
370
-1
 48
1.0
  6
ByLayer
100
AcDbLine
 10
18.9999999999999893
 20
-0.0000000000000007
 30
0.0
 11
18.9999999999999893
 21
70.0
 31
0.0
  0
LINE
  5
11D
100
AcDbEntity
  8
1 fluting
 62
256
370
-1
 48
1.0
  6
ByLayer
100
AcDbLine
 10
22.9999999999999893
 20
-0.0000000000000007
 30
0.0
 11
22.9999999999999893
 21
70.0
 31
0.0
  0
LINE
  5
11E
100
AcDbEntity
  8
1 fluting
 62
256
370
-1
 48
1.0
  6
ByLayer
100
AcDbLine
 10
-9.0000000000000107
 20
70.0
 30
0.0
 11
-11.0000000000000107
 21
70.0
 31
0.0
  0
LINE
  5
11F
100
AcDbEntity
  8
1 fluting
 62
256
370
-1
 48
1.0
  6
ByLayer
100
AcDbLine
 10
-5.0000000000000107
 20
70.0
 30
0.0
 11
-7.0000000000000107
 21
70.0
 31
0.0
  0
LINE
  5
120
100
AcDbEntity
  8
1 fluting
 62
256
370
-1
 48
1.0
  6
ByLayer
100
AcDbLine
 10
-1.0000000000000107
 20
70.0
 30
0.0
 11
-3.0000000000000107
 21
70.0
 31
0.0
  0
LINE
  5
121
100
AcDbEntity
  8
1 fluting
 62
256
370
-1
 48
1.0
  6
ByLayer
100
AcDbLine
 10
2.9999999999999893
 20
70.0
 30
0.0
 11
0.9999999999999893
 21
70.0
 31
0.0
  0
LINE
  5
122
100
AcDbEntity
  8
1 fluting
 62
256
370
-1
 48
1.0
  6
ByLayer
100
AcDbLine
 10
6.9999999999999893
 20
70.0
 30
0.0
 11
4.9999999999999893
 21
70.0
 31
0.0
  0
LINE
  5
123
100
AcDbEntity
  8
1 fluting
 62
256
370
-1
 48
1.0
  6
ByLayer
100
AcDbLine
 10
10.9999999999999893
 20
70.0
 30
0.0
 11
8.9999999999999893
 21
70.0
 31
0.0
  0
LINE
  5
124
100
AcDbEntity
  8
1 fluting
 62
256
370
-1
 48
1.0
  6
ByLayer
100
AcDbLine
 10
14.9999999999999893
 20
70.0
 30
0.0
 11
12.9999999999999893
 21
70.0
 31
0.0
  0
LINE
  5
125
100
AcDbEntity
  8
1 fluting
 62
256
370
-1
 48
1.0
  6
ByLayer
100
AcDbLine
 10
18.9999999999999893
 20
70.0
 30
0.0
 11
16.9999999999999893
 21
70.0
 31
0.0
  0
LINE
  5
126
100
AcDbEntity
  8
1 fluting
 62
256
370
-1
 48
1.0
  6
ByLayer
100
AcDbLine
 10
22.9999999999999893
 20
70.0
 30
0.0
 11
20.9999999999999893
 21
70.0
 31
0.0
  0
LINE
  5
127
100
AcDbEntity
  8
1 fluting
 62
256
370
-1
 48
1.0
  6
ByLayer
100
AcDbLine
 10
-11.0000000000000107
 20
70.0
 30
0.0
 11
-11.0000000000000107
 21
-0.0000000000000007
 31
0.0
  0
LINE
  5
128
100
AcDbEntity
  8
1 fluting
 62
256
370
-1
 48
1.0
  6
ByLayer
100
AcDbLine
 10
-7.0000000000000107
 20
70.0
 30
0.0
 11
-7.0000000000000107
 21
-0.0000000000000007
 31
0.0
  0
LINE
  5
129
100
AcDbEntity
  8
1 fluting
 62
256
370
-1
 48
1.0
  6
ByLayer
100
AcDbLine
 10
-3.0000000000000107
 20
70.0
 30
0.0
 11
-3.0000000000000107
 21
-0.0000000000000007
 31
0.0
  0
LINE
  5
12A
100
AcDbEntity
  8
1 fluting
 62
256
370
-1
 48
1.0
  6
ByLayer
100
AcDbLine
 10
0.9999999999999893
 20
70.0
 30
0.0
 11
0.9999999999999893
 21
-0.0000000000000007
 31
0.0
  0
LINE
  5
12B
100
AcDbEntity
  8
1 fluting
 62
256
370
-1
 48
1.0
  6
ByLayer
100
AcDbLine
 10
4.9999999999999893
 20
70.0
 30
0.0
 11
4.9999999999999893
 21
-0.0000000000000007
 31
0.0
  0
LINE
  5
12C
100
AcDbEntity
  8
1 fluting
 62
256
370
-1
 48
1.0
  6
ByLayer
100
AcDbLine
 10
8.9999999999999893
 20
70.0
 30
0.0
 11
8.9999999999999893
 21
-0.0000000000000007
 31
0.0
  0
LINE
  5
12D
100
AcDbEntity
  8
1 fluting
 62
256
370
-1
 48
1.0
  6
ByLayer
100
AcDbLine
 10
12.9999999999999893
 20
70.0
 30
0.0
 11
12.9999999999999893
 21
-0.0000000000000007
 31
0.0
  0
LINE
  5
12E
100
AcDbEntity
  8
1 fluting
 62
256
370
-1
 48
1.0
  6
ByLayer
100
AcDbLine
 10
16.9999999999999893
 20
70.0
 30
0.0
 11
16.9999999999999893
 21
-0.0000000000000007
 31
0.0
  0
LINE
  5
12F
100
AcDbEntity
  8
1 fluting
 62
256
370
-1
 48
1.0
  6
ByLayer
100
AcDbLine
 10
20.9999999999999893
 20
70.0
 30
0.0
 11
20.9999999999999893
 21
-0.0000000000000007
 31
0.0
  0
HATCH
  5
130
100
AcDbEntity
  8
1 fluting
 62
256
370
-1
 48
1.0
  6
ByLayer
100
AcDbHatch
 10
0.0
 20
0.0
 30
0.0
210
0.0
220
0.0
230
1.0
  2
SOLID
 70
1
 71
0
 91
1
 92
1
 93
4
 72
1
 10
-11.0000000000000107
 20
70.0
 11
-11.0000000000000107
 21
-0.0000000000000007
 72
1
 10
-11.0000000000000107
 20
-0.0000000000000007
 11
-9.0000000000000107
 21
-0.0000000000000007
 72
1
 10
-9.0000000000000107
 20
-0.0000000000000007
 11
-9.0000000000000107
 21
70.0
 72
1
 10
-9.0000000000000107
 20
70.0
 11
-11.0000000000000107
 21
70.0
 97
0
 75
0
 76
1
 98
0
1001
ACAD
1010
0.0
1020
0.0
1030
0
  0
HATCH
  5
131
100
AcDbEntity
  8
1 fluting
 62
256
370
-1
 48
1.0
  6
ByLayer
100
AcDbHatch
 10
0.0
 20
0.0
 30
0.0
210
0.0
220
0.0
230
1.0
  2
SOLID
 70
1
 71
0
 91
1
 92
1
 93
4
 72
1
 10
-7.0000000000000107
 20
70.0
 11
-7.0000000000000107
 21
-0.0000000000000007
 72
1
 10
-7.0000000000000107
 20
-0.0000000000000007
 11
-5.0000000000000107
 21
-0.0000000000000007
 72
1
 10
-5.0000000000000107
 20
-0.0000000000000007
 11
-5.0000000000000107
 21
70.0
 72
1
 10
-5.0000000000000107
 20
70.0
 11
-7.0000000000000107
 21
70.0
 97
0
 75
0
 76
1
 98
0
1001
ACAD
1010
0.0
1020
0.0
1030
0
  0
HATCH
  5
132
100
AcDbEntity
  8
1 fluting
 62
256
370
-1
 48
1.0
  6
ByLayer
100
AcDbHatch
 10
0.0
 20
0.0
 30
0.0
210
0.0
220
0.0
230
1.0
  2
SOLID
 70
1
 71
0
 91
1
 92
1
 93
4
 72
1
 10
-3.0000000000000107
 20
70.0
 11
-3.0000000000000107
 21
-0.0000000000000007
 72
1
 10
-3.0000000000000107
 20
-0.0000000000000007
 11
-1.0000000000000107
 21
-0.0000000000000007
 72
1
 10
-1.0000000000000107
 20
-0.0000000000000007
 11
-1.0000000000000107
 21
70.0
 72
1
 10
-1.0000000000000107
 20
70.0
 11
-3.0000000000000107
 21
70.0
 97
0
 75
0
 76
1
 98
0
1001
ACAD
1010
0.0
1020
0.0
1030
0
  0
HATCH
  5
133
100
AcDbEntity
  8
1 fluting
 62
256
370
-1
 48
1.0
  6
ByLayer
100
AcDbHatch
 10
0.0
 20
0.0
 30
0.0
210
0.0
220
0.0
230
1.0
  2
SOLID
 70
1
 71
0
 91
1
 92
1
 93
4
 72
1
 10
0.9999999999999893
 20
70.0
 11
0.9999999999999893
 21
-0.0000000000000007
 72
1
 10
0.9999999999999893
 20
-0.0000000000000007
 11
2.9999999999999893
 21
-0.0000000000000007
 72
1
 10
2.9999999999999893
 20
-0.0000000000000007
 11
2.9999999999999893
 21
70.0
 72
1
 10
2.9999999999999893
 20
70.0
 11
0.9999999999999893
 21
70.0
 97
0
 75
0
 76
1
 98
0
1001
ACAD
1010
0.0
1020
0.0
1030
0
  0
HATCH
  5
134
100
AcDbEntity
  8
1 fluting
 62
256
370
-1
 48
1.0
  6
ByLayer
100
AcDbHatch
 10
0.0
 20
0.0
 30
0.0
210
0.0
220
0.0
230
1.0
  2
SOLID
 70
1
 71
0
 91
1
 92
1
 93
4
 72
1
 10
4.9999999999999893
 20
70.0
 11
4.9999999999999893
 21
-0.0000000000000007
 72
1
 10
4.9999999999999893
 20
-0.0000000000000007
 11
6.9999999999999893
 21
-0.0000000000000007
 72
1
 10
6.9999999999999893
 20
-0.0000000000000007
 11
6.9999999999999893
 21
70.0
 72
1
 10
6.9999999999999893
 20
70.0
 11
4.9999999999999893
 21
70.0
 97
0
 75
0
 76
1
 98
0
1001
ACAD
1010
0.0
1020
0.0
1030
0
  0
HATCH
  5
135
100
AcDbEntity
  8
1 fluting
 62
256
370
-1
 48
1.0
  6
ByLayer
100
AcDbHatch
 10
0.0
 20
0.0
 30
0.0
210
0.0
220
0.0
230
1.0
  2
SOLID
 70
1
 71
0
 91
1
 92
1
 93
4
 72
1
 10
8.9999999999999893
 20
70.0
 11
8.9999999999999893
 21
-0.0000000000000007
 72
1
 10
8.9999999999999893
 20
-0.0000000000000007
 11
10.9999999999999893
 21
-0.0000000000000007
 72
1
 10
10.9999999999999893
 20
-0.0000000000000007
 11
10.9999999999999893
 21
70.0
 72
1
 10
10.9999999999999893
 20
70.0
 11
8.9999999999999893
 21
70.0
 97
0
 75
0
 76
1
 98
0
1001
ACAD
1010
0.0
1020
0.0
1030
0
  0
HATCH
  5
136
100
AcDbEntity
  8
1 fluting
 62
256
370
-1
 48
1.0
  6
ByLayer
100
AcDbHatch
 10
0.0
 20
0.0
 30
0.0
210
0.0
220
0.0
230
1.0
  2
SOLID
 70
1
 71
0
 91
1
 92
1
 93
4
 72
1
 10
12.9999999999999893
 20
70.0
 11
12.9999999999999893
 21
-0.0000000000000007
 72
1
 10
12.9999999999999893
 20
-0.0000000000000007
 11
14.9999999999999893
 21
-0.0000000000000007
 72
1
 10
14.9999999999999893
 20
-0.0000000000000007
 11
14.9999999999999893
 21
70.0
 72
1
 10
14.9999999999999893
 20
70.0
 11
12.9999999999999893
 21
70.0
 97
0
 75
0
 76
1
 98
0
1001
ACAD
1010
0.0
1020
0.0
1030
0
  0
HATCH
  5
137
100
AcDbEntity
  8
1 fluting
 62
256
370
-1
 48
1.0
  6
ByLayer
100
AcDbHatch
 10
0.0
 20
0.0
 30
0.0
210
0.0
220
0.0
230
1.0
  2
SOLID
 70
1
 71
0
 91
1
 92
1
 93
4
 72
1
 10
16.9999999999999893
 20
70.0
 11
16.9999999999999893
 21
-0.0000000000000007
 72
1
 10
16.9999999999999893
 20
-0.0000000000000007
 11
18.9999999999999893
 21
-0.0000000000000007
 72
1
 10
18.9999999999999893
 20
-0.0000000000000007
 11
18.9999999999999893
 21
70.0
 72
1
 10
18.9999999999999893
 20
70.0
 11
16.9999999999999893
 21
70.0
 97
0
 75
0
 76
1
 98
0
1001
ACAD
1010
0.0
1020
0.0
1030
0
  0
HATCH
  5
138
100
AcDbEntity
  8
1 fluting
 62
256
370
-1
 48
1.0
  6
ByLayer
100
AcDbHatch
 10
0.0
 20
0.0
 30
0.0
210
0.0
220
0.0
230
1.0
  2
SOLID
 70
1
 71
0
 91
1
 92
1
 93
4
 72
1
 10
20.9999999999999893
 20
70.0
 11
20.9999999999999893
 21
-0.0000000000000007
 72
1
 10
20.9999999999999893
 20
-0.0000000000000007
 11
22.9999999999999893
 21
-0.0000000000000007
 72
1
 10
22.9999999999999893
 20
-0.0000000000000007
 11
22.9999999999999893
 21
70.0
 72
1
 10
22.9999999999999893
 20
70.0
 11
20.9999999999999893
 21
70.0
 97
0
 75
0
 76
1
 98
0
1001
ACAD
1010
0.0
1020
0.0
1030
0
  0
ENDSEC
  0
SECTION
  2
OBJECTS
  0
DICTIONARY
  5
C
100
AcDbDictionary
280
0
281
1
  3
ACAD_GROUP
350
D
  3
ACAD_LAYOUT
350
1A
  3
ACAD_MLINESTYLE
350
17
  3
ACAD_PLOTSETTINGS
350
19
  3
ACAD_PLOTSTYLENAME
350
E
  3
AcDbVariableDictionary
350
139
  3
QCAD_OBJECTS
350
13A
  0
DICTIONARY
  5
D
100
AcDbDictionary
280
0
281
1
  0
ACDBDICTIONARYWDFLT
  5
E
100
AcDbDictionary
281
1
  3
Normal
350
F
100
AcDbDictionaryWithDefault
340
F
  0
ACDBPLACEHOLDER
  5
F
  0
DICTIONARY
  5
17
100
AcDbDictionary
280
0
281
1
  3
Standard
350
18
  0
MLINESTYLE
  5
18
100
AcDbMlineStyle
  2
STANDARD
 70
0
  3

 62
256
 51
90.0
 52
90.0
 71
2
 49
0.5
 62
256
  6
BYLAYER
 49
-0.5
 62
256
  6
BYLAYER
  0
DICTIONARY
  5
19
100
AcDbDictionary
280
0
281
1
  0
DICTIONARY
  5
1A
100
AcDbDictionary
281
1
  3
Layout1
350
1E
  3
Layout2
350
26
  3
Model
350
22
  0
LAYOUT
  5
1E
100
AcDbPlotSettings
  1

  2
none_device
  4

  6

 40
0.0
 41
0.0
 42
0.0
 43
0.0
 44
0.0
 45
0.0
 46
0.0
 47
0.0
 48
0.0
 49
0.0
140
0.0
141
0.0
142
1.0
143
1.0
 70
688
 72
0
 73
0
 74
5
  7

 75
16
147
1.0
148
0.0
149
0.0
100
AcDbLayout
  1
Layout1
 70
1
 71
1
 10
0.0
 20
0.0
 11
420.0
 21
297.0
 12
0.0
 22
0.0
 32
0.0
 14
100000000000000000000.0
 24
100000000000000000000.0
 34
100000000000000000000.0
 15
-100000000000000000000.0
 25
-100000000000000000000.0
 35
-100000000000000000000.0
146
0.0
 13
0.0
 23
0.0
 33
0.0
 16
1.0
 26
0.0
 36
0.0
 17
0.0
 27
1.0
 37
0.0
 76
0
330
1B
  0
LAYOUT
  5
22
100
AcDbPlotSettings
  1

  2
none_device
  4

  6

 40
0.0
 41
0.0
 42
0.0
 43
0.0
 44
0.0
 45
0.0
 46
0.0
 47
0.0
 48
0.0
 49
0.0
140
0.0
141
0.0
142
1.0
143
1.0
 70
1712
 72
0
 73
0
 74
0
  7

 75
0
147
1.0
148
0.0
149
0.0
100
AcDbLayout
  1
Model
 70
1
 71
0
 10
0.0
 20
0.0
 11
12.0
 21
9.0
 12
0.0
 22
0.0
 32
0.0
 14
0.0
 24
0.0
 34
0.0
 15
0.0
 25
0.0
 35
0.0
146
0.0
 13
0.0
 23
0.0
 33
0.0
 16
1.0
 26
0.0
 36
0.0
 17
0.0
 27
1.0
 37
0.0
 76
0
330
1F
  0
LAYOUT
  5
26
100
AcDbPlotSettings
  1

  2
none_device
  4

  6

 40
0.0
 41
0.0
 42
0.0
 43
0.0
 44
0.0
 45
0.0
 46
0.0
 47
0.0
 48
0.0
 49
0.0
140
0.0
141
0.0
142
1.0
143
1.0
 70
688
 72
0
 73
0
 74
5
  7

 75
16
147
1.0
148
0.0
149
0.0
100
AcDbLayout
  1
Layout2
 70
1
 71
2
 10
0.0
 20
0.0
 11
12.0
 21
9.0
 12
0.0
 22
0.0
 32
0.0
 14
0.0
 24
0.0
 34
0.0
 15
0.0
 25
0.0
 35
0.0
146
0.0
 13
0.0
 23
0.0
 33
0.0
 16
1.0
 26
0.0
 36
0.0
 17
0.0
 27
1.0
 37
0.0
 76
0
330
23
  0
DICTIONARY
  5
139
100
AcDbDictionary
281
1
  3
DIMASSOC
350
13C
  3
HIDETEXT
350
13B
  0
DICTIONARYVAR
  5
13B
100
DictionaryVariables
280
0
  1
2
  0
DICTIONARYVAR
  5
13C
100
DictionaryVariables
280
0
  1
1
  0
DICTIONARY
  5
13A
100
AcDbDictionary
281
1
  3
ColorSettings/BackgroundColor
350
13D
  3
ColorSettings/ColorMode
350
13E
  3
Grid/DisplayGrid00
350
13F
  3
Grid/DisplayGrid01
350
140
  3
Grid/DisplayGrid02
350
141
  3
Grid/DisplayGrid03
350
142
  3
Grid/GridSpacingX00
350
143
  3
Grid/GridSpacingX01
350
144
  3
Grid/GridSpacingX02
350
145
  3
Grid/GridSpacingX03
350
146
  3
Grid/GridSpacingY00
350
147
  3
Grid/GridSpacingY01
350
148
  3
Grid/GridSpacingY02
350
149
  3
Grid/GridSpacingY03
350
14A
  3
Grid/IsometricGrid00
350
14B
  3
Grid/IsometricGrid01
350
14C
  3
Grid/IsometricGrid02
350
14D
  3
Grid/IsometricGrid03
350
14E
  3
Grid/IsometricProjection00
350
14F
  3
Grid/IsometricProjection01
350
150
  3
Grid/IsometricProjection02
350
151
  3
Grid/IsometricProjection03
350
152
  3
Grid/MetaGridSpacingX00
350
153
  3
Grid/MetaGridSpacingX01
350
154
  3
Grid/MetaGridSpacingX02
350
155
  3
Grid/MetaGridSpacingX03
350
156
  3
Grid/MetaGridSpacingY00
350
157
  3
Grid/MetaGridSpacingY01
350
158
  3
Grid/MetaGridSpacingY02
350
159
  3
Grid/MetaGridSpacingY03
350
15A
  3
MultiPageSettings/Columns
350
15B
  3
MultiPageSettings/GlueMarginsBottom
350
15C
  3
MultiPageSettings/GlueMarginsLeft
350
15D
  3
MultiPageSettings/GlueMarginsRight
350
15E
  3
MultiPageSettings/GlueMarginsTop
350
15F
  3
MultiPageSettings/PrintCropMarks
350
160
  3
MultiPageSettings/Rows
350
161
  3
PageSettings/OffsetX
350
162
  3
PageSettings/OffsetY
350
163
  3
PageSettings/PageOrientation
350
164
  3
PageSettings/PaperHeight
350
165
  3
PageSettings/PaperWidth
350
166
  3
PageSettings/Scale
350
167
  3
PageSettings/ShowPaperBorders
350
168
  3
PageTagSettings/EnablePageTags
350
169
  3
PageTagSettings/TagAlignment
350
16A
  3
PageTagSettings/TagFont
350
16B
  3
PageTagSettings/TagPosition
350
16C
  3
QCADVersion
350
16D
  3
UnitSettings/PaperUnit
350
16E
  3
ViewportCenter
350
16F
  3
ViewportHeight
350
170
  3
ViewportWidth
350
171
  0
XRECORD
  5
13D
330
13A
100
AcDbXrecord
280
1
1000
Bianco
  0
XRECORD
  5
13E
330
13A
100
AcDbXrecord
280
1
1000
FullColor
  0
XRECORD
  5
13F
330
13A
100
AcDbXrecord
280
1
290
1
  0
XRECORD
  5
140
330
13A
100
AcDbXrecord
280
1
290
1
  0
XRECORD
  5
141
330
13A
100
AcDbXrecord
280
1
290
1
  0
XRECORD
  5
142
330
13A
100
AcDbXrecord
280
1
290
1
  0
XRECORD
  5
143
330
13A
100
AcDbXrecord
280
1
1000
auto
  0
XRECORD
  5
144
330
13A
100
AcDbXrecord
280
1
1000
auto
  0
XRECORD
  5
145
330
13A
100
AcDbXrecord
280
1
1000
auto
  0
XRECORD
  5
146
330
13A
100
AcDbXrecord
280
1
1000
auto
  0
XRECORD
  5
147
330
13A
100
AcDbXrecord
280
1
1000
auto
  0
XRECORD
  5
148
330
13A
100
AcDbXrecord
280
1
1000
auto
  0
XRECORD
  5
149
330
13A
100
AcDbXrecord
280
1
1000
auto
  0
XRECORD
  5
14A
330
13A
100
AcDbXrecord
280
1
1000
auto
  0
XRECORD
  5
14B
330
13A
100
AcDbXrecord
280
1
290
0
  0
XRECORD
  5
14C
330
13A
100
AcDbXrecord
280
1
290
0
  0
XRECORD
  5
14D
330
13A
100
AcDbXrecord
280
1
290
0
  0
XRECORD
  5
14E
330
13A
100
AcDbXrecord
280
1
290
0
  0
XRECORD
  5
14F
330
13A
100
AcDbXrecord
280
1
 90
65540
  0
XRECORD
  5
150
330
13A
100
AcDbXrecord
280
1
 90
65537
  0
XRECORD
  5
151
330
13A
100
AcDbXrecord
280
1
 90
65537
  0
XRECORD
  5
152
330
13A
100
AcDbXrecord
280
1
 90
65537
  0
XRECORD
  5
153
330
13A
100
AcDbXrecord
280
1
1000
auto
  0
XRECORD
  5
154
330
13A
100
AcDbXrecord
280
1
1000
auto
  0
XRECORD
  5
155
330
13A
100
AcDbXrecord
280
1
1000
auto
  0
XRECORD
  5
156
330
13A
100
AcDbXrecord
280
1
1000
auto
  0
XRECORD
  5
157
330
13A
100
AcDbXrecord
280
1
1000
auto
  0
XRECORD
  5
158
330
13A
100
AcDbXrecord
280
1
1000
auto
  0
XRECORD
  5
159
330
13A
100
AcDbXrecord
280
1
1000
auto
  0
XRECORD
  5
15A
330
13A
100
AcDbXrecord
280
1
1000
auto
  0
XRECORD
  5
15B
330
13A
100
AcDbXrecord
280
1
 90
1
  0
XRECORD
  5
15C
330
13A
100
AcDbXrecord
280
1
 40
10.0
  0
XRECORD
  5
15D
330
13A
100
AcDbXrecord
280
1
 40
10.0
  0
XRECORD
  5
15E
330
13A
100
AcDbXrecord
280
1
 40
10.0
  0
XRECORD
  5
15F
330
13A
100
AcDbXrecord
280
1
 40
10.0
  0
XRECORD
  5
160
330
13A
100
AcDbXrecord
280
1
290
0
  0
XRECORD
  5
161
330
13A
100
AcDbXrecord
280
1
 90
1
  0
XRECORD
  5
162
330
13A
100
AcDbXrecord
280
1
 40
0.0
  0
XRECORD
  5
163
330
13A
100
AcDbXrecord
280
1
 40
0.0
  0
XRECORD
  5
164
330
13A
100
AcDbXrecord
280
1
1000
Portrait
  0
XRECORD
  5
165
330
13A
100
AcDbXrecord
280
1
 40
297.0
  0
XRECORD
  5
166
330
13A
100
AcDbXrecord
280
1
 40
210.0
  0
XRECORD
  5
167
330
13A
100
AcDbXrecord
280
1
1000
1:1
  0
XRECORD
  5
168
330
13A
100
AcDbXrecord
280
1
290
1
  0
XRECORD
  5
169
330
13A
100
AcDbXrecord
280
1
290
0
  0
XRECORD
  5
16A
330
13A
100
AcDbXrecord
280
1
1000
Inside
  0
XRECORD
  5
16B
330
13A
100
AcDbXrecord
280
1
1000
Arial,10,-1,5,50,0,0,0,0,0
  0
XRECORD
  5
16C
330
13A
100
AcDbXrecord
280
1
1000
TopLeft
  0
XRECORD
  5
16D
330
13A
100
AcDbXrecord
280
1
1000
3.27.0.1
  0
XRECORD
  5
16E
330
13A
100
AcDbXrecord
280
1
 90
4
  0
XRECORD
  5
170
330
13A
100
AcDbXrecord
280
1
 40
119.3119661049938998
  0
XRECORD
  5
171
330
13A
100
AcDbXrecord
280
1
 40
221.2219009287065319
  0
ENDSEC
  0
EOF
