<?xml version="1.0" encoding="UTF-8" standalone="no"?>
<!DOCTYPE svg PUBLIC "-//W3C//DTD SVG 1.1//EN"
 "http://www.w3.org/Graphics/SVG/1.1/DTD/svg11.dtd">
<!-- Generated by graphviz version 5.0.0 (0)
 -->
<!-- Title: vitamins Pages: 1 -->
<svg width="1917pt" height="119pt"
 viewBox="0.00 0.00 1916.50 119.00" xmlns="http://www.w3.org/2000/svg" xmlns:xlink="http://www.w3.org/1999/xlink">
<g id="graph0" class="graph" transform="scale(1 1) rotate(0) translate(4 115)">
<title>vitamins</title>
<polygon fill="white" stroke="transparent" points="-4,4 -4,-115 1912.5,-115 1912.5,4 -4,4"/>
<!-- countersinks -->
<g id="node1" class="node">
<title>countersinks</title>
<polygon fill="white" stroke="black" stroke-width="2" points="386,-30 279,-30 279,0 386,0 386,-30"/>
<text text-anchor="middle" x="332.5" y="-11.3" font-family="Times,serif" font-size="14.00">countersinks</text>
</g>
<!-- ethers -->
<g id="node2" class="node">
<title>ethers</title>
<polygon fill="white" stroke="black" stroke-width="2" points="1790.5,-30 1690.5,-30 1690.5,0 1790.5,0 1790.5,-30"/>
<text text-anchor="middle" x="1740.5" y="-11.3" font-family="Times,serif" font-size="14.00">ethers</text>
</g>
<!-- generic -->
<g id="node3" class="node">
<title>generic</title>
<polygon fill="white" stroke="black" stroke-width="2" points="1908.5,-30 1808.5,-30 1808.5,0 1908.5,0 1908.5,-30"/>
<text text-anchor="middle" x="1858.5" y="-11.3" font-family="Times,serif" font-size="14.00">generic</text>
</g>
<!-- hdmi -->
<g id="node4" class="node">
<title>hdmi</title>
<polygon fill="white" stroke="black" stroke-width="2" points="842.5,-30 742.5,-30 742.5,0 842.5,0 842.5,-30"/>
<text text-anchor="middle" x="792.5" y="-11.3" font-family="Times,serif" font-size="14.00">hdmi</text>
</g>
<!-- hds -->
<g id="node5" class="node">
<title>hds</title>
<polygon fill="white" stroke="black" stroke-width="2" points="269.5,-111 169.5,-111 169.5,-81 269.5,-81 269.5,-111"/>
<text text-anchor="middle" x="219.5" y="-92.3" font-family="Times,serif" font-size="14.00">hds</text>
</g>
<!-- sata -->
<g id="node14" class="node">
<title>sata</title>
<polygon fill="white" stroke="black" stroke-width="2" points="152.5,-30 52.5,-30 52.5,0 152.5,0 152.5,-30"/>
<text text-anchor="middle" x="102.5" y="-11.3" font-family="Times,serif" font-size="14.00">sata</text>
</g>
<!-- hds&#45;&gt;sata -->
<g id="edge1" class="edge">
<title>hds&#45;&gt;sata</title>
<path fill="none" stroke="black" d="M182.19,-80.9C171.22,-75.99 159.49,-69.94 149.5,-63 139.2,-55.84 129.17,-46.29 121.04,-37.66"/>
<polygon fill="black" stroke="black" points="123.47,-35.14 114.15,-30.1 118.3,-39.85 123.47,-35.14"/>
<text text-anchor="middle" x="184" y="-51.8" font-family="Times,serif" font-size="14.00">«include»</text>
</g>
<!-- screw -->
<g id="node15" class="node">
<title>screw</title>
<polygon fill="white" stroke="black" stroke-width="2" points="566.5,-30 466.5,-30 466.5,0 566.5,0 566.5,-30"/>
<text text-anchor="middle" x="516.5" y="-11.3" font-family="Times,serif" font-size="14.00">screw</text>
</g>
<!-- hds&#45;&gt;screw -->
<g id="edge2" class="edge">
<title>hds&#45;&gt;screw</title>
<path fill="none" stroke="black" d="M227.12,-80.99C233.85,-70.07 244.73,-55.53 258.5,-48 262.82,-45.64 381.18,-31.62 456.07,-22.94"/>
<polygon fill="black" stroke="black" points="456.8,-26.38 466.33,-21.75 455.99,-19.43 456.8,-26.38"/>
<text text-anchor="middle" x="293" y="-51.8" font-family="Times,serif" font-size="14.00">«include»</text>
</g>
<!-- heatsinks -->
<g id="node6" class="node">
<title>heatsinks</title>
<polygon fill="white" stroke="black" stroke-width="2" points="960.5,-30 860.5,-30 860.5,0 960.5,0 960.5,-30"/>
<text text-anchor="middle" x="910.5" y="-11.3" font-family="Times,serif" font-size="14.00">heatsinks</text>
</g>
<!-- jacks -->
<g id="node7" class="node">
<title>jacks</title>
<polygon fill="white" stroke="black" stroke-width="2" points="1078.5,-30 978.5,-30 978.5,0 1078.5,0 1078.5,-30"/>
<text text-anchor="middle" x="1028.5" y="-11.3" font-family="Times,serif" font-size="14.00">jacks</text>
</g>
<!-- knurl_nuts -->
<g id="node8" class="node">
<title>knurl_nuts</title>
<polygon fill="white" stroke="black" stroke-width="2" points="677.5,-111 577.5,-111 577.5,-81 677.5,-81 677.5,-111"/>
<text text-anchor="middle" x="627.5" y="-92.3" font-family="Times,serif" font-size="14.00">knurl_nuts</text>
</g>
<!-- knurl_nuts&#45;&gt;screw -->
<g id="edge3" class="edge">
<title>knurl_nuts&#45;&gt;screw</title>
<path fill="none" stroke="black" d="M617.68,-80.81C610.09,-70.65 598.82,-57.2 586.5,-48 579.65,-42.89 571.85,-38.33 564.01,-34.37"/>
<polygon fill="black" stroke="black" points="565.37,-31.14 554.83,-30.01 562.36,-37.46 565.37,-31.14"/>
<text text-anchor="middle" x="637" y="-51.8" font-family="Times,serif" font-size="14.00">«include»</text>
</g>
<!-- magnets -->
<g id="node9" class="node">
<title>magnets</title>
<polygon fill="white" stroke="black" stroke-width="2" points="403.5,-111 303.5,-111 303.5,-81 403.5,-81 403.5,-111"/>
<text text-anchor="middle" x="353.5" y="-92.3" font-family="Times,serif" font-size="14.00">magnets</text>
</g>
<!-- magnets&#45;&gt;countersinks -->
<g id="edge4" class="edge">
<title>magnets&#45;&gt;countersinks</title>
<path fill="none" stroke="black" d="M342.36,-80.83C338.83,-75.53 335.37,-69.28 333.5,-63 331.37,-55.85 330.63,-47.82 330.56,-40.45"/>
<polygon fill="black" stroke="black" points="334.07,-40.39 330.86,-30.29 327.07,-40.18 334.07,-40.39"/>
<text text-anchor="middle" x="368" y="-51.8" font-family="Times,serif" font-size="14.00">«include»</text>
</g>
<!-- magnets&#45;&gt;screw -->
<g id="edge5" class="edge">
<title>magnets&#45;&gt;screw</title>
<path fill="none" stroke="black" d="M377.29,-80.87C394.12,-71.12 417.37,-58.14 438.5,-48 448.6,-43.15 459.64,-38.34 470.15,-33.98"/>
<polygon fill="black" stroke="black" points="471.68,-37.14 479.61,-30.11 469.03,-30.66 471.68,-37.14"/>
<text text-anchor="middle" x="473" y="-51.8" font-family="Times,serif" font-size="14.00">«include»</text>
</g>
<!-- pcbs -->
<g id="node10" class="node">
<title>pcbs</title>
<polygon fill="white" stroke="black" stroke-width="2" points="1318.5,-111 1218.5,-111 1218.5,-81 1318.5,-81 1318.5,-111"/>
<text text-anchor="middle" x="1268.5" y="-92.3" font-family="Times,serif" font-size="14.00">pcbs</text>
</g>
<!-- pcbs&#45;&gt;ethers -->
<g id="edge6" class="edge">
<title>pcbs&#45;&gt;ethers</title>
<path fill="none" stroke="black" d="M1318.6,-82.48C1321.6,-81.93 1324.58,-81.43 1327.5,-81 1465.37,-60.84 1505.44,-97.26 1640.5,-63 1664.31,-56.96 1689.32,-45.2 1708.37,-34.96"/>
<polygon fill="black" stroke="black" points="1710.15,-37.98 1717.21,-30.09 1706.77,-31.85 1710.15,-37.98"/>
<text text-anchor="middle" x="1714" y="-51.8" font-family="Times,serif" font-size="14.00">«include»</text>
</g>
<!-- pcbs&#45;&gt;generic -->
<g id="edge7" class="edge">
<title>pcbs&#45;&gt;generic</title>
<path fill="none" stroke="black" d="M1318.59,-82.43C1321.59,-81.89 1324.58,-81.4 1327.5,-81 1421.13,-68.03 1660.46,-84.54 1752.5,-63 1777.71,-57.1 1804.35,-45.26 1824.61,-34.95"/>
<polygon fill="black" stroke="black" points="1826.49,-37.92 1833.73,-30.19 1823.25,-31.71 1826.49,-37.92"/>
<text text-anchor="middle" x="1829" y="-51.8" font-family="Times,serif" font-size="14.00">«include»</text>
</g>
<!-- pcbs&#45;&gt;hdmi -->
<g id="edge8" class="edge">
<title>pcbs&#45;&gt;hdmi</title>
<path fill="none" stroke="black" d="M1218.26,-92.96C1130.23,-89.02 951.74,-79.28 891.5,-63 868.25,-56.72 843.78,-45.15 824.98,-35.07"/>
<polygon fill="black" stroke="black" points="826.43,-31.87 815.98,-30.11 823.06,-38 826.43,-31.87"/>
<text text-anchor="middle" x="926" y="-51.8" font-family="Times,serif" font-size="14.00">«include»</text>
</g>
<!-- pcbs&#45;&gt;heatsinks -->
<g id="edge9" class="edge">
<title>pcbs&#45;&gt;heatsinks</title>
<path fill="none" stroke="black" d="M1218.19,-94.28C1163.68,-92.29 1074.69,-85.48 1001.5,-63 980.42,-56.52 958.4,-45.29 941.31,-35.43"/>
<polygon fill="black" stroke="black" points="942.74,-32.21 932.35,-30.13 939.18,-38.24 942.74,-32.21"/>
<text text-anchor="middle" x="1036" y="-51.8" font-family="Times,serif" font-size="14.00">«include»</text>
</g>
<!-- pcbs&#45;&gt;jacks -->
<g id="edge10" class="edge">
<title>pcbs&#45;&gt;jacks</title>
<path fill="none" stroke="black" d="M1218.43,-90.14C1185,-85.74 1140.55,-77.61 1103.5,-63 1086.38,-56.25 1068.86,-45.53 1055.07,-36.03"/>
<polygon fill="black" stroke="black" points="1056.77,-32.94 1046.58,-30.02 1052.72,-38.65 1056.77,-32.94"/>
<text text-anchor="middle" x="1138" y="-51.8" font-family="Times,serif" font-size="14.00">«include»</text>
</g>
<!-- pin_headers -->
<g id="node11" class="node">
<title>pin_headers</title>
<polygon fill="white" stroke="black" stroke-width="2" points="1200,-30 1097,-30 1097,0 1200,0 1200,-30"/>
<text text-anchor="middle" x="1148.5" y="-11.3" font-family="Times,serif" font-size="14.00">pin_headers</text>
</g>
<!-- pcbs&#45;&gt;pin_headers -->
<g id="edge11" class="edge">
<title>pcbs&#45;&gt;pin_headers</title>
<path fill="none" stroke="black" d="M1229.2,-80.95C1217.86,-76.06 1205.78,-70.02 1195.5,-63 1185.14,-55.92 1175.1,-46.38 1166.98,-37.74"/>
<polygon fill="black" stroke="black" points="1169.42,-35.22 1160.11,-30.16 1164.23,-39.92 1169.42,-35.22"/>
<text text-anchor="middle" x="1230" y="-51.8" font-family="Times,serif" font-size="14.00">«include»</text>
</g>
<!-- pcbs&#45;&gt;screw -->
<g id="edge12" class="edge">
<title>pcbs&#45;&gt;screw</title>
<path fill="none" stroke="black" d="M1218.24,-93.58C1129.3,-90.65 938.44,-82.51 778.5,-63 708.9,-54.51 629.77,-39.58 576.86,-28.82"/>
<polygon fill="black" stroke="black" points="577.46,-25.37 566.96,-26.79 576.06,-32.23 577.46,-25.37"/>
<text text-anchor="middle" x="813" y="-51.8" font-family="Times,serif" font-size="14.00">«include»</text>
</g>
<!-- sd -->
<g id="node16" class="node">
<title>sd</title>
<polygon fill="white" stroke="black" stroke-width="2" points="1318.5,-30 1218.5,-30 1218.5,0 1318.5,0 1318.5,-30"/>
<text text-anchor="middle" x="1268.5" y="-11.3" font-family="Times,serif" font-size="14.00">sd</text>
</g>
<!-- pcbs&#45;&gt;sd -->
<g id="edge13" class="edge">
<title>pcbs&#45;&gt;sd</title>
<path fill="none" stroke="black" d="M1268.5,-80.88C1268.5,-69.64 1268.5,-53.66 1268.5,-40.37"/>
<polygon fill="black" stroke="black" points="1272,-40 1268.5,-30 1265,-40 1272,-40"/>
<text text-anchor="middle" x="1303" y="-51.8" font-family="Times,serif" font-size="14.00">«include»</text>
</g>
<!-- switch -->
<g id="node18" class="node">
<title>switch</title>
<polygon fill="white" stroke="black" stroke-width="2" points="1436.5,-30 1336.5,-30 1336.5,0 1436.5,0 1436.5,-30"/>
<text text-anchor="middle" x="1386.5" y="-11.3" font-family="Times,serif" font-size="14.00">switch</text>
</g>
<!-- pcbs&#45;&gt;switch -->
<g id="edge14" class="edge">
<title>pcbs&#45;&gt;switch</title>
<path fill="none" stroke="black" d="M1308.28,-80.92C1319.51,-76.07 1331.41,-70.06 1341.5,-63 1351.57,-55.96 1361.2,-46.43 1368.95,-37.78"/>
<polygon fill="black" stroke="black" points="1371.62,-40.05 1375.5,-30.19 1366.32,-35.48 1371.62,-40.05"/>
<text text-anchor="middle" x="1393" y="-51.8" font-family="Times,serif" font-size="14.00">«include»</text>
</g>
<!-- trimpot -->
<g id="node20" class="node">
<title>trimpot</title>
<polygon fill="white" stroke="black" stroke-width="2" points="1554.5,-30 1454.5,-30 1454.5,0 1554.5,0 1554.5,-30"/>
<text text-anchor="middle" x="1504.5" y="-11.3" font-family="Times,serif" font-size="14.00">trimpot</text>
</g>
<!-- pcbs&#45;&gt;trimpot -->
<g id="edge15" class="edge">
<title>pcbs&#45;&gt;trimpot</title>
<path fill="none" stroke="black" d="M1318.67,-82.87C1321.65,-82.22 1324.61,-81.59 1327.5,-81 1373.45,-71.58 1387.79,-80.04 1431.5,-63 1448.32,-56.44 1465.38,-45.73 1478.77,-36.19"/>
<polygon fill="black" stroke="black" points="1481.02,-38.89 1487.01,-30.15 1476.87,-33.25 1481.02,-38.89"/>
<text text-anchor="middle" x="1493" y="-51.8" font-family="Times,serif" font-size="14.00">«include»</text>
</g>
<!-- usbs -->
<g id="node21" class="node">
<title>usbs</title>
<polygon fill="white" stroke="black" stroke-width="2" points="1672.5,-30 1572.5,-30 1572.5,0 1672.5,0 1672.5,-30"/>
<text text-anchor="middle" x="1622.5" y="-11.3" font-family="Times,serif" font-size="14.00">usbs</text>
</g>
<!-- pcbs&#45;&gt;usbs -->
<g id="edge16" class="edge">
<title>pcbs&#45;&gt;usbs</title>
<path fill="none" stroke="black" d="M1318.61,-82.59C1321.61,-82.01 1324.59,-81.47 1327.5,-81 1417.35,-66.45 1444.09,-88.36 1531.5,-63 1552.83,-56.81 1575,-45.48 1592.12,-35.49"/>
<polygon fill="black" stroke="black" points="1594.3,-38.27 1601.07,-30.12 1590.7,-32.26 1594.3,-38.27"/>
<text text-anchor="middle" x="1602" y="-51.8" font-family="Times,serif" font-size="14.00">«include»</text>
</g>
<!-- psus -->
<g id="node12" class="node">
<title>psus</title>
<polygon fill="white" stroke="black" stroke-width="2" points="559.5,-111 459.5,-111 459.5,-81 559.5,-81 559.5,-111"/>
<text text-anchor="middle" x="509.5" y="-92.3" font-family="Times,serif" font-size="14.00">psus</text>
</g>
<!-- psus&#45;&gt;screw -->
<g id="edge17" class="edge">
<title>psus&#45;&gt;screw</title>
<path fill="none" stroke="black" d="M510.75,-80.88C511.76,-69.53 513.19,-53.34 514.38,-39.97"/>
<polygon fill="black" stroke="black" points="517.86,-40.27 515.26,-30 510.89,-39.65 517.86,-40.27"/>
<text text-anchor="middle" x="548" y="-51.8" font-family="Times,serif" font-size="14.00">«include»</text>
</g>
<!-- sata&#45;adapters -->
<g id="node13" class="node">
<title>sata&#45;adapters</title>
<polygon fill="white" stroke="black" stroke-width="2" points="113,-111 0,-111 0,-81 113,-81 113,-111"/>
<text text-anchor="middle" x="56.5" y="-92.3" font-family="Times,serif" font-size="14.00">sata&#45;adapters</text>
</g>
<!-- sata&#45;adapters&#45;&gt;sata -->
<g id="edge18" class="edge">
<title>sata&#45;adapters&#45;&gt;sata</title>
<path fill="none" stroke="black" d="M53.58,-80.59C52.35,-70.83 52.23,-57.95 57.5,-48 59.68,-43.89 62.65,-40.18 66.03,-36.88"/>
<polygon fill="black" stroke="black" points="68.51,-39.37 73.96,-30.29 64.03,-33.99 68.51,-39.37"/>
<text text-anchor="middle" x="92" y="-51.8" font-family="Times,serif" font-size="14.00">«include»</text>
</g>
<!-- spdts -->
<g id="node17" class="node">
<title>spdts</title>
<polygon fill="white" stroke="black" stroke-width="2" points="1436.5,-111 1336.5,-111 1336.5,-81 1436.5,-81 1436.5,-111"/>
<text text-anchor="middle" x="1386.5" y="-92.3" font-family="Times,serif" font-size="14.00">spdts</text>
</g>
<!-- template -->
<g id="node19" class="node">
<title>template</title>
<polygon fill="white" stroke="black" stroke-width="2" points="1554.5,-111 1454.5,-111 1454.5,-81 1554.5,-81 1554.5,-111"/>
<text text-anchor="middle" x="1504.5" y="-92.3" font-family="Times,serif" font-size="14.00">template</text>
</g>
</g>
</svg>
