<?xml version="1.0" encoding="UTF-8" standalone="no"?>
<!DOCTYPE svg PUBLIC "-//W3C//DTD SVG 1.1//EN"
 "http://www.w3.org/Graphics/SVG/1.1/DTD/svg11.dtd">
<!-- Generated by graphviz version 12.1.0 (20240811.2233)
 -->
<!-- Title: vitamins Pages: 1 -->
<svg width="1996pt" height="121pt"
 viewBox="0.00 0.00 1995.75 121.25" xmlns="http://www.w3.org/2000/svg" xmlns:xlink="http://www.w3.org/1999/xlink">
<g id="graph0" class="graph" transform="scale(1 1) rotate(0) translate(4 117.25)">
<title>vitamins</title>
<polygon fill="white" stroke="none" points="-4,4 -4,-117.25 1991.75,-117.25 1991.75,4 -4,4"/>
<!-- countersinks -->
<g id="node1" class="node">
<title>countersinks</title>
<polygon fill="white" stroke="black" stroke-width="2" points="760.5,-30 653,-30 653,0 760.5,0 760.5,-30"/>
<text text-anchor="middle" x="706.75" y="-10.33" font-family="Times,serif" font-size="14.00">countersinks</text>
</g>
<!-- ethers -->
<g id="node2" class="node">
<title>ethers</title>
<polygon fill="white" stroke="black" stroke-width="2" points="1515.75,-30 1415.75,-30 1415.75,0 1515.75,0 1515.75,-30"/>
<text text-anchor="middle" x="1465.75" y="-10.33" font-family="Times,serif" font-size="14.00">ethers</text>
</g>
<!-- fans -->
<g id="node3" class="node">
<title>fans</title>
<polygon fill="white" stroke="black" stroke-width="2" points="1515.75,-113.25 1415.75,-113.25 1415.75,-83.25 1515.75,-83.25 1515.75,-113.25"/>
<text text-anchor="middle" x="1465.75" y="-93.58" font-family="Times,serif" font-size="14.00">fans</text>
</g>
<!-- generic -->
<g id="node4" class="node">
<title>generic</title>
<polygon fill="white" stroke="black" stroke-width="2" points="1633.75,-30 1533.75,-30 1533.75,0 1633.75,0 1633.75,-30"/>
<text text-anchor="middle" x="1583.75" y="-10.33" font-family="Times,serif" font-size="14.00">generic</text>
</g>
<!-- hdmi -->
<g id="node5" class="node">
<title>hdmi</title>
<polygon fill="white" stroke="black" stroke-width="2" points="1751.75,-30 1651.75,-30 1651.75,0 1751.75,0 1751.75,-30"/>
<text text-anchor="middle" x="1701.75" y="-10.33" font-family="Times,serif" font-size="14.00">hdmi</text>
</g>
<!-- hds -->
<g id="node6" class="node">
<title>hds</title>
<polygon fill="white" stroke="black" stroke-width="2" points="246.75,-113.25 146.75,-113.25 146.75,-83.25 246.75,-83.25 246.75,-113.25"/>
<text text-anchor="middle" x="196.75" y="-93.58" font-family="Times,serif" font-size="14.00">hds</text>
</g>
<!-- sata -->
<g id="node16" class="node">
<title>sata</title>
<polygon fill="white" stroke="black" stroke-width="2" points="152.75,-30 52.75,-30 52.75,0 152.75,0 152.75,-30"/>
<text text-anchor="middle" x="102.75" y="-10.33" font-family="Times,serif" font-size="14.00">sata</text>
</g>
<!-- hds&#45;&gt;sata -->
<g id="edge1" class="edge">
<title>hds&#45;&gt;sata</title>
<path fill="none" stroke="black" d="M171.89,-82.37C164.12,-77.3 155.7,-71.37 148.5,-65.25 139.26,-57.4 129.98,-47.81 122.22,-39.19"/>
<polygon fill="black" stroke="black" points="124.97,-37.01 115.74,-31.8 119.7,-41.62 124.97,-37.01"/>
<text text-anchor="middle" x="182.62" y="-51.95" font-family="Times,serif" font-size="14.00">«include»</text>
</g>
<!-- screw -->
<g id="node17" class="node">
<title>screw</title>
<polygon fill="white" stroke="black" stroke-width="2" points="528.75,-30 428.75,-30 428.75,0 528.75,0 528.75,-30"/>
<text text-anchor="middle" x="478.75" y="-10.33" font-family="Times,serif" font-size="14.00">screw</text>
</g>
<!-- hds&#45;&gt;screw -->
<g id="edge2" class="edge">
<title>hds&#45;&gt;screw</title>
<path fill="none" stroke="black" d="M213.19,-82.26C226.56,-70.96 246.42,-56.07 266.5,-48 314.74,-28.61 373.45,-20.85 416.88,-17.8"/>
<polygon fill="black" stroke="black" points="416.87,-21.31 426.63,-17.19 416.43,-14.32 416.87,-21.31"/>
<text text-anchor="middle" x="300.62" y="-51.95" font-family="Times,serif" font-size="14.00">«include»</text>
</g>
<!-- heatsinks -->
<g id="node7" class="node">
<title>heatsinks</title>
<polygon fill="white" stroke="black" stroke-width="2" points="1869.75,-30 1769.75,-30 1769.75,0 1869.75,0 1869.75,-30"/>
<text text-anchor="middle" x="1819.75" y="-10.33" font-family="Times,serif" font-size="14.00">heatsinks</text>
</g>
<!-- iec -->
<g id="node8" class="node">
<title>iec</title>
<polygon fill="white" stroke="black" stroke-width="2" points="483.75,-113.25 383.75,-113.25 383.75,-83.25 483.75,-83.25 483.75,-113.25"/>
<text text-anchor="middle" x="433.75" y="-93.58" font-family="Times,serif" font-size="14.00">iec</text>
</g>
<!-- iec&#45;&gt;screw -->
<g id="edge3" class="edge">
<title>iec&#45;&gt;screw</title>
<path fill="none" stroke="black" d="M430.67,-82.62C429.27,-72.35 428.97,-58.62 434.5,-48 436.35,-44.44 438.8,-41.19 441.59,-38.24"/>
<polygon fill="black" stroke="black" points="443.84,-40.92 449.05,-31.69 439.22,-35.66 443.84,-40.92"/>
<text text-anchor="middle" x="468.62" y="-51.95" font-family="Times,serif" font-size="14.00">«include»</text>
</g>
<!-- jacks -->
<g id="node9" class="node">
<title>jacks</title>
<polygon fill="white" stroke="black" stroke-width="2" points="1987.75,-30 1887.75,-30 1887.75,0 1987.75,0 1987.75,-30"/>
<text text-anchor="middle" x="1937.75" y="-10.33" font-family="Times,serif" font-size="14.00">jacks</text>
</g>
<!-- knurl_nuts -->
<g id="node10" class="node">
<title>knurl_nuts</title>
<polygon fill="white" stroke="black" stroke-width="2" points="601.75,-113.25 501.75,-113.25 501.75,-83.25 601.75,-83.25 601.75,-113.25"/>
<text text-anchor="middle" x="551.75" y="-93.58" font-family="Times,serif" font-size="14.00">knurl_nuts</text>
</g>
<!-- knurl_nuts&#45;&gt;screw -->
<g id="edge4" class="edge">
<title>knurl_nuts&#45;&gt;screw</title>
<path fill="none" stroke="black" d="M538.36,-82.35C527.56,-70.32 512.16,-53.19 499.72,-39.34"/>
<polygon fill="black" stroke="black" points="502.35,-37.03 493.07,-31.93 497.15,-41.71 502.35,-37.03"/>
<text text-anchor="middle" x="555.91" y="-51.95" font-family="Times,serif" font-size="14.00">«include»</text>
</g>
<!-- magnets -->
<g id="node11" class="node">
<title>magnets</title>
<polygon fill="white" stroke="black" stroke-width="2" points="738.75,-113.25 638.75,-113.25 638.75,-83.25 738.75,-83.25 738.75,-113.25"/>
<text text-anchor="middle" x="688.75" y="-93.58" font-family="Times,serif" font-size="14.00">magnets</text>
</g>
<!-- magnets&#45;&gt;countersinks -->
<g id="edge5" class="edge">
<title>magnets&#45;&gt;countersinks</title>
<path fill="none" stroke="black" d="M692.05,-82.35C694.56,-71.01 698.08,-55.13 701.05,-41.75"/>
<polygon fill="black" stroke="black" points="704.4,-42.81 703.14,-32.29 697.56,-41.29 704.4,-42.81"/>
<text text-anchor="middle" x="733.49" y="-51.95" font-family="Times,serif" font-size="14.00">«include»</text>
</g>
<!-- magnets&#45;&gt;screw -->
<g id="edge6" class="edge">
<title>magnets&#45;&gt;screw</title>
<path fill="none" stroke="black" d="M657.33,-82.39C646.52,-77.13 634.41,-71.08 623.5,-65.25 610.02,-58.05 607.84,-53.93 593.75,-48 576.83,-40.88 557.84,-34.85 540.25,-30.01"/>
<polygon fill="black" stroke="black" points="541.53,-26.73 530.97,-27.55 539.73,-33.5 541.53,-26.73"/>
<text text-anchor="middle" x="657.62" y="-51.95" font-family="Times,serif" font-size="14.00">«include»</text>
</g>
<!-- pcbs -->
<g id="node12" class="node">
<title>pcbs</title>
<polygon fill="white" stroke="black" stroke-width="2" points="1397.75,-113.25 1297.75,-113.25 1297.75,-83.25 1397.75,-83.25 1397.75,-113.25"/>
<text text-anchor="middle" x="1347.75" y="-93.58" font-family="Times,serif" font-size="14.00">pcbs</text>
</g>
<!-- pcbs&#45;&gt;ethers -->
<g id="edge7" class="edge">
<title>pcbs&#45;&gt;ethers</title>
<path fill="none" stroke="black" d="M1388.91,-82.35C1399.42,-77.65 1410.39,-71.92 1419.75,-65.25 1429.79,-58.1 1439.36,-48.49 1447.15,-39.65"/>
<polygon fill="black" stroke="black" points="1449.81,-41.93 1453.58,-32.02 1444.46,-37.41 1449.81,-41.93"/>
<text text-anchor="middle" x="1473.3" y="-51.95" font-family="Times,serif" font-size="14.00">«include»</text>
</g>
<!-- pcbs&#45;&gt;generic -->
<g id="edge8" class="edge">
<title>pcbs&#45;&gt;generic</title>
<path fill="none" stroke="black" d="M1398.55,-84.98C1401.32,-84.38 1404.07,-83.8 1406.75,-83.25 1453.14,-73.78 1467.87,-83.03 1511.75,-65.25 1528.24,-58.57 1544.76,-47.65 1557.81,-37.79"/>
<polygon fill="black" stroke="black" points="1559.74,-40.72 1565.45,-31.8 1555.42,-35.21 1559.74,-40.72"/>
<text text-anchor="middle" x="1577.27" y="-51.95" font-family="Times,serif" font-size="14.00">«include»</text>
</g>
<!-- pcbs&#45;&gt;hdmi -->
<g id="edge9" class="edge">
<title>pcbs&#45;&gt;hdmi</title>
<path fill="none" stroke="black" d="M1398.5,-84.71C1401.29,-84.18 1404.05,-83.68 1406.75,-83.25 1498.8,-68.45 1526.76,-93.07 1615.75,-65.25 1635.88,-58.96 1656.44,-47.4 1672.42,-37.06"/>
<polygon fill="black" stroke="black" points="1674.1,-40.15 1680.46,-31.68 1670.21,-34.33 1674.1,-40.15"/>
<text text-anchor="middle" x="1686.99" y="-51.95" font-family="Times,serif" font-size="14.00">«include»</text>
</g>
<!-- pcbs&#45;&gt;heatsinks -->
<g id="edge10" class="edge">
<title>pcbs&#45;&gt;heatsinks</title>
<path fill="none" stroke="black" d="M1398.49,-84.61C1401.27,-84.1 1404.04,-83.64 1406.75,-83.25 1546.83,-62.83 1588.22,-102.65 1724.75,-65.25 1747.17,-59.11 1770.37,-47.2 1788.23,-36.64"/>
<polygon fill="black" stroke="black" points="1789.82,-39.77 1796.53,-31.57 1786.17,-33.79 1789.82,-39.77"/>
<text text-anchor="middle" x="1799.62" y="-51.95" font-family="Times,serif" font-size="14.00">«include»</text>
</g>
<!-- pcbs&#45;&gt;jacks -->
<g id="edge11" class="edge">
<title>pcbs&#45;&gt;jacks</title>
<path fill="none" stroke="black" d="M1398.48,-84.56C1401.27,-84.07 1404.04,-83.62 1406.75,-83.25 1501.71,-70.12 1744.86,-88.94 1837.75,-65.25 1861.33,-59.24 1885.86,-47.25 1904.73,-36.61"/>
<polygon fill="black" stroke="black" points="1906.39,-39.7 1913.28,-31.65 1902.87,-33.64 1906.39,-39.7"/>
<text text-anchor="middle" x="1914.65" y="-51.95" font-family="Times,serif" font-size="14.00">«include»</text>
</g>
<!-- pin_headers -->
<g id="node13" class="node">
<title>pin_headers</title>
<polygon fill="white" stroke="black" stroke-width="2" points="925.88,-30 823.62,-30 823.62,0 925.88,0 925.88,-30"/>
<text text-anchor="middle" x="874.75" y="-10.33" font-family="Times,serif" font-size="14.00">pin_headers</text>
</g>
<!-- pcbs&#45;&gt;pin_headers -->
<g id="edge12" class="edge">
<title>pcbs&#45;&gt;pin_headers</title>
<path fill="none" stroke="black" d="M1297.07,-95.39C1208.78,-91.75 1030.44,-82.47 970.5,-65.25 948.17,-58.83 924.95,-47.04 906.97,-36.6"/>
<polygon fill="black" stroke="black" points="908.98,-33.72 898.6,-31.6 905.39,-39.73 908.98,-33.72"/>
<text text-anchor="middle" x="1004.62" y="-51.95" font-family="Times,serif" font-size="14.00">«include»</text>
</g>
<!-- pcbs&#45;&gt;screw -->
<g id="edge13" class="edge">
<title>pcbs&#45;&gt;screw</title>
<path fill="none" stroke="black" d="M1297.07,-96.17C1207.86,-93.77 1017.1,-86.42 857.5,-65.25 818.96,-60.14 810.17,-53.95 771.75,-48 692.58,-35.74 600.66,-26.51 541.19,-21.18"/>
<polygon fill="black" stroke="black" points="541.52,-17.7 531.25,-20.3 540.91,-24.67 541.52,-17.7"/>
<text text-anchor="middle" x="891.62" y="-51.95" font-family="Times,serif" font-size="14.00">«include»</text>
</g>
<!-- sd -->
<g id="node18" class="node">
<title>sd</title>
<polygon fill="white" stroke="black" stroke-width="2" points="1043.75,-30 943.75,-30 943.75,0 1043.75,0 1043.75,-30"/>
<text text-anchor="middle" x="993.75" y="-10.33" font-family="Times,serif" font-size="14.00">sd</text>
</g>
<!-- pcbs&#45;&gt;sd -->
<g id="edge14" class="edge">
<title>pcbs&#45;&gt;sd</title>
<path fill="none" stroke="black" d="M1296.97,-97.09C1242.23,-95.57 1153.19,-89.16 1080.5,-65.25 1060.47,-58.66 1039.88,-47.2 1023.78,-37"/>
<polygon fill="black" stroke="black" points="1025.94,-34.22 1015.65,-31.68 1022.11,-40.08 1025.94,-34.22"/>
<text text-anchor="middle" x="1114.62" y="-51.95" font-family="Times,serif" font-size="14.00">«include»</text>
</g>
<!-- switch -->
<g id="node20" class="node">
<title>switch</title>
<polygon fill="white" stroke="black" stroke-width="2" points="1161.75,-30 1061.75,-30 1061.75,0 1161.75,0 1161.75,-30"/>
<text text-anchor="middle" x="1111.75" y="-10.33" font-family="Times,serif" font-size="14.00">switch</text>
</g>
<!-- pcbs&#45;&gt;switch -->
<g id="edge15" class="edge">
<title>pcbs&#45;&gt;switch</title>
<path fill="none" stroke="black" d="M1296.97,-92.77C1263.69,-88.54 1219.8,-80.47 1183.5,-65.25 1167.24,-58.43 1150.9,-47.6 1137.93,-37.83"/>
<polygon fill="black" stroke="black" points="1140.36,-35.29 1130.32,-31.9 1136.06,-40.81 1140.36,-35.29"/>
<text text-anchor="middle" x="1217.62" y="-51.95" font-family="Times,serif" font-size="14.00">«include»</text>
</g>
<!-- trimpot -->
<g id="node22" class="node">
<title>trimpot</title>
<polygon fill="white" stroke="black" stroke-width="2" points="1279.75,-30 1179.75,-30 1179.75,0 1279.75,0 1279.75,-30"/>
<text text-anchor="middle" x="1229.75" y="-10.33" font-family="Times,serif" font-size="14.00">trimpot</text>
</g>
<!-- pcbs&#45;&gt;trimpot -->
<g id="edge16" class="edge">
<title>pcbs&#45;&gt;trimpot</title>
<path fill="none" stroke="black" d="M1306.44,-82.39C1295.89,-77.69 1284.88,-71.94 1275.5,-65.25 1265.49,-58.11 1255.96,-48.5 1248.23,-39.67"/>
<polygon fill="black" stroke="black" points="1250.94,-37.45 1241.83,-32.04 1245.57,-41.95 1250.94,-37.45"/>
<text text-anchor="middle" x="1309.62" y="-51.95" font-family="Times,serif" font-size="14.00">«include»</text>
</g>
<!-- usbs -->
<g id="node23" class="node">
<title>usbs</title>
<polygon fill="white" stroke="black" stroke-width="2" points="1397.75,-30 1297.75,-30 1297.75,0 1397.75,0 1397.75,-30"/>
<text text-anchor="middle" x="1347.75" y="-10.33" font-family="Times,serif" font-size="14.00">usbs</text>
</g>
<!-- pcbs&#45;&gt;usbs -->
<g id="edge17" class="edge">
<title>pcbs&#45;&gt;usbs</title>
<path fill="none" stroke="black" d="M1347.75,-82.35C1347.75,-71.12 1347.75,-55.45 1347.75,-42.15"/>
<polygon fill="black" stroke="black" points="1351.25,-42.32 1347.75,-32.32 1344.25,-42.32 1351.25,-42.32"/>
<text text-anchor="middle" x="1381.88" y="-51.95" font-family="Times,serif" font-size="14.00">«include»</text>
</g>
<!-- psus -->
<g id="node14" class="node">
<title>psus</title>
<polygon fill="white" stroke="black" stroke-width="2" points="365.75,-113.25 265.75,-113.25 265.75,-83.25 365.75,-83.25 365.75,-113.25"/>
<text text-anchor="middle" x="315.75" y="-93.58" font-family="Times,serif" font-size="14.00">psus</text>
</g>
<!-- psus&#45;&gt;screw -->
<g id="edge18" class="edge">
<title>psus&#45;&gt;screw</title>
<path fill="none" stroke="black" d="M324.58,-82.62C332.03,-71.52 343.66,-56.73 357.5,-48 375.21,-36.83 396.72,-29.54 416.68,-24.78"/>
<polygon fill="black" stroke="black" points="417.39,-28.21 426.41,-22.65 415.9,-21.37 417.39,-28.21"/>
<text text-anchor="middle" x="391.62" y="-51.95" font-family="Times,serif" font-size="14.00">«include»</text>
</g>
<!-- sata&#45;adapters -->
<g id="node15" class="node">
<title>sata&#45;adapters</title>
<polygon fill="white" stroke="black" stroke-width="2" points="113.5,-113.25 0,-113.25 0,-83.25 113.5,-83.25 113.5,-113.25"/>
<text text-anchor="middle" x="56.75" y="-93.58" font-family="Times,serif" font-size="14.00">sata&#45;adapters</text>
</g>
<!-- sata&#45;adapters&#45;&gt;sata -->
<g id="edge19" class="edge">
<title>sata&#45;adapters&#45;&gt;sata</title>
<path fill="none" stroke="black" d="M53.63,-82.6C52.22,-72.33 51.92,-58.59 57.5,-48 59.35,-44.49 61.78,-41.28 64.55,-38.36"/>
<polygon fill="black" stroke="black" points="66.71,-41.13 71.95,-31.92 62.11,-35.85 66.71,-41.13"/>
<text text-anchor="middle" x="91.62" y="-51.95" font-family="Times,serif" font-size="14.00">«include»</text>
</g>
<!-- spdts -->
<g id="node19" class="node">
<title>spdts</title>
<polygon fill="white" stroke="black" stroke-width="2" points="1633.75,-113.25 1533.75,-113.25 1533.75,-83.25 1633.75,-83.25 1633.75,-113.25"/>
<text text-anchor="middle" x="1583.75" y="-93.58" font-family="Times,serif" font-size="14.00">spdts</text>
</g>
<!-- template -->
<g id="node21" class="node">
<title>template</title>
<polygon fill="white" stroke="black" stroke-width="2" points="1751.75,-113.25 1651.75,-113.25 1651.75,-83.25 1751.75,-83.25 1751.75,-113.25"/>
<text text-anchor="middle" x="1701.75" y="-93.58" font-family="Times,serif" font-size="14.00">template</text>
</g>
</g>
</svg>
