<?xml version="1.0" encoding="UTF-8" standalone="no"?>
<!DOCTYPE svg PUBLIC "-//W3C//DTD SVG 1.1//EN"
 "http://www.w3.org/Graphics/SVG/1.1/DTD/svg11.dtd">
<!-- Generated by graphviz version 8.1.0 (20230707.0739)
 -->
<!-- Title: vitamins Pages: 1 -->
<svg width="1906pt" height="121pt"
 viewBox="0.00 0.00 1905.75 121.25" xmlns="http://www.w3.org/2000/svg" xmlns:xlink="http://www.w3.org/1999/xlink">
<g id="graph0" class="graph" transform="scale(1 1) rotate(0) translate(4 117.25)">
<title>vitamins</title>
<polygon fill="white" stroke="none" points="-4,4 -4,-117.25 1901.75,-117.25 1901.75,4 -4,4"/>
<!-- countersinks -->
<g id="node1" class="node">
<title>countersinks</title>
<polygon fill="white" stroke="black" stroke-width="2" points="383.5,-30 276,-30 276,0 383.5,0 383.5,-30"/>
<text text-anchor="middle" x="329.75" y="-10.33" font-family="Times,serif" font-size="14.00">countersinks</text>
</g>
<!-- ethers -->
<g id="node2" class="node">
<title>ethers</title>
<polygon fill="white" stroke="black" stroke-width="2" points="1779.75,-30 1679.75,-30 1679.75,0 1779.75,0 1779.75,-30"/>
<text text-anchor="middle" x="1729.75" y="-10.33" font-family="Times,serif" font-size="14.00">ethers</text>
</g>
<!-- generic -->
<g id="node3" class="node">
<title>generic</title>
<polygon fill="white" stroke="black" stroke-width="2" points="1897.75,-30 1797.75,-30 1797.75,0 1897.75,0 1897.75,-30"/>
<text text-anchor="middle" x="1847.75" y="-10.33" font-family="Times,serif" font-size="14.00">generic</text>
</g>
<!-- hdmi -->
<g id="node4" class="node">
<title>hdmi</title>
<polygon fill="white" stroke="black" stroke-width="2" points="833.75,-30 733.75,-30 733.75,0 833.75,0 833.75,-30"/>
<text text-anchor="middle" x="783.75" y="-10.33" font-family="Times,serif" font-size="14.00">hdmi</text>
</g>
<!-- hds -->
<g id="node5" class="node">
<title>hds</title>
<polygon fill="white" stroke="black" stroke-width="2" points="267.75,-113.25 167.75,-113.25 167.75,-83.25 267.75,-83.25 267.75,-113.25"/>
<text text-anchor="middle" x="217.75" y="-93.58" font-family="Times,serif" font-size="14.00">hds</text>
</g>
<!-- sata -->
<g id="node14" class="node">
<title>sata</title>
<polygon fill="white" stroke="black" stroke-width="2" points="152.75,-30 52.75,-30 52.75,0 152.75,0 152.75,-30"/>
<text text-anchor="middle" x="102.75" y="-10.33" font-family="Times,serif" font-size="14.00">sata</text>
</g>
<!-- hds&#45;&gt;sata -->
<g id="edge1" class="edge">
<title>hds&#45;&gt;sata</title>
<path fill="none" stroke="black" d="M178.53,-82.34C168.31,-77.61 157.61,-71.86 148.5,-65.25 138.33,-57.88 128.63,-48 120.8,-39.03"/>
<polygon fill="black" stroke="black" points="123.02,-37.22 113.91,-31.81 117.65,-41.72 123.02,-37.22"/>
<text text-anchor="middle" x="182.88" y="-51.95" font-family="Times,serif" font-size="14.00">«include»</text>
</g>
<!-- screw -->
<g id="node15" class="node">
<title>screw</title>
<polygon fill="white" stroke="black" stroke-width="2" points="561.75,-30 461.75,-30 461.75,0 561.75,0 561.75,-30"/>
<text text-anchor="middle" x="511.75" y="-10.33" font-family="Times,serif" font-size="14.00">screw</text>
</g>
<!-- hds&#45;&gt;screw -->
<g id="edge2" class="edge">
<title>hds&#45;&gt;screw</title>
<path fill="none" stroke="black" d="M224.85,-82.58C231.21,-71.15 241.67,-55.93 255.5,-48 257.61,-46.79 374.84,-32.49 449.99,-23.42"/>
<polygon fill="black" stroke="black" points="450.24,-26.79 459.75,-22.12 449.41,-19.84 450.24,-26.79"/>
<text text-anchor="middle" x="289.88" y="-51.95" font-family="Times,serif" font-size="14.00">«include»</text>
</g>
<!-- heatsinks -->
<g id="node6" class="node">
<title>heatsinks</title>
<polygon fill="white" stroke="black" stroke-width="2" points="951.75,-30 851.75,-30 851.75,0 951.75,0 951.75,-30"/>
<text text-anchor="middle" x="901.75" y="-10.33" font-family="Times,serif" font-size="14.00">heatsinks</text>
</g>
<!-- jacks -->
<g id="node7" class="node">
<title>jacks</title>
<polygon fill="white" stroke="black" stroke-width="2" points="1069.75,-30 969.75,-30 969.75,0 1069.75,0 1069.75,-30"/>
<text text-anchor="middle" x="1019.75" y="-10.33" font-family="Times,serif" font-size="14.00">jacks</text>
</g>
<!-- knurl_nuts -->
<g id="node8" class="node">
<title>knurl_nuts</title>
<polygon fill="white" stroke="black" stroke-width="2" points="672.75,-113.25 572.75,-113.25 572.75,-83.25 672.75,-83.25 672.75,-113.25"/>
<text text-anchor="middle" x="622.75" y="-93.58" font-family="Times,serif" font-size="14.00">knurl_nuts</text>
</g>
<!-- knurl_nuts&#45;&gt;screw -->
<g id="edge3" class="edge">
<title>knurl_nuts&#45;&gt;screw</title>
<path fill="none" stroke="black" d="M612.74,-82.39C604.99,-71.75 593.46,-57.65 580.75,-48 574.68,-43.39 567.83,-39.23 560.87,-35.55"/>
<polygon fill="black" stroke="black" points="562.89,-32.15 552.38,-30.84 559.78,-38.42 562.89,-32.15"/>
<text text-anchor="middle" x="632.88" y="-51.95" font-family="Times,serif" font-size="14.00">«include»</text>
</g>
<!-- magnets -->
<g id="node9" class="node">
<title>magnets</title>
<polygon fill="white" stroke="black" stroke-width="2" points="400.75,-113.25 300.75,-113.25 300.75,-83.25 400.75,-83.25 400.75,-113.25"/>
<text text-anchor="middle" x="350.75" y="-93.58" font-family="Times,serif" font-size="14.00">magnets</text>
</g>
<!-- magnets&#45;&gt;countersinks -->
<g id="edge4" class="edge">
<title>magnets&#45;&gt;countersinks</title>
<path fill="none" stroke="black" d="M339.02,-82.46C335.6,-77.31 332.3,-71.3 330.5,-65.25 328.29,-57.85 327.55,-49.54 327.51,-41.89"/>
<polygon fill="black" stroke="black" points="331.04,-42.09 327.9,-31.97 324.05,-41.84 331.04,-42.09"/>
<text text-anchor="middle" x="364.88" y="-51.95" font-family="Times,serif" font-size="14.00">«include»</text>
</g>
<!-- magnets&#45;&gt;screw -->
<g id="edge5" class="edge">
<title>magnets&#45;&gt;screw</title>
<path fill="none" stroke="black" d="M374.09,-82.34C390.63,-72.08 413.51,-58.45 434.5,-48 443.47,-43.53 453.22,-39.15 462.68,-35.12"/>
<polygon fill="black" stroke="black" points="463.89,-37.99 471.77,-30.92 461.19,-31.53 463.89,-37.99"/>
<text text-anchor="middle" x="467.88" y="-51.95" font-family="Times,serif" font-size="14.00">«include»</text>
</g>
<!-- pcbs -->
<g id="node10" class="node">
<title>pcbs</title>
<polygon fill="white" stroke="black" stroke-width="2" points="1307.75,-113.25 1207.75,-113.25 1207.75,-83.25 1307.75,-83.25 1307.75,-113.25"/>
<text text-anchor="middle" x="1257.75" y="-93.58" font-family="Times,serif" font-size="14.00">pcbs</text>
</g>
<!-- pcbs&#45;&gt;ethers -->
<g id="edge6" class="edge">
<title>pcbs&#45;&gt;ethers</title>
<path fill="none" stroke="black" d="M1308.49,-84.61C1311.27,-84.1 1314.04,-83.65 1316.75,-83.25 1455.95,-62.93 1496.93,-101.87 1632.75,-65.25 1655.78,-59.04 1679.7,-46.97 1698.02,-36.33"/>
<polygon fill="black" stroke="black" points="1699.53,-38.91 1706.32,-30.78 1695.94,-32.9 1699.53,-38.91"/>
<text text-anchor="middle" x="1707.88" y="-51.95" font-family="Times,serif" font-size="14.00">«include»</text>
</g>
<!-- pcbs&#45;&gt;generic -->
<g id="edge7" class="edge">
<title>pcbs&#45;&gt;generic</title>
<path fill="none" stroke="black" d="M1308.48,-84.56C1311.27,-84.07 1314.04,-83.63 1316.75,-83.25 1411.27,-70.18 1653.2,-88.48 1745.75,-65.25 1769.95,-59.18 1795.22,-47.03 1814.55,-36.31"/>
<polygon fill="black" stroke="black" points="1816.13,-38.87 1823.08,-30.88 1812.66,-32.79 1816.13,-38.87"/>
<text text-anchor="middle" x="1822.88" y="-51.95" font-family="Times,serif" font-size="14.00">«include»</text>
</g>
<!-- pcbs&#45;&gt;hdmi -->
<g id="edge8" class="edge">
<title>pcbs&#45;&gt;hdmi</title>
<path fill="none" stroke="black" d="M1206.94,-95.4C1118.41,-91.77 939.6,-82.51 879.5,-65.25 857.06,-58.8 833.73,-46.93 815.72,-36.45"/>
<polygon fill="black" stroke="black" points="817.68,-32.95 807.3,-30.82 814.09,-38.96 817.68,-32.95"/>
<text text-anchor="middle" x="912.88" y="-51.95" font-family="Times,serif" font-size="14.00">«include»</text>
</g>
<!-- pcbs&#45;&gt;heatsinks -->
<g id="edge9" class="edge">
<title>pcbs&#45;&gt;heatsinks</title>
<path fill="none" stroke="black" d="M1206.76,-96.95C1152.04,-95.3 1063.19,-88.77 990.5,-65.25 969.9,-58.58 948.63,-46.97 932.07,-36.69"/>
<polygon fill="black" stroke="black" points="934.23,-33.28 923.91,-30.85 930.46,-39.18 934.23,-33.28"/>
<text text-anchor="middle" x="1023.88" y="-51.95" font-family="Times,serif" font-size="14.00">«include»</text>
</g>
<!-- pcbs&#45;&gt;jacks -->
<g id="edge10" class="edge">
<title>pcbs&#45;&gt;jacks</title>
<path fill="none" stroke="black" d="M1207.03,-92.62C1173.78,-88.32 1129.9,-80.24 1093.5,-65.25 1076.73,-58.34 1059.77,-47.36 1046.36,-37.52"/>
<polygon fill="black" stroke="black" points="1048.76,-34.2 1038.68,-30.95 1044.54,-39.78 1048.76,-34.2"/>
<text text-anchor="middle" x="1126.88" y="-51.95" font-family="Times,serif" font-size="14.00">«include»</text>
</g>
<!-- pin_headers -->
<g id="node11" class="node">
<title>pin_headers</title>
<polygon fill="white" stroke="black" stroke-width="2" points="1189.88,-30 1087.62,-30 1087.62,0 1189.88,0 1189.88,-30"/>
<text text-anchor="middle" x="1138.75" y="-10.33" font-family="Times,serif" font-size="14.00">pin_headers</text>
</g>
<!-- pcbs&#45;&gt;pin_headers -->
<g id="edge11" class="edge">
<title>pcbs&#45;&gt;pin_headers</title>
<path fill="none" stroke="black" d="M1216.49,-82.32C1205.93,-77.62 1194.92,-71.89 1185.5,-65.25 1175.13,-57.94 1165.22,-48.07 1157.21,-39.09"/>
<polygon fill="black" stroke="black" points="1159.33,-37.18 1150.17,-31.86 1154.01,-41.73 1159.33,-37.18"/>
<text text-anchor="middle" x="1218.88" y="-51.95" font-family="Times,serif" font-size="14.00">«include»</text>
</g>
<!-- pcbs&#45;&gt;screw -->
<g id="edge12" class="edge">
<title>pcbs&#45;&gt;screw</title>
<path fill="none" stroke="black" d="M1206.88,-96.07C1117.33,-93.51 925.82,-85.93 765.5,-65.25 746.7,-62.82 642.18,-42.15 573.28,-28.37"/>
<polygon fill="black" stroke="black" points="574.04,-24.75 563.55,-26.22 572.67,-31.61 574.04,-24.75"/>
<text text-anchor="middle" x="798.88" y="-51.95" font-family="Times,serif" font-size="14.00">«include»</text>
</g>
<!-- sd -->
<g id="node16" class="node">
<title>sd</title>
<polygon fill="white" stroke="black" stroke-width="2" points="1307.75,-30 1207.75,-30 1207.75,0 1307.75,0 1307.75,-30"/>
<text text-anchor="middle" x="1257.75" y="-10.33" font-family="Times,serif" font-size="14.00">sd</text>
</g>
<!-- pcbs&#45;&gt;sd -->
<g id="edge13" class="edge">
<title>pcbs&#45;&gt;sd</title>
<path fill="none" stroke="black" d="M1257.75,-82.35C1257.75,-71.01 1257.75,-55.13 1257.75,-41.75"/>
<polygon fill="black" stroke="black" points="1261.25,-41.81 1257.75,-31.81 1254.25,-41.81 1261.25,-41.81"/>
<text text-anchor="middle" x="1291.88" y="-51.95" font-family="Times,serif" font-size="14.00">«include»</text>
</g>
<!-- switch -->
<g id="node18" class="node">
<title>switch</title>
<polygon fill="white" stroke="black" stroke-width="2" points="1425.75,-30 1325.75,-30 1325.75,0 1425.75,0 1425.75,-30"/>
<text text-anchor="middle" x="1375.75" y="-10.33" font-family="Times,serif" font-size="14.00">switch</text>
</g>
<!-- pcbs&#45;&gt;switch -->
<g id="edge14" class="edge">
<title>pcbs&#45;&gt;switch</title>
<path fill="none" stroke="black" d="M1298.91,-82.35C1309.42,-77.65 1320.39,-71.92 1329.75,-65.25 1340.01,-57.95 1349.77,-48.08 1357.64,-39.1"/>
<polygon fill="black" stroke="black" points="1360.8,-41.77 1364.56,-31.87 1355.44,-37.27 1360.8,-41.77"/>
<text text-anchor="middle" x="1382.88" y="-51.95" font-family="Times,serif" font-size="14.00">«include»</text>
</g>
<!-- trimpot -->
<g id="node20" class="node">
<title>trimpot</title>
<polygon fill="white" stroke="black" stroke-width="2" points="1543.75,-30 1443.75,-30 1443.75,0 1543.75,0 1543.75,-30"/>
<text text-anchor="middle" x="1493.75" y="-10.33" font-family="Times,serif" font-size="14.00">trimpot</text>
</g>
<!-- pcbs&#45;&gt;trimpot -->
<g id="edge15" class="edge">
<title>pcbs&#45;&gt;trimpot</title>
<path fill="none" stroke="black" d="M1308.55,-84.98C1311.32,-84.38 1314.07,-83.8 1316.75,-83.25 1362.7,-73.83 1377.23,-82.76 1420.75,-65.25 1437.58,-58.48 1454.48,-47.41 1467.78,-37.48"/>
<polygon fill="black" stroke="black" points="1469.59,-39.73 1475.37,-30.85 1465.31,-34.19 1469.59,-39.73"/>
<text text-anchor="middle" x="1485.88" y="-51.95" font-family="Times,serif" font-size="14.00">«include»</text>
</g>
<!-- usbs -->
<g id="node21" class="node">
<title>usbs</title>
<polygon fill="white" stroke="black" stroke-width="2" points="1661.75,-30 1561.75,-30 1561.75,0 1661.75,0 1661.75,-30"/>
<text text-anchor="middle" x="1611.75" y="-10.33" font-family="Times,serif" font-size="14.00">usbs</text>
</g>
<!-- pcbs&#45;&gt;usbs -->
<g id="edge16" class="edge">
<title>pcbs&#45;&gt;usbs</title>
<path fill="none" stroke="black" d="M1308.5,-84.71C1311.29,-84.18 1314.05,-83.69 1316.75,-83.25 1407.92,-68.55 1435.49,-92.41 1523.75,-65.25 1544.45,-58.88 1565.7,-47.16 1582.13,-36.76"/>
<polygon fill="black" stroke="black" points="1583.74,-39.23 1590.2,-30.83 1579.92,-33.37 1583.74,-39.23"/>
<text text-anchor="middle" x="1594.88" y="-51.95" font-family="Times,serif" font-size="14.00">«include»</text>
</g>
<!-- psus -->
<g id="node12" class="node">
<title>psus</title>
<polygon fill="white" stroke="black" stroke-width="2" points="554.75,-113.25 454.75,-113.25 454.75,-83.25 554.75,-83.25 554.75,-113.25"/>
<text text-anchor="middle" x="504.75" y="-93.58" font-family="Times,serif" font-size="14.00">psus</text>
</g>
<!-- psus&#45;&gt;screw -->
<g id="edge17" class="edge">
<title>psus&#45;&gt;screw</title>
<path fill="none" stroke="black" d="M506.03,-82.35C507.01,-71.01 508.38,-55.13 509.53,-41.75"/>
<polygon fill="black" stroke="black" points="513.1,-42.07 510.47,-31.81 506.13,-41.47 513.1,-42.07"/>
<text text-anchor="middle" x="542.88" y="-51.95" font-family="Times,serif" font-size="14.00">«include»</text>
</g>
<!-- sata&#45;adapters -->
<g id="node13" class="node">
<title>sata&#45;adapters</title>
<polygon fill="white" stroke="black" stroke-width="2" points="113.5,-113.25 0,-113.25 0,-83.25 113.5,-83.25 113.5,-113.25"/>
<text text-anchor="middle" x="56.75" y="-93.58" font-family="Times,serif" font-size="14.00">sata&#45;adapters</text>
</g>
<!-- sata&#45;adapters&#45;&gt;sata -->
<g id="edge18" class="edge">
<title>sata&#45;adapters&#45;&gt;sata</title>
<path fill="none" stroke="black" d="M53.63,-82.6C52.22,-72.33 51.92,-58.59 57.5,-48 59.41,-44.38 61.93,-41.08 64.81,-38.1"/>
<polygon fill="black" stroke="black" points="66.82,-40.12 72.09,-30.92 62.24,-34.83 66.82,-40.12"/>
<text text-anchor="middle" x="91.88" y="-51.95" font-family="Times,serif" font-size="14.00">«include»</text>
</g>
<!-- spdts -->
<g id="node17" class="node">
<title>spdts</title>
<polygon fill="white" stroke="black" stroke-width="2" points="1425.75,-113.25 1325.75,-113.25 1325.75,-83.25 1425.75,-83.25 1425.75,-113.25"/>
<text text-anchor="middle" x="1375.75" y="-93.58" font-family="Times,serif" font-size="14.00">spdts</text>
</g>
<!-- template -->
<g id="node19" class="node">
<title>template</title>
<polygon fill="white" stroke="black" stroke-width="2" points="1543.75,-113.25 1443.75,-113.25 1443.75,-83.25 1543.75,-83.25 1543.75,-113.25"/>
<text text-anchor="middle" x="1493.75" y="-93.58" font-family="Times,serif" font-size="14.00">template</text>
</g>
</g>
</svg>
