<?xml version="1.0" encoding="UTF-8" standalone="no"?>
<!DOCTYPE svg PUBLIC "-//W3C//DTD SVG 1.1//EN"
 "http://www.w3.org/Graphics/SVG/1.1/DTD/svg11.dtd">
<!-- Generated by graphviz version 12.1.0 (20240811.2233)
 -->
<!-- Title: vitamins Pages: 1 -->
<svg width="1895pt" height="121pt"
 viewBox="0.00 0.00 1895.00 120.50" xmlns="http://www.w3.org/2000/svg" xmlns:xlink="http://www.w3.org/1999/xlink">
<g id="graph0" class="graph" transform="scale(1 1) rotate(0) translate(4 116.5)">
<title>vitamins</title>
<polygon fill="white" stroke="none" points="-4,4 -4,-116.5 1891,-116.5 1891,4 -4,4"/>
<!-- countersinks -->
<g id="node1" class="node">
<title>countersinks</title>
<polygon fill="white" stroke="black" stroke-width="2" points="690,-30 590,-30 590,0 690,0 690,-30"/>
<text text-anchor="middle" x="640" y="-9.95" font-family="Times,serif" font-size="14.00">countersinks</text>
</g>
<!-- ethers -->
<g id="node2" class="node">
<title>ethers</title>
<polygon fill="white" stroke="black" stroke-width="2" points="1415,-30 1315,-30 1315,0 1415,0 1415,-30"/>
<text text-anchor="middle" x="1365" y="-9.95" font-family="Times,serif" font-size="14.00">ethers</text>
</g>
<!-- fans -->
<g id="node3" class="node">
<title>fans</title>
<polygon fill="white" stroke="black" stroke-width="2" points="1415,-112.5 1315,-112.5 1315,-82.5 1415,-82.5 1415,-112.5"/>
<text text-anchor="middle" x="1365" y="-92.45" font-family="Times,serif" font-size="14.00">fans</text>
</g>
<!-- generic -->
<g id="node4" class="node">
<title>generic</title>
<polygon fill="white" stroke="black" stroke-width="2" points="1533,-30 1433,-30 1433,0 1533,0 1533,-30"/>
<text text-anchor="middle" x="1483" y="-9.95" font-family="Times,serif" font-size="14.00">generic</text>
</g>
<!-- hdmi -->
<g id="node5" class="node">
<title>hdmi</title>
<polygon fill="white" stroke="black" stroke-width="2" points="1651,-30 1551,-30 1551,0 1651,0 1651,-30"/>
<text text-anchor="middle" x="1601" y="-9.95" font-family="Times,serif" font-size="14.00">hdmi</text>
</g>
<!-- hds -->
<g id="node6" class="node">
<title>hds</title>
<polygon fill="white" stroke="black" stroke-width="2" points="218,-112.5 118,-112.5 118,-82.5 218,-82.5 218,-112.5"/>
<text text-anchor="middle" x="168" y="-92.45" font-family="Times,serif" font-size="14.00">hds</text>
</g>
<!-- sata -->
<g id="node16" class="node">
<title>sata</title>
<polygon fill="white" stroke="black" stroke-width="2" points="139,-30 39,-30 39,0 139,0 139,-30"/>
<text text-anchor="middle" x="89" y="-9.95" font-family="Times,serif" font-size="14.00">sata</text>
</g>
<!-- hds&#45;&gt;sata -->
<g id="edge1" class="edge">
<title>hds&#45;&gt;sata</title>
<path fill="none" stroke="black" d="M150.83,-81.53C144.97,-76.27 138.47,-70.24 132.75,-64.5 124.75,-56.48 116.34,-47.33 109.05,-39.16"/>
<polygon fill="black" stroke="black" points="111.89,-37.1 102.65,-31.91 106.64,-41.73 111.89,-37.1"/>
<text text-anchor="middle" x="159.38" y="-51.2" font-family="Times,serif" font-size="14.00">«include»</text>
</g>
<!-- screw -->
<g id="node17" class="node">
<title>screw</title>
<polygon fill="white" stroke="black" stroke-width="2" points="496,-30 396,-30 396,0 496,0 496,-30"/>
<text text-anchor="middle" x="446" y="-9.95" font-family="Times,serif" font-size="14.00">screw</text>
</g>
<!-- hds&#45;&gt;screw -->
<g id="edge2" class="edge">
<title>hds&#45;&gt;screw</title>
<path fill="none" stroke="black" d="M193.71,-81.73C213.61,-70.89 242.16,-56.62 268.75,-48 306.03,-35.91 349.29,-27.99 383.74,-23.05"/>
<polygon fill="black" stroke="black" points="384.14,-26.53 393.57,-21.7 383.18,-19.59 384.14,-26.53"/>
<text text-anchor="middle" x="295.38" y="-51.2" font-family="Times,serif" font-size="14.00">«include»</text>
</g>
<!-- heatsinks -->
<g id="node7" class="node">
<title>heatsinks</title>
<polygon fill="white" stroke="black" stroke-width="2" points="1769,-30 1669,-30 1669,0 1769,0 1769,-30"/>
<text text-anchor="middle" x="1719" y="-9.95" font-family="Times,serif" font-size="14.00">heatsinks</text>
</g>
<!-- iec -->
<g id="node8" class="node">
<title>iec</title>
<polygon fill="white" stroke="black" stroke-width="2" points="454,-112.5 354,-112.5 354,-82.5 454,-82.5 454,-112.5"/>
<text text-anchor="middle" x="404" y="-92.45" font-family="Times,serif" font-size="14.00">iec</text>
</g>
<!-- iec&#45;&gt;screw -->
<g id="edge3" class="edge">
<title>iec&#45;&gt;screw</title>
<path fill="none" stroke="black" d="M404.31,-81.72C405.07,-71.69 407.18,-58.41 412.75,-48 414.4,-44.92 416.45,-41.96 418.72,-39.17"/>
<polygon fill="black" stroke="black" points="421.16,-41.69 425.45,-32 416.05,-36.9 421.16,-41.69"/>
<text text-anchor="middle" x="439.38" y="-51.2" font-family="Times,serif" font-size="14.00">«include»</text>
</g>
<!-- jacks -->
<g id="node9" class="node">
<title>jacks</title>
<polygon fill="white" stroke="black" stroke-width="2" points="1887,-30 1787,-30 1787,0 1887,0 1887,-30"/>
<text text-anchor="middle" x="1837" y="-9.95" font-family="Times,serif" font-size="14.00">jacks</text>
</g>
<!-- knurl_nuts -->
<g id="node10" class="node">
<title>knurl_nuts</title>
<polygon fill="white" stroke="black" stroke-width="2" points="572,-112.5 472,-112.5 472,-82.5 572,-82.5 572,-112.5"/>
<text text-anchor="middle" x="522" y="-92.45" font-family="Times,serif" font-size="14.00">knurl_nuts</text>
</g>
<!-- knurl_nuts&#45;&gt;screw -->
<g id="edge4" class="edge">
<title>knurl_nuts&#45;&gt;screw</title>
<path fill="none" stroke="black" d="M506.18,-81.78C500.58,-76.44 494.29,-70.29 488.75,-64.5 481.08,-56.49 472.96,-47.43 465.89,-39.34"/>
<polygon fill="black" stroke="black" points="468.6,-37.12 459.41,-31.85 463.31,-41.71 468.6,-37.12"/>
<text text-anchor="middle" x="515.38" y="-51.2" font-family="Times,serif" font-size="14.00">«include»</text>
</g>
<!-- magnets -->
<g id="node11" class="node">
<title>magnets</title>
<polygon fill="white" stroke="black" stroke-width="2" points="690,-112.5 590,-112.5 590,-82.5 690,-82.5 690,-112.5"/>
<text text-anchor="middle" x="640" y="-92.45" font-family="Times,serif" font-size="14.00">magnets</text>
</g>
<!-- magnets&#45;&gt;countersinks -->
<g id="edge5" class="edge">
<title>magnets&#45;&gt;countersinks</title>
<path fill="none" stroke="black" d="M640,-81.74C640,-70.68 640,-55.28 640,-42.16"/>
<polygon fill="black" stroke="black" points="643.5,-42.46 640,-32.46 636.5,-42.46 643.5,-42.46"/>
<text text-anchor="middle" x="666.63" y="-51.2" font-family="Times,serif" font-size="14.00">«include»</text>
</g>
<!-- magnets&#45;&gt;screw -->
<g id="edge6" class="edge">
<title>magnets&#45;&gt;screw</title>
<path fill="none" stroke="black" d="M612.59,-81.66C593.19,-71.48 566.4,-58.05 542,-48 530.56,-43.29 518.14,-38.75 506.16,-34.64"/>
<polygon fill="black" stroke="black" points="507.34,-31.34 496.75,-31.48 505.12,-37.98 507.34,-31.34"/>
<text text-anchor="middle" x="604.25" y="-51.2" font-family="Times,serif" font-size="14.00">«include»</text>
</g>
<!-- pcbs -->
<g id="node12" class="node">
<title>pcbs</title>
<polygon fill="white" stroke="black" stroke-width="2" points="1297,-112.5 1197,-112.5 1197,-82.5 1297,-82.5 1297,-112.5"/>
<text text-anchor="middle" x="1247" y="-92.45" font-family="Times,serif" font-size="14.00">pcbs</text>
</g>
<!-- pcbs&#45;&gt;ethers -->
<g id="edge7" class="edge">
<title>pcbs&#45;&gt;ethers</title>
<path fill="none" stroke="black" d="M1275.66,-81.58C1284.89,-76.47 1295.05,-70.51 1304,-64.5 1315.9,-56.5 1328.4,-46.82 1338.96,-38.21"/>
<polygon fill="black" stroke="black" points="1341.05,-41.03 1346.52,-31.96 1336.58,-35.64 1341.05,-41.03"/>
<text text-anchor="middle" x="1353.13" y="-51.2" font-family="Times,serif" font-size="14.00">«include»</text>
</g>
<!-- pcbs&#45;&gt;generic -->
<g id="edge8" class="edge">
<title>pcbs&#45;&gt;generic</title>
<path fill="none" stroke="black" d="M1297.84,-84.41C1300.6,-83.77 1303.33,-83.12 1306,-82.5 1340.64,-74.39 1350.47,-76.4 1384,-64.5 1405.51,-56.86 1428.46,-45.82 1446.85,-36.19"/>
<polygon fill="black" stroke="black" points="1448.31,-39.38 1455.49,-31.59 1445.02,-33.2 1448.31,-39.38"/>
<text text-anchor="middle" x="1449.67" y="-51.2" font-family="Times,serif" font-size="14.00">«include»</text>
</g>
<!-- pcbs&#45;&gt;hdmi -->
<g id="edge9" class="edge">
<title>pcbs&#45;&gt;hdmi</title>
<path fill="none" stroke="black" d="M1297.76,-84.01C1300.54,-83.47 1303.3,-82.96 1306,-82.5 1382.65,-69.5 1404.52,-83.14 1480,-64.5 1507.69,-57.66 1537.45,-45.8 1560.52,-35.52"/>
<polygon fill="black" stroke="black" points="1561.91,-38.73 1569.57,-31.41 1559.02,-32.36 1561.91,-38.73"/>
<text text-anchor="middle" x="1554.26" y="-51.2" font-family="Times,serif" font-size="14.00">«include»</text>
</g>
<!-- pcbs&#45;&gt;heatsinks -->
<g id="edge10" class="edge">
<title>pcbs&#45;&gt;heatsinks</title>
<path fill="none" stroke="black" d="M1297.74,-83.89C1300.53,-83.37 1303.29,-82.91 1306,-82.5 1428.89,-64.09 1463.37,-89.9 1585,-64.5 1616.05,-58.02 1649.6,-45.87 1675.36,-35.35"/>
<polygon fill="black" stroke="black" points="1676.61,-38.62 1684.5,-31.54 1673.92,-32.16 1676.61,-38.62"/>
<text text-anchor="middle" x="1667.91" y="-51.2" font-family="Times,serif" font-size="14.00">«include»</text>
</g>
<!-- pcbs&#45;&gt;jacks -->
<g id="edge11" class="edge">
<title>pcbs&#45;&gt;jacks</title>
<path fill="none" stroke="black" d="M1297.73,-83.82C1300.52,-83.33 1303.29,-82.88 1306,-82.5 1479.15,-58.21 1527.36,-97.84 1699,-64.5 1731.32,-58.22 1766.29,-45.87 1792.95,-35.2"/>
<polygon fill="black" stroke="black" points="1794.12,-38.5 1802.06,-31.47 1791.48,-32.01 1794.12,-38.5"/>
<text text-anchor="middle" x="1783.58" y="-51.2" font-family="Times,serif" font-size="14.00">«include»</text>
</g>
<!-- pin_headers -->
<g id="node13" class="node">
<title>pin_headers</title>
<polygon fill="white" stroke="black" stroke-width="2" points="825,-30 725,-30 725,0 825,0 825,-30"/>
<text text-anchor="middle" x="775" y="-9.95" font-family="Times,serif" font-size="14.00">pin_headers</text>
</g>
<!-- pcbs&#45;&gt;pin_headers -->
<g id="edge12" class="edge">
<title>pcbs&#45;&gt;pin_headers</title>
<path fill="none" stroke="black" d="M1196.23,-95.69C1129.51,-93.72 1009.03,-87.04 908.75,-64.5 878.07,-57.6 844.83,-45.57 819.16,-35.22"/>
<polygon fill="black" stroke="black" points="820.63,-32.04 810.05,-31.48 817.97,-38.51 820.63,-32.04"/>
<text text-anchor="middle" x="935.38" y="-51.2" font-family="Times,serif" font-size="14.00">«include»</text>
</g>
<!-- pcbs&#45;&gt;screw -->
<g id="edge13" class="edge">
<title>pcbs&#45;&gt;screw</title>
<path fill="none" stroke="black" d="M1196.12,-94.28C1112.84,-90.32 942.35,-80.91 798.75,-64.5 751.93,-59.15 740.65,-54.68 694,-48 630.81,-38.95 558.39,-29.74 508.19,-23.54"/>
<polygon fill="black" stroke="black" points="508.73,-20.08 498.38,-22.33 507.88,-27.02 508.73,-20.08"/>
<text text-anchor="middle" x="825.38" y="-51.2" font-family="Times,serif" font-size="14.00">«include»</text>
</g>
<!-- sd -->
<g id="node18" class="node">
<title>sd</title>
<polygon fill="white" stroke="black" stroke-width="2" points="943,-30 843,-30 843,0 943,0 943,-30"/>
<text text-anchor="middle" x="893" y="-9.95" font-family="Times,serif" font-size="14.00">sd</text>
</g>
<!-- pcbs&#45;&gt;sd -->
<g id="edge14" class="edge">
<title>pcbs&#45;&gt;sd</title>
<path fill="none" stroke="black" d="M1196.25,-93.15C1148.52,-89.15 1075.38,-80.84 1013.75,-64.5 986.6,-57.3 957.35,-45.66 934.43,-35.58"/>
<polygon fill="black" stroke="black" points="936,-32.45 925.44,-31.56 933.14,-38.84 936,-32.45"/>
<text text-anchor="middle" x="1040.38" y="-51.2" font-family="Times,serif" font-size="14.00">«include»</text>
</g>
<!-- switch -->
<g id="node20" class="node">
<title>switch</title>
<polygon fill="white" stroke="black" stroke-width="2" points="1061,-30 961,-30 961,0 1061,0 1061,-30"/>
<text text-anchor="middle" x="1011" y="-9.95" font-family="Times,serif" font-size="14.00">switch</text>
</g>
<!-- pcbs&#45;&gt;switch -->
<g id="edge15" class="edge">
<title>pcbs&#45;&gt;switch</title>
<path fill="none" stroke="black" d="M1196.01,-87.49C1169.82,-82.14 1137.63,-74.45 1109.75,-64.5 1088.3,-56.84 1065.4,-45.8 1047.06,-36.18"/>
<polygon fill="black" stroke="black" points="1048.92,-33.2 1038.45,-31.58 1045.62,-39.37 1048.92,-33.2"/>
<text text-anchor="middle" x="1136.38" y="-51.2" font-family="Times,serif" font-size="14.00">«include»</text>
</g>
<!-- trimpot -->
<g id="node22" class="node">
<title>trimpot</title>
<polygon fill="white" stroke="black" stroke-width="2" points="1179,-30 1079,-30 1079,0 1179,0 1179,-30"/>
<text text-anchor="middle" x="1129" y="-9.95" font-family="Times,serif" font-size="14.00">trimpot</text>
</g>
<!-- pcbs&#45;&gt;trimpot -->
<g id="edge16" class="edge">
<title>pcbs&#45;&gt;trimpot</title>
<path fill="none" stroke="black" d="M1218.2,-81.61C1208.93,-76.5 1198.73,-70.53 1189.75,-64.5 1177.79,-56.47 1165.25,-46.7 1154.68,-38.04"/>
<polygon fill="black" stroke="black" points="1157.06,-35.47 1147.13,-31.76 1152.58,-40.85 1157.06,-35.47"/>
<text text-anchor="middle" x="1216.38" y="-51.2" font-family="Times,serif" font-size="14.00">«include»</text>
</g>
<!-- usbs -->
<g id="node23" class="node">
<title>usbs</title>
<polygon fill="white" stroke="black" stroke-width="2" points="1297,-30 1197,-30 1197,0 1297,0 1297,-30"/>
<text text-anchor="middle" x="1247" y="-9.95" font-family="Times,serif" font-size="14.00">usbs</text>
</g>
<!-- pcbs&#45;&gt;usbs -->
<g id="edge17" class="edge">
<title>pcbs&#45;&gt;usbs</title>
<path fill="none" stroke="black" d="M1247,-81.74C1247,-70.68 1247,-55.28 1247,-42.16"/>
<polygon fill="black" stroke="black" points="1250.5,-42.46 1247,-32.46 1243.5,-42.46 1250.5,-42.46"/>
<text text-anchor="middle" x="1273.63" y="-51.2" font-family="Times,serif" font-size="14.00">«include»</text>
</g>
<!-- psus -->
<g id="node14" class="node">
<title>psus</title>
<polygon fill="white" stroke="black" stroke-width="2" points="336,-112.5 236,-112.5 236,-82.5 336,-82.5 336,-112.5"/>
<text text-anchor="middle" x="286" y="-92.45" font-family="Times,serif" font-size="14.00">psus</text>
</g>
<!-- psus&#45;&gt;screw -->
<g id="edge18" class="edge">
<title>psus&#45;&gt;screw</title>
<path fill="none" stroke="black" d="M302.28,-81.7C314.58,-71.13 332.29,-57.22 349.75,-48 360.6,-42.27 372.67,-37.29 384.5,-33.08"/>
<polygon fill="black" stroke="black" points="385.48,-36.44 393.82,-29.91 383.22,-29.82 385.48,-36.44"/>
<text text-anchor="middle" x="376.38" y="-51.2" font-family="Times,serif" font-size="14.00">«include»</text>
</g>
<!-- sata&#45;adapters -->
<g id="node15" class="node">
<title>sata&#45;adapters</title>
<polygon fill="white" stroke="black" stroke-width="2" points="100,-112.5 0,-112.5 0,-82.5 100,-82.5 100,-112.5"/>
<text text-anchor="middle" x="50" y="-92.45" font-family="Times,serif" font-size="14.00">sata&#45;adapters</text>
</g>
<!-- sata&#45;adapters&#45;&gt;sata -->
<g id="edge19" class="edge">
<title>sata&#45;adapters&#45;&gt;sata</title>
<path fill="none" stroke="black" d="M47.97,-81.76C47.26,-71.74 47.67,-58.47 52.75,-48 54.36,-44.68 56.49,-41.55 58.91,-38.65"/>
<polygon fill="black" stroke="black" points="61.21,-41.31 65.76,-31.75 56.23,-36.39 61.21,-41.31"/>
<text text-anchor="middle" x="79.38" y="-51.2" font-family="Times,serif" font-size="14.00">«include»</text>
</g>
<!-- spdts -->
<g id="node19" class="node">
<title>spdts</title>
<polygon fill="white" stroke="black" stroke-width="2" points="1533,-112.5 1433,-112.5 1433,-82.5 1533,-82.5 1533,-112.5"/>
<text text-anchor="middle" x="1483" y="-92.45" font-family="Times,serif" font-size="14.00">spdts</text>
</g>
<!-- template -->
<g id="node21" class="node">
<title>template</title>
<polygon fill="white" stroke="black" stroke-width="2" points="1651,-112.5 1551,-112.5 1551,-82.5 1651,-82.5 1651,-112.5"/>
<text text-anchor="middle" x="1601" y="-92.45" font-family="Times,serif" font-size="14.00">template</text>
</g>
</g>
</svg>
