<?xml version="1.0" encoding="UTF-8" standalone="no"?>
<!DOCTYPE svg PUBLIC "-//W3C//DTD SVG 1.1//EN"
 "http://www.w3.org/Graphics/SVG/1.1/DTD/svg11.dtd">
<!-- Generated by graphviz version 8.1.0 (20230707.0739)
 -->
<!-- Title: vitamins Pages: 1 -->
<svg width="1778pt" height="121pt"
 viewBox="0.00 0.00 1778.00 120.50" xmlns="http://www.w3.org/2000/svg" xmlns:xlink="http://www.w3.org/1999/xlink">
<g id="graph0" class="graph" transform="scale(1 1) rotate(0) translate(4 116.5)">
<title>vitamins</title>
<polygon fill="white" stroke="none" points="-4,4 -4,-116.5 1774,-116.5 1774,4 -4,4"/>
<!-- countersinks -->
<g id="node1" class="node">
<title>countersinks</title>
<polygon fill="white" stroke="black" stroke-width="2" points="328,-30 228,-30 228,0 328,0 328,-30"/>
<text text-anchor="middle" x="278" y="-9.95" font-family="Times,serif" font-size="14.00">countersinks</text>
</g>
<!-- ethers -->
<g id="node2" class="node">
<title>ethers</title>
<polygon fill="white" stroke="black" stroke-width="2" points="1652,-30 1552,-30 1552,0 1652,0 1652,-30"/>
<text text-anchor="middle" x="1602" y="-9.95" font-family="Times,serif" font-size="14.00">ethers</text>
</g>
<!-- generic -->
<g id="node3" class="node">
<title>generic</title>
<polygon fill="white" stroke="black" stroke-width="2" points="1770,-30 1670,-30 1670,0 1770,0 1770,-30"/>
<text text-anchor="middle" x="1720" y="-9.95" font-family="Times,serif" font-size="14.00">generic</text>
</g>
<!-- hdmi -->
<g id="node4" class="node">
<title>hdmi</title>
<polygon fill="white" stroke="black" stroke-width="2" points="708,-30 608,-30 608,0 708,0 708,-30"/>
<text text-anchor="middle" x="658" y="-9.95" font-family="Times,serif" font-size="14.00">hdmi</text>
</g>
<!-- hds -->
<g id="node5" class="node">
<title>hds</title>
<polygon fill="white" stroke="black" stroke-width="2" points="224,-112.5 124,-112.5 124,-82.5 224,-82.5 224,-112.5"/>
<text text-anchor="middle" x="174" y="-92.45" font-family="Times,serif" font-size="14.00">hds</text>
</g>
<!-- sata -->
<g id="node14" class="node">
<title>sata</title>
<polygon fill="white" stroke="black" stroke-width="2" points="138,-30 38,-30 38,0 138,0 138,-30"/>
<text text-anchor="middle" x="88" y="-9.95" font-family="Times,serif" font-size="14.00">sata</text>
</g>
<!-- hds&#45;&gt;sata -->
<g id="edge1" class="edge">
<title>hds&#45;&gt;sata</title>
<path fill="none" stroke="black" d="M148.91,-81.54C141.43,-76.56 133.44,-70.69 126.75,-64.5 118.73,-57.09 110.99,-47.94 104.56,-39.6"/>
<polygon fill="black" stroke="black" points="106.92,-37.92 98.15,-31.98 101.31,-42.09 106.92,-37.92"/>
<text text-anchor="middle" x="152.63" y="-51.2" font-family="Times,serif" font-size="14.00">«include»</text>
</g>
<!-- screw -->
<g id="node15" class="node">
<title>screw</title>
<polygon fill="white" stroke="black" stroke-width="2" points="480,-30 380,-30 380,0 480,0 480,-30"/>
<text text-anchor="middle" x="430" y="-9.95" font-family="Times,serif" font-size="14.00">screw</text>
</g>
<!-- hds&#45;&gt;screw -->
<g id="edge2" class="edge">
<title>hds&#45;&gt;screw</title>
<path fill="none" stroke="black" d="M183.21,-81.67C190.99,-70.51 203.17,-55.84 217.75,-48 217.86,-47.94 305.95,-34.67 368.6,-25.24"/>
<polygon fill="black" stroke="black" points="368.83,-28.6 378.19,-23.65 367.79,-21.67 368.83,-28.6"/>
<text text-anchor="middle" x="243.63" y="-51.2" font-family="Times,serif" font-size="14.00">«include»</text>
</g>
<!-- heatsinks -->
<g id="node6" class="node">
<title>heatsinks</title>
<polygon fill="white" stroke="black" stroke-width="2" points="826,-30 726,-30 726,0 826,0 826,-30"/>
<text text-anchor="middle" x="776" y="-9.95" font-family="Times,serif" font-size="14.00">heatsinks</text>
</g>
<!-- jacks -->
<g id="node7" class="node">
<title>jacks</title>
<polygon fill="white" stroke="black" stroke-width="2" points="944,-30 844,-30 844,0 944,0 944,-30"/>
<text text-anchor="middle" x="894" y="-9.95" font-family="Times,serif" font-size="14.00">jacks</text>
</g>
<!-- knurl_nuts -->
<g id="node8" class="node">
<title>knurl_nuts</title>
<polygon fill="white" stroke="black" stroke-width="2" points="595,-112.5 495,-112.5 495,-82.5 595,-82.5 595,-112.5"/>
<text text-anchor="middle" x="545" y="-92.45" font-family="Times,serif" font-size="14.00">knurl_nuts</text>
</g>
<!-- knurl_nuts&#45;&gt;screw -->
<g id="edge3" class="edge">
<title>knurl_nuts&#45;&gt;screw</title>
<path fill="none" stroke="black" d="M527.95,-81.55C516.23,-71.57 500.11,-58.41 485,-48 479.33,-44.09 473.16,-40.19 467.07,-36.52"/>
<polygon fill="black" stroke="black" points="469.04,-33.03 458.65,-30.98 465.49,-39.07 469.04,-33.03"/>
<text text-anchor="middle" x="533.63" y="-51.2" font-family="Times,serif" font-size="14.00">«include»</text>
</g>
<!-- magnets -->
<g id="node9" class="node">
<title>magnets</title>
<polygon fill="white" stroke="black" stroke-width="2" points="355,-112.5 255,-112.5 255,-82.5 355,-82.5 355,-112.5"/>
<text text-anchor="middle" x="305" y="-92.45" font-family="Times,serif" font-size="14.00">magnets</text>
</g>
<!-- magnets&#45;&gt;countersinks -->
<g id="edge4" class="edge">
<title>magnets&#45;&gt;countersinks</title>
<path fill="none" stroke="black" d="M289.28,-81.57C285.05,-76.59 281.02,-70.71 278.75,-64.5 276.13,-57.36 275.27,-49.22 275.25,-41.68"/>
<polygon fill="black" stroke="black" points="278.78,-42.04 275.74,-31.89 271.79,-41.72 278.78,-42.04"/>
<text text-anchor="middle" x="304.63" y="-51.2" font-family="Times,serif" font-size="14.00">«include»</text>
</g>
<!-- magnets&#45;&gt;screw -->
<g id="edge5" class="edge">
<title>magnets&#45;&gt;screw</title>
<path fill="none" stroke="black" d="M323.78,-81.55C336.66,-71.57 354.34,-58.41 370.75,-48 377.2,-43.91 384.21,-39.82 391.08,-36.01"/>
<polygon fill="black" stroke="black" points="392.19,-38.84 399.3,-30.99 388.84,-32.7 392.19,-38.84"/>
<text text-anchor="middle" x="396.63" y="-51.2" font-family="Times,serif" font-size="14.00">«include»</text>
</g>
<!-- pcbs -->
<g id="node10" class="node">
<title>pcbs</title>
<polygon fill="white" stroke="black" stroke-width="2" points="1180,-112.5 1080,-112.5 1080,-82.5 1180,-82.5 1180,-112.5"/>
<text text-anchor="middle" x="1130" y="-92.45" font-family="Times,serif" font-size="14.00">pcbs</text>
</g>
<!-- pcbs&#45;&gt;ethers -->
<g id="edge6" class="edge">
<title>pcbs&#45;&gt;ethers</title>
<path fill="none" stroke="black" d="M1180.74,-83.89C1183.53,-83.37 1186.29,-82.91 1189,-82.5 1311.45,-64.14 1345.77,-89.68 1467,-64.5 1498.54,-57.95 1532.66,-45.64 1558.72,-35.06"/>
<polygon fill="black" stroke="black" points="1559.74,-38.01 1567.64,-30.96 1557.06,-31.54 1559.74,-38.01"/>
<text text-anchor="middle" x="1549.63" y="-51.2" font-family="Times,serif" font-size="14.00">«include»</text>
</g>
<!-- pcbs&#45;&gt;generic -->
<g id="edge7" class="edge">
<title>pcbs&#45;&gt;generic</title>
<path fill="none" stroke="black" d="M1180.73,-83.83C1183.52,-83.33 1186.29,-82.88 1189,-82.5 1361.27,-58.31 1409.16,-97.31 1580,-64.5 1613.04,-58.15 1648.86,-45.63 1676,-34.9"/>
<polygon fill="black" stroke="black" points="1676.98,-37.88 1684.95,-30.9 1674.37,-31.38 1676.98,-37.88"/>
<text text-anchor="middle" x="1664.63" y="-51.2" font-family="Times,serif" font-size="14.00">«include»</text>
</g>
<!-- pcbs&#45;&gt;hdmi -->
<g id="edge8" class="edge">
<title>pcbs&#45;&gt;hdmi</title>
<path fill="none" stroke="black" d="M1079.07,-95.74C1012.14,-93.83 891.3,-87.21 790.75,-64.5 760.14,-57.59 726.99,-45.48 701.47,-35.09"/>
<polygon fill="black" stroke="black" points="702.96,-31.5 692.38,-30.91 700.28,-37.97 702.96,-31.5"/>
<text text-anchor="middle" x="816.63" y="-51.2" font-family="Times,serif" font-size="14.00">«include»</text>
</g>
<!-- pcbs&#45;&gt;heatsinks -->
<g id="edge9" class="edge">
<title>pcbs&#45;&gt;heatsinks</title>
<path fill="none" stroke="black" d="M1079.02,-93.21C1031.08,-89.26 957.63,-80.98 895.75,-64.5 868.68,-57.29 839.53,-45.58 816.76,-35.46"/>
<polygon fill="black" stroke="black" points="818.34,-31.88 807.78,-30.95 815.46,-38.26 818.34,-31.88"/>
<text text-anchor="middle" x="921.63" y="-51.2" font-family="Times,serif" font-size="14.00">«include»</text>
</g>
<!-- pcbs&#45;&gt;jacks -->
<g id="edge10" class="edge">
<title>pcbs&#45;&gt;jacks</title>
<path fill="none" stroke="black" d="M1079.01,-87.49C1052.82,-82.14 1020.63,-74.45 992.75,-64.5 971.2,-56.81 948.19,-45.69 929.81,-36.04"/>
<polygon fill="black" stroke="black" points="931.58,-32.49 921.11,-30.86 928.28,-38.66 931.58,-32.49"/>
<text text-anchor="middle" x="1018.63" y="-51.2" font-family="Times,serif" font-size="14.00">«include»</text>
</g>
<!-- pin_headers -->
<g id="node11" class="node">
<title>pin_headers</title>
<polygon fill="white" stroke="black" stroke-width="2" points="1062,-30 962,-30 962,0 1062,0 1062,-30"/>
<text text-anchor="middle" x="1012" y="-9.95" font-family="Times,serif" font-size="14.00">pin_headers</text>
</g>
<!-- pcbs&#45;&gt;pin_headers -->
<g id="edge11" class="edge">
<title>pcbs&#45;&gt;pin_headers</title>
<path fill="none" stroke="black" d="M1101.2,-81.61C1091.93,-76.5 1081.73,-70.53 1072.75,-64.5 1060.67,-56.38 1047.99,-46.5 1037.36,-37.78"/>
<polygon fill="black" stroke="black" points="1039.89,-34.5 1029.97,-30.79 1035.41,-39.88 1039.89,-34.5"/>
<text text-anchor="middle" x="1098.63" y="-51.2" font-family="Times,serif" font-size="14.00">«include»</text>
</g>
<!-- pcbs&#45;&gt;screw -->
<g id="edge12" class="edge">
<title>pcbs&#45;&gt;screw</title>
<path fill="none" stroke="black" d="M1079.27,-94.87C995.84,-91.74 824.55,-83.46 680.75,-64.5 615.63,-55.91 541.92,-41.03 491.36,-30"/>
<polygon fill="black" stroke="black" points="492.13,-26.37 481.61,-27.64 490.63,-33.21 492.13,-26.37"/>
<text text-anchor="middle" x="706.63" y="-51.2" font-family="Times,serif" font-size="14.00">«include»</text>
</g>
<!-- sd -->
<g id="node16" class="node">
<title>sd</title>
<polygon fill="white" stroke="black" stroke-width="2" points="1180,-30 1080,-30 1080,0 1180,0 1180,-30"/>
<text text-anchor="middle" x="1130" y="-9.95" font-family="Times,serif" font-size="14.00">sd</text>
</g>
<!-- pcbs&#45;&gt;sd -->
<g id="edge13" class="edge">
<title>pcbs&#45;&gt;sd</title>
<path fill="none" stroke="black" d="M1130,-81.74C1130,-70.57 1130,-54.96 1130,-41.76"/>
<polygon fill="black" stroke="black" points="1133.5,-41.94 1130,-31.94 1126.5,-41.94 1133.5,-41.94"/>
<text text-anchor="middle" x="1156.63" y="-51.2" font-family="Times,serif" font-size="14.00">«include»</text>
</g>
<!-- switch -->
<g id="node18" class="node">
<title>switch</title>
<polygon fill="white" stroke="black" stroke-width="2" points="1298,-30 1198,-30 1198,0 1298,0 1298,-30"/>
<text text-anchor="middle" x="1248" y="-9.95" font-family="Times,serif" font-size="14.00">switch</text>
</g>
<!-- pcbs&#45;&gt;switch -->
<g id="edge14" class="edge">
<title>pcbs&#45;&gt;switch</title>
<path fill="none" stroke="black" d="M1158.66,-81.58C1167.89,-76.47 1178.05,-70.51 1187,-64.5 1199.02,-56.42 1211.65,-46.62 1222.28,-37.95"/>
<polygon fill="black" stroke="black" points="1224.21,-40.07 1229.68,-31 1219.75,-34.68 1224.21,-40.07"/>
<text text-anchor="middle" x="1235.63" y="-51.2" font-family="Times,serif" font-size="14.00">«include»</text>
</g>
<!-- trimpot -->
<g id="node20" class="node">
<title>trimpot</title>
<polygon fill="white" stroke="black" stroke-width="2" points="1416,-30 1316,-30 1316,0 1416,0 1416,-30"/>
<text text-anchor="middle" x="1366" y="-9.95" font-family="Times,serif" font-size="14.00">trimpot</text>
</g>
<!-- pcbs&#45;&gt;trimpot -->
<g id="edge15" class="edge">
<title>pcbs&#45;&gt;trimpot</title>
<path fill="none" stroke="black" d="M1180.85,-84.42C1183.6,-83.77 1186.34,-83.13 1189,-82.5 1223.21,-74.44 1232.87,-76.24 1266,-64.5 1287.89,-56.74 1311.3,-45.56 1329.97,-35.88"/>
<polygon fill="black" stroke="black" points="1331.32,-38.6 1338.53,-30.84 1328.06,-32.41 1331.32,-38.6"/>
<text text-anchor="middle" x="1331.63" y="-51.2" font-family="Times,serif" font-size="14.00">«include»</text>
</g>
<!-- usbs -->
<g id="node21" class="node">
<title>usbs</title>
<polygon fill="white" stroke="black" stroke-width="2" points="1534,-30 1434,-30 1434,0 1534,0 1534,-30"/>
<text text-anchor="middle" x="1484" y="-9.95" font-family="Times,serif" font-size="14.00">usbs</text>
</g>
<!-- pcbs&#45;&gt;usbs -->
<g id="edge16" class="edge">
<title>pcbs&#45;&gt;usbs</title>
<path fill="none" stroke="black" d="M1180.76,-84.01C1183.54,-83.47 1186.3,-82.96 1189,-82.5 1265.21,-69.55 1286.93,-82.95 1362,-64.5 1389.96,-57.63 1420.03,-45.73 1443.32,-35.44"/>
<polygon fill="black" stroke="black" points="1444.5,-38.29 1452.18,-31 1441.63,-31.91 1444.5,-38.29"/>
<text text-anchor="middle" x="1436.63" y="-51.2" font-family="Times,serif" font-size="14.00">«include»</text>
</g>
<!-- psus -->
<g id="node12" class="node">
<title>psus</title>
<polygon fill="white" stroke="black" stroke-width="2" points="477,-112.5 377,-112.5 377,-82.5 477,-82.5 477,-112.5"/>
<text text-anchor="middle" x="427" y="-92.45" font-family="Times,serif" font-size="14.00">psus</text>
</g>
<!-- psus&#45;&gt;screw -->
<g id="edge17" class="edge">
<title>psus&#45;&gt;screw</title>
<path fill="none" stroke="black" d="M427.55,-81.74C427.97,-70.57 428.55,-54.96 429.04,-41.76"/>
<polygon fill="black" stroke="black" points="432.57,-42.07 429.44,-31.94 425.57,-41.81 432.57,-42.07"/>
<text text-anchor="middle" x="454.63" y="-51.2" font-family="Times,serif" font-size="14.00">«include»</text>
</g>
<!-- sata&#45;adapters -->
<g id="node13" class="node">
<title>sata&#45;adapters</title>
<polygon fill="white" stroke="black" stroke-width="2" points="100,-112.5 0,-112.5 0,-82.5 100,-82.5 100,-112.5"/>
<text text-anchor="middle" x="50" y="-92.45" font-family="Times,serif" font-size="14.00">sata&#45;adapters</text>
</g>
<!-- sata&#45;adapters&#45;&gt;sata -->
<g id="edge18" class="edge">
<title>sata&#45;adapters&#45;&gt;sata</title>
<path fill="none" stroke="black" d="M47.19,-81.79C45.99,-71.79 45.82,-58.52 50.75,-48 52.35,-44.58 54.52,-41.38 57.01,-38.43"/>
<polygon fill="black" stroke="black" points="59.04,-41.35 63.65,-31.81 54.1,-36.39 59.04,-41.35"/>
<text text-anchor="middle" x="77.63" y="-51.2" font-family="Times,serif" font-size="14.00">«include»</text>
</g>
<!-- spdts -->
<g id="node17" class="node">
<title>spdts</title>
<polygon fill="white" stroke="black" stroke-width="2" points="1298,-112.5 1198,-112.5 1198,-82.5 1298,-82.5 1298,-112.5"/>
<text text-anchor="middle" x="1248" y="-92.45" font-family="Times,serif" font-size="14.00">spdts</text>
</g>
<!-- template -->
<g id="node19" class="node">
<title>template</title>
<polygon fill="white" stroke="black" stroke-width="2" points="1416,-112.5 1316,-112.5 1316,-82.5 1416,-82.5 1416,-112.5"/>
<text text-anchor="middle" x="1366" y="-92.45" font-family="Times,serif" font-size="14.00">template</text>
</g>
</g>
</svg>
