<?xml version="1.0" encoding="UTF-8" standalone="no"?>
<!DOCTYPE svg PUBLIC "-//W3C//DTD SVG 1.1//EN"
 "http://www.w3.org/Graphics/SVG/1.1/DTD/svg11.dtd">
<!-- Generated by graphviz version 8.1.0 (20230707.0739)
 -->
<!-- Title: vitamins Pages: 1 -->
<svg width="1895pt" height="121pt"
 viewBox="0.00 0.00 1895.00 120.50" xmlns="http://www.w3.org/2000/svg" xmlns:xlink="http://www.w3.org/1999/xlink">
<g id="graph0" class="graph" transform="scale(1 1) rotate(0) translate(4 116.5)">
<title>vitamins</title>
<polygon fill="white" stroke="none" points="-4,4 -4,-116.5 1891,-116.5 1891,4 -4,4"/>
<!-- countersinks -->
<g id="node1" class="node">
<title>countersinks</title>
<polygon fill="white" stroke="black" stroke-width="2" points="690,-30 590,-30 590,0 690,0 690,-30"/>
<text text-anchor="middle" x="640" y="-9.95" font-family="Times,serif" font-size="14.00">countersinks</text>
</g>
<!-- ethers -->
<g id="node2" class="node">
<title>ethers</title>
<polygon fill="white" stroke="black" stroke-width="2" points="1415,-30 1315,-30 1315,0 1415,0 1415,-30"/>
<text text-anchor="middle" x="1365" y="-9.95" font-family="Times,serif" font-size="14.00">ethers</text>
</g>
<!-- fans -->
<g id="node3" class="node">
<title>fans</title>
<polygon fill="white" stroke="black" stroke-width="2" points="1415,-112.5 1315,-112.5 1315,-82.5 1415,-82.5 1415,-112.5"/>
<text text-anchor="middle" x="1365" y="-92.45" font-family="Times,serif" font-size="14.00">fans</text>
</g>
<!-- generic -->
<g id="node4" class="node">
<title>generic</title>
<polygon fill="white" stroke="black" stroke-width="2" points="1533,-30 1433,-30 1433,0 1533,0 1533,-30"/>
<text text-anchor="middle" x="1483" y="-9.95" font-family="Times,serif" font-size="14.00">generic</text>
</g>
<!-- hdmi -->
<g id="node5" class="node">
<title>hdmi</title>
<polygon fill="white" stroke="black" stroke-width="2" points="1651,-30 1551,-30 1551,0 1651,0 1651,-30"/>
<text text-anchor="middle" x="1601" y="-9.95" font-family="Times,serif" font-size="14.00">hdmi</text>
</g>
<!-- hds -->
<g id="node6" class="node">
<title>hds</title>
<polygon fill="white" stroke="black" stroke-width="2" points="218,-112.5 118,-112.5 118,-82.5 218,-82.5 218,-112.5"/>
<text text-anchor="middle" x="168" y="-92.45" font-family="Times,serif" font-size="14.00">hds</text>
</g>
<!-- sata -->
<g id="node16" class="node">
<title>sata</title>
<polygon fill="white" stroke="black" stroke-width="2" points="139,-30 39,-30 39,0 139,0 139,-30"/>
<text text-anchor="middle" x="89" y="-9.95" font-family="Times,serif" font-size="14.00">sata</text>
</g>
<!-- hds&#45;&gt;sata -->
<g id="edge1" class="edge">
<title>hds&#45;&gt;sata</title>
<path fill="none" stroke="black" d="M150.83,-81.53C144.97,-76.27 138.47,-70.24 132.75,-64.5 124.67,-56.39 116.16,-47.14 108.81,-38.9"/>
<polygon fill="black" stroke="black" points="111.89,-36.96 102.65,-31.78 106.64,-41.59 111.89,-36.96"/>
<text text-anchor="middle" x="158.63" y="-51.2" font-family="Times,serif" font-size="14.00">«include»</text>
</g>
<!-- screw -->
<g id="node17" class="node">
<title>screw</title>
<polygon fill="white" stroke="black" stroke-width="2" points="496,-30 396,-30 396,0 496,0 496,-30"/>
<text text-anchor="middle" x="446" y="-9.95" font-family="Times,serif" font-size="14.00">screw</text>
</g>
<!-- hds&#45;&gt;screw -->
<g id="edge2" class="edge">
<title>hds&#45;&gt;screw</title>
<path fill="none" stroke="black" d="M192.88,-81.67C212.15,-70.81 239.84,-56.53 265.75,-48 304.32,-35.3 349.3,-27.3 384.67,-22.48"/>
<polygon fill="black" stroke="black" points="384.87,-25.85 394.33,-21.08 383.96,-18.91 384.87,-25.85"/>
<text text-anchor="middle" x="291.63" y="-51.2" font-family="Times,serif" font-size="14.00">«include»</text>
</g>
<!-- heatsinks -->
<g id="node7" class="node">
<title>heatsinks</title>
<polygon fill="white" stroke="black" stroke-width="2" points="1769,-30 1669,-30 1669,0 1769,0 1769,-30"/>
<text text-anchor="middle" x="1719" y="-9.95" font-family="Times,serif" font-size="14.00">heatsinks</text>
</g>
<!-- iec -->
<g id="node8" class="node">
<title>iec</title>
<polygon fill="white" stroke="black" stroke-width="2" points="454,-112.5 354,-112.5 354,-82.5 454,-82.5 454,-112.5"/>
<text text-anchor="middle" x="404" y="-92.45" font-family="Times,serif" font-size="14.00">iec</text>
</g>
<!-- iec&#45;&gt;screw -->
<g id="edge3" class="edge">
<title>iec&#45;&gt;screw</title>
<path fill="none" stroke="black" d="M404.31,-81.72C405.07,-71.69 407.18,-58.41 412.75,-48 414.5,-44.72 416.72,-41.58 419.16,-38.64"/>
<polygon fill="black" stroke="black" points="421.15,-41.57 425.48,-31.9 416.07,-36.76 421.15,-41.57"/>
<text text-anchor="middle" x="438.63" y="-51.2" font-family="Times,serif" font-size="14.00">«include»</text>
</g>
<!-- jacks -->
<g id="node9" class="node">
<title>jacks</title>
<polygon fill="white" stroke="black" stroke-width="2" points="1887,-30 1787,-30 1787,0 1887,0 1887,-30"/>
<text text-anchor="middle" x="1837" y="-9.95" font-family="Times,serif" font-size="14.00">jacks</text>
</g>
<!-- knurl_nuts -->
<g id="node10" class="node">
<title>knurl_nuts</title>
<polygon fill="white" stroke="black" stroke-width="2" points="572,-112.5 472,-112.5 472,-82.5 572,-82.5 572,-112.5"/>
<text text-anchor="middle" x="522" y="-92.45" font-family="Times,serif" font-size="14.00">knurl_nuts</text>
</g>
<!-- knurl_nuts&#45;&gt;screw -->
<g id="edge4" class="edge">
<title>knurl_nuts&#45;&gt;screw</title>
<path fill="none" stroke="black" d="M506.18,-81.78C500.58,-76.44 494.29,-70.29 488.75,-64.5 480.92,-56.32 472.61,-47.05 465.43,-38.82"/>
<polygon fill="black" stroke="black" points="467.61,-36.98 458.42,-31.71 462.31,-41.56 467.61,-36.98"/>
<text text-anchor="middle" x="514.63" y="-51.2" font-family="Times,serif" font-size="14.00">«include»</text>
</g>
<!-- magnets -->
<g id="node11" class="node">
<title>magnets</title>
<polygon fill="white" stroke="black" stroke-width="2" points="690,-112.5 590,-112.5 590,-82.5 690,-82.5 690,-112.5"/>
<text text-anchor="middle" x="640" y="-92.45" font-family="Times,serif" font-size="14.00">magnets</text>
</g>
<!-- magnets&#45;&gt;countersinks -->
<g id="edge5" class="edge">
<title>magnets&#45;&gt;countersinks</title>
<path fill="none" stroke="black" d="M640,-81.74C640,-70.57 640,-54.96 640,-41.76"/>
<polygon fill="black" stroke="black" points="643.5,-41.94 640,-31.94 636.5,-41.94 643.5,-41.94"/>
<text text-anchor="middle" x="666.63" y="-51.2" font-family="Times,serif" font-size="14.00">«include»</text>
</g>
<!-- magnets&#45;&gt;screw -->
<g id="edge6" class="edge">
<title>magnets&#45;&gt;screw</title>
<path fill="none" stroke="black" d="M612.59,-81.66C593.19,-71.48 566.4,-58.05 542,-48 530.32,-43.19 517.64,-38.56 505.43,-34.39"/>
<polygon fill="black" stroke="black" points="506.91,-30.86 496.32,-30.99 504.68,-37.49 506.91,-30.86"/>
<text text-anchor="middle" x="603.63" y="-51.2" font-family="Times,serif" font-size="14.00">«include»</text>
</g>
<!-- pcbs -->
<g id="node12" class="node">
<title>pcbs</title>
<polygon fill="white" stroke="black" stroke-width="2" points="1297,-112.5 1197,-112.5 1197,-82.5 1297,-82.5 1297,-112.5"/>
<text text-anchor="middle" x="1247" y="-92.45" font-family="Times,serif" font-size="14.00">pcbs</text>
</g>
<!-- pcbs&#45;&gt;ethers -->
<g id="edge7" class="edge">
<title>pcbs&#45;&gt;ethers</title>
<path fill="none" stroke="black" d="M1275.66,-81.58C1284.89,-76.47 1295.05,-70.51 1304,-64.5 1316.02,-56.42 1328.65,-46.62 1339.28,-37.95"/>
<polygon fill="black" stroke="black" points="1341.21,-40.07 1346.68,-31 1336.75,-34.68 1341.21,-40.07"/>
<text text-anchor="middle" x="1352.63" y="-51.2" font-family="Times,serif" font-size="14.00">«include»</text>
</g>
<!-- pcbs&#45;&gt;generic -->
<g id="edge8" class="edge">
<title>pcbs&#45;&gt;generic</title>
<path fill="none" stroke="black" d="M1297.85,-84.42C1300.6,-83.77 1303.34,-83.13 1306,-82.5 1340.21,-74.44 1349.87,-76.24 1383,-64.5 1404.89,-56.74 1428.3,-45.56 1446.97,-35.88"/>
<polygon fill="black" stroke="black" points="1448.32,-38.6 1455.53,-30.84 1445.06,-32.41 1448.32,-38.6"/>
<text text-anchor="middle" x="1448.63" y="-51.2" font-family="Times,serif" font-size="14.00">«include»</text>
</g>
<!-- pcbs&#45;&gt;hdmi -->
<g id="edge9" class="edge">
<title>pcbs&#45;&gt;hdmi</title>
<path fill="none" stroke="black" d="M1297.76,-84.01C1300.54,-83.47 1303.3,-82.96 1306,-82.5 1382.21,-69.55 1403.93,-82.95 1479,-64.5 1506.96,-57.63 1537.03,-45.73 1560.32,-35.44"/>
<polygon fill="black" stroke="black" points="1561.5,-38.29 1569.18,-31 1558.63,-31.91 1561.5,-38.29"/>
<text text-anchor="middle" x="1553.63" y="-51.2" font-family="Times,serif" font-size="14.00">«include»</text>
</g>
<!-- pcbs&#45;&gt;heatsinks -->
<g id="edge10" class="edge">
<title>pcbs&#45;&gt;heatsinks</title>
<path fill="none" stroke="black" d="M1297.74,-83.89C1300.53,-83.37 1303.29,-82.91 1306,-82.5 1428.45,-64.14 1462.77,-89.68 1584,-64.5 1615.54,-57.95 1649.66,-45.64 1675.72,-35.06"/>
<polygon fill="black" stroke="black" points="1676.74,-38.01 1684.64,-30.96 1674.06,-31.54 1676.74,-38.01"/>
<text text-anchor="middle" x="1666.63" y="-51.2" font-family="Times,serif" font-size="14.00">«include»</text>
</g>
<!-- pcbs&#45;&gt;jacks -->
<g id="edge11" class="edge">
<title>pcbs&#45;&gt;jacks</title>
<path fill="none" stroke="black" d="M1297.73,-83.83C1300.52,-83.33 1303.29,-82.88 1306,-82.5 1478.27,-58.31 1526.16,-97.31 1697,-64.5 1730.04,-58.15 1765.86,-45.63 1793,-34.9"/>
<polygon fill="black" stroke="black" points="1793.98,-37.88 1801.95,-30.9 1791.37,-31.38 1793.98,-37.88"/>
<text text-anchor="middle" x="1781.63" y="-51.2" font-family="Times,serif" font-size="14.00">«include»</text>
</g>
<!-- pin_headers -->
<g id="node13" class="node">
<title>pin_headers</title>
<polygon fill="white" stroke="black" stroke-width="2" points="825,-30 725,-30 725,0 825,0 825,-30"/>
<text text-anchor="middle" x="775" y="-9.95" font-family="Times,serif" font-size="14.00">pin_headers</text>
</g>
<!-- pcbs&#45;&gt;pin_headers -->
<g id="edge12" class="edge">
<title>pcbs&#45;&gt;pin_headers</title>
<path fill="none" stroke="black" d="M1196.07,-95.74C1129.14,-93.83 1008.3,-87.21 907.75,-64.5 877.14,-57.59 843.99,-45.48 818.47,-35.09"/>
<polygon fill="black" stroke="black" points="819.96,-31.5 809.38,-30.91 817.28,-37.97 819.96,-31.5"/>
<text text-anchor="middle" x="933.63" y="-51.2" font-family="Times,serif" font-size="14.00">«include»</text>
</g>
<!-- pcbs&#45;&gt;screw -->
<g id="edge13" class="edge">
<title>pcbs&#45;&gt;screw</title>
<path fill="none" stroke="black" d="M1196,-94.31C1112.54,-90.4 941.65,-81.04 797.75,-64.5 751.36,-59.17 740.21,-54.65 694,-48 630.55,-38.86 557.78,-29.62 507.56,-23.43"/>
<polygon fill="black" stroke="black" points="508.23,-19.87 497.88,-22.12 507.38,-26.81 508.23,-19.87"/>
<text text-anchor="middle" x="823.63" y="-51.2" font-family="Times,serif" font-size="14.00">«include»</text>
</g>
<!-- sd -->
<g id="node18" class="node">
<title>sd</title>
<polygon fill="white" stroke="black" stroke-width="2" points="943,-30 843,-30 843,0 943,0 943,-30"/>
<text text-anchor="middle" x="893" y="-9.95" font-family="Times,serif" font-size="14.00">sd</text>
</g>
<!-- pcbs&#45;&gt;sd -->
<g id="edge14" class="edge">
<title>pcbs&#45;&gt;sd</title>
<path fill="none" stroke="black" d="M1196.02,-93.21C1148.08,-89.26 1074.63,-80.98 1012.75,-64.5 985.68,-57.29 956.53,-45.58 933.76,-35.46"/>
<polygon fill="black" stroke="black" points="935.34,-31.88 924.78,-30.95 932.46,-38.26 935.34,-31.88"/>
<text text-anchor="middle" x="1038.63" y="-51.2" font-family="Times,serif" font-size="14.00">«include»</text>
</g>
<!-- switch -->
<g id="node20" class="node">
<title>switch</title>
<polygon fill="white" stroke="black" stroke-width="2" points="1061,-30 961,-30 961,0 1061,0 1061,-30"/>
<text text-anchor="middle" x="1011" y="-9.95" font-family="Times,serif" font-size="14.00">switch</text>
</g>
<!-- pcbs&#45;&gt;switch -->
<g id="edge15" class="edge">
<title>pcbs&#45;&gt;switch</title>
<path fill="none" stroke="black" d="M1196.01,-87.49C1169.82,-82.14 1137.63,-74.45 1109.75,-64.5 1088.2,-56.81 1065.19,-45.69 1046.81,-36.04"/>
<polygon fill="black" stroke="black" points="1048.58,-32.49 1038.11,-30.86 1045.28,-38.66 1048.58,-32.49"/>
<text text-anchor="middle" x="1135.63" y="-51.2" font-family="Times,serif" font-size="14.00">«include»</text>
</g>
<!-- trimpot -->
<g id="node22" class="node">
<title>trimpot</title>
<polygon fill="white" stroke="black" stroke-width="2" points="1179,-30 1079,-30 1079,0 1179,0 1179,-30"/>
<text text-anchor="middle" x="1129" y="-9.95" font-family="Times,serif" font-size="14.00">trimpot</text>
</g>
<!-- pcbs&#45;&gt;trimpot -->
<g id="edge16" class="edge">
<title>pcbs&#45;&gt;trimpot</title>
<path fill="none" stroke="black" d="M1218.2,-81.61C1208.93,-76.5 1198.73,-70.53 1189.75,-64.5 1177.67,-56.38 1164.99,-46.5 1154.36,-37.78"/>
<polygon fill="black" stroke="black" points="1156.89,-34.5 1146.97,-30.79 1152.41,-39.88 1156.89,-34.5"/>
<text text-anchor="middle" x="1215.63" y="-51.2" font-family="Times,serif" font-size="14.00">«include»</text>
</g>
<!-- usbs -->
<g id="node23" class="node">
<title>usbs</title>
<polygon fill="white" stroke="black" stroke-width="2" points="1297,-30 1197,-30 1197,0 1297,0 1297,-30"/>
<text text-anchor="middle" x="1247" y="-9.95" font-family="Times,serif" font-size="14.00">usbs</text>
</g>
<!-- pcbs&#45;&gt;usbs -->
<g id="edge17" class="edge">
<title>pcbs&#45;&gt;usbs</title>
<path fill="none" stroke="black" d="M1247,-81.74C1247,-70.57 1247,-54.96 1247,-41.76"/>
<polygon fill="black" stroke="black" points="1250.5,-41.94 1247,-31.94 1243.5,-41.94 1250.5,-41.94"/>
<text text-anchor="middle" x="1273.63" y="-51.2" font-family="Times,serif" font-size="14.00">«include»</text>
</g>
<!-- psus -->
<g id="node14" class="node">
<title>psus</title>
<polygon fill="white" stroke="black" stroke-width="2" points="336,-112.5 236,-112.5 236,-82.5 336,-82.5 336,-112.5"/>
<text text-anchor="middle" x="286" y="-92.45" font-family="Times,serif" font-size="14.00">psus</text>
</g>
<!-- psus&#45;&gt;screw -->
<g id="edge18" class="edge">
<title>psus&#45;&gt;screw</title>
<path fill="none" stroke="black" d="M301.97,-81.67C314.06,-71.09 331.48,-57.17 348.75,-48 360.03,-42.01 372.65,-36.86 384.96,-32.55"/>
<polygon fill="black" stroke="black" points="385.81,-35.62 394.19,-29.13 383.59,-28.99 385.81,-35.62"/>
<text text-anchor="middle" x="374.63" y="-51.2" font-family="Times,serif" font-size="14.00">«include»</text>
</g>
<!-- sata&#45;adapters -->
<g id="node15" class="node">
<title>sata&#45;adapters</title>
<polygon fill="white" stroke="black" stroke-width="2" points="100,-112.5 0,-112.5 0,-82.5 100,-82.5 100,-112.5"/>
<text text-anchor="middle" x="50" y="-92.45" font-family="Times,serif" font-size="14.00">sata&#45;adapters</text>
</g>
<!-- sata&#45;adapters&#45;&gt;sata -->
<g id="edge19" class="edge">
<title>sata&#45;adapters&#45;&gt;sata</title>
<path fill="none" stroke="black" d="M47.97,-81.76C47.26,-71.74 47.67,-58.47 52.75,-48 54.41,-44.57 56.63,-41.36 59.14,-38.38"/>
<polygon fill="black" stroke="black" points="61.25,-41.23 65.83,-31.67 56.29,-36.28 61.25,-41.23"/>
<text text-anchor="middle" x="79.63" y="-51.2" font-family="Times,serif" font-size="14.00">«include»</text>
</g>
<!-- spdts -->
<g id="node19" class="node">
<title>spdts</title>
<polygon fill="white" stroke="black" stroke-width="2" points="1533,-112.5 1433,-112.5 1433,-82.5 1533,-82.5 1533,-112.5"/>
<text text-anchor="middle" x="1483" y="-92.45" font-family="Times,serif" font-size="14.00">spdts</text>
</g>
<!-- template -->
<g id="node21" class="node">
<title>template</title>
<polygon fill="white" stroke="black" stroke-width="2" points="1651,-112.5 1551,-112.5 1551,-82.5 1651,-82.5 1651,-112.5"/>
<text text-anchor="middle" x="1601" y="-92.45" font-family="Times,serif" font-size="14.00">template</text>
</g>
</g>
</svg>
