<?xml version="1.0" encoding="UTF-8" standalone="no"?>
<!DOCTYPE svg PUBLIC "-//W3C//DTD SVG 1.1//EN"
 "http://www.w3.org/Graphics/SVG/1.1/DTD/svg11.dtd">
<!-- Generated by graphviz version 8.1.0 (20230707.0739)
 -->
<!-- Title: vitamins Pages: 1 -->
<svg width="1996pt" height="121pt"
 viewBox="0.00 0.00 1995.75 121.25" xmlns="http://www.w3.org/2000/svg" xmlns:xlink="http://www.w3.org/1999/xlink">
<g id="graph0" class="graph" transform="scale(1 1) rotate(0) translate(4 117.25)">
<title>vitamins</title>
<polygon fill="white" stroke="none" points="-4,4 -4,-117.25 1991.75,-117.25 1991.75,4 -4,4"/>
<!-- countersinks -->
<g id="node1" class="node">
<title>countersinks</title>
<polygon fill="white" stroke="black" stroke-width="2" points="760.5,-30 653,-30 653,0 760.5,0 760.5,-30"/>
<text text-anchor="middle" x="706.75" y="-10.33" font-family="Times,serif" font-size="14.00">countersinks</text>
</g>
<!-- ethers -->
<g id="node2" class="node">
<title>ethers</title>
<polygon fill="white" stroke="black" stroke-width="2" points="1515.75,-30 1415.75,-30 1415.75,0 1515.75,0 1515.75,-30"/>
<text text-anchor="middle" x="1465.75" y="-10.33" font-family="Times,serif" font-size="14.00">ethers</text>
</g>
<!-- fans -->
<g id="node3" class="node">
<title>fans</title>
<polygon fill="white" stroke="black" stroke-width="2" points="1515.75,-113.25 1415.75,-113.25 1415.75,-83.25 1515.75,-83.25 1515.75,-113.25"/>
<text text-anchor="middle" x="1465.75" y="-93.58" font-family="Times,serif" font-size="14.00">fans</text>
</g>
<!-- generic -->
<g id="node4" class="node">
<title>generic</title>
<polygon fill="white" stroke="black" stroke-width="2" points="1633.75,-30 1533.75,-30 1533.75,0 1633.75,0 1633.75,-30"/>
<text text-anchor="middle" x="1583.75" y="-10.33" font-family="Times,serif" font-size="14.00">generic</text>
</g>
<!-- hdmi -->
<g id="node5" class="node">
<title>hdmi</title>
<polygon fill="white" stroke="black" stroke-width="2" points="1751.75,-30 1651.75,-30 1651.75,0 1751.75,0 1751.75,-30"/>
<text text-anchor="middle" x="1701.75" y="-10.33" font-family="Times,serif" font-size="14.00">hdmi</text>
</g>
<!-- hds -->
<g id="node6" class="node">
<title>hds</title>
<polygon fill="white" stroke="black" stroke-width="2" points="246.75,-113.25 146.75,-113.25 146.75,-83.25 246.75,-83.25 246.75,-113.25"/>
<text text-anchor="middle" x="196.75" y="-93.58" font-family="Times,serif" font-size="14.00">hds</text>
</g>
<!-- sata -->
<g id="node16" class="node">
<title>sata</title>
<polygon fill="white" stroke="black" stroke-width="2" points="152.75,-30 52.75,-30 52.75,0 152.75,0 152.75,-30"/>
<text text-anchor="middle" x="102.75" y="-10.33" font-family="Times,serif" font-size="14.00">sata</text>
</g>
<!-- hds&#45;&gt;sata -->
<g id="edge1" class="edge">
<title>hds&#45;&gt;sata</title>
<path fill="none" stroke="black" d="M171.89,-82.37C164.12,-77.3 155.7,-71.37 148.5,-65.25 139.16,-57.32 129.78,-47.61 121.97,-38.91"/>
<polygon fill="black" stroke="black" points="123.97,-36.88 114.75,-31.66 118.7,-41.49 123.97,-36.88"/>
<text text-anchor="middle" x="182.88" y="-51.95" font-family="Times,serif" font-size="14.00">«include»</text>
</g>
<!-- screw -->
<g id="node17" class="node">
<title>screw</title>
<polygon fill="white" stroke="black" stroke-width="2" points="528.75,-30 428.75,-30 428.75,0 528.75,0 528.75,-30"/>
<text text-anchor="middle" x="478.75" y="-10.33" font-family="Times,serif" font-size="14.00">screw</text>
</g>
<!-- hds&#45;&gt;screw -->
<g id="edge2" class="edge">
<title>hds&#45;&gt;screw</title>
<path fill="none" stroke="black" d="M213.19,-82.26C226.56,-70.96 246.42,-56.07 266.5,-48 314.95,-28.52 373.95,-20.78 417.44,-17.76"/>
<polygon fill="black" stroke="black" points="417.38,-21.21 427.14,-17.09 416.95,-14.22 417.38,-21.21"/>
<text text-anchor="middle" x="299.88" y="-51.95" font-family="Times,serif" font-size="14.00">«include»</text>
</g>
<!-- heatsinks -->
<g id="node7" class="node">
<title>heatsinks</title>
<polygon fill="white" stroke="black" stroke-width="2" points="1869.75,-30 1769.75,-30 1769.75,0 1869.75,0 1869.75,-30"/>
<text text-anchor="middle" x="1819.75" y="-10.33" font-family="Times,serif" font-size="14.00">heatsinks</text>
</g>
<!-- iec -->
<g id="node8" class="node">
<title>iec</title>
<polygon fill="white" stroke="black" stroke-width="2" points="483.75,-113.25 383.75,-113.25 383.75,-83.25 483.75,-83.25 483.75,-113.25"/>
<text text-anchor="middle" x="433.75" y="-93.58" font-family="Times,serif" font-size="14.00">iec</text>
</g>
<!-- iec&#45;&gt;screw -->
<g id="edge3" class="edge">
<title>iec&#45;&gt;screw</title>
<path fill="none" stroke="black" d="M430.67,-82.62C429.27,-72.35 428.97,-58.62 434.5,-48 436.46,-44.23 439.1,-40.8 442.1,-37.7"/>
<polygon fill="black" stroke="black" points="443.92,-39.89 449.19,-30.7 439.34,-34.6 443.92,-39.89"/>
<text text-anchor="middle" x="467.88" y="-51.95" font-family="Times,serif" font-size="14.00">«include»</text>
</g>
<!-- jacks -->
<g id="node9" class="node">
<title>jacks</title>
<polygon fill="white" stroke="black" stroke-width="2" points="1987.75,-30 1887.75,-30 1887.75,0 1987.75,0 1987.75,-30"/>
<text text-anchor="middle" x="1937.75" y="-10.33" font-family="Times,serif" font-size="14.00">jacks</text>
</g>
<!-- knurl_nuts -->
<g id="node10" class="node">
<title>knurl_nuts</title>
<polygon fill="white" stroke="black" stroke-width="2" points="601.75,-113.25 501.75,-113.25 501.75,-83.25 601.75,-83.25 601.75,-113.25"/>
<text text-anchor="middle" x="551.75" y="-93.58" font-family="Times,serif" font-size="14.00">knurl_nuts</text>
</g>
<!-- knurl_nuts&#45;&gt;screw -->
<g id="edge4" class="edge">
<title>knurl_nuts&#45;&gt;screw</title>
<path fill="none" stroke="black" d="M538.36,-82.35C527.45,-70.21 511.87,-52.86 499.37,-38.95"/>
<polygon fill="black" stroke="black" points="502.34,-36.91 493.05,-31.81 497.13,-41.59 502.34,-36.91"/>
<text text-anchor="middle" x="555.88" y="-51.95" font-family="Times,serif" font-size="14.00">«include»</text>
</g>
<!-- magnets -->
<g id="node11" class="node">
<title>magnets</title>
<polygon fill="white" stroke="black" stroke-width="2" points="738.75,-113.25 638.75,-113.25 638.75,-83.25 738.75,-83.25 738.75,-113.25"/>
<text text-anchor="middle" x="688.75" y="-93.58" font-family="Times,serif" font-size="14.00">magnets</text>
</g>
<!-- magnets&#45;&gt;countersinks -->
<g id="edge5" class="edge">
<title>magnets&#45;&gt;countersinks</title>
<path fill="none" stroke="black" d="M692.05,-82.35C694.59,-70.89 698.15,-54.81 701.14,-41.34"/>
<polygon fill="black" stroke="black" points="704.72,-42.33 703.47,-31.81 697.89,-40.81 704.72,-42.33"/>
<text text-anchor="middle" x="732.88" y="-51.95" font-family="Times,serif" font-size="14.00">«include»</text>
</g>
<!-- magnets&#45;&gt;screw -->
<g id="edge6" class="edge">
<title>magnets&#45;&gt;screw</title>
<path fill="none" stroke="black" d="M657.33,-82.39C646.52,-77.13 634.41,-71.08 623.5,-65.25 610.02,-58.05 607.84,-53.93 593.75,-48 576.67,-40.81 557.48,-34.74 539.75,-29.88"/>
<polygon fill="black" stroke="black" points="541.07,-26.34 530.5,-27.16 539.27,-33.11 541.07,-26.34"/>
<text text-anchor="middle" x="656.88" y="-51.95" font-family="Times,serif" font-size="14.00">«include»</text>
</g>
<!-- pcbs -->
<g id="node12" class="node">
<title>pcbs</title>
<polygon fill="white" stroke="black" stroke-width="2" points="1397.75,-113.25 1297.75,-113.25 1297.75,-83.25 1397.75,-83.25 1397.75,-113.25"/>
<text text-anchor="middle" x="1347.75" y="-93.58" font-family="Times,serif" font-size="14.00">pcbs</text>
</g>
<!-- pcbs&#45;&gt;ethers -->
<g id="edge7" class="edge">
<title>pcbs&#45;&gt;ethers</title>
<path fill="none" stroke="black" d="M1388.91,-82.35C1399.42,-77.65 1410.39,-71.92 1419.75,-65.25 1430.01,-57.95 1439.77,-48.08 1447.64,-39.1"/>
<polygon fill="black" stroke="black" points="1450.8,-41.77 1454.56,-31.87 1445.44,-37.27 1450.8,-41.77"/>
<text text-anchor="middle" x="1472.88" y="-51.95" font-family="Times,serif" font-size="14.00">«include»</text>
</g>
<!-- pcbs&#45;&gt;generic -->
<g id="edge8" class="edge">
<title>pcbs&#45;&gt;generic</title>
<path fill="none" stroke="black" d="M1398.55,-84.98C1401.32,-84.38 1404.07,-83.8 1406.75,-83.25 1452.7,-73.83 1467.23,-82.76 1510.75,-65.25 1527.58,-58.48 1544.48,-47.41 1557.78,-37.48"/>
<polygon fill="black" stroke="black" points="1559.59,-39.73 1565.37,-30.85 1555.31,-34.19 1559.59,-39.73"/>
<text text-anchor="middle" x="1575.88" y="-51.95" font-family="Times,serif" font-size="14.00">«include»</text>
</g>
<!-- pcbs&#45;&gt;hdmi -->
<g id="edge9" class="edge">
<title>pcbs&#45;&gt;hdmi</title>
<path fill="none" stroke="black" d="M1398.5,-84.71C1401.29,-84.18 1404.05,-83.69 1406.75,-83.25 1497.92,-68.55 1525.49,-92.41 1613.75,-65.25 1634.45,-58.88 1655.7,-47.16 1672.13,-36.76"/>
<polygon fill="black" stroke="black" points="1673.74,-39.23 1680.2,-30.83 1669.92,-33.37 1673.74,-39.23"/>
<text text-anchor="middle" x="1684.88" y="-51.95" font-family="Times,serif" font-size="14.00">«include»</text>
</g>
<!-- pcbs&#45;&gt;heatsinks -->
<g id="edge10" class="edge">
<title>pcbs&#45;&gt;heatsinks</title>
<path fill="none" stroke="black" d="M1398.49,-84.61C1401.27,-84.1 1404.04,-83.65 1406.75,-83.25 1545.95,-62.93 1586.93,-101.87 1722.75,-65.25 1745.78,-59.04 1769.7,-46.97 1788.02,-36.33"/>
<polygon fill="black" stroke="black" points="1789.53,-38.91 1796.32,-30.78 1785.94,-32.9 1789.53,-38.91"/>
<text text-anchor="middle" x="1797.88" y="-51.95" font-family="Times,serif" font-size="14.00">«include»</text>
</g>
<!-- pcbs&#45;&gt;jacks -->
<g id="edge11" class="edge">
<title>pcbs&#45;&gt;jacks</title>
<path fill="none" stroke="black" d="M1398.48,-84.56C1401.27,-84.07 1404.04,-83.63 1406.75,-83.25 1501.27,-70.18 1743.2,-88.48 1835.75,-65.25 1859.95,-59.18 1885.22,-47.03 1904.55,-36.31"/>
<polygon fill="black" stroke="black" points="1906.13,-38.87 1913.08,-30.88 1902.66,-32.79 1906.13,-38.87"/>
<text text-anchor="middle" x="1912.88" y="-51.95" font-family="Times,serif" font-size="14.00">«include»</text>
</g>
<!-- pin_headers -->
<g id="node13" class="node">
<title>pin_headers</title>
<polygon fill="white" stroke="black" stroke-width="2" points="925.88,-30 823.62,-30 823.62,0 925.88,0 925.88,-30"/>
<text text-anchor="middle" x="874.75" y="-10.33" font-family="Times,serif" font-size="14.00">pin_headers</text>
</g>
<!-- pcbs&#45;&gt;pin_headers -->
<g id="edge12" class="edge">
<title>pcbs&#45;&gt;pin_headers</title>
<path fill="none" stroke="black" d="M1296.93,-95.42C1208.39,-91.83 1029.56,-82.64 969.5,-65.25 947.26,-58.81 924.17,-46.93 906.36,-36.46"/>
<polygon fill="black" stroke="black" points="908.41,-33 898.04,-30.83 904.79,-38.99 908.41,-33"/>
<text text-anchor="middle" x="1002.88" y="-51.95" font-family="Times,serif" font-size="14.00">«include»</text>
</g>
<!-- pcbs&#45;&gt;screw -->
<g id="edge13" class="edge">
<title>pcbs&#45;&gt;screw</title>
<path fill="none" stroke="black" d="M1296.97,-96.17C1207.57,-93.78 1016.42,-86.45 856.5,-65.25 817.96,-60.14 809.17,-53.96 770.75,-48 691.52,-35.71 599.48,-26.45 540.24,-21.13"/>
<polygon fill="black" stroke="black" points="540.84,-17.58 530.57,-20.18 540.22,-24.55 540.84,-17.58"/>
<text text-anchor="middle" x="889.88" y="-51.95" font-family="Times,serif" font-size="14.00">«include»</text>
</g>
<!-- sd -->
<g id="node18" class="node">
<title>sd</title>
<polygon fill="white" stroke="black" stroke-width="2" points="1043.75,-30 943.75,-30 943.75,0 1043.75,0 1043.75,-30"/>
<text text-anchor="middle" x="993.75" y="-10.33" font-family="Times,serif" font-size="14.00">sd</text>
</g>
<!-- pcbs&#45;&gt;sd -->
<g id="edge14" class="edge">
<title>pcbs&#45;&gt;sd</title>
<path fill="none" stroke="black" d="M1296.75,-97.19C1241.79,-95.76 1152.4,-89.41 1079.5,-65.25 1059.47,-58.61 1038.92,-47 1022.95,-36.72"/>
<polygon fill="black" stroke="black" points="1025.39,-33.47 1015.12,-30.86 1021.52,-39.31 1025.39,-33.47"/>
<text text-anchor="middle" x="1112.88" y="-51.95" font-family="Times,serif" font-size="14.00">«include»</text>
</g>
<!-- switch -->
<g id="node20" class="node">
<title>switch</title>
<polygon fill="white" stroke="black" stroke-width="2" points="1161.75,-30 1061.75,-30 1061.75,0 1161.75,0 1161.75,-30"/>
<text text-anchor="middle" x="1111.75" y="-10.33" font-family="Times,serif" font-size="14.00">switch</text>
</g>
<!-- pcbs&#45;&gt;switch -->
<g id="edge15" class="edge">
<title>pcbs&#45;&gt;switch</title>
<path fill="none" stroke="black" d="M1296.97,-92.77C1263.69,-88.54 1219.8,-80.47 1183.5,-65.25 1167.08,-58.37 1150.58,-47.39 1137.55,-37.54"/>
<polygon fill="black" stroke="black" points="1140.16,-34.36 1130.12,-30.97 1135.86,-39.88 1140.16,-34.36"/>
<text text-anchor="middle" x="1216.88" y="-51.95" font-family="Times,serif" font-size="14.00">«include»</text>
</g>
<!-- trimpot -->
<g id="node22" class="node">
<title>trimpot</title>
<polygon fill="white" stroke="black" stroke-width="2" points="1279.75,-30 1179.75,-30 1179.75,0 1279.75,0 1279.75,-30"/>
<text text-anchor="middle" x="1229.75" y="-10.33" font-family="Times,serif" font-size="14.00">trimpot</text>
</g>
<!-- pcbs&#45;&gt;trimpot -->
<g id="edge16" class="edge">
<title>pcbs&#45;&gt;trimpot</title>
<path fill="none" stroke="black" d="M1306.44,-82.39C1295.89,-77.69 1284.88,-71.94 1275.5,-65.25 1265.28,-57.96 1255.56,-48.09 1247.74,-39.11"/>
<polygon fill="black" stroke="black" points="1249.96,-37.31 1240.86,-31.88 1244.59,-41.79 1249.96,-37.31"/>
<text text-anchor="middle" x="1308.88" y="-51.95" font-family="Times,serif" font-size="14.00">«include»</text>
</g>
<!-- usbs -->
<g id="node23" class="node">
<title>usbs</title>
<polygon fill="white" stroke="black" stroke-width="2" points="1397.75,-30 1297.75,-30 1297.75,0 1397.75,0 1397.75,-30"/>
<text text-anchor="middle" x="1347.75" y="-10.33" font-family="Times,serif" font-size="14.00">usbs</text>
</g>
<!-- pcbs&#45;&gt;usbs -->
<g id="edge17" class="edge">
<title>pcbs&#45;&gt;usbs</title>
<path fill="none" stroke="black" d="M1347.75,-82.35C1347.75,-71.01 1347.75,-55.13 1347.75,-41.75"/>
<polygon fill="black" stroke="black" points="1351.25,-41.81 1347.75,-31.81 1344.25,-41.81 1351.25,-41.81"/>
<text text-anchor="middle" x="1381.88" y="-51.95" font-family="Times,serif" font-size="14.00">«include»</text>
</g>
<!-- psus -->
<g id="node14" class="node">
<title>psus</title>
<polygon fill="white" stroke="black" stroke-width="2" points="365.75,-113.25 265.75,-113.25 265.75,-83.25 365.75,-83.25 365.75,-113.25"/>
<text text-anchor="middle" x="315.75" y="-93.58" font-family="Times,serif" font-size="14.00">psus</text>
</g>
<!-- psus&#45;&gt;screw -->
<g id="edge18" class="edge">
<title>psus&#45;&gt;screw</title>
<path fill="none" stroke="black" d="M324.58,-82.62C332.03,-71.52 343.66,-56.73 357.5,-48 375.37,-36.73 397.12,-29.4 417.24,-24.65"/>
<polygon fill="black" stroke="black" points="417.87,-27.88 426.89,-22.33 416.38,-21.04 417.87,-27.88"/>
<text text-anchor="middle" x="390.88" y="-51.95" font-family="Times,serif" font-size="14.00">«include»</text>
</g>
<!-- sata&#45;adapters -->
<g id="node15" class="node">
<title>sata&#45;adapters</title>
<polygon fill="white" stroke="black" stroke-width="2" points="113.5,-113.25 0,-113.25 0,-83.25 113.5,-83.25 113.5,-113.25"/>
<text text-anchor="middle" x="56.75" y="-93.58" font-family="Times,serif" font-size="14.00">sata&#45;adapters</text>
</g>
<!-- sata&#45;adapters&#45;&gt;sata -->
<g id="edge19" class="edge">
<title>sata&#45;adapters&#45;&gt;sata</title>
<path fill="none" stroke="black" d="M53.63,-82.6C52.22,-72.33 51.92,-58.59 57.5,-48 59.41,-44.38 61.93,-41.08 64.81,-38.1"/>
<polygon fill="black" stroke="black" points="66.82,-40.12 72.09,-30.92 62.24,-34.83 66.82,-40.12"/>
<text text-anchor="middle" x="91.88" y="-51.95" font-family="Times,serif" font-size="14.00">«include»</text>
</g>
<!-- spdts -->
<g id="node19" class="node">
<title>spdts</title>
<polygon fill="white" stroke="black" stroke-width="2" points="1633.75,-113.25 1533.75,-113.25 1533.75,-83.25 1633.75,-83.25 1633.75,-113.25"/>
<text text-anchor="middle" x="1583.75" y="-93.58" font-family="Times,serif" font-size="14.00">spdts</text>
</g>
<!-- template -->
<g id="node21" class="node">
<title>template</title>
<polygon fill="white" stroke="black" stroke-width="2" points="1751.75,-113.25 1651.75,-113.25 1651.75,-83.25 1751.75,-83.25 1751.75,-113.25"/>
<text text-anchor="middle" x="1701.75" y="-93.58" font-family="Times,serif" font-size="14.00">template</text>
</g>
</g>
</svg>
