<?xml version="1.0" encoding="UTF-8" standalone="no"?>
<!DOCTYPE svg PUBLIC "-//W3C//DTD SVG 1.1//EN"
 "http://www.w3.org/Graphics/SVG/1.1/DTD/svg11.dtd">
<!-- Generated by graphviz version 2.43.0 (0)
 -->
<!-- Title: vitamins Pages: 1 -->
<svg width="2006pt" height="119pt"
 viewBox="0.00 0.00 2006.00 119.00" xmlns="http://www.w3.org/2000/svg" xmlns:xlink="http://www.w3.org/1999/xlink">
<g id="graph0" class="graph" transform="scale(1 1) rotate(0) translate(4 115)">
<title>vitamins</title>
<polygon fill="white" stroke="transparent" points="-4,4 -4,-115 2002,-115 2002,4 -4,4"/>
<!-- countersinks -->
<g id="node1" class="node">
<title>countersinks</title>
<polygon fill="white" stroke="black" stroke-width="2" points="768,-30 660,-30 660,0 768,0 768,-30"/>
<text text-anchor="middle" x="714" y="-11.3" font-family="Times,serif" font-size="14.00">countersinks</text>
</g>
<!-- ethers -->
<g id="node2" class="node">
<title>ethers</title>
<polygon fill="white" stroke="black" stroke-width="2" points="1526,-30 1426,-30 1426,0 1526,0 1526,-30"/>
<text text-anchor="middle" x="1476" y="-11.3" font-family="Times,serif" font-size="14.00">ethers</text>
</g>
<!-- fans -->
<g id="node3" class="node">
<title>fans</title>
<polygon fill="white" stroke="black" stroke-width="2" points="1526,-111 1426,-111 1426,-81 1526,-81 1526,-111"/>
<text text-anchor="middle" x="1476" y="-92.3" font-family="Times,serif" font-size="14.00">fans</text>
</g>
<!-- generic -->
<g id="node4" class="node">
<title>generic</title>
<polygon fill="white" stroke="black" stroke-width="2" points="1644,-30 1544,-30 1544,0 1644,0 1644,-30"/>
<text text-anchor="middle" x="1594" y="-11.3" font-family="Times,serif" font-size="14.00">generic</text>
</g>
<!-- hdmi -->
<g id="node5" class="node">
<title>hdmi</title>
<polygon fill="white" stroke="black" stroke-width="2" points="1762,-30 1662,-30 1662,0 1762,0 1762,-30"/>
<text text-anchor="middle" x="1712" y="-11.3" font-family="Times,serif" font-size="14.00">hdmi</text>
</g>
<!-- hds -->
<g id="node6" class="node">
<title>hds</title>
<polygon fill="white" stroke="black" stroke-width="2" points="249,-111 149,-111 149,-81 249,-81 249,-111"/>
<text text-anchor="middle" x="199" y="-92.3" font-family="Times,serif" font-size="14.00">hds</text>
</g>
<!-- sata -->
<g id="node16" class="node">
<title>sata</title>
<polygon fill="white" stroke="black" stroke-width="2" points="153,-30 53,-30 53,0 153,0 153,-30"/>
<text text-anchor="middle" x="103" y="-11.3" font-family="Times,serif" font-size="14.00">sata</text>
</g>
<!-- hds&#45;&gt;sata -->
<g id="edge1" class="edge">
<title>hds&#45;&gt;sata</title>
<path fill="none" stroke="black" d="M175.38,-80.97C167.09,-75.69 157.89,-69.4 150,-63 140.53,-55.31 130.88,-45.97 122.8,-37.64"/>
<polygon fill="black" stroke="black" points="125.3,-35.19 115.87,-30.35 120.22,-40.01 125.3,-35.19"/>
<text text-anchor="middle" x="184.5" y="-51.8" font-family="Times,serif" font-size="14.00">«include»</text>
</g>
<!-- screw -->
<g id="node17" class="node">
<title>screw</title>
<polygon fill="white" stroke="black" stroke-width="2" points="534,-30 434,-30 434,0 534,0 534,-30"/>
<text text-anchor="middle" x="484" y="-11.3" font-family="Times,serif" font-size="14.00">screw</text>
</g>
<!-- hds&#45;&gt;screw -->
<g id="edge2" class="edge">
<title>hds&#45;&gt;screw</title>
<path fill="none" stroke="black" d="M215.89,-80.94C229.8,-70.14 250.49,-55.81 271,-48 320.34,-29.22 380.04,-21.42 423.67,-18.2"/>
<polygon fill="black" stroke="black" points="424.1,-21.68 433.84,-17.51 423.62,-14.7 424.1,-21.68"/>
<text text-anchor="middle" x="305.5" y="-51.8" font-family="Times,serif" font-size="14.00">«include»</text>
</g>
<!-- heatsinks -->
<g id="node7" class="node">
<title>heatsinks</title>
<polygon fill="white" stroke="black" stroke-width="2" points="1880,-30 1780,-30 1780,0 1880,0 1880,-30"/>
<text text-anchor="middle" x="1830" y="-11.3" font-family="Times,serif" font-size="14.00">heatsinks</text>
</g>
<!-- iec -->
<g id="node8" class="node">
<title>iec</title>
<polygon fill="white" stroke="black" stroke-width="2" points="488,-111 388,-111 388,-81 488,-81 488,-111"/>
<text text-anchor="middle" x="438" y="-92.3" font-family="Times,serif" font-size="14.00">iec</text>
</g>
<!-- iec&#45;&gt;screw -->
<g id="edge3" class="edge">
<title>iec&#45;&gt;screw</title>
<path fill="none" stroke="black" d="M435.08,-80.59C433.85,-70.83 433.73,-57.95 439,-48 441.18,-43.89 444.15,-40.18 447.53,-36.88"/>
<polygon fill="black" stroke="black" points="450.01,-39.37 455.46,-30.29 445.53,-33.99 450.01,-39.37"/>
<text text-anchor="middle" x="473.5" y="-51.8" font-family="Times,serif" font-size="14.00">«include»</text>
</g>
<!-- jacks -->
<g id="node9" class="node">
<title>jacks</title>
<polygon fill="white" stroke="black" stroke-width="2" points="1998,-30 1898,-30 1898,0 1998,0 1998,-30"/>
<text text-anchor="middle" x="1948" y="-11.3" font-family="Times,serif" font-size="14.00">jacks</text>
</g>
<!-- knurl_nuts -->
<g id="node10" class="node">
<title>knurl_nuts</title>
<polygon fill="white" stroke="black" stroke-width="2" points="606,-111 506,-111 506,-81 606,-81 606,-111"/>
<text text-anchor="middle" x="556" y="-92.3" font-family="Times,serif" font-size="14.00">knurl_nuts</text>
</g>
<!-- knurl_nuts&#45;&gt;screw -->
<g id="edge4" class="edge">
<title>knurl_nuts&#45;&gt;screw</title>
<path fill="none" stroke="black" d="M543.13,-80.88C532.17,-68.86 516.26,-51.4 503.7,-37.62"/>
<polygon fill="black" stroke="black" points="506.08,-35.03 496.76,-30 500.91,-39.75 506.08,-35.03"/>
<text text-anchor="middle" x="560.5" y="-51.8" font-family="Times,serif" font-size="14.00">«include»</text>
</g>
<!-- magnets -->
<g id="node11" class="node">
<title>magnets</title>
<polygon fill="white" stroke="black" stroke-width="2" points="744,-111 644,-111 644,-81 744,-81 744,-111"/>
<text text-anchor="middle" x="694" y="-92.3" font-family="Times,serif" font-size="14.00">magnets</text>
</g>
<!-- magnets&#45;&gt;countersinks -->
<g id="edge5" class="edge">
<title>magnets&#45;&gt;countersinks</title>
<path fill="none" stroke="black" d="M697.58,-80.88C700.45,-69.53 704.55,-53.34 707.93,-39.97"/>
<polygon fill="black" stroke="black" points="711.39,-40.55 710.46,-30 704.61,-38.84 711.39,-40.55"/>
<text text-anchor="middle" x="739.5" y="-51.8" font-family="Times,serif" font-size="14.00">«include»</text>
</g>
<!-- magnets&#45;&gt;screw -->
<g id="edge6" class="edge">
<title>magnets&#45;&gt;screw</title>
<path fill="none" stroke="black" d="M665.18,-80.86C653.89,-75.31 640.83,-68.87 629,-63 615.65,-56.37 612.91,-53.36 599,-48 581.46,-41.25 561.91,-35.26 543.98,-30.35"/>
<polygon fill="black" stroke="black" points="544.77,-26.94 534.21,-27.73 542.96,-33.7 544.77,-26.94"/>
<text text-anchor="middle" x="663.5" y="-51.8" font-family="Times,serif" font-size="14.00">«include»</text>
</g>
<!-- pcbs -->
<g id="node12" class="node">
<title>pcbs</title>
<polygon fill="white" stroke="black" stroke-width="2" points="1408,-111 1308,-111 1308,-81 1408,-81 1408,-111"/>
<text text-anchor="middle" x="1358" y="-92.3" font-family="Times,serif" font-size="14.00">pcbs</text>
</g>
<!-- pcbs&#45;&gt;ethers -->
<g id="edge7" class="edge">
<title>pcbs&#45;&gt;ethers</title>
<path fill="none" stroke="black" d="M1397.78,-80.92C1409.01,-76.07 1420.91,-70.06 1431,-63 1441.07,-55.96 1450.7,-46.43 1458.45,-37.78"/>
<polygon fill="black" stroke="black" points="1461.12,-40.05 1465,-30.19 1455.82,-35.48 1461.12,-40.05"/>
<text text-anchor="middle" x="1482.5" y="-51.8" font-family="Times,serif" font-size="14.00">«include»</text>
</g>
<!-- pcbs&#45;&gt;generic -->
<g id="edge8" class="edge">
<title>pcbs&#45;&gt;generic</title>
<path fill="none" stroke="black" d="M1408.17,-82.87C1411.15,-82.22 1414.11,-81.59 1417,-81 1462.95,-71.58 1477.29,-80.04 1521,-63 1537.82,-56.44 1554.88,-45.73 1568.27,-36.19"/>
<polygon fill="black" stroke="black" points="1570.52,-38.89 1576.51,-30.15 1566.37,-33.25 1570.52,-38.89"/>
<text text-anchor="middle" x="1582.5" y="-51.8" font-family="Times,serif" font-size="14.00">«include»</text>
</g>
<!-- pcbs&#45;&gt;hdmi -->
<g id="edge9" class="edge">
<title>pcbs&#45;&gt;hdmi</title>
<path fill="none" stroke="black" d="M1408.11,-82.59C1411.11,-82.01 1414.09,-81.47 1417,-81 1506.85,-66.45 1533.59,-88.36 1621,-63 1642.33,-56.81 1664.5,-45.48 1681.62,-35.49"/>
<polygon fill="black" stroke="black" points="1683.8,-38.27 1690.57,-30.12 1680.2,-32.26 1683.8,-38.27"/>
<text text-anchor="middle" x="1691.5" y="-51.8" font-family="Times,serif" font-size="14.00">«include»</text>
</g>
<!-- pcbs&#45;&gt;heatsinks -->
<g id="edge10" class="edge">
<title>pcbs&#45;&gt;heatsinks</title>
<path fill="none" stroke="black" d="M1408.1,-82.48C1411.1,-81.93 1414.08,-81.43 1417,-81 1554.87,-60.84 1594.94,-97.26 1730,-63 1753.81,-56.96 1778.82,-45.2 1797.87,-34.96"/>
<polygon fill="black" stroke="black" points="1799.65,-37.98 1806.71,-30.09 1796.27,-31.85 1799.65,-37.98"/>
<text text-anchor="middle" x="1803.5" y="-51.8" font-family="Times,serif" font-size="14.00">«include»</text>
</g>
<!-- pcbs&#45;&gt;jacks -->
<g id="edge11" class="edge">
<title>pcbs&#45;&gt;jacks</title>
<path fill="none" stroke="black" d="M1408.09,-82.43C1411.09,-81.89 1414.08,-81.4 1417,-81 1510.63,-68.03 1749.96,-84.54 1842,-63 1867.21,-57.1 1893.85,-45.26 1914.11,-34.95"/>
<polygon fill="black" stroke="black" points="1915.99,-37.92 1923.23,-30.19 1912.75,-31.71 1915.99,-37.92"/>
<text text-anchor="middle" x="1918.5" y="-51.8" font-family="Times,serif" font-size="14.00">«include»</text>
</g>
<!-- pin_headers -->
<g id="node13" class="node">
<title>pin_headers</title>
<polygon fill="white" stroke="black" stroke-width="2" points="935.5,-30 832.5,-30 832.5,0 935.5,0 935.5,-30"/>
<text text-anchor="middle" x="884" y="-11.3" font-family="Times,serif" font-size="14.00">pin_headers</text>
</g>
<!-- pcbs&#45;&gt;pin_headers -->
<g id="edge12" class="edge">
<title>pcbs&#45;&gt;pin_headers</title>
<path fill="none" stroke="black" d="M1307.82,-92.9C1220.38,-88.88 1043.71,-79.04 984,-63 960.44,-56.67 935.6,-45.03 916.58,-34.92"/>
<polygon fill="black" stroke="black" points="918.19,-31.81 907.74,-30.11 914.85,-37.96 918.19,-31.81"/>
<text text-anchor="middle" x="1018.5" y="-51.8" font-family="Times,serif" font-size="14.00">«include»</text>
</g>
<!-- pcbs&#45;&gt;screw -->
<g id="edge13" class="edge">
<title>pcbs&#45;&gt;screw</title>
<path fill="none" stroke="black" d="M1307.73,-93.26C1219.23,-89.85 1029.91,-81 871,-63 829.4,-58.29 819.49,-53.6 778,-48 697.19,-37.09 603.5,-27.4 544.01,-21.62"/>
<polygon fill="black" stroke="black" points="544.32,-18.13 534.03,-20.65 543.65,-25.1 544.32,-18.13"/>
<text text-anchor="middle" x="905.5" y="-51.8" font-family="Times,serif" font-size="14.00">«include»</text>
</g>
<!-- sd -->
<g id="node18" class="node">
<title>sd</title>
<polygon fill="white" stroke="black" stroke-width="2" points="1054,-30 954,-30 954,0 1054,0 1054,-30"/>
<text text-anchor="middle" x="1004" y="-11.3" font-family="Times,serif" font-size="14.00">sd</text>
</g>
<!-- pcbs&#45;&gt;sd -->
<g id="edge14" class="edge">
<title>pcbs&#45;&gt;sd</title>
<path fill="none" stroke="black" d="M1307.53,-94.34C1253.35,-92.39 1165.32,-85.61 1093,-63 1072.31,-56.53 1050.78,-45.3 1034.08,-35.44"/>
<polygon fill="black" stroke="black" points="1035.7,-32.33 1025.33,-30.14 1032.07,-38.31 1035.7,-32.33"/>
<text text-anchor="middle" x="1127.5" y="-51.8" font-family="Times,serif" font-size="14.00">«include»</text>
</g>
<!-- switch -->
<g id="node20" class="node">
<title>switch</title>
<polygon fill="white" stroke="black" stroke-width="2" points="1172,-30 1072,-30 1072,0 1172,0 1172,-30"/>
<text text-anchor="middle" x="1122" y="-11.3" font-family="Times,serif" font-size="14.00">switch</text>
</g>
<!-- pcbs&#45;&gt;switch -->
<g id="edge15" class="edge">
<title>pcbs&#45;&gt;switch</title>
<path fill="none" stroke="black" d="M1307.78,-90.28C1274.56,-85.94 1230.56,-77.84 1194,-63 1177.43,-56.28 1160.61,-45.56 1147.39,-36.05"/>
<polygon fill="black" stroke="black" points="1149.39,-33.18 1139.27,-30.04 1145.22,-38.8 1149.39,-33.18"/>
<text text-anchor="middle" x="1228.5" y="-51.8" font-family="Times,serif" font-size="14.00">«include»</text>
</g>
<!-- trimpot -->
<g id="node22" class="node">
<title>trimpot</title>
<polygon fill="white" stroke="black" stroke-width="2" points="1290,-30 1190,-30 1190,0 1290,0 1290,-30"/>
<text text-anchor="middle" x="1240" y="-11.3" font-family="Times,serif" font-size="14.00">trimpot</text>
</g>
<!-- pcbs&#45;&gt;trimpot -->
<g id="edge16" class="edge">
<title>pcbs&#45;&gt;trimpot</title>
<path fill="none" stroke="black" d="M1318.22,-80.92C1306.99,-76.07 1295.09,-70.06 1285,-63 1274.93,-55.96 1265.3,-46.43 1257.55,-37.78"/>
<polygon fill="black" stroke="black" points="1260.18,-35.48 1251,-30.19 1254.88,-40.05 1260.18,-35.48"/>
<text text-anchor="middle" x="1319.5" y="-51.8" font-family="Times,serif" font-size="14.00">«include»</text>
</g>
<!-- usbs -->
<g id="node23" class="node">
<title>usbs</title>
<polygon fill="white" stroke="black" stroke-width="2" points="1408,-30 1308,-30 1308,0 1408,0 1408,-30"/>
<text text-anchor="middle" x="1358" y="-11.3" font-family="Times,serif" font-size="14.00">usbs</text>
</g>
<!-- pcbs&#45;&gt;usbs -->
<g id="edge17" class="edge">
<title>pcbs&#45;&gt;usbs</title>
<path fill="none" stroke="black" d="M1358,-80.88C1358,-69.64 1358,-53.66 1358,-40.37"/>
<polygon fill="black" stroke="black" points="1361.5,-40 1358,-30 1354.5,-40 1361.5,-40"/>
<text text-anchor="middle" x="1392.5" y="-51.8" font-family="Times,serif" font-size="14.00">«include»</text>
</g>
<!-- psus -->
<g id="node14" class="node">
<title>psus</title>
<polygon fill="white" stroke="black" stroke-width="2" points="370,-111 270,-111 270,-81 370,-81 370,-111"/>
<text text-anchor="middle" x="320" y="-92.3" font-family="Times,serif" font-size="14.00">psus</text>
</g>
<!-- psus&#45;&gt;screw -->
<g id="edge18" class="edge">
<title>psus&#45;&gt;screw</title>
<path fill="none" stroke="black" d="M329.06,-80.59C336.42,-70.05 347.74,-56.2 361,-48 379.87,-36.33 402.9,-28.88 423.91,-24.15"/>
<polygon fill="black" stroke="black" points="424.64,-27.58 433.71,-22.1 423.2,-20.72 424.64,-27.58"/>
<text text-anchor="middle" x="395.5" y="-51.8" font-family="Times,serif" font-size="14.00">«include»</text>
</g>
<!-- sata&#45;adapters -->
<g id="node15" class="node">
<title>sata&#45;adapters</title>
<polygon fill="white" stroke="black" stroke-width="2" points="114,-111 0,-111 0,-81 114,-81 114,-111"/>
<text text-anchor="middle" x="57" y="-92.3" font-family="Times,serif" font-size="14.00">sata&#45;adapters</text>
</g>
<!-- sata&#45;adapters&#45;&gt;sata -->
<g id="edge19" class="edge">
<title>sata&#45;adapters&#45;&gt;sata</title>
<path fill="none" stroke="black" d="M54.08,-80.59C52.85,-70.83 52.73,-57.95 58,-48 60.18,-43.89 63.15,-40.18 66.53,-36.88"/>
<polygon fill="black" stroke="black" points="69.01,-39.37 74.46,-30.29 64.53,-33.99 69.01,-39.37"/>
<text text-anchor="middle" x="92.5" y="-51.8" font-family="Times,serif" font-size="14.00">«include»</text>
</g>
<!-- spdts -->
<g id="node19" class="node">
<title>spdts</title>
<polygon fill="white" stroke="black" stroke-width="2" points="1644,-111 1544,-111 1544,-81 1644,-81 1644,-111"/>
<text text-anchor="middle" x="1594" y="-92.3" font-family="Times,serif" font-size="14.00">spdts</text>
</g>
<!-- template -->
<g id="node21" class="node">
<title>template</title>
<polygon fill="white" stroke="black" stroke-width="2" points="1762,-111 1662,-111 1662,-81 1762,-81 1762,-111"/>
<text text-anchor="middle" x="1712" y="-92.3" font-family="Times,serif" font-size="14.00">template</text>
</g>
</g>
</svg>
