999
dxflib 3.26.4.0
  0
SECTION
  2
HEADER
  9
$ACADVER
  1
AC1015
  9
$HANDSEED
  5
FFFF
  9
$DIMADEC
 70
0
  9
$DIMASZ
 40
0.5
  9
$DIMATFIT
 70
0
  9
$DIMAUNIT
 70
0
  9
$DIMAZIN
 70
2
  9
$DIMBLK
  1
0
  9
$DIMBLK1
  1
0
  9
$DIMBLK2
  1
0
  9
$DIMDEC
 70
4
  9
$DIMDLI
 40
1.0
  9
$DIMDSEP
 70
46
  9
$DIMEXE
 40
0.25
  9
$DIMEXO
 40
0.125
  9
$DIMGAP
 40
0.125
  9
$DIMLFAC
 40
1.0
  9
$DIMLUNIT
 70
2
  9
$DIMSCALE
 40
1.0
  9
$DIMTAD
 70
1
  9
$DIMTIH
 70
0
  9
$DIMTSZ
 40
0.0
  9
$DIMTXT
 40
0.5
  9
$DIMZIN
 70
8
  9
$DWGCODEPAGE
  3
ANSI_1252
  9
$INSUNITS
 70
4
  9
$LTSCALE
 40
1.0
  9
$MAXACTVP
 70
64
  9
$MEASUREMENT
 70
1
  9
$MIRRTEXT
 70
0
  9
$PDMODE
 70
0
  9
$PDSIZE
 40
0.0
  0
ENDSEC
  0
SECTION
  2
TABLES
  0
TABLE
  2
VPORT
  5
8
100
AcDbSymbolTable
 70
1
  0
VPORT
  5
30
100
AcDbSymbolTableRecord
100
AcDbViewportTableRecord
  2
*Active
 70
0
 10
0.0
 20
0.0
 11
1.0
 21
1.0
 12
286.3055555555554861
 22
148.5
 13
0.0
 23
0.0
 14
10.0
 24
10.0
 15
10.0
 25
10.0
 16
0.0
 26
0.0
 36
1.0
 17
0.0
 27
0.0
 37
0.0
 40
297.0
 41
1.92798353909465
 42
50.0
 43
0.0
 44
0.0
 50
0.0
 51
0.0
 71
0
 72
100
 73
1
 74
3
 75
1
 76
1
 77
0
 78
0
281
0
 65
1
110
0.0
120
0.0
130
0.0
111
1.0
121
0.0
131
0.0
112
0.0
122
1.0
132
0.0
 79
0
146
0.0
  0
ENDTAB
  0
TABLE
  2
LTYPE
  5
5
100
AcDbSymbolTable
 70
41
  0
LTYPE
  5
16
100
AcDbSymbolTableRecord
100
AcDbLinetypeTableRecord
  2
Continuous
 70
0
  3
Solid line
 72
65
 73
0
 40
0.0
  0
LTYPE
  5
31
100
AcDbSymbolTableRecord
100
AcDbLinetypeTableRecord
  2
DASHED
 70
0
  3
Dashed __ __ __ __ __ __ __ __ __ __ __ __ __ _
 72
65
 73
2
 40
19.0499999999999972
 49
12.6999999999999993
 74
0
 49
-6.3499999999999996
 74
0
  0
LTYPE
  5
32
100
AcDbSymbolTableRecord
100
AcDbLinetypeTableRecord
  2
ACAD_ISO08W100
 70
0
  3
ISO long-dash short-dash ____ __ ____ __ ____ _
 72
65
 73
4
 40
36.0
 49
24.0
 74
0
 49
-3.0
 74
0
 49
6.0
 74
0
 49
-3.0
 74
0
  0
LTYPE
  5
33
100
AcDbSymbolTableRecord
100
AcDbLinetypeTableRecord
  2
ACAD_ISO11W100
 70
0
  3
ISO double-dash dot __ __ . __ __ . __ __ . __ _
 72
65
 73
6
 40
33.0
 49
12.0
 74
0
 49
-3.0
 74
0
 49
12.0
 74
0
 49
-2.9500000000000002
 74
0
 49
0.1
 74
0
 49
-2.9500000000000002
 74
0
  0
LTYPE
  5
34
100
AcDbSymbolTableRecord
100
AcDbLinetypeTableRecord
  2
DASHDOT
 70
0
  3
Dash dot __ . __ . __ . __ . __ . __ . __ . __
 72
65
 73
4
 40
25.4000000000000021
 49
12.6999999999999993
 74
0
 49
-6.2999999999999998
 74
0
 49
0.1
 74
0
 49
-6.2999999999999998
 74
0
  0
LTYPE
  5
35
100
AcDbSymbolTableRecord
100
AcDbLinetypeTableRecord
  2
ACAD_ISO04W100
 70
0
  3
ISO long-dash dot ____ . ____ . ____ . ____ . _
 72
65
 73
4
 40
30.0
 49
24.0
 74
0
 49
-2.9500000000000002
 74
0
 49
0.1
 74
0
 49
-2.9500000000000002
 74
0
  0
LTYPE
  5
36
100
AcDbSymbolTableRecord
100
AcDbLinetypeTableRecord
  2
DOTX2
 70
0
  3
Dot (2x) .  .  .  .  .  .  .  .  .  .  .  .  .  .
 72
65
 73
2
 40
12.6999999999999993
 49
0.1
 74
0
 49
-12.5999999999999996
 74
0
  0
LTYPE
  5
37
100
AcDbSymbolTableRecord
100
AcDbLinetypeTableRecord
  2
ACAD_ISO07W100
 70
0
  3
ISO dot . . . . . . . . . . . . . . . . . . . . 
 72
65
 73
2
 40
3.0
 49
0.1
 74
0
 49
-2.8999999999999999
 74
0
  0
LTYPE
  5
38
100
AcDbSymbolTableRecord
100
AcDbLinetypeTableRecord
  2
BORDER
 70
0
  3
Border __ __ . __ __ . __ __ . __ __ . __ __ .
 72
65
 73
6
 40
44.4499999999999957
 49
12.6999999999999993
 74
0
 49
-6.3499999999999996
 74
0
 49
12.6999999999999993
 74
0
 49
-6.2999999999999998
 74
0
 49
0.1
 74
0
 49
-6.2999999999999998
 74
0
  0
LTYPE
  5
39
100
AcDbSymbolTableRecord
100
AcDbLinetypeTableRecord
  2
ACAD_ISO10W100
 70
0
  3
ISO dash dot __ . __ . __ . __ . __ . __ . __ . 
 72
65
 73
4
 40
18.0
 49
12.0
 74
0
 49
-2.9500000000000002
 74
0
 49
0.1
 74
0
 49
-2.9500000000000002
 74
0
  0
LTYPE
  5
3A
100
AcDbSymbolTableRecord
100
AcDbLinetypeTableRecord
  2
HIDDEN2
 70
0
  3
Hidden (.5x) _ _ _ _ _ _ _ _ _ _ _ _ _ _ _ _ _ 
 72
65
 73
2
 40
4.7624999999999993
 49
3.1749999999999998
 74
0
 49
-1.5874999999999999
 74
0
  0
LTYPE
  5
3B
100
AcDbSymbolTableRecord
100
AcDbLinetypeTableRecord
  2
ACAD_ISO05W100
 70
0
  3
ISO long-dash double-dot ____ .. ____ .. ____ . 
 72
65
 73
6
 40
33.0000000000000071
 49
24.0
 74
0
 49
-2.9500000000000002
 74
0
 49
0.1
 74
0
 49
-2.9000000000000004
 74
0
 49
0.1
 74
0
 49
-2.9500000000000002
 74
0
  0
LTYPE
  5
3C
100
AcDbSymbolTableRecord
100
AcDbLinetypeTableRecord
  2
PHANTOMX2
 70
0
  3
Phantom (2x) ____________    ____    ____   _
 72
65
 73
6
 40
127.0000000000000142
 49
63.5
 74
0
 49
-12.6999999999999993
 74
0
 49
12.6999999999999993
 74
0
 49
-12.6999999999999993
 74
0
 49
12.6999999999999993
 74
0
 49
-12.6999999999999993
 74
0
  0
LTYPE
  5
3D
100
AcDbSymbolTableRecord
100
AcDbLinetypeTableRecord
  2
PHANTOM
 70
0
  3
Phantom ______  __  __  ______  __  __  ______ 
 72
65
 73
6
 40
63.5000000000000071
 49
31.75
 74
0
 49
-6.3499999999999996
 74
0
 49
6.3499999999999996
 74
0
 49
-6.3499999999999996
 74
0
 49
6.3499999999999996
 74
0
 49
-6.3499999999999996
 74
0
  0
LTYPE
  5
3E
100
AcDbSymbolTableRecord
100
AcDbLinetypeTableRecord
  2
ACAD_ISO13W100
 70
0
  3
ISO double-dash double-dot __ __ . . __ __ . . _
 72
65
 73
8
 40
36.0000000000000071
 49
12.0
 74
0
 49
-3.0
 74
0
 49
12.0
 74
0
 49
-2.9500000000000002
 74
0
 49
0.1
 74
0
 49
-2.9000000000000004
 74
0
 49
0.1
 74
0
 49
-2.9500000000000002
 74
0
  0
LTYPE
  5
14
100
AcDbSymbolTableRecord
100
AcDbLinetypeTableRecord
  2
BYBLOCK
 70
0
  3

 72
65
 73
0
 40
0.0
  0
LTYPE
  5
3F
100
AcDbSymbolTableRecord
100
AcDbLinetypeTableRecord
  2
ACAD_ISO03W100
 70
0
  3
ISO dash space __    __    __    __    __    __
 72
65
 73
2
 40
30.0
 49
12.0
 74
0
 49
-18.0
 74
0
  0
LTYPE
  5
40
100
AcDbSymbolTableRecord
100
AcDbLinetypeTableRecord
  2
DASHEDX2
 70
0
  3
Dashed (2x) ____  ____  ____  ____  ____  ___
 72
65
 73
2
 40
38.0999999999999943
 49
25.3999999999999986
 74
0
 49
-12.6999999999999993
 74
0
  0
LTYPE
  5
41
100
AcDbSymbolTableRecord
100
AcDbLinetypeTableRecord
  2
DIVIDEX2
 70
0
  3
Divide (2x) ________  .  .  ________  .  .  _
 72
65
 73
6
 40
63.5
 49
25.3999999999999986
 74
0
 49
-12.6499999999999986
 74
0
 49
0.1
 74
0
 49
-12.5999999999999979
 74
0
 49
0.1
 74
0
 49
-12.6499999999999986
 74
0
  0
LTYPE
  5
42
100
AcDbSymbolTableRecord
100
AcDbLinetypeTableRecord
  2
DASHDOTX2
 70
0
  3
Dash dot (2x) ____  .  ____  .  ____  .  ___
 72
65
 73
4
 40
50.7999999999999972
 49
25.3999999999999986
 74
0
 49
-12.6499999999999986
 74
0
 49
0.1
 74
0
 49
-12.6499999999999986
 74
0
  0
LTYPE
  5
43
100
AcDbSymbolTableRecord
100
AcDbLinetypeTableRecord
  2
DIVIDE2
 70
0
  3
Divide (.5x) __..__..__..__..__..__..__..__.._
 72
65
 73
6
 40
15.8749999999999982
 49
6.3499999999999996
 74
0
 49
-3.125
 74
0
 49
0.1
 74
0
 49
-3.0750000000000002
 74
0
 49
0.1
 74
0
 49
-3.125
 74
0
  0
LTYPE
  5
44
100
AcDbSymbolTableRecord
100
AcDbLinetypeTableRecord
  2
DASHDOT2
 70
0
  3
Dash dot (.5x) _._._._._._._._._._._._._._._.
 72
65
 73
4
 40
12.6999999999999993
 49
6.3499999999999996
 74
0
 49
-3.125
 74
0
 49
0.1
 74
0
 49
-3.125
 74
0
  0
LTYPE
  5
45
100
AcDbSymbolTableRecord
100
AcDbLinetypeTableRecord
  2
ACAD_ISO15W100
 70
0
  3
ISO double-dash triple-dot __ __ . . . __ __ . .
 72
65
 73
10
 40
39.0000000000000071
 49
12.0
 74
0
 49
-3.0
 74
0
 49
12.0
 74
0
 49
-2.9500000000000002
 74
0
 49
0.1
 74
0
 49
-2.9000000000000004
 74
0
 49
0.1
 74
0
 49
-2.9000000000000004
 74
0
 49
0.1
 74
0
 49
-2.9500000000000002
 74
0
  0
LTYPE
  5
46
100
AcDbSymbolTableRecord
100
AcDbLinetypeTableRecord
  2
DIVIDE
 70
0
  3
Divide ____ . . ____ . . ____ . . ____ . . ____
 72
65
 73
6
 40
31.7500000000000036
 49
12.6999999999999993
 74
0
 49
-6.2999999999999998
 74
0
 49
0.1
 74
0
 49
-6.25
 74
0
 49
0.1
 74
0
 49
-6.2999999999999998
 74
0
  0
LTYPE
  5
47
100
AcDbSymbolTableRecord
100
AcDbLinetypeTableRecord
  2
BORDER2
 70
0
  3
Border (.5x) __.__.__.__.__.__.__.__.__.__.__.
 72
65
 73
6
 40
22.2250000000000014
 49
6.3499999999999996
 74
0
 49
-3.1749999999999998
 74
0
 49
6.3499999999999996
 74
0
 49
-3.125
 74
0
 49
0.1
 74
0
 49
-3.125
 74
0
  0
LTYPE
  5
48
100
AcDbSymbolTableRecord
100
AcDbLinetypeTableRecord
  2
PHANTOM2
 70
0
  3
Phantom (.5x) ___ _ _ ___ _ _ ___ _ _ ___ _ _
 72
65
 73
6
 40
31.7500000000000036
 49
15.875
 74
0
 49
-3.1749999999999998
 74
0
 49
3.1749999999999998
 74
0
 49
-3.1749999999999998
 74
0
 49
3.1749999999999998
 74
0
 49
-3.1749999999999998
 74
0
  0
LTYPE
  5
49
100
AcDbSymbolTableRecord
100
AcDbLinetypeTableRecord
  2
CENTERX2
 70
0
  3
Center (2x) ________  __  ________  __  _____
 72
65
 73
4
 40
101.6000000000000085
 49
63.5
 74
0
 49
-12.6999999999999993
 74
0
 49
12.6999999999999993
 74
0
 49
-12.6999999999999993
 74
0
  0
LTYPE
  5
4A
100
AcDbSymbolTableRecord
100
AcDbLinetypeTableRecord
  2
CENTER2
 70
0
  3
Center (.5x) ___ _ ___ _ ___ _ ___ _ ___ _ ___
 72
65
 73
4
 40
28.5750000000000028
 49
19.0500000000000007
 74
0
 49
-3.1749999999999998
 74
0
 49
3.1749999999999998
 74
0
 49
-3.1749999999999998
 74
0
  0
LTYPE
  5
4B
100
AcDbSymbolTableRecord
100
AcDbLinetypeTableRecord
  2
ACAD_ISO06W100
 70
0
  3
ISO long-dash triple-dot ____ ... ____ ... ____
 72
65
 73
8
 40
36.0000000000000071
 49
24.0
 74
0
 49
-2.9500000000000002
 74
0
 49
0.1
 74
0
 49
-2.9000000000000004
 74
0
 49
0.1
 74
0
 49
-2.9000000000000004
 74
0
 49
0.1
 74
0
 49
-2.9500000000000002
 74
0
  0
LTYPE
  5
15
100
AcDbSymbolTableRecord
100
AcDbLinetypeTableRecord
  2
BYLAYER
 70
0
  3

 72
65
 73
0
 40
0.0
  0
LTYPE
  5
4C
100
AcDbSymbolTableRecord
100
AcDbLinetypeTableRecord
  2
HIDDEN
 70
0
  3
Hidden __ __ __ __ __ __ __ __ __ __ __ __ __ __
 72
65
 73
2
 40
9.5249999999999986
 49
6.3499999999999996
 74
0
 49
-3.1749999999999998
 74
0
  0
LTYPE
  5
4D
100
AcDbSymbolTableRecord
100
AcDbLinetypeTableRecord
  2
ACAD_ISO14W100
 70
0
  3
ISO dash triple-dot __ . . . __ . . . __ . . . _
 72
65
 73
8
 40
24.0000000000000036
 49
12.0
 74
0
 49
-2.9500000000000002
 74
0
 49
0.1
 74
0
 49
-2.9000000000000004
 74
0
 49
0.1
 74
0
 49
-2.9000000000000004
 74
0
 49
0.1
 74
0
 49
-2.9500000000000002
 74
0
  0
LTYPE
  5
4E
100
AcDbSymbolTableRecord
100
AcDbLinetypeTableRecord
  2
HIDDENX2
 70
0
  3
Hidden (2x) ____ ____ ____ ____ ____ ____ ____ 
 72
65
 73
2
 40
19.0499999999999972
 49
12.6999999999999993
 74
0
 49
-6.3499999999999996
 74
0
  0
LTYPE
  5
4F
100
AcDbSymbolTableRecord
100
AcDbLinetypeTableRecord
  2
CENTER
 70
0
  3
Center ____ _ ____ _ ____ _ ____ _ ____ _ ____
 72
65
 73
4
 40
50.8000000000000043
 49
31.75
 74
0
 49
-6.3499999999999996
 74
0
 49
6.3499999999999996
 74
0
 49
-6.3499999999999996
 74
0
  0
LTYPE
  5
50
100
AcDbSymbolTableRecord
100
AcDbLinetypeTableRecord
  2
DASHED2
 70
0
  3
Dashed (.5x) _ _ _ _ _ _ _ _ _ _ _ _ _ _ _ _ _ 
 72
65
 73
2
 40
9.5249999999999986
 49
6.3499999999999996
 74
0
 49
-3.1749999999999998
 74
0
  0
LTYPE
  5
51
100
AcDbSymbolTableRecord
100
AcDbLinetypeTableRecord
  2
DOT
 70
0
  3
Dot . . . . . . . . . . . . . . . . . . . . . . . .
 72
65
 73
2
 40
6.3499999999999996
 49
0.1
 74
0
 49
-6.25
 74
0
  0
LTYPE
  5
52
100
AcDbSymbolTableRecord
100
AcDbLinetypeTableRecord
  2
ACAD_ISO09W100
 70
0
  3
ISO long-dash double-short-dash ____ __ __ ____
 72
65
 73
6
 40
45.0
 49
24.0
 74
0
 49
-3.0
 74
0
 49
6.0
 74
0
 49
-3.0
 74
0
 49
6.0
 74
0
 49
-3.0
 74
0
  0
LTYPE
  5
53
100
AcDbSymbolTableRecord
100
AcDbLinetypeTableRecord
  2
ACAD_ISO02W100
 70
0
  3
ISO dash __ __ __ __ __ __ __ __ __ __ __ __ __
 72
65
 73
2
 40
15.0
 49
12.0
 74
0
 49
-3.0
 74
0
  0
LTYPE
  5
54
100
AcDbSymbolTableRecord
100
AcDbLinetypeTableRecord
  2
ACAD_ISO12W100
 70
0
  3
ISO dash double-dot __ . . __ . . __ . . __ . . 
 72
65
 73
6
 40
21.0
 49
12.0
 74
0
 49
-2.9500000000000002
 74
0
 49
0.1
 74
0
 49
-2.9000000000000004
 74
0
 49
0.1
 74
0
 49
-2.9500000000000002
 74
0
  0
LTYPE
  5
55
100
AcDbSymbolTableRecord
100
AcDbLinetypeTableRecord
  2
BORDERX2
 70
0
  3
Border (2x) ____  ____  .  ____  ____  .  ___
 72
65
 73
6
 40
88.8999999999999773
 49
25.3999999999999986
 74
0
 49
-12.6999999999999993
 74
0
 49
25.3999999999999986
 74
0
 49
-12.6499999999999986
 74
0
 49
0.1
 74
0
 49
-12.6499999999999986
 74
0
  0
LTYPE
  5
56
100
AcDbSymbolTableRecord
100
AcDbLinetypeTableRecord
  2
DOT2
 70
0
  3
Dot (.5x) ........................................
 72
65
 73
2
 40
3.1749999999999998
 49
0.1
 74
0
 49
-3.0749999999999997
 74
0
  0
ENDTAB
  0
TABLE
  2
LAYER
  5
2
100
AcDbSymbolTable
 70
8
  0
LAYER
  5
10
100
AcDbSymbolTableRecord
100
AcDbLayerTableRecord
  2
0
 70
0
 62
252
420
10526884
  6
Continuous
370
5
390
F
  0
LAYER
  5
57
100
AcDbSymbolTableRecord
100
AcDbLayerTableRecord
  2
body
 70
0
 62
1
420
16711680
  6
DASHED2
370
13
390
F
  0
LAYER
  5
58
100
AcDbSymbolTableRecord
100
AcDbLayerTableRecord
  2
plug
 70
0
 62
2
420
16776960
  6
DASHED2
370
13
390
F
  0
LAYER
  5
59
100
AcDbSymbolTableRecord
100
AcDbLayerTableRecord
  2
front
 70
0
 62
7
420
16777215
  6
Continuous
370
13
390
F
  0
LAYER
  5
5A
100
AcDbSymbolTableRecord
100
AcDbLayerTableRecord
  2
front-bb
 70
0
 62
94
420
32768
  6
Continuous
370
5
390
F
  0
LAYER
  5
5B
100
AcDbSymbolTableRecord
100
AcDbLayerTableRecord
  2
dimensions
 70
0
 62
252
420
10526884
  6
Continuous
370
5
390
F
  0
LAYER
  5
5C
100
AcDbSymbolTableRecord
100
AcDbLayerTableRecord
  2
shield
 70
0
 62
54
420
8421376
  6
DASHED2
370
13
390
F
  0
LAYER
  5
5D
100
AcDbSymbolTableRecord
100
AcDbLayerTableRecord
  2
front-pcb
 70
0
 62
94
420
32768
  6
Continuous
370
0
390
F
  0
ENDTAB
  0
TABLE
  2
STYLE
  5
3
100
AcDbSymbolTable
 70
1
  0
STYLE
  5
5E
100
AcDbSymbolTableRecord
100
AcDbTextStyleTableRecord
  2
Standard
 70
0
 40
0.0
 41
1.0
 50
0.0
 71
0
 42
2.5
  3

  4

1001
ACAD
1000
txt
1071
0
  0
ENDTAB
  0
TABLE
  2
VIEW
  5
6
100
AcDbSymbolTable
 70
0
  0
ENDTAB
  0
TABLE
  2
UCS
  5
7
100
AcDbSymbolTable
 70
0
  0
ENDTAB
  0
TABLE
  2
APPID
  5
9
100
AcDbSymbolTable
 70
1
  0
APPID
  5
12
100
AcDbSymbolTableRecord
100
AcDbRegAppTableRecord
  2
ACAD
 70
0
  0
APPID
  5
5F
100
AcDbSymbolTableRecord
100
AcDbRegAppTableRecord
  2
QCAD
 70
0
  0
ENDTAB
  0
TABLE
  2
DIMSTYLE
  5
A
100
AcDbSymbolTable
 70
1
100
AcDbDimStyleTable
 71
0
  0
DIMSTYLE
105
27
100
AcDbSymbolTableRecord
100
AcDbDimStyleTableRecord
  2
Standard
 41
0.5
 42
0.125
 43
3.75
 44
0.25
 70
0
 73
0
 74
0
 77
1
 78
8
140
0.5
141
2.5
143
0.03937007874016
147
0.125
171
3
172
1
271
2
272
2
274
3
278
44
283
0
284
8
340
5E
  0
ENDTAB
  0
TABLE
  2
BLOCK_RECORD
  5
1
100
AcDbSymbolTable
 70
1
  0
BLOCK_RECORD
  5
1F
100
AcDbSymbolTableRecord
100
AcDbBlockTableRecord
  2
*Model_Space
340
22
  0
BLOCK_RECORD
  5
1B
100
AcDbSymbolTableRecord
100
AcDbBlockTableRecord
  2
*Paper_Space
340
1E
  0
BLOCK_RECORD
  5
23
100
AcDbSymbolTableRecord
100
AcDbBlockTableRecord
  2
*Paper_Space0
340
26
  0
ENDTAB
  0
ENDSEC
  0
SECTION
  2
BLOCKS
  0
BLOCK
  5
20
100
AcDbEntity
  8
0
100
AcDbBlockBegin
  2
*Model_Space
 70
0
 10
0.0
 20
0.0
 30
0.0
  3
*Model_Space
  1

  0
ENDBLK
  5
21
100
AcDbEntity
  8
0
100
AcDbBlockEnd
  0
BLOCK
  5
1C
100
AcDbEntity
 67
1
  8
0
100
AcDbBlockBegin
  2
*Paper_Space
 70
0
 10
0.0
 20
0.0
 30
0.0
  3
*Paper_Space
  1

  0
ENDBLK
  5
1D
100
AcDbEntity
 67
1
  8
0
100
AcDbBlockEnd
  0
BLOCK
  5
24
100
AcDbEntity
  8
0
100
AcDbBlockBegin
  2
*Paper_Space0
 70
0
 10
0.0
 20
0.0
 30
0.0
  3
*Paper_Space0
  1

  0
ENDBLK
  5
25
100
AcDbEntity
  8
0
100
AcDbBlockEnd
  0
ENDSEC
  0
SECTION
  2
ENTITIES
  0
LINE
  5
60
100
AcDbEntity
  8
front
 62
256
370
-1
 48
1.0
  6
BYLAYER
100
AcDbLine
 10
-7.2000000000000028
 20
11.1000000000000085
 30
0.0
 11
-7.2000000000000099
 21
0.0000000000000115
 31
0.0
  0
LINE
  5
61
100
AcDbEntity
  8
front
 62
256
370
-1
 48
1.0
  6
BYLAYER
100
AcDbLine
 10
-6.8000000000000007
 20
11.5000000000000036
 30
0.0
 11
6.8000000000000034
 21
11.4999999999999964
 31
0.0
  0
LINE
  5
62
100
AcDbEntity
  8
front
 62
256
370
-1
 48
1.0
  6
BYLAYER
100
AcDbLine
 10
7.1999999999999948
 20
-0.0000000000000036
 30
0.0
 11
7.1999999999999966
 21
11.125
 31
0.0
  0
ARC
  5
63
100
AcDbEntity
  8
front
 62
256
370
-1
 48
1.0
  6
BYLAYER
100
AcDbCircle
 10
-6.7999999999999936
 20
11.1000000000000121
 30
0.0
 40
0.4
100
AcDbArc
 50
90.0
 51
180.0
  0
ARC
  5
64
100
AcDbEntity
  8
front
 62
256
370
-1
 48
1.0
  6
BYLAYER
100
AcDbCircle
 10
6.8000000000000052
 20
11.0999999999999979
 30
0.0
 40
0.4
100
AcDbArc
 50
0.0
 51
90.0
  0
LINE
  5
65
100
AcDbEntity
  8
front
 62
256
370
-1
 48
1.0
  6
BYLAYER
100
AcDbLine
 10
-7.2000000000000099
 20
0.0000000000000115
 30
0.0
 11
-2.400000000000011
 21
0.0000000000000071
 31
0.0
  0
LINE
  5
66
100
AcDbEntity
  8
front
 62
256
370
-1
 48
1.0
  6
BYLAYER
100
AcDbLine
 10
2.3999999999999932
 20
0.0
 30
0.0
 11
7.1999999999999922
 21
-0.0000000000000036
 31
0.0
  0
LINE
  5
67
100
AcDbEntity
  8
front
 62
256
370
-1
 48
1.0
  6
BYLAYER
100
AcDbLine
 10
-2.400000000000011
 20
0.0000000000000071
 30
0.0
 11
-2.4000000000000057
 21
1.0000000000000044
 31
0.0
  0
LINE
  5
68
100
AcDbEntity
  8
front
 62
256
370
-1
 48
1.0
  6
BYLAYER
100
AcDbLine
 10
2.3999999999999932
 20
0.0
 30
0.0
 11
2.399999999999999
 21
1.0000000000000009
 31
0.0
  0
DIMENSION
  5
69
100
AcDbEntity
  8
dimensions
 62
256
370
-1
 48
1.0
  6
BYLAYER
100
AcDbDimension
 10
-9.6999999999999993
 20
0.0000000000000044
 30
0.0
 11
-10.0749999999999993
 21
0.5000000000000089
 31
0.0
 70
128
 71
8
 72
2
 74
0
 75
0
 41
1.0
 42
0.0
  1

  3
Standard
100
AcDbAlignedDimension
 13
2.3999999999999964
 23
-0.0000000000000027
 33
0.0
 14
2.4000000000000061
 24
1.0000000000000044
 34
0.0
 50
90.0
100
AcDbRotatedDimension
1001
ACAD
1000
DSTYLE
1002
{
1070
279
1070
2
1070
144
1040
1.0
1070
40
1040
1.0
1002
}
  0
LINE
  5
6A
100
AcDbEntity
  8
front
 62
256
370
-1
 48
1.0
  6
BYLAYER
100
AcDbLine
 10
2.399999999999999
 20
1.0000000000000009
 30
0.0
 11
3.399999999999995
 21
0.9999999999999991
 31
0.0
  0
LINE
  5
6B
100
AcDbEntity
  8
front
 62
256
370
-1
 48
1.0
  6
BYLAYER
100
AcDbLine
 10
-3.4000000000000057
 20
1.0000000000000071
 30
0.0
 11
-2.4000000000000057
 21
1.0000000000000044
 31
0.0
  0
LINE
  5
6C
100
AcDbEntity
  8
front
 62
256
370
-1
 48
1.0
  6
BYLAYER
100
AcDbLine
 10
-3.4000000000000057
 20
1.0000000000000071
 30
0.0
 11
-3.399999999999995
 21
1.0000000000000044
 31
0.0
  0
LINE
  5
6D
100
AcDbEntity
  8
front
 62
256
370
-1
 48
1.0
  6
BYLAYER
100
AcDbLine
 10
-3.4000000000000057
 20
1.0000000000000071
 30
0.0
 11
-3.4000000000000057
 21
2.5000000000000071
 31
0.0
  0
LINE
  5
6E
100
AcDbEntity
  8
front
 62
256
370
-1
 48
1.0
  6
BYLAYER
100
AcDbLine
 10
3.399999999999995
 20
0.9999999999999991
 30
0.0
 11
3.3999999999999995
 21
2.5000000000000013
 31
0.0
  0
LINE
  5
6F
100
AcDbEntity
  8
front
 62
256
370
-1
 48
1.0
  6
BYLAYER
100
AcDbLine
 10
-6.2000000000000028
 20
2.5000000000000013
 30
0.0
 11
-3.4000000000000057
 21
2.5000000000000071
 31
0.0
  0
LINE
  5
70
100
AcDbEntity
  8
front
 62
256
370
-1
 48
1.0
  6
BYLAYER
100
AcDbLine
 10
3.3999999999999995
 20
2.5000000000000013
 30
0.0
 11
6.1999999999999984
 21
2.5000000000000027
 31
0.0
  0
LINE
  5
71
100
AcDbEntity
  8
front
 62
256
370
-1
 48
1.0
  6
BYLAYER
100
AcDbLine
 10
-6.2000000000000028
 20
2.5000000000000013
 30
0.0
 11
-6.2000000000000028
 21
10.5000000000000036
 31
0.0
  0
LINE
  5
72
100
AcDbEntity
  8
front
 62
256
370
-1
 48
1.0
  6
BYLAYER
100
AcDbLine
 10
6.1999999999999984
 20
2.5000000000000027
 30
0.0
 11
6.1999999999999957
 21
10.5000000000000036
 31
0.0
  0
LINE
  5
73
100
AcDbEntity
  8
front
 62
256
370
-1
 48
1.0
  6
BYLAYER
100
AcDbLine
 10
-6.2000000000000028
 20
10.5000000000000036
 30
0.0
 11
6.1999999999999957
 21
10.5000000000000036
 31
0.0
  0
DIMENSION
  5
74
100
AcDbEntity
  8
dimensions
 62
256
370
-1
 48
1.0
  6
BYLAYER
100
AcDbDimension
 10
-10.7000000000000046
 20
0.0000000000000062
 30
0.0
 11
-11.0749999999999975
 21
1.2500000000000133
 31
0.0
 70
128
 71
8
 72
2
 74
0
 75
0
 41
1.0
 42
0.0
  1

  3
Standard
100
AcDbAlignedDimension
 13
2.3999999999999964
 23
-0.0000000000000027
 33
0.0
 14
6.2000000000000055
 24
2.4999999999999978
 34
0.0
 50
90.0
100
AcDbRotatedDimension
1001
ACAD
1000
DSTYLE
1002
{
1070
279
1070
2
1070
144
1040
1.0
1070
40
1040
1.0
1002
}
  0
DIMENSION
  5
75
100
AcDbEntity
  8
dimensions
 62
256
370
-1
 48
1.0
  6
BYLAYER
100
AcDbDimension
 10
12.8000000000000043
 20
-0.0000000000000124
 30
0.0
 11
12.4250000000000078
 21
5.75
 31
0.0
 70
128
 71
8
 72
2
 74
0
 75
0
 41
1.0
 42
0.0
  1

  3
Standard
100
AcDbAlignedDimension
 13
7.1999999999999984
 23
-0.0000000000000036
 33
0.0
 14
6.8000000000000167
 24
11.4999999999999964
 34
0.0
 50
90.0
100
AcDbRotatedDimension
1001
ACAD
1000
DSTYLE
1002
{
1070
279
1070
2
1070
144
1040
1.0
1070
40
1040
1.0
1002
}
  0
DIMENSION
  5
76
100
AcDbEntity
  8
dimensions
 62
256
370
-1
 48
1.0
  6
BYLAYER
100
AcDbDimension
 10
-8.7000000000000046
 20
-2.99999999999996
 30
0.0
 11
-7.4499999999999957
 21
-2.62499999999996
 31
0.0
 70
0
 71
8
 72
2
 74
0
 75
0
 41
1.0
 42
0.0
  1

  3
Standard
100
AcDbAlignedDimension
 13
-8.7000000000000064
 23
2.4999999999999845
 33
0.0
 14
-6.199999999999986
 24
2.5000000000000084
 34
0.0
 50
0.0
100
AcDbRotatedDimension
1001
ACAD
1000
DSTYLE
1002
{
1070
144
1040
1.0
1070
40
1040
1.0
1002
}
  0
DIMENSION
  5
77
100
AcDbEntity
  8
dimensions
 62
256
370
-1
 48
1.0
  6
BYLAYER
100
AcDbDimension
 10
-8.7000000000000046
 20
-3.9999999999999707
 30
0.0
 11
-6.0500000000000007
 21
-3.6249999999999707
 31
0.0
 70
0
 71
8
 72
2
 74
0
 75
0
 41
1.0
 42
0.0
  1

  3
Standard
100
AcDbAlignedDimension
 13
-8.7000000000000064
 23
2.4999999999999845
 33
0.0
 14
-3.3999999999999955
 24
1.0000000000000009
 34
0.0
 50
0.0
100
AcDbRotatedDimension
1001
ACAD
1000
DSTYLE
1002
{
1070
144
1040
1.0
1070
40
1040
1.0
1002
}
  0
DIMENSION
  5
78
100
AcDbEntity
  8
dimensions
 62
256
370
-1
 48
1.0
  6
BYLAYER
100
AcDbDimension
 10
-8.7000000000000259
 20
-4.999999999999944
 30
0.0
 11
-5.5499999999999989
 21
-4.624999999999944
 31
0.0
 70
0
 71
8
 72
2
 74
0
 75
0
 41
1.0
 42
0.0
  1

  3
Standard
100
AcDbAlignedDimension
 13
-8.7000000000000064
 23
1.0000000000000346
 33
0.0
 14
-2.3999999999999924
 24
1.000000000000008
 34
0.0
 50
0.0
100
AcDbRotatedDimension
1001
ACAD
1000
DSTYLE
1002
{
1070
144
1040
1.0
1070
40
1040
1.0
1002
}
  0
DIMENSION
  5
79
100
AcDbEntity
  8
dimensions
 62
256
370
-1
 48
1.0
  6
BYLAYER
100
AcDbDimension
 10
-8.7000000000000028
 20
-5.9999999999999671
 30
0.0
 11
-3.1499999999999977
 21
-5.6249999999999671
 31
0.0
 70
0
 71
8
 72
2
 74
0
 75
0
 41
1.0
 42
0.0
  1

  3
Standard
100
AcDbAlignedDimension
 13
-8.6999999999999922
 23
0.0
 33
0.0
 14
2.3999999999999964
 24
-0.0000000000000027
 34
0.0
 50
0.0
100
AcDbRotatedDimension
1001
ACAD
1000
DSTYLE
1002
{
1070
144
1040
1.0
1070
40
1040
1.0
1002
}
  0
DIMENSION
  5
7A
100
AcDbEntity
  8
dimensions
 62
256
370
-1
 48
1.0
  6
BYLAYER
100
AcDbDimension
 10
-8.7000000000000348
 20
-9.0000000000000036
 30
0.0
 11
-0.7499999999999964
 21
-8.6250000000000036
 31
0.0
 70
0
 71
8
 72
2
 74
0
 75
0
 41
1.0
 42
0.0
  1

  3
Standard
100
AcDbAlignedDimension
 13
-8.6999999999999922
 23
0.0
 33
0.0
 14
7.1999999999999984
 24
-0.0000000000000036
 34
0.0
 50
0.0
100
AcDbRotatedDimension
1001
ACAD
1000
DSTYLE
1002
{
1070
144
1040
1.0
1070
40
1040
1.0
1002
}
  0
DIMENSION
  5
7B
100
AcDbEntity
  8
dimensions
 62
256
370
-1
 48
1.0
  6
BYLAYER
100
AcDbDimension
 10
-8.7000000000000206
 20
-7.0000000000000009
 30
0.0
 11
-2.6499999999999915
 21
-6.6250000000000018
 31
0.0
 70
0
 71
8
 72
2
 74
0
 75
0
 41
1.0
 42
0.0
  1

  3
Standard
100
AcDbAlignedDimension
 13
-8.6999999999999922
 23
0.0
 33
0.0
 14
3.4000000000000083
 24
1.0000000000000018
 34
0.0
 50
0.0
100
AcDbRotatedDimension
1001
ACAD
1000
DSTYLE
1002
{
1070
144
1040
1.0
1070
40
1040
1.0
1002
}
  0
DIMENSION
  5
7C
100
AcDbEntity
  8
dimensions
 62
256
370
-1
 48
1.0
  6
BYLAYER
100
AcDbDimension
 10
-8.6999999999999869
 20
-7.9999999999999902
 30
0.0
 11
-1.2499999999999938
 21
-7.6249999999999893
 31
0.0
 70
0
 71
8
 72
2
 74
0
 75
0
 41
1.0
 42
0.0
  1

  3
Standard
100
AcDbAlignedDimension
 13
-8.6999999999999922
 23
0.0
 33
0.0
 14
6.2000000000000055
 24
2.4999999999999978
 34
0.0
 50
0.0
100
AcDbRotatedDimension
1001
ACAD
1000
DSTYLE
1002
{
1070
144
1040
1.0
1070
40
1040
1.0
1002
}
  0
DIMENSION
  5
7D
100
AcDbEntity
  8
dimensions
 62
256
370
-1
 48
1.0
  6
BYLAYER
100
AcDbDimension
 10
-11.6999999999999904
 20
0.000000000000008
 30
0.0
 11
-12.0750000000000064
 21
2.0000000000000173
 31
0.0
 70
128
 71
8
 72
2
 74
0
 75
0
 41
1.0
 42
0.0
  1

  3
Standard
100
AcDbAlignedDimension
 13
7.1999999999999984
 23
-0.0000000000000036
 33
0.0
 14
7.2000000000000055
 24
3.999999999999984
 34
0.0
 50
90.0
100
AcDbRotatedDimension
1001
ACAD
1000
DSTYLE
1002
{
1070
279
1070
2
1070
144
1040
1.0
1070
40
1040
1.0
1002
}
  0
DIMENSION
  5
7E
100
AcDbEntity
  8
dimensions
 62
256
370
-1
 48
1.0
  6
BYLAYER
100
AcDbDimension
 10
-8.7000000000000011
 20
13.9999999999999964
 30
0.0
 11
0.0000000000000027
 21
14.3749999999999964
 31
0.0
 70
0
 71
8
 72
2
 74
0
 75
0
 41
1.0
 42
0.0
  1

  3
Standard
100
AcDbAlignedDimension
 13
-8.6999999999999922
 23
0.0
 33
0.0
 14
8.6999999999999957
 24
-0.0000000000000098
 34
0.0
 50
0.0
100
AcDbRotatedDimension
1001
ACAD
1000
DSTYLE
1002
{
1070
144
1040
1.0
1070
40
1040
1.0
1002
}
  0
DIMENSION
  5
7F
100
AcDbEntity
  8
dimensions
 62
256
370
-1
 48
1.0
  6
BYLAYER
100
AcDbDimension
 10
-8.7000000000000082
 20
-1.9999999999999645
 30
0.0
 11
-7.949999999999994
 21
-1.6249999999999645
 31
0.0
 70
0
 71
8
 72
2
 74
0
 75
0
 41
1.0
 42
0.0
  1

  3
Standard
100
AcDbAlignedDimension
 13
-8.6999999999999922
 23
0.0
 33
0.0
 14
-7.1999999999999966
 24
0.0000000000000044
 34
0.0
 50
0.0
100
AcDbRotatedDimension
1001
ACAD
1000
DSTYLE
1002
{
1070
144
1040
1.0
1070
40
1040
1.0
1002
}
  0
DIMENSION
  5
80
100
AcDbEntity
  8
dimensions
 62
256
370
-1
 48
1.0
  6
BYLAYER
100
AcDbDimension
 10
-7.1999999999999966
 20
13.0
 30
0.0
 11
0.0000000000000116
 21
13.375
 31
0.0
 70
0
 71
8
 72
2
 74
0
 75
0
 41
1.0
 42
0.0
  1

  3
Standard
100
AcDbAlignedDimension
 13
-7.1999999999999948
 23
10.9999999999999964
 33
0.0
 14
7.2000000000000179
 24
11.0000000000000036
 34
0.0
 50
0.0
100
AcDbRotatedDimension
1001
ACAD
1000
DSTYLE
1002
{
1070
144
1040
1.0
1070
40
1040
1.0
1002
}
  0
LINE
  5
81
100
AcDbEntity
  8
front-pcb
 62
256
370
-1
 48
1.0
  6
BYLAYER
100
AcDbLine
 10
-7.2000000000000028
 20
4.0000000000000044
 30
0.0
 11
-10.7000000000000028
 21
4.0000000000000169
 31
0.0
  0
LINE
  5
82
100
AcDbEntity
  8
front-pcb
 62
256
370
-1
 48
1.0
  6
BYLAYER
100
AcDbLine
 10
10.6999999999999993
 20
3.9999999999999885
 30
0.0
 11
7.199999999999994
 21
4.0
 31
0.0
  0
LINE
  5
83
100
AcDbEntity
  8
front-pcb
 62
256
370
-1
 48
1.0
  6
BYLAYER
100
AcDbLine
 10
-10.7000000000000028
 20
4.0000000000000169
 30
0.0
 11
-10.7000000000000028
 21
5.0000000000000302
 31
0.0
  0
LINE
  5
84
100
AcDbEntity
  8
front-pcb
 62
256
370
-1
 48
1.0
  6
BYLAYER
100
AcDbLine
 10
7.199999999999994
 20
4.0
 30
0.0
 11
7.1999999999999975
 21
4.9999999999999973
 31
0.0
  0
LINE
  5
85
100
AcDbEntity
  8
front-pcb
 62
256
370
-1
 48
1.0
  6
BYLAYER
100
AcDbLine
 10
-10.7000000000000028
 20
5.0000000000000302
 30
0.0
 11
-7.2000000000000064
 21
5.0000000000000071
 31
0.0
  0
LINE
  5
86
100
AcDbEntity
  8
front-pcb
 62
256
370
-1
 48
1.0
  6
BYLAYER
100
AcDbLine
 10
7.1999999999999975
 20
4.9999999999999973
 30
0.0
 11
10.6999999999999922
 21
4.9999999999999858
 31
0.0
  0
LINE
  5
87
100
AcDbEntity
  8
front-pcb
 62
256
370
-1
 48
1.0
  6
BYLAYER
100
AcDbLine
 10
-7.2000000000000064
 20
5.0000000000000071
 30
0.0
 11
-7.2000000000000028
 21
4.0000000000000044
 31
0.0
  0
LINE
  5
88
100
AcDbEntity
  8
front-pcb
 62
256
370
-1
 48
1.0
  6
BYLAYER
100
AcDbLine
 10
10.6999999999999922
 20
4.9999999999999858
 30
0.0
 11
10.6999999999999993
 21
3.9999999999999885
 31
0.0
  0
HATCH
  5
89
100
AcDbEntity
  8
front-pcb
 62
256
370
-1
 48
1.0
  6
BYLAYER
100
AcDbHatch
 10
0.0
 20
0.0
 30
0.0
210
0.0
220
0.0
230
1.0
  2
SOLID
 70
1
 71
0
 91
1
 92
1
 93
4
 72
1
 10
-7.2000000000000028
 20
4.0000000000000044
 11
-10.7000000000000028
 21
4.0000000000000169
 72
1
 10
-10.7000000000000028
 20
4.0000000000000169
 11
-10.7000000000000028
 21
5.0000000000000302
 72
1
 10
-10.7000000000000028
 20
5.0000000000000302
 11
-7.2000000000000064
 21
5.0000000000000071
 72
1
 10
-7.2000000000000064
 20
5.0000000000000071
 11
-7.2000000000000028
 21
4.0000000000000044
 97
0
 75
0
 76
1
 98
0
1001
ACAD
1010
0.0
1020
0.0
1030
0
  0
HATCH
  5
8A
100
AcDbEntity
  8
front-pcb
 62
256
370
-1
 48
1.0
  6
BYLAYER
100
AcDbHatch
 10
0.0
 20
0.0
 30
0.0
210
0.0
220
0.0
230
1.0
  2
SOLID
 70
1
 71
0
 91
1
 92
1
 93
4
 72
1
 10
10.6999999999999993
 20
3.9999999999999885
 11
7.199999999999994
 21
4.0
 72
1
 10
7.199999999999994
 20
4.0
 11
7.1999999999999975
 21
4.9999999999999973
 72
1
 10
7.1999999999999975
 20
4.9999999999999973
 11
10.6999999999999922
 21
4.9999999999999858
 72
1
 10
10.6999999999999922
 20
4.9999999999999858
 11
10.6999999999999993
 21
3.9999999999999885
 97
0
 75
0
 76
1
 98
0
1001
ACAD
1010
0.0
1020
0.0
1030
0
  0
DIMENSION
  5
8B
100
AcDbEntity
  8
dimensions
 62
256
370
-1
 48
1.0
  6
BYLAYER
100
AcDbDimension
 10
-7.1999999999999948
 20
-2.0
 30
0.0
 11
-6.6999999999999957
 21
-1.625
 31
0.0
 70
0
 71
8
 72
2
 74
0
 75
0
 41
1.0
 42
0.0
  1

  3
Standard
100
AcDbAlignedDimension
 13
-7.1999999999999966
 23
0.0000000000000044
 33
0.0
 14
-6.1999999999999957
 24
0.0000000000000018
 34
0.0
 50
0.0
100
AcDbRotatedDimension
1001
ACAD
1000
DSTYLE
1002
{
1070
144
1040
1.0
1070
40
1040
1.0
1002
}
  0
DIMENSION
  5
8C
100
AcDbEntity
  8
dimensions
 62
256
370
-1
 48
1.0
  6
BYLAYER
100
AcDbDimension
 10
-6.200000000000002
 20
-1.9999999999999742
 30
0.0
 11
-4.7999999999999918
 21
-1.6249999999999742
 31
0.0
 70
0
 71
8
 72
2
 74
0
 75
0
 41
1.0
 42
0.0
  1

  3
Standard
100
AcDbAlignedDimension
 13
-6.1999999999999957
 23
0.0000000000000018
 33
0.0
 14
-3.3999999999999875
 24
-0.0000000000000009
 34
0.0
 50
0.0
100
AcDbRotatedDimension
1001
ACAD
1000
DSTYLE
1002
{
1070
144
1040
1.0
1070
40
1040
1.0
1002
}
  0
DIMENSION
  5
8D
100
AcDbEntity
  8
dimensions
 62
256
370
-1
 48
1.0
  6
BYLAYER
100
AcDbDimension
 10
-3.400000000000003
 20
-1.9999999999999893
 30
0.0
 11
-2.8999999999999879
 21
-1.6249999999999893
 31
0.0
 70
0
 71
8
 72
2
 74
0
 75
0
 41
1.0
 42
0.0
  1

  3
Standard
100
AcDbAlignedDimension
 13
-3.3999999999999875
 23
-0.0000000000000009
 33
0.0
 14
-2.3999999999999888
 24
-0.0000000000000009
 34
0.0
 50
0.0
100
AcDbRotatedDimension
1001
ACAD
1000
DSTYLE
1002
{
1070
144
1040
1.0
1070
40
1040
1.0
1002
}
  0
DIMENSION
  5
8E
100
AcDbEntity
  8
dimensions
 62
256
370
-1
 48
1.0
  6
BYLAYER
100
AcDbDimension
 10
6.1999999999999984
 20
-0.9999999999999947
 30
0.0
 11
6.7000000000000082
 21
-0.6250000000000435
 31
0.0
 70
128
 71
8
 72
2
 74
0
 75
0
 41
1.0
 42
0.0
  1

  3
Standard
100
AcDbAlignedDimension
 13
6.1999999999999993
 23
-0.0000000000000071
 33
0.0
 14
7.2000000000000011
 24
-0.0000000000000062
 34
0.0
 50
0.0
100
AcDbRotatedDimension
1001
ACAD
1000
DSTYLE
1002
{
1070
279
1070
2
1070
144
1040
1.0
1070
40
1040
1.0
1002
}
  0
DIMENSION
  5
8F
100
AcDbEntity
  8
dimensions
 62
256
370
-1
 48
1.0
  6
BYLAYER
100
AcDbDimension
 10
6.1999999999999984
 20
-0.9999999999999947
 30
0.0
 11
4.800000000000006
 21
-0.6249999999999902
 31
0.0
 70
128
 71
8
 72
2
 74
0
 75
0
 41
1.0
 42
0.0
  1

  3
Standard
100
AcDbAlignedDimension
 13
6.1999999999999993
 23
-0.0000000000000071
 33
0.0
 14
3.4000000000000035
 24
-0.0000000000000036
 34
0.0
 50
0.0
100
AcDbRotatedDimension
1001
ACAD
1000
DSTYLE
1002
{
1070
279
1070
2
1070
144
1040
1.0
1070
40
1040
1.0
1002
}
  0
DIMENSION
  5
90
100
AcDbEntity
  8
dimensions
 62
256
370
-1
 48
1.0
  6
BYLAYER
100
AcDbDimension
 10
3.3999999999999999
 20
-0.999999999999992
 30
0.0
 11
2.9000000000000017
 21
-0.6249999999999991
 31
0.0
 70
128
 71
8
 72
2
 74
0
 75
0
 41
1.0
 42
0.0
  1

  3
Standard
100
AcDbAlignedDimension
 13
3.4000000000000035
 23
-0.0000000000000036
 33
0.0
 14
2.3999999999999964
 24
-0.0000000000000027
 34
0.0
 50
0.0
100
AcDbRotatedDimension
1001
ACAD
1000
DSTYLE
1002
{
1070
279
1070
2
1070
144
1040
1.0
1070
40
1040
1.0
1002
}
  0
DIMENSION
  5
91
100
AcDbEntity
  8
dimensions
 62
256
370
-1
 48
1.0
  6
BYLAYER
100
AcDbDimension
 10
-12.6999999999999957
 20
4.9999999999999787
 30
0.0
 11
-13.0749999999999957
 21
2.5000000000000044
 31
0.0
 70
0
 71
8
 72
2
 74
0
 75
0
 41
1.0
 42
0.0
  1
Zoff=<>
  3
Standard
100
AcDbAlignedDimension
 13
8.7000000000000028
 23
5.0000000000000089
 33
0.0
 14
-8.6999999999999922
 24
0.0
 34
0.0
 50
90.0
100
AcDbRotatedDimension
1001
ACAD
1000
DSTYLE
1002
{
1070
144
1040
1.0
1070
40
1040
1.0
1002
}
  0
DIMENSION
  5
92
100
AcDbEntity
  8
dimensions
 62
256
370
-1
 48
1.0
  6
BYLAYER
100
AcDbDimension
 10
-6.7999999999999821
 20
11.1000000000000156
 30
0.0
 11
-9.9999999999999982
 21
12.7500000000000018
 31
0.0
 70
132
 71
8
 72
2
 74
0
 41
1.0
 42
0.0
  1
R=<>
  3
Standard
100
AcDbRadialDimension
 15
-7.1794733192201914
 25
11.2264911064067388
 35
0.0
 40
0.0
1001
ACAD
1000
DSTYLE
1002
{
1070
279
1070
2
1070
144
1040
1.0
1070
40
1040
1.0
1002
}
  0
LINE
  5
93
100
AcDbEntity
  8
front-bb
 62
256
370
-1
 48
1.0
  6
BYLAYER
100
AcDbLine
 10
-8.7000000000000099
 20
0.0000000000000107
 30
0.0
 11
-8.7000000000000028
 21
11.5000000000000036
 31
0.0
  0
LINE
  5
94
100
AcDbEntity
  8
front-bb
 62
256
370
-1
 48
1.0
  6
BYLAYER
100
AcDbLine
 10
-8.7000000000000028
 20
11.5000000000000036
 30
0.0
 11
8.7000000000000099
 21
11.4999999999999858
 31
0.0
  0
LINE
  5
95
100
AcDbEntity
  8
front-bb
 62
256
370
-1
 48
1.0
  6
BYLAYER
100
AcDbLine
 10
8.7000000000000099
 20
11.4999999999999858
 30
0.0
 11
8.6999999999999957
 21
-0.0000000000000036
 31
0.0
  0
LINE
  5
96
100
AcDbEntity
  8
front-bb
 62
256
370
-1
 48
1.0
  6
BYLAYER
100
AcDbLine
 10
8.6999999999999957
 20
-0.0000000000000036
 30
0.0
 11
-8.7000000000000099
 21
0.0000000000000107
 31
0.0
  0
DIMENSION
  5
97
100
AcDbEntity
  8
dimensions
 62
256
370
-1
 48
1.0
  6
BYLAYER
100
AcDbDimension
 10
-2.4000000000000092
 20
-1.9999999999999867
 30
0.0
 11
0.000000000000004
 21
-1.6249999999999867
 31
0.0
 70
0
 71
8
 72
2
 74
0
 75
0
 41
1.0
 42
0.0
  1

  3
Standard
100
AcDbAlignedDimension
 13
-2.3999999999999888
 23
-0.0000000000000009
 33
0.0
 14
2.3999999999999964
 24
-0.0000000000000027
 34
0.0
 50
0.0
100
AcDbRotatedDimension
1001
ACAD
1000
DSTYLE
1002
{
1070
144
1040
1.0
1070
40
1040
1.0
1002
}
  0
DIMENSION
  5
98
100
AcDbEntity
  8
dimensions
 62
256
370
-1
 48
1.0
  6
BYLAYER
100
AcDbDimension
 10
10.3000000000000043
 20
11.4999999999999964
 30
0.0
 11
9.9250000000000043
 21
10.3861151018961539
 31
0.0
 70
0
 71
8
 72
2
 74
0
 75
0
 41
1.0
 42
0.0
  1

  3
Standard
100
AcDbAlignedDimension
 13
-6.7999999999999963
 23
11.5
 33
0.0
 14
7.2000000000000135
 24
10.8999999999999986
 34
0.0
 50
90.0
100
AcDbRotatedDimension
1001
ACAD
1000
DSTYLE
1002
{
1070
144
1040
1.0
1070
40
1040
1.0
1002
}
  0
LINE
  5
99
100
AcDbEntity
  8
body
 62
256
370
-1
 48
1.0
  6
BYLAYER
100
AcDbLine
 10
-6.5999999999999979
 20
0.0000000000000053
 30
0.0
 11
-6.5999999999999872
 21
10.9000000000000092
 31
0.0
  0
LINE
  5
9A
100
AcDbEntity
  8
body
 62
256
370
-1
 48
1.0
  6
BYLAYER
100
AcDbLine
 10
-6.5999999999999872
 20
10.9000000000000092
 30
0.0
 11
6.6000000000000103
 21
10.899999999999995
 31
0.0
  0
LINE
  5
9B
100
AcDbEntity
  8
body
 62
256
370
-1
 48
1.0
  6
BYLAYER
100
AcDbLine
 10
6.6000000000000094
 20
10.8999999999999915
 30
0.0
 11
6.5999999999999996
 21
-0.0000000000000036
 31
0.0
  0
LINE
  5
9C
100
AcDbEntity
  8
plug
 62
256
370
-1
 48
1.0
  6
BYLAYER
100
AcDbLine
 10
6.2000000000000117
 20
2.5000000000000018
 30
0.0
 11
6.2000000000000437
 21
10.4999999999999964
 31
0.0
  0
LINE
  5
9D
100
AcDbEntity
  8
plug
 62
256
370
-1
 48
1.0
  6
BYLAYER
100
AcDbLine
 10
6.2000000000000073
 20
10.5
 30
0.0
 11
-6.1995238095238072
 21
10.4999999999999964
 31
0.0
  0
LINE
  5
9E
100
AcDbEntity
  8
plug
 62
256
370
-1
 48
1.0
  6
BYLAYER
100
AcDbLine
 10
-6.1995238095238072
 20
10.4999999999999964
 30
0.0
 11
-6.1899999999999942
 21
2.5000000000000075
 31
0.0
  0
LINE
  5
9F
100
AcDbEntity
  8
body
 62
256
370
-1
 48
1.0
  6
BYLAYER
100
AcDbLine
 10
6.5999999999999996
 20
-0.0000000000000036
 30
0.0
 11
-6.5999999999999979
 21
0.0000000000000053
 31
0.0
  0
LINE
  5
A0
100
AcDbEntity
  8
plug
 62
256
370
-1
 48
1.0
  6
BYLAYER
100
AcDbLine
 10
3.4000000000000119
 20
0.0000000000000036
 30
0.0
 11
-3.3999999999999879
 21
0.0000000000000018
 31
0.0
  0
DIMENSION
  5
A1
100
AcDbEntity
  8
dimensions
 62
256
370
-1
 48
1.0
  6
BYLAYER
100
AcDbDimension
 10
-6.5999999999999863
 20
12.0000000000000142
 30
0.0
 11
0.0000000000000129
 21
12.3750000000000142
 31
0.0
 70
0
 71
8
 72
2
 74
0
 75
0
 41
1.0
 42
0.0
  1

  3
Standard
100
AcDbAlignedDimension
 13
-6.5999999999999872
 23
10.9000000000000128
 33
0.0
 14
6.6000000000000121
 24
10.899999999999995
 34
0.0
 50
0.0
100
AcDbRotatedDimension
1001
ACAD
1000
DSTYLE
1002
{
1070
144
1040
1.0
1070
40
1040
1.0
1002
}
  0
LINE
  5
A2
100
AcDbEntity
  8
shield
 62
256
370
-1
 48
1.0
  6
BYLAYER
100
AcDbLine
 10
6.6000000000000094
 20
5.0000000000000036
 30
0.0
 11
8.6999999999999993
 21
5.0000000000000071
 31
0.0
  0
LINE
  5
A3
100
AcDbEntity
  8
shield
 62
256
370
-1
 48
1.0
  6
BYLAYER
100
AcDbLine
 10
7.1999999999999984
 20
5.6000000000000005
 30
0.0
 11
7.2000000000000135
 21
11.4999999999999964
 31
0.0
  0
LINE
  5
A4
100
AcDbEntity
  8
shield
 62
256
370
-1
 48
1.0
  6
BYLAYER
100
AcDbLine
 10
7.2000000000000135
 20
11.4999999999999964
 30
0.0
 11
-7.1999999999999904
 21
11.5000000000000036
 31
0.0
  0
LINE
  5
A5
100
AcDbEntity
  8
shield
 62
256
370
-1
 48
1.0
  6
BYLAYER
100
AcDbLine
 10
-7.1999999999999904
 20
11.5000000000000036
 30
0.0
 11
-7.2000000000000046
 21
5.600000000000005
 31
0.0
  0
LINE
  5
A6
100
AcDbEntity
  8
shield
 62
256
370
-1
 48
1.0
  6
BYLAYER
100
AcDbLine
 10
-8.7000000000000064
 20
5.0000000000000151
 30
0.0
 11
-6.5999999999999943
 21
5.0000000000000133
 31
0.0
  0
LINE
  5
A7
100
AcDbEntity
  8
shield
 62
256
370
-1
 48
1.0
  6
BYLAYER
100
AcDbLine
 10
-6.5999999999999943
 20
5.0000000000000133
 30
0.0
 11
-6.5999999999999872
 21
10.9000000000000092
 31
0.0
  0
LINE
  5
A8
100
AcDbEntity
  8
shield
 62
256
370
-1
 48
1.0
  6
BYLAYER
100
AcDbLine
 10
-6.5999999999999872
 20
10.9000000000000092
 30
0.0
 11
6.6000000000000094
 21
10.8999999999999915
 31
0.0
  0
LINE
  5
A9
100
AcDbEntity
  8
shield
 62
256
370
-1
 48
1.0
  6
BYLAYER
100
AcDbLine
 10
6.6000000000000094
 20
10.8999999999999915
 30
0.0
 11
6.6000000000000094
 21
5.0000000000000036
 31
0.0
  0
LINE
  5
AA
100
AcDbEntity
  8
plug
 62
256
370
-1
 48
1.0
  6
BYLAYER
100
AcDbLine
 10
-6.1899999999999942
 20
2.5000000000000075
 30
0.0
 11
-3.399999999999995
 21
2.5000000000000049
 31
0.0
  0
LINE
  5
AB
100
AcDbEntity
  8
plug
 62
256
370
-1
 48
1.0
  6
BYLAYER
100
AcDbLine
 10
-3.399999999999995
 20
2.5000000000000049
 30
0.0
 11
-3.4000000000000057
 21
1.0000000000000071
 31
0.0
  0
LINE
  5
AC
100
AcDbEntity
  8
plug
 62
256
370
-1
 48
1.0
  6
BYLAYER
100
AcDbLine
 10
-3.4000000000000057
 20
1.0000000000000071
 30
0.0
 11
-3.3999999999999932
 21
-0.0000000000000071
 31
0.0
  0
LINE
  5
AD
100
AcDbEntity
  8
plug
 62
256
370
-1
 48
1.0
  6
BYLAYER
100
AcDbLine
 10
3.4000000000000088
 20
2.5000000000000031
 30
0.0
 11
3.399999999999995
 21
0.9999999999999991
 31
0.0
  0
LINE
  5
AE
100
AcDbEntity
  8
plug
 62
256
370
-1
 48
1.0
  6
BYLAYER
100
AcDbLine
 10
3.399999999999995
 20
0.9999999999999991
 30
0.0
 11
3.400000000000011
 21
-0.0000000000000027
 31
0.0
  0
LINE
  5
AF
100
AcDbEntity
  8
plug
 62
256
370
-1
 48
1.0
  6
BYLAYER
100
AcDbLine
 10
3.4000000000000088
 20
2.5000000000000031
 30
0.0
 11
6.2000000000000135
 21
2.5000000000000027
 31
0.0
  0
DIMENSION
  5
B0
100
AcDbEntity
  8
dimensions
 62
256
370
-1
 48
1.0
  6
BYLAYER
100
AcDbDimension
 10
-6.5999999999999996
 20
-0.9999999999999885
 30
0.0
 11
-5.5094484352294764
 21
-0.6249999999999885
 31
0.0
 70
0
 71
8
 72
2
 74
0
 75
0
 41
1.0
 42
0.0
  1

  3
Standard
100
AcDbAlignedDimension
 13
-6.5999999999999908
 23
-0.3999999999999151
 33
0.0
 14
-6.189999999999988
 24
2.1000000000000147
 34
0.0
 50
0.0
100
AcDbRotatedDimension
1001
ACAD
1000
DSTYLE
1002
{
1070
144
1040
1.0
1070
40
1040
1.0
1002
}
  0
DIMENSION
  5
B1
100
AcDbEntity
  8
dimensions
 62
256
370
-1
 48
1.0
  6
BYLAYER
100
AcDbDimension
 10
6.6000000000000139
 20
12.0000000000000036
 30
0.0
 11
7.7138848981038448
 21
12.3750000000000036
 31
0.0
 70
0
 71
8
 72
2
 74
0
 75
0
 41
1.0
 42
0.0
  1

  3
Standard
100
AcDbAlignedDimension
 13
6.6000000000000076
 23
11.4999999999999964
 33
0.0
 14
7.2000000000000011
 24
11.5000000000000036
 34
0.0
 50
0.0
100
AcDbRotatedDimension
1001
ACAD
1000
DSTYLE
1002
{
1070
144
1040
1.0
1070
40
1040
1.0
1002
}
  0
DIMENSION
  5
B2
100
AcDbEntity
  8
dimensions
 62
256
370
-1
 48
1.0
  6
BYLAYER
100
AcDbDimension
 10
-7.2000000000000091
 20
12.0000000000000071
 30
0.0
 11
-6.0861151018961497
 21
12.3750000000000071
 31
0.0
 70
0
 71
8
 72
2
 74
0
 75
0
 41
1.0
 42
0.0
  1

  3
Standard
100
AcDbAlignedDimension
 13
-7.1999999999999948
 23
11.5000000000000142
 33
0.0
 14
-6.5999999999999934
 24
11.5000000000000018
 34
0.0
 50
0.0
100
AcDbRotatedDimension
1001
ACAD
1000
DSTYLE
1002
{
1070
144
1040
1.0
1070
40
1040
1.0
1002
}
  0
DIMENSION
  5
B3
100
AcDbEntity
  8
dimensions
 62
256
370
-1
 48
1.0
  6
BYLAYER
100
AcDbDimension
 10
-12.7000000000000046
 20
4.9999999999999787
 30
0.0
 11
-13.0750000000000011
 21
6.1138848981038452
 31
0.0
 70
0
 71
8
 72
2
 74
0
 75
0
 41
1.0
 42
0.0
  1

  3
Standard
100
AcDbAlignedDimension
 13
7.199999999999994
 23
5.0000000000000044
 33
0.0
 14
7.200000000000002
 24
5.5999999999999996
 34
0.0
 50
90.0
100
AcDbRotatedDimension
1001
ACAD
1000
DSTYLE
1002
{
1070
144
1040
1.0
1070
40
1040
1.0
1002
}
  0
LINE
  5
B4
100
AcDbEntity
  8
shield
 62
256
370
-1
 48
1.0
  6
BYLAYER
100
AcDbLine
 10
-8.7000000000000028
 20
5.2000000000000135
 30
0.0
 11
-8.6999999999999957
 21
5.6000000000000103
 31
0.0
  0
LINE
  5
B5
100
AcDbEntity
  8
shield
 62
256
370
-1
 48
1.0
  6
BYLAYER
100
AcDbLine
 10
-8.6999999999999957
 20
5.6000000000000103
 30
0.0
 11
-7.2000000000000046
 21
5.600000000000005
 31
0.0
  0
LINE
  5
B6
100
AcDbEntity
  8
shield
 62
256
370
-1
 48
1.0
  6
BYLAYER
100
AcDbLine
 10
7.1999999999999984
 20
5.6000000000000005
 30
0.0
 11
8.7000000000000099
 21
5.6000000000000005
 31
0.0
  0
LINE
  5
B7
100
AcDbEntity
  8
shield
 62
256
370
-1
 48
1.0
  6
BYLAYER
100
AcDbLine
 10
8.6999999999999993
 20
5.6000000000000023
 30
0.0
 11
8.7000000000000099
 21
5.0000000000000044
 31
0.0
  0
LINE
  5
B8
100
AcDbEntity
  8
0
 62
256
370
-1
 48
1.0
  6
CENTER2
100
AcDbLine
 10
0.0
 20
0.0000000000000027
 30
0.0
 11
0.0000000000000036
 21
11.5
 31
0.0
  0
LINE
  5
B9
100
AcDbEntity
  8
0
 62
256
370
-1
 48
1.0
  6
CENTER2
100
AcDbLine
 10
15.0
 20
5.7499999999999982
 30
0.0
 11
-15.0
 21
5.7500000000000044
 31
0.0
  0
ENDSEC
  0
SECTION
  2
OBJECTS
  0
DICTIONARY
  5
C
100
AcDbDictionary
280
0
281
1
  3
ACAD_GROUP
350
D
  3
ACAD_LAYOUT
350
1A
  3
ACAD_MLINESTYLE
350
17
  3
ACAD_PLOTSETTINGS
350
19
  3
ACAD_PLOTSTYLENAME
350
E
  3
AcDbVariableDictionary
350
BA
  3
QCAD_OBJECTS
350
BB
  0
DICTIONARY
  5
D
100
AcDbDictionary
280
0
281
1
  0
ACDBDICTIONARYWDFLT
  5
E
100
AcDbDictionary
281
1
  3
Normal
350
F
100
AcDbDictionaryWithDefault
340
F
  0
ACDBPLACEHOLDER
  5
F
  0
DICTIONARY
  5
17
100
AcDbDictionary
280
0
281
1
  3
Standard
350
18
  0
MLINESTYLE
  5
18
100
AcDbMlineStyle
  2
STANDARD
 70
0
  3

 62
256
 51
90.0
 52
90.0
 71
2
 49
0.5
 62
256
  6
BYLAYER
 49
-0.5
 62
256
  6
BYLAYER
  0
DICTIONARY
  5
19
100
AcDbDictionary
280
0
281
1
  0
DICTIONARY
  5
1A
100
AcDbDictionary
281
1
  3
Layout1
350
1E
  3
Layout2
350
26
  3
Model
350
22
  0
LAYOUT
  5
1E
100
AcDbPlotSettings
  1

  2
none_device
  4

  6

 40
0.0
 41
0.0
 42
0.0
 43
0.0
 44
0.0
 45
0.0
 46
0.0
 47
0.0
 48
0.0
 49
0.0
140
0.0
141
0.0
142
1.0
143
1.0
 70
688
 72
0
 73
0
 74
5
  7

 75
16
147
1.0
148
0.0
149
0.0
100
AcDbLayout
  1
Layout1
 70
1
 71
1
 10
0.0
 20
0.0
 11
420.0
 21
297.0
 12
0.0
 22
0.0
 32
0.0
 14
100000000000000000000.0
 24
100000000000000000000.0
 34
100000000000000000000.0
 15
-100000000000000000000.0
 25
-100000000000000000000.0
 35
-100000000000000000000.0
146
0.0
 13
0.0
 23
0.0
 33
0.0
 16
1.0
 26
0.0
 36
0.0
 17
0.0
 27
1.0
 37
0.0
 76
0
330
1B
  0
LAYOUT
  5
22
100
AcDbPlotSettings
  1

  2
none_device
  4

  6

 40
0.0
 41
0.0
 42
0.0
 43
0.0
 44
0.0
 45
0.0
 46
0.0
 47
0.0
 48
0.0
 49
0.0
140
0.0
141
0.0
142
1.0
143
1.0
 70
1712
 72
0
 73
0
 74
0
  7

 75
0
147
1.0
148
0.0
149
0.0
100
AcDbLayout
  1
Model
 70
1
 71
0
 10
0.0
 20
0.0
 11
12.0
 21
9.0
 12
0.0
 22
0.0
 32
0.0
 14
0.0
 24
0.0
 34
0.0
 15
0.0
 25
0.0
 35
0.0
146
0.0
 13
0.0
 23
0.0
 33
0.0
 16
1.0
 26
0.0
 36
0.0
 17
0.0
 27
1.0
 37
0.0
 76
0
330
1F
  0
LAYOUT
  5
26
100
AcDbPlotSettings
  1

  2
none_device
  4

  6

 40
0.0
 41
0.0
 42
0.0
 43
0.0
 44
0.0
 45
0.0
 46
0.0
 47
0.0
 48
0.0
 49
0.0
140
0.0
141
0.0
142
1.0
143
1.0
 70
688
 72
0
 73
0
 74
5
  7

 75
16
147
1.0
148
0.0
149
0.0
100
AcDbLayout
  1
Layout2
 70
1
 71
2
 10
0.0
 20
0.0
 11
12.0
 21
9.0
 12
0.0
 22
0.0
 32
0.0
 14
0.0
 24
0.0
 34
0.0
 15
0.0
 25
0.0
 35
0.0
146
0.0
 13
0.0
 23
0.0
 33
0.0
 16
1.0
 26
0.0
 36
0.0
 17
0.0
 27
1.0
 37
0.0
 76
0
330
23
  0
DICTIONARY
  5
BA
100
AcDbDictionary
281
1
  3
DIMASSOC
350
BD
  3
HIDETEXT
350
BC
  0
DICTIONARYVAR
  5
BC
100
DictionaryVariables
280
0
  1
2
  0
DICTIONARYVAR
  5
BD
100
DictionaryVariables
280
0
  1
1
  0
DICTIONARY
  5
BB
100
AcDbDictionary
281
1
  3
ColorSettings/BackgroundColor
350
BE
  3
ColorSettings/ColorMode
350
BF
  3
DimensionSettings/AngularFormat
350
C0
  3
DimensionSettings/AngularPrecision
350
C1
  3
DimensionSettings/DecimalPoint
350
C2
  3
DimensionSettings/DimensionFont
350
C3
  3
DimensionSettings/DimensionTextColor
350
C4
  3
DimensionSettings/KeepProportions
350
C5
  3
DimensionSettings/LinearFormat
350
C6
  3
DimensionSettings/LinearPrecision
350
C7
  3
Grid/DisplayGrid00
350
C8
  3
Grid/DisplayGrid01
350
C9
  3
Grid/DisplayGrid02
350
CA
  3
Grid/DisplayGrid03
350
CB
  3
Grid/GridSpacingX00
350
CC
  3
Grid/GridSpacingX01
350
CD
  3
Grid/GridSpacingX02
350
CE
  3
Grid/GridSpacingX03
350
CF
  3
Grid/GridSpacingY00
350
D0
  3
Grid/GridSpacingY01
350
D1
  3
Grid/GridSpacingY02
350
D2
  3
Grid/GridSpacingY03
350
D3
  3
Grid/IsometricGrid00
350
D4
  3
Grid/IsometricGrid01
350
D5
  3
Grid/IsometricGrid02
350
D6
  3
Grid/IsometricGrid03
350
D7
  3
Grid/IsometricProjection00
350
D8
  3
Grid/IsometricProjection01
350
D9
  3
Grid/IsometricProjection02
350
DA
  3
Grid/IsometricProjection03
350
DB
  3
Grid/MetaGridSpacingX00
350
DC
  3
Grid/MetaGridSpacingX01
350
DD
  3
Grid/MetaGridSpacingX02
350
DE
  3
Grid/MetaGridSpacingX03
350
DF
  3
Grid/MetaGridSpacingY00
350
E0
  3
Grid/MetaGridSpacingY01
350
E1
  3
Grid/MetaGridSpacingY02
350
E2
  3
Grid/MetaGridSpacingY03
350
E3
  3
MultiPageSettings/Columns
350
E4
  3
MultiPageSettings/GlueMarginsBottom
350
E5
  3
MultiPageSettings/GlueMarginsLeft
350
E6
  3
MultiPageSettings/GlueMarginsRight
350
E7
  3
MultiPageSettings/GlueMarginsTop
350
E8
  3
MultiPageSettings/PrintCropMarks
350
E9
  3
MultiPageSettings/Rows
350
EA
  3
PageSettings/OffsetX
350
EB
  3
PageSettings/OffsetY
350
EC
  3
PageSettings/PageOrientation
350
ED
  3
PageSettings/PaperHeight
350
EE
  3
PageSettings/PaperWidth
350
EF
  3
PageSettings/Scale
350
F0
  3
PageSettings/ShowPaperBorders
350
F1
  3
PageTagSettings/EnablePageTags
350
F2
  3
PageTagSettings/TagAlignment
350
F3
  3
PageTagSettings/TagFont
350
F4
  3
PageTagSettings/TagPosition
350
F5
  3
QCADVersion
350
F6
  3
UnitSettings/PaperUnit
350
F7
  3
Viewport/ViewportList.data
350
F8
  3
ViewportCenter
350
F9
  3
ViewportHeight
350
FA
  3
ViewportWidth
350
FB
  0
XRECORD
  5
BE
330
BB
100
AcDbXrecord
280
1
1000
Bianco
  0
XRECORD
  5
BF
330
BB
100
AcDbXrecord
280
1
1000
FullColor
  0
XRECORD
  5
C0
330
BB
100
AcDbXrecord
280
1
 90
0
  0
XRECORD
  5
C1
330
BB
100
AcDbXrecord
280
1
 90
0
  0
XRECORD
  5
C2
330
BB
100
AcDbXrecord
280
1
 90
46
  0
XRECORD
  5
C3
330
BB
100
AcDbXrecord
280
1
1000
Cantarell
  0
XRECORD
  5
C4
330
BB
100
AcDbXrecord
280
1
1000
Da livello
  0
XRECORD
  5
C5
330
BB
100
AcDbXrecord
280
1
290
1
  0
XRECORD
  5
C6
330
BB
100
AcDbXrecord
280
1
 90
2
  0
XRECORD
  5
C7
330
BB
100
AcDbXrecord
280
1
 90
4
  0
XRECORD
  5
C8
330
BB
100
AcDbXrecord
280
1
290
1
  0
XRECORD
  5
C9
330
BB
100
AcDbXrecord
280
1
290
1
  0
XRECORD
  5
CA
330
BB
100
AcDbXrecord
280
1
290
1
  0
XRECORD
  5
CB
330
BB
100
AcDbXrecord
280
1
290
1
  0
XRECORD
  5
CC
330
BB
100
AcDbXrecord
280
1
1000
auto
  0
XRECORD
  5
CD
330
BB
100
AcDbXrecord
280
1
1000
auto
  0
XRECORD
  5
CE
330
BB
100
AcDbXrecord
280
1
1000
auto
  0
XRECORD
  5
CF
330
BB
100
AcDbXrecord
280
1
1000
auto
  0
XRECORD
  5
D0
330
BB
100
AcDbXrecord
280
1
1000
0.1
  0
XRECORD
  5
D1
330
BB
100
AcDbXrecord
280
1
1000
auto
  0
XRECORD
  5
D2
330
BB
100
AcDbXrecord
280
1
1000
auto
  0
XRECORD
  5
D3
330
BB
100
AcDbXrecord
280
1
1000
auto
  0
XRECORD
  5
D4
330
BB
100
AcDbXrecord
280
1
290
0
  0
XRECORD
  5
D5
330
BB
100
AcDbXrecord
280
1
290
0
  0
XRECORD
  5
D6
330
BB
100
AcDbXrecord
280
1
290
0
  0
XRECORD
  5
D7
330
BB
100
AcDbXrecord
280
1
290
0
  0
XRECORD
  5
D8
330
BB
100
AcDbXrecord
280
1
 90
65540
  0
XRECORD
  5
D9
330
BB
100
AcDbXrecord
280
1
 90
65537
  0
XRECORD
  5
DA
330
BB
100
AcDbXrecord
280
1
 90
65537
  0
XRECORD
  5
DB
330
BB
100
AcDbXrecord
280
1
 90
65537
  0
XRECORD
  5
DC
330
BB
100
AcDbXrecord
280
1
1000
auto
  0
XRECORD
  5
DD
330
BB
100
AcDbXrecord
280
1
1000
auto
  0
XRECORD
  5
DE
330
BB
100
AcDbXrecord
280
1
1000
auto
  0
XRECORD
  5
DF
330
BB
100
AcDbXrecord
280
1
1000
auto
  0
XRECORD
  5
E0
330
BB
100
AcDbXrecord
280
1
1000
auto
  0
XRECORD
  5
E1
330
BB
100
AcDbXrecord
280
1
1000
auto
  0
XRECORD
  5
E2
330
BB
100
AcDbXrecord
280
1
1000
auto
  0
XRECORD
  5
E3
330
BB
100
AcDbXrecord
280
1
1000
auto
  0
XRECORD
  5
E4
330
BB
100
AcDbXrecord
280
1
 90
1
  0
XRECORD
  5
E5
330
BB
100
AcDbXrecord
280
1
 40
10.0
  0
XRECORD
  5
E6
330
BB
100
AcDbXrecord
280
1
 40
10.0
  0
XRECORD
  5
E7
330
BB
100
AcDbXrecord
280
1
 40
10.0
  0
XRECORD
  5
E8
330
BB
100
AcDbXrecord
280
1
 40
10.0
  0
XRECORD
  5
E9
330
BB
100
AcDbXrecord
280
1
290
0
  0
XRECORD
  5
EA
330
BB
100
AcDbXrecord
280
1
 90
1
  0
XRECORD
  5
EB
330
BB
100
AcDbXrecord
280
1
 40
0.0
  0
XRECORD
  5
EC
330
BB
100
AcDbXrecord
280
1
 40
0.0
  0
XRECORD
  5
ED
330
BB
100
AcDbXrecord
280
1
1000
Portrait
  0
XRECORD
  5
EE
330
BB
100
AcDbXrecord
280
1
 40
297.0
  0
XRECORD
  5
EF
330
BB
100
AcDbXrecord
280
1
 40
210.0
  0
XRECORD
  5
F0
330
BB
100
AcDbXrecord
280
1
1000
1:1
  0
XRECORD
  5
F1
330
BB
100
AcDbXrecord
280
1
290
1
  0
XRECORD
  5
F2
330
BB
100
AcDbXrecord
280
1
290
0
  0
XRECORD
  5
F3
330
BB
100
AcDbXrecord
280
1
1000
Inside
  0
XRECORD
  5
F4
330
BB
100
AcDbXrecord
280
1
1000
Arial,10,-1,5,50,0,0,0,0,0
  0
XRECORD
  5
F5
330
BB
100
AcDbXrecord
280
1
1000
TopLeft
  0
XRECORD
  5
F6
330
BB
100
AcDbXrecord
280
1
1000
3.28.1
  0
XRECORD
  5
F7
330
BB
100
AcDbXrecord
280
1
 90
4
  0
XRECORD
  5
F8
330
BB
100
AcDbXrecord
280
1
1000
00_Single.ui
  0
XRECORD
  5
FA
330
BB
100
AcDbXrecord
280
1
 40
25.3153165938864646
  0
XRECORD
  5
FB
330
BB
100
AcDbXrecord
280
1
 40
50.9713155021834083
  0
ENDSEC
  0
EOF
