999
dxflib 3.26.4.0
  0
SECTION
  2
HEADER
  9
$ACADVER
  1
AC1015
  9
$HANDSEED
  5
FFFF
  9
$DIMADEC
 70
0
  9
$DIMASZ
 40
2.5
  9
$DIMATFIT
 70
0
  9
$DIMAUNIT
 70
0
  9
$DIMAZIN
 70
2
  9
$DIMBLK
  1
0
  9
$DIMBLK1
  1
0
  9
$DIMBLK2
  1
0
  9
$DIMDEC
 70
4
  9
$DIMDLI
 40
5.0
  9
$DIMDSEP
 70
46
  9
$DIMEXE
 40
1.25
  9
$DIMEXO
 40
0.625
  9
$DIMGAP
 40
0.625
  9
$DIMLFAC
 40
1.0
  9
$DIMLUNIT
 70
2
  9
$DIMSCALE
 40
1.0
  9
$DIMTAD
 70
1
  9
$DIMTIH
 70
0
  9
$DIMTSZ
 40
0.0
  9
$DIMTXT
 40
2.5
  9
$DIMZIN
 70
8
  9
$DWGCODEPAGE
  3
ANSI_1252
  9
$INSUNITS
 70
4
  9
$LTSCALE
 40
1.0
  9
$MAXACTVP
 70
64
  9
$MEASUREMENT
 70
1
  9
$MIRRTEXT
 70
0
  9
$PDMODE
 70
0
  9
$PDSIZE
 40
0.0
  0
ENDSEC
  0
SECTION
  2
TABLES
  0
TABLE
  2
VPORT
  5
8
100
AcDbSymbolTable
 70
1
  0
VPORT
  5
30
100
AcDbSymbolTableRecord
100
AcDbViewportTableRecord
  2
*Active
 70
0
 10
0.0
 20
0.0
 11
1.0
 21
1.0
 12
286.3055555555554861
 22
148.5
 13
0.0
 23
0.0
 14
10.0
 24
10.0
 15
10.0
 25
10.0
 16
0.0
 26
0.0
 36
1.0
 17
0.0
 27
0.0
 37
0.0
 40
297.0
 41
1.92798353909465
 42
50.0
 43
0.0
 44
0.0
 50
0.0
 51
0.0
 71
0
 72
100
 73
1
 74
3
 75
1
 76
1
 77
0
 78
0
281
0
 65
1
110
0.0
120
0.0
130
0.0
111
1.0
121
0.0
131
0.0
112
0.0
122
1.0
132
0.0
 79
0
146
0.0
  0
ENDTAB
  0
TABLE
  2
LTYPE
  5
5
100
AcDbSymbolTable
 70
41
  0
LTYPE
  5
16
100
AcDbSymbolTableRecord
100
AcDbLinetypeTableRecord
  2
Continuous
 70
0
  3
Solid line
 72
65
 73
0
 40
0.0
  0
LTYPE
  5
31
100
AcDbSymbolTableRecord
100
AcDbLinetypeTableRecord
  2
ACAD_ISO07W100
 70
0
  3
ISO dot . . . . . . . . . . . . . . . . . . . . 
 72
65
 73
2
 40
3.0
 49
0.1
 74
0
 49
-2.8999999999999999
 74
0
  0
LTYPE
  5
32
100
AcDbSymbolTableRecord
100
AcDbLinetypeTableRecord
  2
CENTERX2
 70
0
  3
Center (2x) ________  __  ________  __  _____
 72
65
 73
4
 40
101.6000000000000085
 49
63.5
 74
0
 49
-12.6999999999999993
 74
0
 49
12.6999999999999993
 74
0
 49
-12.6999999999999993
 74
0
  0
LTYPE
  5
33
100
AcDbSymbolTableRecord
100
AcDbLinetypeTableRecord
  2
ACAD_ISO05W100
 70
0
  3
ISO long-dash double-dot ____ .. ____ .. ____ . 
 72
65
 73
6
 40
33.0000000000000071
 49
24.0
 74
0
 49
-2.9500000000000002
 74
0
 49
0.1
 74
0
 49
-2.9000000000000004
 74
0
 49
0.1
 74
0
 49
-2.9500000000000002
 74
0
  0
LTYPE
  5
34
100
AcDbSymbolTableRecord
100
AcDbLinetypeTableRecord
  2
DIVIDE
 70
0
  3
Divide ____ . . ____ . . ____ . . ____ . . ____
 72
65
 73
6
 40
31.7500000000000036
 49
12.6999999999999993
 74
0
 49
-6.2999999999999998
 74
0
 49
0.1
 74
0
 49
-6.25
 74
0
 49
0.1
 74
0
 49
-6.2999999999999998
 74
0
  0
LTYPE
  5
35
100
AcDbSymbolTableRecord
100
AcDbLinetypeTableRecord
  2
ACAD_ISO10W100
 70
0
  3
ISO dash dot __ . __ . __ . __ . __ . __ . __ . 
 72
65
 73
4
 40
18.0
 49
12.0
 74
0
 49
-2.9500000000000002
 74
0
 49
0.1
 74
0
 49
-2.9500000000000002
 74
0
  0
LTYPE
  5
36
100
AcDbSymbolTableRecord
100
AcDbLinetypeTableRecord
  2
DASHEDX2
 70
0
  3
Dashed (2x) ____  ____  ____  ____  ____  ___
 72
65
 73
2
 40
38.0999999999999943
 49
25.3999999999999986
 74
0
 49
-12.6999999999999993
 74
0
  0
LTYPE
  5
37
100
AcDbSymbolTableRecord
100
AcDbLinetypeTableRecord
  2
CENTER2
 70
0
  3
Center (.5x) ___ _ ___ _ ___ _ ___ _ ___ _ ___
 72
65
 73
4
 40
28.5750000000000028
 49
19.0500000000000007
 74
0
 49
-3.1749999999999998
 74
0
 49
3.1749999999999998
 74
0
 49
-3.1749999999999998
 74
0
  0
LTYPE
  5
38
100
AcDbSymbolTableRecord
100
AcDbLinetypeTableRecord
  2
DASHED2
 70
0
  3
Dashed (.5x) _ _ _ _ _ _ _ _ _ _ _ _ _ _ _ _ _ 
 72
65
 73
2
 40
9.5249999999999986
 49
6.3499999999999996
 74
0
 49
-3.1749999999999998
 74
0
  0
LTYPE
  5
39
100
AcDbSymbolTableRecord
100
AcDbLinetypeTableRecord
  2
ACAD_ISO03W100
 70
0
  3
ISO dash space __    __    __    __    __    __
 72
65
 73
2
 40
30.0
 49
12.0
 74
0
 49
-18.0
 74
0
  0
LTYPE
  5
3A
100
AcDbSymbolTableRecord
100
AcDbLinetypeTableRecord
  2
HIDDEN2
 70
0
  3
Hidden (.5x) _ _ _ _ _ _ _ _ _ _ _ _ _ _ _ _ _ 
 72
65
 73
2
 40
4.7624999999999993
 49
3.1749999999999998
 74
0
 49
-1.5874999999999999
 74
0
  0
LTYPE
  5
3B
100
AcDbSymbolTableRecord
100
AcDbLinetypeTableRecord
  2
DIVIDE2
 70
0
  3
Divide (.5x) __..__..__..__..__..__..__..__.._
 72
65
 73
6
 40
15.8749999999999982
 49
6.3499999999999996
 74
0
 49
-3.125
 74
0
 49
0.1
 74
0
 49
-3.0750000000000002
 74
0
 49
0.1
 74
0
 49
-3.125
 74
0
  0
LTYPE
  5
14
100
AcDbSymbolTableRecord
100
AcDbLinetypeTableRecord
  2
BYBLOCK
 70
0
  3

 72
65
 73
0
 40
0.0
  0
LTYPE
  5
3C
100
AcDbSymbolTableRecord
100
AcDbLinetypeTableRecord
  2
PHANTOM2
 70
0
  3
Phantom (.5x) ___ _ _ ___ _ _ ___ _ _ ___ _ _
 72
65
 73
6
 40
31.7500000000000036
 49
15.875
 74
0
 49
-3.1749999999999998
 74
0
 49
3.1749999999999998
 74
0
 49
-3.1749999999999998
 74
0
 49
3.1749999999999998
 74
0
 49
-3.1749999999999998
 74
0
  0
LTYPE
  5
3D
100
AcDbSymbolTableRecord
100
AcDbLinetypeTableRecord
  2
DOT2
 70
0
  3
Dot (.5x) ........................................
 72
65
 73
2
 40
3.1749999999999998
 49
0.1
 74
0
 49
-3.0749999999999997
 74
0
  0
LTYPE
  5
3E
100
AcDbSymbolTableRecord
100
AcDbLinetypeTableRecord
  2
ACAD_ISO14W100
 70
0
  3
ISO dash triple-dot __ . . . __ . . . __ . . . _
 72
65
 73
8
 40
24.0000000000000036
 49
12.0
 74
0
 49
-2.9500000000000002
 74
0
 49
0.1
 74
0
 49
-2.9000000000000004
 74
0
 49
0.1
 74
0
 49
-2.9000000000000004
 74
0
 49
0.1
 74
0
 49
-2.9500000000000002
 74
0
  0
LTYPE
  5
3F
100
AcDbSymbolTableRecord
100
AcDbLinetypeTableRecord
  2
PHANTOMX2
 70
0
  3
Phantom (2x) ____________    ____    ____   _
 72
65
 73
6
 40
127.0000000000000142
 49
63.5
 74
0
 49
-12.6999999999999993
 74
0
 49
12.6999999999999993
 74
0
 49
-12.6999999999999993
 74
0
 49
12.6999999999999993
 74
0
 49
-12.6999999999999993
 74
0
  0
LTYPE
  5
40
100
AcDbSymbolTableRecord
100
AcDbLinetypeTableRecord
  2
DASHDOTX2
 70
0
  3
Dash dot (2x) ____  .  ____  .  ____  .  ___
 72
65
 73
4
 40
50.7999999999999972
 49
25.3999999999999986
 74
0
 49
-12.6499999999999986
 74
0
 49
0.1
 74
0
 49
-12.6499999999999986
 74
0
  0
LTYPE
  5
41
100
AcDbSymbolTableRecord
100
AcDbLinetypeTableRecord
  2
DIVIDEX2
 70
0
  3
Divide (2x) ________  .  .  ________  .  .  _
 72
65
 73
6
 40
63.5
 49
25.3999999999999986
 74
0
 49
-12.6499999999999986
 74
0
 49
0.1
 74
0
 49
-12.5999999999999979
 74
0
 49
0.1
 74
0
 49
-12.6499999999999986
 74
0
  0
LTYPE
  5
15
100
AcDbSymbolTableRecord
100
AcDbLinetypeTableRecord
  2
BYLAYER
 70
0
  3

 72
65
 73
0
 40
0.0
  0
LTYPE
  5
42
100
AcDbSymbolTableRecord
100
AcDbLinetypeTableRecord
  2
DASHDOT2
 70
0
  3
Dash dot (.5x) _._._._._._._._._._._._._._._.
 72
65
 73
4
 40
12.6999999999999993
 49
6.3499999999999996
 74
0
 49
-3.125
 74
0
 49
0.1
 74
0
 49
-3.125
 74
0
  0
LTYPE
  5
43
100
AcDbSymbolTableRecord
100
AcDbLinetypeTableRecord
  2
ACAD_ISO02W100
 70
0
  3
ISO dash __ __ __ __ __ __ __ __ __ __ __ __ __
 72
65
 73
2
 40
15.0
 49
12.0
 74
0
 49
-3.0
 74
0
  0
LTYPE
  5
44
100
AcDbSymbolTableRecord
100
AcDbLinetypeTableRecord
  2
ACAD_ISO06W100
 70
0
  3
ISO long-dash triple-dot ____ ... ____ ... ____
 72
65
 73
8
 40
36.0000000000000071
 49
24.0
 74
0
 49
-2.9500000000000002
 74
0
 49
0.1
 74
0
 49
-2.9000000000000004
 74
0
 49
0.1
 74
0
 49
-2.9000000000000004
 74
0
 49
0.1
 74
0
 49
-2.9500000000000002
 74
0
  0
LTYPE
  5
45
100
AcDbSymbolTableRecord
100
AcDbLinetypeTableRecord
  2
BORDER
 70
0
  3
Border __ __ . __ __ . __ __ . __ __ . __ __ .
 72
65
 73
6
 40
44.4499999999999957
 49
12.6999999999999993
 74
0
 49
-6.3499999999999996
 74
0
 49
12.6999999999999993
 74
0
 49
-6.2999999999999998
 74
0
 49
0.1
 74
0
 49
-6.2999999999999998
 74
0
  0
LTYPE
  5
46
100
AcDbSymbolTableRecord
100
AcDbLinetypeTableRecord
  2
PHANTOM
 70
0
  3
Phantom ______  __  __  ______  __  __  ______ 
 72
65
 73
6
 40
63.5000000000000071
 49
31.75
 74
0
 49
-6.3499999999999996
 74
0
 49
6.3499999999999996
 74
0
 49
-6.3499999999999996
 74
0
 49
6.3499999999999996
 74
0
 49
-6.3499999999999996
 74
0
  0
LTYPE
  5
47
100
AcDbSymbolTableRecord
100
AcDbLinetypeTableRecord
  2
HIDDEN
 70
0
  3
Hidden __ __ __ __ __ __ __ __ __ __ __ __ __ __
 72
65
 73
2
 40
9.5249999999999986
 49
6.3499999999999996
 74
0
 49
-3.1749999999999998
 74
0
  0
LTYPE
  5
48
100
AcDbSymbolTableRecord
100
AcDbLinetypeTableRecord
  2
DOT
 70
0
  3
Dot . . . . . . . . . . . . . . . . . . . . . . . .
 72
65
 73
2
 40
6.3499999999999996
 49
0.1
 74
0
 49
-6.25
 74
0
  0
LTYPE
  5
49
100
AcDbSymbolTableRecord
100
AcDbLinetypeTableRecord
  2
ACAD_ISO11W100
 70
0
  3
ISO double-dash dot __ __ . __ __ . __ __ . __ _
 72
65
 73
6
 40
33.0
 49
12.0
 74
0
 49
-3.0
 74
0
 49
12.0
 74
0
 49
-2.9500000000000002
 74
0
 49
0.1
 74
0
 49
-2.9500000000000002
 74
0
  0
LTYPE
  5
4A
100
AcDbSymbolTableRecord
100
AcDbLinetypeTableRecord
  2
ACAD_ISO15W100
 70
0
  3
ISO double-dash triple-dot __ __ . . . __ __ . .
 72
65
 73
10
 40
39.0000000000000071
 49
12.0
 74
0
 49
-3.0
 74
0
 49
12.0
 74
0
 49
-2.9500000000000002
 74
0
 49
0.1
 74
0
 49
-2.9000000000000004
 74
0
 49
0.1
 74
0
 49
-2.9000000000000004
 74
0
 49
0.1
 74
0
 49
-2.9500000000000002
 74
0
  0
LTYPE
  5
4B
100
AcDbSymbolTableRecord
100
AcDbLinetypeTableRecord
  2
DASHED
 70
0
  3
Dashed __ __ __ __ __ __ __ __ __ __ __ __ __ _
 72
65
 73
2
 40
19.0499999999999972
 49
12.6999999999999993
 74
0
 49
-6.3499999999999996
 74
0
  0
LTYPE
  5
4C
100
AcDbSymbolTableRecord
100
AcDbLinetypeTableRecord
  2
ACAD_ISO09W100
 70
0
  3
ISO long-dash double-short-dash ____ __ __ ____
 72
65
 73
6
 40
45.0
 49
24.0
 74
0
 49
-3.0
 74
0
 49
6.0
 74
0
 49
-3.0
 74
0
 49
6.0
 74
0
 49
-3.0
 74
0
  0
LTYPE
  5
4D
100
AcDbSymbolTableRecord
100
AcDbLinetypeTableRecord
  2
ACAD_ISO12W100
 70
0
  3
ISO dash double-dot __ . . __ . . __ . . __ . . 
 72
65
 73
6
 40
21.0
 49
12.0
 74
0
 49
-2.9500000000000002
 74
0
 49
0.1
 74
0
 49
-2.9000000000000004
 74
0
 49
0.1
 74
0
 49
-2.9500000000000002
 74
0
  0
LTYPE
  5
4E
100
AcDbSymbolTableRecord
100
AcDbLinetypeTableRecord
  2
BORDER2
 70
0
  3
Border (.5x) __.__.__.__.__.__.__.__.__.__.__.
 72
65
 73
6
 40
22.2250000000000014
 49
6.3499999999999996
 74
0
 49
-3.1749999999999998
 74
0
 49
6.3499999999999996
 74
0
 49
-3.125
 74
0
 49
0.1
 74
0
 49
-3.125
 74
0
  0
LTYPE
  5
4F
100
AcDbSymbolTableRecord
100
AcDbLinetypeTableRecord
  2
BORDERX2
 70
0
  3
Border (2x) ____  ____  .  ____  ____  .  ___
 72
65
 73
6
 40
88.8999999999999773
 49
25.3999999999999986
 74
0
 49
-12.6999999999999993
 74
0
 49
25.3999999999999986
 74
0
 49
-12.6499999999999986
 74
0
 49
0.1
 74
0
 49
-12.6499999999999986
 74
0
  0
LTYPE
  5
50
100
AcDbSymbolTableRecord
100
AcDbLinetypeTableRecord
  2
ACAD_ISO08W100
 70
0
  3
ISO long-dash short-dash ____ __ ____ __ ____ _
 72
65
 73
4
 40
36.0
 49
24.0
 74
0
 49
-3.0
 74
0
 49
6.0
 74
0
 49
-3.0
 74
0
  0
LTYPE
  5
51
100
AcDbSymbolTableRecord
100
AcDbLinetypeTableRecord
  2
DOTX2
 70
0
  3
Dot (2x) .  .  .  .  .  .  .  .  .  .  .  .  .  .
 72
65
 73
2
 40
12.6999999999999993
 49
0.1
 74
0
 49
-12.5999999999999996
 74
0
  0
LTYPE
  5
52
100
AcDbSymbolTableRecord
100
AcDbLinetypeTableRecord
  2
HIDDENX2
 70
0
  3
Hidden (2x) ____ ____ ____ ____ ____ ____ ____ 
 72
65
 73
2
 40
19.0499999999999972
 49
12.6999999999999993
 74
0
 49
-6.3499999999999996
 74
0
  0
LTYPE
  5
53
100
AcDbSymbolTableRecord
100
AcDbLinetypeTableRecord
  2
ACAD_ISO13W100
 70
0
  3
ISO double-dash double-dot __ __ . . __ __ . . _
 72
65
 73
8
 40
36.0000000000000071
 49
12.0
 74
0
 49
-3.0
 74
0
 49
12.0
 74
0
 49
-2.9500000000000002
 74
0
 49
0.1
 74
0
 49
-2.9000000000000004
 74
0
 49
0.1
 74
0
 49
-2.9500000000000002
 74
0
  0
LTYPE
  5
54
100
AcDbSymbolTableRecord
100
AcDbLinetypeTableRecord
  2
CENTER
 70
0
  3
Center ____ _ ____ _ ____ _ ____ _ ____ _ ____
 72
65
 73
4
 40
50.8000000000000043
 49
31.75
 74
0
 49
-6.3499999999999996
 74
0
 49
6.3499999999999996
 74
0
 49
-6.3499999999999996
 74
0
  0
LTYPE
  5
55
100
AcDbSymbolTableRecord
100
AcDbLinetypeTableRecord
  2
ACAD_ISO04W100
 70
0
  3
ISO long-dash dot ____ . ____ . ____ . ____ . _
 72
65
 73
4
 40
30.0
 49
24.0
 74
0
 49
-2.9500000000000002
 74
0
 49
0.1
 74
0
 49
-2.9500000000000002
 74
0
  0
LTYPE
  5
56
100
AcDbSymbolTableRecord
100
AcDbLinetypeTableRecord
  2
DASHDOT
 70
0
  3
Dash dot __ . __ . __ . __ . __ . __ . __ . __
 72
65
 73
4
 40
25.4000000000000021
 49
12.6999999999999993
 74
0
 49
-6.2999999999999998
 74
0
 49
0.1
 74
0
 49
-6.2999999999999998
 74
0
  0
ENDTAB
  0
TABLE
  2
LAYER
  5
2
100
AcDbSymbolTable
 70
7
  0
LAYER
  5
57
100
AcDbSymbolTableRecord
100
AcDbLayerTableRecord
  2
tooth
 70
1
 62
7
420
16777215
  6
Continuous
370
5
390
F
  0
LAYER
  5
58
100
AcDbSymbolTableRecord
100
AcDbLayerTableRecord
  2
separators
 70
1
 62
2
420
16776960
  6
Continuous
370
5
390
F
  0
LAYER
  5
59
100
AcDbSymbolTableRecord
100
AcDbLayerTableRecord
  2
heatsink
 70
0
 62
7
420
16777215
  6
Continuous
370
5
390
F
  0
LAYER
  5
5A
100
AcDbSymbolTableRecord
100
AcDbLayerTableRecord
  2
outline
 70
1
 62
94
420
32768
  6
Continuous
370
5
390
F
  0
LAYER
  5
10
100
AcDbSymbolTableRecord
100
AcDbLayerTableRecord
  2
0
 70
1
 62
7
420
16777215
  6
Continuous
370
25
390
F
  0
LAYER
  5
5B
100
AcDbSymbolTableRecord
100
AcDbLayerTableRecord
  2
fins
 70
1
 62
2
420
16776960
  6
Continuous
370
5
390
F
  0
LAYER
  5
5C
100
AcDbSymbolTableRecord
100
AcDbLayerTableRecord
  2
holes
 70
1
 62
14
420
8388608
  6
Continuous
370
18
390
F
  0
ENDTAB
  0
TABLE
  2
STYLE
  5
3
100
AcDbSymbolTable
 70
1
  0
STYLE
  5
5D
100
AcDbSymbolTableRecord
100
AcDbTextStyleTableRecord
  2
Standard
 70
0
 40
0.0
 41
1.0
 50
0.0
 71
0
 42
2.5
  3

  4

1001
ACAD
1000
txt
1071
0
  0
ENDTAB
  0
TABLE
  2
VIEW
  5
6
100
AcDbSymbolTable
 70
0
  0
ENDTAB
  0
TABLE
  2
UCS
  5
7
100
AcDbSymbolTable
 70
0
  0
ENDTAB
  0
TABLE
  2
APPID
  5
9
100
AcDbSymbolTable
 70
1
  0
APPID
  5
12
100
AcDbSymbolTableRecord
100
AcDbRegAppTableRecord
  2
ACAD
 70
0
  0
APPID
  5
5E
100
AcDbSymbolTableRecord
100
AcDbRegAppTableRecord
  2
QCAD
 70
0
  0
ENDTAB
  0
TABLE
  2
DIMSTYLE
  5
A
100
AcDbSymbolTable
 70
1
100
AcDbDimStyleTable
 71
0
  0
DIMSTYLE
105
27
100
AcDbSymbolTableRecord
100
AcDbDimStyleTableRecord
  2
Standard
 41
2.5
 42
0.625
 43
3.75
 44
1.25
 70
0
 73
0
 74
0
 77
1
 78
8
140
2.5
141
2.5
143
0.03937007874016
147
0.625
171
3
172
1
271
2
272
2
274
3
278
44
283
0
284
8
340
5D
  0
ENDTAB
  0
TABLE
  2
BLOCK_RECORD
  5
1
100
AcDbSymbolTable
 70
1
  0
BLOCK_RECORD
  5
1F
100
AcDbSymbolTableRecord
100
AcDbBlockTableRecord
  2
*Model_Space
340
22
  0
BLOCK_RECORD
  5
1B
100
AcDbSymbolTableRecord
100
AcDbBlockTableRecord
  2
*Paper_Space
340
1E
  0
BLOCK_RECORD
  5
23
100
AcDbSymbolTableRecord
100
AcDbBlockTableRecord
  2
*Paper_Space0
340
26
  0
ENDTAB
  0
ENDSEC
  0
SECTION
  2
BLOCKS
  0
BLOCK
  5
20
100
AcDbEntity
  8
0
100
AcDbBlockBegin
  2
*Model_Space
 70
0
 10
0.0
 20
0.0
 30
0.0
  3
*Model_Space
  1

  0
ENDBLK
  5
21
100
AcDbEntity
  8
0
100
AcDbBlockEnd
  0
BLOCK
  5
1C
100
AcDbEntity
 67
1
  8
0
100
AcDbBlockBegin
  2
*Paper_Space
 70
0
 10
0.0
 20
0.0
 30
0.0
  3
*Paper_Space
  1

  0
ENDBLK
  5
1D
100
AcDbEntity
 67
1
  8
0
100
AcDbBlockEnd
  0
BLOCK
  5
24
100
AcDbEntity
  8
0
100
AcDbBlockBegin
  2
*Paper_Space0
 70
0
 10
0.0
 20
0.0
 30
0.0
  3
*Paper_Space0
  1

  0
ENDBLK
  5
25
100
AcDbEntity
  8
0
100
AcDbBlockEnd
  0
ENDSEC
  0
SECTION
  2
ENTITIES
  0
LINE
  5
5F
100
AcDbEntity
  8
fins
 62
7
420
16777215
370
25
 48
1.0
  6
Continuous
100
AcDbLine
 10
39.4988450000000029
 20
-11.4752944856999903
 30
0.0
 11
39.4988449999999958
 21
-11.875294485699996
 31
0.0
  0
LINE
  5
60
100
AcDbEntity
  8
fins
 62
7
420
16777215
370
25
 48
1.0
  6
Continuous
100
AcDbLine
 10
4.5000450000000001
 20
-11.4752944856999761
 30
0.0
 11
4.5000450000000001
 21
-11.8752944856999534
 31
0.0
  0
LINE
  5
61
100
AcDbEntity
  8
fins
 62
7
420
16777215
370
25
 48
1.0
  6
Continuous
100
AcDbLine
 10
39.4988450000000029
 20
-7.875294485699996
 30
0.0
 11
39.4988450000000029
 21
-8.175294485699979
 31
0.0
  0
LINE
  5
62
100
AcDbEntity
  8
fins
 62
7
420
16777215
370
25
 48
1.0
  6
Continuous
100
AcDbLine
 10
39.4988450000000029
 20
-8.175294485699979
 30
0.0
 11
4.5000450000000285
 21
-8.1752944856999221
 31
0.0
  0
LINE
  5
63
100
AcDbEntity
  8
fins
 62
7
420
16777215
370
25
 48
1.0
  6
Continuous
100
AcDbLine
 10
4.5000450000000285
 20
-8.1752944856999221
 30
0.0
 11
4.5000450000000001
 21
-7.8752944856999818
 31
0.0
  0
LINE
  5
64
100
AcDbEntity
  8
fins
 62
7
420
16777215
370
25
 48
1.0
  6
Continuous
100
AcDbLine
 10
4.5000450000000001
 20
-7.4752944856999761
 30
0.0
 11
4.5000450000000001
 21
-7.1752944856999648
 31
0.0
  0
LINE
  5
65
100
AcDbEntity
  8
fins
 62
7
420
16777215
370
25
 48
1.0
  6
Continuous
100
AcDbLine
 10
4.5000450000000001
 20
-7.1752944856999648
 30
0.0
 11
39.4988450000000029
 21
-7.175294485699979
 31
0.0
  0
LINE
  5
66
100
AcDbEntity
  8
fins
 62
7
420
16777215
370
25
 48
1.0
  6
Continuous
100
AcDbLine
 10
39.4988450000000029
 20
-7.175294485699979
 30
0.0
 11
39.4988450000000029
 21
-7.4752944856999903
 31
0.0
  0
LINE
  5
67
100
AcDbEntity
  8
fins
 62
7
420
16777215
370
25
 48
1.0
  6
Continuous
100
AcDbLine
 10
4.5000450000000143
 20
-9.4752944856999619
 30
0.0
 11
4.5000450000000285
 21
-9.1752944856999221
 31
0.0
  0
LINE
  5
68
100
AcDbEntity
  8
fins
 62
7
420
16777215
370
25
 48
1.0
  6
Continuous
100
AcDbLine
 10
4.5000450000000285
 20
-9.1752944856999221
 30
0.0
 11
39.4988450000000029
 21
-9.175294485699979
 31
0.0
  0
LINE
  5
69
100
AcDbEntity
  8
fins
 62
7
420
16777215
370
25
 48
1.0
  6
Continuous
100
AcDbLine
 10
39.4988450000000029
 20
-9.175294485699979
 30
0.0
 11
39.4988450000000029
 21
-9.4752944856999903
 31
0.0
  0
LINE
  5
6A
100
AcDbEntity
  8
fins
 62
7
420
16777215
370
25
 48
1.0
  6
Continuous
100
AcDbLine
 10
39.4988450000000029
 20
-9.875294485699996
 30
0.0
 11
39.4988450000000029
 21
-10.175294485699979
 31
0.0
  0
LINE
  5
6B
100
AcDbEntity
  8
fins
 62
7
420
16777215
370
25
 48
1.0
  6
Continuous
100
AcDbLine
 10
39.4988450000000029
 20
-10.175294485699979
 30
0.0
 11
4.5000450000000001
 21
-10.1752944857000074
 31
0.0
  0
LINE
  5
6C
100
AcDbEntity
  8
fins
 62
7
420
16777215
370
25
 48
1.0
  6
Continuous
100
AcDbLine
 10
4.5000450000000001
 20
-10.1752944857000074
 30
0.0
 11
4.5000450000000143
 21
-9.8752944856999534
 31
0.0
  0
LINE
  5
6D
100
AcDbEntity
  8
fins
 62
7
420
16777215
370
25
 48
1.0
  6
Continuous
100
AcDbLine
 10
4.5000450000000001
 20
-11.1752944856999648
 30
0.0
 11
39.4988450000000029
 21
-11.175294485699979
 31
0.0
  0
LINE
  5
6E
100
AcDbEntity
  8
fins
 62
7
420
16777215
370
25
 48
1.0
  6
Continuous
100
AcDbLine
 10
39.4988450000000029
 20
-11.175294485699979
 30
0.0
 11
39.4988450000000029
 21
-11.4752944856999903
 31
0.0
  0
LINE
  5
6F
100
AcDbEntity
  8
fins
 62
7
420
16777215
370
25
 48
1.0
  6
Continuous
100
AcDbLine
 10
4.5000450000000001
 20
-11.4752944856999761
 30
0.0
 11
4.5000450000000001
 21
-11.1752944856999648
 31
0.0
  0
LINE
  5
70
100
AcDbEntity
  8
fins
 62
7
420
16777215
370
25
 48
1.0
  6
Continuous
100
AcDbLine
 10
39.4988449999999958
 20
-11.875294485699996
 30
0.0
 11
39.4988449999999958
 21
-12.175294485699979
 31
0.0
  0
LINE
  5
71
100
AcDbEntity
  8
fins
 62
7
420
16777215
370
25
 48
1.0
  6
Continuous
100
AcDbLine
 10
39.4988449999999958
 20
-12.175294485699979
 30
0.0
 11
4.5000450000000001
 21
-12.175294485699979
 31
0.0
  0
LINE
  5
72
100
AcDbEntity
  8
fins
 62
7
420
16777215
370
25
 48
1.0
  6
Continuous
100
AcDbLine
 10
4.5000450000000001
 20
-12.175294485699979
 30
0.0
 11
4.5000450000000001
 21
-11.8752944856999534
 31
0.0
  0
LINE
  5
73
100
AcDbEntity
  8
fins
 62
7
420
16777215
370
25
 48
1.0
  6
Continuous
100
AcDbLine
 10
4.5000450000000001
 20
-13.4752944856999761
 30
0.0
 11
4.5000450000000001
 21
-13.1752944856999648
 31
0.0
  0
LINE
  5
74
100
AcDbEntity
  8
fins
 62
7
420
16777215
370
25
 48
1.0
  6
Continuous
100
AcDbLine
 10
4.5000450000000001
 20
-13.1752944856999648
 30
0.0
 11
39.4988449999999958
 21
-13.175294485699979
 31
0.0
  0
LINE
  5
75
100
AcDbEntity
  8
fins
 62
7
420
16777215
370
25
 48
1.0
  6
Continuous
100
AcDbLine
 10
39.4988449999999958
 20
-13.175294485699979
 30
0.0
 11
39.4988449999999958
 21
-13.4752944856999903
 31
0.0
  0
LINE
  5
76
100
AcDbEntity
  8
fins
 62
7
420
16777215
370
25
 48
1.0
  6
Continuous
100
AcDbLine
 10
39.4988449999999958
 20
-13.875294485699996
 30
0.0
 11
39.4988449999999958
 21
-14.175294485699979
 31
0.0
  0
LINE
  5
77
100
AcDbEntity
  8
fins
 62
7
420
16777215
370
25
 48
1.0
  6
Continuous
100
AcDbLine
 10
39.4988449999999958
 20
-14.175294485699979
 30
0.0
 11
4.5000450000000001
 21
-14.1752944856999932
 31
0.0
  0
LINE
  5
78
100
AcDbEntity
  8
fins
 62
7
420
16777215
370
25
 48
1.0
  6
Continuous
100
AcDbLine
 10
4.5000450000000001
 20
-14.1752944856999932
 30
0.0
 11
4.5000450000000001
 21
-13.875294485699996
 31
0.0
  0
LINE
  5
79
100
AcDbEntity
  8
fins
 62
7
420
16777215
370
25
 48
1.0
  6
Continuous
100
AcDbLine
 10
4.5000450000000001
 20
-15.4752944856999477
 30
0.0
 11
4.5000450000000143
 21
-15.1752944856999079
 31
0.0
  0
LINE
  5
7A
100
AcDbEntity
  8
fins
 62
7
420
16777215
370
25
 48
1.0
  6
Continuous
100
AcDbLine
 10
4.5000450000000143
 20
-15.1752944856999079
 30
0.0
 11
39.4988449999999958
 21
-15.175294485699979
 31
0.0
  0
LINE
  5
7B
100
AcDbEntity
  8
fins
 62
7
420
16777215
370
25
 48
1.0
  6
Continuous
100
AcDbLine
 10
39.4988449999999958
 20
-15.175294485699979
 30
0.0
 11
39.4988449999999958
 21
-15.4752944856999903
 31
0.0
  0
LINE
  5
7C
100
AcDbEntity
  8
fins
 62
7
420
16777215
370
25
 48
1.0
  6
Continuous
100
AcDbLine
 10
39.4988449999999958
 20
-15.875294485699996
 30
0.0
 11
39.4988449999999958
 21
-16.175294485699979
 31
0.0
  0
LINE
  5
7D
100
AcDbEntity
  8
fins
 62
7
420
16777215
370
25
 48
1.0
  6
Continuous
100
AcDbLine
 10
39.4988449999999958
 20
-16.175294485699979
 30
0.0
 11
4.5000450000000001
 21
-16.175294485699979
 31
0.0
  0
LINE
  5
7E
100
AcDbEntity
  8
fins
 62
7
420
16777215
370
25
 48
1.0
  6
Continuous
100
AcDbLine
 10
4.5000450000000001
 20
-16.175294485699979
 30
0.0
 11
4.5000450000000001
 21
-15.8752944856999818
 31
0.0
  0
LINE
  5
7F
100
AcDbEntity
  8
fins
 62
7
420
16777215
370
25
 48
1.0
  6
Continuous
100
AcDbLine
 10
4.5000450000000001
 20
-17.4752944857000045
 30
0.0
 11
4.5000450000000001
 21
-17.1752944856999079
 31
0.0
  0
LINE
  5
80
100
AcDbEntity
  8
fins
 62
7
420
16777215
370
25
 48
1.0
  6
Continuous
100
AcDbLine
 10
4.5000450000000001
 20
-17.1752944856999079
 30
0.0
 11
39.4988449999999958
 21
-17.175294485699979
 31
0.0
  0
LINE
  5
81
100
AcDbEntity
  8
fins
 62
7
420
16777215
370
25
 48
1.0
  6
Continuous
100
AcDbLine
 10
39.4988449999999958
 20
-17.175294485699979
 30
0.0
 11
39.4988449999999958
 21
-17.4752944856999903
 31
0.0
  0
LINE
  5
82
100
AcDbEntity
  8
fins
 62
7
420
16777215
370
25
 48
1.0
  6
Continuous
100
AcDbLine
 10
39.4988449999999958
 20
-17.875294485699996
 30
0.0
 11
39.4988449999999958
 21
-18.175294485699979
 31
0.0
  0
LINE
  5
83
100
AcDbEntity
  8
fins
 62
7
420
16777215
370
25
 48
1.0
  6
Continuous
100
AcDbLine
 10
39.4988449999999958
 20
-18.175294485699979
 30
0.0
 11
4.5000450000000001
 21
-18.175294485699979
 31
0.0
  0
LINE
  5
84
100
AcDbEntity
  8
fins
 62
7
420
16777215
370
25
 48
1.0
  6
Continuous
100
AcDbLine
 10
4.5000450000000001
 20
-18.175294485699979
 30
0.0
 11
4.5000450000000001
 21
-17.8752944856999534
 31
0.0
  0
LINE
  5
85
100
AcDbEntity
  8
fins
 62
7
420
16777215
370
25
 48
1.0
  6
Continuous
100
AcDbLine
 10
4.5000450000000001
 20
-19.4752944857000045
 30
0.0
 11
4.5000450000000001
 21
-19.1752944856999505
 31
0.0
  0
LINE
  5
86
100
AcDbEntity
  8
fins
 62
7
420
16777215
370
25
 48
1.0
  6
Continuous
100
AcDbLine
 10
4.5000450000000001
 20
-19.1752944856999505
 30
0.0
 11
39.4988449999999958
 21
-19.175294485699979
 31
0.0
  0
LINE
  5
87
100
AcDbEntity
  8
fins
 62
7
420
16777215
370
25
 48
1.0
  6
Continuous
100
AcDbLine
 10
39.4988449999999958
 20
-19.175294485699979
 30
0.0
 11
39.4988449999999958
 21
-19.4752944856999903
 31
0.0
  0
LINE
  5
88
100
AcDbEntity
  8
fins
 62
7
420
16777215
370
25
 48
1.0
  6
Continuous
100
AcDbLine
 10
39.4988449999999958
 20
-19.875294485699996
 30
0.0
 11
39.4988449999999958
 21
-20.175294485699979
 31
0.0
  0
LINE
  5
89
100
AcDbEntity
  8
fins
 62
7
420
16777215
370
25
 48
1.0
  6
Continuous
100
AcDbLine
 10
39.4988449999999958
 20
-20.175294485699979
 30
0.0
 11
4.5000450000000001
 21
-20.175294485699979
 31
0.0
  0
LINE
  5
8A
100
AcDbEntity
  8
fins
 62
7
420
16777215
370
25
 48
1.0
  6
Continuous
100
AcDbLine
 10
4.5000450000000001
 20
-20.175294485699979
 30
0.0
 11
4.5000450000000001
 21
-19.875294485699925
 31
0.0
  0
LINE
  5
8B
100
AcDbEntity
  8
fins
 62
7
420
16777215
370
25
 48
1.0
  6
Continuous
100
AcDbLine
 10
4.5000450000000001
 20
-21.4752944857000614
 30
0.0
 11
4.5000450000000001
 21
-21.1752944856998653
 31
0.0
  0
LINE
  5
8C
100
AcDbEntity
  8
fins
 62
7
420
16777215
370
25
 48
1.0
  6
Continuous
100
AcDbLine
 10
4.5000450000000001
 20
-21.1752944856998653
 30
0.0
 11
39.4988449999999958
 21
-21.175294485699979
 31
0.0
  0
LINE
  5
8D
100
AcDbEntity
  8
fins
 62
7
420
16777215
370
25
 48
1.0
  6
Continuous
100
AcDbLine
 10
39.4988449999999958
 20
-21.175294485699979
 30
0.0
 11
39.4988449999999958
 21
-21.4752944856999903
 31
0.0
  0
LINE
  5
8E
100
AcDbEntity
  8
fins
 62
7
420
16777215
370
25
 48
1.0
  6
Continuous
100
AcDbLine
 10
39.4988449999999958
 20
-21.875294485699996
 30
0.0
 11
39.4988449999999958
 21
-22.175294485699979
 31
0.0
  0
LINE
  5
8F
100
AcDbEntity
  8
fins
 62
7
420
16777215
370
25
 48
1.0
  6
Continuous
100
AcDbLine
 10
39.4988449999999958
 20
-22.175294485699979
 30
0.0
 11
4.5000450000000001
 21
-22.1752944856998795
 31
0.0
  0
LINE
  5
90
100
AcDbEntity
  8
fins
 62
7
420
16777215
370
25
 48
1.0
  6
Continuous
100
AcDbLine
 10
4.5000450000000001
 20
-22.1752944856998795
 30
0.0
 11
4.5000450000000001
 21
-21.8752944856999818
 31
0.0
  0
LINE
  5
91
100
AcDbEntity
  8
fins
 62
7
420
16777215
370
25
 48
1.0
  6
Continuous
100
AcDbLine
 10
4.5000450000000001
 20
-41.1752944856999719
 30
0.0
 11
4.5000450000000001
 21
-41.4752944856999761
 31
0.0
  0
LINE
  5
92
100
AcDbEntity
  8
fins
 62
7
420
16777215
370
25
 48
1.0
  6
Continuous
100
AcDbLine
 10
4.5000450000000001
 20
-41.1752944856999719
 30
0.0
 11
39.4988449999999958
 21
-41.175294485699979
 31
0.0
  0
LINE
  5
93
100
AcDbEntity
  8
fins
 62
7
420
16777215
370
25
 48
1.0
  6
Continuous
100
AcDbLine
 10
39.4988449999999958
 20
-41.4752944856999903
 30
0.0
 11
39.4988449999999958
 21
-41.175294485699979
 31
0.0
  0
LINE
  5
94
100
AcDbEntity
  8
fins
 62
7
420
16777215
370
25
 48
1.0
  6
Continuous
100
AcDbLine
 10
39.4988449999999958
 20
-42.175294485699979
 30
0.0
 11
39.4988449999999958
 21
-41.875294485699996
 31
0.0
  0
LINE
  5
95
100
AcDbEntity
  8
fins
 62
7
420
16777215
370
25
 48
1.0
  6
Continuous
100
AcDbLine
 10
39.4988449999999958
 20
-42.175294485699979
 30
0.0
 11
4.5000450000000001
 21
-42.175294485699979
 31
0.0
  0
LINE
  5
96
100
AcDbEntity
  8
fins
 62
7
420
16777215
370
25
 48
1.0
  6
Continuous
100
AcDbLine
 10
4.5000450000000001
 20
-41.8752944856999818
 30
0.0
 11
4.5000450000000001
 21
-42.175294485699979
 31
0.0
  0
LINE
  5
97
100
AcDbEntity
  8
fins
 62
7
420
16777215
370
25
 48
1.0
  6
Continuous
100
AcDbLine
 10
39.4988449999999958
 20
-40.175294485699979
 30
0.0
 11
39.4988449999999958
 21
-39.875294485699996
 31
0.0
  0
LINE
  5
98
100
AcDbEntity
  8
fins
 62
7
420
16777215
370
25
 48
1.0
  6
Continuous
100
AcDbLine
 10
39.4988449999999958
 20
-40.175294485699979
 30
0.0
 11
4.5000450000000001
 21
-40.1752944856999576
 31
0.0
  0
LINE
  5
99
100
AcDbEntity
  8
fins
 62
7
420
16777215
370
25
 48
1.0
  6
Continuous
100
AcDbLine
 10
4.5000450000000001
 20
-39.875294485699996
 30
0.0
 11
4.5000450000000001
 21
-40.1752944856999576
 31
0.0
  0
LINE
  5
9A
100
AcDbEntity
  8
fins
 62
7
420
16777215
370
25
 48
1.0
  6
Continuous
100
AcDbLine
 10
4.5000450000000001
 20
-39.175294485699979
 30
0.0
 11
4.5000450000000001
 21
-39.4752944856999903
 31
0.0
  0
LINE
  5
9B
100
AcDbEntity
  8
fins
 62
7
420
16777215
370
25
 48
1.0
  6
Continuous
100
AcDbLine
 10
4.5000450000000001
 20
-39.175294485699979
 30
0.0
 11
39.4988449999999958
 21
-39.175294485699979
 31
0.0
  0
LINE
  5
9C
100
AcDbEntity
  8
fins
 62
7
420
16777215
370
25
 48
1.0
  6
Continuous
100
AcDbLine
 10
39.4988449999999958
 20
-39.4752944856999903
 30
0.0
 11
39.4988449999999958
 21
-39.175294485699979
 31
0.0
  0
LINE
  5
9D
100
AcDbEntity
  8
fins
 62
7
420
16777215
370
25
 48
1.0
  6
Continuous
100
AcDbLine
 10
39.4988449999999958
 20
-38.175294485699979
 30
0.0
 11
39.4988449999999958
 21
-37.875294485699996
 31
0.0
  0
LINE
  5
9E
100
AcDbEntity
  8
fins
 62
7
420
16777215
370
25
 48
1.0
  6
Continuous
100
AcDbLine
 10
39.4988449999999958
 20
-38.175294485699979
 30
0.0
 11
4.5000450000000001
 21
-38.1752944856999861
 31
0.0
  0
LINE
  5
9F
100
AcDbEntity
  8
fins
 62
7
420
16777215
370
25
 48
1.0
  6
Continuous
100
AcDbLine
 10
4.5000450000000001
 20
-37.8752944856999889
 30
0.0
 11
4.5000450000000001
 21
-38.1752944856999861
 31
0.0
  0
LINE
  5
A0
100
AcDbEntity
  8
fins
 62
7
420
16777215
370
25
 48
1.0
  6
Continuous
100
AcDbLine
 10
4.5000450000000001
 20
-37.1752944856999576
 30
0.0
 11
4.5000450000000001
 21
-37.4752944856999903
 31
0.0
  0
LINE
  5
A1
100
AcDbEntity
  8
fins
 62
7
420
16777215
370
25
 48
1.0
  6
Continuous
100
AcDbLine
 10
4.5000450000000001
 20
-37.1752944856999576
 30
0.0
 11
39.4988449999999958
 21
-37.175294485699979
 31
0.0
  0
LINE
  5
A2
100
AcDbEntity
  8
fins
 62
7
420
16777215
370
25
 48
1.0
  6
Continuous
100
AcDbLine
 10
39.4988449999999958
 20
-37.4752944856999903
 30
0.0
 11
39.4988449999999958
 21
-37.175294485699979
 31
0.0
  0
LINE
  5
A3
100
AcDbEntity
  8
fins
 62
7
420
16777215
370
25
 48
1.0
  6
Continuous
100
AcDbLine
 10
39.4988449999999958
 20
-36.175294485699979
 30
0.0
 11
39.4988449999999958
 21
-35.875294485699996
 31
0.0
  0
LINE
  5
A4
100
AcDbEntity
  8
fins
 62
7
420
16777215
370
25
 48
1.0
  6
Continuous
100
AcDbLine
 10
39.4988449999999958
 20
-36.175294485699979
 30
0.0
 11
4.5000450000000001
 21
-36.1752944856999719
 31
0.0
  0
LINE
  5
A5
100
AcDbEntity
  8
fins
 62
7
420
16777215
370
25
 48
1.0
  6
Continuous
100
AcDbLine
 10
4.5000450000000001
 20
-35.8752944856999818
 30
0.0
 11
4.5000450000000001
 21
-36.1752944856999719
 31
0.0
  0
LINE
  5
A6
100
AcDbEntity
  8
fins
 62
7
420
16777215
370
25
 48
1.0
  6
Continuous
100
AcDbLine
 10
4.5000450000000001
 20
-35.1752944856999648
 30
0.0
 11
4.5000450000000001
 21
-35.4752944856999903
 31
0.0
  0
LINE
  5
A7
100
AcDbEntity
  8
fins
 62
7
420
16777215
370
25
 48
1.0
  6
Continuous
100
AcDbLine
 10
4.5000450000000001
 20
-35.1752944856999648
 30
0.0
 11
39.4988449999999958
 21
-35.175294485699979
 31
0.0
  0
LINE
  5
A8
100
AcDbEntity
  8
fins
 62
7
420
16777215
370
25
 48
1.0
  6
Continuous
100
AcDbLine
 10
39.4988449999999958
 20
-35.4752944856999903
 30
0.0
 11
39.4988449999999958
 21
-35.175294485699979
 31
0.0
  0
LINE
  5
A9
100
AcDbEntity
  8
fins
 62
7
420
16777215
370
25
 48
1.0
  6
Continuous
100
AcDbLine
 10
39.4988449999999958
 20
-34.175294485699979
 30
0.0
 11
39.4988449999999958
 21
-33.875294485699996
 31
0.0
  0
LINE
  5
AA
100
AcDbEntity
  8
fins
 62
7
420
16777215
370
25
 48
1.0
  6
Continuous
100
AcDbLine
 10
39.4988449999999958
 20
-34.175294485699979
 30
0.0
 11
4.5000450000000001
 21
-34.1752944856999648
 31
0.0
  0
LINE
  5
AB
100
AcDbEntity
  8
fins
 62
7
420
16777215
370
25
 48
1.0
  6
Continuous
100
AcDbLine
 10
4.5000450000000001
 20
-33.8752944856999818
 30
0.0
 11
4.5000450000000001
 21
-34.1752944856999648
 31
0.0
  0
LINE
  5
AC
100
AcDbEntity
  8
fins
 62
7
420
16777215
370
25
 48
1.0
  6
Continuous
100
AcDbLine
 10
4.5000450000000001
 20
-33.175294485699979
 30
0.0
 11
4.5000450000000001
 21
-33.4752944856999761
 31
0.0
  0
LINE
  5
AD
100
AcDbEntity
  8
fins
 62
7
420
16777215
370
25
 48
1.0
  6
Continuous
100
AcDbLine
 10
4.5000450000000001
 20
-33.175294485699979
 30
0.0
 11
39.4988449999999958
 21
-33.175294485699979
 31
0.0
  0
LINE
  5
AE
100
AcDbEntity
  8
fins
 62
7
420
16777215
370
25
 48
1.0
  6
Continuous
100
AcDbLine
 10
39.4988449999999958
 20
-33.4752944856999903
 30
0.0
 11
39.4988449999999958
 21
-33.175294485699979
 31
0.0
  0
LINE
  5
AF
100
AcDbEntity
  8
fins
 62
7
420
16777215
370
25
 48
1.0
  6
Continuous
100
AcDbLine
 10
39.4988449999999958
 20
-32.175294485699979
 30
0.0
 11
39.4988449999999958
 21
-31.875294485699996
 31
0.0
  0
LINE
  5
B0
100
AcDbEntity
  8
fins
 62
7
420
16777215
370
25
 48
1.0
  6
Continuous
100
AcDbLine
 10
39.4988449999999958
 20
-32.175294485699979
 30
0.0
 11
4.5000450000000001
 21
-32.1752944856999648
 31
0.0
  0
LINE
  5
B1
100
AcDbEntity
  8
fins
 62
7
420
16777215
370
25
 48
1.0
  6
Continuous
100
AcDbLine
 10
4.5000450000000001
 20
-31.8752944856999818
 30
0.0
 11
4.5000450000000001
 21
-32.1752944856999648
 31
0.0
  0
LINE
  5
B2
100
AcDbEntity
  8
fins
 62
7
420
16777215
370
25
 48
1.0
  6
Continuous
100
AcDbLine
 10
4.5000450000000001
 20
-31.175294485699979
 30
0.0
 11
4.5000450000000001
 21
-31.4752944856999903
 31
0.0
  0
LINE
  5
B3
100
AcDbEntity
  8
fins
 62
7
420
16777215
370
25
 48
1.0
  6
Continuous
100
AcDbLine
 10
4.5000450000000001
 20
-31.175294485699979
 30
0.0
 11
39.4988449999999958
 21
-31.175294485699979
 31
0.0
  0
LINE
  5
B4
100
AcDbEntity
  8
fins
 62
7
420
16777215
370
25
 48
1.0
  6
Continuous
100
AcDbLine
 10
39.4988449999999958
 20
-31.4752944856999903
 30
0.0
 11
39.4988449999999958
 21
-31.175294485699979
 31
0.0
  0
LINE
  5
B5
100
AcDbEntity
  8
fins
 62
7
420
16777215
370
25
 48
1.0
  6
Continuous
100
AcDbLine
 10
39.4988449999999958
 20
-30.175294485699979
 30
0.0
 11
39.4988449999999958
 21
-29.875294485699996
 31
0.0
  0
LINE
  5
B6
100
AcDbEntity
  8
fins
 62
7
420
16777215
370
25
 48
1.0
  6
Continuous
100
AcDbLine
 10
39.4988449999999958
 20
-30.175294485699979
 30
0.0
 11
4.5000450000000001
 21
-30.1752944856999932
 31
0.0
  0
LINE
  5
B7
100
AcDbEntity
  8
fins
 62
7
420
16777215
370
25
 48
1.0
  6
Continuous
100
AcDbLine
 10
4.5000450000000001
 20
-29.875294485699996
 30
0.0
 11
4.5000450000000001
 21
-30.1752944856999932
 31
0.0
  0
LINE
  5
B8
100
AcDbEntity
  8
fins
 62
7
420
16777215
370
25
 48
1.0
  6
Continuous
100
AcDbLine
 10
4.5000450000000001
 20
-29.1752944856999932
 30
0.0
 11
4.5000450000000001
 21
-29.4752944856999903
 31
0.0
  0
LINE
  5
B9
100
AcDbEntity
  8
fins
 62
7
420
16777215
370
25
 48
1.0
  6
Continuous
100
AcDbLine
 10
4.5000450000000001
 20
-29.1752944856999932
 30
0.0
 11
39.4988449999999958
 21
-29.175294485699979
 31
0.0
  0
LINE
  5
BA
100
AcDbEntity
  8
fins
 62
7
420
16777215
370
25
 48
1.0
  6
Continuous
100
AcDbLine
 10
39.4988449999999958
 20
-29.4752944856999903
 30
0.0
 11
39.4988449999999958
 21
-29.175294485699979
 31
0.0
  0
LINE
  5
BB
100
AcDbEntity
  8
fins
 62
7
420
16777215
370
25
 48
1.0
  6
Continuous
100
AcDbLine
 10
39.4988449999999958
 20
-28.175294485699979
 30
0.0
 11
39.4988449999999958
 21
-27.875294485699996
 31
0.0
  0
LINE
  5
BC
100
AcDbEntity
  8
fins
 62
7
420
16777215
370
25
 48
1.0
  6
Continuous
100
AcDbLine
 10
39.4988449999999958
 20
-28.175294485699979
 30
0.0
 11
4.5000450000000001
 21
-28.1752944856999648
 31
0.0
  0
LINE
  5
BD
100
AcDbEntity
  8
fins
 62
7
420
16777215
370
25
 48
1.0
  6
Continuous
100
AcDbLine
 10
4.5000450000000001
 20
-27.875294485699996
 30
0.0
 11
4.5000450000000001
 21
-28.1752944856999648
 31
0.0
  0
LINE
  5
BE
100
AcDbEntity
  8
fins
 62
7
420
16777215
370
25
 48
1.0
  6
Continuous
100
AcDbLine
 10
4.5000450000000001
 20
-27.1752944856999932
 30
0.0
 11
4.5000450000000001
 21
-27.4752944857000045
 31
0.0
  0
LINE
  5
BF
100
AcDbEntity
  8
fins
 62
7
420
16777215
370
25
 48
1.0
  6
Continuous
100
AcDbLine
 10
4.5000450000000001
 20
-27.1752944856999932
 30
0.0
 11
39.4988449999999958
 21
-27.175294485699979
 31
0.0
  0
LINE
  5
C0
100
AcDbEntity
  8
fins
 62
7
420
16777215
370
25
 48
1.0
  6
Continuous
100
AcDbLine
 10
39.4988449999999958
 20
-27.4752944856999903
 30
0.0
 11
39.4988449999999958
 21
-27.175294485699979
 31
0.0
  0
LINE
  5
C1
100
AcDbEntity
  8
fins
 62
7
420
16777215
370
25
 48
1.0
  6
Continuous
100
AcDbLine
 10
39.4988449999999958
 20
-31.875294485699996
 30
0.0
 11
39.4988449999999958
 21
-31.4752944856999903
 31
0.0
  0
LINE
  5
C2
100
AcDbEntity
  8
fins
 62
7
420
16777215
370
25
 48
1.0
  6
Continuous
100
AcDbLine
 10
4.5000450000000001
 20
-31.8752944856999818
 30
0.0
 11
4.5000450000000001
 21
-31.4752944856999903
 31
0.0
  0
LINE
  5
C3
100
AcDbEntity
  8
fins
 62
7
420
16777215
370
25
 48
1.0
  6
Continuous
100
AcDbLine
 10
39.4988449999999958
 20
-29.875294485699996
 30
0.0
 11
39.4988449999999958
 21
-29.4752944856999903
 31
0.0
  0
LINE
  5
C4
100
AcDbEntity
  8
fins
 62
7
420
16777215
370
25
 48
1.0
  6
Continuous
100
AcDbLine
 10
4.5000450000000001
 20
-29.875294485699996
 30
0.0
 11
4.5000450000000001
 21
-29.4752944856999903
 31
0.0
  0
LINE
  5
C5
100
AcDbEntity
  8
fins
 62
7
420
16777215
370
25
 48
1.0
  6
Continuous
100
AcDbLine
 10
4.5000450000000001
 20
-7.8752944856999818
 30
0.0
 11
4.5000450000000001
 21
-7.4752944856999761
 31
0.0
  0
LINE
  5
C6
100
AcDbEntity
  8
fins
 62
7
420
16777215
370
25
 48
1.0
  6
Continuous
100
AcDbLine
 10
39.4988450000000029
 20
-7.875294485699996
 30
0.0
 11
39.4988450000000029
 21
-7.4752944856999903
 31
0.0
  0
LINE
  5
C7
100
AcDbEntity
  8
fins
 62
7
420
16777215
370
25
 48
1.0
  6
Continuous
100
AcDbLine
 10
39.4988450000000029
 20
-9.4752944856999903
 30
0.0
 11
39.4988450000000029
 21
-9.875294485699996
 31
0.0
  0
LINE
  5
C8
100
AcDbEntity
  8
fins
 62
7
420
16777215
370
25
 48
1.0
  6
Continuous
100
AcDbLine
 10
4.5000450000000143
 20
-9.4752944856999619
 30
0.0
 11
4.5000450000000143
 21
-9.8752944856999534
 31
0.0
  0
LINE
  5
C9
100
AcDbEntity
  8
fins
 62
7
420
16777215
370
25
 48
1.0
  6
Continuous
100
AcDbLine
 10
39.4988449999999958
 20
-39.875294485699996
 30
0.0
 11
39.4988449999999958
 21
-39.4752944856999903
 31
0.0
  0
LINE
  5
CA
100
AcDbEntity
  8
fins
 62
7
420
16777215
370
25
 48
1.0
  6
Continuous
100
AcDbLine
 10
4.5000450000000001
 20
-39.875294485699996
 30
0.0
 11
4.5000450000000001
 21
-39.4752944856999903
 31
0.0
  0
LINE
  5
CB
100
AcDbEntity
  8
fins
 62
7
420
16777215
370
25
 48
1.0
  6
Continuous
100
AcDbLine
 10
39.4988449999999958
 20
-13.4752944856999903
 30
0.0
 11
39.4988449999999958
 21
-13.875294485699996
 31
0.0
  0
LINE
  5
CC
100
AcDbEntity
  8
fins
 62
7
420
16777215
370
25
 48
1.0
  6
Continuous
100
AcDbLine
 10
4.5000450000000001
 20
-13.4752944856999761
 30
0.0
 11
4.5000450000000001
 21
-13.875294485699996
 31
0.0
  0
LINE
  5
CD
100
AcDbEntity
  8
fins
 62
7
420
16777215
370
25
 48
1.0
  6
Continuous
100
AcDbLine
 10
39.4988449999999958
 20
-15.4752944856999903
 30
0.0
 11
39.4988449999999958
 21
-15.875294485699996
 31
0.0
  0
LINE
  5
CE
100
AcDbEntity
  8
fins
 62
7
420
16777215
370
25
 48
1.0
  6
Continuous
100
AcDbLine
 10
4.5000450000000001
 20
-15.4752944856999477
 30
0.0
 11
4.5000450000000001
 21
-15.8752944856999818
 31
0.0
  0
LINE
  5
CF
100
AcDbEntity
  8
fins
 62
7
420
16777215
370
25
 48
1.0
  6
Continuous
100
AcDbLine
 10
39.4988449999999958
 20
-17.4752944856999903
 30
0.0
 11
39.4988449999999958
 21
-17.875294485699996
 31
0.0
  0
LINE
  5
D0
100
AcDbEntity
  8
fins
 62
7
420
16777215
370
25
 48
1.0
  6
Continuous
100
AcDbLine
 10
4.5000450000000001
 20
-17.4752944857000045
 30
0.0
 11
4.5000450000000001
 21
-17.8752944856999534
 31
0.0
  0
LINE
  5
D1
100
AcDbEntity
  8
fins
 62
7
420
16777215
370
25
 48
1.0
  6
Continuous
100
AcDbLine
 10
39.4988449999999958
 20
-19.4752944856999903
 30
0.0
 11
39.4988449999999958
 21
-19.875294485699996
 31
0.0
  0
LINE
  5
D2
100
AcDbEntity
  8
fins
 62
7
420
16777215
370
25
 48
1.0
  6
Continuous
100
AcDbLine
 10
4.5000450000000001
 20
-19.4752944857000045
 30
0.0
 11
4.5000450000000001
 21
-19.875294485699925
 31
0.0
  0
LINE
  5
D3
100
AcDbEntity
  8
fins
 62
7
420
16777215
370
25
 48
1.0
  6
Continuous
100
AcDbLine
 10
39.4988449999999958
 20
-21.4752944856999903
 30
0.0
 11
39.4988449999999958
 21
-21.875294485699996
 31
0.0
  0
LINE
  5
D4
100
AcDbEntity
  8
fins
 62
7
420
16777215
370
25
 48
1.0
  6
Continuous
100
AcDbLine
 10
4.5000450000000001
 20
-21.4752944857000614
 30
0.0
 11
4.5000450000000001
 21
-21.8752944856999818
 31
0.0
  0
LINE
  5
D5
100
AcDbEntity
  8
fins
 62
7
420
16777215
370
25
 48
1.0
  6
Continuous
100
AcDbLine
 10
4.5000450000000001
 20
-41.4752944856999761
 30
0.0
 11
4.5000450000000001
 21
-41.8752944856999818
 31
0.0
  0
LINE
  5
D6
100
AcDbEntity
  8
fins
 62
7
420
16777215
370
25
 48
1.0
  6
Continuous
100
AcDbLine
 10
39.4988449999999958
 20
-41.4752944856999903
 30
0.0
 11
39.4988449999999958
 21
-41.875294485699996
 31
0.0
  0
LINE
  5
D7
100
AcDbEntity
  8
fins
 62
7
420
16777215
370
25
 48
1.0
  6
Continuous
100
AcDbLine
 10
39.4988449999999958
 20
-35.875294485699996
 30
0.0
 11
39.4988449999999958
 21
-35.4752944856999903
 31
0.0
  0
LINE
  5
D8
100
AcDbEntity
  8
fins
 62
7
420
16777215
370
25
 48
1.0
  6
Continuous
100
AcDbLine
 10
4.5000450000000001
 20
-35.8752944856999818
 30
0.0
 11
4.5000450000000001
 21
-35.4752944856999903
 31
0.0
  0
LINE
  5
D9
100
AcDbEntity
  8
fins
 62
7
420
16777215
370
25
 48
1.0
  6
Continuous
100
AcDbLine
 10
39.4988449999999958
 20
-37.875294485699996
 30
0.0
 11
39.4988449999999958
 21
-37.4752944856999903
 31
0.0
  0
LINE
  5
DA
100
AcDbEntity
  8
fins
 62
7
420
16777215
370
25
 48
1.0
  6
Continuous
100
AcDbLine
 10
4.5000450000000001
 20
-37.8752944856999889
 30
0.0
 11
4.5000450000000001
 21
-37.4752944856999903
 31
0.0
  0
LINE
  5
DB
100
AcDbEntity
  8
fins
 62
7
420
16777215
370
25
 48
1.0
  6
Continuous
100
AcDbLine
 10
39.4988449999999958
 20
-33.875294485699996
 30
0.0
 11
39.4988449999999958
 21
-33.4752944856999903
 31
0.0
  0
LINE
  5
DC
100
AcDbEntity
  8
fins
 62
7
420
16777215
370
25
 48
1.0
  6
Continuous
100
AcDbLine
 10
4.5000450000000001
 20
-33.8752944856999818
 30
0.0
 11
4.5000450000000001
 21
-33.4752944856999761
 31
0.0
  0
LINE
  5
DD
100
AcDbEntity
  8
fins
 62
7
420
16777215
370
25
 48
1.0
  6
Continuous
100
AcDbLine
 10
39.4988449999999958
 20
-27.875294485699996
 30
0.0
 11
39.4988449999999958
 21
-27.4752944856999903
 31
0.0
  0
LINE
  5
DE
100
AcDbEntity
  8
fins
 62
7
420
16777215
370
25
 48
1.0
  6
Continuous
100
AcDbLine
 10
4.5000450000000001
 20
-27.875294485699996
 30
0.0
 11
4.5000450000000001
 21
-27.4752944857000045
 31
0.0
  0
ARC
  5
DF
100
AcDbEntity
  8
holes
 62
256
370
-1
 48
1.0
  6
BYLAYER
100
AcDbCircle
 10
8.0994449999999887
 20
-24.6752944856999932
 30
0.0
 40
0.8500000000000085
100
AcDbArc
 50
180.0
 51
0.0
  0
ARC
  5
E0
100
AcDbEntity
  8
tooth
 62
256
370
-1
 48
1.0
  6
BYLAYER
100
AcDbCircle
 10
8.0994449999999887
 20
-24.6752944856999932
 30
0.0
 40
0.8500000000000085
100
AcDbArc
 50
180.0
 51
0.0
  0
ARC
  5
E1
100
AcDbEntity
  8
holes
 62
256
370
-1
 48
1.0
  6
BYLAYER
100
AcDbCircle
 10
8.0994449999999887
 20
-24.6752944856999932
 30
0.0
 40
0.8500000000000085
100
AcDbArc
 50
0.0
 51
180.0
  0
ARC
  5
E2
100
AcDbEntity
  8
tooth
 62
256
370
-1
 48
1.0
  6
BYLAYER
100
AcDbCircle
 10
8.0994449999999887
 20
-24.6752944856999932
 30
0.0
 40
0.8500000000000085
100
AcDbArc
 50
0.0
 51
180.0
  0
ARC
  5
E3
100
AcDbEntity
  8
holes
 62
256
370
-1
 48
1.0
  6
BYLAYER
100
AcDbCircle
 10
35.8994449999999929
 20
-24.675294485699979
 30
0.0
 40
0.8500000000000014
100
AcDbArc
 50
180.0
 51
0.0
  0
ARC
  5
E4
100
AcDbEntity
  8
tooth
 62
256
370
-1
 48
1.0
  6
BYLAYER
100
AcDbCircle
 10
35.8994449999999929
 20
-24.675294485699979
 30
0.0
 40
0.8500000000000014
100
AcDbArc
 50
180.0
 51
0.0
  0
LINE
  5
E5
100
AcDbEntity
  8
tooth
 62
7
420
16777215
370
25
 48
1.0
  6
Continuous
100
AcDbLine
 10
4.5000450000000001
 20
-23.1752944856999648
 30
0.0
 11
4.5000450000000001
 21
-26.1752944856999363
 31
0.0
  0
LINE
  5
E6
100
AcDbEntity
  8
tooth
 62
7
420
16777215
370
25
 48
1.0
  6
Continuous
100
AcDbLine
 10
39.4988449999999958
 20
-26.175294485699979
 30
0.0
 11
39.4988449999999816
 21
-23.1752944856999648
 31
0.0
  0
LINE
  5
E7
100
AcDbEntity
  8
tooth
 62
7
420
16777215
370
25
 48
1.0
  6
Continuous
100
AcDbLine
 10
4.5000450000000001
 20
-26.1752944856999363
 30
0.0
 11
39.4988449999999958
 21
-26.175294485699979
 31
0.0
  0
LINE
  5
E8
100
AcDbEntity
  8
tooth
 62
7
420
16777215
370
25
 48
1.0
  6
Continuous
100
AcDbLine
 10
39.4988449999999816
 20
-23.1752944856999648
 30
0.0
 11
4.5000450000000001
 21
-23.1752944856999648
 31
0.0
  0
ARC
  5
E9
100
AcDbEntity
  8
holes
 62
256
370
-1
 48
1.0
  6
BYLAYER
100
AcDbCircle
 10
35.8994449999999929
 20
-24.675294485699979
 30
0.0
 40
0.8500000000000014
100
AcDbArc
 50
0.0
 51
180.0
  0
ARC
  5
EA
100
AcDbEntity
  8
tooth
 62
256
370
-1
 48
1.0
  6
BYLAYER
100
AcDbCircle
 10
35.8994449999999929
 20
-24.675294485699979
 30
0.0
 40
0.8500000000000014
100
AcDbArc
 50
0.0
 51
180.0
  0
ARC
  5
EB
100
AcDbEntity
  8
holes
 62
256
370
-1
 48
1.0
  6
BYLAYER
100
AcDbCircle
 10
42.2488450000000029
 20
-40.925294485699979
 30
0.0
 40
0.6000000000000014
100
AcDbArc
 50
180.0
 51
0.0
  0
ARC
  5
EC
100
AcDbEntity
  8
holes
 62
256
370
-1
 48
1.0
  6
BYLAYER
100
AcDbCircle
 10
74.7488450000000029
 20
-40.9252944856999861
 30
0.0
 40
0.600000000000005
100
AcDbArc
 50
180.0
 51
0.0
  0
ARC
  5
ED
100
AcDbEntity
  8
holes
 62
256
370
-1
 48
1.0
  6
BYLAYER
100
AcDbCircle
 10
42.2488450000000029
 20
-8.425294485699979
 30
0.0
 40
0.6000000000000014
100
AcDbArc
 50
180.0
 51
0.0
  0
ARC
  5
EE
100
AcDbEntity
  8
holes
 62
256
370
-1
 48
1.0
  6
BYLAYER
100
AcDbCircle
 10
74.7488450000000171
 20
-8.4252944857000074
 30
0.0
 40
0.600000000000005
100
AcDbArc
 50
180.0
 51
0.0
  0
ARC
  5
EF
100
AcDbEntity
  8
heatsink
 62
7
420
16777215
370
25
 48
1.0
  6
Continuous
100
AcDbCircle
 10
75.9988450000000171
 20
-41.8232830704999685
 30
0.0
 40
1.0
100
AcDbArc
 50
270.0
 51
0.0
  0
LINE
  5
F0
100
AcDbEntity
  8
heatsink
 62
7
420
16777215
370
25
 48
1.0
  6
Continuous
100
AcDbLine
 10
75.9988449999999887
 20
-42.8232830704999969
 30
0.0
 11
68.2487449978999905
 21
-42.8232830704999898
 31
0.0
  0
ARC
  5
F1
100
AcDbEntity
  8
heatsink
 62
7
420
16777215
370
25
 48
1.0
  6
Continuous
100
AcDbCircle
 10
68.2487449978999905
 20
-43.8232830704999827
 30
0.0
 40
1.0
100
AcDbArc
 50
90.0
 51
180.0
  0
LINE
  5
F2
100
AcDbEntity
  8
heatsink
 62
7
420
16777215
370
25
 48
1.0
  6
Continuous
100
AcDbLine
 10
67.2487449978999905
 20
-47.8232830705000111
 30
0.0
 11
67.2487449978999905
 21
-43.8232830704999898
 31
0.0
  0
ARC
  5
F3
100
AcDbEntity
  8
heatsink
 62
7
420
16777215
370
25
 48
1.0
  6
Continuous
100
AcDbCircle
 10
65.4987949978999922
 20
-47.823283070500004
 30
0.0
 40
1.7499499999999979
100
AcDbArc
 50
180.0
 51
0.0
  0
LINE
  5
F4
100
AcDbEntity
  8
heatsink
 62
7
420
16777215
370
25
 48
1.0
  6
Continuous
100
AcDbLine
 10
63.7488449978999867
 20
-43.8232830704999969
 30
0.0
 11
63.7488449978999938
 21
-47.8232830705000111
 31
0.0
  0
ARC
  5
F5
100
AcDbEntity
  8
heatsink
 62
7
420
16777215
370
25
 48
1.0
  6
Continuous
100
AcDbCircle
 10
62.7488449978999938
 20
-43.8232830704999827
 30
0.0
 40
1.0
100
AcDbArc
 50
0.0
 51
90.0
  0
LINE
  5
F6
100
AcDbEntity
  8
heatsink
 62
7
420
16777215
370
25
 48
1.0
  6
Continuous
100
AcDbLine
 10
62.7488449978999938
 20
-42.8232830704999827
 30
0.0
 11
19.2500450020999949
 21
-42.8232830704999827
 31
0.0
  0
LINE
  5
F7
100
AcDbEntity
  8
heatsink
 62
7
420
16777215
370
25
 48
1.0
  6
Continuous
100
AcDbLine
 10
14.7501450020999982
 20
-43.8232830704999685
 30
0.0
 11
14.7501450020999982
 21
-47.8232830705000111
 31
0.0
  0
ARC
  5
F8
100
AcDbEntity
  8
heatsink
 62
7
420
16777215
370
25
 48
1.0
  6
Continuous
100
AcDbCircle
 10
13.7501450020999982
 20
-43.8232830704999685
 30
0.0
 40
1.0
100
AcDbArc
 50
0.0
 51
90.0
  0
ARC
  5
F9
100
AcDbEntity
  8
heatsink
 62
7
420
16777215
370
25
 48
1.0
  6
Continuous
100
AcDbCircle
 10
5.0000450000000001
 20
-41.8232830704999685
 30
0.0
 40
1.0
100
AcDbArc
 50
180.0
 51
270.0
  0
LINE
  5
FA
100
AcDbEntity
  8
heatsink
 62
7
420
16777215
370
25
 48
1.0
  6
Continuous
100
AcDbLine
 10
4.0000450000000001
 20
-11.8431203498999764
 30
0.0
 11
4.0000450000000001
 21
-41.8232830704999756
 31
0.0
  0
ARC
  5
FB
100
AcDbEntity
  8
heatsink
 62
7
420
16777215
370
25
 48
1.0
  6
Continuous
100
AcDbCircle
 10
2.5000450000000001
 20
-11.843120349899948
 30
0.0
 40
1.5
100
AcDbArc
 50
0.0
 51
21.9999999995000266
  0
LINE
  5
FC
100
AcDbEntity
  8
heatsink
 62
7
420
16777215
370
25
 48
1.0
  6
Continuous
100
AcDbLine
 10
0.6456736500956692
 20
-3.2491894564892383
 30
0.0
 11
3.8908207818999898
 21
-11.2812104597999792
 31
0.0
  0
ARC
  5
FD
100
AcDbEntity
  8
heatsink
 62
7
420
16777215
370
25
 48
1.0
  6
Continuous
100
AcDbCircle
 10
2.4999949999999984
 20
-2.4999949999999984
 30
0.0
 40
1.9999499999999979
100
AcDbArc
 50
22.0000000002999982
 51
202.0
  0
LINE
  5
FE
100
AcDbEntity
  8
heatsink
 62
7
420
16777215
370
25
 48
1.0
  6
Continuous
100
AcDbLine
 10
5.9051367755999991
 20
-5.5892157908999991
 30
0.0
 11
4.3543163500000048
 21
-1.750800543499949
 31
0.0
  0
ARC
  5
FF
100
AcDbEntity
  8
heatsink
 62
7
420
16777215
370
25
 48
1.0
  6
Continuous
100
AcDbCircle
 10
7.295912557399987
 20
-5.0273059008000018
 30
0.0
 40
1.500000000000077
100
AcDbArc
 50
201.9999999995000053
 51
270.0
  0
LINE
  5
100
100
AcDbEntity
  8
heatsink
 62
7
420
16777215
370
25
 48
1.0
  6
Continuous
100
AcDbLine
 10
74.7029774426000017
 20
-6.5273059008000018
 30
0.0
 11
7.2959125574000154
 21
-6.5273059007999592
 31
0.0
  0
LINE
  5
101
100
AcDbEntity
  8
heatsink
 62
7
420
16777215
370
25
 48
1.0
  6
Continuous
100
AcDbLine
 10
77.6445736500999999
 20
-1.7508005434999774
 30
0.0
 11
76.0937532245000057
 21
-5.5892157910000009
 31
0.0
  0
ARC
  5
102
100
AcDbEntity
  8
heatsink
 62
7
420
16777215
370
25
 48
1.0
  6
Continuous
100
AcDbCircle
 10
76.6988449999999915
 20
-36.7852944856999784
 30
0.0
 40
0.3000000000000007
100
AcDbArc
 50
270.0
 51
0.0
  0
ARC
  5
103
100
AcDbEntity
  8
heatsink
 62
7
420
16777215
370
25
 48
1.0
  6
Continuous
100
AcDbCircle
 10
76.6988449999999915
 20
-39.3852944857000011
 30
0.0
 40
0.3000000000000398
100
AcDbArc
 50
0.0
 51
90.0
  0
LINE
  5
104
100
AcDbEntity
  8
heatsink
 62
7
420
16777215
370
25
 48
1.0
  6
Continuous
100
AcDbLine
 10
76.9988449999999887
 20
-39.3852944856999869
 30
0.0
 11
76.9988449999999887
 21
-41.8232830704999898
 31
0.0
  0
LINE
  5
105
100
AcDbEntity
  8
heatsink
 62
7
420
16777215
370
25
 48
1.0
  6
Continuous
100
AcDbLine
 10
76.348844999999983
 20
-38.7852944857000068
 30
0.0
 11
76.3488450000000114
 21
-37.3852944856999656
 31
0.0
  0
ARC
  5
106
100
AcDbEntity
  8
heatsink
 62
7
420
16777215
370
25
 48
1.0
  6
Continuous
100
AcDbCircle
 10
76.6488449999999943
 20
-38.7852944857000139
 30
0.0
 40
0.2999999999999936
100
AcDbArc
 50
180.0
 51
270.0
  0
ARC
  5
107
100
AcDbEntity
  8
heatsink
 62
7
420
16777215
370
25
 48
1.0
  6
Continuous
100
AcDbCircle
 10
76.6488449999999943
 20
-37.3852944857000011
 30
0.0
 40
0.2999999999999936
100
AcDbArc
 50
90.0
 51
180.0
  0
LINE
  5
108
100
AcDbEntity
  8
heatsink
 62
7
420
16777215
370
25
 48
1.0
  6
Continuous
100
AcDbLine
 10
18.2500450020999807
 20
-47.8232830704999969
 30
0.0
 11
18.2500450020999949
 21
-43.8232830704999827
 31
0.0
  0
ARC
  5
109
100
AcDbEntity
  8
heatsink
 62
7
420
16777215
370
25
 48
1.0
  6
Continuous
100
AcDbCircle
 10
74.7029774425999733
 20
-5.0273059007999876
 30
0.0
 40
1.5
100
AcDbArc
 50
270.0
 51
337.9999999995000053
  0
ARC
  5
10A
100
AcDbEntity
  8
heatsink
 62
7
420
16777215
370
25
 48
1.0
  6
Continuous
100
AcDbCircle
 10
16.5000950020999966
 20
-47.8232830705000111
 30
0.0
 40
1.7499499999999979
100
AcDbArc
 50
180.0
 51
0.0
  0
LINE
  5
10B
100
AcDbEntity
  8
heatsink
 62
7
420
16777215
370
25
 48
1.0
  6
Continuous
100
AcDbLine
 10
13.7501450020999982
 20
-42.8232830704999827
 30
0.0
 11
5.0000450000000001
 21
-42.8232830704999827
 31
0.0
  0
ARC
  5
10C
100
AcDbEntity
  8
heatsink
 62
7
420
16777215
370
25
 48
1.0
  6
Continuous
100
AcDbCircle
 10
77.9988449999999887
 20
-12.0996711024999684
 30
0.0
 40
1.0000000000000031
100
AcDbArc
 50
118.6196648241000844
 51
180.0
  0
ARC
  5
10D
100
AcDbEntity
  8
holes
 62
256
370
-1
 48
1.0
  6
BYLAYER
100
AcDbCircle
 10
42.2488450000000029
 20
-8.425294485699979
 30
0.0
 40
0.6000000000000014
100
AcDbArc
 50
0.0
 51
180.0
  0
ARC
  5
10E
100
AcDbEntity
  8
holes
 62
256
370
-1
 48
1.0
  6
BYLAYER
100
AcDbCircle
 10
42.2488450000000029
 20
-40.925294485699979
 30
0.0
 40
0.6000000000000014
100
AcDbArc
 50
0.0
 51
180.0
  0
ARC
  5
10F
100
AcDbEntity
  8
holes
 62
256
370
-1
 48
1.0
  6
BYLAYER
100
AcDbCircle
 10
74.7488450000000171
 20
-8.4252944857000074
 30
0.0
 40
0.600000000000005
100
AcDbArc
 50
0.0
 51
180.0
  0
ARC
  5
110
100
AcDbEntity
  8
holes
 62
256
370
-1
 48
1.0
  6
BYLAYER
100
AcDbCircle
 10
74.7488450000000029
 20
-40.9252944856999861
 30
0.0
 40
0.600000000000005
100
AcDbArc
 50
0.0
 51
180.0
  0
LINE
  5
111
100
AcDbEntity
  8
heatsink
 62
7
420
16777215
370
25
 48
1.0
  6
Continuous
100
AcDbLine
 10
76.9988449999999887
 20
-12.0996711024999826
 30
0.0
 11
76.9988449999999887
 21
-36.7852944856999926
 31
0.0
  0
ARC
  5
112
100
AcDbEntity
  8
heatsink
 62
7
420
16777215
370
25
 48
1.0
  6
Continuous
100
AcDbCircle
 10
76.3223689138000054
 20
-9.027305900800016
 30
0.0
 40
2.4999999999999618
100
AcDbArc
 50
298.6196648242000151
 51
337.9999999996999804
  0
LINE
  5
113
100
AcDbEntity
  8
heatsink
 62
7
420
16777215
370
25
 48
1.0
  6
Continuous
100
AcDbLine
 10
78.640328550199996
 20
-9.9638223843999896
 30
0.0
 11
81.3532163500000252
 21
-3.2491894565000337
 31
0.0
  0
LINE
  5
114
100
AcDbEntity
  8
heatsink
 62
7
420
16777215
370
25
 48
1.0
  6
Continuous
100
AcDbLine
 10
76.6988449999999915
 20
-39.0852944856999756
 30
0.0
 11
76.6488449999999801
 21
-39.085294485700004
 31
0.0
  0
ARC
  5
115
100
AcDbEntity
  8
heatsink
 62
7
420
16777215
370
25
 48
1.0
  6
Continuous
100
AcDbCircle
 10
19.2500450020999949
 20
-43.8232830704999827
 30
0.0
 40
1.0
100
AcDbArc
 50
90.0
 51
180.0
  0
LINE
  5
116
100
AcDbEntity
  8
heatsink
 62
7
420
16777215
370
25
 48
1.0
  6
Continuous
100
AcDbLine
 10
76.6488449999999943
 20
-37.0852944856999898
 30
0.0
 11
76.6988449999999915
 21
-37.0852944856999684
 31
0.0
  0
ARC
  5
117
100
AcDbEntity
  8
heatsink
 62
7
420
16777215
370
25
 48
1.0
  6
Continuous
100
AcDbCircle
 10
79.4993327397649665
 20
-2.4987945498440021
 30
0.0
 40
1.9999942390500873
100
AcDbArc
 50
337.9634160160720739
 51
158.5376996077746412
  0
LWPOLYLINE
  5
118
100
AcDbEntity
  8
outline
 62
256
370
-1
 48
1.0
  6
BYLAYER
100
AcDbPolyline
 90
29
 70
1
 10
0.0
 20
-0.499999
 42
-0.414212
 10
0.499999
 20
0.0
 10
81.4999889999999994
 20
0.0
 42
-0.414217
 10
81.9999880000000019
 20
-0.499999
 10
81.9999880000000019
 20
-6.1999880000000003
 10
80.9999899999999968
 20
-6.1999880000000003
 42
1.0
 10
80.9999899999999968
 20
-7.7000099999999998
 10
81.9988199999999949
 20
-7.7000099999999998
 10
81.9988199999999949
 20
-36.7817399999999992
 10
81.9988199999999949
 20
-55.5341540000000009
 42
-0.39433
 10
81.4999889999999994
 20
-55.9999899999999968
 10
66.2500069999999965
 20
-55.9999899999999968
 10
66.2500069999999965
 20
-54.9999919999999989
 42
0.999989
 10
64.7500100000000032
 20
-54.9999919999999989
 10
64.7500100000000032
 20
-55.9999899999999968
 10
62.4000020000000006
 20
-55.9999899999999968
 10
62.4000020000000006
 20
-47.5000069999999965
 10
49.2000030000000024
 20
-47.5000069999999965
 10
49.2000030000000024
 20
-55.9999899999999968
 10
17.2500040000000006
 20
-55.9999899999999968
 10
17.2500040000000006
 20
-54.9999919999999989
 42
0.999989
 10
15.7500070000000001
 20
-54.9999919999999989
 10
15.7500070000000001
 20
-55.9999899999999968
 10
0.499999
 20
-55.9999899999999968
 42
-0.414216
 10
0.0
 20
-55.4999910000000014
 10
0.0
 20
-7.7000099999999998
 10
0.9999980000000001
 20
-7.7000099999999998
 42
1.0
 10
0.9999980000000001
 20
-6.1999880000000003
 10
0.0
 20
-6.1999880000000003
  0
LWPOLYLINE
  5
119
100
AcDbEntity
  8
outline
 62
256
370
-1
 48
1.0
  6
BYLAYER
100
AcDbPolyline
 90
29
 70
1
 10
0.0000059999978603
 20
-0.5000039999922024
 42
-0.414212
 10
0.5000049999978629
 20
-0.0000049999922034
 10
81.4999949999978526
 20
-0.0000049999922034
 42
-0.414217
 10
81.9999939999978551
 20
-0.5000039999922024
 10
81.9999939999978551
 20
-6.1999929999922045
 10
80.99999599999785
 20
-6.1999929999922045
 42
1.0
 10
80.99999599999785
 20
-7.7000149999922023
 10
81.9988259999978482
 20
-7.7000149999922023
 10
81.9988259999978482
 20
-36.781744999992199
 10
81.9988259999978482
 20
-55.5341589999922007
 42
-0.39433
 10
81.4999949999978526
 20
-55.9999949999921967
 10
66.250012999997864
 20
-55.9999949999921967
 10
66.250012999997864
 20
-54.9999969999922058
 42
0.999989
 10
64.7500159999978564
 20
-54.9999969999922058
 10
64.7500159999978564
 20
-55.9999949999921967
 10
62.400007999997861
 20
-55.9999949999921967
 10
62.400007999997861
 20
-47.5000119999921964
 10
49.2000089999978627
 20
-47.5000119999921964
 10
49.2000089999978627
 20
-55.9999949999921967
 10
17.2500099999978609
 20
-55.9999949999921967
 10
17.2500099999978609
 20
-54.9999969999922058
 42
0.999989
 10
15.7500129999978604
 20
-54.9999969999922058
 10
15.7500129999978604
 20
-55.9999949999921967
 10
0.5000049999978629
 20
-55.9999949999921967
 42
-0.414216
 10
0.0000059999978603
 20
-55.4999959999922083
 10
0.0000059999978603
 20
-7.7000149999922023
 10
1.0000039999978583
 20
-7.7000149999922023
 42
1.0
 10
1.0000039999978583
 20
-6.1999929999922045
 10
0.0000059999978603
 20
-6.1999929999922045
  0
CIRCLE
  5
11A
100
AcDbEntity
  8
holes
 62
256
370
-1
 48
1.0
  6
BYLAYER
100
AcDbCircle
 10
79.4999930000000035
 20
-2.4999950000000002
 30
0.0
 40
1.0
  0
CIRCLE
  5
11B
100
AcDbEntity
  8
separators
 62
256
370
-1
 48
1.0
  6
BYLAYER
100
AcDbCircle
 10
79.4999930000000035
 20
-2.4999950000000002
 30
0.0
 40
1.0
  0
CIRCLE
  5
11C
100
AcDbEntity
  8
holes
 62
256
370
-1
 48
1.0
  6
BYLAYER
100
AcDbCircle
 10
2.4999950000000002
 20
-2.4999950000000002
 30
0.0
 40
1.0
  0
CIRCLE
  5
11D
100
AcDbEntity
  8
separators
 62
256
370
-1
 48
1.0
  6
BYLAYER
100
AcDbCircle
 10
2.4999950000000002
 20
-2.4999950000000002
 30
0.0
 40
1.0
  0
CIRCLE
  5
11E
100
AcDbEntity
  8
holes
 62
256
370
-1
 48
1.0
  6
BYLAYER
100
AcDbCircle
 10
16.4999919999999989
 20
-48.0000059999999991
 30
0.0
 40
1.0
  0
CIRCLE
  5
11F
100
AcDbEntity
  8
separators
 62
256
370
-1
 48
1.0
  6
BYLAYER
100
AcDbCircle
 10
16.4999919999999989
 20
-48.0000059999999991
 30
0.0
 40
1.0
  0
CIRCLE
  5
120
100
AcDbEntity
  8
holes
 62
256
370
-1
 48
1.0
  6
BYLAYER
100
AcDbCircle
 10
65.4999959999999959
 20
-48.0000059999999991
 30
0.0
 40
1.0
  0
CIRCLE
  5
121
100
AcDbEntity
  8
separators
 62
256
370
-1
 48
1.0
  6
BYLAYER
100
AcDbCircle
 10
65.4999959999999959
 20
-48.0000059999999991
 30
0.0
 40
1.0
  0
CIRCLE
  5
122
100
AcDbEntity
  8
separators
 62
256
370
-1
 48
1.0
  6
BYLAYER
100
AcDbCircle
 10
2.4999949999999984
 20
-2.4999949999999984
 30
0.0
 40
1.9999499999999979
  0
CIRCLE
  5
123
100
AcDbEntity
  8
separators
 62
256
370
-1
 48
1.0
  6
BYLAYER
100
AcDbCircle
 10
79.4993327397649665
 20
-2.4987945498440021
 30
0.0
 40
1.999994239050082
  0
CIRCLE
  5
124
100
AcDbEntity
  8
separators
 62
256
370
-1
 48
1.0
  6
BYLAYER
100
AcDbCircle
 10
16.5000950020999966
 20
-47.8232830705000111
 30
0.0
 40
1.7499499999999983
  0
CIRCLE
  5
125
100
AcDbEntity
  8
separators
 62
256
370
-1
 48
1.0
  6
BYLAYER
100
AcDbCircle
 10
65.4987949978999922
 20
-47.823283070500004
 30
0.0
 40
1.7499499999999983
  0
ENDSEC
  0
SECTION
  2
OBJECTS
  0
DICTIONARY
  5
C
100
AcDbDictionary
280
0
281
1
  3
ACAD_GROUP
350
D
  3
ACAD_LAYOUT
350
1A
  3
ACAD_MLINESTYLE
350
17
  3
ACAD_PLOTSETTINGS
350
19
  3
ACAD_PLOTSTYLENAME
350
E
  3
AcDbVariableDictionary
350
126
  3
QCAD_OBJECTS
350
127
  0
DICTIONARY
  5
D
100
AcDbDictionary
280
0
281
1
  0
ACDBDICTIONARYWDFLT
  5
E
100
AcDbDictionary
281
1
  3
Normal
350
F
100
AcDbDictionaryWithDefault
340
F
  0
ACDBPLACEHOLDER
  5
F
  0
DICTIONARY
  5
17
100
AcDbDictionary
280
0
281
1
  3
Standard
350
18
  0
MLINESTYLE
  5
18
100
AcDbMlineStyle
  2
STANDARD
 70
0
  3

 62
256
 51
90.0
 52
90.0
 71
2
 49
0.5
 62
256
  6
BYLAYER
 49
-0.5
 62
256
  6
BYLAYER
  0
DICTIONARY
  5
19
100
AcDbDictionary
280
0
281
1
  0
DICTIONARY
  5
1A
100
AcDbDictionary
281
1
  3
Layout1
350
1E
  3
Layout2
350
26
  3
Model
350
22
  0
LAYOUT
  5
1E
100
AcDbPlotSettings
  1

  2
none_device
  4

  6

 40
0.0
 41
0.0
 42
0.0
 43
0.0
 44
0.0
 45
0.0
 46
0.0
 47
0.0
 48
0.0
 49
0.0
140
0.0
141
0.0
142
1.0
143
1.0
 70
688
 72
0
 73
0
 74
5
  7

 75
16
147
1.0
148
0.0
149
0.0
100
AcDbLayout
  1
Layout1
 70
1
 71
1
 10
0.0
 20
0.0
 11
420.0
 21
297.0
 12
0.0
 22
0.0
 32
0.0
 14
100000000000000000000.0
 24
100000000000000000000.0
 34
100000000000000000000.0
 15
-100000000000000000000.0
 25
-100000000000000000000.0
 35
-100000000000000000000.0
146
0.0
 13
0.0
 23
0.0
 33
0.0
 16
1.0
 26
0.0
 36
0.0
 17
0.0
 27
1.0
 37
0.0
 76
0
330
1B
  0
LAYOUT
  5
22
100
AcDbPlotSettings
  1

  2
none_device
  4

  6

 40
0.0
 41
0.0
 42
0.0
 43
0.0
 44
0.0
 45
0.0
 46
0.0
 47
0.0
 48
0.0
 49
0.0
140
0.0
141
0.0
142
1.0
143
1.0
 70
1712
 72
0
 73
0
 74
0
  7

 75
0
147
1.0
148
0.0
149
0.0
100
AcDbLayout
  1
Model
 70
1
 71
0
 10
0.0
 20
0.0
 11
12.0
 21
9.0
 12
0.0
 22
0.0
 32
0.0
 14
0.0
 24
0.0
 34
0.0
 15
0.0
 25
0.0
 35
0.0
146
0.0
 13
0.0
 23
0.0
 33
0.0
 16
1.0
 26
0.0
 36
0.0
 17
0.0
 27
1.0
 37
0.0
 76
0
330
1F
  0
LAYOUT
  5
26
100
AcDbPlotSettings
  1

  2
none_device
  4

  6

 40
0.0
 41
0.0
 42
0.0
 43
0.0
 44
0.0
 45
0.0
 46
0.0
 47
0.0
 48
0.0
 49
0.0
140
0.0
141
0.0
142
1.0
143
1.0
 70
688
 72
0
 73
0
 74
5
  7

 75
16
147
1.0
148
0.0
149
0.0
100
AcDbLayout
  1
Layout2
 70
1
 71
2
 10
0.0
 20
0.0
 11
12.0
 21
9.0
 12
0.0
 22
0.0
 32
0.0
 14
0.0
 24
0.0
 34
0.0
 15
0.0
 25
0.0
 35
0.0
146
0.0
 13
0.0
 23
0.0
 33
0.0
 16
1.0
 26
0.0
 36
0.0
 17
0.0
 27
1.0
 37
0.0
 76
0
330
23
  0
DICTIONARY
  5
126
100
AcDbDictionary
281
1
  3
DIMASSOC
350
129
  3
HIDETEXT
350
128
  0
DICTIONARYVAR
  5
128
100
DictionaryVariables
280
0
  1
2
  0
DICTIONARYVAR
  5
129
100
DictionaryVariables
280
0
  1
1
  0
DICTIONARY
  5
127
100
AcDbDictionary
281
1
  3
ColorSettings/BackgroundColor
350
12A
  3
ColorSettings/ColorMode
350
12B
  3
Grid/DisplayGrid00
350
12C
  3
Grid/DisplayGrid01
350
12D
  3
Grid/DisplayGrid02
350
12E
  3
Grid/DisplayGrid03
350
12F
  3
Grid/GridSpacingX00
350
130
  3
Grid/GridSpacingX01
350
131
  3
Grid/GridSpacingX02
350
132
  3
Grid/GridSpacingX03
350
133
  3
Grid/GridSpacingY00
350
134
  3
Grid/GridSpacingY01
350
135
  3
Grid/GridSpacingY02
350
136
  3
Grid/GridSpacingY03
350
137
  3
Grid/IsometricGrid00
350
138
  3
Grid/IsometricGrid01
350
139
  3
Grid/IsometricGrid02
350
13A
  3
Grid/IsometricGrid03
350
13B
  3
Grid/IsometricProjection00
350
13C
  3
Grid/IsometricProjection01
350
13D
  3
Grid/IsometricProjection02
350
13E
  3
Grid/IsometricProjection03
350
13F
  3
Grid/MetaGridSpacingX00
350
140
  3
Grid/MetaGridSpacingX01
350
141
  3
Grid/MetaGridSpacingX02
350
142
  3
Grid/MetaGridSpacingX03
350
143
  3
Grid/MetaGridSpacingY00
350
144
  3
Grid/MetaGridSpacingY01
350
145
  3
Grid/MetaGridSpacingY02
350
146
  3
Grid/MetaGridSpacingY03
350
147
  3
MultiPageSettings/Columns
350
148
  3
MultiPageSettings/GlueMarginsBottom
350
149
  3
MultiPageSettings/GlueMarginsLeft
350
14A
  3
MultiPageSettings/GlueMarginsRight
350
14B
  3
MultiPageSettings/GlueMarginsTop
350
14C
  3
MultiPageSettings/PrintCropMarks
350
14D
  3
MultiPageSettings/Rows
350
14E
  3
PageSettings/OffsetX
350
14F
  3
PageSettings/OffsetY
350
150
  3
PageSettings/PageOrientation
350
151
  3
PageSettings/PaperHeight
350
152
  3
PageSettings/PaperWidth
350
153
  3
PageSettings/Scale
350
154
  3
PageSettings/ShowPaperBorders
350
155
  3
PageTagSettings/EnablePageTags
350
156
  3
PageTagSettings/TagAlignment
350
157
  3
PageTagSettings/TagFont
350
158
  3
PageTagSettings/TagPosition
350
159
  3
QCADVersion
350
15A
  3
UnitSettings/PaperUnit
350
15B
  3
ViewportCenter
350
15C
  3
ViewportHeight
350
15D
  3
ViewportWidth
350
15E
  0
XRECORD
  5
12A
330
127
100
AcDbXrecord
280
1
1000
White
  0
XRECORD
  5
12B
330
127
100
AcDbXrecord
280
1
1000
FullColor
  0
XRECORD
  5
12C
330
127
100
AcDbXrecord
280
1
290
1
  0
XRECORD
  5
12D
330
127
100
AcDbXrecord
280
1
290
1
  0
XRECORD
  5
12E
330
127
100
AcDbXrecord
280
1
290
1
  0
XRECORD
  5
12F
330
127
100
AcDbXrecord
280
1
290
1
  0
XRECORD
  5
130
330
127
100
AcDbXrecord
280
1
1000
auto
  0
XRECORD
  5
131
330
127
100
AcDbXrecord
280
1
1000
auto
  0
XRECORD
  5
132
330
127
100
AcDbXrecord
280
1
1000
auto
  0
XRECORD
  5
133
330
127
100
AcDbXrecord
280
1
1000
auto
  0
XRECORD
  5
134
330
127
100
AcDbXrecord
280
1
1000
auto
  0
XRECORD
  5
135
330
127
100
AcDbXrecord
280
1
1000
auto
  0
XRECORD
  5
136
330
127
100
AcDbXrecord
280
1
1000
auto
  0
XRECORD
  5
137
330
127
100
AcDbXrecord
280
1
1000
auto
  0
XRECORD
  5
138
330
127
100
AcDbXrecord
280
1
290
0
  0
XRECORD
  5
139
330
127
100
AcDbXrecord
280
1
290
0
  0
XRECORD
  5
13A
330
127
100
AcDbXrecord
280
1
290
0
  0
XRECORD
  5
13B
330
127
100
AcDbXrecord
280
1
290
0
  0
XRECORD
  5
13C
330
127
100
AcDbXrecord
280
1
 90
65537
  0
XRECORD
  5
13D
330
127
100
AcDbXrecord
280
1
 90
65537
  0
XRECORD
  5
13E
330
127
100
AcDbXrecord
280
1
 90
65537
  0
XRECORD
  5
13F
330
127
100
AcDbXrecord
280
1
 90
65537
  0
XRECORD
  5
140
330
127
100
AcDbXrecord
280
1
1000
auto
  0
XRECORD
  5
141
330
127
100
AcDbXrecord
280
1
1000
auto
  0
XRECORD
  5
142
330
127
100
AcDbXrecord
280
1
1000
auto
  0
XRECORD
  5
143
330
127
100
AcDbXrecord
280
1
1000
auto
  0
XRECORD
  5
144
330
127
100
AcDbXrecord
280
1
1000
auto
  0
XRECORD
  5
145
330
127
100
AcDbXrecord
280
1
1000
auto
  0
XRECORD
  5
146
330
127
100
AcDbXrecord
280
1
1000
auto
  0
XRECORD
  5
147
330
127
100
AcDbXrecord
280
1
1000
auto
  0
XRECORD
  5
148
330
127
100
AcDbXrecord
280
1
 90
1
  0
XRECORD
  5
149
330
127
100
AcDbXrecord
280
1
 40
10.0
  0
XRECORD
  5
14A
330
127
100
AcDbXrecord
280
1
 40
10.0
  0
XRECORD
  5
14B
330
127
100
AcDbXrecord
280
1
 40
10.0
  0
XRECORD
  5
14C
330
127
100
AcDbXrecord
280
1
 40
10.0
  0
XRECORD
  5
14D
330
127
100
AcDbXrecord
280
1
290
0
  0
XRECORD
  5
14E
330
127
100
AcDbXrecord
280
1
 90
1
  0
XRECORD
  5
14F
330
127
100
AcDbXrecord
280
1
 40
0.0
  0
XRECORD
  5
150
330
127
100
AcDbXrecord
280
1
 40
0.0
  0
XRECORD
  5
151
330
127
100
AcDbXrecord
280
1
1000
Portrait
  0
XRECORD
  5
152
330
127
100
AcDbXrecord
280
1
 40
297.0
  0
XRECORD
  5
153
330
127
100
AcDbXrecord
280
1
 40
210.0
  0
XRECORD
  5
154
330
127
100
AcDbXrecord
280
1
1000
1:1
  0
XRECORD
  5
155
330
127
100
AcDbXrecord
280
1
290
1
  0
XRECORD
  5
156
330
127
100
AcDbXrecord
280
1
290
0
  0
XRECORD
  5
157
330
127
100
AcDbXrecord
280
1
1000
Inside
  0
XRECORD
  5
158
330
127
100
AcDbXrecord
280
1
1000
Arial,10,-1,5,50,0,0,0,0,0
  0
XRECORD
  5
159
330
127
100
AcDbXrecord
280
1
1000
TopLeft
  0
XRECORD
  5
15A
330
127
100
AcDbXrecord
280
1
1000
3.28.1
  0
XRECORD
  5
15B
330
127
100
AcDbXrecord
280
1
 90
4
  0
XRECORD
  5
15D
330
127
100
AcDbXrecord
280
1
 40
59.3204095742621931
  0
XRECORD
  5
15E
330
127
100
AcDbXrecord
280
1
 40
119.4391269378260461
  0
ENDSEC
  0
EOF
