999
dxflib 3.26.4.0
  0
SECTION
  2
HEADER
  9
$ACADVER
  1
AC1015
  9
$HANDSEED
  5
FFFF
  9
$DIMADEC
 70
0
  9
$DIMASZ
 40
1.0
  9
$DIMATFIT
 70
0
  9
$DIMAUNIT
 70
0
  9
$DIMAZIN
 70
2
  9
$DIMBLK
  1
0
  9
$DIMBLK1
  1
0
  9
$DIMBLK2
  1
0
  9
$DIMDEC
 70
4
  9
$DIMDLI
 40
2.0
  9
$DIMDSEP
 70
46
  9
$DIMEXE
 40
0.5
  9
$DIMEXO
 40
0.25
  9
$DIMGAP
 40
0.25
  9
$DIMLFAC
 40
1.0
  9
$DIMLUNIT
 70
2
  9
$DIMSCALE
 40
1.0
  9
$DIMTAD
 70
1
  9
$DIMTIH
 70
0
  9
$DIMTSZ
 40
0.0
  9
$DIMTXT
 40
1.0
  9
$DIMZIN
 70
8
  9
$DWGCODEPAGE
  3
ANSI_1252
  9
$INSUNITS
 70
4
  9
$LTSCALE
 40
1.0
  9
$MAXACTVP
 70
64
  9
$MEASUREMENT
 70
1
  9
$MIRRTEXT
 70
0
  9
$PDMODE
 70
0
  9
$PDSIZE
 40
0.0
  0
ENDSEC
  0
SECTION
  2
TABLES
  0
TABLE
  2
VPORT
  5
8
100
AcDbSymbolTable
 70
1
  0
VPORT
  5
30
100
AcDbSymbolTableRecord
100
AcDbViewportTableRecord
  2
*Active
 70
0
 10
0.0
 20
0.0
 11
1.0
 21
1.0
 12
286.3055555555554861
 22
148.5
 13
0.0
 23
0.0
 14
10.0
 24
10.0
 15
10.0
 25
10.0
 16
0.0
 26
0.0
 36
1.0
 17
0.0
 27
0.0
 37
0.0
 40
297.0
 41
1.92798353909465
 42
50.0
 43
0.0
 44
0.0
 50
0.0
 51
0.0
 71
0
 72
100
 73
1
 74
3
 75
1
 76
1
 77
0
 78
0
281
0
 65
1
110
0.0
120
0.0
130
0.0
111
1.0
121
0.0
131
0.0
112
0.0
122
1.0
132
0.0
 79
0
146
0.0
  0
ENDTAB
  0
TABLE
  2
LTYPE
  5
5
100
AcDbSymbolTable
 70
41
  0
LTYPE
  5
16
100
AcDbSymbolTableRecord
100
AcDbLinetypeTableRecord
  2
Continuous
 70
0
  3
Solid line
 72
65
 73
0
 40
0.0
  0
LTYPE
  5
31
100
AcDbSymbolTableRecord
100
AcDbLinetypeTableRecord
  2
ACAD_ISO07W100
 70
0
  3
ISO dot . . . . . . . . . . . . . . . . . . . . 
 72
65
 73
2
 40
3.0
 49
0.1
 74
0
 49
-2.8999999999999999
 74
0
  0
LTYPE
  5
32
100
AcDbSymbolTableRecord
100
AcDbLinetypeTableRecord
  2
HIDDENX2
 70
0
  3
Hidden (2x) ____ ____ ____ ____ ____ ____ ____ 
 72
65
 73
2
 40
19.0499999999999972
 49
12.6999999999999993
 74
0
 49
-6.3499999999999996
 74
0
  0
LTYPE
  5
33
100
AcDbSymbolTableRecord
100
AcDbLinetypeTableRecord
  2
ACAD_ISO06W100
 70
0
  3
ISO long-dash triple-dot ____ ... ____ ... ____
 72
65
 73
8
 40
36.0000000000000071
 49
24.0
 74
0
 49
-2.9500000000000002
 74
0
 49
0.1
 74
0
 49
-2.9000000000000004
 74
0
 49
0.1
 74
0
 49
-2.9000000000000004
 74
0
 49
0.1
 74
0
 49
-2.9500000000000002
 74
0
  0
LTYPE
  5
34
100
AcDbSymbolTableRecord
100
AcDbLinetypeTableRecord
  2
ACAD_ISO03W100
 70
0
  3
ISO dash space __    __    __    __    __    __
 72
65
 73
2
 40
30.0
 49
12.0
 74
0
 49
-18.0
 74
0
  0
LTYPE
  5
35
100
AcDbSymbolTableRecord
100
AcDbLinetypeTableRecord
  2
DOT2
 70
0
  3
Dot (.5x) ........................................
 72
65
 73
2
 40
3.1749999999999998
 49
0.1
 74
0
 49
-3.0749999999999997
 74
0
  0
LTYPE
  5
36
100
AcDbSymbolTableRecord
100
AcDbLinetypeTableRecord
  2
CENTER2
 70
0
  3
Center (.5x) ___ _ ___ _ ___ _ ___ _ ___ _ ___
 72
65
 73
4
 40
28.5750000000000028
 49
19.0500000000000007
 74
0
 49
-3.1749999999999998
 74
0
 49
3.1749999999999998
 74
0
 49
-3.1749999999999998
 74
0
  0
LTYPE
  5
37
100
AcDbSymbolTableRecord
100
AcDbLinetypeTableRecord
  2
DOTX2
 70
0
  3
Dot (2x) .  .  .  .  .  .  .  .  .  .  .  .  .  .
 72
65
 73
2
 40
12.6999999999999993
 49
0.1
 74
0
 49
-12.5999999999999996
 74
0
  0
LTYPE
  5
38
100
AcDbSymbolTableRecord
100
AcDbLinetypeTableRecord
  2
DASHED2
 70
0
  3
Dashed (.5x) _ _ _ _ _ _ _ _ _ _ _ _ _ _ _ _ _ 
 72
65
 73
2
 40
9.5249999999999986
 49
6.3499999999999996
 74
0
 49
-3.1749999999999998
 74
0
  0
LTYPE
  5
39
100
AcDbSymbolTableRecord
100
AcDbLinetypeTableRecord
  2
ACAD_ISO08W100
 70
0
  3
ISO long-dash short-dash ____ __ ____ __ ____ _
 72
65
 73
4
 40
36.0
 49
24.0
 74
0
 49
-3.0
 74
0
 49
6.0
 74
0
 49
-3.0
 74
0
  0
LTYPE
  5
3A
100
AcDbSymbolTableRecord
100
AcDbLinetypeTableRecord
  2
DIVIDEX2
 70
0
  3
Divide (2x) ________  .  .  ________  .  .  _
 72
65
 73
6
 40
63.5
 49
25.3999999999999986
 74
0
 49
-12.6499999999999986
 74
0
 49
0.1
 74
0
 49
-12.5999999999999979
 74
0
 49
0.1
 74
0
 49
-12.6499999999999986
 74
0
  0
LTYPE
  5
3B
100
AcDbSymbolTableRecord
100
AcDbLinetypeTableRecord
  2
DIVIDE
 70
0
  3
Divide ____ . . ____ . . ____ . . ____ . . ____
 72
65
 73
6
 40
31.7500000000000036
 49
12.6999999999999993
 74
0
 49
-6.2999999999999998
 74
0
 49
0.1
 74
0
 49
-6.25
 74
0
 49
0.1
 74
0
 49
-6.2999999999999998
 74
0
  0
LTYPE
  5
3C
100
AcDbSymbolTableRecord
100
AcDbLinetypeTableRecord
  2
DASHDOT2
 70
0
  3
Dash dot (.5x) _._._._._._._._._._._._._._._.
 72
65
 73
4
 40
12.6999999999999993
 49
6.3499999999999996
 74
0
 49
-3.125
 74
0
 49
0.1
 74
0
 49
-3.125
 74
0
  0
LTYPE
  5
3D
100
AcDbSymbolTableRecord
100
AcDbLinetypeTableRecord
  2
BORDER
 70
0
  3
Border __ __ . __ __ . __ __ . __ __ . __ __ .
 72
65
 73
6
 40
44.4499999999999957
 49
12.6999999999999993
 74
0
 49
-6.3499999999999996
 74
0
 49
12.6999999999999993
 74
0
 49
-6.2999999999999998
 74
0
 49
0.1
 74
0
 49
-6.2999999999999998
 74
0
  0
LTYPE
  5
3E
100
AcDbSymbolTableRecord
100
AcDbLinetypeTableRecord
  2
HIDDEN2
 70
0
  3
Hidden (.5x) _ _ _ _ _ _ _ _ _ _ _ _ _ _ _ _ _ 
 72
65
 73
2
 40
4.7624999999999993
 49
3.1749999999999998
 74
0
 49
-1.5874999999999999
 74
0
  0
LTYPE
  5
3F
100
AcDbSymbolTableRecord
100
AcDbLinetypeTableRecord
  2
ACAD_ISO02W100
 70
0
  3
ISO dash __ __ __ __ __ __ __ __ __ __ __ __ __
 72
65
 73
2
 40
15.0
 49
12.0
 74
0
 49
-3.0
 74
0
  0
LTYPE
  5
40
100
AcDbSymbolTableRecord
100
AcDbLinetypeTableRecord
  2
ACAD_ISO14W100
 70
0
  3
ISO dash triple-dot __ . . . __ . . . __ . . . _
 72
65
 73
8
 40
24.0000000000000036
 49
12.0
 74
0
 49
-2.9500000000000002
 74
0
 49
0.1
 74
0
 49
-2.9000000000000004
 74
0
 49
0.1
 74
0
 49
-2.9000000000000004
 74
0
 49
0.1
 74
0
 49
-2.9500000000000002
 74
0
  0
LTYPE
  5
41
100
AcDbSymbolTableRecord
100
AcDbLinetypeTableRecord
  2
ACAD_ISO11W100
 70
0
  3
ISO double-dash dot __ __ . __ __ . __ __ . __ _
 72
65
 73
6
 40
33.0
 49
12.0
 74
0
 49
-3.0
 74
0
 49
12.0
 74
0
 49
-2.9500000000000002
 74
0
 49
0.1
 74
0
 49
-2.9500000000000002
 74
0
  0
LTYPE
  5
14
100
AcDbSymbolTableRecord
100
AcDbLinetypeTableRecord
  2
BYBLOCK
 70
0
  3

 72
65
 73
0
 40
0.0
  0
LTYPE
  5
42
100
AcDbSymbolTableRecord
100
AcDbLinetypeTableRecord
  2
ACAD_ISO10W100
 70
0
  3
ISO dash dot __ . __ . __ . __ . __ . __ . __ . 
 72
65
 73
4
 40
18.0
 49
12.0
 74
0
 49
-2.9500000000000002
 74
0
 49
0.1
 74
0
 49
-2.9500000000000002
 74
0
  0
LTYPE
  5
43
100
AcDbSymbolTableRecord
100
AcDbLinetypeTableRecord
  2
PHANTOM
 70
0
  3
Phantom ______  __  __  ______  __  __  ______ 
 72
65
 73
6
 40
63.5000000000000071
 49
31.75
 74
0
 49
-6.3499999999999996
 74
0
 49
6.3499999999999996
 74
0
 49
-6.3499999999999996
 74
0
 49
6.3499999999999996
 74
0
 49
-6.3499999999999996
 74
0
  0
LTYPE
  5
44
100
AcDbSymbolTableRecord
100
AcDbLinetypeTableRecord
  2
ACAD_ISO04W100
 70
0
  3
ISO long-dash dot ____ . ____ . ____ . ____ . _
 72
65
 73
4
 40
30.0
 49
24.0
 74
0
 49
-2.9500000000000002
 74
0
 49
0.1
 74
0
 49
-2.9500000000000002
 74
0
  0
LTYPE
  5
45
100
AcDbSymbolTableRecord
100
AcDbLinetypeTableRecord
  2
PHANTOM2
 70
0
  3
Phantom (.5x) ___ _ _ ___ _ _ ___ _ _ ___ _ _
 72
65
 73
6
 40
31.7500000000000036
 49
15.875
 74
0
 49
-3.1749999999999998
 74
0
 49
3.1749999999999998
 74
0
 49
-3.1749999999999998
 74
0
 49
3.1749999999999998
 74
0
 49
-3.1749999999999998
 74
0
  0
LTYPE
  5
46
100
AcDbSymbolTableRecord
100
AcDbLinetypeTableRecord
  2
CENTERX2
 70
0
  3
Center (2x) ________  __  ________  __  _____
 72
65
 73
4
 40
101.6000000000000085
 49
63.5
 74
0
 49
-12.6999999999999993
 74
0
 49
12.6999999999999993
 74
0
 49
-12.6999999999999993
 74
0
  0
LTYPE
  5
47
100
AcDbSymbolTableRecord
100
AcDbLinetypeTableRecord
  2
DASHDOT
 70
0
  3
Dash dot __ . __ . __ . __ . __ . __ . __ . __
 72
65
 73
4
 40
25.4000000000000021
 49
12.6999999999999993
 74
0
 49
-6.2999999999999998
 74
0
 49
0.1
 74
0
 49
-6.2999999999999998
 74
0
  0
LTYPE
  5
48
100
AcDbSymbolTableRecord
100
AcDbLinetypeTableRecord
  2
DIVIDE2
 70
0
  3
Divide (.5x) __..__..__..__..__..__..__..__.._
 72
65
 73
6
 40
15.8749999999999982
 49
6.3499999999999996
 74
0
 49
-3.125
 74
0
 49
0.1
 74
0
 49
-3.0750000000000002
 74
0
 49
0.1
 74
0
 49
-3.125
 74
0
  0
LTYPE
  5
49
100
AcDbSymbolTableRecord
100
AcDbLinetypeTableRecord
  2
DASHED
 70
0
  3
Dashed __ __ __ __ __ __ __ __ __ __ __ __ __ _
 72
65
 73
2
 40
19.0499999999999972
 49
12.6999999999999993
 74
0
 49
-6.3499999999999996
 74
0
  0
LTYPE
  5
4A
100
AcDbSymbolTableRecord
100
AcDbLinetypeTableRecord
  2
CENTER
 70
0
  3
Center ____ _ ____ _ ____ _ ____ _ ____ _ ____
 72
65
 73
4
 40
50.8000000000000043
 49
31.75
 74
0
 49
-6.3499999999999996
 74
0
 49
6.3499999999999996
 74
0
 49
-6.3499999999999996
 74
0
  0
LTYPE
  5
15
100
AcDbSymbolTableRecord
100
AcDbLinetypeTableRecord
  2
BYLAYER
 70
0
  3

 72
65
 73
0
 40
0.0
  0
LTYPE
  5
4B
100
AcDbSymbolTableRecord
100
AcDbLinetypeTableRecord
  2
DASHDOTX2
 70
0
  3
Dash dot (2x) ____  .  ____  .  ____  .  ___
 72
65
 73
4
 40
50.7999999999999972
 49
25.3999999999999986
 74
0
 49
-12.6499999999999986
 74
0
 49
0.1
 74
0
 49
-12.6499999999999986
 74
0
  0
LTYPE
  5
4C
100
AcDbSymbolTableRecord
100
AcDbLinetypeTableRecord
  2
ACAD_ISO15W100
 70
0
  3
ISO double-dash triple-dot __ __ . . . __ __ . .
 72
65
 73
10
 40
39.0000000000000071
 49
12.0
 74
0
 49
-3.0
 74
0
 49
12.0
 74
0
 49
-2.9500000000000002
 74
0
 49
0.1
 74
0
 49
-2.9000000000000004
 74
0
 49
0.1
 74
0
 49
-2.9000000000000004
 74
0
 49
0.1
 74
0
 49
-2.9500000000000002
 74
0
  0
LTYPE
  5
4D
100
AcDbSymbolTableRecord
100
AcDbLinetypeTableRecord
  2
BORDER2
 70
0
  3
Border (.5x) __.__.__.__.__.__.__.__.__.__.__.
 72
65
 73
6
 40
22.2250000000000014
 49
6.3499999999999996
 74
0
 49
-3.1749999999999998
 74
0
 49
6.3499999999999996
 74
0
 49
-3.125
 74
0
 49
0.1
 74
0
 49
-3.125
 74
0
  0
LTYPE
  5
4E
100
AcDbSymbolTableRecord
100
AcDbLinetypeTableRecord
  2
ACAD_ISO12W100
 70
0
  3
ISO dash double-dot __ . . __ . . __ . . __ . . 
 72
65
 73
6
 40
21.0
 49
12.0
 74
0
 49
-2.9500000000000002
 74
0
 49
0.1
 74
0
 49
-2.9000000000000004
 74
0
 49
0.1
 74
0
 49
-2.9500000000000002
 74
0
  0
LTYPE
  5
4F
100
AcDbSymbolTableRecord
100
AcDbLinetypeTableRecord
  2
DOT
 70
0
  3
Dot . . . . . . . . . . . . . . . . . . . . . . . .
 72
65
 73
2
 40
6.3499999999999996
 49
0.1
 74
0
 49
-6.25
 74
0
  0
LTYPE
  5
50
100
AcDbSymbolTableRecord
100
AcDbLinetypeTableRecord
  2
ACAD_ISO05W100
 70
0
  3
ISO long-dash double-dot ____ .. ____ .. ____ . 
 72
65
 73
6
 40
33.0000000000000071
 49
24.0
 74
0
 49
-2.9500000000000002
 74
0
 49
0.1
 74
0
 49
-2.9000000000000004
 74
0
 49
0.1
 74
0
 49
-2.9500000000000002
 74
0
  0
LTYPE
  5
51
100
AcDbSymbolTableRecord
100
AcDbLinetypeTableRecord
  2
DASHEDX2
 70
0
  3
Dashed (2x) ____  ____  ____  ____  ____  ___
 72
65
 73
2
 40
38.0999999999999943
 49
25.3999999999999986
 74
0
 49
-12.6999999999999993
 74
0
  0
LTYPE
  5
52
100
AcDbSymbolTableRecord
100
AcDbLinetypeTableRecord
  2
PHANTOMX2
 70
0
  3
Phantom (2x) ____________    ____    ____   _
 72
65
 73
6
 40
127.0000000000000142
 49
63.5
 74
0
 49
-12.6999999999999993
 74
0
 49
12.6999999999999993
 74
0
 49
-12.6999999999999993
 74
0
 49
12.6999999999999993
 74
0
 49
-12.6999999999999993
 74
0
  0
LTYPE
  5
53
100
AcDbSymbolTableRecord
100
AcDbLinetypeTableRecord
  2
BORDERX2
 70
0
  3
Border (2x) ____  ____  .  ____  ____  .  ___
 72
65
 73
6
 40
88.8999999999999773
 49
25.3999999999999986
 74
0
 49
-12.6999999999999993
 74
0
 49
25.3999999999999986
 74
0
 49
-12.6499999999999986
 74
0
 49
0.1
 74
0
 49
-12.6499999999999986
 74
0
  0
LTYPE
  5
54
100
AcDbSymbolTableRecord
100
AcDbLinetypeTableRecord
  2
ACAD_ISO09W100
 70
0
  3
ISO long-dash double-short-dash ____ __ __ ____
 72
65
 73
6
 40
45.0
 49
24.0
 74
0
 49
-3.0
 74
0
 49
6.0
 74
0
 49
-3.0
 74
0
 49
6.0
 74
0
 49
-3.0
 74
0
  0
LTYPE
  5
55
100
AcDbSymbolTableRecord
100
AcDbLinetypeTableRecord
  2
ACAD_ISO13W100
 70
0
  3
ISO double-dash double-dot __ __ . . __ __ . . _
 72
65
 73
8
 40
36.0000000000000071
 49
12.0
 74
0
 49
-3.0
 74
0
 49
12.0
 74
0
 49
-2.9500000000000002
 74
0
 49
0.1
 74
0
 49
-2.9000000000000004
 74
0
 49
0.1
 74
0
 49
-2.9500000000000002
 74
0
  0
LTYPE
  5
56
100
AcDbSymbolTableRecord
100
AcDbLinetypeTableRecord
  2
HIDDEN
 70
0
  3
Hidden __ __ __ __ __ __ __ __ __ __ __ __ __ __
 72
65
 73
2
 40
9.5249999999999986
 49
6.3499999999999996
 74
0
 49
-3.1749999999999998
 74
0
  0
ENDTAB
  0
TABLE
  2
LAYER
  5
2
100
AcDbSymbolTable
 70
5
  0
LAYER
  5
57
100
AcDbSymbolTableRecord
100
AcDbLayerTableRecord
  2
vertical quotas
 70
0
 62
2
420
16776960
  6
Continuous
370
5
390
F
  0
LAYER
  5
10
100
AcDbSymbolTableRecord
100
AcDbLayerTableRecord
  2
0
 70
4
 62
3
420
65280
  6
Continuous
370
25
390
F
  0
LAYER
  5
58
100
AcDbSymbolTableRecord
100
AcDbLayerTableRecord
  2
vertical
 70
0
 62
1
420
16711680
  6
Continuous
370
25
390
F
  0
LAYER
  5
59
100
AcDbSymbolTableRecord
100
AcDbLayerTableRecord
  2
horizontal quotas
 70
0
 62
7
420
0
  6
Continuous
370
5
390
F
  0
LAYER
  5
5A
100
AcDbSymbolTableRecord
100
AcDbLayerTableRecord
  2
horizontal
 70
0
 62
134
420
32896
  6
Continuous
370
25
390
F
  0
ENDTAB
  0
TABLE
  2
STYLE
  5
3
100
AcDbSymbolTable
 70
1
  0
STYLE
  5
5B
100
AcDbSymbolTableRecord
100
AcDbTextStyleTableRecord
  2
Standard
 70
0
 40
0.0
 41
1.0
 50
0.0
 71
0
 42
2.5
  3

  4

1001
ACAD
1000
txt
1071
0
  0
ENDTAB
  0
TABLE
  2
VIEW
  5
6
100
AcDbSymbolTable
 70
0
  0
ENDTAB
  0
TABLE
  2
UCS
  5
7
100
AcDbSymbolTable
 70
0
  0
ENDTAB
  0
TABLE
  2
APPID
  5
9
100
AcDbSymbolTable
 70
1
  0
APPID
  5
12
100
AcDbSymbolTableRecord
100
AcDbRegAppTableRecord
  2
ACAD
 70
0
  0
APPID
  5
5C
100
AcDbSymbolTableRecord
100
AcDbRegAppTableRecord
  2
QCAD
 70
0
  0
ENDTAB
  0
TABLE
  2
DIMSTYLE
  5
A
100
AcDbSymbolTable
 70
1
100
AcDbDimStyleTable
 71
0
  0
DIMSTYLE
105
27
100
AcDbSymbolTableRecord
100
AcDbDimStyleTableRecord
  2
Standard
 41
1.0
 42
0.25
 43
3.75
 44
0.5
 70
0
 73
0
 74
0
 77
1
 78
8
140
1.0
141
2.5
143
0.03937007874016
147
0.25
171
3
172
1
271
2
272
2
274
3
278
44
283
0
284
8
340
5B
  0
ENDTAB
  0
TABLE
  2
BLOCK_RECORD
  5
1
100
AcDbSymbolTable
 70
1
  0
BLOCK_RECORD
  5
1F
100
AcDbSymbolTableRecord
100
AcDbBlockTableRecord
  2
*Model_Space
340
22
  0
BLOCK_RECORD
  5
1B
100
AcDbSymbolTableRecord
100
AcDbBlockTableRecord
  2
*Paper_Space
340
1E
  0
BLOCK_RECORD
  5
23
100
AcDbSymbolTableRecord
100
AcDbBlockTableRecord
  2
*Paper_Space0
340
26
  0
ENDTAB
  0
ENDSEC
  0
SECTION
  2
BLOCKS
  0
BLOCK
  5
20
100
AcDbEntity
  8
0
100
AcDbBlockBegin
  2
*Model_Space
 70
0
 10
0.0
 20
0.0
 30
0.0
  3
*Model_Space
  1

  0
ENDBLK
  5
21
100
AcDbEntity
  8
0
100
AcDbBlockEnd
  0
BLOCK
  5
1C
100
AcDbEntity
 67
1
  8
0
100
AcDbBlockBegin
  2
*Paper_Space
 70
0
 10
0.0
 20
0.0
 30
0.0
  3
*Paper_Space
  1

  0
ENDBLK
  5
1D
100
AcDbEntity
 67
1
  8
0
100
AcDbBlockEnd
  0
BLOCK
  5
24
100
AcDbEntity
  8
0
100
AcDbBlockBegin
  2
*Paper_Space0
 70
0
 10
0.0
 20
0.0
 30
0.0
  3
*Paper_Space0
  1

  0
ENDBLK
  5
25
100
AcDbEntity
  8
0
100
AcDbBlockEnd
  0
ENDSEC
  0
SECTION
  2
ENTITIES
  0
LINE
  5
5D
100
AcDbEntity
  8
0
 62
256
370
-1
 48
1.0
  6
BYLAYER
100
AcDbLine
 10
-22.5
 20
10.0
 30
0.0
 11
22.5
 21
10.0
 31
0.0
  0
LINE
  5
5E
100
AcDbEntity
  8
0
 62
256
370
-1
 48
1.0
  6
BYLAYER
100
AcDbLine
 10
22.5
 20
10.0
 30
0.0
 11
22.5
 21
-10.0
 31
0.0
  0
LINE
  5
5F
100
AcDbEntity
  8
0
 62
256
370
-1
 48
1.0
  6
BYLAYER
100
AcDbLine
 10
22.5
 20
-10.0
 30
0.0
 11
-22.5
 21
-10.0
 31
0.0
  0
LINE
  5
60
100
AcDbEntity
  8
0
 62
256
370
-1
 48
1.0
  6
BYLAYER
100
AcDbLine
 10
-22.5
 20
-10.0
 30
0.0
 11
-22.5
 21
10.0
 31
0.0
  0
CIRCLE
  5
61
100
AcDbEntity
  8
horizontal
 62
256
370
-1
 48
1.0
  6
BYLAYER
100
AcDbCircle
 10
-21.0
 20
13.0
 30
0.0
 40
1.5
  0
CIRCLE
  5
62
100
AcDbEntity
  8
vertical
 62
256
370
-1
 48
1.0
  6
BYLAYER
100
AcDbCircle
 10
-25.4999999999999964
 20
-8.5
 30
0.0
 40
1.5
  0
CIRCLE
  5
63
100
AcDbEntity
  8
horizontal
 62
256
370
-1
 48
1.0
  6
BYLAYER
100
AcDbCircle
 10
21.0000000000000071
 20
13.0000000000000018
 30
0.0
 40
1.5
  0
CIRCLE
  5
64
100
AcDbEntity
  8
horizontal
 62
256
370
-1
 48
1.0
  6
BYLAYER
100
AcDbCircle
 10
-21.0
 20
-13.0
 30
0.0
 40
1.5
  0
CIRCLE
  5
65
100
AcDbEntity
  8
vertical
 62
256
370
-1
 48
1.0
  6
BYLAYER
100
AcDbCircle
 10
25.4999999999999964
 20
-8.5
 30
0.0
 40
1.5
  0
CIRCLE
  5
66
100
AcDbEntity
  8
horizontal
 62
256
370
-1
 48
1.0
  6
BYLAYER
100
AcDbCircle
 10
21.0000000000000036
 20
-12.9999999999999982
 30
0.0
 40
1.5
  0
DIMENSION
  5
67
100
AcDbEntity
  8
horizontal quotas
 62
256
370
-1
 48
1.0
  6
BYLAYER
100
AcDbDimension
 10
-30.0
 20
-10.0
 30
0.0
 11
-31.875
 21
-10.0
 31
0.0
 70
128
 71
8
 72
2
 74
0
 75
0
 41
1.0
 42
0.0
  1
thin_overlap
  3
Standard
100
AcDbAlignedDimension
 13
-20.0
 23
-10.0
 33
0.0
 14
-18.0
 24
-9.0
 34
0.0
 50
90.0
100
AcDbRotatedDimension
1001
ACAD
1000
DSTYLE
1002
{
1070
279
1070
2
1070
144
1040
1.0
1070
40
1040
1.0
1002
}
  0
DIMENSION
  5
68
100
AcDbEntity
  8
horizontal quotas
 62
256
370
-1
 48
1.0
  6
BYLAYER
100
AcDbDimension
 10
-22.5
 20
-20.0
 30
0.0
 11
-13.5833333333333357
 21
-19.25
 31
0.0
 70
0
 71
8
 72
2
 74
0
 75
0
 41
1.0
 42
0.0
  1
wide_overlap
  3
Standard
100
AcDbAlignedDimension
 13
-22.5
 23
-10.0
 33
0.0
 14
-18.0
 24
1.0
 34
0.0
 50
0.0
100
AcDbRotatedDimension
1001
ACAD
1000
DSTYLE
1002
{
1070
144
1040
1.0
1070
40
1040
1.0
1002
}
  0
DIMENSION
  5
69
100
AcDbEntity
  8
horizontal quotas
 62
256
370
-1
 48
1.0
  6
BYLAYER
100
AcDbDimension
 10
-22.5
 20
23.0
 30
0.0
 11
-1.25
 21
23.75
 31
0.0
 70
0
 71
8
 72
2
 74
0
 75
0
 41
1.0
 42
0.0
  1
pcb_w
  3
Standard
100
AcDbAlignedDimension
 13
-22.5
 23
10.0
 33
0.0
 14
20.0
 24
10.0
 34
0.0
 50
0.0
100
AcDbRotatedDimension
1001
ACAD
1000
DSTYLE
1002
{
1070
144
1040
1.0
1070
40
1040
1.0
1002
}
  0
DIMENSION
  5
6A
100
AcDbEntity
  8
horizontal quotas
 62
256
370
-1
 48
1.0
  6
BYLAYER
100
AcDbDimension
 10
30.0
 20
10.0
 30
0.0
 11
29.25
 21
0.0000000000000001
 31
0.0
 70
0
 71
8
 72
2
 74
0
 75
0
 41
1.0
 42
0.0
  1
pcb_h
  3
Standard
100
AcDbAlignedDimension
 13
20.0
 23
10.0
 33
0.0
 14
20.0
 24
-10.0
 34
0.0
 50
90.0
100
AcDbRotatedDimension
1001
ACAD
1000
DSTYLE
1002
{
1070
144
1040
1.0
1070
40
1040
1.0
1002
}
  0
DIMENSION
  5
6B
100
AcDbEntity
  8
horizontal quotas
 62
256
370
-1
 48
1.0
  6
BYLAYER
100
AcDbDimension
 10
-22.5
 20
-30.0
 30
0.0
 11
-18.25
 21
-29.25
 31
0.0
 70
0
 71
8
 72
2
 74
0
 75
0
 41
1.0
 42
0.0
  1
inclusion
  3
Standard
100
AcDbAlignedDimension
 13
-22.5
 23
-10.0
 33
0.0
 14
-14.0
 24
-10.0
 34
0.0
 50
0.0
100
AcDbRotatedDimension
1001
ACAD
1000
DSTYLE
1002
{
1070
144
1040
1.0
1070
40
1040
1.0
1002
}
  0
DIMENSION
  5
6C
100
AcDbEntity
  8
horizontal quotas
 62
256
370
-1
 48
1.0
  6
BYLAYER
100
AcDbDimension
 10
-40.0
 20
-16.0000000000000036
 30
0.0
 11
-40.75
 21
-0.0000000000000035
 31
0.0
 70
0
 71
8
 72
2
 74
0
 75
0
 41
1.0
 42
0.0
  1
pcb_h+4*wall+2*nominal_d
  3
Standard
100
AcDbAlignedDimension
 13
-18.0
 23
-16.0000000000000036
 33
0.0
 14
-23.9999999999999929
 24
16.0
 34
0.0
 50
90.0
100
AcDbRotatedDimension
1001
ACAD
1000
DSTYLE
1002
{
1070
144
1040
1.0
1070
40
1040
1.0
1002
}
  0
DIMENSION
  5
6D
100
AcDbEntity
  8
horizontal quotas
 62
256
370
-1
 48
1.0
  6
BYLAYER
100
AcDbDimension
 10
-30.0
 20
14.5
 30
0.0
 11
-31.0
 21
18.0
 31
0.0
 70
128
 71
8
 72
2
 74
0
 75
0
 41
1.0
 42
0.0
  1
wall
  3
Standard
100
AcDbAlignedDimension
 13
-21.0
 23
14.5
 33
0.0
 14
-23.9999999999999929
 24
16.0
 34
0.0
 50
90.0
100
AcDbRotatedDimension
1001
ACAD
1000
DSTYLE
1002
{
1070
279
1070
2
1070
144
1040
1.0
1070
40
1040
1.0
1002
}
  0
DIMENSION
  5
6E
100
AcDbEntity
  8
horizontal quotas
 62
256
370
-1
 48
1.0
  6
BYLAYER
100
AcDbDimension
 10
-22.5
 20
20.0
 30
0.0
 11
-16.9166666666666679
 21
20.75
 31
0.0
 70
0
 71
8
 72
2
 74
0
 75
0
 41
1.0
 42
0.0
  1
nominal_d/2
  3
Standard
100
AcDbAlignedDimension
 13
-22.5
 23
10.0
 33
0.0
 14
-21.0
 24
13.0
 34
0.0
 50
0.0
100
AcDbRotatedDimension
1001
ACAD
1000
DSTYLE
1002
{
1070
144
1040
1.0
1070
40
1040
1.0
1002
}
  0
DIMENSION
  5
6F
100
AcDbEntity
  8
horizontal quotas
 62
256
370
-1
 48
1.0
  6
BYLAYER
100
AcDbDimension
 10
-30.0
 20
11.5
 30
0.0
 11
-31.3707678259174187
 21
9.0
 31
0.0
 70
128
 71
8
 72
2
 74
0
 75
0
 41
1.0
 42
0.0
  1
wall
  3
Standard
100
AcDbAlignedDimension
 13
-21.0
 23
11.5
 33
0.0
 14
-20.0
 24
10.0
 34
0.0
 50
90.0
100
AcDbRotatedDimension
1001
ACAD
1000
DSTYLE
1002
{
1070
279
1070
2
1070
144
1040
1.0
1070
40
1040
1.0
1002
}
  0
DIMENSION
  5
70
100
AcDbEntity
  8
horizontal quotas
 62
256
370
-1
 48
1.0
  6
BYLAYER
100
AcDbDimension
 10
-35.0
 20
11.5
 30
0.0
 11
-36.1999999999999957
 21
12.9999999999999982
 31
0.0
 70
128
 71
8
 72
2
 74
0
 75
0
 41
1.0
 42
0.0
  1
nominal_d
  3
Standard
100
AcDbAlignedDimension
 13
-21.0
 23
11.5
 33
0.0
 14
-21.0
 24
14.5
 34
0.0
 50
90.0
100
AcDbRotatedDimension
1001
ACAD
1000
DSTYLE
1002
{
1070
279
1070
2
1070
144
1040
1.0
1070
40
1040
1.0
1002
}
  0
DIMENSION
  5
71
100
AcDbEntity
  8
horizontal quotas
 62
256
370
-1
 48
1.0
  6
BYLAYER
100
AcDbDimension
 10
-22.5
 20
-30.0
 30
0.0
 11
-25.4166666666666643
 21
-29.25
 31
0.0
 70
0
 71
8
 72
2
 74
0
 75
0
 41
1.0
 42
0.0
  1
wall
  3
Standard
100
AcDbAlignedDimension
 13
-22.5
 23
-10.0
 33
0.0
 14
-23.9999999999999964
 24
-13.0000000000000036
 34
0.0
 50
0.0
100
AcDbRotatedDimension
1001
ACAD
1000
DSTYLE
1002
{
1070
144
1040
1.0
1070
40
1040
1.0
1002
}
  0
DIMENSION
  5
72
100
AcDbEntity
  8
horizontal quotas
 62
256
370
-1
 48
1.0
  6
BYLAYER
100
AcDbDimension
 10
-26.0
 20
-10.0
 30
0.0
 11
-26.75
 21
-15.1388888888888893
 31
0.0
 70
0
 71
8
 72
2
 74
0
 75
0
 41
1.0
 42
0.0
  1
r+wall
  3
Standard
100
AcDbAlignedDimension
 13
-22.5
 23
-10.0
 33
0.0
 14
-21.0
 24
-13.0
 34
0.0
 50
90.0
100
AcDbRotatedDimension
1001
ACAD
1000
DSTYLE
1002
{
1070
144
1040
1.0
1070
40
1040
1.0
1002
}
  0
ARC
  5
73
100
AcDbEntity
  8
horizontal
 62
256
370
-1
 48
1.0
  6
BYLAYER
100
AcDbCircle
 10
21.0000000000000036
 20
-12.9999999999999982
 30
0.0
 40
2.9999999999999964
100
AcDbArc
 50
270.0000000000001137
 51
0.0
  0
ARC
  5
74
100
AcDbEntity
  8
horizontal
 62
256
370
-1
 48
1.0
  6
BYLAYER
100
AcDbCircle
 10
-20.9999999999999964
 20
-13.0000000000000036
 30
0.0
 40
2.9999999999999964
100
AcDbArc
 50
180.0
 51
269.9999999999998863
  0
ARC
  5
75
100
AcDbEntity
  8
vertical
 62
256
370
-1
 48
1.0
  6
BYLAYER
100
AcDbCircle
 10
25.4999999999999964
 20
-8.5
 30
0.0
 40
2.9999999999999964
100
AcDbArc
 50
270.0
 51
0.0
  0
ARC
  5
76
100
AcDbEntity
  8
horizontal
 62
256
370
-1
 48
1.0
  6
BYLAYER
100
AcDbCircle
 10
21.0000000000000071
 20
13.0000000000000018
 30
0.0
 40
3.0
100
AcDbArc
 50
0.0
 51
90.0000000000000142
  0
ARC
  5
77
100
AcDbEntity
  8
horizontal
 62
256
370
-1
 48
1.0
  6
BYLAYER
100
AcDbCircle
 10
-20.9999999999999964
 20
12.9999999999999964
 30
0.0
 40
3.0
100
AcDbArc
 50
90.0000000000000142
 51
180.0
  0
ARC
  5
78
100
AcDbEntity
  8
vertical
 62
256
370
-1
 48
1.0
  6
BYLAYER
100
AcDbCircle
 10
-25.4999999999999964
 20
-8.5
 30
0.0
 40
3.0
100
AcDbArc
 50
180.0000000000000284
 51
270.0
  0
DIMENSION
  5
79
100
AcDbEntity
  8
horizontal quotas
 62
256
370
-1
 48
1.0
  6
BYLAYER
100
AcDbDimension
 10
-21.0
 20
13.0
 30
0.0
 11
-27.0
 21
22.0
 31
0.0
 70
132
 71
8
 72
2
 74
0
 41
1.0
 42
0.0
  1
nominal_r+wall
  3
Standard
100
AcDbRadialDimension
 15
-22.8740851426632723
 25
15.3426064283290877
 35
0.0
 40
0.0
1001
ACAD
1000
DSTYLE
1002
{
1070
279
1070
2
1070
144
1040
1.0
1070
40
1040
1.0
1002
}
  0
ARC
  5
7A
100
AcDbEntity
  8
horizontal
 62
256
370
-1
 48
1.0
  6
BYLAYER
100
AcDbCircle
 10
15.0000000000000071
 20
-15.0
 30
0.0
 40
1.0
100
AcDbArc
 50
180.0
 51
270.0
  0
ARC
  5
7B
100
AcDbEntity
  8
horizontal
 62
256
370
-1
 48
1.0
  6
BYLAYER
100
AcDbCircle
 10
-15.0
 20
-15.0000000000000053
 30
0.0
 40
1.0
100
AcDbArc
 50
270.0
 51
0.0
  0
ARC
  5
7C
100
AcDbEntity
  8
vertical
 62
256
370
-1
 48
1.0
  6
BYLAYER
100
AcDbCircle
 10
27.5000000000000178
 20
-2.4999999999999805
 30
0.0
 40
1.0
100
AcDbArc
 50
0.0
 51
90.0
  0
ARC
  5
7D
100
AcDbEntity
  8
horizontal
 62
256
370
-1
 48
1.0
  6
BYLAYER
100
AcDbCircle
 10
15.0000000000000071
 20
15.0
 30
0.0
 40
1.0
100
AcDbArc
 50
90.0
 51
180.0
  0
ARC
  5
7E
100
AcDbEntity
  8
horizontal
 62
256
370
-1
 48
1.0
  6
BYLAYER
100
AcDbCircle
 10
-15.0
 20
14.9999999999999947
 30
0.0
 40
1.0
100
AcDbArc
 50
0.0
 51
90.0
  0
ARC
  5
7F
100
AcDbEntity
  8
vertical
 62
256
370
-1
 48
1.0
  6
BYLAYER
100
AcDbCircle
 10
-27.5000000000000036
 20
-2.4999999999999929
 30
0.0
 40
1.0
100
AcDbArc
 50
90.0
 51
180.0
  0
LWPOLYLINE
  5
80
100
AcDbEntity
  8
horizontal
 62
256
370
-1
 48
1.0
  6
BYLAYER
100
AcDbPolyline
 90
6
 70
0
 10
14.0000000000000053
 20
-15.0000000000000018
 10
14.0000000000000036
 20
-9.0000000000000018
 10
18.0000000000000036
 20
-8.9999999999999982
 10
18.0000000000000071
 20
9.0000000000000018
 10
14.0000000000000107
 20
9.0000000000000071
 10
14.0000000000000053
 20
15.0000000000000018
  0
LWPOLYLINE
  5
81
100
AcDbEntity
  8
horizontal
 62
256
370
-1
 48
1.0
  6
BYLAYER
100
AcDbPolyline
 90
6
 70
0
 10
-14.0
 20
-15.0000000000000053
 10
-14.0
 20
-9.0000000000000071
 10
-17.9999999999999964
 20
-9.0000000000000036
 10
-18.0
 20
8.9999999999999982
 10
-14.0000000000000036
 20
9.0000000000000018
 10
-13.9999999999999964
 20
14.9999999999999947
  0
LWPOLYLINE
  5
82
100
AcDbEntity
  8
vertical
 62
256
370
-1
 48
1.0
  6
BYLAYER
100
AcDbPolyline
 90
6
 70
0
 10
27.5000000000000178
 20
-1.4999999999999933
 10
21.4999999999999964
 20
-1.4999999999999998
 10
21.4999999999999964
 20
-5.4999999999999991
 10
-21.4999999999999964
 20
-5.4999999999999991
 10
-21.4999999999999964
 20
-1.4999999999999998
 10
-27.5000000000000036
 20
-1.5000000000000018
  0
LINE
  5
83
100
AcDbEntity
  8
horizontal
 62
256
370
-1
 48
1.0
  6
BYLAYER
100
AcDbLine
 10
15.0000000000000071
 20
16.0
 30
0.0
 11
21.0000000000000071
 21
15.9999999999999982
 31
0.0
  0
LINE
  5
84
100
AcDbEntity
  8
horizontal
 62
256
370
-1
 48
1.0
  6
BYLAYER
100
AcDbLine
 10
-14.9999999999999964
 20
15.9999999999999947
 30
0.0
 11
-21.0
 21
15.9999999999999929
 31
0.0
  0
LINE
  5
85
100
AcDbEntity
  8
vertical
 62
256
370
-1
 48
1.0
  6
BYLAYER
100
AcDbLine
 10
-28.5000000000000036
 20
-2.4999999999999929
 30
0.0
 11
-28.4999999999999964
 21
-8.5000000000000018
 31
0.0
  0
LINE
  5
86
100
AcDbEntity
  8
horizontal
 62
256
370
-1
 48
1.0
  6
BYLAYER
100
AcDbLine
 10
24.0000000000000071
 20
13.0000000000000036
 30
0.0
 11
24.0000000000000036
 21
-12.9999999999999982
 31
0.0
  0
LINE
  5
87
100
AcDbEntity
  8
horizontal
 62
256
370
-1
 48
1.0
  6
BYLAYER
100
AcDbLine
 10
-24.0
 20
12.9999999999999964
 30
0.0
 11
-23.9999999999999964
 21
-13.0000000000000036
 31
0.0
  0
LINE
  5
88
100
AcDbEntity
  8
vertical
 62
256
370
-1
 48
1.0
  6
BYLAYER
100
AcDbLine
 10
-26.0000000000000071
 20
-11.4999999999999964
 30
0.0
 11
26.0000000000000213
 21
-11.4999999999999822
 31
0.0
  0
LINE
  5
89
100
AcDbEntity
  8
horizontal
 62
256
370
-1
 48
1.0
  6
BYLAYER
100
AcDbLine
 10
15.0000000000000036
 20
-16.0
 30
0.0
 11
21.0000000000000071
 21
-15.9999999999999947
 31
0.0
  0
LINE
  5
8A
100
AcDbEntity
  8
horizontal
 62
256
370
-1
 48
1.0
  6
BYLAYER
100
AcDbLine
 10
-14.9999999999999964
 20
-16.0000000000000071
 30
0.0
 11
-21.0000000000000036
 21
-16.0
 31
0.0
  0
LINE
  5
8B
100
AcDbEntity
  8
vertical
 62
256
370
-1
 48
1.0
  6
BYLAYER
100
AcDbLine
 10
28.5000000000000178
 20
-2.4999999999999805
 30
0.0
 11
28.4999999999999929
 21
-8.5
 31
0.0
  0
DIMENSION
  5
8C
100
AcDbEntity
  8
horizontal quotas
 62
256
370
-1
 48
1.0
  6
BYLAYER
100
AcDbDimension
 10
-14.1258427238784599
 20
-15.4856429311786314
 30
0.0
 11
-14.63576780161603
 21
-14.3443820429088493
 31
0.0
 70
3
 71
8
 72
2
 74
0
 75
0
 41
1.0
 42
0.0
  1

  3
Standard
100
AcDbDiametricDimension
 15
-15.8741572761215401
 25
-14.5143570688213792
 35
0.0
 40
0.0
1001
ACAD
1000
DSTYLE
1002
{
1070
144
1040
1.0
1070
40
1040
1.0
1002
}
  0
DIMENSION
  5
8D
100
AcDbEntity
  8
vertical quotas
 62
256
370
-1
 48
1.0
  6
BYLAYER
100
AcDbDimension
 10
-45.0
 20
-1.5000000000000018
 30
0.0
 11
-45.75
 21
-5.7500000000000009
 31
0.0
 70
0
 71
8
 72
2
 74
0
 75
0
 41
1.0
 42
0.0
  1
inclusion
  3
Standard
100
AcDbAlignedDimension
 13
-22.0000000000000178
 23
-1.5000000000000018
 33
0.0
 14
-22.5
 24
-10.0
 34
0.0
 50
90.0
100
AcDbRotatedDimension
1001
ACAD
1000
DSTYLE
1002
{
1070
144
1040
1.0
1070
40
1040
1.0
1002
}
  0
DIMENSION
  5
8E
100
AcDbEntity
  8
vertical quotas
 62
256
370
-1
 48
1.0
  6
BYLAYER
100
AcDbDimension
 10
-45.0
 20
-10.0
 30
0.0
 11
-45.75
 21
-12.9166666666666643
 31
0.0
 70
0
 71
8
 72
2
 74
0
 75
0
 41
1.0
 42
0.0
  1
wall
  3
Standard
100
AcDbAlignedDimension
 13
-22.5
 23
-10.0
 33
0.0
 14
-26.0
 24
-11.4999999999999964
 34
0.0
 50
90.0
100
AcDbRotatedDimension
1001
ACAD
1000
DSTYLE
1002
{
1070
144
1040
1.0
1070
40
1040
1.0
1002
}
  0
DIMENSION
  5
8F
100
AcDbEntity
  8
vertical quotas
 62
256
370
-1
 48
1.0
  6
BYLAYER
100
AcDbDimension
 10
-22.5000000000000036
 20
-22.0
 30
0.0
 11
-17.25
 21
-21.25
 31
0.0
 70
0
 71
8
 72
2
 74
0
 75
0
 41
1.0
 42
0.0
  1
thin_overlap
  3
Standard
100
AcDbAlignedDimension
 13
-22.5000000000000036
 23
-8.0
 33
0.0
 14
-21.5
 24
-1.4999999999999998
 34
0.0
 50
0.0
100
AcDbRotatedDimension
1001
ACAD
1000
DSTYLE
1002
{
1070
144
1040
1.0
1070
40
1040
1.0
1002
}
  0
DIMENSION
  5
90
100
AcDbEntity
  8
vertical quotas
 62
256
370
-1
 48
1.0
  6
BYLAYER
100
AcDbDimension
 10
-27.5000000000000036
 20
-2.4999999999999929
 30
0.0
 11
-28.2002858893319122
 21
0.1248811225978508
 31
0.0
 70
4
 71
8
 72
2
 74
0
 41
1.0
 42
0.0
  1

  3
Standard
100
AcDbRadialDimension
 15
-28.0144957554275287
 25
-1.6425070742874488
 35
0.0
 40
0.0
1001
ACAD
1000
DSTYLE
1002
{
1070
144
1040
1.0
1070
40
1040
1.0
1002
}
  0
DIMENSION
  5
91
100
AcDbEntity
  8
vertical quotas
 62
256
370
-1
 48
1.0
  6
BYLAYER
100
AcDbDimension
 10
22.5
 20
-22.0
 30
0.0
 11
17.25
 21
-21.25
 31
0.0
 70
0
 71
8
 72
2
 74
0
 75
0
 41
1.0
 42
0.0
  1
thin_overlap
  3
Standard
100
AcDbAlignedDimension
 13
22.5
 23
-1.4999999999999989
 33
0.0
 14
21.4999999999999964
 24
-5.4999999999999982
 34
0.0
 50
0.0
100
AcDbRotatedDimension
1001
ACAD
1000
DSTYLE
1002
{
1070
144
1040
1.0
1070
40
1040
1.0
1002
}
  0
DIMENSION
  5
92
100
AcDbEntity
  8
vertical quotas
 62
256
370
-1
 48
1.0
  6
BYLAYER
100
AcDbDimension
 10
22.5
 20
-30.0
 30
0.0
 11
25.4166666666666679
 21
-29.25
 31
0.0
 70
0
 71
8
 72
2
 74
0
 75
0
 41
1.0
 42
0.0
  1
wall
  3
Standard
100
AcDbAlignedDimension
 13
22.5
 23
-10.0
 33
0.0
 14
24.0000000000000036
 24
-8.5
 34
0.0
 50
0.0
100
AcDbRotatedDimension
1001
ACAD
1000
DSTYLE
1002
{
1070
144
1040
1.0
1070
40
1040
1.0
1002
}
  0
ENDSEC
  0
SECTION
  2
OBJECTS
  0
DICTIONARY
  5
C
100
AcDbDictionary
280
0
281
1
  3
ACAD_GROUP
350
D
  3
ACAD_LAYOUT
350
1A
  3
ACAD_MLINESTYLE
350
17
  3
ACAD_PLOTSETTINGS
350
19
  3
ACAD_PLOTSTYLENAME
350
E
  3
AcDbVariableDictionary
350
93
  3
QCAD_OBJECTS
350
94
  0
DICTIONARY
  5
D
100
AcDbDictionary
280
0
281
1
  0
ACDBDICTIONARYWDFLT
  5
E
100
AcDbDictionary
281
1
  3
Normal
350
F
100
AcDbDictionaryWithDefault
340
F
  0
ACDBPLACEHOLDER
  5
F
  0
DICTIONARY
  5
17
100
AcDbDictionary
280
0
281
1
  3
Standard
350
18
  0
MLINESTYLE
  5
18
100
AcDbMlineStyle
  2
STANDARD
 70
0
  3

 62
256
 51
90.0
 52
90.0
 71
2
 49
0.5
 62
256
  6
BYLAYER
 49
-0.5
 62
256
  6
BYLAYER
  0
DICTIONARY
  5
19
100
AcDbDictionary
280
0
281
1
  0
DICTIONARY
  5
1A
100
AcDbDictionary
281
1
  3
Layout1
350
1E
  3
Layout2
350
26
  3
Model
350
22
  0
LAYOUT
  5
1E
100
AcDbPlotSettings
  1

  2
none_device
  4

  6

 40
0.0
 41
0.0
 42
0.0
 43
0.0
 44
0.0
 45
0.0
 46
0.0
 47
0.0
 48
0.0
 49
0.0
140
0.0
141
0.0
142
1.0
143
1.0
 70
688
 72
0
 73
0
 74
5
  7

 75
16
147
1.0
148
0.0
149
0.0
100
AcDbLayout
  1
Layout1
 70
1
 71
1
 10
0.0
 20
0.0
 11
420.0
 21
297.0
 12
0.0
 22
0.0
 32
0.0
 14
100000000000000000000.0
 24
100000000000000000000.0
 34
100000000000000000000.0
 15
-100000000000000000000.0
 25
-100000000000000000000.0
 35
-100000000000000000000.0
146
0.0
 13
0.0
 23
0.0
 33
0.0
 16
1.0
 26
0.0
 36
0.0
 17
0.0
 27
1.0
 37
0.0
 76
0
330
1B
  0
LAYOUT
  5
22
100
AcDbPlotSettings
  1

  2
none_device
  4

  6

 40
0.0
 41
0.0
 42
0.0
 43
0.0
 44
0.0
 45
0.0
 46
0.0
 47
0.0
 48
0.0
 49
0.0
140
0.0
141
0.0
142
1.0
143
1.0
 70
1712
 72
0
 73
0
 74
0
  7

 75
0
147
1.0
148
0.0
149
0.0
100
AcDbLayout
  1
Model
 70
1
 71
0
 10
0.0
 20
0.0
 11
12.0
 21
9.0
 12
0.0
 22
0.0
 32
0.0
 14
0.0
 24
0.0
 34
0.0
 15
0.0
 25
0.0
 35
0.0
146
0.0
 13
0.0
 23
0.0
 33
0.0
 16
1.0
 26
0.0
 36
0.0
 17
0.0
 27
1.0
 37
0.0
 76
0
330
1F
  0
LAYOUT
  5
26
100
AcDbPlotSettings
  1

  2
none_device
  4

  6

 40
0.0
 41
0.0
 42
0.0
 43
0.0
 44
0.0
 45
0.0
 46
0.0
 47
0.0
 48
0.0
 49
0.0
140
0.0
141
0.0
142
1.0
143
1.0
 70
688
 72
0
 73
0
 74
5
  7

 75
16
147
1.0
148
0.0
149
0.0
100
AcDbLayout
  1
Layout2
 70
1
 71
2
 10
0.0
 20
0.0
 11
12.0
 21
9.0
 12
0.0
 22
0.0
 32
0.0
 14
0.0
 24
0.0
 34
0.0
 15
0.0
 25
0.0
 35
0.0
146
0.0
 13
0.0
 23
0.0
 33
0.0
 16
1.0
 26
0.0
 36
0.0
 17
0.0
 27
1.0
 37
0.0
 76
0
330
23
  0
DICTIONARY
  5
93
100
AcDbDictionary
281
1
  3
DIMASSOC
350
96
  3
HIDETEXT
350
95
  0
DICTIONARYVAR
  5
95
100
DictionaryVariables
280
0
  1
2
  0
DICTIONARYVAR
  5
96
100
DictionaryVariables
280
0
  1
1
  0
DICTIONARY
  5
94
100
AcDbDictionary
281
1
  3
ColorSettings/BackgroundColor
350
97
  3
ColorSettings/ColorMode
350
98
  3
DimensionSettings/AngularFormat
350
99
  3
DimensionSettings/AngularPrecision
350
9A
  3
DimensionSettings/DecimalPoint
350
9B
  3
DimensionSettings/DimensionFont
350
9C
  3
DimensionSettings/DimensionTextColor
350
9D
  3
DimensionSettings/KeepProportions
350
9E
  3
DimensionSettings/LinearFormat
350
9F
  3
DimensionSettings/LinearPrecision
350
A0
  3
Grid/DisplayGrid00
350
A1
  3
Grid/DisplayGrid01
350
A2
  3
Grid/DisplayGrid02
350
A3
  3
Grid/DisplayGrid03
350
A4
  3
Grid/GridSpacingX00
350
A5
  3
Grid/GridSpacingX01
350
A6
  3
Grid/GridSpacingX02
350
A7
  3
Grid/GridSpacingX03
350
A8
  3
Grid/GridSpacingY00
350
A9
  3
Grid/GridSpacingY01
350
AA
  3
Grid/GridSpacingY02
350
AB
  3
Grid/GridSpacingY03
350
AC
  3
Grid/IsometricGrid00
350
AD
  3
Grid/IsometricGrid01
350
AE
  3
Grid/IsometricGrid02
350
AF
  3
Grid/IsometricGrid03
350
B0
  3
Grid/IsometricProjection00
350
B1
  3
Grid/IsometricProjection01
350
B2
  3
Grid/IsometricProjection02
350
B3
  3
Grid/IsometricProjection03
350
B4
  3
Grid/MetaGridSpacingX00
350
B5
  3
Grid/MetaGridSpacingX01
350
B6
  3
Grid/MetaGridSpacingX02
350
B7
  3
Grid/MetaGridSpacingX03
350
B8
  3
Grid/MetaGridSpacingY00
350
B9
  3
Grid/MetaGridSpacingY01
350
BA
  3
Grid/MetaGridSpacingY02
350
BB
  3
Grid/MetaGridSpacingY03
350
BC
  3
MultiPageSettings/Columns
350
BD
  3
MultiPageSettings/GlueMarginsBottom
350
BE
  3
MultiPageSettings/GlueMarginsLeft
350
BF
  3
MultiPageSettings/GlueMarginsRight
350
C0
  3
MultiPageSettings/GlueMarginsTop
350
C1
  3
MultiPageSettings/PrintCropMarks
350
C2
  3
MultiPageSettings/Rows
350
C3
  3
PageSettings/OffsetX
350
C4
  3
PageSettings/OffsetY
350
C5
  3
PageSettings/PageOrientation
350
C6
  3
PageSettings/PaperHeight
350
C7
  3
PageSettings/PaperWidth
350
C8
  3
PageSettings/Scale
350
C9
  3
PageSettings/ShowPaperBorders
350
CA
  3
PageTagSettings/EnablePageTags
350
CB
  3
PageTagSettings/TagAlignment
350
CC
  3
PageTagSettings/TagFont
350
CD
  3
PageTagSettings/TagPosition
350
CE
  3
QCADVersion
350
CF
  3
UnitSettings/PaperUnit
350
D0
  3
ViewportCenter
350
D1
  3
ViewportHeight
350
D2
  3
ViewportWidth
350
D3
  0
XRECORD
  5
97
330
94
100
AcDbXrecord
280
1
1000
White
  0
XRECORD
  5
98
330
94
100
AcDbXrecord
280
1
1000
FullColor
  0
XRECORD
  5
99
330
94
100
AcDbXrecord
280
1
 90
0
  0
XRECORD
  5
9A
330
94
100
AcDbXrecord
280
1
 90
0
  0
XRECORD
  5
9B
330
94
100
AcDbXrecord
280
1
 90
46
  0
XRECORD
  5
9C
330
94
100
AcDbXrecord
280
1
1000
Cantarell
  0
XRECORD
  5
9D
330
94
100
AcDbXrecord
280
1
1000
By Layer
  0
XRECORD
  5
9E
330
94
100
AcDbXrecord
280
1
290
1
  0
XRECORD
  5
9F
330
94
100
AcDbXrecord
280
1
 90
2
  0
XRECORD
  5
A0
330
94
100
AcDbXrecord
280
1
 90
4
  0
XRECORD
  5
A1
330
94
100
AcDbXrecord
280
1
290
1
  0
XRECORD
  5
A2
330
94
100
AcDbXrecord
280
1
290
1
  0
XRECORD
  5
A3
330
94
100
AcDbXrecord
280
1
290
1
  0
XRECORD
  5
A4
330
94
100
AcDbXrecord
280
1
290
1
  0
XRECORD
  5
A5
330
94
100
AcDbXrecord
280
1
1000
auto
  0
XRECORD
  5
A6
330
94
100
AcDbXrecord
280
1
1000
auto
  0
XRECORD
  5
A7
330
94
100
AcDbXrecord
280
1
1000
auto
  0
XRECORD
  5
A8
330
94
100
AcDbXrecord
280
1
1000
auto
  0
XRECORD
  5
A9
330
94
100
AcDbXrecord
280
1
1000
auto
  0
XRECORD
  5
AA
330
94
100
AcDbXrecord
280
1
1000
auto
  0
XRECORD
  5
AB
330
94
100
AcDbXrecord
280
1
1000
auto
  0
XRECORD
  5
AC
330
94
100
AcDbXrecord
280
1
1000
auto
  0
XRECORD
  5
AD
330
94
100
AcDbXrecord
280
1
290
0
  0
XRECORD
  5
AE
330
94
100
AcDbXrecord
280
1
290
0
  0
XRECORD
  5
AF
330
94
100
AcDbXrecord
280
1
290
0
  0
XRECORD
  5
B0
330
94
100
AcDbXrecord
280
1
290
0
  0
XRECORD
  5
B1
330
94
100
AcDbXrecord
280
1
 90
65537
  0
XRECORD
  5
B2
330
94
100
AcDbXrecord
280
1
 90
65537
  0
XRECORD
  5
B3
330
94
100
AcDbXrecord
280
1
 90
65537
  0
XRECORD
  5
B4
330
94
100
AcDbXrecord
280
1
 90
65537
  0
XRECORD
  5
B5
330
94
100
AcDbXrecord
280
1
1000
auto
  0
XRECORD
  5
B6
330
94
100
AcDbXrecord
280
1
1000
auto
  0
XRECORD
  5
B7
330
94
100
AcDbXrecord
280
1
1000
auto
  0
XRECORD
  5
B8
330
94
100
AcDbXrecord
280
1
1000
auto
  0
XRECORD
  5
B9
330
94
100
AcDbXrecord
280
1
1000
auto
  0
XRECORD
  5
BA
330
94
100
AcDbXrecord
280
1
1000
auto
  0
XRECORD
  5
BB
330
94
100
AcDbXrecord
280
1
1000
auto
  0
XRECORD
  5
BC
330
94
100
AcDbXrecord
280
1
1000
auto
  0
XRECORD
  5
BD
330
94
100
AcDbXrecord
280
1
 90
1
  0
XRECORD
  5
BE
330
94
100
AcDbXrecord
280
1
 40
10.0
  0
XRECORD
  5
BF
330
94
100
AcDbXrecord
280
1
 40
10.0
  0
XRECORD
  5
C0
330
94
100
AcDbXrecord
280
1
 40
10.0
  0
XRECORD
  5
C1
330
94
100
AcDbXrecord
280
1
 40
10.0
  0
XRECORD
  5
C2
330
94
100
AcDbXrecord
280
1
290
0
  0
XRECORD
  5
C3
330
94
100
AcDbXrecord
280
1
 90
1
  0
XRECORD
  5
C4
330
94
100
AcDbXrecord
280
1
 40
0.0
  0
XRECORD
  5
C5
330
94
100
AcDbXrecord
280
1
 40
0.0
  0
XRECORD
  5
C6
330
94
100
AcDbXrecord
280
1
1000
Portrait
  0
XRECORD
  5
C7
330
94
100
AcDbXrecord
280
1
 40
297.0
  0
XRECORD
  5
C8
330
94
100
AcDbXrecord
280
1
 40
210.0
  0
XRECORD
  5
C9
330
94
100
AcDbXrecord
280
1
1000
1:1
  0
XRECORD
  5
CA
330
94
100
AcDbXrecord
280
1
290
1
  0
XRECORD
  5
CB
330
94
100
AcDbXrecord
280
1
290
0
  0
XRECORD
  5
CC
330
94
100
AcDbXrecord
280
1
1000
Inside
  0
XRECORD
  5
CD
330
94
100
AcDbXrecord
280
1
1000
Arial,10,-1,5,50,0,0,0,0,0
  0
XRECORD
  5
CE
330
94
100
AcDbXrecord
280
1
1000
TopLeft
  0
XRECORD
  5
CF
330
94
100
AcDbXrecord
280
1
1000
3.28.1
  0
XRECORD
  5
D0
330
94
100
AcDbXrecord
280
1
 90
4
  0
XRECORD
  5
D2
330
94
100
AcDbXrecord
280
1
 40
59.8840788514521449
  0
XRECORD
  5
D3
330
94
100
AcDbXrecord
280
1
 40
120.5740511035967018
  0
ENDSEC
  0
EOF
