999
dxflib 3.26.4.0
  0
SECTION
  2
HEADER
  9
$ACADVER
  1
AC1015
  9
$HANDSEED
  5
FFFF
  9
$ATTMODE
 70
0
  9
$DIMADEC
 70
0
  9
$DIMASZ
 40
0.18
  9
$DIMATFIT
 70
0
  9
$DIMAUNIT
 70
0
  9
$DIMAZIN
 70
0
  9
$DIMBLK
  1
0
  9
$DIMBLK1
  1
0
  9
$DIMBLK2
  1
0
  9
$DIMDEC
 70
4
  9
$DIMDLI
 40
0.36
  9
$DIMDSEP
 70
0
  9
$DIMEXE
 40
0.18
  9
$DIMEXO
 40
0.0625
  9
$DIMGAP
 40
0.09
  9
$DIMLFAC
 40
0.0
  9
$DIMLUNIT
 70
2
  9
$DIMSCALE
 40
0.0
  9
$DIMTAD
 70
0
  9
$DIMTIH
 70
0
  9
$DIMTSZ
 40
0.0
  9
$DIMTXT
 40
0.18
  9
$DIMZIN
 70
0
  9
$DWGCODEPAGE
  3
ANSI_1252
  9
$EXTMAX
 10
1082.4999940000000151
 20
1014.3300010000000384
 30
0.0
  9
$EXTMIN
 10
-1026.4433879999999135
 20
-1057.499992999999904
 30
0.0
  9
$INSBASE
 10
0.0
 20
0.0
 30
0.0
  9
$INSUNITS
 70
0
  9
$LIMMAX
 10
1082.4999940000000151
 20
1014.3300010000000384
  9
$LIMMIN
 10
-1026.4433879999999135
 20
-1057.499992999999904
  9
$LTSCALE
 40
1.0
  9
$LUNITS
 70
2
  9
$LUPREC
 70
3
  9
$MAXACTVP
 70
64
  9
$MEASUREMENT
 70
1
  9
$MIRRTEXT
 70
0
  9
$PDMODE
 70
0
  9
$PDSIZE
 40
0.0
  9
$THICKNESS
 40
1.1988799999999999
  0
ENDSEC
  0
SECTION
  2
TABLES
  0
TABLE
  2
VPORT
  5
8
100
AcDbSymbolTable
 70
1
  0
VPORT
  5
30
100
AcDbSymbolTableRecord
100
AcDbViewportTableRecord
  2
*Active
 70
0
 10
0.0
 20
0.0
 11
1.0
 21
1.0
 12
286.3055555555554861
 22
148.5
 13
0.0
 23
0.0
 14
10.0
 24
10.0
 15
10.0
 25
10.0
 16
0.0
 26
0.0
 36
1.0
 17
0.0
 27
0.0
 37
0.0
 40
297.0
 41
1.92798353909465
 42
50.0
 43
0.0
 44
0.0
 50
0.0
 51
0.0
 71
0
 72
100
 73
1
 74
3
 75
1
 76
1
 77
0
 78
0
281
0
 65
1
110
0.0
120
0.0
130
0.0
111
1.0
121
0.0
131
0.0
112
0.0
122
1.0
132
0.0
 79
0
146
0.0
  0
ENDTAB
  0
TABLE
  2
LTYPE
  5
5
100
AcDbSymbolTable
 70
41
  0
LTYPE
  5
16
100
AcDbSymbolTableRecord
100
AcDbLinetypeTableRecord
  2
CONTINUOUS
 70
0
  3
Solid line
 72
65
 73
0
 40
0.0
  0
LTYPE
  5
31
100
AcDbSymbolTableRecord
100
AcDbLinetypeTableRecord
  2
DOT
 70
0
  3
Dot . . . . . . . . . . . . . . . . . . . . . . . .
 72
65
 73
2
 40
6.3499999999999996
 49
0.1
 74
0
 49
-6.25
 74
0
  0
LTYPE
  5
32
100
AcDbSymbolTableRecord
100
AcDbLinetypeTableRecord
  2
ACAD_ISO08W100
 70
0
  3
ISO long-dash short-dash ____ __ ____ __ ____ _
 72
65
 73
4
 40
36.0
 49
24.0
 74
0
 49
-3.0
 74
0
 49
6.0
 74
0
 49
-3.0
 74
0
  0
LTYPE
  5
33
100
AcDbSymbolTableRecord
100
AcDbLinetypeTableRecord
  2
DASHDOT
 70
0
  3
Dash dot __ . __ . __ . __ . __ . __ . __ . __
 72
65
 73
4
 40
25.4000000000000021
 49
12.6999999999999993
 74
0
 49
-6.2999999999999998
 74
0
 49
0.1
 74
0
 49
-6.2999999999999998
 74
0
  0
LTYPE
  5
34
100
AcDbSymbolTableRecord
100
AcDbLinetypeTableRecord
  2
BORDERX2
 70
0
  3
Border (2x) ____  ____  .  ____  ____  .  ___
 72
65
 73
6
 40
88.8999999999999773
 49
25.3999999999999986
 74
0
 49
-12.6999999999999993
 74
0
 49
25.3999999999999986
 74
0
 49
-12.6499999999999986
 74
0
 49
0.1
 74
0
 49
-12.6499999999999986
 74
0
  0
LTYPE
  5
35
100
AcDbSymbolTableRecord
100
AcDbLinetypeTableRecord
  2
ACAD_ISO12W100
 70
0
  3
ISO dash double-dot __ . . __ . . __ . . __ . . 
 72
65
 73
6
 40
21.0
 49
12.0
 74
0
 49
-2.9500000000000002
 74
0
 49
0.1
 74
0
 49
-2.9000000000000004
 74
0
 49
0.1
 74
0
 49
-2.9500000000000002
 74
0
  0
LTYPE
  5
36
100
AcDbSymbolTableRecord
100
AcDbLinetypeTableRecord
  2
PHANTOMX2
 70
0
  3
Phantom (2x) ____________    ____    ____   _
 72
65
 73
6
 40
127.0000000000000142
 49
63.5
 74
0
 49
-12.6999999999999993
 74
0
 49
12.6999999999999993
 74
0
 49
-12.6999999999999993
 74
0
 49
12.6999999999999993
 74
0
 49
-12.6999999999999993
 74
0
  0
LTYPE
  5
37
100
AcDbSymbolTableRecord
100
AcDbLinetypeTableRecord
  2
DOT2
 70
0
  3
Dot (.5x) ........................................
 72
65
 73
2
 40
3.1749999999999998
 49
0.1
 74
0
 49
-3.0749999999999997
 74
0
  0
LTYPE
  5
15
100
AcDbSymbolTableRecord
100
AcDbLinetypeTableRecord
  2
BYLAYER
 70
0
  3

 72
65
 73
0
 40
0.0
  0
LTYPE
  5
38
100
AcDbSymbolTableRecord
100
AcDbLinetypeTableRecord
  2
HIDDENX2
 70
0
  3
Hidden (2x) ____ ____ ____ ____ ____ ____ ____ 
 72
65
 73
2
 40
19.0499999999999972
 49
12.6999999999999993
 74
0
 49
-6.3499999999999996
 74
0
  0
LTYPE
  5
39
100
AcDbSymbolTableRecord
100
AcDbLinetypeTableRecord
  2
ACAD_ISO13W100
 70
0
  3
ISO double-dash double-dot __ __ . . __ __ . . _
 72
65
 73
8
 40
36.0000000000000071
 49
12.0
 74
0
 49
-3.0
 74
0
 49
12.0
 74
0
 49
-2.9500000000000002
 74
0
 49
0.1
 74
0
 49
-2.9000000000000004
 74
0
 49
0.1
 74
0
 49
-2.9500000000000002
 74
0
  0
LTYPE
  5
3A
100
AcDbSymbolTableRecord
100
AcDbLinetypeTableRecord
  2
DIVIDE2
 70
0
  3
Divide (.5x) __..__..__..__..__..__..__..__.._
 72
65
 73
6
 40
15.8749999999999982
 49
6.3499999999999996
 74
0
 49
-3.125
 74
0
 49
0.1
 74
0
 49
-3.0750000000000002
 74
0
 49
0.1
 74
0
 49
-3.125
 74
0
  0
LTYPE
  5
3B
100
AcDbSymbolTableRecord
100
AcDbLinetypeTableRecord
  2
HIDDEN
 70
0
  3
Hidden __ __ __ __ __ __ __ __ __ __ __ __ __ __
 72
65
 73
2
 40
9.5249999999999986
 49
6.3499999999999996
 74
0
 49
-3.1749999999999998
 74
0
  0
LTYPE
  5
3C
100
AcDbSymbolTableRecord
100
AcDbLinetypeTableRecord
  2
DASHED2
 70
0
  3
Dashed (.5x) _ _ _ _ _ _ _ _ _ _ _ _ _ _ _ _ _ 
 72
65
 73
2
 40
9.5249999999999986
 49
6.3499999999999996
 74
0
 49
-3.1749999999999998
 74
0
  0
LTYPE
  5
3D
100
AcDbSymbolTableRecord
100
AcDbLinetypeTableRecord
  2
ACAD_ISO07W100
 70
0
  3
ISO dot . . . . . . . . . . . . . . . . . . . . 
 72
65
 73
2
 40
3.0
 49
0.1
 74
0
 49
-2.8999999999999999
 74
0
  0
LTYPE
  5
3E
100
AcDbSymbolTableRecord
100
AcDbLinetypeTableRecord
  2
DOTX2
 70
0
  3
Dot (2x) .  .  .  .  .  .  .  .  .  .  .  .  .  .
 72
65
 73
2
 40
12.6999999999999993
 49
0.1
 74
0
 49
-12.5999999999999996
 74
0
  0
LTYPE
  5
3F
100
AcDbSymbolTableRecord
100
AcDbLinetypeTableRecord
  2
ACAD_ISO06W100
 70
0
  3
ISO long-dash triple-dot ____ ... ____ ... ____
 72
65
 73
8
 40
36.0000000000000071
 49
24.0
 74
0
 49
-2.9500000000000002
 74
0
 49
0.1
 74
0
 49
-2.9000000000000004
 74
0
 49
0.1
 74
0
 49
-2.9000000000000004
 74
0
 49
0.1
 74
0
 49
-2.9500000000000002
 74
0
  0
LTYPE
  5
40
100
AcDbSymbolTableRecord
100
AcDbLinetypeTableRecord
  2
ACAD_ISO09W100
 70
0
  3
ISO long-dash double-short-dash ____ __ __ ____
 72
65
 73
6
 40
45.0
 49
24.0
 74
0
 49
-3.0
 74
0
 49
6.0
 74
0
 49
-3.0
 74
0
 49
6.0
 74
0
 49
-3.0
 74
0
  0
LTYPE
  5
41
100
AcDbSymbolTableRecord
100
AcDbLinetypeTableRecord
  2
ACAD_ISO14W100
 70
0
  3
ISO dash triple-dot __ . . . __ . . . __ . . . _
 72
65
 73
8
 40
24.0000000000000036
 49
12.0
 74
0
 49
-2.9500000000000002
 74
0
 49
0.1
 74
0
 49
-2.9000000000000004
 74
0
 49
0.1
 74
0
 49
-2.9000000000000004
 74
0
 49
0.1
 74
0
 49
-2.9500000000000002
 74
0
  0
LTYPE
  5
42
100
AcDbSymbolTableRecord
100
AcDbLinetypeTableRecord
  2
PHANTOM
 70
0
  3
Phantom ______  __  __  ______  __  __  ______ 
 72
65
 73
6
 40
63.5000000000000071
 49
31.75
 74
0
 49
-6.3499999999999996
 74
0
 49
6.3499999999999996
 74
0
 49
-6.3499999999999996
 74
0
 49
6.3499999999999996
 74
0
 49
-6.3499999999999996
 74
0
  0
LTYPE
  5
43
100
AcDbSymbolTableRecord
100
AcDbLinetypeTableRecord
  2
CENTER
 70
0
  3
Center ____ _ ____ _ ____ _ ____ _ ____ _ ____
 72
65
 73
4
 40
50.8000000000000043
 49
31.75
 74
0
 49
-6.3499999999999996
 74
0
 49
6.3499999999999996
 74
0
 49
-6.3499999999999996
 74
0
  0
LTYPE
  5
44
100
AcDbSymbolTableRecord
100
AcDbLinetypeTableRecord
  2
ACAD_ISO10W100
 70
0
  3
ISO dash dot __ . __ . __ . __ . __ . __ . __ . 
 72
65
 73
4
 40
18.0
 49
12.0
 74
0
 49
-2.9500000000000002
 74
0
 49
0.1
 74
0
 49
-2.9500000000000002
 74
0
  0
LTYPE
  5
45
100
AcDbSymbolTableRecord
100
AcDbLinetypeTableRecord
  2
HIDDEN2
 70
0
  3
Hidden (.5x) _ _ _ _ _ _ _ _ _ _ _ _ _ _ _ _ _ 
 72
65
 73
2
 40
4.7624999999999993
 49
3.1749999999999998
 74
0
 49
-1.5874999999999999
 74
0
  0
LTYPE
  5
46
100
AcDbSymbolTableRecord
100
AcDbLinetypeTableRecord
  2
DIVIDE
 70
0
  3
Divide ____ . . ____ . . ____ . . ____ . . ____
 72
65
 73
6
 40
31.7500000000000036
 49
12.6999999999999993
 74
0
 49
-6.2999999999999998
 74
0
 49
0.1
 74
0
 49
-6.25
 74
0
 49
0.1
 74
0
 49
-6.2999999999999998
 74
0
  0
LTYPE
  5
47
100
AcDbSymbolTableRecord
100
AcDbLinetypeTableRecord
  2
DASHDOTX2
 70
0
  3
Dash dot (2x) ____  .  ____  .  ____  .  ___
 72
65
 73
4
 40
50.7999999999999972
 49
25.3999999999999986
 74
0
 49
-12.6499999999999986
 74
0
 49
0.1
 74
0
 49
-12.6499999999999986
 74
0
  0
LTYPE
  5
48
100
AcDbSymbolTableRecord
100
AcDbLinetypeTableRecord
  2
BORDER
 70
0
  3
Border __ __ . __ __ . __ __ . __ __ . __ __ .
 72
65
 73
6
 40
44.4499999999999957
 49
12.6999999999999993
 74
0
 49
-6.3499999999999996
 74
0
 49
12.6999999999999993
 74
0
 49
-6.2999999999999998
 74
0
 49
0.1
 74
0
 49
-6.2999999999999998
 74
0
  0
LTYPE
  5
49
100
AcDbSymbolTableRecord
100
AcDbLinetypeTableRecord
  2
CENTERX2
 70
0
  3
Center (2x) ________  __  ________  __  _____
 72
65
 73
4
 40
101.6000000000000085
 49
63.5
 74
0
 49
-12.6999999999999993
 74
0
 49
12.6999999999999993
 74
0
 49
-12.6999999999999993
 74
0
  0
LTYPE
  5
4A
100
AcDbSymbolTableRecord
100
AcDbLinetypeTableRecord
  2
BORDER2
 70
0
  3
Border (.5x) __.__.__.__.__.__.__.__.__.__.__.
 72
65
 73
6
 40
22.2250000000000014
 49
6.3499999999999996
 74
0
 49
-3.1749999999999998
 74
0
 49
6.3499999999999996
 74
0
 49
-3.125
 74
0
 49
0.1
 74
0
 49
-3.125
 74
0
  0
LTYPE
  5
4B
100
AcDbSymbolTableRecord
100
AcDbLinetypeTableRecord
  2
PHANTOM2
 70
0
  3
Phantom (.5x) ___ _ _ ___ _ _ ___ _ _ ___ _ _
 72
65
 73
6
 40
31.7500000000000036
 49
15.875
 74
0
 49
-3.1749999999999998
 74
0
 49
3.1749999999999998
 74
0
 49
-3.1749999999999998
 74
0
 49
3.1749999999999998
 74
0
 49
-3.1749999999999998
 74
0
  0
LTYPE
  5
4C
100
AcDbSymbolTableRecord
100
AcDbLinetypeTableRecord
  2
DASHDOT2
 70
0
  3
Dash dot (.5x) _._._._._._._._._._._._._._._.
 72
65
 73
4
 40
12.6999999999999993
 49
6.3499999999999996
 74
0
 49
-3.125
 74
0
 49
0.1
 74
0
 49
-3.125
 74
0
  0
LTYPE
  5
4D
100
AcDbSymbolTableRecord
100
AcDbLinetypeTableRecord
  2
ACAD_ISO02W100
 70
0
  3
ISO dash __ __ __ __ __ __ __ __ __ __ __ __ __
 72
65
 73
2
 40
15.0
 49
12.0
 74
0
 49
-3.0
 74
0
  0
LTYPE
  5
4E
100
AcDbSymbolTableRecord
100
AcDbLinetypeTableRecord
  2
DASHED
 70
0
  3
Dashed __ __ __ __ __ __ __ __ __ __ __ __ __ _
 72
65
 73
2
 40
19.0499999999999972
 49
12.6999999999999993
 74
0
 49
-6.3499999999999996
 74
0
  0
LTYPE
  5
14
100
AcDbSymbolTableRecord
100
AcDbLinetypeTableRecord
  2
BYBLOCK
 70
0
  3

 72
65
 73
0
 40
0.0
  0
LTYPE
  5
4F
100
AcDbSymbolTableRecord
100
AcDbLinetypeTableRecord
  2
ACAD_ISO11W100
 70
0
  3
ISO double-dash dot __ __ . __ __ . __ __ . __ _
 72
65
 73
6
 40
33.0
 49
12.0
 74
0
 49
-3.0
 74
0
 49
12.0
 74
0
 49
-2.9500000000000002
 74
0
 49
0.1
 74
0
 49
-2.9500000000000002
 74
0
  0
LTYPE
  5
50
100
AcDbSymbolTableRecord
100
AcDbLinetypeTableRecord
  2
ACAD_ISO15W100
 70
0
  3
ISO double-dash triple-dot __ __ . . . __ __ . .
 72
65
 73
10
 40
39.0000000000000071
 49
12.0
 74
0
 49
-3.0
 74
0
 49
12.0
 74
0
 49
-2.9500000000000002
 74
0
 49
0.1
 74
0
 49
-2.9000000000000004
 74
0
 49
0.1
 74
0
 49
-2.9000000000000004
 74
0
 49
0.1
 74
0
 49
-2.9500000000000002
 74
0
  0
LTYPE
  5
51
100
AcDbSymbolTableRecord
100
AcDbLinetypeTableRecord
  2
CENTER2
 70
0
  3
Center (.5x) ___ _ ___ _ ___ _ ___ _ ___ _ ___
 72
65
 73
4
 40
28.5750000000000028
 49
19.0500000000000007
 74
0
 49
-3.1749999999999998
 74
0
 49
3.1749999999999998
 74
0
 49
-3.1749999999999998
 74
0
  0
LTYPE
  5
52
100
AcDbSymbolTableRecord
100
AcDbLinetypeTableRecord
  2
ACAD_ISO04W100
 70
0
  3
ISO long-dash dot ____ . ____ . ____ . ____ . _
 72
65
 73
4
 40
30.0
 49
24.0
 74
0
 49
-2.9500000000000002
 74
0
 49
0.1
 74
0
 49
-2.9500000000000002
 74
0
  0
LTYPE
  5
53
100
AcDbSymbolTableRecord
100
AcDbLinetypeTableRecord
  2
DASHEDX2
 70
0
  3
Dashed (2x) ____  ____  ____  ____  ____  ___
 72
65
 73
2
 40
38.0999999999999943
 49
25.3999999999999986
 74
0
 49
-12.6999999999999993
 74
0
  0
LTYPE
  5
54
100
AcDbSymbolTableRecord
100
AcDbLinetypeTableRecord
  2
ACAD_ISO03W100
 70
0
  3
ISO dash space __    __    __    __    __    __
 72
65
 73
2
 40
30.0
 49
12.0
 74
0
 49
-18.0
 74
0
  0
LTYPE
  5
55
100
AcDbSymbolTableRecord
100
AcDbLinetypeTableRecord
  2
DIVIDEX2
 70
0
  3
Divide (2x) ________  .  .  ________  .  .  _
 72
65
 73
6
 40
63.5
 49
25.3999999999999986
 74
0
 49
-12.6499999999999986
 74
0
 49
0.1
 74
0
 49
-12.5999999999999979
 74
0
 49
0.1
 74
0
 49
-12.6499999999999986
 74
0
  0
LTYPE
  5
56
100
AcDbSymbolTableRecord
100
AcDbLinetypeTableRecord
  2
ACAD_ISO05W100
 70
0
  3
ISO long-dash double-dot ____ .. ____ .. ____ . 
 72
65
 73
6
 40
33.0000000000000071
 49
24.0
 74
0
 49
-2.9500000000000002
 74
0
 49
0.1
 74
0
 49
-2.9000000000000004
 74
0
 49
0.1
 74
0
 49
-2.9500000000000002
 74
0
  0
ENDTAB
  0
TABLE
  2
LAYER
  5
2
100
AcDbSymbolTable
 70
6
  0
LAYER
  5
57
100
AcDbSymbolTableRecord
100
AcDbLayerTableRecord
  2
PIN_TOP
 70
1
 62
12
420
10813440
  6
CONTINUOUS
370
5
390
F
  0
LAYER
  5
58
100
AcDbSymbolTableRecord
100
AcDbLayerTableRecord
  2
BG_OUTLINE
 70
1
 62
110
420
65407
  6
CONTINUOUS
370
5
390
F
  0
LAYER
  5
59
100
AcDbSymbolTableRecord
100
AcDbLayerTableRecord
  2
BG_SILKSCREEN_TOP
 70
1
 62
7
420
16777215
  6
CONTINUOUS
370
5
390
F
  0
LAYER
  5
5A
100
AcDbSymbolTableRecord
100
AcDbLayerTableRecord
  2
0 holes
 70
5
 62
1
420
16711680
  6
CONTINUOUS
370
25
390
F
  0
LAYER
  5
5B
100
AcDbSymbolTableRecord
100
AcDbLayerTableRecord
  2
PG_SILKSCREEN_TOP
 70
1
 62
7
420
16777215
  6
CONTINUOUS
370
5
390
F
  0
LAYER
  5
10
100
AcDbSymbolTableRecord
100
AcDbLayerTableRecord
  2
0
 70
0
 62
2
420
16776960
  6
CONTINUOUS
370
25
390
F
  0
ENDTAB
  0
TABLE
  2
STYLE
  5
3
100
AcDbSymbolTable
 70
9
  0
STYLE
  5
5C
100
AcDbSymbolTableRecord
100
AcDbTextStyleTableRecord
  2
Standard
 70
0
 40
0.0
 41
1.0
 50
0.0
 71
0
 42
2.5
  3

  4

1001
ACAD
1000
txt
1071
0
  0
STYLE
  5
5D
100
AcDbSymbolTableRecord
100
AcDbTextStyleTableRecord
  2
textstyle0
 70
0
 40
0.0
 41
1.0
 50
0.0
 71
0
 42
0.762
  3

  4

1001
ACAD
1000
Standard
1071
0
  0
STYLE
  5
5E
100
AcDbSymbolTableRecord
100
AcDbTextStyleTableRecord
  2
textstyle1
 70
0
 40
0.0
 41
1.0
 50
0.0
 71
0
 42
0.762
  3

  4

1001
ACAD
1000
Standard
1071
0
  0
STYLE
  5
5F
100
AcDbSymbolTableRecord
100
AcDbTextStyleTableRecord
  2
textstyle2
 70
0
 40
0.0
 41
1.0
 50
0.0
 71
0
 42
0.762
  3

  4

1001
ACAD
1000
Standard
1071
0
  0
STYLE
  5
60
100
AcDbSymbolTableRecord
100
AcDbTextStyleTableRecord
  2
textstyle3
 70
0
 40
0.0
 41
1.0
 50
0.0
 71
0
 42
0.762
  3

  4

1001
ACAD
1000
Standard
1071
0
  0
STYLE
  5
61
100
AcDbSymbolTableRecord
100
AcDbTextStyleTableRecord
  2
textstyle4
 70
0
 40
0.0
 41
1.0
 50
0.0
 71
0
 42
0.762
  3

  4

1001
ACAD
1000
Standard
1071
0
  0
STYLE
  5
62
100
AcDbSymbolTableRecord
100
AcDbTextStyleTableRecord
  2
textstyle5
 70
0
 40
0.0
 41
1.0
 50
0.0
 71
0
 42
0.762
  3

  4

1001
ACAD
1000
Standard
1071
0
  0
STYLE
  5
63
100
AcDbSymbolTableRecord
100
AcDbTextStyleTableRecord
  2
textstyle6
 70
0
 40
0.0
 41
1.0
 50
0.0
 71
0
 42
0.762
  3

  4

1001
ACAD
1000
Standard
1071
0
  0
STYLE
  5
64
100
AcDbSymbolTableRecord
100
AcDbTextStyleTableRecord
  2
textstyle7
 70
0
 40
0.0
 41
1.0
 50
0.0
 71
0
 42
2.032
  3

  4

1001
ACAD
1000
Standard
1071
0
  0
ENDTAB
  0
TABLE
  2
VIEW
  5
6
100
AcDbSymbolTable
 70
0
  0
ENDTAB
  0
TABLE
  2
UCS
  5
7
100
AcDbSymbolTable
 70
0
  0
ENDTAB
  0
TABLE
  2
APPID
  5
9
100
AcDbSymbolTable
 70
1
  0
APPID
  5
12
100
AcDbSymbolTableRecord
100
AcDbRegAppTableRecord
  2
ACAD
 70
0
  0
APPID
  5
65
100
AcDbSymbolTableRecord
100
AcDbRegAppTableRecord
  2
QCAD
 70
0
  0
ENDTAB
  0
TABLE
  2
DIMSTYLE
  5
A
100
AcDbSymbolTable
 70
1
100
AcDbDimStyleTable
 71
0
  0
DIMSTYLE
105
27
100
AcDbSymbolTableRecord
100
AcDbDimStyleTableRecord
  2
Standard
 41
0.18
 42
0.0625
 43
3.75
 44
0.18
 70
0
 73
0
 74
0
 77
0
 78
8
140
0.18
141
2.5
143
0.03937007874016
147
0.09
171
3
172
1
271
2
272
2
274
3
278
44
283
0
284
8
340
5C
  0
ENDTAB
  0
TABLE
  2
BLOCK_RECORD
  5
1
100
AcDbSymbolTable
 70
1
  0
BLOCK_RECORD
  5
1F
100
AcDbSymbolTableRecord
100
AcDbBlockTableRecord
  2
*Model_Space
340
22
  0
BLOCK_RECORD
  5
1B
100
AcDbSymbolTableRecord
100
AcDbBlockTableRecord
  2
*Paper_Space
340
1E
  0
BLOCK_RECORD
  5
23
100
AcDbSymbolTableRecord
100
AcDbBlockTableRecord
  2
*Paper_Space0
340
26
  0
BLOCK_RECORD
  5
66
100
AcDbSymbolTableRecord
100
AcDbBlockTableRecord
  2
FIGURE_TRI
340
0
  0
BLOCK_RECORD
  5
67
100
AcDbSymbolTableRecord
100
AcDbBlockTableRecord
  2
FIGURE_OCT
340
0
  0
BLOCK_RECORD
  5
68
100
AcDbSymbolTableRecord
100
AcDbBlockTableRecord
  2
FIGURE_CROSS
340
0
  0
BLOCK_RECORD
  5
69
100
AcDbSymbolTableRecord
100
AcDbBlockTableRecord
  2
FIGURE_HEX
340
0
  0
BLOCK_RECORD
  5
6A
100
AcDbSymbolTableRecord
100
AcDbBlockTableRecord
  2
FIGURE_SQUARE
340
0
  0
BLOCK_RECORD
  5
6B
100
AcDbSymbolTableRecord
100
AcDbBlockTableRecord
  2
FIGURE_DIAMOND
340
0
  0
BLOCK_RECORD
  5
6C
100
AcDbSymbolTableRecord
100
AcDbBlockTableRecord
  2
FIGURE_OBLONG
340
0
  0
BLOCK_RECORD
  5
6D
100
AcDbSymbolTableRecord
100
AcDbBlockTableRecord
  2
FIGURE_CIRCLE
340
0
  0
ENDTAB
  0
ENDSEC
  0
SECTION
  2
BLOCKS
  0
BLOCK
  5
20
100
AcDbEntity
  8
0
100
AcDbBlockBegin
  2
*Model_Space
 70
0
 10
0.0
 20
0.0
 30
0.0
  3
*Model_Space
  1

  0
ENDBLK
  5
21
100
AcDbEntity
  8
0
100
AcDbBlockEnd
  0
BLOCK
  5
1C
100
AcDbEntity
 67
1
  8
0
100
AcDbBlockBegin
  2
*Paper_Space
 70
0
 10
0.0
 20
0.0
 30
0.0
  3
*Paper_Space
  1

  0
ENDBLK
  5
1D
100
AcDbEntity
 67
1
  8
0
100
AcDbBlockEnd
  0
BLOCK
  5
24
100
AcDbEntity
  8
0
100
AcDbBlockBegin
  2
*Paper_Space0
 70
0
 10
0.0
 20
0.0
 30
0.0
  3
*Paper_Space0
  1

  0
ENDBLK
  5
25
100
AcDbEntity
  8
0
100
AcDbBlockEnd
  0
BLOCK
  5
6E
100
AcDbEntity
  8
0
100
AcDbBlockBegin
  2
FIGURE_TRI
 70
0
 10
0.0
 20
0.0
 30
0.0
  3
FIGURE_TRI
  1

  0
LWPOLYLINE
  5
6F
100
AcDbEntity
  8
0
 62
256
370
-1
 48
1.0
  6
BYLAYER
100
AcDbPolyline
 90
3
 70
1
 10
-0.5
 20
-0.5
 10
0.0
 20
0.5
 10
0.5
 20
-0.5
  0
ENDBLK
  5
70
100
AcDbEntity
  8
0
100
AcDbBlockEnd
  0
BLOCK
  5
71
100
AcDbEntity
  8
0
100
AcDbBlockBegin
  2
FIGURE_OCT
 70
0
 10
0.0
 20
0.0
 30
0.0
  3
FIGURE_OCT
  1

  0
LWPOLYLINE
  5
72
100
AcDbEntity
  8
0
 62
256
370
-1
 48
1.0
  6
BYLAYER
100
AcDbPolyline
 90
8
 70
1
 10
-0.5
 20
-0.2071
 10
-0.5
 20
0.2071
 10
-0.2071
 20
0.5
 10
0.2071
 20
0.5
 10
0.5
 20
0.2071
 10
0.5
 20
-0.2071
 10
0.2071
 20
-0.5
 10
-0.2071
 20
-0.5
  0
ENDBLK
  5
73
100
AcDbEntity
  8
0
100
AcDbBlockEnd
  0
BLOCK
  5
74
100
AcDbEntity
  8
0
100
AcDbBlockBegin
  2
FIGURE_CROSS
 70
0
 10
0.0
 20
0.0
 30
0.0
  3
FIGURE_CROSS
  1

  0
LWPOLYLINE
  5
75
100
AcDbEntity
  8
0
 62
256
370
-1
 48
1.0
  6
BYLAYER
100
AcDbPolyline
 90
2
 70
0
 10
-0.5
 20
0.0
 10
0.5
 20
0.0
  0
LWPOLYLINE
  5
76
100
AcDbEntity
  8
0
 62
256
370
-1
 48
1.0
  6
BYLAYER
100
AcDbPolyline
 90
2
 70
0
 10
0.0
 20
0.5
 10
0.0
 20
-0.5
  0
ENDBLK
  5
77
100
AcDbEntity
  8
0
100
AcDbBlockEnd
  0
BLOCK
  5
78
100
AcDbEntity
  8
0
100
AcDbBlockBegin
  2
FIGURE_HEX
 70
0
 10
0.0
 20
0.0
 30
0.0
  3
FIGURE_HEX
  1

  0
LWPOLYLINE
  5
79
100
AcDbEntity
  8
0
 62
256
370
-1
 48
1.0
  6
BYLAYER
100
AcDbPolyline
 90
6
 70
1
 10
-0.5
 20
0.0
 10
-0.25
 20
0.5
 10
0.25
 20
0.5
 10
0.5
 20
0.0
 10
0.25
 20
-0.5
 10
-0.25
 20
-0.5
  0
ENDBLK
  5
7A
100
AcDbEntity
  8
0
100
AcDbBlockEnd
  0
BLOCK
  5
7B
100
AcDbEntity
  8
0
100
AcDbBlockBegin
  2
FIGURE_SQUARE
 70
0
 10
0.0
 20
0.0
 30
0.0
  3
FIGURE_SQUARE
  1

  0
LWPOLYLINE
  5
7C
100
AcDbEntity
  8
0
 62
256
370
-1
 48
1.0
  6
BYLAYER
100
AcDbPolyline
 90
4
 70
1
 10
-0.5
 20
-0.5
 10
-0.5
 20
0.5
 10
0.5
 20
0.5
 10
0.5
 20
-0.5
  0
ENDBLK
  5
7D
100
AcDbEntity
  8
0
100
AcDbBlockEnd
  0
BLOCK
  5
7E
100
AcDbEntity
  8
0
100
AcDbBlockBegin
  2
FIGURE_DIAMOND
 70
0
 10
0.0
 20
0.0
 30
0.0
  3
FIGURE_DIAMOND
  1

  0
LWPOLYLINE
  5
7F
100
AcDbEntity
  8
0
 62
256
370
-1
 48
1.0
  6
BYLAYER
100
AcDbPolyline
 90
4
 70
1
 10
-0.5
 20
0.0
 10
0.0
 20
0.5
 10
0.5
 20
0.0
 10
0.0
 20
-0.5
  0
ENDBLK
  5
80
100
AcDbEntity
  8
0
100
AcDbBlockEnd
  0
BLOCK
  5
81
100
AcDbEntity
  8
0
100
AcDbBlockBegin
  2
FIGURE_OBLONG
 70
0
 10
0.0
 20
0.0
 30
0.0
  3
FIGURE_OBLONG
  1

  0
LWPOLYLINE
  5
82
100
AcDbEntity
  8
0
 62
256
370
-1
 48
1.0
  6
BYLAYER
100
AcDbPolyline
 90
12
 70
1
 10
-0.5
 20
-0.125
 10
-0.5
 20
0.125
 10
-0.416
 20
0.375
 10
-0.25
 20
0.5
 10
0.25
 20
0.5
 10
0.416
 20
0.375
 10
0.5
 20
0.125
 10
0.5
 20
-0.125
 10
0.416
 20
-0.375
 10
0.25
 20
-0.5
 10
-0.25
 20
-0.5
 10
-0.416
 20
-0.375
  0
ENDBLK
  5
83
100
AcDbEntity
  8
0
100
AcDbBlockEnd
  0
BLOCK
  5
84
100
AcDbEntity
  8
0
100
AcDbBlockBegin
  2
FIGURE_CIRCLE
 70
0
 10
0.0
 20
0.0
 30
0.0
  3
FIGURE_CIRCLE
  1

  0
CIRCLE
  5
85
100
AcDbEntity
  8
0
 62
256
370
-1
 48
1.0
  6
BYLAYER
100
AcDbCircle
 10
0.0
 20
0.0
 30
0.0
 40
0.5
  0
ENDBLK
  5
86
100
AcDbEntity
  8
0
100
AcDbBlockEnd
  0
ENDSEC
  0
SECTION
  2
ENTITIES
  0
CIRCLE
  5
87
100
AcDbEntity
  8
PIN_TOP
 62
256
370
-1
 48
1.0
  6
BYLAYER
100
AcDbCircle
 10
61.7699810000000014
 20
-45.4200009999999992
 30
0.0
 40
0.899998
  0
CIRCLE
  5
88
100
AcDbEntity
  8
PIN_TOP
 62
256
370
-1
 48
1.0
  6
BYLAYER
100
AcDbCircle
 10
49.8299990000000008
 20
-45.4200009999999992
 30
0.0
 40
0.899998
  0
LWPOLYLINE
  5
89
100
AcDbEntity
  8
PIN_TOP
 62
256
370
-1
 48
1.0
  6
BYLAYER
100
AcDbPolyline
 90
4
 70
1
 10
51.8799830000000028
 20
-45.9200000000000017
 10
51.8799830000000028
 20
-43.5200040000000001
 10
52.5799809999999965
 20
-43.5200040000000001
 10
52.5799809999999965
 20
-45.9200000000000017
  0
LWPOLYLINE
  5
8A
100
AcDbEntity
  8
PIN_TOP
 62
256
370
-1
 48
1.0
  6
BYLAYER
100
AcDbPolyline
 90
4
 70
1
 10
52.8999700000000033
 20
-45.9200000000000017
 10
52.8999700000000033
 20
-43.5200040000000001
 10
53.5999690000000015
 20
-43.5200040000000001
 10
53.5999690000000015
 20
-45.9200000000000017
  0
LWPOLYLINE
  5
8B
100
AcDbEntity
  8
PIN_TOP
 62
256
370
-1
 48
1.0
  6
BYLAYER
100
AcDbPolyline
 90
4
 70
1
 10
53.9199839999999995
 20
-45.9200000000000017
 10
53.9199839999999995
 20
-43.5200040000000001
 10
54.6199820000000003
 20
-43.5200040000000001
 10
54.6199820000000003
 20
-45.9200000000000017
  0
LWPOLYLINE
  5
8C
100
AcDbEntity
  8
PIN_TOP
 62
256
370
-1
 48
1.0
  6
BYLAYER
100
AcDbPolyline
 90
4
 70
1
 10
54.9399709999999999
 20
-45.9200000000000017
 10
54.9399709999999999
 20
-43.5200040000000001
 10
55.6399699999999982
 20
-43.5200040000000001
 10
55.6399699999999982
 20
-45.9200000000000017
  0
LWPOLYLINE
  5
8D
100
AcDbEntity
  8
PIN_TOP
 62
256
370
-1
 48
1.0
  6
BYLAYER
100
AcDbPolyline
 90
4
 70
1
 10
55.9599850000000032
 20
-45.9200000000000017
 10
55.9599850000000032
 20
-43.5200040000000001
 10
56.6599829999999969
 20
-43.5200040000000001
 10
56.6599829999999969
 20
-45.9200000000000017
  0
LWPOLYLINE
  5
8E
100
AcDbEntity
  8
PIN_TOP
 62
256
370
-1
 48
1.0
  6
BYLAYER
100
AcDbPolyline
 90
4
 70
1
 10
56.9799719999999965
 20
-45.9200000000000017
 10
56.9799719999999965
 20
-43.5200040000000001
 10
57.6799710000000019
 20
-43.5200040000000001
 10
57.6799710000000019
 20
-45.9200000000000017
  0
LWPOLYLINE
  5
8F
100
AcDbEntity
  8
PIN_TOP
 62
256
370
-1
 48
1.0
  6
BYLAYER
100
AcDbPolyline
 90
4
 70
1
 10
57.9999859999999998
 20
-45.9200000000000017
 10
57.9999859999999998
 20
-43.5200040000000001
 10
58.6999840000000006
 20
-43.5200040000000001
 10
58.6999840000000006
 20
-45.9200000000000017
  0
LWPOLYLINE
  5
90
100
AcDbEntity
  8
PIN_TOP
 62
256
370
-1
 48
1.0
  6
BYLAYER
100
AcDbPolyline
 90
4
 70
1
 10
59.0199730000000002
 20
-45.9200000000000017
 10
59.0199730000000002
 20
-43.5200040000000001
 10
59.7199719999999985
 20
-43.5200040000000001
 10
59.7199719999999985
 20
-45.9200000000000017
  0
LWPOLYLINE
  5
91
100
AcDbEntity
  8
PIN_TOP
 62
256
370
-1
 48
1.0
  6
BYLAYER
100
AcDbPolyline
 90
4
 70
1
 10
46.5799930000000018
 20
-54.2700209999999998
 10
46.5799930000000018
 20
-50.1700289999999995
 10
47.7799910000000025
 20
-50.1700289999999995
 10
47.7799910000000025
 20
-54.2700209999999998
  0
LWPOLYLINE
  5
92
100
AcDbEntity
  8
PIN_TOP
 62
256
370
-1
 48
1.0
  6
BYLAYER
100
AcDbPolyline
 90
4
 70
1
 10
63.1449840000000009
 20
-54.2700209999999998
 10
63.1449840000000009
 20
-50.1700289999999995
 10
65.6949919999999992
 20
-50.1700289999999995
 10
65.6949919999999992
 20
-54.2700209999999998
  0
LWPOLYLINE
  5
93
100
AcDbEntity
  8
PG_SILKSCREEN_TOP
 62
256
370
-1
 48
1.0
  6
BYLAYER
100
AcDbPolyline
 90
2
 70
0
 10
49.1999780000000015
 20
-57.5000119999999981
 10
49.1999780000000015
 20
-47.5000069999999965
  0
LWPOLYLINE
  5
94
100
AcDbEntity
  8
PG_SILKSCREEN_TOP
 62
256
370
-1
 48
1.0
  6
BYLAYER
100
AcDbPolyline
 90
2
 70
0
 10
62.4000020000000006
 20
-57.5000119999999981
 10
49.1999780000000015
 20
-57.5000119999999981
  0
LWPOLYLINE
  5
95
100
AcDbEntity
  8
PG_SILKSCREEN_TOP
 62
256
370
-1
 48
1.0
  6
BYLAYER
100
AcDbPolyline
 90
2
 70
0
 10
62.4000020000000006
 20
-47.5000069999999965
 10
62.4000020000000006
 20
-57.5000119999999981
  0
LWPOLYLINE
  5
96
100
AcDbEntity
  8
PG_SILKSCREEN_TOP
 62
256
370
-1
 48
1.0
  6
BYLAYER
100
AcDbPolyline
 90
2
 70
0
 10
49.1999780000000015
 20
-47.5000069999999965
 10
62.4000020000000006
 20
-47.5000069999999965
  0
LWPOLYLINE
  5
97
100
AcDbEntity
  8
PG_SILKSCREEN_TOP
 62
256
370
-1
 48
1.0
  6
BYLAYER
100
AcDbPolyline
 90
2
 70
0
 10
48.5999789999999976
 20
-45.4200009999999992
 10
63.0000009999999975
 20
-45.4200009999999992
  0
LWPOLYLINE
  5
98
100
AcDbEntity
  8
PG_SILKSCREEN_TOP
 62
256
370
-1
 48
1.0
  6
BYLAYER
100
AcDbPolyline
 90
2
 70
0
 10
48.5999789999999976
 20
-57.5000119999999981
 10
48.5999789999999976
 20
-44.9000119999999967
  0
LWPOLYLINE
  5
99
100
AcDbEntity
  8
PG_SILKSCREEN_TOP
 62
256
370
-1
 48
1.0
  6
BYLAYER
100
AcDbPolyline
 90
2
 70
0
 10
63.0000009999999975
 20
-57.5000119999999981
 10
48.5999789999999976
 20
-57.5000119999999981
  0
LWPOLYLINE
  5
9A
100
AcDbEntity
  8
PG_SILKSCREEN_TOP
 62
256
370
-1
 48
1.0
  6
BYLAYER
100
AcDbPolyline
 90
2
 70
0
 10
63.0000009999999975
 20
-44.9000119999999967
 10
63.0000009999999975
 20
-57.5000119999999981
  0
LWPOLYLINE
  5
9B
100
AcDbEntity
  8
PG_SILKSCREEN_TOP
 62
256
370
-1
 48
1.0
  6
BYLAYER
100
AcDbPolyline
 90
2
 70
0
 10
48.5999789999999976
 20
-44.9000119999999967
 10
63.0000009999999975
 20
-44.9000119999999967
  0
LWPOLYLINE
  5
9C
100
AcDbEntity
  8
PG_SILKSCREEN_TOP
 62
256
370
-1
 48
1.0
  6
BYLAYER
100
AcDbPolyline
 90
4
 70
1
 10
47.6499939999999995
 20
-50.0700039999999973
 10
48.6499919999999975
 20
-50.0700039999999973
 10
48.6499919999999975
 20
-54.3700210000000013
 10
47.6499939999999995
 20
-54.3700210000000013
  0
LWPOLYLINE
  5
9D
100
AcDbEntity
  8
PIN_TOP
 62
256
370
-1
 48
1.0
  6
BYLAYER
100
AcDbPolyline
 90
4
 70
1
 10
33.860002999999999
 20
-46.8000079999999983
 10
33.860002999999999
 20
-44.6000119999999995
 10
34.1400130000000033
 20
-44.6000119999999995
 10
34.1400130000000033
 20
-46.8000079999999983
  0
LWPOLYLINE
  5
9E
100
AcDbEntity
  8
PIN_TOP
 62
256
370
-1
 48
1.0
  6
BYLAYER
100
AcDbPolyline
 90
4
 70
1
 10
34.3600020000000015
 20
-46.8000079999999983
 10
34.3600020000000015
 20
-44.6000119999999995
 10
34.6400119999999987
 20
-44.6000119999999995
 10
34.6400119999999987
 20
-46.8000079999999983
  0
LWPOLYLINE
  5
9F
100
AcDbEntity
  8
PIN_TOP
 62
256
370
-1
 48
1.0
  6
BYLAYER
100
AcDbPolyline
 90
4
 70
1
 10
34.8600009999999969
 20
-46.8000079999999983
 10
34.8600009999999969
 20
-44.6000119999999995
 10
35.1400110000000012
 20
-44.6000119999999995
 10
35.1400110000000012
 20
-46.8000079999999983
  0
LWPOLYLINE
  5
A0
100
AcDbEntity
  8
PIN_TOP
 62
256
370
-1
 48
1.0
  6
BYLAYER
100
AcDbPolyline
 90
4
 70
1
 10
35.3599999999999994
 20
-46.8000079999999983
 10
35.3599999999999994
 20
-44.6000119999999995
 10
35.6400099999999966
 20
-44.6000119999999995
 10
35.6400099999999966
 20
-46.8000079999999983
  0
LWPOLYLINE
  5
A1
100
AcDbEntity
  8
PIN_TOP
 62
256
370
-1
 48
1.0
  6
BYLAYER
100
AcDbPolyline
 90
4
 70
1
 10
35.859999000000002
 20
-46.8000079999999983
 10
35.859999000000002
 20
-44.6000119999999995
 10
36.1400089999999992
 20
-44.6000119999999995
 10
36.1400089999999992
 20
-46.8000079999999983
  0
LWPOLYLINE
  5
A2
100
AcDbEntity
  8
PIN_TOP
 62
256
370
-1
 48
1.0
  6
BYLAYER
100
AcDbPolyline
 90
4
 70
1
 10
36.3599979999999974
 20
-46.8000079999999983
 10
36.3599979999999974
 20
-44.6000119999999995
 10
36.6400080000000017
 20
-44.6000119999999995
 10
36.6400080000000017
 20
-46.8000079999999983
  0
LWPOLYLINE
  5
A3
100
AcDbEntity
  8
PIN_TOP
 62
256
370
-1
 48
1.0
  6
BYLAYER
100
AcDbPolyline
 90
4
 70
1
 10
36.8599969999999999
 20
-46.8000079999999983
 10
36.8599969999999999
 20
-44.6000119999999995
 10
37.1400069999999971
 20
-44.6000119999999995
 10
37.1400069999999971
 20
-46.8000079999999983
  0
LWPOLYLINE
  5
A4
100
AcDbEntity
  8
PIN_TOP
 62
256
370
-1
 48
1.0
  6
BYLAYER
100
AcDbPolyline
 90
4
 70
1
 10
37.3599960000000024
 20
-46.8000079999999983
 10
37.3599960000000024
 20
-44.6000119999999995
 10
37.6400059999999996
 20
-44.6000119999999995
 10
37.6400059999999996
 20
-46.8000079999999983
  0
LWPOLYLINE
  5
A5
100
AcDbEntity
  8
PIN_TOP
 62
256
370
-1
 48
1.0
  6
BYLAYER
100
AcDbPolyline
 90
4
 70
1
 10
37.8599949999999978
 20
-46.8000079999999983
 10
37.8599949999999978
 20
-44.6000119999999995
 10
38.1400050000000022
 20
-44.6000119999999995
 10
38.1400050000000022
 20
-46.8000079999999983
  0
LWPOLYLINE
  5
A6
100
AcDbEntity
  8
PIN_TOP
 62
256
370
-1
 48
1.0
  6
BYLAYER
100
AcDbPolyline
 90
4
 70
1
 10
38.3599940000000004
 20
-46.8000079999999983
 10
38.3599940000000004
 20
-44.6000119999999995
 10
38.6400039999999976
 20
-44.6000119999999995
 10
38.6400039999999976
 20
-46.8000079999999983
  0
LWPOLYLINE
  5
A7
100
AcDbEntity
  8
PIN_TOP
 62
256
370
-1
 48
1.0
  6
BYLAYER
100
AcDbPolyline
 90
4
 70
1
 10
38.8599930000000029
 20
-46.8000079999999983
 10
38.8599930000000029
 20
-44.6000119999999995
 10
39.1400030000000001
 20
-44.6000119999999995
 10
39.1400030000000001
 20
-46.8000079999999983
  0
LWPOLYLINE
  5
A8
100
AcDbEntity
  8
PIN_TOP
 62
256
370
-1
 48
1.0
  6
BYLAYER
100
AcDbPolyline
 90
4
 70
1
 10
39.3599919999999983
 20
-46.8000079999999983
 10
39.3599919999999983
 20
-44.6000119999999995
 10
39.6400020000000026
 20
-44.6000119999999995
 10
39.6400020000000026
 20
-46.8000079999999983
  0
LWPOLYLINE
  5
A9
100
AcDbEntity
  8
PIN_TOP
 62
256
370
-1
 48
1.0
  6
BYLAYER
100
AcDbPolyline
 90
4
 70
1
 10
39.8599910000000008
 20
-46.8000079999999983
 10
39.8599910000000008
 20
-44.6000119999999995
 10
40.140000999999998
 20
-44.6000119999999995
 10
40.140000999999998
 20
-46.8000079999999983
  0
LWPOLYLINE
  5
AA
100
AcDbEntity
  8
PIN_TOP
 62
256
370
-1
 48
1.0
  6
BYLAYER
100
AcDbPolyline
 90
4
 70
1
 10
40.3599900000000034
 20
-46.8000079999999983
 10
40.3599900000000034
 20
-44.6000119999999995
 10
40.6400000000000006
 20
-44.6000119999999995
 10
40.6400000000000006
 20
-46.8000079999999983
  0
LWPOLYLINE
  5
AB
100
AcDbEntity
  8
PIN_TOP
 62
256
370
-1
 48
1.0
  6
BYLAYER
100
AcDbPolyline
 90
4
 70
1
 10
40.8599889999999988
 20
-46.8000079999999983
 10
40.8599889999999988
 20
-44.6000119999999995
 10
41.1399990000000031
 20
-44.6000119999999995
 10
41.1399990000000031
 20
-46.8000079999999983
  0
LWPOLYLINE
  5
AC
100
AcDbEntity
  8
PIN_TOP
 62
256
370
-1
 48
1.0
  6
BYLAYER
100
AcDbPolyline
 90
4
 70
1
 10
41.3599880000000013
 20
-46.8000079999999983
 10
41.3599880000000013
 20
-44.6000119999999995
 10
41.6399979999999985
 20
-44.6000119999999995
 10
41.6399979999999985
 20
-46.8000079999999983
  0
LWPOLYLINE
  5
AD
100
AcDbEntity
  8
PIN_TOP
 62
256
370
-1
 48
1.0
  6
BYLAYER
100
AcDbPolyline
 90
4
 70
1
 10
41.8599869999999967
 20
-46.8000079999999983
 10
41.8599869999999967
 20
-44.6000119999999995
 10
42.139997000000001
 20
-44.6000119999999995
 10
42.139997000000001
 20
-46.8000079999999983
  0
LWPOLYLINE
  5
AE
100
AcDbEntity
  8
PIN_TOP
 62
256
370
-1
 48
1.0
  6
BYLAYER
100
AcDbPolyline
 90
4
 70
1
 10
42.3599859999999993
 20
-46.8000079999999983
 10
42.3599859999999993
 20
-44.6000119999999995
 10
42.6399959999999965
 20
-44.6000119999999995
 10
42.6399959999999965
 20
-46.8000079999999983
  0
LWPOLYLINE
  5
AF
100
AcDbEntity
  8
PIN_TOP
 62
256
370
-1
 48
1.0
  6
BYLAYER
100
AcDbPolyline
 90
4
 70
1
 10
42.8599850000000018
 20
-46.8000079999999983
 10
42.8599850000000018
 20
-44.6000119999999995
 10
43.139994999999999
 20
-44.6000119999999995
 10
43.139994999999999
 20
-46.8000079999999983
  0
LWPOLYLINE
  5
B0
100
AcDbEntity
  8
PIN_TOP
 62
256
370
-1
 48
1.0
  6
BYLAYER
100
AcDbPolyline
 90
4
 70
1
 10
30.6500020000000006
 20
-47.6900109999999984
 10
30.6500020000000006
 20
-46.1900139999999979
 42
-1.0
 10
31.8500000000000014
 20
-46.1900139999999979
 10
31.8500000000000014
 20
-47.6900109999999984
 42
-1.0
  0
LWPOLYLINE
  5
B1
100
AcDbEntity
  8
PIN_TOP
 62
256
370
-1
 48
1.0
  6
BYLAYER
100
AcDbPolyline
 90
4
 70
1
 10
46.3499959999999973
 20
-46.1900139999999979
 10
46.3499959999999973
 20
-47.6900109999999984
 42
-1.0
 10
45.1499990000000011
 20
-47.6900109999999984
 10
45.1499990000000011
 20
-46.1900139999999979
 42
-1.0
  0
LWPOLYLINE
  5
B2
100
AcDbEntity
  8
PIN_TOP
 62
256
370
-1
 48
1.0
  6
BYLAYER
100
AcDbPolyline
 90
4
 70
1
 10
31.8500000000000014
 20
-52.5500219999999985
 10
31.8500000000000014
 20
-53.2500199999999992
 42
-1.0
 10
30.6500020000000006
 20
-53.2500199999999992
 10
30.6500020000000006
 20
-52.5500219999999985
 42
-1.0
  0
LWPOLYLINE
  5
B3
100
AcDbEntity
  8
PIN_TOP
 62
256
370
-1
 48
1.0
  6
BYLAYER
100
AcDbPolyline
 90
4
 70
1
 10
46.3499959999999973
 20
-52.5500219999999985
 10
46.3499959999999973
 20
-53.2500199999999992
 42
-1.0
 10
45.1499990000000011
 20
-53.2500199999999992
 10
45.1499990000000011
 20
-52.5500219999999985
 42
-1.0
  0
LWPOLYLINE
  5
B4
100
AcDbEntity
  8
PG_SILKSCREEN_TOP
 62
256
370
-1
 48
1.0
  6
BYLAYER
100
AcDbPolyline
 90
2
 70
0
 10
30.9999889999999994
 20
-57.5000119999999981
 10
30.9999889999999994
 20
-45.3000109999999978
  0
LWPOLYLINE
  5
B5
100
AcDbEntity
  8
PG_SILKSCREEN_TOP
 62
256
370
-1
 48
1.0
  6
BYLAYER
100
AcDbPolyline
 90
2
 70
0
 10
46.0000100000000032
 20
-57.5000119999999981
 10
30.9999889999999994
 20
-57.5000119999999981
  0
LWPOLYLINE
  5
B6
100
AcDbEntity
  8
PG_SILKSCREEN_TOP
 62
256
370
-1
 48
1.0
  6
BYLAYER
100
AcDbPolyline
 90
2
 70
0
 10
46.0000100000000032
 20
-45.3000109999999978
 10
46.0000100000000032
 20
-57.5000119999999981
  0
LWPOLYLINE
  5
B7
100
AcDbEntity
  8
PG_SILKSCREEN_TOP
 62
256
370
-1
 48
1.0
  6
BYLAYER
100
AcDbPolyline
 90
2
 70
0
 10
30.9999889999999994
 20
-45.3000109999999978
 10
46.0000100000000032
 20
-45.3000109999999978
  0
LWPOLYLINE
  5
B8
100
AcDbEntity
  8
PIN_TOP
 62
256
370
-1
 48
1.0
  6
BYLAYER
100
AcDbPolyline
 90
4
 70
1
 10
74.1449879999999979
 20
-3.4050099999999999
 10
73.5449890000000011
 20
-3.4050099999999999
 10
73.5449890000000011
 20
-2.3050120000000001
 10
74.1449879999999979
 20
-2.3050120000000001
  0
LWPOLYLINE
  5
B9
100
AcDbEntity
  8
PIN_TOP
 62
256
370
-1
 48
1.0
  6
BYLAYER
100
AcDbPolyline
 90
4
 70
1
 10
74.1449879999999979
 20
-1.504988
 10
73.5449890000000011
 20
-1.504988
 10
73.5449890000000011
 20
-0.40499
 10
74.1449879999999979
 20
-0.40499
  0
LWPOLYLINE
  5
BA
100
AcDbEntity
  8
PIN_TOP
 62
256
370
-1
 48
1.0
  6
BYLAYER
100
AcDbPolyline
 90
4
 70
1
 10
75.0450110000000024
 20
-3.4050099999999999
 10
74.4450120000000055
 20
-3.4050099999999999
 10
74.4450120000000055
 20
-2.3050120000000001
 10
75.0450110000000024
 20
-2.3050120000000001
  0
LWPOLYLINE
  5
BB
100
AcDbEntity
  8
PIN_TOP
 62
256
370
-1
 48
1.0
  6
BYLAYER
100
AcDbPolyline
 90
4
 70
1
 10
75.0450110000000024
 20
-1.504988
 10
74.4450120000000055
 20
-1.504988
 10
74.4450120000000055
 20
-0.40499
 10
75.0450110000000024
 20
-0.40499
  0
LWPOLYLINE
  5
BC
100
AcDbEntity
  8
PG_SILKSCREEN_TOP
 62
256
370
-1
 48
1.0
  6
BYLAYER
100
AcDbPolyline
 90
7
 70
0
 10
73.2950019999999967
 20
-3.5550090000000001
 10
73.2950019999999967
 20
-0.154991
 10
75.2949980000000068
 20
-0.154991
 10
75.2949980000000068
 20
-3.5550090000000001
 10
75.1949979999999982
 20
-3.6550090000000002
 10
73.3950020000000052
 20
-3.6550090000000002
 10
73.2950019999999967
 20
-3.5550090000000001
  0
LWPOLYLINE
  5
BD
100
AcDbEntity
  8
PG_SILKSCREEN_TOP
 62
256
370
-1
 48
1.0
  6
BYLAYER
100
AcDbPolyline
 90
2
 70
0
 10
72.536990000000003
 20
-1.294003
 10
72.536990000000003
 20
-0.294005
  0
LWPOLYLINE
  5
BE
100
AcDbEntity
  8
PG_SILKSCREEN_TOP
 62
256
370
-1
 48
1.0
  6
BYLAYER
100
AcDbPolyline
 90
2
 70
0
 10
73.0369890000000055
 20
-0.794004
 10
72.0369910000000004
 20
-0.794004
  0
LWPOLYLINE
  5
BF
100
AcDbEntity
  8
PIN_TOP
 62
256
370
-1
 48
1.0
  6
BYLAYER
100
AcDbPolyline
 90
4
 70
1
 10
64.370001000000002
 20
-3.4399980000000001
 10
64.370001000000002
 20
-1.640002
 10
65.1699990000000042
 20
-1.640002
 10
65.1699990000000042
 20
-3.4399980000000001
  0
LWPOLYLINE
  5
C0
100
AcDbEntity
  8
PIN_TOP
 62
256
370
-1
 48
1.0
  6
BYLAYER
100
AcDbPolyline
 90
4
 70
1
 10
65.640000999999998
 20
-3.4399980000000001
 10
65.640000999999998
 20
-1.640002
 10
66.4399990000000003
 20
-1.640002
 10
66.4399990000000003
 20
-3.4399980000000001
  0
LWPOLYLINE
  5
C1
100
AcDbEntity
  8
PIN_TOP
 62
256
370
-1
 48
1.0
  6
BYLAYER
100
AcDbPolyline
 90
4
 70
1
 10
66.9100009999999941
 20
-3.4399980000000001
 10
66.9100009999999941
 20
-1.640002
 10
67.7099989999999963
 20
-1.640002
 10
67.7099989999999963
 20
-3.4399980000000001
  0
LWPOLYLINE
  5
C2
100
AcDbEntity
  8
PIN_TOP
 62
256
370
-1
 48
1.0
  6
BYLAYER
100
AcDbPolyline
 90
4
 70
1
 10
68.1800010000000043
 20
-3.4399980000000001
 10
68.1800010000000043
 20
-1.640002
 10
68.9799990000000065
 20
-1.640002
 10
68.9799990000000065
 20
-3.4399980000000001
  0
LWPOLYLINE
  5
C3
100
AcDbEntity
  8
PG_SILKSCREEN_TOP
 62
256
370
-1
 48
1.0
  6
BYLAYER
100
AcDbPolyline
 90
10
 70
0
 10
64.1750049999999987
 20
-2.6400000000000001
 10
63.7750059999999976
 20
-2.6400000000000001
 10
63.7750059999999976
 20
-3.0399989999999999
 10
63.2750070000000022
 20
-3.0399989999999999
 10
63.2750070000000022
 20
-0.040005
 10
70.0749930000000063
 20
-0.040005
 10
70.0749930000000063
 20
-3.0399989999999999
 10
69.5749940000000038
 20
-3.0399989999999999
 10
69.5749940000000038
 20
-2.6400000000000001
 10
69.1749949999999956
 20
-2.6400000000000001
  0
LWPOLYLINE
  5
C4
100
AcDbEntity
  8
PG_SILKSCREEN_TOP
 62
256
370
-1
 48
1.0
  6
BYLAYER
100
AcDbPolyline
 90
3
 70
0
 10
65.024991
 20
-3.939997
 42
0.999989
 10
64.5250170000000054
 20
-3.939997
 42
1.000011
 10
65.024991
 20
-3.939997
  0
LWPOLYLINE
  5
C5
100
AcDbEntity
  8
PIN_TOP
 62
256
370
-1
 48
1.0
  6
BYLAYER
100
AcDbPolyline
 90
4
 70
1
 10
78.6000080000000025
 20
-25.690017000000001
 10
77.100010999999995
 20
-25.690017000000001
 10
77.100010999999995
 20
-25.0900180000000006
 10
78.6000080000000025
 20
-25.0900180000000006
  0
LWPOLYLINE
  5
C6
100
AcDbEntity
  8
PIN_TOP
 62
256
370
-1
 48
1.0
  6
BYLAYER
100
AcDbPolyline
 90
4
 70
1
 10
78.6000080000000025
 20
-24.4400070000000014
 10
77.100010999999995
 20
-24.4400070000000014
 10
77.100010999999995
 20
-23.840008000000001
 10
78.6000080000000025
 20
-23.840008000000001
  0
LWPOLYLINE
  5
C7
100
AcDbEntity
  8
PIN_TOP
 62
256
370
-1
 48
1.0
  6
BYLAYER
100
AcDbPolyline
 90
4
 70
1
 10
81.8000140000000044
 20
-28.8400110000000005
 10
79.2000189999999975
 20
-28.8400110000000005
 10
79.2000189999999975
 20
-26.9400149999999989
 10
81.8000140000000044
 20
-26.9400149999999989
  0
LWPOLYLINE
  5
C8
100
AcDbEntity
  8
PIN_TOP
 62
256
370
-1
 48
1.0
  6
BYLAYER
100
AcDbPolyline
 90
4
 70
1
 10
81.8000140000000044
 20
-22.5900110000000005
 10
79.2000189999999975
 20
-22.5900110000000005
 10
79.2000189999999975
 20
-20.6900149999999989
 10
81.8000140000000044
 20
-20.6900149999999989
  0
LWPOLYLINE
  5
C9
100
AcDbEntity
  8
PG_SILKSCREEN_TOP
 62
256
370
-1
 48
1.0
  6
BYLAYER
100
AcDbPolyline
 90
5
 70
0
 10
79.0000200000000063
 20
-28.5150049999999986
 10
78.750007999999994
 20
-28.5150049999999986
 10
78.750007999999994
 20
-27.7650189999999988
 10
78.0000220000000013
 20
-27.7650189999999988
 10
78.0000220000000013
 20
-26.0150100000000002
  0
LWPOLYLINE
  5
CA
100
AcDbEntity
  8
PG_SILKSCREEN_TOP
 62
256
370
-1
 48
1.0
  6
BYLAYER
100
AcDbPolyline
 90
5
 70
0
 10
78.0000220000000013
 20
-23.5150149999999982
 10
78.0000220000000013
 20
-21.7650059999999996
 10
78.750007999999994
 20
-21.7650059999999996
 10
78.750007999999994
 20
-21.0150199999999998
 10
79.0000200000000063
 20
-21.0150199999999998
  0
LWPOLYLINE
  5
CB
100
AcDbEntity
  8
PG_SILKSCREEN_TOP
 62
256
370
-1
 48
1.0
  6
BYLAYER
100
AcDbPolyline
 90
2
 70
0
 10
81.7500270000000029
 20
-26.7650210000000008
 10
81.7500270000000029
 20
-22.7650040000000011
  0
CIRCLE
  5
CC
100
AcDbEntity
  8
PIN_TOP
 62
256
370
-1
 48
1.0
  6
BYLAYER
100
AcDbCircle
 10
79.8829999999999956
 20
-43.1799999999999997
 30
0.0
 40
0.508
  0
CIRCLE
  5
CD
100
AcDbEntity
  8
PIN_TOP
 62
256
370
-1
 48
1.0
  6
BYLAYER
100
AcDbCircle
 10
77.7240000000000038
 20
-6.4770000000000003
 30
0.0
 40
0.508
  0
CIRCLE
  5
CE
100
AcDbEntity
  8
PIN_TOP
 62
256
370
-1
 48
1.0
  6
BYLAYER
100
AcDbCircle
 10
3.8100000000000001
 20
-6.3499999999999996
 30
0.0
 40
0.508
  0
CIRCLE
  5
CF
100
AcDbEntity
  8
PIN_TOP
 62
256
370
-1
 48
1.0
  6
BYLAYER
100
AcDbCircle
 10
0.899998
 20
-2.4999950000000002
 30
0.0
 40
0.399999
  0
CIRCLE
  5
D0
100
AcDbEntity
  8
PIN_TOP
 62
256
370
-1
 48
1.0
  6
BYLAYER
100
AcDbCircle
 10
1.349985
 20
-1.349985
 30
0.0
 40
0.399999
  0
CIRCLE
  5
D1
100
AcDbEntity
  8
PIN_TOP
 62
256
370
-1
 48
1.0
  6
BYLAYER
100
AcDbCircle
 10
2.4999950000000002
 20
-0.899998
 30
0.0
 40
0.399999
  0
CIRCLE
  5
D2
100
AcDbEntity
  8
PIN_TOP
 62
256
370
-1
 48
1.0
  6
BYLAYER
100
AcDbCircle
 10
3.6500050000000002
 20
-1.349985
 30
0.0
 40
0.399999
  0
CIRCLE
  5
D3
100
AcDbEntity
  8
PIN_TOP
 62
256
370
-1
 48
1.0
  6
BYLAYER
100
AcDbCircle
 10
4.0999920000000003
 20
-2.4999950000000002
 30
0.0
 40
0.399999
  0
CIRCLE
  5
D4
100
AcDbEntity
  8
PIN_TOP
 62
256
370
-1
 48
1.0
  6
BYLAYER
100
AcDbCircle
 10
1.349985
 20
-3.6500050000000002
 30
0.0
 40
0.399999
  0
CIRCLE
  5
D5
100
AcDbEntity
  8
PIN_TOP
 62
256
370
-1
 48
1.0
  6
BYLAYER
100
AcDbCircle
 10
2.4999950000000002
 20
-4.0999920000000003
 30
0.0
 40
0.399999
  0
CIRCLE
  5
D6
100
AcDbEntity
  8
PIN_TOP
 62
256
370
-1
 48
1.0
  6
BYLAYER
100
AcDbCircle
 10
2.4999950000000002
 20
-2.4999950000000002
 30
0.0
 40
1.9999960000000001
  0
CIRCLE
  5
D7
100
AcDbEntity
  8
PIN_TOP
 62
256
370
-1
 48
1.0
  6
BYLAYER
100
AcDbCircle
 10
3.6500050000000002
 20
-3.6500050000000002
 30
0.0
 40
0.399999
  0
CIRCLE
  5
D8
100
AcDbEntity
  8
PIN_TOP
 62
256
370
-1
 48
1.0
  6
BYLAYER
100
AcDbCircle
 10
77.899996999999999
 20
-2.4999950000000002
 30
0.0
 40
0.399999
  0
CIRCLE
  5
D9
100
AcDbEntity
  8
PIN_TOP
 62
256
370
-1
 48
1.0
  6
BYLAYER
100
AcDbCircle
 10
78.3499829999999946
 20
-1.349985
 30
0.0
 40
0.399999
  0
CIRCLE
  5
DA
100
AcDbEntity
  8
PIN_TOP
 62
256
370
-1
 48
1.0
  6
BYLAYER
100
AcDbCircle
 10
79.4999930000000035
 20
-0.899998
 30
0.0
 40
0.399999
  0
CIRCLE
  5
DB
100
AcDbEntity
  8
PIN_TOP
 62
256
370
-1
 48
1.0
  6
BYLAYER
100
AcDbCircle
 10
80.6500039999999956
 20
-1.349985
 30
0.0
 40
0.399999
  0
CIRCLE
  5
DC
100
AcDbEntity
  8
PIN_TOP
 62
256
370
-1
 48
1.0
  6
BYLAYER
100
AcDbCircle
 10
81.0999900000000054
 20
-2.4999950000000002
 30
0.0
 40
0.399999
  0
CIRCLE
  5
DD
100
AcDbEntity
  8
PIN_TOP
 62
256
370
-1
 48
1.0
  6
BYLAYER
100
AcDbCircle
 10
78.3499829999999946
 20
-3.6500050000000002
 30
0.0
 40
0.399999
  0
CIRCLE
  5
DE
100
AcDbEntity
  8
PIN_TOP
 62
256
370
-1
 48
1.0
  6
BYLAYER
100
AcDbCircle
 10
79.4999930000000035
 20
-4.0999920000000003
 30
0.0
 40
0.399999
  0
CIRCLE
  5
DF
100
AcDbEntity
  8
PIN_TOP
 62
256
370
-1
 48
1.0
  6
BYLAYER
100
AcDbCircle
 10
79.4999930000000035
 20
-2.4999950000000002
 30
0.0
 40
1.9999960000000001
  0
CIRCLE
  5
E0
100
AcDbEntity
  8
PIN_TOP
 62
256
370
-1
 48
1.0
  6
BYLAYER
100
AcDbCircle
 10
80.6500039999999956
 20
-3.6500050000000002
 30
0.0
 40
0.399999
  0
CIRCLE
  5
E1
100
AcDbEntity
  8
PIN_TOP
 62
256
370
-1
 48
1.0
  6
BYLAYER
100
AcDbCircle
 10
63.8999990000000011
 20
-48.0000059999999991
 30
0.0
 40
0.399999
  0
CIRCLE
  5
E2
100
AcDbEntity
  8
PIN_TOP
 62
256
370
-1
 48
1.0
  6
BYLAYER
100
AcDbCircle
 10
64.3499860000000012
 20
-46.8499949999999998
 30
0.0
 40
0.399999
  0
CIRCLE
  5
E3
100
AcDbEntity
  8
PIN_TOP
 62
256
370
-1
 48
1.0
  6
BYLAYER
100
AcDbCircle
 10
65.4999959999999959
 20
-46.4000089999999972
 30
0.0
 40
0.399999
  0
CIRCLE
  5
E4
100
AcDbEntity
  8
PIN_TOP
 62
256
370
-1
 48
1.0
  6
BYLAYER
100
AcDbCircle
 10
66.6500060000000047
 20
-46.8499949999999998
 30
0.0
 40
0.399999
  0
CIRCLE
  5
E5
100
AcDbEntity
  8
PIN_TOP
 62
256
370
-1
 48
1.0
  6
BYLAYER
100
AcDbCircle
 10
67.0999929999999978
 20
-48.0000059999999991
 30
0.0
 40
0.399999
  0
CIRCLE
  5
E6
100
AcDbEntity
  8
PIN_TOP
 62
256
370
-1
 48
1.0
  6
BYLAYER
100
AcDbCircle
 10
64.3499860000000012
 20
-49.1500160000000008
 30
0.0
 40
0.399999
  0
CIRCLE
  5
E7
100
AcDbEntity
  8
PIN_TOP
 62
256
370
-1
 48
1.0
  6
BYLAYER
100
AcDbCircle
 10
65.4999959999999959
 20
-49.6000020000000035
 30
0.0
 40
0.399999
  0
CIRCLE
  5
E8
100
AcDbEntity
  8
PIN_TOP
 62
256
370
-1
 48
1.0
  6
BYLAYER
100
AcDbCircle
 10
65.4999959999999959
 20
-48.0000059999999991
 30
0.0
 40
1.9999960000000001
  0
CIRCLE
  5
E9
100
AcDbEntity
  8
PIN_TOP
 62
256
370
-1
 48
1.0
  6
BYLAYER
100
AcDbCircle
 10
66.6500060000000047
 20
-49.1500160000000008
 30
0.0
 40
0.399999
  0
CIRCLE
  5
EA
100
AcDbEntity
  8
PIN_TOP
 62
256
370
-1
 48
1.0
  6
BYLAYER
100
AcDbCircle
 10
14.8999959999999998
 20
-48.0000059999999991
 30
0.0
 40
0.399999
  0
CIRCLE
  5
EB
100
AcDbEntity
  8
PIN_TOP
 62
256
370
-1
 48
1.0
  6
BYLAYER
100
AcDbCircle
 10
15.3499820000000007
 20
-46.8499949999999998
 30
0.0
 40
0.399999
  0
CIRCLE
  5
EC
100
AcDbEntity
  8
PIN_TOP
 62
256
370
-1
 48
1.0
  6
BYLAYER
100
AcDbCircle
 10
16.4999919999999989
 20
-46.4000089999999972
 30
0.0
 40
0.399999
  0
CIRCLE
  5
ED
100
AcDbEntity
  8
PIN_TOP
 62
256
370
-1
 48
1.0
  6
BYLAYER
100
AcDbCircle
 10
17.6500030000000017
 20
-46.8499949999999998
 30
0.0
 40
0.399999
  0
CIRCLE
  5
EE
100
AcDbEntity
  8
PIN_TOP
 62
256
370
-1
 48
1.0
  6
BYLAYER
100
AcDbCircle
 10
18.0999890000000008
 20
-48.0000059999999991
 30
0.0
 40
0.399999
  0
CIRCLE
  5
EF
100
AcDbEntity
  8
PIN_TOP
 62
256
370
-1
 48
1.0
  6
BYLAYER
100
AcDbCircle
 10
15.3499820000000007
 20
-49.1500160000000008
 30
0.0
 40
0.399999
  0
CIRCLE
  5
F0
100
AcDbEntity
  8
PIN_TOP
 62
256
370
-1
 48
1.0
  6
BYLAYER
100
AcDbCircle
 10
16.4999919999999989
 20
-49.6000020000000035
 30
0.0
 40
0.399999
  0
CIRCLE
  5
F1
100
AcDbEntity
  8
PIN_TOP
 62
256
370
-1
 48
1.0
  6
BYLAYER
100
AcDbCircle
 10
16.4999919999999989
 20
-48.0000059999999991
 30
0.0
 40
1.9999960000000001
  0
CIRCLE
  5
F2
100
AcDbEntity
  8
PIN_TOP
 62
256
370
-1
 48
1.0
  6
BYLAYER
100
AcDbCircle
 10
17.6500030000000017
 20
-49.1500160000000008
 30
0.0
 40
0.399999
  0
CIRCLE
  5
F3
100
AcDbEntity
  8
PIN_TOP
 62
256
370
-1
 48
1.0
  6
BYLAYER
100
AcDbCircle
 10
1.524
 20
-22.3449899999999992
 30
0.0
 40
0.449999
  0
CIRCLE
  5
F4
100
AcDbEntity
  8
PIN_TOP
 62
256
370
-1
 48
1.0
  6
BYLAYER
100
AcDbCircle
 10
1.524
 20
-24.6450099999999992
 30
0.0
 40
0.449999
  0
LWPOLYLINE
  5
F5
100
AcDbEntity
  8
PIN_TOP
 62
256
370
-1
 48
1.0
  6
BYLAYER
100
AcDbPolyline
 90
4
 70
1
 10
3.49899
 20
-26.4450070000000004
 10
1.998993
 20
-26.4450070000000004
 10
1.998993
 20
-25.0450100000000013
 10
3.49899
 20
-25.0450100000000013
  0
LWPOLYLINE
  5
F6
100
AcDbEntity
  8
PIN_TOP
 62
256
370
-1
 48
1.0
  6
BYLAYER
100
AcDbPolyline
 90
4
 70
1
 10
3.49899
 20
-21.9449900000000007
 10
1.998993
 20
-21.9449900000000007
 10
1.998993
 20
-20.5449930000000016
 10
3.49899
 20
-20.5449930000000016
  0
LWPOLYLINE
  5
F7
100
AcDbEntity
  8
PIN_TOP
 62
256
370
-1
 48
1.0
  6
BYLAYER
100
AcDbPolyline
 90
4
 70
1
 10
1.8239989999999999
 20
-25.5949959999999983
 10
1.8239989999999999
 20
-28.39499
 10
0.024003
 20
-28.39499
 10
0.024003
 20
-25.5949959999999983
  0
LWPOLYLINE
  5
F8
100
AcDbEntity
  8
PIN_TOP
 62
256
370
-1
 48
1.0
  6
BYLAYER
100
AcDbPolyline
 90
4
 70
1
 10
0.024003
 20
-21.3950040000000001
 10
0.024003
 20
-18.5950099999999985
 10
1.8239989999999999
 20
-18.5950099999999985
 10
1.8239989999999999
 20
-21.3950040000000001
  0
LWPOLYLINE
  5
F9
100
AcDbEntity
  8
PG_SILKSCREEN_TOP
 62
256
370
-1
 48
1.0
  6
BYLAYER
100
AcDbPolyline
 90
2
 70
0
 10
3.023997
 20
-19.9950070000000011
 10
3.023997
 20
-26.9949930000000009
  0
LWPOLYLINE
  5
FA
100
AcDbEntity
  8
PG_SILKSCREEN_TOP
 62
256
370
-1
 48
1.0
  6
BYLAYER
100
AcDbPolyline
 90
2
 70
0
 10
3.023997
 20
-26.9949930000000009
 10
1.2240009999999999
 20
-26.9949930000000009
  0
LWPOLYLINE
  5
FB
100
AcDbEntity
  8
PG_SILKSCREEN_TOP
 62
256
370
-1
 48
1.0
  6
BYLAYER
100
AcDbPolyline
 90
2
 70
0
 10
0.524002
 20
-26.6249910000000014
 10
0.224003
 20
-26.6249910000000014
  0
LWPOLYLINE
  5
FC
100
AcDbEntity
  8
PG_SILKSCREEN_TOP
 62
256
370
-1
 48
1.0
  6
BYLAYER
100
AcDbPolyline
 90
2
 70
0
 10
0.224003
 20
-26.6249910000000014
 10
0.224003
 20
-25.9649980000000014
  0
LWPOLYLINE
  5
FD
100
AcDbEntity
  8
PG_SILKSCREEN_TOP
 62
256
370
-1
 48
1.0
  6
BYLAYER
100
AcDbPolyline
 90
2
 70
0
 10
0.524002
 20
-25.6450080000000007
 10
0.524002
 20
-21.3449920000000013
  0
LWPOLYLINE
  5
FE
100
AcDbEntity
  8
PG_SILKSCREEN_TOP
 62
256
370
-1
 48
1.0
  6
BYLAYER
100
AcDbPolyline
 90
2
 70
0
 10
0.524002
 20
-25.105004000000001
 10
-0.486004
 20
-25.105004000000001
  0
LWPOLYLINE
  5
FF
100
AcDbEntity
  8
PG_SILKSCREEN_TOP
 62
256
370
-1
 48
1.0
  6
BYLAYER
100
AcDbPolyline
 90
2
 70
0
 10
-0.486004
 20
-25.105004000000001
 10
-0.486004
 20
-21.884996000000001
  0
LWPOLYLINE
  5
100
100
AcDbEntity
  8
PG_SILKSCREEN_TOP
 62
256
370
-1
 48
1.0
  6
BYLAYER
100
AcDbPolyline
 90
2
 70
0
 10
0.224003
 20
-25.9649980000000014
 10
0.524002
 20
-25.9649980000000014
  0
LWPOLYLINE
  5
101
100
AcDbEntity
  8
PG_SILKSCREEN_TOP
 62
256
370
-1
 48
1.0
  6
BYLAYER
100
AcDbPolyline
 90
2
 70
0
 10
-0.486004
 20
-21.884996000000001
 10
0.524002
 20
-21.884996000000001
  0
LWPOLYLINE
  5
102
100
AcDbEntity
  8
PG_SILKSCREEN_TOP
 62
256
370
-1
 48
1.0
  6
BYLAYER
100
AcDbPolyline
 90
2
 70
0
 10
3.023997
 20
-19.9950070000000011
 10
1.2240009999999999
 20
-19.9950070000000011
  0
LWPOLYLINE
  5
103
100
AcDbEntity
  8
PG_SILKSCREEN_TOP
 62
256
370
-1
 48
1.0
  6
BYLAYER
100
AcDbPolyline
 90
2
 70
0
 10
0.524002
 20
-21.0650070000000014
 10
0.224003
 20
-21.0650070000000014
  0
LWPOLYLINE
  5
104
100
AcDbEntity
  8
PG_SILKSCREEN_TOP
 62
256
370
-1
 48
1.0
  6
BYLAYER
100
AcDbPolyline
 90
2
 70
0
 10
0.224003
 20
-21.0650070000000014
 10
0.224003
 20
-20.4449930000000002
  0
LWPOLYLINE
  5
105
100
AcDbEntity
  8
PG_SILKSCREEN_TOP
 62
256
370
-1
 48
1.0
  6
BYLAYER
100
AcDbPolyline
 90
2
 70
0
 10
0.224003
 20
-20.4449930000000002
 10
0.524002
 20
-20.4449930000000002
  0
CIRCLE
  5
106
100
AcDbEntity
  8
PIN_TOP
 62
256
370
-1
 48
1.0
  6
BYLAYER
100
AcDbCircle
 10
1.524
 20
-32.3779899999999969
 30
0.0
 40
0.449999
  0
CIRCLE
  5
107
100
AcDbEntity
  8
PIN_TOP
 62
256
370
-1
 48
1.0
  6
BYLAYER
100
AcDbCircle
 10
1.524
 20
-34.6780100000000004
 30
0.0
 40
0.449999
  0
LWPOLYLINE
  5
108
100
AcDbEntity
  8
PIN_TOP
 62
256
370
-1
 48
1.0
  6
BYLAYER
100
AcDbPolyline
 90
4
 70
1
 10
3.49899
 20
-36.4780069999999981
 10
1.998993
 20
-36.4780069999999981
 10
1.998993
 20
-35.078009999999999
 10
3.49899
 20
-35.078009999999999
  0
LWPOLYLINE
  5
109
100
AcDbEntity
  8
PIN_TOP
 62
256
370
-1
 48
1.0
  6
BYLAYER
100
AcDbPolyline
 90
4
 70
1
 10
3.49899
 20
-31.9779899999999984
 10
1.998993
 20
-31.9779899999999984
 10
1.998993
 20
-30.5779929999999993
 10
3.49899
 20
-30.5779929999999993
  0
LWPOLYLINE
  5
10A
100
AcDbEntity
  8
PIN_TOP
 62
256
370
-1
 48
1.0
  6
BYLAYER
100
AcDbPolyline
 90
4
 70
1
 10
1.8239989999999999
 20
-35.6279960000000031
 10
1.8239989999999999
 20
-38.4279900000000012
 10
0.024003
 20
-38.4279900000000012
 10
0.024003
 20
-35.6279960000000031
  0
LWPOLYLINE
  5
10B
100
AcDbEntity
  8
PIN_TOP
 62
256
370
-1
 48
1.0
  6
BYLAYER
100
AcDbPolyline
 90
4
 70
1
 10
0.024003
 20
-31.4280040000000014
 10
0.024003
 20
-28.6280099999999997
 10
1.8239989999999999
 20
-28.6280099999999997
 10
1.8239989999999999
 20
-31.4280040000000014
  0
LWPOLYLINE
  5
10C
100
AcDbEntity
  8
PG_SILKSCREEN_TOP
 62
256
370
-1
 48
1.0
  6
BYLAYER
100
AcDbPolyline
 90
2
 70
0
 10
3.023997
 20
-30.0280069999999988
 10
3.023997
 20
-37.0279930000000022
  0
LWPOLYLINE
  5
10D
100
AcDbEntity
  8
PG_SILKSCREEN_TOP
 62
256
370
-1
 48
1.0
  6
BYLAYER
100
AcDbPolyline
 90
2
 70
0
 10
3.023997
 20
-37.0279930000000022
 10
1.2240009999999999
 20
-37.0279930000000022
  0
LWPOLYLINE
  5
10E
100
AcDbEntity
  8
PG_SILKSCREEN_TOP
 62
256
370
-1
 48
1.0
  6
BYLAYER
100
AcDbPolyline
 90
2
 70
0
 10
0.524002
 20
-36.6579910000000027
 10
0.224003
 20
-36.6579910000000027
  0
LWPOLYLINE
  5
10F
100
AcDbEntity
  8
PG_SILKSCREEN_TOP
 62
256
370
-1
 48
1.0
  6
BYLAYER
100
AcDbPolyline
 90
2
 70
0
 10
0.224003
 20
-36.6579910000000027
 10
0.224003
 20
-35.9979980000000026
  0
LWPOLYLINE
  5
110
100
AcDbEntity
  8
PG_SILKSCREEN_TOP
 62
256
370
-1
 48
1.0
  6
BYLAYER
100
AcDbPolyline
 90
2
 70
0
 10
0.524002
 20
-35.6780079999999984
 10
0.524002
 20
-31.377991999999999
  0
LWPOLYLINE
  5
111
100
AcDbEntity
  8
PG_SILKSCREEN_TOP
 62
256
370
-1
 48
1.0
  6
BYLAYER
100
AcDbPolyline
 90
2
 70
0
 10
0.524002
 20
-35.1380040000000022
 10
-0.486004
 20
-35.1380040000000022
  0
LWPOLYLINE
  5
112
100
AcDbEntity
  8
PG_SILKSCREEN_TOP
 62
256
370
-1
 48
1.0
  6
BYLAYER
100
AcDbPolyline
 90
2
 70
0
 10
-0.486004
 20
-35.1380040000000022
 10
-0.486004
 20
-31.9179959999999987
  0
LWPOLYLINE
  5
113
100
AcDbEntity
  8
PG_SILKSCREEN_TOP
 62
256
370
-1
 48
1.0
  6
BYLAYER
100
AcDbPolyline
 90
2
 70
0
 10
0.224003
 20
-35.9979980000000026
 10
0.524002
 20
-35.9979980000000026
  0
LWPOLYLINE
  5
114
100
AcDbEntity
  8
PG_SILKSCREEN_TOP
 62
256
370
-1
 48
1.0
  6
BYLAYER
100
AcDbPolyline
 90
2
 70
0
 10
-0.486004
 20
-31.9179959999999987
 10
0.524002
 20
-31.9179959999999987
  0
LWPOLYLINE
  5
115
100
AcDbEntity
  8
PG_SILKSCREEN_TOP
 62
256
370
-1
 48
1.0
  6
BYLAYER
100
AcDbPolyline
 90
2
 70
0
 10
3.023997
 20
-30.0280069999999988
 10
1.2240009999999999
 20
-30.0280069999999988
  0
LWPOLYLINE
  5
116
100
AcDbEntity
  8
PG_SILKSCREEN_TOP
 62
256
370
-1
 48
1.0
  6
BYLAYER
100
AcDbPolyline
 90
2
 70
0
 10
0.524002
 20
-31.0980069999999991
 10
0.224003
 20
-31.0980069999999991
  0
LWPOLYLINE
  5
117
100
AcDbEntity
  8
PG_SILKSCREEN_TOP
 62
256
370
-1
 48
1.0
  6
BYLAYER
100
AcDbPolyline
 90
2
 70
0
 10
0.224003
 20
-31.0980069999999991
 10
0.224003
 20
-30.4779930000000014
  0
LWPOLYLINE
  5
118
100
AcDbEntity
  8
PG_SILKSCREEN_TOP
 62
256
370
-1
 48
1.0
  6
BYLAYER
100
AcDbPolyline
 90
2
 70
0
 10
0.224003
 20
-30.4779930000000014
 10
0.524002
 20
-30.4779930000000014
  0
CIRCLE
  5
119
100
AcDbEntity
  8
PIN_TOP
 62
256
370
-1
 48
1.0
  6
BYLAYER
100
AcDbCircle
 10
1.524
 20
-12.3119899999999998
 30
0.0
 40
0.449999
  0
CIRCLE
  5
11A
100
AcDbEntity
  8
PIN_TOP
 62
256
370
-1
 48
1.0
  6
BYLAYER
100
AcDbCircle
 10
1.524
 20
-14.6120099999999997
 30
0.0
 40
0.449999
  0
LWPOLYLINE
  5
11B
100
AcDbEntity
  8
PIN_TOP
 62
256
370
-1
 48
1.0
  6
BYLAYER
100
AcDbPolyline
 90
4
 70
1
 10
3.49899
 20
-16.4120069999999991
 10
1.998993
 20
-16.4120069999999991
 10
1.998993
 20
-15.0120100000000001
 10
3.49899
 20
-15.0120100000000001
  0
LWPOLYLINE
  5
11C
100
AcDbEntity
  8
PIN_TOP
 62
256
370
-1
 48
1.0
  6
BYLAYER
100
AcDbPolyline
 90
4
 70
1
 10
3.49899
 20
-11.9119899999999994
 10
1.998993
 20
-11.9119899999999994
 10
1.998993
 20
-10.5119930000000004
 10
3.49899
 20
-10.5119930000000004
  0
LWPOLYLINE
  5
11D
100
AcDbEntity
  8
PIN_TOP
 62
256
370
-1
 48
1.0
  6
BYLAYER
100
AcDbPolyline
 90
4
 70
1
 10
1.8239989999999999
 20
-15.5619960000000006
 10
1.8239989999999999
 20
-18.3619899999999987
 10
0.024003
 20
-18.3619899999999987
 10
0.024003
 20
-15.5619960000000006
  0
LWPOLYLINE
  5
11E
100
AcDbEntity
  8
PIN_TOP
 62
256
370
-1
 48
1.0
  6
BYLAYER
100
AcDbPolyline
 90
4
 70
1
 10
0.024003
 20
-11.3620040000000007
 10
0.024003
 20
-8.5620100000000008
 10
1.8239989999999999
 20
-8.5620100000000008
 10
1.8239989999999999
 20
-11.3620040000000007
  0
LWPOLYLINE
  5
11F
100
AcDbEntity
  8
PG_SILKSCREEN_TOP
 62
256
370
-1
 48
1.0
  6
BYLAYER
100
AcDbPolyline
 90
2
 70
0
 10
3.023997
 20
-9.9620069999999998
 10
3.023997
 20
-16.9619929999999997
  0
LWPOLYLINE
  5
120
100
AcDbEntity
  8
PG_SILKSCREEN_TOP
 62
256
370
-1
 48
1.0
  6
BYLAYER
100
AcDbPolyline
 90
2
 70
0
 10
3.023997
 20
-16.9619929999999997
 10
1.2240009999999999
 20
-16.9619929999999997
  0
LWPOLYLINE
  5
121
100
AcDbEntity
  8
PG_SILKSCREEN_TOP
 62
256
370
-1
 48
1.0
  6
BYLAYER
100
AcDbPolyline
 90
2
 70
0
 10
0.524002
 20
-16.5919910000000002
 10
0.224003
 20
-16.5919910000000002
  0
LWPOLYLINE
  5
122
100
AcDbEntity
  8
PG_SILKSCREEN_TOP
 62
256
370
-1
 48
1.0
  6
BYLAYER
100
AcDbPolyline
 90
2
 70
0
 10
0.224003
 20
-16.5919910000000002
 10
0.224003
 20
-15.9319980000000001
  0
LWPOLYLINE
  5
123
100
AcDbEntity
  8
PG_SILKSCREEN_TOP
 62
256
370
-1
 48
1.0
  6
BYLAYER
100
AcDbPolyline
 90
2
 70
0
 10
0.524002
 20
-15.6120079999999994
 10
0.524002
 20
-11.311992
  0
LWPOLYLINE
  5
124
100
AcDbEntity
  8
PG_SILKSCREEN_TOP
 62
256
370
-1
 48
1.0
  6
BYLAYER
100
AcDbPolyline
 90
2
 70
0
 10
0.524002
 20
-15.0720039999999997
 10
-0.486004
 20
-15.0720039999999997
  0
LWPOLYLINE
  5
125
100
AcDbEntity
  8
PG_SILKSCREEN_TOP
 62
256
370
-1
 48
1.0
  6
BYLAYER
100
AcDbPolyline
 90
2
 70
0
 10
-0.486004
 20
-15.0720039999999997
 10
-0.486004
 20
-11.8519959999999998
  0
LWPOLYLINE
  5
126
100
AcDbEntity
  8
PG_SILKSCREEN_TOP
 62
256
370
-1
 48
1.0
  6
BYLAYER
100
AcDbPolyline
 90
2
 70
0
 10
0.224003
 20
-15.9319980000000001
 10
0.524002
 20
-15.9319980000000001
  0
LWPOLYLINE
  5
127
100
AcDbEntity
  8
PG_SILKSCREEN_TOP
 62
256
370
-1
 48
1.0
  6
BYLAYER
100
AcDbPolyline
 90
2
 70
0
 10
-0.486004
 20
-11.8519959999999998
 10
0.524002
 20
-11.8519959999999998
  0
LWPOLYLINE
  5
128
100
AcDbEntity
  8
PG_SILKSCREEN_TOP
 62
256
370
-1
 48
1.0
  6
BYLAYER
100
AcDbPolyline
 90
2
 70
0
 10
3.023997
 20
-9.9620069999999998
 10
1.2240009999999999
 20
-9.9620069999999998
  0
LWPOLYLINE
  5
129
100
AcDbEntity
  8
PG_SILKSCREEN_TOP
 62
256
370
-1
 48
1.0
  6
BYLAYER
100
AcDbPolyline
 90
2
 70
0
 10
0.524002
 20
-11.0320070000000001
 10
0.224003
 20
-11.0320070000000001
  0
LWPOLYLINE
  5
12A
100
AcDbEntity
  8
PG_SILKSCREEN_TOP
 62
256
370
-1
 48
1.0
  6
BYLAYER
100
AcDbPolyline
 90
2
 70
0
 10
0.224003
 20
-11.0320070000000001
 10
0.224003
 20
-10.4119930000000007
  0
LWPOLYLINE
  5
12B
100
AcDbEntity
  8
PG_SILKSCREEN_TOP
 62
256
370
-1
 48
1.0
  6
BYLAYER
100
AcDbPolyline
 90
2
 70
0
 10
0.224003
 20
-10.4119930000000007
 10
0.524002
 20
-10.4119930000000007
  0
LWPOLYLINE
  5
12C
100
AcDbEntity
  8
PIN_TOP
 62
256
370
-1
 48
1.0
  6
BYLAYER
100
AcDbPolyline
 90
4
 70
1
 10
70.5499989999999997
 20
-48.0000059999999991
 10
70.5499989999999997
 20
-45.2000110000000035
 10
72.049995999999993
 20
-45.2000110000000035
 10
72.049995999999993
 20
-48.0000059999999991
  0
LWPOLYLINE
  5
12D
100
AcDbEntity
  8
PIN_TOP
 62
256
370
-1
 48
1.0
  6
BYLAYER
100
AcDbPolyline
 90
4
 70
1
 10
73.0499939999999981
 20
-48.0000059999999991
 10
73.0499939999999981
 20
-45.2000110000000035
 10
74.5499910000000057
 20
-45.2000110000000035
 10
74.5499910000000057
 20
-48.0000059999999991
  0
LWPOLYLINE
  5
12E
100
AcDbEntity
  8
PIN_TOP
 62
256
370
-1
 48
1.0
  6
BYLAYER
100
AcDbPolyline
 90
4
 70
1
 10
75.049989999999994
 20
-48.0000059999999991
 10
75.049989999999994
 20
-45.2000110000000035
 10
76.5499870000000016
 20
-45.2000110000000035
 10
76.5499870000000016
 20
-48.0000059999999991
  0
LWPOLYLINE
  5
12F
100
AcDbEntity
  8
PIN_TOP
 62
256
370
-1
 48
1.0
  6
BYLAYER
100
AcDbPolyline
 90
4
 70
1
 10
77.5499850000000066
 20
-48.0000059999999991
 10
77.5499850000000066
 20
-45.2000110000000035
 10
79.049982
 20
-45.2000110000000035
 10
79.049982
 20
-48.0000059999999991
  0
LWPOLYLINE
  5
130
100
AcDbEntity
  8
PIN_TOP
 62
256
370
-1
 48
1.0
  6
BYLAYER
100
AcDbPolyline
 90
4
 70
1
 10
69.100001000000006
 20
-48.4500170000000026
 10
69.100001000000006
 20
-49.4500150000000005
 42
-1.0
 10
67.6000039999999984
 20
-49.4500150000000005
 10
67.6000039999999984
 20
-48.4500170000000026
 42
-1.0
  0
LWPOLYLINE
  5
131
100
AcDbEntity
  8
PIN_TOP
 62
256
370
-1
 48
1.0
  6
BYLAYER
100
AcDbPolyline
 90
4
 70
1
 10
82.0000009999999975
 20
-48.4500170000000026
 10
82.0000009999999975
 20
-49.4500150000000005
 42
-1.0
 10
80.5000040000000041
 20
-49.4500150000000005
 10
80.5000040000000041
 20
-48.4500170000000026
 42
-1.0
  0
LWPOLYLINE
  5
132
100
AcDbEntity
  8
PIN_TOP
 62
256
370
-1
 48
1.0
  6
BYLAYER
100
AcDbPolyline
 90
4
 70
1
 10
69.100001000000006
 20
-54.4500049999999973
 10
69.100001000000006
 20
-55.4500030000000024
 42
-1.0
 10
67.6000039999999984
 20
-55.4500030000000024
 10
67.6000039999999984
 20
-54.4500049999999973
 42
-1.0
  0
LWPOLYLINE
  5
133
100
AcDbEntity
  8
PIN_TOP
 62
256
370
-1
 48
1.0
  6
BYLAYER
100
AcDbPolyline
 90
4
 70
1
 10
82.0000009999999975
 20
-54.4500049999999973
 10
82.0000009999999975
 20
-55.4500030000000024
 42
-1.0
 10
80.5000040000000041
 20
-55.4500030000000024
 10
80.5000040000000041
 20
-54.4500049999999973
 42
-1.0
  0
LWPOLYLINE
  5
134
100
AcDbEntity
  8
PG_SILKSCREEN_TOP
 62
256
370
-1
 48
1.0
  6
BYLAYER
100
AcDbPolyline
 90
2
 70
0
 10
67.9300139999999999
 20
-57.4000119999999967
 10
67.5349930000000001
 20
-57.4000119999999967
  0
LWPOLYLINE
  5
135
100
AcDbEntity
  8
PG_SILKSCREEN_TOP
 62
256
370
-1
 48
1.0
  6
BYLAYER
100
AcDbPolyline
 90
2
 70
0
 10
67.5349930000000001
 20
-57.4000119999999967
 10
67.5349930000000001
 20
-57.6000119999999995
  0
LWPOLYLINE
  5
136
100
AcDbEntity
  8
PG_SILKSCREEN_TOP
 62
256
370
-1
 48
1.0
  6
BYLAYER
100
AcDbPolyline
 90
4
 70
0
 10
67.5349930000000001
 20
-57.6000119999999995
 10
67.9300139999999999
 20
-57.6000119999999995
 42
0.162405
 10
68.2349920000000054
 20
-57.4499989999999983
 42
-0.612753
 10
68.8699919999999963
 20
-57.4499989999999983
  0
LWPOLYLINE
  5
137
100
AcDbEntity
  8
PG_SILKSCREEN_TOP
 62
256
370
-1
 48
1.0
  6
BYLAYER
100
AcDbPolyline
 90
2
 70
0
 10
68.8699919999999963
 20
-57.4499989999999983
 10
68.8699919999999963
 20
-57.6000119999999995
  0
LWPOLYLINE
  5
138
100
AcDbEntity
  8
PG_SILKSCREEN_TOP
 62
256
370
-1
 48
1.0
  6
BYLAYER
100
AcDbPolyline
 90
2
 70
0
 10
68.8699919999999963
 20
-57.6000119999999995
 10
80.7500040000000041
 20
-57.6000119999999995
  0
LWPOLYLINE
  5
139
100
AcDbEntity
  8
PG_SILKSCREEN_TOP
 62
256
370
-1
 48
1.0
  6
BYLAYER
100
AcDbPolyline
 90
3
 70
0
 10
68.2349920000000054
 20
-47.6000060000000005
 10
68.2349920000000054
 20
-57.100012999999997
 42
-0.423769
 10
67.9300139999999999
 20
-57.4000119999999967
  0
LWPOLYLINE
  5
13A
100
AcDbEntity
  8
PG_SILKSCREEN_TOP
 62
256
370
-1
 48
1.0
  6
BYLAYER
100
AcDbPolyline
 90
2
 70
0
 10
81.385003999999995
 20
-47.6000060000000005
 10
68.2349920000000054
 20
-47.6000060000000005
  0
LWPOLYLINE
  5
13B
100
AcDbEntity
  8
PG_SILKSCREEN_TOP
 62
256
370
-1
 48
1.0
  6
BYLAYER
100
AcDbPolyline
 90
4
 70
0
 10
80.7500040000000041
 20
-57.6000119999999995
 10
80.7500040000000041
 20
-57.4499989999999983
 42
-0.612753
 10
81.385003999999995
 20
-57.4499989999999983
 42
0.162416
 10
81.6900069999999943
 20
-57.6000119999999995
  0
LWPOLYLINE
  5
13C
100
AcDbEntity
  8
PG_SILKSCREEN_TOP
 62
256
370
-1
 48
1.0
  6
BYLAYER
100
AcDbPolyline
 90
3
 70
0
 10
82.0850020000000029
 20
-57.4000119999999967
 10
81.6900069999999943
 20
-57.4000119999999967
 42
-0.245633
 10
81.385003999999995
 20
-57.100012999999997
  0
LWPOLYLINE
  5
13D
100
AcDbEntity
  8
PG_SILKSCREEN_TOP
 62
256
370
-1
 48
1.0
  6
BYLAYER
100
AcDbPolyline
 90
2
 70
0
 10
81.385003999999995
 20
-57.100012999999997
 10
81.385003999999995
 20
-47.6000060000000005
  0
LWPOLYLINE
  5
13E
100
AcDbEntity
  8
PG_SILKSCREEN_TOP
 62
256
370
-1
 48
1.0
  6
BYLAYER
100
AcDbPolyline
 90
2
 70
0
 10
81.6900069999999943
 20
-57.6000119999999995
 10
82.0850020000000029
 20
-57.6000119999999995
  0
LWPOLYLINE
  5
13F
100
AcDbEntity
  8
PG_SILKSCREEN_TOP
 62
256
370
-1
 48
1.0
  6
BYLAYER
100
AcDbPolyline
 90
2
 70
0
 10
82.0850020000000029
 20
-57.6000119999999995
 10
82.0850020000000029
 20
-57.4000119999999967
  0
LWPOLYLINE
  5
140
100
AcDbEntity
  8
PIN_TOP
 62
256
370
-1
 48
1.0
  6
BYLAYER
100
AcDbPolyline
 90
4
 70
1
 10
2.9500069999999998
 20
-48.0000059999999991
 10
2.9500069999999998
 20
-45.2000110000000035
 10
4.4500039999999998
 20
-45.2000110000000035
 10
4.4500039999999998
 20
-48.0000059999999991
  0
LWPOLYLINE
  5
141
100
AcDbEntity
  8
PIN_TOP
 62
256
370
-1
 48
1.0
  6
BYLAYER
100
AcDbPolyline
 90
4
 70
1
 10
5.4500019999999996
 20
-48.0000059999999991
 10
5.4500019999999996
 20
-45.2000110000000035
 10
6.949999
 20
-45.2000110000000035
 10
6.949999
 20
-48.0000059999999991
  0
LWPOLYLINE
  5
142
100
AcDbEntity
  8
PIN_TOP
 62
256
370
-1
 48
1.0
  6
BYLAYER
100
AcDbPolyline
 90
4
 70
1
 10
7.4499979999999999
 20
-48.0000059999999991
 10
7.4499979999999999
 20
-45.2000110000000035
 10
8.9499949999999995
 20
-45.2000110000000035
 10
8.9499949999999995
 20
-48.0000059999999991
  0
LWPOLYLINE
  5
143
100
AcDbEntity
  8
PIN_TOP
 62
256
370
-1
 48
1.0
  6
BYLAYER
100
AcDbPolyline
 90
4
 70
1
 10
9.9499929999999992
 20
-48.0000059999999991
 10
9.9499929999999992
 20
-45.2000110000000035
 10
11.4499899999999997
 20
-45.2000110000000035
 10
11.4499899999999997
 20
-48.0000059999999991
  0
LWPOLYLINE
  5
144
100
AcDbEntity
  8
PIN_TOP
 62
256
370
-1
 48
1.0
  6
BYLAYER
100
AcDbPolyline
 90
4
 70
1
 10
1.5000100000000001
 20
-48.4500170000000026
 10
1.5000100000000001
 20
-49.4500150000000005
 42
-1.0
 10
0.000013
 20
-49.4500150000000005
 10
0.000013
 20
-48.4500170000000026
 42
-1.0
  0
LWPOLYLINE
  5
145
100
AcDbEntity
  8
PIN_TOP
 62
256
370
-1
 48
1.0
  6
BYLAYER
100
AcDbPolyline
 90
4
 70
1
 10
14.4000090000000007
 20
-48.4500170000000026
 10
14.4000090000000007
 20
-49.4500150000000005
 42
-1.0
 10
12.9000120000000003
 20
-49.4500150000000005
 10
12.9000120000000003
 20
-48.4500170000000026
 42
-1.0
  0
LWPOLYLINE
  5
146
100
AcDbEntity
  8
PIN_TOP
 62
256
370
-1
 48
1.0
  6
BYLAYER
100
AcDbPolyline
 90
4
 70
1
 10
1.5000100000000001
 20
-54.4500049999999973
 10
1.5000100000000001
 20
-55.4500030000000024
 42
-1.0
 10
0.000013
 20
-55.4500030000000024
 10
0.000013
 20
-54.4500049999999973
 42
-1.0
  0
LWPOLYLINE
  5
147
100
AcDbEntity
  8
PIN_TOP
 62
256
370
-1
 48
1.0
  6
BYLAYER
100
AcDbPolyline
 90
4
 70
1
 10
14.4000090000000007
 20
-54.4500049999999973
 10
14.4000090000000007
 20
-55.4500030000000024
 42
-1.0
 10
12.9000120000000003
 20
-55.4500030000000024
 10
12.9000120000000003
 20
-54.4500049999999973
 42
-1.0
  0
LWPOLYLINE
  5
148
100
AcDbEntity
  8
PG_SILKSCREEN_TOP
 62
256
370
-1
 48
1.0
  6
BYLAYER
100
AcDbPolyline
 90
2
 70
0
 10
0.330022
 20
-57.4000119999999967
 10
-0.064999
 20
-57.4000119999999967
  0
LWPOLYLINE
  5
149
100
AcDbEntity
  8
PG_SILKSCREEN_TOP
 62
256
370
-1
 48
1.0
  6
BYLAYER
100
AcDbPolyline
 90
2
 70
0
 10
-0.064999
 20
-57.4000119999999967
 10
-0.064999
 20
-57.6000119999999995
  0
LWPOLYLINE
  5
14A
100
AcDbEntity
  8
PG_SILKSCREEN_TOP
 62
256
370
-1
 48
1.0
  6
BYLAYER
100
AcDbPolyline
 90
4
 70
0
 10
-0.064999
 20
-57.6000119999999995
 10
0.330022
 20
-57.6000119999999995
 42
0.162405
 10
0.635
 20
-57.4499989999999983
 42
-0.612753
 10
1.27
 20
-57.4499989999999983
  0
LWPOLYLINE
  5
14B
100
AcDbEntity
  8
PG_SILKSCREEN_TOP
 62
256
370
-1
 48
1.0
  6
BYLAYER
100
AcDbPolyline
 90
2
 70
0
 10
1.27
 20
-57.4499989999999983
 10
1.27
 20
-57.6000119999999995
  0
LWPOLYLINE
  5
14C
100
AcDbEntity
  8
PG_SILKSCREEN_TOP
 62
256
370
-1
 48
1.0
  6
BYLAYER
100
AcDbPolyline
 90
2
 70
0
 10
1.27
 20
-57.6000119999999995
 10
13.1500120000000003
 20
-57.6000119999999995
  0
LWPOLYLINE
  5
14D
100
AcDbEntity
  8
PG_SILKSCREEN_TOP
 62
256
370
-1
 48
1.0
  6
BYLAYER
100
AcDbPolyline
 90
3
 70
0
 10
0.635
 20
-47.6000060000000005
 10
0.635
 20
-57.100012999999997
 42
-0.423769
 10
0.330022
 20
-57.4000119999999967
  0
LWPOLYLINE
  5
14E
100
AcDbEntity
  8
PG_SILKSCREEN_TOP
 62
256
370
-1
 48
1.0
  6
BYLAYER
100
AcDbPolyline
 90
2
 70
0
 10
13.785012
 20
-47.6000060000000005
 10
0.635
 20
-47.6000060000000005
  0
LWPOLYLINE
  5
14F
100
AcDbEntity
  8
PG_SILKSCREEN_TOP
 62
256
370
-1
 48
1.0
  6
BYLAYER
100
AcDbPolyline
 90
4
 70
0
 10
13.1500120000000003
 20
-57.6000119999999995
 10
13.1500120000000003
 20
-57.4499989999999983
 42
-0.612753
 10
13.785012
 20
-57.4499989999999983
 42
0.162416
 10
14.0900149999999993
 20
-57.6000119999999995
  0
LWPOLYLINE
  5
150
100
AcDbEntity
  8
PG_SILKSCREEN_TOP
 62
256
370
-1
 48
1.0
  6
BYLAYER
100
AcDbPolyline
 90
3
 70
0
 10
14.4850100000000008
 20
-57.4000119999999967
 10
14.0900149999999993
 20
-57.4000119999999967
 42
-0.245633
 10
13.785012
 20
-57.100012999999997
  0
LWPOLYLINE
  5
151
100
AcDbEntity
  8
PG_SILKSCREEN_TOP
 62
256
370
-1
 48
1.0
  6
BYLAYER
100
AcDbPolyline
 90
2
 70
0
 10
13.785012
 20
-57.100012999999997
 10
13.785012
 20
-47.6000060000000005
  0
LWPOLYLINE
  5
152
100
AcDbEntity
  8
PG_SILKSCREEN_TOP
 62
256
370
-1
 48
1.0
  6
BYLAYER
100
AcDbPolyline
 90
2
 70
0
 10
14.0900149999999993
 20
-57.6000119999999995
 10
14.4850100000000008
 20
-57.6000119999999995
  0
LWPOLYLINE
  5
153
100
AcDbEntity
  8
PG_SILKSCREEN_TOP
 62
256
370
-1
 48
1.0
  6
BYLAYER
100
AcDbPolyline
 90
2
 70
0
 10
14.4850100000000008
 20
-57.6000119999999995
 10
14.4850100000000008
 20
-57.4000119999999967
  0
LWPOLYLINE
  5
154
100
AcDbEntity
  8
PIN_TOP
 62
256
370
-1
 48
1.0
  6
BYLAYER
100
AcDbPolyline
 90
4
 70
1
 10
6.6587880000000004
 20
-5.1811939999999996
 10
6.6587880000000004
 20
-3.758794
 10
8.0811879999999991
 20
-3.758794
 10
8.0811879999999991
 20
-5.1811939999999996
  0
CIRCLE
  5
155
100
AcDbEntity
  8
PIN_TOP
 62
256
370
-1
 48
1.0
  6
BYLAYER
100
AcDbCircle
 10
9.9099880000000002
 20
-4.4699939999999998
 30
0.0
 40
0.7112000000000001
  0
CIRCLE
  5
156
100
AcDbEntity
  8
PIN_TOP
 62
256
370
-1
 48
1.0
  6
BYLAYER
100
AcDbCircle
 10
12.4499879999999994
 20
-4.4699939999999998
 30
0.0
 40
0.7112000000000001
  0
CIRCLE
  5
157
100
AcDbEntity
  8
PIN_TOP
 62
256
370
-1
 48
1.0
  6
BYLAYER
100
AcDbCircle
 10
14.9899880000000003
 20
-4.4699939999999998
 30
0.0
 40
0.7112000000000001
  0
CIRCLE
  5
158
100
AcDbEntity
  8
PIN_TOP
 62
256
370
-1
 48
1.0
  6
BYLAYER
100
AcDbCircle
 10
17.5299879999999995
 20
-4.4699939999999998
 30
0.0
 40
0.7112000000000001
  0
CIRCLE
  5
159
100
AcDbEntity
  8
PIN_TOP
 62
256
370
-1
 48
1.0
  6
BYLAYER
100
AcDbCircle
 10
20.0699879999999986
 20
-4.4699939999999998
 30
0.0
 40
0.7112000000000001
  0
CIRCLE
  5
15A
100
AcDbEntity
  8
PIN_TOP
 62
256
370
-1
 48
1.0
  6
BYLAYER
100
AcDbCircle
 10
22.6099880000000013
 20
-4.4699939999999998
 30
0.0
 40
0.7112000000000001
  0
CIRCLE
  5
15B
100
AcDbEntity
  8
PIN_TOP
 62
256
370
-1
 48
1.0
  6
BYLAYER
100
AcDbCircle
 10
25.1499880000000005
 20
-4.4699939999999998
 30
0.0
 40
0.7112000000000001
  0
CIRCLE
  5
15C
100
AcDbEntity
  8
PIN_TOP
 62
256
370
-1
 48
1.0
  6
BYLAYER
100
AcDbCircle
 10
27.6899879999999996
 20
-4.4699939999999998
 30
0.0
 40
0.7112000000000001
  0
CIRCLE
  5
15D
100
AcDbEntity
  8
PIN_TOP
 62
256
370
-1
 48
1.0
  6
BYLAYER
100
AcDbCircle
 10
30.2299879999999987
 20
-4.4699939999999998
 30
0.0
 40
0.7112000000000001
  0
CIRCLE
  5
15E
100
AcDbEntity
  8
PIN_TOP
 62
256
370
-1
 48
1.0
  6
BYLAYER
100
AcDbCircle
 10
32.7699879999999979
 20
-4.4699939999999998
 30
0.0
 40
0.7112000000000001
  0
CIRCLE
  5
15F
100
AcDbEntity
  8
PIN_TOP
 62
256
370
-1
 48
1.0
  6
BYLAYER
100
AcDbCircle
 10
35.309987999999997
 20
-4.4699939999999998
 30
0.0
 40
0.7112000000000001
  0
CIRCLE
  5
160
100
AcDbEntity
  8
PIN_TOP
 62
256
370
-1
 48
1.0
  6
BYLAYER
100
AcDbCircle
 10
37.8499880000000033
 20
-4.4699939999999998
 30
0.0
 40
0.7112000000000001
  0
CIRCLE
  5
161
100
AcDbEntity
  8
PIN_TOP
 62
256
370
-1
 48
1.0
  6
BYLAYER
100
AcDbCircle
 10
40.3899880000000024
 20
-4.4699939999999998
 30
0.0
 40
0.7112000000000001
  0
CIRCLE
  5
162
100
AcDbEntity
  8
PIN_TOP
 62
256
370
-1
 48
1.0
  6
BYLAYER
100
AcDbCircle
 10
42.9299880000000016
 20
-4.4699939999999998
 30
0.0
 40
0.7112000000000001
  0
CIRCLE
  5
163
100
AcDbEntity
  8
PIN_TOP
 62
256
370
-1
 48
1.0
  6
BYLAYER
100
AcDbCircle
 10
45.4699880000000007
 20
-4.4699939999999998
 30
0.0
 40
0.7112000000000001
  0
CIRCLE
  5
164
100
AcDbEntity
  8
PIN_TOP
 62
256
370
-1
 48
1.0
  6
BYLAYER
100
AcDbCircle
 10
48.0099879999999999
 20
-4.4699939999999998
 30
0.0
 40
0.7112000000000001
  0
CIRCLE
  5
165
100
AcDbEntity
  8
PIN_TOP
 62
256
370
-1
 48
1.0
  6
BYLAYER
100
AcDbCircle
 10
50.549987999999999
 20
-4.4699939999999998
 30
0.0
 40
0.7112000000000001
  0
CIRCLE
  5
166
100
AcDbEntity
  8
PIN_TOP
 62
256
370
-1
 48
1.0
  6
BYLAYER
100
AcDbCircle
 10
53.0899879999999982
 20
-4.4699939999999998
 30
0.0
 40
0.7112000000000001
  0
CIRCLE
  5
167
100
AcDbEntity
  8
PIN_TOP
 62
256
370
-1
 48
1.0
  6
BYLAYER
100
AcDbCircle
 10
55.6299879999999973
 20
-4.4699939999999998
 30
0.0
 40
0.7112000000000001
  0
CIRCLE
  5
168
100
AcDbEntity
  8
PIN_TOP
 62
256
370
-1
 48
1.0
  6
BYLAYER
100
AcDbCircle
 10
7.3699880000000002
 20
-1.929994
 30
0.0
 40
0.7112000000000001
  0
CIRCLE
  5
169
100
AcDbEntity
  8
PIN_TOP
 62
256
370
-1
 48
1.0
  6
BYLAYER
100
AcDbCircle
 10
9.9099880000000002
 20
-1.929994
 30
0.0
 40
0.7112000000000001
  0
CIRCLE
  5
16A
100
AcDbEntity
  8
PIN_TOP
 62
256
370
-1
 48
1.0
  6
BYLAYER
100
AcDbCircle
 10
12.4499879999999994
 20
-1.929994
 30
0.0
 40
0.7112000000000001
  0
CIRCLE
  5
16B
100
AcDbEntity
  8
PIN_TOP
 62
256
370
-1
 48
1.0
  6
BYLAYER
100
AcDbCircle
 10
14.9899880000000003
 20
-1.929994
 30
0.0
 40
0.7112000000000001
  0
CIRCLE
  5
16C
100
AcDbEntity
  8
PIN_TOP
 62
256
370
-1
 48
1.0
  6
BYLAYER
100
AcDbCircle
 10
17.5299879999999995
 20
-1.929994
 30
0.0
 40
0.7112000000000001
  0
CIRCLE
  5
16D
100
AcDbEntity
  8
PIN_TOP
 62
256
370
-1
 48
1.0
  6
BYLAYER
100
AcDbCircle
 10
20.0699879999999986
 20
-1.929994
 30
0.0
 40
0.7112000000000001
  0
CIRCLE
  5
16E
100
AcDbEntity
  8
PIN_TOP
 62
256
370
-1
 48
1.0
  6
BYLAYER
100
AcDbCircle
 10
22.6099880000000013
 20
-1.929994
 30
0.0
 40
0.7112000000000001
  0
CIRCLE
  5
16F
100
AcDbEntity
  8
PIN_TOP
 62
256
370
-1
 48
1.0
  6
BYLAYER
100
AcDbCircle
 10
25.1499880000000005
 20
-1.929994
 30
0.0
 40
0.7112000000000001
  0
CIRCLE
  5
170
100
AcDbEntity
  8
PIN_TOP
 62
256
370
-1
 48
1.0
  6
BYLAYER
100
AcDbCircle
 10
27.6899879999999996
 20
-1.929994
 30
0.0
 40
0.7112000000000001
  0
CIRCLE
  5
171
100
AcDbEntity
  8
PIN_TOP
 62
256
370
-1
 48
1.0
  6
BYLAYER
100
AcDbCircle
 10
30.2299879999999987
 20
-1.929994
 30
0.0
 40
0.7112000000000001
  0
CIRCLE
  5
172
100
AcDbEntity
  8
PIN_TOP
 62
256
370
-1
 48
1.0
  6
BYLAYER
100
AcDbCircle
 10
32.7699879999999979
 20
-1.929994
 30
0.0
 40
0.7112000000000001
  0
CIRCLE
  5
173
100
AcDbEntity
  8
PIN_TOP
 62
256
370
-1
 48
1.0
  6
BYLAYER
100
AcDbCircle
 10
35.309987999999997
 20
-1.929994
 30
0.0
 40
0.7112000000000001
  0
CIRCLE
  5
174
100
AcDbEntity
  8
PIN_TOP
 62
256
370
-1
 48
1.0
  6
BYLAYER
100
AcDbCircle
 10
37.8499880000000033
 20
-1.929994
 30
0.0
 40
0.7112000000000001
  0
CIRCLE
  5
175
100
AcDbEntity
  8
PIN_TOP
 62
256
370
-1
 48
1.0
  6
BYLAYER
100
AcDbCircle
 10
40.3899880000000024
 20
-1.929994
 30
0.0
 40
0.7112000000000001
  0
CIRCLE
  5
176
100
AcDbEntity
  8
PIN_TOP
 62
256
370
-1
 48
1.0
  6
BYLAYER
100
AcDbCircle
 10
42.9299880000000016
 20
-1.929994
 30
0.0
 40
0.7112000000000001
  0
CIRCLE
  5
177
100
AcDbEntity
  8
PIN_TOP
 62
256
370
-1
 48
1.0
  6
BYLAYER
100
AcDbCircle
 10
45.4699880000000007
 20
-1.929994
 30
0.0
 40
0.7112000000000001
  0
CIRCLE
  5
178
100
AcDbEntity
  8
PIN_TOP
 62
256
370
-1
 48
1.0
  6
BYLAYER
100
AcDbCircle
 10
48.0099879999999999
 20
-1.929994
 30
0.0
 40
0.7112000000000001
  0
CIRCLE
  5
179
100
AcDbEntity
  8
PIN_TOP
 62
256
370
-1
 48
1.0
  6
BYLAYER
100
AcDbCircle
 10
50.549987999999999
 20
-1.929994
 30
0.0
 40
0.7112000000000001
  0
CIRCLE
  5
17A
100
AcDbEntity
  8
PIN_TOP
 62
256
370
-1
 48
1.0
  6
BYLAYER
100
AcDbCircle
 10
53.0899879999999982
 20
-1.929994
 30
0.0
 40
0.7112000000000001
  0
CIRCLE
  5
17B
100
AcDbEntity
  8
PIN_TOP
 62
256
370
-1
 48
1.0
  6
BYLAYER
100
AcDbCircle
 10
55.6299879999999973
 20
-1.929994
 30
0.0
 40
0.7112000000000001
  0
LWPOLYLINE
  5
17C
100
AcDbEntity
  8
PG_SILKSCREEN_TOP
 62
256
370
-1
 48
1.0
  6
BYLAYER
100
AcDbPolyline
 90
5
 70
0
 10
6.0999879999999997
 20
-5.7399940000000003
 10
56.8999880000000005
 20
-5.7399940000000003
 10
56.8999880000000005
 20
-0.659994
 10
6.0999879999999997
 20
-0.659994
 10
6.0999879999999997
 20
-5.7399940000000003
  0
TEXT
  5
17D
100
AcDbEntity
  8
PG_SILKSCREEN_TOP
 62
256
370
-1
 48
1.0
  6
BYLAYER
100
AcDbText
 10
4.8768000000000002
 20
-1.524
 30
0.0
 40
0.762
  1
21
 50
0.0
 41
1.0
  7
textstyle5
 71
0
 72
0
 11
4.8768000000000002
 21
-1.524
 31
0.0
100
AcDbText
 73
0
  0
TEXT
  5
17E
100
AcDbEntity
  8
PG_SILKSCREEN_TOP
 62
256
370
-1
 48
1.0
  6
BYLAYER
100
AcDbText
 10
57.0737999999999985
 20
-4.8259999999999996
 30
0.0
 40
0.762
  1
20
 50
0.0
 41
1.0
  7
textstyle4
 71
0
 72
0
 11
57.0737999999999985
 21
-4.8259999999999996
 31
0.0
100
AcDbText
 73
0
  0
TEXT
  5
17F
100
AcDbEntity
  8
PG_SILKSCREEN_TOP
 62
256
370
-1
 48
1.0
  6
BYLAYER
100
AcDbText
 10
57.200800000000001
 20
-1.778
 30
0.0
 40
0.762
  1
40
 50
0.0
 41
1.0
  7
textstyle6
 71
0
 72
0
 11
57.200800000000001
 21
-1.778
 31
0.0
100
AcDbText
 73
0
  0
LWPOLYLINE
  5
180
100
AcDbEntity
  8
PIN_TOP
 62
256
370
-1
 48
1.0
  6
BYLAYER
100
AcDbPolyline
 90
4
 70
1
 10
19.9799959999999999
 20
-54.1999929999999992
 10
19.9799959999999999
 20
-55.5999899999999982
 42
-1.0
 10
18.3799990000000015
 20
-55.5999899999999982
 10
18.3799990000000015
 20
-54.1999929999999992
 42
-1.0
  0
LWPOLYLINE
  5
181
100
AcDbEntity
  8
PIN_TOP
 62
256
370
-1
 48
1.0
  6
BYLAYER
100
AcDbPolyline
 90
4
 70
1
 10
28.6200089999999996
 20
-54.1999929999999992
 10
28.6200089999999996
 20
-55.5999899999999982
 42
-1.0
 10
27.0200120000000013
 20
-55.5999899999999982
 10
27.0200120000000013
 20
-54.1999929999999992
 42
-1.0
  0
CIRCLE
  5
182
100
AcDbEntity
  8
PIN_TOP
 62
256
370
-1
 48
1.0
  6
BYLAYER
100
AcDbCircle
 10
20.1000109999999985
 20
-51.6999980000000008
 30
0.0
 40
0.249999
  0
CIRCLE
  5
183
100
AcDbEntity
  8
PIN_TOP
 62
256
370
-1
 48
1.0
  6
BYLAYER
100
AcDbCircle
 10
26.899996999999999
 20
-51.6999980000000008
 30
0.0
 40
0.249999
  0
LWPOLYLINE
  5
184
100
AcDbEntity
  8
PIN_TOP
 62
256
370
-1
 48
1.0
  6
BYLAYER
100
AcDbPolyline
 90
4
 70
1
 10
19.7799960000000006
 20
-49.8499890000000008
 10
19.7799960000000006
 20
-50.8499869999999987
 42
-1.0
 10
18.5799979999999998
 20
-50.8499869999999987
 10
18.5799979999999998
 20
-49.8499890000000008
 42
-1.0
  0
LWPOLYLINE
  5
185
100
AcDbEntity
  8
PIN_TOP
 62
256
370
-1
 48
1.0
  6
BYLAYER
100
AcDbPolyline
 90
4
 70
1
 10
28.4200090000000003
 20
-49.8499890000000008
 10
28.4200090000000003
 20
-50.8499869999999987
 42
-1.0
 10
27.2200120000000005
 20
-50.8499869999999987
 10
27.2200120000000005
 20
-49.8499890000000008
 42
-1.0
  0
LWPOLYLINE
  5
186
100
AcDbEntity
  8
PIN_TOP
 62
256
370
-1
 48
1.0
  6
BYLAYER
100
AcDbPolyline
 90
4
 70
1
 10
19.1799970000000002
 20
-50.2499880000000019
 10
19.7799960000000006
 20
-50.2499880000000019
 42
-1.0
 10
19.7799960000000006
 20
-51.4499860000000027
 10
19.1799970000000002
 20
-51.4499860000000027
 42
-1.0
  0
LWPOLYLINE
  5
187
100
AcDbEntity
  8
PIN_TOP
 62
256
370
-1
 48
1.0
  6
BYLAYER
100
AcDbPolyline
 90
4
 70
1
 10
27.2200120000000005
 20
-50.2499880000000019
 10
27.8200099999999999
 20
-50.2499880000000019
 42
-1.0
 10
27.8200099999999999
 20
-51.4499860000000027
 10
27.2200120000000005
 20
-51.4499860000000027
 42
-1.0
  0
LWPOLYLINE
  5
188
100
AcDbEntity
  8
PIN_TOP
 62
256
370
-1
 48
1.0
  6
BYLAYER
100
AcDbPolyline
 90
4
 70
1
 10
20.7350110000000001
 20
-50.1499889999999979
 10
20.7350110000000001
 20
-49.149991
 10
21.0150199999999998
 20
-49.149991
 10
21.0150199999999998
 20
-50.1499889999999979
  0
LWPOLYLINE
  5
189
100
AcDbEntity
  8
PIN_TOP
 62
256
370
-1
 48
1.0
  6
BYLAYER
100
AcDbPolyline
 90
4
 70
1
 10
21.2350099999999991
 20
-50.1499889999999979
 10
21.2350099999999991
 20
-49.149991
 10
21.5150189999999988
 20
-49.149991
 10
21.5150189999999988
 20
-50.1499889999999979
  0
LWPOLYLINE
  5
18A
100
AcDbEntity
  8
PIN_TOP
 62
256
370
-1
 48
1.0
  6
BYLAYER
100
AcDbPolyline
 90
4
 70
1
 10
21.7350090000000016
 20
-50.1499889999999979
 10
21.7350090000000016
 20
-49.149991
 10
22.0150180000000013
 20
-49.149991
 10
22.0150180000000013
 20
-50.1499889999999979
  0
LWPOLYLINE
  5
18B
100
AcDbEntity
  8
PIN_TOP
 62
256
370
-1
 48
1.0
  6
BYLAYER
100
AcDbPolyline
 90
4
 70
1
 10
22.2350080000000005
 20
-50.1499889999999979
 10
22.2350080000000005
 20
-49.149991
 10
22.5150170000000003
 20
-49.149991
 10
22.5150170000000003
 20
-50.1499889999999979
  0
LWPOLYLINE
  5
18C
100
AcDbEntity
  8
PIN_TOP
 62
256
370
-1
 48
1.0
  6
BYLAYER
100
AcDbPolyline
 90
4
 70
1
 10
22.7350069999999995
 20
-50.1499889999999979
 10
22.7350069999999995
 20
-49.149991
 10
23.0150159999999993
 20
-49.149991
 10
23.0150159999999993
 20
-50.1499889999999979
  0
LWPOLYLINE
  5
18D
100
AcDbEntity
  8
PIN_TOP
 62
256
370
-1
 48
1.0
  6
BYLAYER
100
AcDbPolyline
 90
4
 70
1
 10
23.2350059999999985
 20
-50.1499889999999979
 10
23.2350059999999985
 20
-49.149991
 10
23.5150149999999982
 20
-49.149991
 10
23.5150149999999982
 20
-50.1499889999999979
  0
LWPOLYLINE
  5
18E
100
AcDbEntity
  8
PIN_TOP
 62
256
370
-1
 48
1.0
  6
BYLAYER
100
AcDbPolyline
 90
4
 70
1
 10
23.735005000000001
 20
-50.1499889999999979
 10
23.735005000000001
 20
-49.149991
 10
24.0150140000000007
 20
-49.149991
 10
24.0150140000000007
 20
-50.1499889999999979
  0
LWPOLYLINE
  5
18F
100
AcDbEntity
  8
PIN_TOP
 62
256
370
-1
 48
1.0
  6
BYLAYER
100
AcDbPolyline
 90
4
 70
1
 10
24.235004
 20
-50.1499889999999979
 10
24.235004
 20
-49.149991
 10
24.5150129999999997
 20
-49.149991
 10
24.5150129999999997
 20
-50.1499889999999979
  0
LWPOLYLINE
  5
190
100
AcDbEntity
  8
PIN_TOP
 62
256
370
-1
 48
1.0
  6
BYLAYER
100
AcDbPolyline
 90
4
 70
1
 10
24.735002999999999
 20
-50.1499889999999979
 10
24.735002999999999
 20
-49.149991
 10
25.0150119999999987
 20
-49.149991
 10
25.0150119999999987
 20
-50.1499889999999979
  0
LWPOLYLINE
  5
191
100
AcDbEntity
  8
PIN_TOP
 62
256
370
-1
 48
1.0
  6
BYLAYER
100
AcDbPolyline
 90
4
 70
1
 10
25.2350020000000015
 20
-50.1499889999999979
 10
25.2350020000000015
 20
-49.149991
 10
25.5150110000000012
 20
-49.149991
 10
25.5150110000000012
 20
-50.1499889999999979
  0
LWPOLYLINE
  5
192
100
AcDbEntity
  8
PIN_TOP
 62
256
370
-1
 48
1.0
  6
BYLAYER
100
AcDbPolyline
 90
4
 70
1
 10
25.7350010000000005
 20
-50.1499889999999979
 10
25.7350010000000005
 20
-49.149991
 10
26.0150100000000002
 20
-49.149991
 10
26.0150100000000002
 20
-50.1499889999999979
  0
LWPOLYLINE
  5
193
100
AcDbEntity
  8
PIN_TOP
 62
256
370
-1
 48
1.0
  6
BYLAYER
100
AcDbPolyline
 90
4
 70
1
 10
26.2349999999999994
 20
-50.1499889999999979
 10
26.2349999999999994
 20
-49.149991
 10
26.5150089999999992
 20
-49.149991
 10
26.5150089999999992
 20
-50.1499889999999979
  0
LWPOLYLINE
  5
194
100
AcDbEntity
  8
PIN_TOP
 62
256
370
-1
 48
1.0
  6
BYLAYER
100
AcDbPolyline
 90
4
 70
1
 10
20.4849980000000009
 20
-51.4999990000000025
 10
20.4849980000000009
 20
-50.5000009999999975
 10
20.7650080000000017
 20
-50.5000009999999975
 10
20.7650080000000017
 20
-51.4999990000000025
  0
LWPOLYLINE
  5
195
100
AcDbEntity
  8
PIN_TOP
 62
256
370
-1
 48
1.0
  6
BYLAYER
100
AcDbPolyline
 90
4
 70
1
 10
20.9849969999999999
 20
-51.4999990000000025
 10
20.9849969999999999
 20
-50.5000009999999975
 10
21.2650070000000007
 20
-50.5000009999999975
 10
21.2650070000000007
 20
-51.4999990000000025
  0
LWPOLYLINE
  5
196
100
AcDbEntity
  8
PIN_TOP
 62
256
370
-1
 48
1.0
  6
BYLAYER
100
AcDbPolyline
 90
4
 70
1
 10
21.4849959999999989
 20
-51.4999990000000025
 10
21.4849959999999989
 20
-50.5000009999999975
 10
21.7650059999999996
 20
-50.5000009999999975
 10
21.7650059999999996
 20
-51.4999990000000025
  0
LWPOLYLINE
  5
197
100
AcDbEntity
  8
PIN_TOP
 62
256
370
-1
 48
1.0
  6
BYLAYER
100
AcDbPolyline
 90
4
 70
1
 10
21.9849950000000014
 20
-51.4999990000000025
 10
21.9849950000000014
 20
-50.5000009999999975
 10
22.2650049999999986
 20
-50.5000009999999975
 10
22.2650049999999986
 20
-51.4999990000000025
  0
LWPOLYLINE
  5
198
100
AcDbEntity
  8
PIN_TOP
 62
256
370
-1
 48
1.0
  6
BYLAYER
100
AcDbPolyline
 90
4
 70
1
 10
22.4849940000000004
 20
-51.4999990000000025
 10
22.4849940000000004
 20
-50.5000009999999975
 10
22.7650040000000011
 20
-50.5000009999999975
 10
22.7650040000000011
 20
-51.4999990000000025
  0
LWPOLYLINE
  5
199
100
AcDbEntity
  8
PIN_TOP
 62
256
370
-1
 48
1.0
  6
BYLAYER
100
AcDbPolyline
 90
4
 70
1
 10
22.9849929999999993
 20
-51.4999990000000025
 10
22.9849929999999993
 20
-50.5000009999999975
 10
23.2650030000000001
 20
-50.5000009999999975
 10
23.2650030000000001
 20
-51.4999990000000025
  0
LWPOLYLINE
  5
19A
100
AcDbEntity
  8
PIN_TOP
 62
256
370
-1
 48
1.0
  6
BYLAYER
100
AcDbPolyline
 90
4
 70
1
 10
23.4849919999999983
 20
-51.4999990000000025
 10
23.4849919999999983
 20
-50.5000009999999975
 10
23.7650019999999991
 20
-50.5000009999999975
 10
23.7650019999999991
 20
-51.4999990000000025
  0
LWPOLYLINE
  5
19B
100
AcDbEntity
  8
PIN_TOP
 62
256
370
-1
 48
1.0
  6
BYLAYER
100
AcDbPolyline
 90
4
 70
1
 10
23.9849910000000008
 20
-51.4999990000000025
 10
23.9849910000000008
 20
-50.5000009999999975
 10
24.2650010000000016
 20
-50.5000009999999975
 10
24.2650010000000016
 20
-51.4999990000000025
  0
LWPOLYLINE
  5
19C
100
AcDbEntity
  8
PIN_TOP
 62
256
370
-1
 48
1.0
  6
BYLAYER
100
AcDbPolyline
 90
4
 70
1
 10
24.4849899999999998
 20
-51.4999990000000025
 10
24.4849899999999998
 20
-50.5000009999999975
 10
24.7650000000000006
 20
-50.5000009999999975
 10
24.7650000000000006
 20
-51.4999990000000025
  0
LWPOLYLINE
  5
19D
100
AcDbEntity
  8
PIN_TOP
 62
256
370
-1
 48
1.0
  6
BYLAYER
100
AcDbPolyline
 90
4
 70
1
 10
24.9849889999999988
 20
-51.4999990000000025
 10
24.9849889999999988
 20
-50.5000009999999975
 10
25.2649989999999995
 20
-50.5000009999999975
 10
25.2649989999999995
 20
-51.4999990000000025
  0
LWPOLYLINE
  5
19E
100
AcDbEntity
  8
PIN_TOP
 62
256
370
-1
 48
1.0
  6
BYLAYER
100
AcDbPolyline
 90
4
 70
1
 10
25.4849880000000013
 20
-51.4999990000000025
 10
25.4849880000000013
 20
-50.5000009999999975
 10
25.7649979999999985
 20
-50.5000009999999975
 10
25.7649979999999985
 20
-51.4999990000000025
  0
LWPOLYLINE
  5
19F
100
AcDbEntity
  8
PIN_TOP
 62
256
370
-1
 48
1.0
  6
BYLAYER
100
AcDbPolyline
 90
4
 70
1
 10
25.9849870000000003
 20
-51.4999990000000025
 10
25.9849870000000003
 20
-50.5000009999999975
 10
26.264997000000001
 20
-50.5000009999999975
 10
26.264997000000001
 20
-51.4999990000000025
  0
LWPOLYLINE
  5
1A0
100
AcDbEntity
  8
PG_SILKSCREEN_TOP
 62
256
370
-1
 48
1.0
  6
BYLAYER
100
AcDbPolyline
 90
2
 70
0
 10
20.0000110000000006
 20
-49.6499900000000025
 10
20.5000099999999996
 20
-49.6499900000000025
  0
LWPOLYLINE
  5
1A1
100
AcDbEntity
  8
PG_SILKSCREEN_TOP
 62
256
370
-1
 48
1.0
  6
BYLAYER
100
AcDbPolyline
 90
2
 70
0
 10
19.0000129999999992
 20
-51.6499859999999984
 10
19.0000129999999992
 20
-53.1499829999999989
  0
LWPOLYLINE
  5
1A2
100
AcDbEntity
  8
PG_SILKSCREEN_TOP
 62
256
370
-1
 48
1.0
  6
BYLAYER
100
AcDbPolyline
 90
4
 70
0
 10
19.0000129999999992
 20
-56.6500010000000032
 10
19.0000129999999992
 20
-57.6499990000000011
 10
27.9999949999999984
 20
-57.6499990000000011
 10
27.9999949999999984
 20
-56.6500010000000032
  0
LWPOLYLINE
  5
1A3
100
AcDbEntity
  8
PG_SILKSCREEN_TOP
 62
256
370
-1
 48
1.0
  6
BYLAYER
100
AcDbPolyline
 90
2
 70
0
 10
27.9999949999999984
 20
-51.6499859999999984
 10
27.9999949999999984
 20
-53.1499829999999989
  0
LWPOLYLINE
  5
1A4
100
AcDbEntity
  8
PG_SILKSCREEN_TOP
 62
256
370
-1
 48
1.0
  6
BYLAYER
100
AcDbPolyline
 90
2
 70
0
 10
26.9999970000000005
 20
-49.6499900000000025
 10
26.7500099999999996
 20
-49.6499900000000025
  0
TEXT
  5
1A5
100
AcDbEntity
  8
PG_SILKSCREEN_TOP
 62
256
370
-1
 48
1.0
  6
BYLAYER
100
AcDbText
 10
21.1327999999999996
 20
-48.259999999999998
 30
0.0
 40
0.762
  1
A1
 50
0.0
 41
1.0
  7
textstyle1
 71
0
 72
0
 11
21.1327999999999996
 21
-48.259999999999998
 31
0.0
100
AcDbText
 73
0
  0
TEXT
  5
1A6
100
AcDbEntity
  8
PG_SILKSCREEN_TOP
 62
256
370
-1
 48
1.0
  6
BYLAYER
100
AcDbText
 10
25.5015999999999998
 20
-48.259999999999998
 30
0.0
 40
0.762
  1
A12
 50
0.0
 41
1.0
  7
textstyle0
 71
0
 72
0
 11
25.5015999999999998
 21
-48.259999999999998
 31
0.0
100
AcDbText
 73
0
  0
TEXT
  5
1A7
100
AcDbEntity
  8
PG_SILKSCREEN_TOP
 62
256
370
-1
 48
1.0
  6
BYLAYER
100
AcDbText
 10
20.5486000000000004
 20
-52.578000000000003
 30
0.0
 40
0.762
  1
B12
 50
0.0
 41
1.0
  7
textstyle3
 71
0
 72
0
 11
20.5486000000000004
 21
-52.578000000000003
 31
0.0
100
AcDbText
 73
0
  0
TEXT
  5
1A8
100
AcDbEntity
  8
PG_SILKSCREEN_TOP
 62
256
370
-1
 48
1.0
  6
BYLAYER
100
AcDbText
 10
25.450800000000001
 20
-52.7049999999999983
 30
0.0
 40
0.762
  1
B1
 50
0.0
 41
1.0
  7
textstyle2
 71
0
 72
0
 11
25.450800000000001
 21
-52.7049999999999983
 31
0.0
100
AcDbText
 73
0
  0
LWPOLYLINE
  5
1A9
100
AcDbEntity
  8
PIN_TOP
 62
256
370
-1
 48
1.0
  6
BYLAYER
100
AcDbPolyline
 90
4
 70
1
 10
55.8475010000000012
 20
-41.9921059999999997
 10
55.8475010000000012
 20
-40.2921090000000035
 42
-1.0
 10
56.547499000000002
 20
-40.2921090000000035
 10
56.547499000000002
 20
-41.9921059999999997
 42
-1.0
  0
LWPOLYLINE
  5
1AA
100
AcDbEntity
  8
PIN_TOP
 62
256
370
-1
 48
1.0
  6
BYLAYER
100
AcDbPolyline
 90
4
 70
1
 10
54.577500999999998
 20
-41.9921059999999997
 10
54.577500999999998
 20
-40.2921090000000035
 42
-1.0
 10
55.2774989999999988
 20
-40.2921090000000035
 10
55.2774989999999988
 20
-41.9921059999999997
 42
-1.0
  0
LWPOLYLINE
  5
1AB
100
AcDbEntity
  8
PIN_TOP
 62
256
370
-1
 48
1.0
  6
BYLAYER
100
AcDbPolyline
 90
4
 70
1
 10
53.307501000000002
 20
-41.9921059999999997
 10
53.307501000000002
 20
-40.2921090000000035
 42
-1.0
 10
54.0074990000000028
 20
-40.2921090000000035
 10
54.0074990000000028
 20
-41.9921059999999997
 42
-1.0
  0
LWPOLYLINE
  5
1AC
100
AcDbEntity
  8
PIN_TOP
 62
256
370
-1
 48
1.0
  6
BYLAYER
100
AcDbPolyline
 90
4
 70
1
 10
52.0375009999999989
 20
-41.9921059999999997
 10
52.0375009999999989
 20
-40.2921090000000035
 42
-1.0
 10
52.7374989999999997
 20
-40.2921090000000035
 10
52.7374989999999997
 20
-41.9921059999999997
 42
-1.0
  0
LWPOLYLINE
  5
1AD
100
AcDbEntity
  8
PIN_TOP
 62
256
370
-1
 48
1.0
  6
BYLAYER
100
AcDbPolyline
 90
4
 70
1
 10
50.7675010000000029
 20
-41.9921059999999997
 10
50.7675010000000029
 20
-40.2921090000000035
 42
-1.0
 10
51.4674989999999966
 20
-40.2921090000000035
 10
51.4674989999999966
 20
-41.9921059999999997
 42
-1.0
  0
LWPOLYLINE
  5
1AE
100
AcDbEntity
  8
PIN_TOP
 62
256
370
-1
 48
1.0
  6
BYLAYER
100
AcDbPolyline
 90
4
 70
1
 10
49.4975009999999997
 20
-41.9921059999999997
 10
49.4975009999999997
 20
-40.2921090000000035
 42
-1.0
 10
50.1974990000000005
 20
-40.2921090000000035
 10
50.1974990000000005
 20
-41.9921059999999997
 42
-1.0
  0
LWPOLYLINE
  5
1AF
100
AcDbEntity
  8
PIN_TOP
 62
256
370
-1
 48
1.0
  6
BYLAYER
100
AcDbPolyline
 90
4
 70
1
 10
48.2275009999999966
 20
-41.9921059999999997
 10
48.2275009999999966
 20
-40.2921090000000035
 42
-1.0
 10
48.9274989999999974
 20
-40.2921090000000035
 10
48.9274989999999974
 20
-41.9921059999999997
 42
-1.0
  0
LWPOLYLINE
  5
1B0
100
AcDbEntity
  8
PIN_TOP
 62
256
370
-1
 48
1.0
  6
BYLAYER
100
AcDbPolyline
 90
4
 70
1
 10
46.9575010000000006
 20
-41.9921059999999997
 10
46.9575010000000006
 20
-40.2921090000000035
 42
-1.0
 10
47.6574990000000014
 20
-40.2921090000000035
 10
47.6574990000000014
 20
-41.9921059999999997
 42
-1.0
  0
LWPOLYLINE
  5
1B1
100
AcDbEntity
  8
PIN_TOP
 62
256
370
-1
 48
1.0
  6
BYLAYER
100
AcDbPolyline
 90
4
 70
1
 10
46.9575010000000006
 20
-33.621890999999998
 10
46.9575010000000006
 20
-31.9218940000000018
 42
-1.0
 10
47.6574990000000014
 20
-31.9218940000000018
 10
47.6574990000000014
 20
-33.621890999999998
 42
-1.0
  0
LWPOLYLINE
  5
1B2
100
AcDbEntity
  8
PIN_TOP
 62
256
370
-1
 48
1.0
  6
BYLAYER
100
AcDbPolyline
 90
4
 70
1
 10
48.2275009999999966
 20
-33.621890999999998
 10
48.2275009999999966
 20
-31.9218940000000018
 42
-1.0
 10
48.9274989999999974
 20
-31.9218940000000018
 10
48.9274989999999974
 20
-33.621890999999998
 42
-1.0
  0
LWPOLYLINE
  5
1B3
100
AcDbEntity
  8
PIN_TOP
 62
256
370
-1
 48
1.0
  6
BYLAYER
100
AcDbPolyline
 90
4
 70
1
 10
49.4975009999999997
 20
-33.621890999999998
 10
49.4975009999999997
 20
-31.9218940000000018
 42
-1.0
 10
50.1974990000000005
 20
-31.9218940000000018
 10
50.1974990000000005
 20
-33.621890999999998
 42
-1.0
  0
LWPOLYLINE
  5
1B4
100
AcDbEntity
  8
PIN_TOP
 62
256
370
-1
 48
1.0
  6
BYLAYER
100
AcDbPolyline
 90
4
 70
1
 10
50.7675010000000029
 20
-33.621890999999998
 10
50.7675010000000029
 20
-31.9218940000000018
 42
-1.0
 10
51.4674989999999966
 20
-31.9218940000000018
 10
51.4674989999999966
 20
-33.621890999999998
 42
-1.0
  0
LWPOLYLINE
  5
1B5
100
AcDbEntity
  8
PIN_TOP
 62
256
370
-1
 48
1.0
  6
BYLAYER
100
AcDbPolyline
 90
4
 70
1
 10
52.0375009999999989
 20
-33.621890999999998
 10
52.0375009999999989
 20
-31.9218940000000018
 42
-1.0
 10
52.7374989999999997
 20
-31.9218940000000018
 10
52.7374989999999997
 20
-33.621890999999998
 42
-1.0
  0
LWPOLYLINE
  5
1B6
100
AcDbEntity
  8
PIN_TOP
 62
256
370
-1
 48
1.0
  6
BYLAYER
100
AcDbPolyline
 90
4
 70
1
 10
53.307501000000002
 20
-33.621890999999998
 10
53.307501000000002
 20
-31.9218940000000018
 42
-1.0
 10
54.0074990000000028
 20
-31.9218940000000018
 10
54.0074990000000028
 20
-33.621890999999998
 42
-1.0
  0
LWPOLYLINE
  5
1B7
100
AcDbEntity
  8
PIN_TOP
 62
256
370
-1
 48
1.0
  6
BYLAYER
100
AcDbPolyline
 90
4
 70
1
 10
54.577500999999998
 20
-33.621890999999998
 10
54.577500999999998
 20
-31.9218940000000018
 42
-1.0
 10
55.2774989999999988
 20
-31.9218940000000018
 10
55.2774989999999988
 20
-33.621890999999998
 42
-1.0
  0
LWPOLYLINE
  5
1B8
100
AcDbEntity
  8
PIN_TOP
 62
256
370
-1
 48
1.0
  6
BYLAYER
100
AcDbPolyline
 90
4
 70
1
 10
55.8475010000000012
 20
-33.621890999999998
 10
55.8475010000000012
 20
-31.9218940000000018
 42
-1.0
 10
56.547499000000002
 20
-31.9218940000000018
 10
56.547499000000002
 20
-33.621890999999998
 42
-1.0
  0
LWPOLYLINE
  5
1B9
100
AcDbEntity
  8
PG_SILKSCREEN_TOP
 62
256
370
-1
 48
1.0
  6
BYLAYER
100
AcDbPolyline
 90
3
 70
0
 10
56.5353199999999987
 20
-35.0570039999999992
 42
1.000013
 10
55.9696870000000004
 20
-35.0570039999999992
 42
0.999987
 10
56.5353199999999987
 20
-35.0570039999999992
  0
LWPOLYLINE
  5
1BA
100
AcDbEntity
  8
PIN_TOP
 62
256
370
-1
 48
1.0
  6
BYLAYER
100
AcDbPolyline
 90
4
 70
1
 10
22.0819979999999987
 20
-45.3260209999999972
 10
22.0819979999999987
 20
-43.8260239999999968
 10
22.6819969999999991
 20
-43.8260239999999968
 10
22.6819969999999991
 20
-45.3260209999999972
  0
LWPOLYLINE
  5
1BB
100
AcDbEntity
  8
PIN_TOP
 62
256
370
-1
 48
1.0
  6
BYLAYER
100
AcDbPolyline
 90
4
 70
1
 10
23.3320079999999983
 20
-45.3260209999999972
 10
23.3320079999999983
 20
-43.8260239999999968
 10
23.9320069999999987
 20
-43.8260239999999968
 10
23.9320069999999987
 20
-45.3260209999999972
  0
LWPOLYLINE
  5
1BC
100
AcDbEntity
  8
PIN_TOP
 62
256
370
-1
 48
1.0
  6
BYLAYER
100
AcDbPolyline
 90
4
 70
1
 10
24.5819930000000006
 20
-45.3260209999999972
 10
24.5819930000000006
 20
-43.8260239999999968
 10
25.181992000000001
 20
-43.8260239999999968
 10
25.181992000000001
 20
-45.3260209999999972
  0
LWPOLYLINE
  5
1BD
100
AcDbEntity
  8
PIN_TOP
 62
256
370
-1
 48
1.0
  6
BYLAYER
100
AcDbPolyline
 90
4
 70
1
 10
25.8320030000000003
 20
-45.3260209999999972
 10
25.8320030000000003
 20
-43.8260239999999968
 10
26.4320020000000007
 20
-43.8260239999999968
 10
26.4320020000000007
 20
-45.3260209999999972
  0
LWPOLYLINE
  5
1BE
100
AcDbEntity
  8
PIN_TOP
 62
256
370
-1
 48
1.0
  6
BYLAYER
100
AcDbPolyline
 90
4
 70
1
 10
18.931992000000001
 20
-48.5260140000000035
 10
18.931992000000001
 20
-45.9260189999999966
 10
20.8319879999999991
 20
-45.9260189999999966
 10
20.8319879999999991
 20
-48.5260140000000035
  0
LWPOLYLINE
  5
1BF
100
AcDbEntity
  8
PIN_TOP
 62
256
370
-1
 48
1.0
  6
BYLAYER
100
AcDbPolyline
 90
4
 70
1
 10
27.6819869999999995
 20
-48.5260140000000035
 10
27.6819869999999995
 20
-45.9260189999999966
 10
29.581983000000001
 20
-45.9260189999999966
 10
29.581983000000001
 20
-48.5260140000000035
  0
LWPOLYLINE
  5
1C0
100
AcDbEntity
  8
PG_SILKSCREEN_TOP
 62
256
370
-1
 48
1.0
  6
BYLAYER
100
AcDbPolyline
 90
5
 70
0
 10
19.2570100000000011
 20
-45.7260199999999983
 10
19.2570100000000011
 20
-45.4760080000000002
 10
20.0069960000000009
 20
-45.4760080000000002
 10
20.0069960000000009
 20
-44.7260220000000004
 10
21.7570049999999995
 20
-44.7260220000000004
  0
LWPOLYLINE
  5
1C1
100
AcDbEntity
  8
PG_SILKSCREEN_TOP
 62
256
370
-1
 48
1.0
  6
BYLAYER
100
AcDbPolyline
 90
5
 70
0
 10
26.7569949999999999
 20
-44.7260220000000004
 10
28.5070039999999985
 20
-44.7260220000000004
 10
28.5070039999999985
 20
-45.4760080000000002
 10
29.2569899999999983
 20
-45.4760080000000002
 10
29.2569899999999983
 20
-45.7260199999999983
  0
LWPOLYLINE
  5
1C2
100
AcDbEntity
  8
PG_SILKSCREEN_TOP
 62
256
370
-1
 48
1.0
  6
BYLAYER
100
AcDbPolyline
 90
2
 70
0
 10
21.0069939999999988
 20
-48.476027000000002
 10
27.5070060000000005
 20
-48.476027000000002
  0
LWPOLYLINE
  5
1C3
100
AcDbEntity
  8
PIN_TOP
 62
256
370
-1
 48
1.0
  6
BYLAYER
100
AcDbPolyline
 90
4
 70
1
 10
80.4460040000000021
 20
-38.6630669999999981
 10
80.4460040000000021
 20
-39.8630649999999989
 10
77.7959960000000024
 20
-39.8630649999999989
 10
77.7959960000000024
 20
-38.6630669999999981
  0
LWPOLYLINE
  5
1C4
100
AcDbEntity
  8
PIN_TOP
 62
256
370
-1
 48
1.0
  6
BYLAYER
100
AcDbPolyline
 90
4
 70
1
 10
80.4460040000000021
 20
-35.6628189999999989
 10
80.4460040000000021
 20
-36.8628169999999997
 10
77.7959960000000024
 20
-36.8628169999999997
 10
77.7959960000000024
 20
-35.6628189999999989
  0
LWPOLYLINE
  5
1C5
100
AcDbEntity
  8
PIN_TOP
 62
256
370
-1
 48
1.0
  6
BYLAYER
100
AcDbPolyline
 90
4
 70
1
 10
81.2460149999999999
 20
-37.3629430000000013
 10
81.2460149999999999
 20
-38.1629409999999964
 10
80.0460170000000062
 20
-38.1629409999999964
 10
80.0460170000000062
 20
-37.3629430000000013
  0
LWPOLYLINE
  5
1C6
100
AcDbEntity
  8
PIN_TOP
 62
256
370
-1
 48
1.0
  6
BYLAYER
100
AcDbPolyline
 90
4
 70
1
 10
78.0708999999999946
 20
-37.1629429999999985
 10
78.0708999999999946
 20
-38.3629409999999993
 10
76.5709039999999987
 20
-38.3629409999999993
 10
76.5709039999999987
 20
-37.1629429999999985
  0
LWPOLYLINE
  5
1C7
100
AcDbEntity
  8
PG_SILKSCREEN_TOP
 62
256
370
-1
 48
1.0
  6
BYLAYER
100
AcDbPolyline
 90
2
 70
0
 10
78.2124419999999958
 20
-37.7469400000000022
 10
78.2505419999999958
 20
-37.7469400000000022
  0
LWPOLYLINE
  5
1C8
100
AcDbEntity
  8
PG_SILKSCREEN_TOP
 62
256
370
-1
 48
1.0
  6
BYLAYER
100
AcDbPolyline
 90
2
 70
0
 10
78.5299420000000055
 20
-38.0644399999999976
 10
78.2124419999999958
 20
-37.7469400000000022
  0
LWPOLYLINE
  5
1C9
100
AcDbEntity
  8
PG_SILKSCREEN_TOP
 62
256
370
-1
 48
1.0
  6
BYLAYER
100
AcDbPolyline
 90
2
 70
0
 10
78.5299420000000055
 20
-37.4548399999999972
 10
78.5299420000000055
 20
-38.0644399999999976
  0
LWPOLYLINE
  5
1CA
100
AcDbEntity
  8
PG_SILKSCREEN_TOP
 62
256
370
-1
 48
1.0
  6
BYLAYER
100
AcDbPolyline
 90
2
 70
0
 10
78.2505419999999958
 20
-37.7342399999999998
 10
78.5299420000000055
 20
-37.4548399999999972
  0
LWPOLYLINE
  5
1CB
100
AcDbEntity
  8
PG_SILKSCREEN_TOP
 62
256
370
-1
 48
1.0
  6
BYLAYER
100
AcDbPolyline
 90
2
 70
0
 10
80.8210219999999993
 20
-36.1378500000000003
 10
80.8210219999999993
 20
-39.3880339999999975
  0
LWPOLYLINE
  5
1CC
100
AcDbEntity
  8
PG_SILKSCREEN_TOP
 62
256
370
-1
 48
1.0
  6
BYLAYER
100
AcDbPolyline
 90
2
 70
0
 10
77.1573259999999976
 20
-36.1378500000000003
 10
80.8210219999999993
 20
-36.1378500000000003
  0
LWPOLYLINE
  5
1CD
100
AcDbEntity
  8
PG_SILKSCREEN_TOP
 62
256
370
-1
 48
1.0
  6
BYLAYER
100
AcDbPolyline
 90
2
 70
0
 10
77.5947139999999962
 20
-36.7781840000000031
 10
77.1573259999999976
 20
-36.1378500000000003
  0
LWPOLYLINE
  5
1CE
100
AcDbEntity
  8
PG_SILKSCREEN_TOP
 62
256
370
-1
 48
1.0
  6
BYLAYER
100
AcDbPolyline
 90
2
 70
0
 10
77.1573259999999976
 20
-37.1985540000000015
 10
77.5947139999999962
 20
-36.7781840000000031
  0
LWPOLYLINE
  5
1CF
100
AcDbEntity
  8
PG_SILKSCREEN_TOP
 62
256
370
-1
 48
1.0
  6
BYLAYER
100
AcDbPolyline
 90
2
 70
0
 10
77.1573259999999976
 20
-38.3880359999999996
 10
77.1573259999999976
 20
-37.1985540000000015
  0
LWPOLYLINE
  5
1D0
100
AcDbEntity
  8
PG_SILKSCREEN_TOP
 62
256
370
-1
 48
1.0
  6
BYLAYER
100
AcDbPolyline
 90
2
 70
0
 10
77.6112240000000071
 20
-38.841934000000002
 10
77.1573259999999976
 20
-38.3880359999999996
  0
LWPOLYLINE
  5
1D1
100
AcDbEntity
  8
PG_SILKSCREEN_TOP
 62
256
370
-1
 48
1.0
  6
BYLAYER
100
AcDbPolyline
 90
2
 70
0
 10
77.1573259999999976
 20
-39.3880339999999975
 10
77.6112240000000071
 20
-38.841934000000002
  0
LWPOLYLINE
  5
1D2
100
AcDbEntity
  8
PG_SILKSCREEN_TOP
 62
256
370
-1
 48
1.0
  6
BYLAYER
100
AcDbPolyline
 90
2
 70
0
 10
80.8210219999999993
 20
-39.3880339999999975
 10
77.1573259999999976
 20
-39.3880339999999975
  0
LWPOLYLINE
  5
1D3
100
AcDbEntity
  8
BG_OUTLINE
 62
256
370
-1
 48
1.0
  6
BYLAYER
100
AcDbPolyline
 90
29
 70
1
 10
0.0
 20
-0.499999
 42
-0.414212
 10
0.499999
 20
0.0
 10
81.4999889999999994
 20
0.0
 42
-0.414217
 10
81.9999880000000019
 20
-0.499999
 10
81.9999880000000019
 20
-6.1999880000000003
 10
80.9999899999999968
 20
-6.1999880000000003
 42
1.0
 10
80.9999899999999968
 20
-7.7000099999999998
 10
81.9988199999999949
 20
-7.7000099999999998
 10
81.9988199999999949
 20
-36.7817399999999992
 10
81.9988199999999949
 20
-55.5341540000000009
 42
-0.39433
 10
81.4999889999999994
 20
-55.9999899999999968
 10
66.2500069999999965
 20
-55.9999899999999968
 10
66.2500069999999965
 20
-54.9999919999999989
 42
0.999989
 10
64.7500100000000032
 20
-54.9999919999999989
 10
64.7500100000000032
 20
-55.9999899999999968
 10
62.4000020000000006
 20
-55.9999899999999968
 10
62.4000020000000006
 20
-47.5000069999999965
 10
49.2000030000000024
 20
-47.5000069999999965
 10
49.2000030000000024
 20
-55.9999899999999968
 10
17.2500040000000006
 20
-55.9999899999999968
 10
17.2500040000000006
 20
-54.9999919999999989
 42
0.999989
 10
15.7500070000000001
 20
-54.9999919999999989
 10
15.7500070000000001
 20
-55.9999899999999968
 10
0.499999
 20
-55.9999899999999968
 42
-0.414216
 10
0.0
 20
-55.4999910000000014
 10
0.0
 20
-7.7000099999999998
 10
0.9999980000000001
 20
-7.7000099999999998
 42
1.0
 10
0.9999980000000001
 20
-6.1999880000000003
 10
0.0
 20
-6.1999880000000003
  0
LWPOLYLINE
  5
1D4
100
AcDbEntity
  8
BG_OUTLINE
 62
256
370
-1
 48
1.0
  6
BYLAYER
100
AcDbPolyline
 90
29
 70
1
 10
0.0000059999978603
 20
-0.5000039999922024
 42
-0.414212
 10
0.5000049999978629
 20
-0.0000049999922034
 10
81.4999949999978526
 20
-0.0000049999922034
 42
-0.414217
 10
81.9999939999978551
 20
-0.5000039999922024
 10
81.9999939999978551
 20
-6.1999929999922045
 10
80.99999599999785
 20
-6.1999929999922045
 42
1.0
 10
80.99999599999785
 20
-7.7000149999922023
 10
81.9988259999978482
 20
-7.7000149999922023
 10
81.9988259999978482
 20
-36.781744999992199
 10
81.9988259999978482
 20
-55.5341589999922007
 42
-0.39433
 10
81.4999949999978526
 20
-55.9999949999921967
 10
66.250012999997864
 20
-55.9999949999921967
 10
66.250012999997864
 20
-54.9999969999922058
 42
0.999989
 10
64.7500159999978564
 20
-54.9999969999922058
 10
64.7500159999978564
 20
-55.9999949999921967
 10
62.400007999997861
 20
-55.9999949999921967
 10
62.400007999997861
 20
-47.5000119999921964
 10
49.2000089999978627
 20
-47.5000119999921964
 10
49.2000089999978627
 20
-55.9999949999921967
 10
17.2500099999978609
 20
-55.9999949999921967
 10
17.2500099999978609
 20
-54.9999969999922058
 42
0.999989
 10
15.7500129999978604
 20
-54.9999969999922058
 10
15.7500129999978604
 20
-55.9999949999921967
 10
0.5000049999978629
 20
-55.9999949999921967
 42
-0.414216
 10
0.0000059999978603
 20
-55.4999959999922083
 10
0.0000059999978603
 20
-7.7000149999922023
 10
1.0000039999978583
 20
-7.7000149999922023
 42
1.0
 10
1.0000039999978583
 20
-6.1999929999922045
 10
0.0000059999978603
 20
-6.1999929999922045
  0
LWPOLYLINE
  5
1D5
100
AcDbEntity
  8
0
 62
256
370
-1
 48
1.0
  6
BYLAYER
100
AcDbPolyline
 90
29
 70
1
 10
0.0000059999978603
 20
-0.5000039999922024
 42
-0.414212
 10
0.5000049999978629
 20
-0.0000049999922034
 10
81.4999949999978526
 20
-0.0000049999922034
 42
-0.414217
 10
81.9999939999978551
 20
-0.5000039999922024
 10
81.9999939999978551
 20
-6.1999929999922045
 10
80.99999599999785
 20
-6.1999929999922045
 42
1.0
 10
80.99999599999785
 20
-7.7000149999922023
 10
81.9988259999978482
 20
-7.7000149999922023
 10
81.9988259999978482
 20
-36.781744999992199
 10
81.9988259999978482
 20
-55.5341589999922007
 42
-0.39433
 10
81.4999949999978526
 20
-55.9999949999921967
 10
66.250012999997864
 20
-55.9999949999921967
 10
66.250012999997864
 20
-54.9999969999922058
 42
0.999989
 10
64.7500159999978564
 20
-54.9999969999922058
 10
64.7500159999978564
 20
-55.9999949999921967
 10
62.400007999997861
 20
-55.9999949999921967
 10
62.400007999997861
 20
-47.5000119999921964
 10
49.2000089999978627
 20
-47.5000119999921964
 10
49.2000089999978627
 20
-55.9999949999921967
 10
17.2500099999978609
 20
-55.9999949999921967
 10
17.2500099999978609
 20
-54.9999969999922058
 42
0.999989
 10
15.7500129999978604
 20
-54.9999969999922058
 10
15.7500129999978604
 20
-55.9999949999921967
 10
0.5000049999978629
 20
-55.9999949999921967
 42
-0.414216
 10
0.0000059999978603
 20
-55.4999959999922083
 10
0.0000059999978603
 20
-7.7000149999922023
 10
1.0000039999978583
 20
-7.7000149999922023
 42
1.0
 10
1.0000039999978583
 20
-6.1999929999922045
 10
0.0000059999978603
 20
-6.1999929999922045
  0
TEXT
  5
1D6
100
AcDbEntity
  8
PG_SILKSCREEN_TOP
 62
256
370
-1
 48
1.0
  6
BYLAYER
100
AcDbText
 10
6.2653420000000004
 20
-28.9559999999999995
 30
0.0
 40
2.032
  1
Vim V1.0
 50
90.0
 41
1.0
  7
textstyle7
 71
0
 72
0
 11
6.2653420000000004
 21
-28.9559999999999995
 31
0.0
100
AcDbText
 73
0
  0
CIRCLE
  5
1D7
100
AcDbEntity
  8
0 holes
 62
256
370
-1
 48
1.0
  6
BYLAYER
100
AcDbCircle
 10
79.4999930000000035
 20
-2.4999950000000002
 30
0.0
 40
1.0
  0
CIRCLE
  5
1D8
100
AcDbEntity
  8
0
 62
256
370
-1
 48
1.0
  6
BYLAYER
100
AcDbCircle
 10
79.4999930000000035
 20
-2.4999950000000002
 30
0.0
 40
1.0
  0
CIRCLE
  5
1D9
100
AcDbEntity
  8
0
 62
256
370
-1
 48
1.0
  6
BYLAYER
100
AcDbCircle
 10
2.4999950000000002
 20
-2.4999950000000002
 30
0.0
 40
1.0
  0
CIRCLE
  5
1DA
100
AcDbEntity
  8
0
 62
256
370
-1
 48
1.0
  6
BYLAYER
100
AcDbCircle
 10
16.4999919999999989
 20
-48.0000059999999991
 30
0.0
 40
1.0
  0
CIRCLE
  5
1DB
100
AcDbEntity
  8
0
 62
256
370
-1
 48
1.0
  6
BYLAYER
100
AcDbCircle
 10
65.4999959999999959
 20
-48.0000059999999991
 30
0.0
 40
1.0
  0
CIRCLE
  5
1DC
100
AcDbEntity
  8
0 holes
 62
256
370
-1
 48
1.0
  6
BYLAYER
100
AcDbCircle
 10
2.4999950000000002
 20
-2.4999950000000002
 30
0.0
 40
1.0
  0
CIRCLE
  5
1DD
100
AcDbEntity
  8
0 holes
 62
256
370
-1
 48
1.0
  6
BYLAYER
100
AcDbCircle
 10
16.4999919999999989
 20
-48.0000059999999991
 30
0.0
 40
1.0
  0
CIRCLE
  5
1DE
100
AcDbEntity
  8
0 holes
 62
256
370
-1
 48
1.0
  6
BYLAYER
100
AcDbCircle
 10
65.4999959999999959
 20
-48.0000059999999991
 30
0.0
 40
1.0
  0
ENDSEC
  0
SECTION
  2
OBJECTS
  0
DICTIONARY
  5
C
100
AcDbDictionary
280
0
281
1
  3
ACAD_GROUP
350
D
  3
ACAD_LAYOUT
350
1A
  3
ACAD_MLINESTYLE
350
17
  3
ACAD_PLOTSETTINGS
350
19
  3
ACAD_PLOTSTYLENAME
350
E
  3
AcDbVariableDictionary
350
1DF
  3
QCAD_OBJECTS
350
1E0
  0
DICTIONARY
  5
D
100
AcDbDictionary
280
0
281
1
  0
ACDBDICTIONARYWDFLT
  5
E
100
AcDbDictionary
281
1
  3
Normal
350
F
100
AcDbDictionaryWithDefault
340
F
  0
ACDBPLACEHOLDER
  5
F
  0
DICTIONARY
  5
17
100
AcDbDictionary
280
0
281
1
  3
Standard
350
18
  0
MLINESTYLE
  5
18
100
AcDbMlineStyle
  2
STANDARD
 70
0
  3

 62
256
 51
90.0
 52
90.0
 71
2
 49
0.5
 62
256
  6
BYLAYER
 49
-0.5
 62
256
  6
BYLAYER
  0
DICTIONARY
  5
19
100
AcDbDictionary
280
0
281
1
  0
DICTIONARY
  5
1A
100
AcDbDictionary
281
1
  3
Layout1
350
1E
  3
Layout2
350
26
  3
Model
350
22
  0
LAYOUT
  5
1E
100
AcDbPlotSettings
  1

  2
none_device
  4

  6

 40
0.0
 41
0.0
 42
0.0
 43
0.0
 44
0.0
 45
0.0
 46
0.0
 47
0.0
 48
0.0
 49
0.0
140
0.0
141
0.0
142
1.0
143
1.0
 70
688
 72
0
 73
0
 74
5
  7

 75
16
147
1.0
148
0.0
149
0.0
100
AcDbLayout
  1
Layout1
 70
1
 71
1
 10
0.0
 20
0.0
 11
420.0
 21
297.0
 12
0.0
 22
0.0
 32
0.0
 14
100000000000000000000.0
 24
100000000000000000000.0
 34
100000000000000000000.0
 15
-100000000000000000000.0
 25
-100000000000000000000.0
 35
-100000000000000000000.0
146
0.0
 13
0.0
 23
0.0
 33
0.0
 16
1.0
 26
0.0
 36
0.0
 17
0.0
 27
1.0
 37
0.0
 76
0
330
1B
  0
LAYOUT
  5
22
100
AcDbPlotSettings
  1

  2
none_device
  4

  6

 40
0.0
 41
0.0
 42
0.0
 43
0.0
 44
0.0
 45
0.0
 46
0.0
 47
0.0
 48
0.0
 49
0.0
140
0.0
141
0.0
142
1.0
143
1.0
 70
1712
 72
0
 73
0
 74
0
  7

 75
0
147
1.0
148
0.0
149
0.0
100
AcDbLayout
  1
Model
 70
1
 71
0
 10
0.0
 20
0.0
 11
12.0
 21
9.0
 12
0.0
 22
0.0
 32
0.0
 14
0.0
 24
0.0
 34
0.0
 15
0.0
 25
0.0
 35
0.0
146
0.0
 13
0.0
 23
0.0
 33
0.0
 16
1.0
 26
0.0
 36
0.0
 17
0.0
 27
1.0
 37
0.0
 76
0
330
1F
  0
LAYOUT
  5
26
100
AcDbPlotSettings
  1

  2
none_device
  4

  6

 40
0.0
 41
0.0
 42
0.0
 43
0.0
 44
0.0
 45
0.0
 46
0.0
 47
0.0
 48
0.0
 49
0.0
140
0.0
141
0.0
142
1.0
143
1.0
 70
688
 72
0
 73
0
 74
5
  7

 75
16
147
1.0
148
0.0
149
0.0
100
AcDbLayout
  1
Layout2
 70
1
 71
2
 10
0.0
 20
0.0
 11
12.0
 21
9.0
 12
0.0
 22
0.0
 32
0.0
 14
0.0
 24
0.0
 34
0.0
 15
0.0
 25
0.0
 35
0.0
146
0.0
 13
0.0
 23
0.0
 33
0.0
 16
1.0
 26
0.0
 36
0.0
 17
0.0
 27
1.0
 37
0.0
 76
0
330
23
  0
DICTIONARY
  5
1DF
100
AcDbDictionary
281
1
  3
DIMASSOC
350
1E2
  3
HIDETEXT
350
1E1
  0
DICTIONARYVAR
  5
1E1
100
DictionaryVariables
280
0
  1
2
  0
DICTIONARYVAR
  5
1E2
100
DictionaryVariables
280
0
  1
1
  0
DICTIONARY
  5
1E0
100
AcDbDictionary
281
1
  3
ColorSettings/BackgroundColor
350
1E3
  3
ColorSettings/ColorMode
350
1E4
  3
Grid/DisplayGrid00
350
1E5
  3
Grid/DisplayGrid01
350
1E6
  3
Grid/DisplayGrid02
350
1E7
  3
Grid/DisplayGrid03
350
1E8
  3
Grid/GridSpacingX00
350
1E9
  3
Grid/GridSpacingX01
350
1EA
  3
Grid/GridSpacingX02
350
1EB
  3
Grid/GridSpacingX03
350
1EC
  3
Grid/GridSpacingY00
350
1ED
  3
Grid/GridSpacingY01
350
1EE
  3
Grid/GridSpacingY02
350
1EF
  3
Grid/GridSpacingY03
350
1F0
  3
Grid/IsometricGrid00
350
1F1
  3
Grid/IsometricGrid01
350
1F2
  3
Grid/IsometricGrid02
350
1F3
  3
Grid/IsometricGrid03
350
1F4
  3
Grid/IsometricProjection00
350
1F5
  3
Grid/IsometricProjection01
350
1F6
  3
Grid/IsometricProjection02
350
1F7
  3
Grid/IsometricProjection03
350
1F8
  3
Grid/MetaGridSpacingX00
350
1F9
  3
Grid/MetaGridSpacingX01
350
1FA
  3
Grid/MetaGridSpacingX02
350
1FB
  3
Grid/MetaGridSpacingX03
350
1FC
  3
Grid/MetaGridSpacingY00
350
1FD
  3
Grid/MetaGridSpacingY01
350
1FE
  3
Grid/MetaGridSpacingY02
350
1FF
  3
Grid/MetaGridSpacingY03
350
200
  3
MultiPageSettings/Columns
350
201
  3
MultiPageSettings/GlueMarginsBottom
350
202
  3
MultiPageSettings/GlueMarginsLeft
350
203
  3
MultiPageSettings/GlueMarginsRight
350
204
  3
MultiPageSettings/GlueMarginsTop
350
205
  3
MultiPageSettings/PrintCropMarks
350
206
  3
MultiPageSettings/Rows
350
207
  3
PageSettings/OffsetX
350
208
  3
PageSettings/OffsetY
350
209
  3
PageSettings/PageOrientation
350
20A
  3
PageSettings/PaperHeight
350
20B
  3
PageSettings/PaperWidth
350
20C
  3
PageSettings/Scale
350
20D
  3
PageSettings/ShowPaperBorders
350
20E
  3
PageTagSettings/EnablePageTags
350
20F
  3
PageTagSettings/TagAlignment
350
210
  3
PageTagSettings/TagFont
350
211
  3
PageTagSettings/TagPosition
350
212
  3
QCADVersion
350
213
  3
UnitSettings/PaperUnit
350
214
  3
ViewportCenter
350
215
  3
ViewportHeight
350
216
  3
ViewportWidth
350
217
  0
XRECORD
  5
1E3
330
1E0
100
AcDbXrecord
280
1
1000
Bianco
  0
XRECORD
  5
1E4
330
1E0
100
AcDbXrecord
280
1
1000
FullColor
  0
XRECORD
  5
1E5
330
1E0
100
AcDbXrecord
280
1
290
1
  0
XRECORD
  5
1E6
330
1E0
100
AcDbXrecord
280
1
290
1
  0
XRECORD
  5
1E7
330
1E0
100
AcDbXrecord
280
1
290
1
  0
XRECORD
  5
1E8
330
1E0
100
AcDbXrecord
280
1
290
1
  0
XRECORD
  5
1E9
330
1E0
100
AcDbXrecord
280
1
1000
auto
  0
XRECORD
  5
1EA
330
1E0
100
AcDbXrecord
280
1
1000
auto
  0
XRECORD
  5
1EB
330
1E0
100
AcDbXrecord
280
1
1000
auto
  0
XRECORD
  5
1EC
330
1E0
100
AcDbXrecord
280
1
1000
auto
  0
XRECORD
  5
1ED
330
1E0
100
AcDbXrecord
280
1
1000
auto
  0
XRECORD
  5
1EE
330
1E0
100
AcDbXrecord
280
1
1000
auto
  0
XRECORD
  5
1EF
330
1E0
100
AcDbXrecord
280
1
1000
auto
  0
XRECORD
  5
1F0
330
1E0
100
AcDbXrecord
280
1
1000
auto
  0
XRECORD
  5
1F1
330
1E0
100
AcDbXrecord
280
1
290
0
  0
XRECORD
  5
1F2
330
1E0
100
AcDbXrecord
280
1
290
0
  0
XRECORD
  5
1F3
330
1E0
100
AcDbXrecord
280
1
290
0
  0
XRECORD
  5
1F4
330
1E0
100
AcDbXrecord
280
1
290
0
  0
XRECORD
  5
1F5
330
1E0
100
AcDbXrecord
280
1
 90
65537
  0
XRECORD
  5
1F6
330
1E0
100
AcDbXrecord
280
1
 90
65537
  0
XRECORD
  5
1F7
330
1E0
100
AcDbXrecord
280
1
 90
65537
  0
XRECORD
  5
1F8
330
1E0
100
AcDbXrecord
280
1
 90
65537
  0
XRECORD
  5
1F9
330
1E0
100
AcDbXrecord
280
1
1000
auto
  0
XRECORD
  5
1FA
330
1E0
100
AcDbXrecord
280
1
1000
auto
  0
XRECORD
  5
1FB
330
1E0
100
AcDbXrecord
280
1
1000
auto
  0
XRECORD
  5
1FC
330
1E0
100
AcDbXrecord
280
1
1000
auto
  0
XRECORD
  5
1FD
330
1E0
100
AcDbXrecord
280
1
1000
auto
  0
XRECORD
  5
1FE
330
1E0
100
AcDbXrecord
280
1
1000
auto
  0
XRECORD
  5
1FF
330
1E0
100
AcDbXrecord
280
1
1000
auto
  0
XRECORD
  5
200
330
1E0
100
AcDbXrecord
280
1
1000
auto
  0
XRECORD
  5
201
330
1E0
100
AcDbXrecord
280
1
 90
1
  0
XRECORD
  5
202
330
1E0
100
AcDbXrecord
280
1
 40
10.0
  0
XRECORD
  5
203
330
1E0
100
AcDbXrecord
280
1
 40
10.0
  0
XRECORD
  5
204
330
1E0
100
AcDbXrecord
280
1
 40
10.0
  0
XRECORD
  5
205
330
1E0
100
AcDbXrecord
280
1
 40
10.0
  0
XRECORD
  5
206
330
1E0
100
AcDbXrecord
280
1
290
0
  0
XRECORD
  5
207
330
1E0
100
AcDbXrecord
280
1
 90
1
  0
XRECORD
  5
208
330
1E0
100
AcDbXrecord
280
1
 40
0.0
  0
XRECORD
  5
209
330
1E0
100
AcDbXrecord
280
1
 40
0.0
  0
XRECORD
  5
20A
330
1E0
100
AcDbXrecord
280
1
1000
Portrait
  0
XRECORD
  5
20B
330
1E0
100
AcDbXrecord
280
1
 40
297.0
  0
XRECORD
  5
20C
330
1E0
100
AcDbXrecord
280
1
 40
210.0
  0
XRECORD
  5
20D
330
1E0
100
AcDbXrecord
280
1
1000
1:1
  0
XRECORD
  5
20E
330
1E0
100
AcDbXrecord
280
1
290
1
  0
XRECORD
  5
20F
330
1E0
100
AcDbXrecord
280
1
290
0
  0
XRECORD
  5
210
330
1E0
100
AcDbXrecord
280
1
1000
Inside
  0
XRECORD
  5
211
330
1E0
100
AcDbXrecord
280
1
1000
Arial,10,-1,5,50,0,0,0,0,0
  0
XRECORD
  5
212
330
1E0
100
AcDbXrecord
280
1
1000
TopLeft
  0
XRECORD
  5
213
330
1E0
100
AcDbXrecord
280
1
1000
3.28.1
  0
XRECORD
  5
214
330
1E0
100
AcDbXrecord
280
1
 90
4
  0
XRECORD
  5
216
330
1E0
100
AcDbXrecord
280
1
 40
7.2029306216975542
  0
XRECORD
  5
217
330
1E0
100
AcDbXrecord
280
1
 40
14.5322284472845311
  0
ENDSEC
  0
EOF
