<?xml version="1.0" encoding="UTF-8" standalone="no"?>
<!DOCTYPE svg PUBLIC "-//W3C//DTD SVG 1.1//EN"
 "http://www.w3.org/Graphics/SVG/1.1/DTD/svg11.dtd">
<!-- Generated by graphviz version 8.1.0 (20230707.0739)
 -->
<!-- Title: artifacts Pages: 1 -->
<svg width="816pt" height="121pt"
 viewBox="0.00 0.00 816.00 120.50" xmlns="http://www.w3.org/2000/svg" xmlns:xlink="http://www.w3.org/1999/xlink">
<g id="graph0" class="graph" transform="scale(1 1) rotate(0) translate(4 116.5)">
<title>artifacts</title>
<polygon fill="white" stroke="none" points="-4,4 -4,-116.5 812,-116.5 812,4 -4,4"/>
<!-- box -->
<g id="node1" class="node">
<title>box</title>
<polygon fill="white" stroke="black" stroke-width="2" points="100,-112.5 0,-112.5 0,-82.5 100,-82.5 100,-112.5"/>
<text text-anchor="middle" x="50" y="-92.45" font-family="Times,serif" font-size="14.00">box</text>
</g>
<!-- caddy -->
<g id="node2" class="node">
<title>caddy</title>
<polygon fill="white" stroke="black" stroke-width="2" points="218,-112.5 118,-112.5 118,-82.5 218,-82.5 218,-112.5"/>
<text text-anchor="middle" x="168" y="-92.45" font-family="Times,serif" font-size="14.00">caddy</text>
</g>
<!-- din&#45;rails -->
<g id="node3" class="node">
<title>din&#45;rails</title>
<polygon fill="white" stroke="black" stroke-width="2" points="336,-112.5 236,-112.5 236,-82.5 336,-82.5 336,-112.5"/>
<text text-anchor="middle" x="286" y="-92.45" font-family="Times,serif" font-size="14.00">din&#45;rails</text>
</g>
<!-- pcb_holder -->
<g id="node4" class="node">
<title>pcb_holder</title>
<polygon fill="white" stroke="black" stroke-width="2" points="454,-112.5 354,-112.5 354,-82.5 454,-82.5 454,-112.5"/>
<text text-anchor="middle" x="404" y="-92.45" font-family="Times,serif" font-size="14.00">pcb_holder</text>
</g>
<!-- spacer -->
<g id="node5" class="node">
<title>spacer</title>
<polygon fill="white" stroke="black" stroke-width="2" points="454,-30 354,-30 354,0 454,0 454,-30"/>
<text text-anchor="middle" x="404" y="-9.95" font-family="Times,serif" font-size="14.00">spacer</text>
</g>
<!-- pcb_holder&#45;&gt;spacer -->
<g id="edge1" class="edge">
<title>pcb_holder&#45;&gt;spacer</title>
<path fill="none" stroke="black" d="M404,-81.74C404,-70.57 404,-54.96 404,-41.76"/>
<polygon fill="black" stroke="black" points="407.5,-41.94 404,-31.94 400.5,-41.94 407.5,-41.94"/>
<text text-anchor="middle" x="430.63" y="-51.2" font-family="Times,serif" font-size="14.00">«include»</text>
</g>
<!-- t&#45;nut -->
<g id="node6" class="node">
<title>t&#45;nut</title>
<polygon fill="white" stroke="black" stroke-width="2" points="572,-112.5 472,-112.5 472,-82.5 572,-82.5 572,-112.5"/>
<text text-anchor="middle" x="522" y="-92.45" font-family="Times,serif" font-size="14.00">t&#45;nut</text>
</g>
<!-- t&#45;profiles -->
<g id="node7" class="node">
<title>t&#45;profiles</title>
<polygon fill="white" stroke="black" stroke-width="2" points="690,-112.5 590,-112.5 590,-82.5 690,-82.5 690,-112.5"/>
<text text-anchor="middle" x="640" y="-92.45" font-family="Times,serif" font-size="14.00">t&#45;profiles</text>
</g>
<!-- template -->
<g id="node8" class="node">
<title>template</title>
<polygon fill="white" stroke="black" stroke-width="2" points="808,-112.5 708,-112.5 708,-82.5 808,-82.5 808,-112.5"/>
<text text-anchor="middle" x="758" y="-92.45" font-family="Times,serif" font-size="14.00">template</text>
</g>
</g>
</svg>
