<?xml version="1.0" encoding="UTF-8" standalone="no"?>
<!DOCTYPE svg PUBLIC "-//W3C//DTD SVG 1.1//EN"
 "http://www.w3.org/Graphics/SVG/1.1/DTD/svg11.dtd">
<!-- Generated by graphviz version 5.0.0 (0)
 -->
<!-- Title: artifacts Pages: 1 -->
<svg width="934pt" height="119pt"
 viewBox="0.00 0.00 934.00 119.00" xmlns="http://www.w3.org/2000/svg" xmlns:xlink="http://www.w3.org/1999/xlink">
<g id="graph0" class="graph" transform="scale(1 1) rotate(0) translate(4 115)">
<title>artifacts</title>
<polygon fill="white" stroke="transparent" points="-4,4 -4,-115 930,-115 930,4 -4,4"/>
<!-- box -->
<g id="node1" class="node">
<title>box</title>
<polygon fill="white" stroke="black" stroke-width="2" points="100,-111 0,-111 0,-81 100,-81 100,-111"/>
<text text-anchor="middle" x="50" y="-92.3" font-family="Times,serif" font-size="14.00">box</text>
</g>
<!-- caddy -->
<g id="node2" class="node">
<title>caddy</title>
<polygon fill="white" stroke="black" stroke-width="2" points="218,-111 118,-111 118,-81 218,-81 218,-111"/>
<text text-anchor="middle" x="168" y="-92.3" font-family="Times,serif" font-size="14.00">caddy</text>
</g>
<!-- din_rails -->
<g id="node3" class="node">
<title>din_rails</title>
<polygon fill="white" stroke="black" stroke-width="2" points="336,-111 236,-111 236,-81 336,-81 336,-111"/>
<text text-anchor="middle" x="286" y="-92.3" font-family="Times,serif" font-size="14.00">din_rails</text>
</g>
<!-- joints -->
<g id="node4" class="node">
<title>joints</title>
<polygon fill="white" stroke="black" stroke-width="2" points="454,-111 354,-111 354,-81 454,-81 454,-111"/>
<text text-anchor="middle" x="404" y="-92.3" font-family="Times,serif" font-size="14.00">joints</text>
</g>
<!-- pcb_holder -->
<g id="node5" class="node">
<title>pcb_holder</title>
<polygon fill="white" stroke="black" stroke-width="2" points="572,-111 472,-111 472,-81 572,-81 572,-111"/>
<text text-anchor="middle" x="522" y="-92.3" font-family="Times,serif" font-size="14.00">pcb_holder</text>
</g>
<!-- spacer -->
<g id="node6" class="node">
<title>spacer</title>
<polygon fill="white" stroke="black" stroke-width="2" points="572,-30 472,-30 472,0 572,0 572,-30"/>
<text text-anchor="middle" x="522" y="-11.3" font-family="Times,serif" font-size="14.00">spacer</text>
</g>
<!-- pcb_holder&#45;&gt;spacer -->
<g id="edge1" class="edge">
<title>pcb_holder&#45;&gt;spacer</title>
<path fill="none" stroke="black" d="M522,-80.88C522,-69.64 522,-53.66 522,-40.37"/>
<polygon fill="black" stroke="black" points="525.5,-40 522,-30 518.5,-40 525.5,-40"/>
<text text-anchor="middle" x="556.5" y="-51.8" font-family="Times,serif" font-size="14.00">«include»</text>
</g>
<!-- template -->
<g id="node7" class="node">
<title>template</title>
<polygon fill="white" stroke="black" stroke-width="2" points="690,-111 590,-111 590,-81 690,-81 690,-111"/>
<text text-anchor="middle" x="640" y="-92.3" font-family="Times,serif" font-size="14.00">template</text>
</g>
<!-- t&#45;nut -->
<g id="node8" class="node">
<title>t&#45;nut</title>
<polygon fill="white" stroke="black" stroke-width="2" points="808,-111 708,-111 708,-81 808,-81 808,-111"/>
<text text-anchor="middle" x="758" y="-92.3" font-family="Times,serif" font-size="14.00">t&#45;nut</text>
</g>
<!-- t&#45;profiles -->
<g id="node9" class="node">
<title>t&#45;profiles</title>
<polygon fill="white" stroke="black" stroke-width="2" points="926,-111 826,-111 826,-81 926,-81 926,-111"/>
<text text-anchor="middle" x="876" y="-92.3" font-family="Times,serif" font-size="14.00">t&#45;profiles</text>
</g>
</g>
</svg>
