<?xml version="1.0" encoding="UTF-8" standalone="no"?>
<!DOCTYPE svg PUBLIC "-//W3C//DTD SVG 1.1//EN"
 "http://www.w3.org/Graphics/SVG/1.1/DTD/svg11.dtd">
<!-- Generated by graphviz version 8.1.0 (20230707.0739)
 -->
<!-- Title: artifacts Pages: 1 -->
<svg width="870pt" height="121pt"
 viewBox="0.00 0.00 870.00 121.25" xmlns="http://www.w3.org/2000/svg" xmlns:xlink="http://www.w3.org/1999/xlink">
<g id="graph0" class="graph" transform="scale(1 1) rotate(0) translate(4 117.25)">
<title>artifacts</title>
<polygon fill="white" stroke="none" points="-4,4 -4,-117.25 866,-117.25 866,4 -4,4"/>
<!-- box -->
<g id="node1" class="node">
<title>box</title>
<polygon fill="white" stroke="black" stroke-width="2" points="100,-113.25 0,-113.25 0,-83.25 100,-83.25 100,-113.25"/>
<text text-anchor="middle" x="50" y="-93.58" font-family="Times,serif" font-size="14.00">box</text>
</g>
<!-- caddy -->
<g id="node2" class="node">
<title>caddy</title>
<polygon fill="white" stroke="black" stroke-width="2" points="218,-113.25 118,-113.25 118,-83.25 218,-83.25 218,-113.25"/>
<text text-anchor="middle" x="168" y="-93.58" font-family="Times,serif" font-size="14.00">caddy</text>
</g>
<!-- din_rails -->
<g id="node3" class="node">
<title>din_rails</title>
<polygon fill="white" stroke="black" stroke-width="2" points="336,-113.25 236,-113.25 236,-83.25 336,-83.25 336,-113.25"/>
<text text-anchor="middle" x="286" y="-93.58" font-family="Times,serif" font-size="14.00">din_rails</text>
</g>
<!-- Round&#45;Anything/polyround -->
<g id="node9" class="node">
<title>Round&#45;Anything/polyround</title>
<polygon fill="white" stroke="black" stroke-width="2" points="389.63,-30 182.38,-30 182.38,0 389.63,0 389.63,-30"/>
<text text-anchor="middle" x="286" y="-10.33" font-family="Times,serif" font-size="14.00">Round&#45;Anything/polyround</text>
</g>
<!-- din_rails&#45;&gt;Round&#45;Anything/polyround -->
<g id="edge1" class="edge">
<title>din_rails&#45;&gt;Round&#45;Anything/polyround</title>
<path fill="none" stroke="black" d="M286,-82.35C286,-71.01 286,-55.13 286,-41.75"/>
<polygon fill="black" stroke="black" points="289.5,-41.81 286,-31.81 282.5,-41.81 289.5,-41.81"/>
<text text-anchor="middle" x="320.13" y="-51.95" font-family="Times,serif" font-size="14.00">«include»</text>
</g>
<!-- pcb_holder -->
<g id="node4" class="node">
<title>pcb_holder</title>
<polygon fill="white" stroke="black" stroke-width="2" points="508,-113.25 408,-113.25 408,-83.25 508,-83.25 508,-113.25"/>
<text text-anchor="middle" x="458" y="-93.58" font-family="Times,serif" font-size="14.00">pcb_holder</text>
</g>
<!-- spacer -->
<g id="node5" class="node">
<title>spacer</title>
<polygon fill="white" stroke="black" stroke-width="2" points="508,-30 408,-30 408,0 508,0 508,-30"/>
<text text-anchor="middle" x="458" y="-10.33" font-family="Times,serif" font-size="14.00">spacer</text>
</g>
<!-- pcb_holder&#45;&gt;spacer -->
<g id="edge2" class="edge">
<title>pcb_holder&#45;&gt;spacer</title>
<path fill="none" stroke="black" d="M458,-82.35C458,-71.01 458,-55.13 458,-41.75"/>
<polygon fill="black" stroke="black" points="461.5,-41.81 458,-31.81 454.5,-41.81 461.5,-41.81"/>
<text text-anchor="middle" x="492.13" y="-51.95" font-family="Times,serif" font-size="14.00">«include»</text>
</g>
<!-- template -->
<g id="node6" class="node">
<title>template</title>
<polygon fill="white" stroke="black" stroke-width="2" points="626,-113.25 526,-113.25 526,-83.25 626,-83.25 626,-113.25"/>
<text text-anchor="middle" x="576" y="-93.58" font-family="Times,serif" font-size="14.00">template</text>
</g>
<!-- t&#45;nut -->
<g id="node7" class="node">
<title>t&#45;nut</title>
<polygon fill="white" stroke="black" stroke-width="2" points="744,-113.25 644,-113.25 644,-83.25 744,-83.25 744,-113.25"/>
<text text-anchor="middle" x="694" y="-93.58" font-family="Times,serif" font-size="14.00">t&#45;nut</text>
</g>
<!-- t&#45;profiles -->
<g id="node8" class="node">
<title>t&#45;profiles</title>
<polygon fill="white" stroke="black" stroke-width="2" points="862,-113.25 762,-113.25 762,-83.25 862,-83.25 862,-113.25"/>
<text text-anchor="middle" x="812" y="-93.58" font-family="Times,serif" font-size="14.00">t&#45;profiles</text>
</g>
</g>
</svg>
