<?xml version="1.0" encoding="UTF-8" standalone="no"?>
<!DOCTYPE svg PUBLIC "-//W3C//DTD SVG 1.1//EN"
 "http://www.w3.org/Graphics/SVG/1.1/DTD/svg11.dtd">
<!-- Generated by graphviz version 12.1.0 (20240811.2233)
 -->
<!-- Title: artifacts Pages: 1 -->
<svg width="1214pt" height="121pt"
 viewBox="0.00 0.00 1214.00 121.25" xmlns="http://www.w3.org/2000/svg" xmlns:xlink="http://www.w3.org/1999/xlink">
<g id="graph0" class="graph" transform="scale(1 1) rotate(0) translate(4 117.25)">
<title>artifacts</title>
<polygon fill="white" stroke="none" points="-4,4 -4,-117.25 1210,-117.25 1210,4 -4,4"/>
<!-- box -->
<g id="node1" class="node">
<title>box</title>
<polygon fill="white" stroke="black" stroke-width="2" points="100,-113.25 0,-113.25 0,-83.25 100,-83.25 100,-113.25"/>
<text text-anchor="middle" x="50" y="-93.58" font-family="Times,serif" font-size="14.00">box</text>
</g>
<!-- caddy -->
<g id="node2" class="node">
<title>caddy</title>
<polygon fill="white" stroke="black" stroke-width="2" points="218,-113.25 118,-113.25 118,-83.25 218,-83.25 218,-113.25"/>
<text text-anchor="middle" x="168" y="-93.58" font-family="Times,serif" font-size="14.00">caddy</text>
</g>
<!-- din_rails -->
<g id="node3" class="node">
<title>din_rails</title>
<polygon fill="white" stroke="black" stroke-width="2" points="336,-113.25 236,-113.25 236,-83.25 336,-83.25 336,-113.25"/>
<text text-anchor="middle" x="286" y="-93.58" font-family="Times,serif" font-size="14.00">din_rails</text>
</g>
<!-- joints -->
<g id="node4" class="node">
<title>joints</title>
<polygon fill="white" stroke="black" stroke-width="2" points="454,-113.25 354,-113.25 354,-83.25 454,-83.25 454,-113.25"/>
<text text-anchor="middle" x="404" y="-93.58" font-family="Times,serif" font-size="14.00">joints</text>
</g>
<!-- new&#45;joints&#45;test -->
<g id="node5" class="node">
<title>new&#45;joints&#45;test</title>
<polygon fill="white" stroke="black" stroke-width="2" points="593.88,-113.25 472.13,-113.25 472.13,-83.25 593.88,-83.25 593.88,-113.25"/>
<text text-anchor="middle" x="533" y="-93.58" font-family="Times,serif" font-size="14.00">new&#45;joints&#45;test</text>
</g>
<!-- pcb_holder -->
<g id="node6" class="node">
<title>pcb_holder</title>
<polygon fill="white" stroke="black" stroke-width="2" points="712,-113.25 612,-113.25 612,-83.25 712,-83.25 712,-113.25"/>
<text text-anchor="middle" x="662" y="-93.58" font-family="Times,serif" font-size="14.00">pcb_holder</text>
</g>
<!-- spacer -->
<g id="node8" class="node">
<title>spacer</title>
<polygon fill="white" stroke="black" stroke-width="2" points="712,-30 612,-30 612,0 712,0 712,-30"/>
<text text-anchor="middle" x="662" y="-10.33" font-family="Times,serif" font-size="14.00">spacer</text>
</g>
<!-- pcb_holder&#45;&gt;spacer -->
<g id="edge1" class="edge">
<title>pcb_holder&#45;&gt;spacer</title>
<path fill="none" stroke="black" d="M662,-82.35C662,-71.12 662,-55.45 662,-42.15"/>
<polygon fill="black" stroke="black" points="665.5,-42.32 662,-32.32 658.5,-42.32 665.5,-42.32"/>
<text text-anchor="middle" x="696.13" y="-51.95" font-family="Times,serif" font-size="14.00">«include»</text>
</g>
<!-- profiles&#45;engine -->
<g id="node7" class="node">
<title>profiles&#45;engine</title>
<polygon fill="white" stroke="black" stroke-width="2" points="851.88,-113.25 730.13,-113.25 730.13,-83.25 851.88,-83.25 851.88,-113.25"/>
<text text-anchor="middle" x="791" y="-93.58" font-family="Times,serif" font-size="14.00">profiles&#45;engine</text>
</g>
<!-- template -->
<g id="node9" class="node">
<title>template</title>
<polygon fill="white" stroke="black" stroke-width="2" points="970,-113.25 870,-113.25 870,-83.25 970,-83.25 970,-113.25"/>
<text text-anchor="middle" x="920" y="-93.58" font-family="Times,serif" font-size="14.00">template</text>
</g>
<!-- t&#45;nut -->
<g id="node10" class="node">
<title>t&#45;nut</title>
<polygon fill="white" stroke="black" stroke-width="2" points="1088,-113.25 988,-113.25 988,-83.25 1088,-83.25 1088,-113.25"/>
<text text-anchor="middle" x="1038" y="-93.58" font-family="Times,serif" font-size="14.00">t&#45;nut</text>
</g>
<!-- t&#45;profiles -->
<g id="node11" class="node">
<title>t&#45;profiles</title>
<polygon fill="white" stroke="black" stroke-width="2" points="1206,-113.25 1106,-113.25 1106,-83.25 1206,-83.25 1206,-113.25"/>
<text text-anchor="middle" x="1156" y="-93.58" font-family="Times,serif" font-size="14.00">t&#45;profiles</text>
</g>
</g>
</svg>
