<?xml version="1.0" encoding="UTF-8" standalone="no"?>
<!DOCTYPE svg PUBLIC "-//W3C//DTD SVG 1.1//EN"
 "http://www.w3.org/Graphics/SVG/1.1/DTD/svg11.dtd">
<!-- Generated by graphviz version 2.44.0 (0)
 -->
<!-- Title: artifacts Pages: 1 -->
<svg width="462pt" height="119pt"
 viewBox="0.00 0.00 462.00 119.00" xmlns="http://www.w3.org/2000/svg" xmlns:xlink="http://www.w3.org/1999/xlink">
<g id="graph0" class="graph" transform="scale(1 1) rotate(0) translate(4 115)">
<title>artifacts</title>
<polygon fill="white" stroke="transparent" points="-4,4 -4,-115 458,-115 458,4 -4,4"/>
<!-- box -->
<g id="node1" class="node">
<title>box</title>
<polygon fill="white" stroke="black" stroke-width="2" points="100,-111 0,-111 0,-81 100,-81 100,-111"/>
<text text-anchor="middle" x="50" y="-92.3" font-family="Times-Roman" font-size="14.00">box</text>
</g>
<!-- caddy -->
<g id="node2" class="node">
<title>caddy</title>
<polygon fill="white" stroke="black" stroke-width="2" points="218,-111 118,-111 118,-81 218,-81 218,-111"/>
<text text-anchor="middle" x="168" y="-92.3" font-family="Times-Roman" font-size="14.00">caddy</text>
</g>
<!-- pcb_holder -->
<g id="node3" class="node">
<title>pcb_holder</title>
<polygon fill="white" stroke="black" stroke-width="2" points="336,-111 236,-111 236,-81 336,-81 336,-111"/>
<text text-anchor="middle" x="286" y="-92.3" font-family="Times-Roman" font-size="14.00">pcb_holder</text>
</g>
<!-- spacer -->
<g id="node4" class="node">
<title>spacer</title>
<polygon fill="white" stroke="black" stroke-width="2" points="336,-30 236,-30 236,0 336,0 336,-30"/>
<text text-anchor="middle" x="286" y="-11.3" font-family="Times-Roman" font-size="14.00">spacer</text>
</g>
<!-- pcb_holder&#45;&gt;spacer -->
<g id="edge1" class="edge">
<title>pcb_holder&#45;&gt;spacer</title>
<path fill="none" stroke="black" d="M286,-80.88C286,-69.64 286,-53.66 286,-40.37"/>
<polygon fill="black" stroke="black" points="289.5,-40 286,-30 282.5,-40 289.5,-40"/>
<text text-anchor="middle" x="318" y="-51.8" font-family="Times-Roman" font-size="14.00">«include»</text>
</g>
<!-- template -->
<g id="node5" class="node">
<title>template</title>
<polygon fill="white" stroke="black" stroke-width="2" points="454,-111 354,-111 354,-81 454,-81 454,-111"/>
<text text-anchor="middle" x="404" y="-92.3" font-family="Times-Roman" font-size="14.00">template</text>
</g>
</g>
</svg>
