<?xml version="1.0" encoding="UTF-8" standalone="no"?>
<!DOCTYPE svg PUBLIC "-//W3C//DTD SVG 1.1//EN"
 "http://www.w3.org/Graphics/SVG/1.1/DTD/svg11.dtd">
<!-- Generated by graphviz version 2.44.0 (0)
 -->
<!-- Title: vitamins Pages: 1 -->
<svg width="1396pt" height="200pt"
 viewBox="0.00 0.00 1396.00 200.00" xmlns="http://www.w3.org/2000/svg" xmlns:xlink="http://www.w3.org/1999/xlink">
<g id="graph0" class="graph" transform="scale(1 1) rotate(0) translate(4 196)">
<title>vitamins</title>
<polygon fill="white" stroke="transparent" points="-4,4 -4,-196 1392,-196 1392,4 -4,4"/>
<!-- countersinks -->
<g id="node1" class="node">
<title>countersinks</title>
<polygon fill="white" stroke="black" stroke-width="2" points="365.5,-30 262.5,-30 262.5,0 365.5,0 365.5,-30"/>
<text text-anchor="middle" x="314" y="-11.3" font-family="Times-Roman" font-size="14.00">countersinks</text>
</g>
<!-- ethers -->
<g id="node2" class="node">
<title>ethers</title>
<polygon fill="white" stroke="black" stroke-width="2" points="798,-30 698,-30 698,0 798,0 798,-30"/>
<text text-anchor="middle" x="748" y="-11.3" font-family="Times-Roman" font-size="14.00">ethers</text>
</g>
<!-- hdmi -->
<g id="node3" class="node">
<title>hdmi</title>
<polygon fill="white" stroke="black" stroke-width="2" points="916,-30 816,-30 816,0 916,0 916,-30"/>
<text text-anchor="middle" x="866" y="-11.3" font-family="Times-Roman" font-size="14.00">hdmi</text>
</g>
<!-- hds -->
<g id="node4" class="node">
<title>hds</title>
<polygon fill="white" stroke="black" stroke-width="2" points="255,-111 155,-111 155,-81 255,-81 255,-111"/>
<text text-anchor="middle" x="205" y="-92.3" font-family="Times-Roman" font-size="14.00">hds</text>
</g>
<!-- sata -->
<g id="node13" class="node">
<title>sata</title>
<polygon fill="white" stroke="black" stroke-width="2" points="147,-30 47,-30 47,0 147,0 147,-30"/>
<text text-anchor="middle" x="97" y="-11.3" font-family="Times-Roman" font-size="14.00">sata</text>
</g>
<!-- hds&#45;&gt;sata -->
<g id="edge1" class="edge">
<title>hds&#45;&gt;sata</title>
<path fill="none" stroke="black" d="M171.13,-80.84C161,-75.89 150.16,-69.83 141,-63 131.36,-55.81 122.05,-46.36 114.5,-37.82"/>
<polygon fill="black" stroke="black" points="116.99,-35.35 107.84,-30.01 111.66,-39.89 116.99,-35.35"/>
<text text-anchor="middle" x="173" y="-51.8" font-family="Times-Roman" font-size="14.00">«include»</text>
</g>
<!-- screw -->
<g id="node14" class="node">
<title>screw</title>
<polygon fill="white" stroke="black" stroke-width="2" points="538,-30 438,-30 438,0 538,0 538,-30"/>
<text text-anchor="middle" x="488" y="-11.3" font-family="Times-Roman" font-size="14.00">screw</text>
</g>
<!-- hds&#45;&gt;screw -->
<g id="edge2" class="edge">
<title>hds&#45;&gt;screw</title>
<path fill="none" stroke="black" d="M213.2,-80.57C220.18,-69.71 231.26,-55.48 245,-48 247.01,-46.91 356.36,-32.79 427.67,-23.68"/>
<polygon fill="black" stroke="black" points="428.43,-27.11 437.9,-22.37 427.54,-20.17 428.43,-27.11"/>
<text text-anchor="middle" x="277" y="-51.8" font-family="Times-Roman" font-size="14.00">«include»</text>
</g>
<!-- heatsinks -->
<g id="node5" class="node">
<title>heatsinks</title>
<polygon fill="white" stroke="black" stroke-width="2" points="1034,-192 934,-192 934,-162 1034,-162 1034,-192"/>
<text text-anchor="middle" x="984" y="-173.3" font-family="Times-Roman" font-size="14.00">heatsinks</text>
</g>
<!-- pcbs -->
<g id="node9" class="node">
<title>pcbs</title>
<polygon fill="white" stroke="black" stroke-width="2" points="1034,-111 934,-111 934,-81 1034,-81 1034,-111"/>
<text text-anchor="middle" x="984" y="-92.3" font-family="Times-Roman" font-size="14.00">pcbs</text>
</g>
<!-- heatsinks&#45;&gt;pcbs -->
<g id="edge3" class="edge">
<title>heatsinks&#45;&gt;pcbs</title>
<path fill="none" stroke="black" d="M984,-161.88C984,-150.64 984,-134.66 984,-121.37"/>
<polygon fill="black" stroke="black" points="987.5,-121 984,-111 980.5,-121 987.5,-121"/>
<text text-anchor="middle" x="1016" y="-132.8" font-family="Times-Roman" font-size="14.00">«include»</text>
</g>
<!-- jacks -->
<g id="node6" class="node">
<title>jacks</title>
<polygon fill="white" stroke="black" stroke-width="2" points="1034,-30 934,-30 934,0 1034,0 1034,-30"/>
<text text-anchor="middle" x="984" y="-11.3" font-family="Times-Roman" font-size="14.00">jacks</text>
</g>
<!-- knurl_nuts -->
<g id="node7" class="node">
<title>knurl_nuts</title>
<polygon fill="white" stroke="black" stroke-width="2" points="648,-111 548,-111 548,-81 648,-81 648,-111"/>
<text text-anchor="middle" x="598" y="-92.3" font-family="Times-Roman" font-size="14.00">knurl_nuts</text>
</g>
<!-- knurl_nuts&#45;&gt;screw -->
<g id="edge4" class="edge">
<title>knurl_nuts&#45;&gt;screw</title>
<path fill="none" stroke="black" d="M586.18,-80.59C577.46,-70.59 564.92,-57.42 552,-48 545.44,-43.21 538.05,-38.79 530.69,-34.84"/>
<polygon fill="black" stroke="black" points="531.94,-31.55 521.44,-30.12 528.76,-37.79 531.94,-31.55"/>
<text text-anchor="middle" x="600" y="-51.8" font-family="Times-Roman" font-size="14.00">«include»</text>
</g>
<!-- magnets -->
<g id="node8" class="node">
<title>magnets</title>
<polygon fill="white" stroke="black" stroke-width="2" points="384,-111 284,-111 284,-81 384,-81 384,-111"/>
<text text-anchor="middle" x="334" y="-92.3" font-family="Times-Roman" font-size="14.00">magnets</text>
</g>
<!-- magnets&#45;&gt;countersinks -->
<g id="edge5" class="edge">
<title>magnets&#45;&gt;countersinks</title>
<path fill="none" stroke="black" d="M323.41,-80.75C320.06,-75.45 316.78,-69.21 315,-63 312.95,-55.83 312.24,-47.79 312.16,-40.42"/>
<polygon fill="black" stroke="black" points="315.67,-40.36 312.44,-30.27 308.67,-40.17 315.67,-40.36"/>
<text text-anchor="middle" x="347" y="-51.8" font-family="Times-Roman" font-size="14.00">«include»</text>
</g>
<!-- magnets&#45;&gt;screw -->
<g id="edge6" class="edge">
<title>magnets&#45;&gt;screw</title>
<path fill="none" stroke="black" d="M356.66,-80.93C372.7,-71.2 394.85,-58.22 415,-48 424.45,-43.21 434.77,-38.42 444.6,-34.07"/>
<polygon fill="black" stroke="black" points="446.07,-37.24 453.83,-30.03 443.27,-30.83 446.07,-37.24"/>
<text text-anchor="middle" x="447" y="-51.8" font-family="Times-Roman" font-size="14.00">«include»</text>
</g>
<!-- pcbs&#45;&gt;ethers -->
<g id="edge7" class="edge">
<title>pcbs&#45;&gt;ethers</title>
<path fill="none" stroke="black" d="M933.98,-88.7C903.29,-83.83 863.57,-75.74 830,-63 811.4,-55.94 792.04,-45.03 776.79,-35.5"/>
<polygon fill="black" stroke="black" points="778.64,-32.53 768.33,-30.09 774.87,-38.42 778.64,-32.53"/>
<text text-anchor="middle" x="862" y="-51.8" font-family="Times-Roman" font-size="14.00">«include»</text>
</g>
<!-- pcbs&#45;&gt;hdmi -->
<g id="edge8" class="edge">
<title>pcbs&#45;&gt;hdmi</title>
<path fill="none" stroke="black" d="M948.61,-80.9C937.75,-75.91 926.03,-69.82 916,-63 905.18,-55.64 894.44,-45.95 885.71,-37.27"/>
<polygon fill="black" stroke="black" points="888.09,-34.7 878.59,-30 883.08,-39.6 888.09,-34.7"/>
<text text-anchor="middle" x="948" y="-51.8" font-family="Times-Roman" font-size="14.00">«include»</text>
</g>
<!-- pcbs&#45;&gt;jacks -->
<g id="edge9" class="edge">
<title>pcbs&#45;&gt;jacks</title>
<path fill="none" stroke="black" d="M984,-80.88C984,-69.64 984,-53.66 984,-40.37"/>
<polygon fill="black" stroke="black" points="987.5,-40 984,-30 980.5,-40 987.5,-40"/>
<text text-anchor="middle" x="1016" y="-51.8" font-family="Times-Roman" font-size="14.00">«include»</text>
</g>
<!-- pin_headers -->
<g id="node10" class="node">
<title>pin_headers</title>
<polygon fill="white" stroke="black" stroke-width="2" points="1152,-30 1052,-30 1052,0 1152,0 1152,-30"/>
<text text-anchor="middle" x="1102" y="-11.3" font-family="Times-Roman" font-size="14.00">pin_headers</text>
</g>
<!-- pcbs&#45;&gt;pin_headers -->
<g id="edge10" class="edge">
<title>pcbs&#45;&gt;pin_headers</title>
<path fill="none" stroke="black" d="M1019.39,-80.9C1030.25,-75.91 1041.97,-69.82 1052,-63 1062.82,-55.64 1073.56,-45.95 1082.29,-37.27"/>
<polygon fill="black" stroke="black" points="1084.92,-39.6 1089.41,-30 1079.91,-34.7 1084.92,-39.6"/>
<text text-anchor="middle" x="1101" y="-51.8" font-family="Times-Roman" font-size="14.00">«include»</text>
</g>
<!-- pcbs&#45;&gt;screw -->
<g id="edge11" class="edge">
<title>pcbs&#45;&gt;screw</title>
<path fill="none" stroke="black" d="M933.94,-89.64C882.8,-83.94 801.17,-74.21 731,-63 668.28,-52.98 596.97,-38.86 547.91,-28.72"/>
<polygon fill="black" stroke="black" points="548.6,-25.29 538.09,-26.68 547.17,-32.14 548.6,-25.29"/>
<text text-anchor="middle" x="763" y="-51.8" font-family="Times-Roman" font-size="14.00">«include»</text>
</g>
<!-- trimpot -->
<g id="node17" class="node">
<title>trimpot</title>
<polygon fill="white" stroke="black" stroke-width="2" points="1270,-30 1170,-30 1170,0 1270,0 1270,-30"/>
<text text-anchor="middle" x="1220" y="-11.3" font-family="Times-Roman" font-size="14.00">trimpot</text>
</g>
<!-- pcbs&#45;&gt;trimpot -->
<g id="edge12" class="edge">
<title>pcbs&#45;&gt;trimpot</title>
<path fill="none" stroke="black" d="M1034.02,-88.54C1064.45,-83.63 1103.74,-75.55 1137,-63 1155.78,-55.92 1175.38,-45 1190.82,-35.48"/>
<polygon fill="black" stroke="black" points="1192.8,-38.36 1199.39,-30.07 1189.07,-32.44 1192.8,-38.36"/>
<text text-anchor="middle" x="1199" y="-51.8" font-family="Times-Roman" font-size="14.00">«include»</text>
</g>
<!-- usbs -->
<g id="node18" class="node">
<title>usbs</title>
<polygon fill="white" stroke="black" stroke-width="2" points="1388,-30 1288,-30 1288,0 1388,0 1388,-30"/>
<text text-anchor="middle" x="1338" y="-11.3" font-family="Times-Roman" font-size="14.00">usbs</text>
</g>
<!-- pcbs&#45;&gt;usbs -->
<g id="edge13" class="edge">
<title>pcbs&#45;&gt;usbs</title>
<path fill="none" stroke="black" d="M1034.42,-93.03C1085.75,-89.99 1167.19,-82.31 1235,-63 1258.88,-56.2 1284.27,-44.66 1303.87,-34.73"/>
<polygon fill="black" stroke="black" points="1305.72,-37.71 1313,-30 1302.51,-31.49 1305.72,-37.71"/>
<text text-anchor="middle" x="1307" y="-51.8" font-family="Times-Roman" font-size="14.00">«include»</text>
</g>
<!-- psus -->
<g id="node11" class="node">
<title>psus</title>
<polygon fill="white" stroke="black" stroke-width="2" points="530,-111 430,-111 430,-81 530,-81 530,-111"/>
<text text-anchor="middle" x="480" y="-92.3" font-family="Times-Roman" font-size="14.00">psus</text>
</g>
<!-- psus&#45;&gt;screw -->
<g id="edge14" class="edge">
<title>psus&#45;&gt;screw</title>
<path fill="none" stroke="black" d="M481.43,-80.88C482.58,-69.53 484.22,-53.34 485.57,-39.97"/>
<polygon fill="black" stroke="black" points="489.06,-40.3 486.58,-30 482.09,-39.6 489.06,-40.3"/>
<text text-anchor="middle" x="516" y="-51.8" font-family="Times-Roman" font-size="14.00">«include»</text>
</g>
<!-- sata&#45;adapters -->
<g id="node12" class="node">
<title>sata&#45;adapters</title>
<polygon fill="white" stroke="black" stroke-width="2" points="106,-111 0,-111 0,-81 106,-81 106,-111"/>
<text text-anchor="middle" x="53" y="-92.3" font-family="Times-Roman" font-size="14.00">sata&#45;adapters</text>
</g>
<!-- sata&#45;adapters&#45;&gt;sata -->
<g id="edge15" class="edge">
<title>sata&#45;adapters&#45;&gt;sata</title>
<path fill="none" stroke="black" d="M50.15,-80.63C48.95,-70.89 48.84,-58.01 54,-48 56.12,-43.89 59.04,-40.17 62.37,-36.84"/>
<polygon fill="black" stroke="black" points="64.82,-39.34 70.15,-30.18 60.28,-34.02 64.82,-39.34"/>
<text text-anchor="middle" x="86" y="-51.8" font-family="Times-Roman" font-size="14.00">«include»</text>
</g>
<!-- spdts -->
<g id="node15" class="node">
<title>spdts</title>
<polygon fill="white" stroke="black" stroke-width="2" points="1152,-192 1052,-192 1052,-162 1152,-162 1152,-192"/>
<text text-anchor="middle" x="1102" y="-173.3" font-family="Times-Roman" font-size="14.00">spdts</text>
</g>
<!-- template -->
<g id="node16" class="node">
<title>template</title>
<polygon fill="white" stroke="black" stroke-width="2" points="1270,-192 1170,-192 1170,-162 1270,-162 1270,-192"/>
<text text-anchor="middle" x="1220" y="-173.3" font-family="Times-Roman" font-size="14.00">template</text>
</g>
</g>
</svg>
