<?xml version="1.0" encoding="UTF-8" standalone="no"?>
<!DOCTYPE svg PUBLIC "-//W3C//DTD SVG 1.1//EN"
 "http://www.w3.org/Graphics/SVG/1.1/DTD/svg11.dtd">
<!-- Generated by graphviz version 2.44.0 (0)
 -->
<!-- Title: vitamins Pages: 1 -->
<svg width="1299pt" height="200pt"
 viewBox="0.00 0.00 1298.50 200.00" xmlns="http://www.w3.org/2000/svg" xmlns:xlink="http://www.w3.org/1999/xlink">
<g id="graph0" class="graph" transform="scale(1 1) rotate(0) translate(4 196)">
<title>vitamins</title>
<polygon fill="white" stroke="transparent" points="-4,4 -4,-196 1294.5,-196 1294.5,4 -4,4"/>
<!-- countersinks -->
<g id="node1" class="node">
<title>countersinks</title>
<polygon fill="white" stroke="black" stroke-width="2" points="103,-30 0,-30 0,0 103,0 103,-30"/>
<text text-anchor="middle" x="51.5" y="-11.3" font-family="Times-Roman" font-size="14.00">countersinks</text>
</g>
<!-- ethers -->
<g id="node2" class="node">
<title>ethers</title>
<polygon fill="white" stroke="black" stroke-width="2" points="700.5,-30 600.5,-30 600.5,0 700.5,0 700.5,-30"/>
<text text-anchor="middle" x="650.5" y="-11.3" font-family="Times-Roman" font-size="14.00">ethers</text>
</g>
<!-- hdmi -->
<g id="node3" class="node">
<title>hdmi</title>
<polygon fill="white" stroke="black" stroke-width="2" points="818.5,-30 718.5,-30 718.5,0 818.5,0 818.5,-30"/>
<text text-anchor="middle" x="768.5" y="-11.3" font-family="Times-Roman" font-size="14.00">hdmi</text>
</g>
<!-- hds -->
<g id="node4" class="node">
<title>hds</title>
<polygon fill="white" stroke="black" stroke-width="2" points="694.5,-192 594.5,-192 594.5,-162 694.5,-162 694.5,-192"/>
<text text-anchor="middle" x="644.5" y="-173.3" font-family="Times-Roman" font-size="14.00">hds</text>
</g>
<!-- sata -->
<g id="node15" class="node">
<title>sata</title>
<polygon fill="white" stroke="black" stroke-width="2" points="777.5,-111 677.5,-111 677.5,-81 777.5,-81 777.5,-111"/>
<text text-anchor="middle" x="727.5" y="-92.3" font-family="Times-Roman" font-size="14.00">sata</text>
</g>
<!-- hds&#45;&gt;sata -->
<g id="edge1" class="edge">
<title>hds&#45;&gt;sata</title>
<path fill="none" stroke="black" d="M651.77,-161.66C657.32,-151.69 665.67,-138.52 675.5,-129 680.15,-124.5 685.53,-120.32 691.04,-116.58"/>
<polygon fill="black" stroke="black" points="693.16,-119.38 699.71,-111.06 689.4,-113.47 693.16,-119.38"/>
<text text-anchor="middle" x="707.5" y="-132.8" font-family="Times-Roman" font-size="14.00">«include»</text>
</g>
<!-- heatsink -->
<g id="node5" class="node">
<title>heatsink</title>
<polygon fill="white" stroke="black" stroke-width="2" points="219.5,-111 119.5,-111 119.5,-81 219.5,-81 219.5,-111"/>
<text text-anchor="middle" x="169.5" y="-92.3" font-family="Times-Roman" font-size="14.00">heatsink</text>
</g>
<!-- heatsinks -->
<g id="node6" class="node">
<title>heatsinks</title>
<polygon fill="white" stroke="black" stroke-width="2" points="478.5,-192 378.5,-192 378.5,-162 478.5,-162 478.5,-192"/>
<text text-anchor="middle" x="428.5" y="-173.3" font-family="Times-Roman" font-size="14.00">heatsinks</text>
</g>
<!-- heatsinks&#45;&gt;heatsink -->
<g id="edge13" class="edge">
<title>heatsinks&#45;&gt;heatsink</title>
<path fill="none" stroke="red" stroke-width="2" d="M382.49,-161.97C338.52,-148.56 272.17,-128.32 225.22,-114"/>
<polygon fill="red" stroke="red" stroke-width="2" points="226.1,-110.6 215.51,-111.03 224.06,-117.3 226.1,-110.6"/>
<text text-anchor="middle" x="342.5" y="-132.8" font-family="Times-Roman" font-size="14.00">«use»</text>
</g>
<!-- pcbs -->
<g id="node11" class="node">
<title>pcbs</title>
<polygon fill="white" stroke="black" stroke-width="2" points="582.5,-111 482.5,-111 482.5,-81 582.5,-81 582.5,-111"/>
<text text-anchor="middle" x="532.5" y="-92.3" font-family="Times-Roman" font-size="14.00">pcbs</text>
</g>
<!-- heatsinks&#45;&gt;pcbs -->
<g id="edge2" class="edge">
<title>heatsinks&#45;&gt;pcbs</title>
<path fill="none" stroke="black" d="M447.09,-161.88C463.51,-149.41 487.63,-131.09 506.05,-117.09"/>
<polygon fill="black" stroke="black" points="508.22,-119.84 514.07,-111 503.99,-114.26 508.22,-119.84"/>
<text text-anchor="middle" x="522.5" y="-132.8" font-family="Times-Roman" font-size="14.00">«include»</text>
</g>
<!-- jacks -->
<g id="node7" class="node">
<title>jacks</title>
<polygon fill="white" stroke="black" stroke-width="2" points="936.5,-30 836.5,-30 836.5,0 936.5,0 936.5,-30"/>
<text text-anchor="middle" x="886.5" y="-11.3" font-family="Times-Roman" font-size="14.00">jacks</text>
</g>
<!-- knurl_nuts -->
<g id="node8" class="node">
<title>knurl_nuts</title>
<polygon fill="white" stroke="black" stroke-width="2" points="936.5,-192 836.5,-192 836.5,-162 936.5,-162 936.5,-192"/>
<text text-anchor="middle" x="886.5" y="-173.3" font-family="Times-Roman" font-size="14.00">knurl_nuts</text>
</g>
<!-- magnets -->
<g id="node9" class="node">
<title>magnets</title>
<polygon fill="white" stroke="black" stroke-width="2" points="101.5,-111 1.5,-111 1.5,-81 101.5,-81 101.5,-111"/>
<text text-anchor="middle" x="51.5" y="-92.3" font-family="Times-Roman" font-size="14.00">magnets</text>
</g>
<!-- magnets&#45;&gt;countersinks -->
<g id="edge3" class="edge">
<title>magnets&#45;&gt;countersinks</title>
<path fill="none" stroke="black" d="M51.5,-80.88C51.5,-69.64 51.5,-53.66 51.5,-40.37"/>
<polygon fill="black" stroke="black" points="55,-40 51.5,-30 48,-40 55,-40"/>
<text text-anchor="middle" x="83.5" y="-51.8" font-family="Times-Roman" font-size="14.00">«include»</text>
</g>
<!-- screw -->
<g id="node16" class="node">
<title>screw</title>
<polygon fill="white" stroke="black" stroke-width="2" points="321.5,-30 221.5,-30 221.5,0 321.5,0 321.5,-30"/>
<text text-anchor="middle" x="271.5" y="-11.3" font-family="Times-Roman" font-size="14.00">screw</text>
</g>
<!-- magnets&#45;&gt;screw -->
<g id="edge4" class="edge">
<title>magnets&#45;&gt;screw</title>
<path fill="none" stroke="black" d="M90.58,-80.97C127.54,-67.7 183.12,-47.74 222.91,-33.45"/>
<polygon fill="black" stroke="black" points="224.19,-36.71 232.42,-30.03 221.82,-30.12 224.19,-36.71"/>
<text text-anchor="middle" x="213.5" y="-51.8" font-family="Times-Roman" font-size="14.00">«include»</text>
</g>
<!-- pcb_holder -->
<g id="node10" class="node">
<title>pcb_holder</title>
<polygon fill="white" stroke="black" stroke-width="2" points="1054.5,-192 954.5,-192 954.5,-162 1054.5,-162 1054.5,-192"/>
<text text-anchor="middle" x="1004.5" y="-173.3" font-family="Times-Roman" font-size="14.00">pcb_holder</text>
</g>
<!-- pcbs&#45;&gt;ethers -->
<g id="edge5" class="edge">
<title>pcbs&#45;&gt;ethers</title>
<path fill="none" stroke="black" d="M567.89,-80.9C578.75,-75.91 590.47,-69.82 600.5,-63 611.32,-55.64 622.06,-45.95 630.79,-37.27"/>
<polygon fill="black" stroke="black" points="633.42,-39.6 637.91,-30 628.41,-34.7 633.42,-39.6"/>
<text text-anchor="middle" x="650.5" y="-51.8" font-family="Times-Roman" font-size="14.00">«include»</text>
</g>
<!-- pcbs&#45;&gt;hdmi -->
<g id="edge6" class="edge">
<title>pcbs&#45;&gt;hdmi</title>
<path fill="none" stroke="black" d="M582.52,-88.7C613.21,-83.83 652.93,-75.74 686.5,-63 705.1,-55.94 724.46,-45.03 739.71,-35.5"/>
<polygon fill="black" stroke="black" points="741.63,-38.42 748.17,-30.09 737.86,-32.53 741.63,-38.42"/>
<text text-anchor="middle" x="749.5" y="-51.8" font-family="Times-Roman" font-size="14.00">«include»</text>
</g>
<!-- pcbs&#45;&gt;jacks -->
<g id="edge7" class="edge">
<title>pcbs&#45;&gt;jacks</title>
<path fill="none" stroke="black" d="M582.52,-89.51C650.68,-81.91 766.49,-68.48 785.5,-63 808.98,-56.23 833.88,-44.7 853.08,-34.75"/>
<polygon fill="black" stroke="black" points="854.82,-37.79 862.02,-30.02 851.54,-31.61 854.82,-37.79"/>
<text text-anchor="middle" x="857.5" y="-51.8" font-family="Times-Roman" font-size="14.00">«include»</text>
</g>
<!-- pin_headers -->
<g id="node12" class="node">
<title>pin_headers</title>
<polygon fill="white" stroke="black" stroke-width="2" points="464.5,-30 364.5,-30 364.5,0 464.5,0 464.5,-30"/>
<text text-anchor="middle" x="414.5" y="-11.3" font-family="Times-Roman" font-size="14.00">pin_headers</text>
</g>
<!-- pcbs&#45;&gt;pin_headers -->
<g id="edge8" class="edge">
<title>pcbs&#45;&gt;pin_headers</title>
<path fill="none" stroke="black" d="M497.11,-80.9C486.25,-75.91 474.53,-69.82 464.5,-63 453.68,-55.64 442.94,-45.95 434.21,-37.27"/>
<polygon fill="black" stroke="black" points="436.59,-34.7 427.09,-30 431.58,-39.6 436.59,-34.7"/>
<text text-anchor="middle" x="496.5" y="-51.8" font-family="Times-Roman" font-size="14.00">«include»</text>
</g>
<!-- pcbs&#45;&gt;screw -->
<g id="edge9" class="edge">
<title>pcbs&#45;&gt;screw</title>
<path fill="none" stroke="black" d="M482.22,-87.16C452.04,-81.79 413.11,-73.71 379.5,-63 355.45,-55.34 329.48,-44.14 309.03,-34.59"/>
<polygon fill="black" stroke="black" points="310.3,-31.32 299.77,-30.2 307.3,-37.65 310.3,-31.32"/>
<text text-anchor="middle" x="411.5" y="-51.8" font-family="Times-Roman" font-size="14.00">«include»</text>
</g>
<!-- usbs -->
<g id="node19" class="node">
<title>usbs</title>
<polygon fill="white" stroke="black" stroke-width="2" points="582.5,-30 482.5,-30 482.5,0 582.5,0 582.5,-30"/>
<text text-anchor="middle" x="532.5" y="-11.3" font-family="Times-Roman" font-size="14.00">usbs</text>
</g>
<!-- pcbs&#45;&gt;usbs -->
<g id="edge10" class="edge">
<title>pcbs&#45;&gt;usbs</title>
<path fill="none" stroke="black" d="M532.5,-80.88C532.5,-69.64 532.5,-53.66 532.5,-40.37"/>
<polygon fill="black" stroke="black" points="536,-40 532.5,-30 529,-40 536,-40"/>
<text text-anchor="middle" x="564.5" y="-51.8" font-family="Times-Roman" font-size="14.00">«include»</text>
</g>
<!-- psus -->
<g id="node13" class="node">
<title>psus</title>
<polygon fill="white" stroke="black" stroke-width="2" points="337.5,-111 237.5,-111 237.5,-81 337.5,-81 337.5,-111"/>
<text text-anchor="middle" x="287.5" y="-92.3" font-family="Times-Roman" font-size="14.00">psus</text>
</g>
<!-- psus&#45;&gt;screw -->
<g id="edge11" class="edge">
<title>psus&#45;&gt;screw</title>
<path fill="none" stroke="black" d="M279.29,-80.81C276.6,-75.41 273.93,-69.09 272.5,-63 270.8,-55.74 270.19,-47.67 270.1,-40.3"/>
<polygon fill="black" stroke="black" points="273.6,-40.24 270.29,-30.18 266.6,-40.11 273.6,-40.24"/>
<text text-anchor="middle" x="304.5" y="-51.8" font-family="Times-Roman" font-size="14.00">«include»</text>
</g>
<!-- sata&#45;adapters -->
<g id="node14" class="node">
<title>sata&#45;adapters</title>
<polygon fill="white" stroke="black" stroke-width="2" points="818.5,-192 712.5,-192 712.5,-162 818.5,-162 818.5,-192"/>
<text text-anchor="middle" x="765.5" y="-173.3" font-family="Times-Roman" font-size="14.00">sata&#45;adapters</text>
</g>
<!-- sata&#45;adapters&#45;&gt;sata -->
<g id="edge12" class="edge">
<title>sata&#45;adapters&#45;&gt;sata</title>
<path fill="none" stroke="black" d="M758.71,-161.88C753.14,-150.31 745.15,-133.7 738.65,-120.18"/>
<polygon fill="black" stroke="black" points="741.72,-118.5 734.23,-111 735.42,-121.53 741.72,-118.5"/>
<text text-anchor="middle" x="782.5" y="-132.8" font-family="Times-Roman" font-size="14.00">«include»</text>
</g>
<!-- spdts -->
<g id="node17" class="node">
<title>spdts</title>
<polygon fill="white" stroke="black" stroke-width="2" points="1172.5,-192 1072.5,-192 1072.5,-162 1172.5,-162 1172.5,-192"/>
<text text-anchor="middle" x="1122.5" y="-173.3" font-family="Times-Roman" font-size="14.00">spdts</text>
</g>
<!-- template -->
<g id="node18" class="node">
<title>template</title>
<polygon fill="white" stroke="black" stroke-width="2" points="1290.5,-192 1190.5,-192 1190.5,-162 1290.5,-162 1290.5,-192"/>
<text text-anchor="middle" x="1240.5" y="-173.3" font-family="Times-Roman" font-size="14.00">template</text>
</g>
</g>
</svg>
