<?xml version="1.0" encoding="UTF-8" standalone="no"?>
<!DOCTYPE svg PUBLIC "-//W3C//DTD SVG 1.1//EN"
 "http://www.w3.org/Graphics/SVG/1.1/DTD/svg11.dtd">
<!-- Generated by graphviz version 2.44.0 (0)
 -->
<!-- Title: vitamins Pages: 1 -->
<svg width="1160pt" height="200pt"
 viewBox="0.00 0.00 1159.50 200.00" xmlns="http://www.w3.org/2000/svg" xmlns:xlink="http://www.w3.org/1999/xlink">
<g id="graph0" class="graph" transform="scale(1 1) rotate(0) translate(4 196)">
<title>vitamins</title>
<polygon fill="white" stroke="transparent" points="-4,4 -4,-196 1155.5,-196 1155.5,4 -4,4"/>
<!-- countersinks -->
<g id="node1" class="node">
<title>countersinks</title>
<polygon fill="white" stroke="black" stroke-width="2" points="103,-30 0,-30 0,0 103,0 103,-30"/>
<text text-anchor="middle" x="51.5" y="-11.3" font-family="Times-Roman" font-size="14.00">countersinks</text>
</g>
<!-- ethers -->
<g id="node2" class="node">
<title>ethers</title>
<polygon fill="white" stroke="black" stroke-width="2" points="679.5,-30 579.5,-30 579.5,0 679.5,0 679.5,-30"/>
<text text-anchor="middle" x="629.5" y="-11.3" font-family="Times-Roman" font-size="14.00">ethers</text>
</g>
<!-- hdmi -->
<g id="node3" class="node">
<title>hdmi</title>
<polygon fill="white" stroke="black" stroke-width="2" points="797.5,-30 697.5,-30 697.5,0 797.5,0 797.5,-30"/>
<text text-anchor="middle" x="747.5" y="-11.3" font-family="Times-Roman" font-size="14.00">hdmi</text>
</g>
<!-- hds -->
<g id="node4" class="node">
<title>hds</title>
<polygon fill="white" stroke="black" stroke-width="2" points="393.5,-111 293.5,-111 293.5,-81 393.5,-81 393.5,-111"/>
<text text-anchor="middle" x="343.5" y="-92.3" font-family="Times-Roman" font-size="14.00">hds</text>
</g>
<!-- sata -->
<g id="node15" class="node">
<title>sata</title>
<polygon fill="white" stroke="black" stroke-width="2" points="505.5,-30 405.5,-30 405.5,0 505.5,0 505.5,-30"/>
<text text-anchor="middle" x="455.5" y="-11.3" font-family="Times-Roman" font-size="14.00">sata</text>
</g>
<!-- hds&#45;&gt;sata -->
<g id="edge1" class="edge">
<title>hds&#45;&gt;sata</title>
<path fill="none" stroke="black" d="M359.41,-80.7C370.55,-70.98 385.97,-58.11 400.5,-48 406.73,-43.66 413.58,-39.34 420.27,-35.35"/>
<polygon fill="black" stroke="black" points="422.34,-38.19 429.22,-30.13 418.82,-32.15 422.34,-38.19"/>
<text text-anchor="middle" x="432.5" y="-51.8" font-family="Times-Roman" font-size="14.00">«include»</text>
</g>
<!-- screw -->
<g id="node16" class="node">
<title>screw</title>
<polygon fill="white" stroke="black" stroke-width="2" points="318.5,-30 218.5,-30 218.5,0 318.5,0 318.5,-30"/>
<text text-anchor="middle" x="268.5" y="-11.3" font-family="Times-Roman" font-size="14.00">screw</text>
</g>
<!-- hds&#45;&gt;screw -->
<g id="edge2" class="edge">
<title>hds&#45;&gt;screw</title>
<path fill="none" stroke="black" d="M330.09,-80.88C318.68,-68.86 302.11,-51.4 289.03,-37.62"/>
<polygon fill="black" stroke="black" points="291.22,-34.84 281.79,-30 286.14,-39.66 291.22,-34.84"/>
<text text-anchor="middle" x="344.5" y="-51.8" font-family="Times-Roman" font-size="14.00">«include»</text>
</g>
<!-- heatsink -->
<g id="node5" class="node">
<title>heatsink</title>
<polygon fill="white" stroke="black" stroke-width="2" points="511.5,-111 411.5,-111 411.5,-81 511.5,-81 511.5,-111"/>
<text text-anchor="middle" x="461.5" y="-92.3" font-family="Times-Roman" font-size="14.00">heatsink</text>
</g>
<!-- heatsinks -->
<g id="node6" class="node">
<title>heatsinks</title>
<polygon fill="white" stroke="black" stroke-width="2" points="542.5,-192 442.5,-192 442.5,-162 542.5,-162 542.5,-192"/>
<text text-anchor="middle" x="492.5" y="-173.3" font-family="Times-Roman" font-size="14.00">heatsinks</text>
</g>
<!-- heatsinks&#45;&gt;heatsink -->
<g id="edge14" class="edge">
<title>heatsinks&#45;&gt;heatsink</title>
<path fill="none" stroke="red" stroke-width="2" d="M486.96,-161.88C482.46,-150.42 476.03,-134.02 470.75,-120.57"/>
<polygon fill="red" stroke="red" stroke-width="2" points="473.91,-119.03 466.99,-111 467.39,-121.59 473.91,-119.03"/>
<text text-anchor="middle" x="499.5" y="-132.8" font-family="Times-Roman" font-size="14.00">«use»</text>
</g>
<!-- pcbs -->
<g id="node11" class="node">
<title>pcbs</title>
<polygon fill="white" stroke="black" stroke-width="2" points="797.5,-111 697.5,-111 697.5,-81 797.5,-81 797.5,-111"/>
<text text-anchor="middle" x="747.5" y="-92.3" font-family="Times-Roman" font-size="14.00">pcbs</text>
</g>
<!-- heatsinks&#45;&gt;pcbs -->
<g id="edge3" class="edge">
<title>heatsinks&#45;&gt;pcbs</title>
<path fill="none" stroke="black" d="M537.8,-161.97C581.09,-148.56 646.42,-128.32 692.64,-114"/>
<polygon fill="black" stroke="black" points="693.68,-117.34 702.2,-111.03 691.61,-110.65 693.68,-117.34"/>
<text text-anchor="middle" x="674.5" y="-132.8" font-family="Times-Roman" font-size="14.00">«include»</text>
</g>
<!-- jacks -->
<g id="node7" class="node">
<title>jacks</title>
<polygon fill="white" stroke="black" stroke-width="2" points="915.5,-30 815.5,-30 815.5,0 915.5,0 915.5,-30"/>
<text text-anchor="middle" x="865.5" y="-11.3" font-family="Times-Roman" font-size="14.00">jacks</text>
</g>
<!-- knurl_nuts -->
<g id="node8" class="node">
<title>knurl_nuts</title>
<polygon fill="white" stroke="black" stroke-width="2" points="660.5,-192 560.5,-192 560.5,-162 660.5,-162 660.5,-192"/>
<text text-anchor="middle" x="610.5" y="-173.3" font-family="Times-Roman" font-size="14.00">knurl_nuts</text>
</g>
<!-- magnets -->
<g id="node9" class="node">
<title>magnets</title>
<polygon fill="white" stroke="black" stroke-width="2" points="129.5,-111 29.5,-111 29.5,-81 129.5,-81 129.5,-111"/>
<text text-anchor="middle" x="79.5" y="-92.3" font-family="Times-Roman" font-size="14.00">magnets</text>
</g>
<!-- magnets&#45;&gt;countersinks -->
<g id="edge4" class="edge">
<title>magnets&#45;&gt;countersinks</title>
<path fill="none" stroke="black" d="M63.93,-80.78C59.38,-75.66 54.97,-69.53 52.5,-63 49.8,-55.84 48.94,-47.62 48.94,-40.07"/>
<polygon fill="black" stroke="black" points="52.44,-40.19 49.41,-30.04 45.44,-39.86 52.44,-40.19"/>
<text text-anchor="middle" x="84.5" y="-51.8" font-family="Times-Roman" font-size="14.00">«include»</text>
</g>
<!-- magnets&#45;&gt;screw -->
<g id="edge5" class="edge">
<title>magnets&#45;&gt;screw</title>
<path fill="none" stroke="black" d="M98.69,-80.81C113.36,-70.52 134.41,-56.89 154.5,-48 171.55,-40.45 190.83,-34.24 208.62,-29.36"/>
<polygon fill="black" stroke="black" points="209.55,-32.73 218.32,-26.78 207.76,-25.96 209.55,-32.73"/>
<text text-anchor="middle" x="186.5" y="-51.8" font-family="Times-Roman" font-size="14.00">«include»</text>
</g>
<!-- pcb_holder -->
<g id="node10" class="node">
<title>pcb_holder</title>
<polygon fill="white" stroke="black" stroke-width="2" points="778.5,-192 678.5,-192 678.5,-162 778.5,-162 778.5,-192"/>
<text text-anchor="middle" x="728.5" y="-173.3" font-family="Times-Roman" font-size="14.00">pcb_holder</text>
</g>
<!-- pcbs&#45;&gt;ethers -->
<g id="edge6" class="edge">
<title>pcbs&#45;&gt;ethers</title>
<path fill="none" stroke="black" d="M712.11,-80.9C701.25,-75.91 689.53,-69.82 679.5,-63 668.68,-55.64 657.94,-45.95 649.21,-37.27"/>
<polygon fill="black" stroke="black" points="651.59,-34.7 642.09,-30 646.58,-39.6 651.59,-34.7"/>
<text text-anchor="middle" x="711.5" y="-51.8" font-family="Times-Roman" font-size="14.00">«include»</text>
</g>
<!-- pcbs&#45;&gt;hdmi -->
<g id="edge7" class="edge">
<title>pcbs&#45;&gt;hdmi</title>
<path fill="none" stroke="black" d="M747.5,-80.88C747.5,-69.64 747.5,-53.66 747.5,-40.37"/>
<polygon fill="black" stroke="black" points="751,-40 747.5,-30 744,-40 751,-40"/>
<text text-anchor="middle" x="779.5" y="-51.8" font-family="Times-Roman" font-size="14.00">«include»</text>
</g>
<!-- pcbs&#45;&gt;jacks -->
<g id="edge8" class="edge">
<title>pcbs&#45;&gt;jacks</title>
<path fill="none" stroke="black" d="M782.89,-80.9C793.75,-75.91 805.47,-69.82 815.5,-63 826.32,-55.64 837.06,-45.95 845.79,-37.27"/>
<polygon fill="black" stroke="black" points="848.42,-39.6 852.91,-30 843.41,-34.7 848.42,-39.6"/>
<text text-anchor="middle" x="864.5" y="-51.8" font-family="Times-Roman" font-size="14.00">«include»</text>
</g>
<!-- pin_headers -->
<g id="node12" class="node">
<title>pin_headers</title>
<polygon fill="white" stroke="black" stroke-width="2" points="1033.5,-30 933.5,-30 933.5,0 1033.5,0 1033.5,-30"/>
<text text-anchor="middle" x="983.5" y="-11.3" font-family="Times-Roman" font-size="14.00">pin_headers</text>
</g>
<!-- pcbs&#45;&gt;pin_headers -->
<g id="edge9" class="edge">
<title>pcbs&#45;&gt;pin_headers</title>
<path fill="none" stroke="black" d="M797.52,-88.54C827.95,-83.63 867.24,-75.55 900.5,-63 919.28,-55.92 938.88,-45 954.32,-35.48"/>
<polygon fill="black" stroke="black" points="956.3,-38.36 962.89,-30.07 952.57,-32.44 956.3,-38.36"/>
<text text-anchor="middle" x="962.5" y="-51.8" font-family="Times-Roman" font-size="14.00">«include»</text>
</g>
<!-- pcbs&#45;&gt;screw -->
<g id="edge10" class="edge">
<title>pcbs&#45;&gt;screw</title>
<path fill="none" stroke="black" d="M697.5,-87.96C680.67,-85.66 661.78,-83.14 644.5,-81 573.04,-72.15 550.1,-90.36 483.5,-63 473.55,-58.91 474.35,-52.34 464.5,-48 440.79,-37.55 377.35,-28.34 329.01,-22.52"/>
<polygon fill="black" stroke="black" points="329.29,-19.02 318.95,-21.33 328.47,-25.98 329.29,-19.02"/>
<text text-anchor="middle" x="515.5" y="-51.8" font-family="Times-Roman" font-size="14.00">«include»</text>
</g>
<!-- usbs -->
<g id="node19" class="node">
<title>usbs</title>
<polygon fill="white" stroke="black" stroke-width="2" points="1151.5,-30 1051.5,-30 1051.5,0 1151.5,0 1151.5,-30"/>
<text text-anchor="middle" x="1101.5" y="-11.3" font-family="Times-Roman" font-size="14.00">usbs</text>
</g>
<!-- pcbs&#45;&gt;usbs -->
<g id="edge11" class="edge">
<title>pcbs&#45;&gt;usbs</title>
<path fill="none" stroke="black" d="M797.92,-93.03C849.25,-89.99 930.69,-82.31 998.5,-63 1022.38,-56.2 1047.77,-44.66 1067.37,-34.73"/>
<polygon fill="black" stroke="black" points="1069.22,-37.71 1076.5,-30 1066.01,-31.49 1069.22,-37.71"/>
<text text-anchor="middle" x="1070.5" y="-51.8" font-family="Times-Roman" font-size="14.00">«include»</text>
</g>
<!-- psus -->
<g id="node13" class="node">
<title>psus</title>
<polygon fill="white" stroke="black" stroke-width="2" points="275.5,-111 175.5,-111 175.5,-81 275.5,-81 275.5,-111"/>
<text text-anchor="middle" x="225.5" y="-92.3" font-family="Times-Roman" font-size="14.00">psus</text>
</g>
<!-- psus&#45;&gt;screw -->
<g id="edge12" class="edge">
<title>psus&#45;&gt;screw</title>
<path fill="none" stroke="black" d="M222.69,-80.65C221.5,-70.91 221.39,-58.04 226.5,-48 228.57,-43.94 231.41,-40.25 234.66,-36.93"/>
<polygon fill="black" stroke="black" points="237.03,-39.51 242.26,-30.3 232.43,-34.24 237.03,-39.51"/>
<text text-anchor="middle" x="258.5" y="-51.8" font-family="Times-Roman" font-size="14.00">«include»</text>
</g>
<!-- sata&#45;adapters -->
<g id="node14" class="node">
<title>sata&#45;adapters</title>
<polygon fill="white" stroke="black" stroke-width="2" points="635.5,-111 529.5,-111 529.5,-81 635.5,-81 635.5,-111"/>
<text text-anchor="middle" x="582.5" y="-92.3" font-family="Times-Roman" font-size="14.00">sata&#45;adapters</text>
</g>
<!-- sata&#45;adapters&#45;&gt;sata -->
<g id="edge13" class="edge">
<title>sata&#45;adapters&#45;&gt;sata</title>
<path fill="none" stroke="black" d="M576.3,-80.81C571.08,-70.37 562.66,-56.57 551.5,-48 540.95,-39.9 528.25,-33.79 515.58,-29.21"/>
<polygon fill="black" stroke="black" points="516.54,-25.84 505.94,-25.99 514.32,-32.48 516.54,-25.84"/>
<text text-anchor="middle" x="596.5" y="-51.8" font-family="Times-Roman" font-size="14.00">«include»</text>
</g>
<!-- spdts -->
<g id="node17" class="node">
<title>spdts</title>
<polygon fill="white" stroke="black" stroke-width="2" points="896.5,-192 796.5,-192 796.5,-162 896.5,-162 896.5,-192"/>
<text text-anchor="middle" x="846.5" y="-173.3" font-family="Times-Roman" font-size="14.00">spdts</text>
</g>
<!-- template -->
<g id="node18" class="node">
<title>template</title>
<polygon fill="white" stroke="black" stroke-width="2" points="1014.5,-192 914.5,-192 914.5,-162 1014.5,-162 1014.5,-192"/>
<text text-anchor="middle" x="964.5" y="-173.3" font-family="Times-Roman" font-size="14.00">template</text>
</g>
</g>
</svg>
