<?xml version="1.0" encoding="UTF-8" standalone="no"?>
<!DOCTYPE svg PUBLIC "-//W3C//DTD SVG 1.1//EN"
 "http://www.w3.org/Graphics/SVG/1.1/DTD/svg11.dtd">
<!-- Generated by graphviz version 2.44.0 (0)
 -->
<!-- Title: vitamins Pages: 1 -->
<svg width="1251pt" height="200pt"
 viewBox="0.00 0.00 1250.50 200.00" xmlns="http://www.w3.org/2000/svg" xmlns:xlink="http://www.w3.org/1999/xlink">
<g id="graph0" class="graph" transform="scale(1 1) rotate(0) translate(4 196)">
<title>vitamins</title>
<polygon fill="white" stroke="transparent" points="-4,4 -4,-196 1246.5,-196 1246.5,4 -4,4"/>
<!-- countersinks -->
<g id="node1" class="node">
<title>countersinks</title>
<polygon fill="white" stroke="black" stroke-width="2" points="103,-30 0,-30 0,0 103,0 103,-30"/>
<text text-anchor="middle" x="51.5" y="-11.3" font-family="Times-Roman" font-size="14.00">countersinks</text>
</g>
<!-- ethers -->
<g id="node2" class="node">
<title>ethers</title>
<polygon fill="white" stroke="black" stroke-width="2" points="770.5,-30 670.5,-30 670.5,0 770.5,0 770.5,-30"/>
<text text-anchor="middle" x="720.5" y="-11.3" font-family="Times-Roman" font-size="14.00">ethers</text>
</g>
<!-- hdmi -->
<g id="node3" class="node">
<title>hdmi</title>
<polygon fill="white" stroke="black" stroke-width="2" points="888.5,-30 788.5,-30 788.5,0 888.5,0 888.5,-30"/>
<text text-anchor="middle" x="838.5" y="-11.3" font-family="Times-Roman" font-size="14.00">hdmi</text>
</g>
<!-- hds -->
<g id="node4" class="node">
<title>hds</title>
<polygon fill="white" stroke="black" stroke-width="2" points="407.5,-111 307.5,-111 307.5,-81 407.5,-81 407.5,-111"/>
<text text-anchor="middle" x="357.5" y="-92.3" font-family="Times-Roman" font-size="14.00">hds</text>
</g>
<!-- sata -->
<g id="node15" class="node">
<title>sata</title>
<polygon fill="white" stroke="black" stroke-width="2" points="318.5,-30 218.5,-30 218.5,0 318.5,0 318.5,-30"/>
<text text-anchor="middle" x="268.5" y="-11.3" font-family="Times-Roman" font-size="14.00">sata</text>
</g>
<!-- hds&#45;&gt;sata -->
<g id="edge1" class="edge">
<title>hds&#45;&gt;sata</title>
<path fill="none" stroke="black" d="M336.32,-80.76C328.88,-75.46 320.61,-69.21 313.5,-63 304.6,-55.23 295.46,-45.96 287.77,-37.72"/>
<polygon fill="black" stroke="black" points="290.22,-35.22 280.88,-30.21 285.06,-39.95 290.22,-35.22"/>
<text text-anchor="middle" x="345.5" y="-51.8" font-family="Times-Roman" font-size="14.00">«include»</text>
</g>
<!-- screw -->
<g id="node16" class="node">
<title>screw</title>
<polygon fill="white" stroke="black" stroke-width="2" points="536.5,-30 436.5,-30 436.5,0 536.5,0 536.5,-30"/>
<text text-anchor="middle" x="486.5" y="-11.3" font-family="Times-Roman" font-size="14.00">screw</text>
</g>
<!-- hds&#45;&gt;screw -->
<g id="edge2" class="edge">
<title>hds&#45;&gt;screw</title>
<path fill="none" stroke="black" d="M373.56,-80.75C385.24,-70.82 401.7,-57.67 417.5,-48 425.44,-43.14 434.24,-38.53 442.82,-34.4"/>
<polygon fill="black" stroke="black" points="444.42,-37.52 452,-30.12 441.46,-31.17 444.42,-37.52"/>
<text text-anchor="middle" x="449.5" y="-51.8" font-family="Times-Roman" font-size="14.00">«include»</text>
</g>
<!-- heatsink -->
<g id="node5" class="node">
<title>heatsink</title>
<polygon fill="white" stroke="black" stroke-width="2" points="653.5,-111 553.5,-111 553.5,-81 653.5,-81 653.5,-111"/>
<text text-anchor="middle" x="603.5" y="-92.3" font-family="Times-Roman" font-size="14.00">heatsink</text>
</g>
<!-- heatsinks -->
<g id="node6" class="node">
<title>heatsinks</title>
<polygon fill="white" stroke="black" stroke-width="2" points="684.5,-192 584.5,-192 584.5,-162 684.5,-162 684.5,-192"/>
<text text-anchor="middle" x="634.5" y="-173.3" font-family="Times-Roman" font-size="14.00">heatsinks</text>
</g>
<!-- heatsinks&#45;&gt;heatsink -->
<g id="edge15" class="edge">
<title>heatsinks&#45;&gt;heatsink</title>
<path fill="none" stroke="red" stroke-width="2" d="M628.96,-161.88C624.46,-150.42 618.03,-134.02 612.75,-120.57"/>
<polygon fill="red" stroke="red" stroke-width="2" points="615.91,-119.03 608.99,-111 609.39,-121.59 615.91,-119.03"/>
<text text-anchor="middle" x="641.5" y="-132.8" font-family="Times-Roman" font-size="14.00">«use»</text>
</g>
<!-- pcbs -->
<g id="node11" class="node">
<title>pcbs</title>
<polygon fill="white" stroke="black" stroke-width="2" points="889.5,-111 789.5,-111 789.5,-81 889.5,-81 889.5,-111"/>
<text text-anchor="middle" x="839.5" y="-92.3" font-family="Times-Roman" font-size="14.00">pcbs</text>
</g>
<!-- heatsinks&#45;&gt;pcbs -->
<g id="edge3" class="edge">
<title>heatsinks&#45;&gt;pcbs</title>
<path fill="none" stroke="black" d="M671.15,-161.88C705.4,-148.68 756.67,-128.92 793.63,-114.68"/>
<polygon fill="black" stroke="black" points="795.09,-117.86 803.17,-111 792.58,-111.33 795.09,-117.86"/>
<text text-anchor="middle" x="786.5" y="-132.8" font-family="Times-Roman" font-size="14.00">«include»</text>
</g>
<!-- jacks -->
<g id="node7" class="node">
<title>jacks</title>
<polygon fill="white" stroke="black" stroke-width="2" points="1006.5,-30 906.5,-30 906.5,0 1006.5,0 1006.5,-30"/>
<text text-anchor="middle" x="956.5" y="-11.3" font-family="Times-Roman" font-size="14.00">jacks</text>
</g>
<!-- knurl_nuts -->
<g id="node8" class="node">
<title>knurl_nuts</title>
<polygon fill="white" stroke="black" stroke-width="2" points="771.5,-111 671.5,-111 671.5,-81 771.5,-81 771.5,-111"/>
<text text-anchor="middle" x="721.5" y="-92.3" font-family="Times-Roman" font-size="14.00">knurl_nuts</text>
</g>
<!-- knurl_nuts&#45;&gt;screw -->
<g id="edge4" class="edge">
<title>knurl_nuts&#45;&gt;screw</title>
<path fill="none" stroke="black" d="M671.31,-83C668.33,-82.32 665.38,-81.65 662.5,-81 624.82,-72.54 613.31,-77.45 577.5,-63 565.84,-58.29 564.53,-54.05 553.5,-48 545.03,-43.35 535.78,-38.68 526.92,-34.4"/>
<polygon fill="black" stroke="black" points="528.42,-31.24 517.89,-30.1 525.41,-37.56 528.42,-31.24"/>
<text text-anchor="middle" x="609.5" y="-51.8" font-family="Times-Roman" font-size="14.00">«include»</text>
</g>
<!-- magnets -->
<g id="node9" class="node">
<title>magnets</title>
<polygon fill="white" stroke="black" stroke-width="2" points="128.5,-111 28.5,-111 28.5,-81 128.5,-81 128.5,-111"/>
<text text-anchor="middle" x="78.5" y="-92.3" font-family="Times-Roman" font-size="14.00">magnets</text>
</g>
<!-- magnets&#45;&gt;countersinks -->
<g id="edge5" class="edge">
<title>magnets&#45;&gt;countersinks</title>
<path fill="none" stroke="black" d="M63.5,-80.68C59.12,-75.56 54.87,-69.45 52.5,-63 49.86,-55.81 49.02,-47.58 49.02,-40.04"/>
<polygon fill="black" stroke="black" points="52.52,-40.16 49.47,-30.01 45.52,-39.85 52.52,-40.16"/>
<text text-anchor="middle" x="84.5" y="-51.8" font-family="Times-Roman" font-size="14.00">«include»</text>
</g>
<!-- magnets&#45;&gt;screw -->
<g id="edge6" class="edge">
<title>magnets&#45;&gt;screw</title>
<path fill="none" stroke="black" d="M96.05,-80.88C110.74,-69.89 132.74,-55.33 154.5,-48 160.86,-45.86 331.96,-30.05 425.98,-21.48"/>
<polygon fill="black" stroke="black" points="426.57,-24.94 436.22,-20.55 425.94,-17.97 426.57,-24.94"/>
<text text-anchor="middle" x="186.5" y="-51.8" font-family="Times-Roman" font-size="14.00">«include»</text>
</g>
<!-- pcb_holder -->
<g id="node10" class="node">
<title>pcb_holder</title>
<polygon fill="white" stroke="black" stroke-width="2" points="802.5,-192 702.5,-192 702.5,-162 802.5,-162 802.5,-192"/>
<text text-anchor="middle" x="752.5" y="-173.3" font-family="Times-Roman" font-size="14.00">pcb_holder</text>
</g>
<!-- pcbs&#45;&gt;ethers -->
<g id="edge7" class="edge">
<title>pcbs&#45;&gt;ethers</title>
<path fill="none" stroke="black" d="M803.58,-80.96C792.56,-75.98 780.67,-69.88 770.5,-63 759.66,-55.67 748.92,-45.98 740.19,-37.3"/>
<polygon fill="black" stroke="black" points="742.57,-34.73 733.08,-30.02 737.56,-39.62 742.57,-34.73"/>
<text text-anchor="middle" x="802.5" y="-51.8" font-family="Times-Roman" font-size="14.00">«include»</text>
</g>
<!-- pcbs&#45;&gt;hdmi -->
<g id="edge8" class="edge">
<title>pcbs&#45;&gt;hdmi</title>
<path fill="none" stroke="black" d="M839.32,-80.88C839.18,-69.64 838.98,-53.66 838.81,-40.37"/>
<polygon fill="black" stroke="black" points="842.3,-39.96 838.68,-30 835.3,-40.04 842.3,-39.96"/>
<text text-anchor="middle" x="870.5" y="-51.8" font-family="Times-Roman" font-size="14.00">«include»</text>
</g>
<!-- pcbs&#45;&gt;jacks -->
<g id="edge9" class="edge">
<title>pcbs&#45;&gt;jacks</title>
<path fill="none" stroke="black" d="M874.02,-80.99C884.81,-75.97 896.5,-69.84 906.5,-63 917.15,-55.72 927.73,-46.18 936.4,-37.61"/>
<polygon fill="black" stroke="black" points="938.97,-39.99 943.48,-30.4 933.98,-35.08 938.97,-39.99"/>
<text text-anchor="middle" x="955.5" y="-51.8" font-family="Times-Roman" font-size="14.00">«include»</text>
</g>
<!-- pin_headers -->
<g id="node12" class="node">
<title>pin_headers</title>
<polygon fill="white" stroke="black" stroke-width="2" points="1124.5,-30 1024.5,-30 1024.5,0 1124.5,0 1124.5,-30"/>
<text text-anchor="middle" x="1074.5" y="-11.3" font-family="Times-Roman" font-size="14.00">pin_headers</text>
</g>
<!-- pcbs&#45;&gt;pin_headers -->
<g id="edge10" class="edge">
<title>pcbs&#45;&gt;pin_headers</title>
<path fill="none" stroke="black" d="M889.54,-88.44C919.72,-83.52 958.58,-75.44 991.5,-63 1010.28,-55.9 1029.88,-44.99 1045.32,-35.47"/>
<polygon fill="black" stroke="black" points="1047.3,-38.35 1053.89,-30.06 1043.56,-32.43 1047.3,-38.35"/>
<text text-anchor="middle" x="1053.5" y="-51.8" font-family="Times-Roman" font-size="14.00">«include»</text>
</g>
<!-- pcbs&#45;&gt;screw -->
<g id="edge11" class="edge">
<title>pcbs&#45;&gt;screw</title>
<path fill="none" stroke="black" d="M789.32,-82.92C786.34,-82.26 783.38,-81.61 780.5,-81 738.04,-71.99 726.45,-74.18 684.5,-63 664.94,-57.79 661.01,-53.39 641.5,-48 610.58,-39.46 575.63,-32.05 546.75,-26.52"/>
<polygon fill="black" stroke="black" points="547.29,-23.06 536.81,-24.65 545.99,-29.94 547.29,-23.06"/>
<text text-anchor="middle" x="716.5" y="-51.8" font-family="Times-Roman" font-size="14.00">«include»</text>
</g>
<!-- usbs -->
<g id="node19" class="node">
<title>usbs</title>
<polygon fill="white" stroke="black" stroke-width="2" points="1242.5,-30 1142.5,-30 1142.5,0 1242.5,0 1242.5,-30"/>
<text text-anchor="middle" x="1192.5" y="-11.3" font-family="Times-Roman" font-size="14.00">usbs</text>
</g>
<!-- pcbs&#45;&gt;usbs -->
<g id="edge12" class="edge">
<title>pcbs&#45;&gt;usbs</title>
<path fill="none" stroke="black" d="M889.72,-93C940.84,-89.94 1021.96,-82.25 1089.5,-63 1113.22,-56.24 1138.43,-44.82 1157.97,-34.92"/>
<polygon fill="black" stroke="black" points="1159.8,-37.92 1167.08,-30.22 1156.59,-31.7 1159.8,-37.92"/>
<text text-anchor="middle" x="1161.5" y="-51.8" font-family="Times-Roman" font-size="14.00">«include»</text>
</g>
<!-- psus -->
<g id="node13" class="node">
<title>psus</title>
<polygon fill="white" stroke="black" stroke-width="2" points="535.5,-111 435.5,-111 435.5,-81 535.5,-81 535.5,-111"/>
<text text-anchor="middle" x="485.5" y="-92.3" font-family="Times-Roman" font-size="14.00">psus</text>
</g>
<!-- psus&#45;&gt;screw -->
<g id="edge13" class="edge">
<title>psus&#45;&gt;screw</title>
<path fill="none" stroke="black" d="M485.68,-80.88C485.82,-69.64 486.02,-53.66 486.19,-40.37"/>
<polygon fill="black" stroke="black" points="489.7,-40.04 486.32,-30 482.7,-39.96 489.7,-40.04"/>
<text text-anchor="middle" x="517.5" y="-51.8" font-family="Times-Roman" font-size="14.00">«include»</text>
</g>
<!-- sata&#45;adapters -->
<g id="node14" class="node">
<title>sata&#45;adapters</title>
<polygon fill="white" stroke="black" stroke-width="2" points="278.5,-111 172.5,-111 172.5,-81 278.5,-81 278.5,-111"/>
<text text-anchor="middle" x="225.5" y="-92.3" font-family="Times-Roman" font-size="14.00">sata&#45;adapters</text>
</g>
<!-- sata&#45;adapters&#45;&gt;sata -->
<g id="edge14" class="edge">
<title>sata&#45;adapters&#45;&gt;sata</title>
<path fill="none" stroke="black" d="M222.69,-80.65C221.5,-70.91 221.39,-58.04 226.5,-48 228.57,-43.94 231.41,-40.25 234.66,-36.93"/>
<polygon fill="black" stroke="black" points="237.03,-39.51 242.26,-30.3 232.43,-34.24 237.03,-39.51"/>
<text text-anchor="middle" x="258.5" y="-51.8" font-family="Times-Roman" font-size="14.00">«include»</text>
</g>
<!-- spdts -->
<g id="node17" class="node">
<title>spdts</title>
<polygon fill="white" stroke="black" stroke-width="2" points="920.5,-192 820.5,-192 820.5,-162 920.5,-162 920.5,-192"/>
<text text-anchor="middle" x="870.5" y="-173.3" font-family="Times-Roman" font-size="14.00">spdts</text>
</g>
<!-- template -->
<g id="node18" class="node">
<title>template</title>
<polygon fill="white" stroke="black" stroke-width="2" points="1038.5,-192 938.5,-192 938.5,-162 1038.5,-162 1038.5,-192"/>
<text text-anchor="middle" x="988.5" y="-173.3" font-family="Times-Roman" font-size="14.00">template</text>
</g>
</g>
</svg>
