<?xml version="1.0" standalone="no"?>
<!DOCTYPE svg PUBLIC "-//W3C//DTD SVG 1.1//EN" "http://www.w3.org/Graphics/SVG/1.1/DTD/svg11.dtd">
<svg width="156mm" height="103mm" viewBox="-143 -17 156 103" xmlns="http://www.w3.org/2000/svg" version="1.1">
<title>OpenSCAD Model</title>
<path d="
M -136.427,85.5039 L -135.705,85.3975 L -135.002,85.2051 L -134.328,84.9287 L 0,16.25 L 0,16.2421
 L 9.10116,16.2421 L 9.59953,16.1791 L 10.0861,16.0542 L 10.5531,15.8693 L 10.9933,15.6273 L 11.3997,15.3321
 L 11.7659,14.9882 L 12.0861,14.6011 L 12.3552,14.177 L 12.5691,13.7225 L 12.7243,13.2448 L 12.8185,12.7513
 L 12.85,12.25 L 12.8475,10.248 L 0.687209,10.248 L 0.562618,10.2323 L 0.440983,10.2011 L 0.324221,10.1548
 L 0.214172,10.0943 L 0.112576,10.0205 L 0.0210304,9.93455 L 0,9.90913 L 0,-9.90913 L 0.0210304,-9.93455
 L 0.112576,-10.0205 L 0.214172,-10.0943 L 0.324221,-10.1548 L 0.440983,-10.2011 L 0.562618,-10.2323 L 0.687209,-10.248
 L 12.8216,-10.248 L 12.8185,-12.7513 L 12.7243,-13.2448 L 12.5691,-13.7225 L 12.3552,-14.177 L 12.0861,-14.6011
 L 11.7659,-14.9882 L 11.3997,-15.3321 L 10.9933,-15.6273 L 10.5531,-15.8693 L 10.0861,-16.0542 L 9.59953,-16.1791
 L 9.10116,-16.2421 L 0,-16.2421 L 0,-16.25 L -8.41016,-16.25 L -9.19336,-16.2119 L -9.96973,-16.0967
 L -10.7305,-15.9062 L -11.4688,-15.6416 L -42.6436,-2.74023 L -43.5557,-2.38867 L -44.418,-1.92773 L -45.2178,-1.36523
 L -140.678,74.8398 L -141.219,75.3281 L -141.696,75.8779 L -142.104,76.4824 L -142.436,77.1318 L -142.686,77.8164
 L -142.851,78.5264 L -142.929,79.251 L -142.918,79.9795 L -142.819,80.7021 L -142.633,81.4062 L -142.363,82.083
 L -142.014,82.7227 L -141.588,83.3145 L -141.095,83.8506 L -140.539,84.3232 L -139.932,84.7246 L -139.279,85.0498
 L -138.592,85.293 L -137.88,85.4512 L -137.155,85.5215 z
M 3.47151,-12.0025 L 3.31577,-12.0221 L 3.16373,-12.0612 L 3.01778,-12.119 L 2.88022,-12.1946 L 2.75322,-12.2869
 L 2.63879,-12.3943 L 2.53873,-12.5153 L 2.45462,-12.6478 L 2.38778,-12.7898 L 2.33927,-12.9391 L 2.30986,-13.0933
 L 2.3,-13.25 L 2.30986,-13.4067 L 2.33927,-13.5609 L 2.38778,-13.7102 L 2.45462,-13.8522 L 2.53873,-13.9847
 L 2.63879,-14.1057 L 2.75322,-14.2131 L 2.88022,-14.3054 L 3.01778,-14.381 L 3.16373,-14.4388 L 3.31577,-14.4779
 L 3.47151,-14.4975 L 3.62849,-14.4975 L 3.78423,-14.4779 L 3.93627,-14.4388 L 4.08222,-14.381 L 4.21978,-14.3054
 L 4.34678,-14.2131 L 4.46121,-14.1057 L 4.56127,-13.9847 L 4.64538,-13.8522 L 4.71222,-13.7102 L 4.76073,-13.5609
 L 4.79014,-13.4067 L 4.8,-13.25 L 4.79014,-13.0933 L 4.76073,-12.9391 L 4.71222,-12.7898 L 4.64538,-12.6478
 L 4.56127,-12.5153 L 4.46121,-12.3943 L 4.34678,-12.2869 L 4.21978,-12.1946 L 4.08222,-12.119 L 3.93627,-12.0612
 L 3.78423,-12.0221 L 3.62849,-12.0025 z
M -3.07849,1.24753 L -3.23423,1.22786 L -3.38627,1.18882 L -3.53222,1.13103 L -3.66978,1.05541 L -3.79678,0.963141
 L -3.91121,0.855683 L -4.01127,0.734731 L -4.09538,0.602192 L -4.16222,0.460155 L -4.21073,0.310862 L -4.24014,0.156666
 L -4.25,-0 L -4.24014,-0.156666 L -4.21073,-0.310862 L -4.16222,-0.460155 L -4.09538,-0.602192 L -4.01127,-0.734731
 L -3.91121,-0.855683 L -3.79678,-0.963141 L -3.66978,-1.05541 L -3.53222,-1.13103 L -3.38627,-1.18882 L -3.23423,-1.22786
 L -3.07849,-1.24753 L -2.92151,-1.24753 L -2.76577,-1.22786 L -2.61373,-1.18882 L -2.46778,-1.13103 L -2.33022,-1.05541
 L -2.20322,-0.963141 L -2.08879,-0.855683 L -1.98873,-0.734731 L -1.90462,-0.602192 L -1.83778,-0.460155 L -1.78927,-0.310862
 L -1.75986,-0.156666 L -1.75,-0 L -1.75986,0.156666 L -1.78927,0.310862 L -1.83778,0.460155 L -1.90462,0.602192
 L -1.98873,0.734731 L -2.08879,0.855683 L -2.20322,0.963141 L -2.33022,1.05541 L -2.46778,1.13103 L -2.61373,1.18882
 L -2.76577,1.22786 L -2.92151,1.24753 z
M 3.47151,14.4975 L 3.31577,14.4779 L 3.16373,14.4388 L 3.01778,14.381 L 2.88022,14.3054 L 2.75322,14.2131
 L 2.63879,14.1057 L 2.53873,13.9847 L 2.45462,13.8522 L 2.38778,13.7102 L 2.33927,13.5609 L 2.30986,13.4067
 L 2.3,13.25 L 2.30986,13.0933 L 2.33927,12.9391 L 2.38778,12.7898 L 2.45462,12.6478 L 2.53873,12.5153
 L 2.63879,12.3943 L 2.75322,12.2869 L 2.88022,12.1946 L 3.01778,12.119 L 3.16373,12.0612 L 3.31577,12.0221
 L 3.47151,12.0025 L 3.62849,12.0025 L 3.78423,12.0221 L 3.93627,12.0612 L 4.08222,12.119 L 4.21978,12.1946
 L 4.34678,12.2869 L 4.46121,12.3943 L 4.56127,12.5153 L 4.64538,12.6478 L 4.71222,12.7898 L 4.76073,12.9391
 L 4.79014,13.0933 L 4.8,13.25 L 4.79014,13.4067 L 4.76073,13.5609 L 4.71222,13.7102 L 4.64538,13.8522
 L 4.56127,13.9847 L 4.46121,14.1057 L 4.34678,14.2131 L 4.21978,14.3054 L 4.08222,14.381 L 3.93627,14.4388
 L 3.78423,14.4779 L 3.62849,14.4975 z
M -137.06,81.5254 L -137.309,81.4932 L -137.552,81.4307 L -137.785,81.3389 L -138.006,81.2178 L -138.209,81.0703
 L -138.392,80.8984 L -138.552,80.7041 L -138.687,80.4922 L -138.794,80.2656 L -138.871,80.0264 L -138.918,79.7793
 L -138.934,79.5293 L -138.918,79.2783 L -138.871,79.0312 L -138.794,78.793 L -138.687,78.5654 L -138.552,78.3535
 L -138.392,78.1602 L -138.209,77.9883 L -138.006,77.8398 L -137.785,77.7197 L -137.552,77.627 L -137.309,77.5645
 L -137.06,77.5332 L -136.809,77.5332 L -136.56,77.5645 L -136.315,77.627 L -136.082,77.7197 L -135.862,77.8398
 L -135.659,77.9883 L -135.476,78.1602 L -135.315,78.3535 L -135.182,78.5654 L -135.074,78.793 L -134.997,79.0312
 L -134.949,79.2783 L -134.934,79.5293 L -134.949,79.7793 L -134.997,80.0264 L -135.074,80.2656 L -135.182,80.4922
 L -135.315,80.7041 L -135.476,80.8984 L -135.659,81.0703 L -135.862,81.2178 L -136.082,81.3389 L -136.315,81.4307
 L -136.56,81.4932 L -136.809,81.5254 z
" stroke="black" fill="lightgray" stroke-width="0.5"/>
</svg>
