<?xml version="1.0" encoding="UTF-8" standalone="no"?>
<!DOCTYPE svg PUBLIC "-//W3C//DTD SVG 1.1//EN"
 "http://www.w3.org/Graphics/SVG/1.1/DTD/svg11.dtd">
<!-- Generated by graphviz version 8.1.0 (20230707.0739)
 -->
<!-- Title: foundation Pages: 1 -->
<svg width="819pt" height="464pt"
 viewBox="0.00 0.00 819.25 464.00" xmlns="http://www.w3.org/2000/svg" xmlns:xlink="http://www.w3.org/1999/xlink">
<g id="graph0" class="graph" transform="scale(1 1) rotate(0) translate(4 460)">
<title>foundation</title>
<polygon fill="white" stroke="none" points="-4,4 -4,-460 815.25,-460 815.25,4 -4,4"/>
<!-- 2d&#45;engine -->
<g id="node1" class="node">
<title>2d&#45;engine</title>
<polygon fill="white" stroke="black" stroke-width="2" points="343,-208.5 243,-208.5 243,-178.5 343,-178.5 343,-208.5"/>
<text text-anchor="middle" x="293" y="-188.45" font-family="Times,serif" font-size="14.00">2d&#45;engine</text>
</g>
<!-- bbox&#45;engine -->
<g id="node4" class="node">
<title>bbox&#45;engine</title>
<polygon fill="white" stroke="black" stroke-width="2" points="184,-112.5 84,-112.5 84,-82.5 184,-82.5 184,-112.5"/>
<text text-anchor="middle" x="134" y="-92.45" font-family="Times,serif" font-size="14.00">bbox&#45;engine</text>
</g>
<!-- 2d&#45;engine&#45;&gt;bbox&#45;engine -->
<g id="edge21" class="edge">
<title>2d&#45;engine&#45;&gt;bbox&#45;engine</title>
<path fill="none" stroke="red" stroke-width="2" d="M267.73,-177.62C259.25,-172.42 249.84,-166.39 241.5,-160.5 224.07,-148.18 222.18,-141.69 204,-130.5 197.36,-126.41 190.11,-122.53 182.87,-118.96"/>
<polygon fill="red" stroke="red" stroke-width="2" points="183.75,-115.56 173.21,-114.46 180.76,-121.89 183.75,-115.56"/>
<text text-anchor="middle" x="257.75" y="-140.45" font-family="Times,serif" font-size="14.00">«use»</text>
</g>
<!-- mngm&#45;engine -->
<g id="node14" class="node">
<title>mngm&#45;engine</title>
<polygon fill="white" stroke="black" stroke-width="2" points="538,-112.5 438,-112.5 438,-82.5 538,-82.5 538,-112.5"/>
<text text-anchor="middle" x="488" y="-92.45" font-family="Times,serif" font-size="14.00">mngm&#45;engine</text>
</g>
<!-- 2d&#45;engine&#45;&gt;mngm&#45;engine -->
<g id="edge20" class="edge">
<title>2d&#45;engine&#45;&gt;mngm&#45;engine</title>
<path fill="none" stroke="red" stroke-width="2" d="M323.9,-177.61C356.75,-161.77 408.92,-136.62 445.6,-118.94"/>
<polygon fill="red" stroke="red" stroke-width="2" points="447.44,-121.98 454.92,-114.48 444.4,-115.67 447.44,-121.98"/>
<text text-anchor="middle" x="434.75" y="-140.45" font-family="Times,serif" font-size="14.00">«use»</text>
</g>
<!-- unsafe_defs -->
<g id="node18" class="node">
<title>unsafe_defs</title>
<polygon fill="white" stroke="black" stroke-width="2" points="420,-112.5 320,-112.5 320,-82.5 420,-82.5 420,-112.5"/>
<text text-anchor="middle" x="370" y="-92.45" font-family="Times,serif" font-size="14.00">unsafe_defs</text>
</g>
<!-- 2d&#45;engine&#45;&gt;unsafe_defs -->
<g id="edge1" class="edge">
<title>2d&#45;engine&#45;&gt;unsafe_defs</title>
<path fill="none" stroke="black" d="M284.58,-177.65C278.19,-164.18 272.02,-144.38 281.75,-130.5 285.66,-124.92 296.45,-119.57 309.19,-114.89"/>
<polygon fill="black" stroke="black" points="309.91,-118 318.24,-111.45 307.64,-111.38 309.91,-118"/>
<text text-anchor="middle" x="308.63" y="-140.45" font-family="Times,serif" font-size="14.00">«include»</text>
</g>
<!-- 3d&#45;engine -->
<g id="node2" class="node">
<title>3d&#45;engine</title>
<polygon fill="white" stroke="black" stroke-width="2" points="454,-291 354,-291 354,-261 454,-261 454,-291"/>
<text text-anchor="middle" x="404" y="-270.95" font-family="Times,serif" font-size="14.00">3d&#45;engine</text>
</g>
<!-- 3d&#45;engine&#45;&gt;2d&#45;engine -->
<g id="edge22" class="edge">
<title>3d&#45;engine&#45;&gt;2d&#45;engine</title>
<path fill="none" stroke="red" stroke-width="2" d="M382.63,-260.13C374.99,-254.77 366.33,-248.65 358.5,-243 346.97,-234.68 334.4,-225.42 323.38,-217.23"/>
<polygon fill="red" stroke="red" stroke-width="2" points="325.08,-213.65 314.97,-210.49 320.9,-219.27 325.08,-213.65"/>
<text text-anchor="middle" x="373.75" y="-229.7" font-family="Times,serif" font-size="14.00">«use»</text>
</g>
<!-- 3d&#45;engine&#45;&gt;bbox&#45;engine -->
<g id="edge23" class="edge">
<title>3d&#45;engine&#45;&gt;bbox&#45;engine</title>
<path fill="none" stroke="red" stroke-width="2" d="M353.26,-271.21C307.81,-265.15 242.34,-249.4 202.5,-208.5 177.24,-182.57 200.11,-159.91 179,-130.5 176.67,-127.26 173.91,-124.22 170.92,-121.41"/>
<polygon fill="red" stroke="red" stroke-width="2" points="172.79,-117.81 162.82,-114.23 168.38,-123.25 172.79,-117.81"/>
<text text-anchor="middle" x="218.75" y="-188.45" font-family="Times,serif" font-size="14.00">«use»</text>
</g>
<!-- 3d&#45;engine&#45;&gt;mngm&#45;engine -->
<g id="edge24" class="edge">
<title>3d&#45;engine&#45;&gt;mngm&#45;engine</title>
<path fill="none" stroke="red" stroke-width="2" d="M420.04,-260.09C432.67,-247.49 449.79,-228.37 460,-208.5 473.49,-182.25 480.78,-149.06 484.5,-126.04"/>
<polygon fill="red" stroke="red" stroke-width="2" points="488.36,-125.89 486.35,-115.49 481.43,-124.87 488.36,-125.89"/>
<text text-anchor="middle" x="486.75" y="-188.45" font-family="Times,serif" font-size="14.00">«use»</text>
</g>
<!-- type_trait -->
<g id="node17" class="node">
<title>type_trait</title>
<polygon fill="white" stroke="black" stroke-width="2" points="618,-160.5 518,-160.5 518,-130.5 618,-130.5 618,-160.5"/>
<text text-anchor="middle" x="568" y="-140.45" font-family="Times,serif" font-size="14.00">type_trait</text>
</g>
<!-- 3d&#45;engine&#45;&gt;type_trait -->
<g id="edge3" class="edge">
<title>3d&#45;engine&#45;&gt;type_trait</title>
<path fill="none" stroke="black" d="M454.76,-266.71C472.58,-261.95 491.89,-254.54 507,-243 531.37,-224.39 548.56,-193.04 558.35,-171.14"/>
<polygon fill="black" stroke="black" points="561.87,-172.81 562.56,-162.24 555.42,-170.07 561.87,-172.81"/>
<text text-anchor="middle" x="549.63" y="-229.7" font-family="Times,serif" font-size="14.00">«include»</text>
</g>
<!-- 3d&#45;engine&#45;&gt;unsafe_defs -->
<g id="edge2" class="edge">
<title>3d&#45;engine&#45;&gt;unsafe_defs</title>
<path fill="none" stroke="black" d="M404.76,-260.18C405.66,-233.48 405.41,-175.84 390,-130.5 389.11,-127.89 387.98,-125.28 386.71,-122.74"/>
<polygon fill="black" stroke="black" points="389.34,-121.3 381.3,-114.4 383.28,-124.8 389.34,-121.3"/>
<text text-anchor="middle" x="429.63" y="-188.45" font-family="Times,serif" font-size="14.00">«include»</text>
</g>
<!-- algo&#45;engine -->
<g id="node3" class="node">
<title>algo&#45;engine</title>
<polygon fill="white" stroke="black" stroke-width="2" points="100,-373.5 0,-373.5 0,-343.5 100,-343.5 100,-373.5"/>
<text text-anchor="middle" x="50" y="-353.45" font-family="Times,serif" font-size="14.00">algo&#45;engine</text>
</g>
<!-- algo&#45;engine&#45;&gt;3d&#45;engine -->
<g id="edge4" class="edge">
<title>algo&#45;engine&#45;&gt;3d&#45;engine</title>
<path fill="none" stroke="black" d="M81.06,-342.56C105.03,-331.64 139.3,-317.34 170.75,-309 227.93,-293.84 295.01,-285.6 342.51,-281.29"/>
<polygon fill="black" stroke="black" points="342.59,-284.71 352.25,-280.35 341.98,-277.74 342.59,-284.71"/>
<text text-anchor="middle" x="197.63" y="-312.2" font-family="Times,serif" font-size="14.00">«include»</text>
</g>
<!-- core -->
<g id="node7" class="node">
<title>core</title>
<polygon fill="white" stroke="black" stroke-width="2" points="420,-30 320,-30 320,0 420,0 420,-30"/>
<text text-anchor="middle" x="370" y="-9.95" font-family="Times,serif" font-size="14.00">core</text>
</g>
<!-- bbox&#45;engine&#45;&gt;core -->
<g id="edge5" class="edge">
<title>bbox&#45;engine&#45;&gt;core</title>
<path fill="none" stroke="black" d="M160.4,-81.66C180.11,-71.08 207.99,-57.16 233.75,-48 257.67,-39.49 284.77,-32.6 308.46,-27.42"/>
<polygon fill="black" stroke="black" points="309.03,-30.66 318.08,-25.16 307.57,-23.82 309.03,-30.66"/>
<text text-anchor="middle" x="260.63" y="-51.2" font-family="Times,serif" font-size="14.00">«include»</text>
</g>
<!-- components -->
<g id="node5" class="node">
<title>components</title>
<polygon fill="white" stroke="black" stroke-width="2" points="157,-208.5 57,-208.5 57,-178.5 157,-178.5 157,-208.5"/>
<text text-anchor="middle" x="107" y="-188.45" font-family="Times,serif" font-size="14.00">components</text>
</g>
<!-- components&#45;&gt;bbox&#45;engine -->
<g id="edge6" class="edge">
<title>components&#45;&gt;bbox&#45;engine</title>
<path fill="none" stroke="black" d="M111.22,-177.81C115.36,-163.41 121.75,-141.16 126.71,-123.89"/>
<polygon fill="black" stroke="black" points="130.33,-124.97 129.72,-114.39 123.6,-123.04 130.33,-124.97"/>
<text text-anchor="middle" x="151.63" y="-140.45" font-family="Times,serif" font-size="14.00">«include»</text>
</g>
<!-- connect -->
<g id="node6" class="node">
<title>connect</title>
<polygon fill="white" stroke="black" stroke-width="2" points="808,-456 708,-456 708,-426 808,-426 808,-456"/>
<text text-anchor="middle" x="758" y="-435.95" font-family="Times,serif" font-size="14.00">connect</text>
</g>
<!-- util -->
<g id="node19" class="node">
<title>util</title>
<polygon fill="white" stroke="black" stroke-width="2" points="808,-373.5 708,-373.5 708,-343.5 808,-343.5 808,-373.5"/>
<text text-anchor="middle" x="758" y="-353.45" font-family="Times,serif" font-size="14.00">util</text>
</g>
<!-- connect&#45;&gt;util -->
<g id="edge7" class="edge">
<title>connect&#45;&gt;util</title>
<path fill="none" stroke="black" d="M758,-425.24C758,-414.07 758,-398.46 758,-385.26"/>
<polygon fill="black" stroke="black" points="761.5,-385.44 758,-375.44 754.5,-385.44 761.5,-385.44"/>
<text text-anchor="middle" x="784.63" y="-394.7" font-family="Times,serif" font-size="14.00">«include»</text>
</g>
<!-- drawio -->
<g id="node8" class="node">
<title>drawio</title>
<polygon fill="white" stroke="black" stroke-width="2" points="175,-291 75,-291 75,-261 175,-261 175,-291"/>
<text text-anchor="middle" x="125" y="-270.95" font-family="Times,serif" font-size="14.00">drawio</text>
</g>
<!-- drawio&#45;&gt;2d&#45;engine -->
<g id="edge8" class="edge">
<title>drawio&#45;&gt;2d&#45;engine</title>
<path fill="none" stroke="black" d="M156.21,-260.05C183.32,-247.06 222.77,-228.15 252.34,-213.98"/>
<polygon fill="black" stroke="black" points="253.46,-216.85 260.96,-209.37 250.43,-210.54 253.46,-216.85"/>
<text text-anchor="middle" x="251.63" y="-229.7" font-family="Times,serif" font-size="14.00">«include»</text>
</g>
<!-- fillet -->
<g id="node9" class="node">
<title>fillet</title>
<polygon fill="white" stroke="black" stroke-width="2" points="218,-373.5 118,-373.5 118,-343.5 218,-343.5 218,-373.5"/>
<text text-anchor="middle" x="168" y="-353.45" font-family="Times,serif" font-size="14.00">fillet</text>
</g>
<!-- fillet&#45;&gt;3d&#45;engine -->
<g id="edge9" class="edge">
<title>fillet&#45;&gt;3d&#45;engine</title>
<path fill="none" stroke="black" d="M194.11,-342.64C213.62,-332.04 241.21,-318.12 266.75,-309 290.93,-300.37 318.35,-293.44 342.28,-288.26"/>
<polygon fill="black" stroke="black" points="342.95,-291.49 352.01,-286.01 341.51,-284.64 342.95,-291.49"/>
<text text-anchor="middle" x="293.63" y="-312.2" font-family="Times,serif" font-size="14.00">«include»</text>
</g>
<!-- grid -->
<g id="node10" class="node">
<title>grid</title>
<polygon fill="white" stroke="black" stroke-width="2" points="336,-373.5 236,-373.5 236,-343.5 336,-343.5 336,-373.5"/>
<text text-anchor="middle" x="286" y="-353.45" font-family="Times,serif" font-size="14.00">grid</text>
</g>
<!-- grid&#45;&gt;3d&#45;engine -->
<g id="edge10" class="edge">
<title>grid&#45;&gt;3d&#45;engine</title>
<path fill="none" stroke="black" d="M302.97,-342.71C314.85,-332.67 331.29,-319.39 346.75,-309 352.78,-304.95 359.37,-300.92 365.85,-297.17"/>
<polygon fill="black" stroke="black" points="367.22,-299.85 374.2,-291.89 363.77,-293.76 367.22,-299.85"/>
<text text-anchor="middle" x="372.63" y="-312.2" font-family="Times,serif" font-size="14.00">«include»</text>
</g>
<!-- hole -->
<g id="node11" class="node">
<title>hole</title>
<polygon fill="white" stroke="black" stroke-width="2" points="454,-456 354,-456 354,-426 454,-426 454,-456"/>
<text text-anchor="middle" x="404" y="-435.95" font-family="Times,serif" font-size="14.00">hole</text>
</g>
<!-- label -->
<g id="node12" class="node">
<title>label</title>
<polygon fill="white" stroke="black" stroke-width="2" points="454,-373.5 354,-373.5 354,-343.5 454,-343.5 454,-373.5"/>
<text text-anchor="middle" x="404" y="-353.45" font-family="Times,serif" font-size="14.00">label</text>
</g>
<!-- hole&#45;&gt;label -->
<g id="edge11" class="edge">
<title>hole&#45;&gt;label</title>
<path fill="none" stroke="black" d="M404,-425.24C404,-414.07 404,-398.46 404,-385.26"/>
<polygon fill="black" stroke="black" points="407.5,-385.44 404,-375.44 400.5,-385.44 407.5,-385.44"/>
<text text-anchor="middle" x="430.63" y="-394.7" font-family="Times,serif" font-size="14.00">«include»</text>
</g>
<!-- label&#45;&gt;3d&#45;engine -->
<g id="edge12" class="edge">
<title>label&#45;&gt;3d&#45;engine</title>
<path fill="none" stroke="black" d="M404,-342.74C404,-331.57 404,-315.96 404,-302.76"/>
<polygon fill="black" stroke="black" points="407.5,-302.94 404,-292.94 400.5,-302.94 407.5,-302.94"/>
<text text-anchor="middle" x="430.63" y="-312.2" font-family="Times,serif" font-size="14.00">«include»</text>
</g>
<!-- limits -->
<g id="node13" class="node">
<title>limits</title>
<polygon fill="white" stroke="black" stroke-width="2" points="302,-112.5 202,-112.5 202,-82.5 302,-82.5 302,-112.5"/>
<text text-anchor="middle" x="252" y="-92.45" font-family="Times,serif" font-size="14.00">limits</text>
</g>
<!-- limits&#45;&gt;core -->
<g id="edge13" class="edge">
<title>limits&#45;&gt;core</title>
<path fill="none" stroke="black" d="M268.97,-81.71C280.85,-71.67 297.29,-58.39 312.75,-48 318.78,-43.95 325.37,-39.92 331.85,-36.17"/>
<polygon fill="black" stroke="black" points="333.22,-38.85 340.2,-30.89 329.77,-32.76 333.22,-38.85"/>
<text text-anchor="middle" x="339.63" y="-51.2" font-family="Times,serif" font-size="14.00">«include»</text>
</g>
<!-- mngm&#45;engine&#45;&gt;core -->
<g id="edge14" class="edge">
<title>mngm&#45;engine&#45;&gt;core</title>
<path fill="none" stroke="black" d="M470.68,-81.5C458.77,-71.5 442.39,-58.34 427,-48 420.99,-43.96 414.43,-39.95 407.97,-36.19"/>
<polygon fill="black" stroke="black" points="410.08,-32.8 399.66,-30.92 406.63,-38.89 410.08,-32.8"/>
<text text-anchor="middle" x="475.63" y="-51.2" font-family="Times,serif" font-size="14.00">«include»</text>
</g>
<!-- profile -->
<g id="node15" class="node">
<title>profile</title>
<polygon fill="white" stroke="black" stroke-width="2" points="572,-373.5 472,-373.5 472,-343.5 572,-343.5 572,-373.5"/>
<text text-anchor="middle" x="522" y="-353.45" font-family="Times,serif" font-size="14.00">profile</text>
</g>
<!-- profile&#45;&gt;3d&#45;engine -->
<g id="edge15" class="edge">
<title>profile&#45;&gt;3d&#45;engine</title>
<path fill="none" stroke="black" d="M504.68,-342.5C492.77,-332.5 476.39,-319.34 461,-309 454.99,-304.96 448.43,-300.95 441.97,-297.19"/>
<polygon fill="black" stroke="black" points="444.08,-293.8 433.66,-291.92 440.63,-299.89 444.08,-293.8"/>
<text text-anchor="middle" x="509.63" y="-312.2" font-family="Times,serif" font-size="14.00">«include»</text>
</g>
<!-- template -->
<g id="node16" class="node">
<title>template</title>
<polygon fill="white" stroke="black" stroke-width="2" points="690,-373.5 590,-373.5 590,-343.5 690,-343.5 690,-373.5"/>
<text text-anchor="middle" x="640" y="-353.45" font-family="Times,serif" font-size="14.00">template</text>
</g>
<!-- template&#45;&gt;3d&#45;engine -->
<g id="edge16" class="edge">
<title>template&#45;&gt;3d&#45;engine</title>
<path fill="none" stroke="black" d="M613.53,-342.67C593.76,-332.09 565.82,-318.17 540,-309 516.12,-300.52 489.07,-293.63 465.42,-288.44"/>
<polygon fill="black" stroke="black" points="466.33,-284.84 455.82,-286.18 464.87,-291.69 466.33,-284.84"/>
<text text-anchor="middle" x="605.63" y="-312.2" font-family="Times,serif" font-size="14.00">«include»</text>
</g>
<!-- type_trait&#45;&gt;core -->
<g id="edge17" class="edge">
<title>type_trait&#45;&gt;core</title>
<path fill="none" stroke="black" d="M565.35,-129.7C562.46,-116.46 556.87,-96.96 547,-82.5 533.57,-62.83 527.28,-58.69 506,-48 482.87,-36.39 455.39,-28.89 431.21,-24.11"/>
<polygon fill="black" stroke="black" points="432.19,-20.54 421.72,-22.15 430.91,-27.42 432.19,-20.54"/>
<text text-anchor="middle" x="586.63" y="-92.45" font-family="Times,serif" font-size="14.00">«include»</text>
</g>
<!-- unsafe_defs&#45;&gt;core -->
<g id="edge18" class="edge">
<title>unsafe_defs&#45;&gt;core</title>
<path fill="none" stroke="black" d="M370,-81.74C370,-70.57 370,-54.96 370,-41.76"/>
<polygon fill="black" stroke="black" points="373.5,-41.94 370,-31.94 366.5,-41.94 373.5,-41.94"/>
<text text-anchor="middle" x="396.63" y="-51.2" font-family="Times,serif" font-size="14.00">«include»</text>
</g>
<!-- util&#45;&gt;3d&#45;engine -->
<g id="edge19" class="edge">
<title>util&#45;&gt;3d&#45;engine</title>
<path fill="none" stroke="black" d="M726.6,-342.58C702.37,-331.67 667.74,-317.37 636,-309 579.28,-294.05 512.81,-285.79 465.6,-281.42"/>
<polygon fill="black" stroke="black" points="466.2,-277.87 455.93,-280.47 465.58,-284.85 466.2,-277.87"/>
<text text-anchor="middle" x="709.63" y="-312.2" font-family="Times,serif" font-size="14.00">«include»</text>
</g>
</g>
</svg>
