<?xml version="1.0" encoding="UTF-8" standalone="no"?>
<!DOCTYPE svg PUBLIC "-//W3C//DTD SVG 1.1//EN"
 "http://www.w3.org/Graphics/SVG/1.1/DTD/svg11.dtd">
<!-- Generated by graphviz version 8.1.0 (20230707.0739)
 -->
<!-- Title: foundation Pages: 1 -->
<svg width="1162pt" height="467pt"
 viewBox="0.00 0.00 1162.00 467.00" xmlns="http://www.w3.org/2000/svg" xmlns:xlink="http://www.w3.org/1999/xlink">
<g id="graph0" class="graph" transform="scale(1 1) rotate(0) translate(4 463)">
<title>foundation</title>
<polygon fill="white" stroke="none" points="-4,4 -4,-463 1158,-463 1158,4 -4,4"/>
<!-- 2d&#45;engine -->
<g id="node1" class="node">
<title>2d&#45;engine</title>
<polygon fill="white" stroke="black" stroke-width="2" points="322,-209.25 222,-209.25 222,-179.25 322,-179.25 322,-209.25"/>
<text text-anchor="middle" x="272" y="-189.58" font-family="Times,serif" font-size="14.00">2d&#45;engine</text>
</g>
<!-- bbox&#45;engine -->
<g id="node4" class="node">
<title>bbox&#45;engine</title>
<polygon fill="white" stroke="black" stroke-width="2" points="498.12,-113.25 395.88,-113.25 395.88,-83.25 498.12,-83.25 498.12,-113.25"/>
<text text-anchor="middle" x="447" y="-93.58" font-family="Times,serif" font-size="14.00">bbox&#45;engine</text>
</g>
<!-- 2d&#45;engine&#45;&gt;bbox&#45;engine -->
<g id="edge23" class="edge">
<title>2d&#45;engine&#45;&gt;bbox&#45;engine</title>
<path fill="none" stroke="red" stroke-width="2" d="M308.98,-178.35C318.32,-173.65 327.97,-167.91 336,-161.25 348.88,-150.56 345.28,-141.17 358.75,-131.25 366.15,-125.8 374.57,-121.2 383.2,-117.34"/>
<polygon fill="red" stroke="red" stroke-width="2" points="385.08,-120.53 393.02,-113.52 382.44,-114.05 385.08,-120.53"/>
<text text-anchor="middle" x="378.62" y="-141.58" font-family="Times,serif" font-size="14.00">«use»</text>
</g>
<!-- mngm&#45;engine -->
<g id="node15" class="node">
<title>mngm&#45;engine</title>
<polygon fill="white" stroke="black" stroke-width="2" points="259.75,-113.25 146.25,-113.25 146.25,-83.25 259.75,-83.25 259.75,-113.25"/>
<text text-anchor="middle" x="203" y="-93.58" font-family="Times,serif" font-size="14.00">mngm&#45;engine</text>
</g>
<!-- 2d&#45;engine&#45;&gt;mngm&#45;engine -->
<g id="edge22" class="edge">
<title>2d&#45;engine&#45;&gt;mngm&#45;engine</title>
<path fill="none" stroke="red" stroke-width="2" d="M237.13,-178.31C229.83,-173.76 222.81,-168.11 217.75,-161.25 210.43,-151.33 206.69,-138.3 204.8,-126.75"/>
<polygon fill="red" stroke="red" stroke-width="2" points="207.96,-126.67 203.32,-117.14 201.01,-127.48 207.96,-126.67"/>
<text text-anchor="middle" x="238.62" y="-141.58" font-family="Times,serif" font-size="14.00">«use»</text>
</g>
<!-- unsafe_defs -->
<g id="node22" class="node">
<title>unsafe_defs</title>
<polygon fill="white" stroke="black" stroke-width="2" points="378,-113.25 278,-113.25 278,-83.25 378,-83.25 378,-113.25"/>
<text text-anchor="middle" x="328" y="-93.58" font-family="Times,serif" font-size="14.00">unsafe_defs</text>
</g>
<!-- 2d&#45;engine&#45;&gt;unsafe_defs -->
<g id="edge1" class="edge">
<title>2d&#45;engine&#45;&gt;unsafe_defs</title>
<path fill="none" stroke="black" d="M266.44,-178.35C262.47,-165.03 259.19,-145.49 267.75,-131.25 270.15,-127.25 273.24,-123.73 276.75,-120.63"/>
<polygon fill="black" stroke="black" points="278.59,-122.88 284.57,-114.13 274.44,-117.24 278.59,-122.88"/>
<text text-anchor="middle" x="302.12" y="-141.58" font-family="Times,serif" font-size="14.00">«include»</text>
</g>
<!-- 3d&#45;engine -->
<g id="node2" class="node">
<title>3d&#45;engine</title>
<polygon fill="white" stroke="black" stroke-width="2" points="662,-292.5 562,-292.5 562,-262.5 662,-262.5 662,-292.5"/>
<text text-anchor="middle" x="612" y="-272.83" font-family="Times,serif" font-size="14.00">3d&#45;engine</text>
</g>
<!-- 3d&#45;engine&#45;&gt;2d&#45;engine -->
<g id="edge2" class="edge">
<title>3d&#45;engine&#45;&gt;2d&#45;engine</title>
<path fill="none" stroke="black" d="M561.35,-263.68C521.18,-253.58 463.56,-239.24 413,-227.25 387.04,-221.09 358.34,-214.53 333.64,-208.97"/>
<polygon fill="black" stroke="black" points="334.49,-205.34 323.96,-206.56 332.95,-212.17 334.49,-205.34"/>
<text text-anchor="middle" x="518.12" y="-231.2" font-family="Times,serif" font-size="14.00">«include»</text>
</g>
<!-- polymorphic&#45;engine -->
<g id="node16" class="node">
<title>polymorphic&#45;engine</title>
<polygon fill="white" stroke="black" stroke-width="2" points="446.5,-375.75 289.5,-375.75 289.5,-345.75 446.5,-345.75 446.5,-375.75"/>
<text text-anchor="middle" x="368" y="-356.08" font-family="Times,serif" font-size="14.00">polymorphic&#45;engine</text>
</g>
<!-- 3d&#45;engine&#45;&gt;polymorphic&#45;engine -->
<g id="edge24" class="edge">
<title>3d&#45;engine&#45;&gt;polymorphic&#45;engine</title>
<path fill="none" stroke="red" stroke-width="2" d="M561.16,-287.78C535.71,-293.13 504.67,-300.75 477.75,-310.5 461.54,-316.37 458.66,-320.53 443,-327.75 434.24,-331.79 424.83,-335.95 415.74,-339.87"/>
<polygon fill="red" stroke="red" stroke-width="2" points="413.86,-336.72 406.04,-343.87 416.62,-343.15 413.86,-336.72"/>
<text text-anchor="middle" x="497.62" y="-314.45" font-family="Times,serif" font-size="14.00">«use»</text>
</g>
<!-- type&#45;engine -->
<g id="node20" class="node">
<title>type&#45;engine</title>
<polygon fill="white" stroke="black" stroke-width="2" points="644,-209.25 544,-209.25 544,-179.25 644,-179.25 644,-209.25"/>
<text text-anchor="middle" x="594" y="-189.58" font-family="Times,serif" font-size="14.00">type&#45;engine</text>
</g>
<!-- 3d&#45;engine&#45;&gt;type&#45;engine -->
<g id="edge25" class="edge">
<title>3d&#45;engine&#45;&gt;type&#45;engine</title>
<path fill="none" stroke="red" stroke-width="2" d="M608.7,-261.6C606.29,-250.72 602.95,-235.65 600.07,-222.63"/>
<polygon fill="red" stroke="red" stroke-width="2" points="602.86,-221.06 597.28,-212.06 596.03,-222.58 602.86,-221.06"/>
<text text-anchor="middle" x="624.62" y="-231.2" font-family="Times,serif" font-size="14.00">«use»</text>
</g>
<!-- type_trait -->
<g id="node21" class="node">
<title>type_trait</title>
<polygon fill="white" stroke="black" stroke-width="2" points="740,-161.25 640,-161.25 640,-131.25 740,-131.25 740,-161.25"/>
<text text-anchor="middle" x="690" y="-141.58" font-family="Times,serif" font-size="14.00">type_trait</text>
</g>
<!-- 3d&#45;engine&#45;&gt;type_trait -->
<g id="edge3" class="edge">
<title>3d&#45;engine&#45;&gt;type_trait</title>
<path fill="none" stroke="black" d="M632.44,-261.71C638.34,-256.73 644.41,-250.82 649,-244.5 664.99,-222.49 676.23,-193.29 682.84,-172.65"/>
<polygon fill="black" stroke="black" points="686.47,-173.75 686.04,-163.16 679.78,-171.71 686.47,-173.75"/>
<text text-anchor="middle" x="692.12" y="-231.2" font-family="Times,serif" font-size="14.00">«include»</text>
</g>
<!-- algo&#45;engine -->
<g id="node3" class="node">
<title>algo&#45;engine</title>
<polygon fill="white" stroke="black" stroke-width="2" points="1152,-375.75 1052,-375.75 1052,-345.75 1152,-345.75 1152,-375.75"/>
<text text-anchor="middle" x="1102" y="-356.08" font-family="Times,serif" font-size="14.00">algo&#45;engine</text>
</g>
<!-- algo&#45;engine&#45;&gt;3d&#45;engine -->
<g id="edge4" class="edge">
<title>algo&#45;engine&#45;&gt;3d&#45;engine</title>
<path fill="none" stroke="black" d="M1076.05,-344.97C1054.53,-333.48 1022.75,-318.23 993,-310.5 934.35,-295.27 765.56,-285.49 673.57,-281.13"/>
<polygon fill="black" stroke="black" points="673.9,-277.59 663.74,-280.62 673.57,-284.59 673.9,-277.59"/>
<text text-anchor="middle" x="1073.12" y="-314.45" font-family="Times,serif" font-size="14.00">«include»</text>
</g>
<!-- core -->
<g id="node7" class="node">
<title>core</title>
<polygon fill="white" stroke="black" stroke-width="2" points="378,-30 278,-30 278,0 378,0 378,-30"/>
<text text-anchor="middle" x="328" y="-10.33" font-family="Times,serif" font-size="14.00">core</text>
</g>
<!-- bbox&#45;engine&#45;&gt;core -->
<g id="edge5" class="edge">
<title>bbox&#45;engine&#45;&gt;core</title>
<path fill="none" stroke="black" d="M435.5,-82.4C426.68,-71.76 413.72,-57.66 400,-48 393.54,-43.45 386.33,-39.33 379.04,-35.67"/>
<polygon fill="black" stroke="black" points="380.64,-32.08 370.11,-30.97 377.65,-38.41 380.64,-32.08"/>
<text text-anchor="middle" x="453.12" y="-51.95" font-family="Times,serif" font-size="14.00">«include»</text>
</g>
<!-- components -->
<g id="node5" class="node">
<title>components</title>
<polygon fill="white" stroke="black" stroke-width="2" points="498.12,-209.25 395.88,-209.25 395.88,-179.25 498.12,-179.25 498.12,-209.25"/>
<text text-anchor="middle" x="447" y="-189.58" font-family="Times,serif" font-size="14.00">components</text>
</g>
<!-- components&#45;&gt;bbox&#45;engine -->
<g id="edge6" class="edge">
<title>components&#45;&gt;bbox&#45;engine</title>
<path fill="none" stroke="black" d="M447,-178.56C447,-164.3 447,-142.34 447,-125.14"/>
<polygon fill="black" stroke="black" points="450.5,-125.14 447,-115.14 443.5,-125.14 450.5,-125.14"/>
<text text-anchor="middle" x="481.12" y="-141.58" font-family="Times,serif" font-size="14.00">«include»</text>
</g>
<!-- connect -->
<g id="node6" class="node">
<title>connect</title>
<polygon fill="white" stroke="black" stroke-width="2" points="798,-459 698,-459 698,-429 798,-429 798,-459"/>
<text text-anchor="middle" x="748" y="-439.33" font-family="Times,serif" font-size="14.00">connect</text>
</g>
<!-- util -->
<g id="node23" class="node">
<title>util</title>
<polygon fill="white" stroke="black" stroke-width="2" points="798,-375.75 698,-375.75 698,-345.75 798,-345.75 798,-375.75"/>
<text text-anchor="middle" x="748" y="-356.08" font-family="Times,serif" font-size="14.00">util</text>
</g>
<!-- connect&#45;&gt;util -->
<g id="edge7" class="edge">
<title>connect&#45;&gt;util</title>
<path fill="none" stroke="black" d="M748,-428.1C748,-416.76 748,-400.88 748,-387.5"/>
<polygon fill="black" stroke="black" points="751.5,-387.56 748,-377.56 744.5,-387.56 751.5,-387.56"/>
<text text-anchor="middle" x="782.12" y="-397.7" font-family="Times,serif" font-size="14.00">«include»</text>
</g>
<!-- dimensions -->
<g id="node8" class="node">
<title>dimensions</title>
<polygon fill="white" stroke="black" stroke-width="2" points="916,-459 816,-459 816,-429 916,-429 916,-459"/>
<text text-anchor="middle" x="866" y="-439.33" font-family="Times,serif" font-size="14.00">dimensions</text>
</g>
<!-- drawio -->
<g id="node9" class="node">
<title>drawio</title>
<polygon fill="white" stroke="black" stroke-width="2" points="322,-292.5 222,-292.5 222,-262.5 322,-262.5 322,-292.5"/>
<text text-anchor="middle" x="272" y="-272.83" font-family="Times,serif" font-size="14.00">drawio</text>
</g>
<!-- drawio&#45;&gt;2d&#45;engine -->
<g id="edge8" class="edge">
<title>drawio&#45;&gt;2d&#45;engine</title>
<path fill="none" stroke="black" d="M272,-261.6C272,-250.26 272,-234.38 272,-221"/>
<polygon fill="black" stroke="black" points="275.5,-221.06 272,-211.06 268.5,-221.06 275.5,-221.06"/>
<text text-anchor="middle" x="306.12" y="-231.2" font-family="Times,serif" font-size="14.00">«include»</text>
</g>
<!-- fillet -->
<g id="node10" class="node">
<title>fillet</title>
<polygon fill="white" stroke="black" stroke-width="2" points="916,-375.75 816,-375.75 816,-345.75 916,-345.75 916,-375.75"/>
<text text-anchor="middle" x="866" y="-356.08" font-family="Times,serif" font-size="14.00">fillet</text>
</g>
<!-- fillet&#45;&gt;3d&#45;engine -->
<g id="edge9" class="edge">
<title>fillet&#45;&gt;3d&#45;engine</title>
<path fill="none" stroke="black" d="M839.9,-344.97C819.72,-334.08 790.8,-319.64 764,-310.5 734.8,-300.54 701.35,-293.1 673.28,-287.9"/>
<polygon fill="black" stroke="black" points="674.26,-284.34 663.8,-286.02 673.02,-291.23 674.26,-284.34"/>
<text text-anchor="middle" x="838.12" y="-314.45" font-family="Times,serif" font-size="14.00">«include»</text>
</g>
<!-- grid -->
<g id="node11" class="node">
<title>grid</title>
<polygon fill="white" stroke="black" stroke-width="2" points="1034,-375.75 934,-375.75 934,-345.75 1034,-345.75 1034,-375.75"/>
<text text-anchor="middle" x="984" y="-356.08" font-family="Times,serif" font-size="14.00">grid</text>
</g>
<!-- grid&#45;&gt;3d&#45;engine -->
<g id="edge10" class="edge">
<title>grid&#45;&gt;3d&#45;engine</title>
<path fill="none" stroke="black" d="M957.36,-344.8C936.02,-333.52 904.96,-318.65 876,-310.5 808.23,-291.43 727.52,-283.73 673.34,-280.61"/>
<polygon fill="black" stroke="black" points="673.7,-277.07 663.53,-280.03 673.32,-284.06 673.7,-277.07"/>
<text text-anchor="middle" x="955.12" y="-314.45" font-family="Times,serif" font-size="14.00">«include»</text>
</g>
<!-- hole -->
<g id="node12" class="node">
<title>hole</title>
<polygon fill="white" stroke="black" stroke-width="2" points="488,-459 388,-459 388,-429 488,-429 488,-459"/>
<text text-anchor="middle" x="438" y="-439.33" font-family="Times,serif" font-size="14.00">hole</text>
</g>
<!-- label -->
<g id="node13" class="node">
<title>label</title>
<polygon fill="white" stroke="black" stroke-width="2" points="576,-375.75 476,-375.75 476,-345.75 576,-345.75 576,-375.75"/>
<text text-anchor="middle" x="526" y="-356.08" font-family="Times,serif" font-size="14.00">label</text>
</g>
<!-- hole&#45;&gt;label -->
<g id="edge11" class="edge">
<title>hole&#45;&gt;label</title>
<path fill="none" stroke="black" d="M438.82,-428.05C440.13,-417.36 443.46,-403.24 451.75,-393.75 455.83,-389.08 460.72,-385.06 466.01,-381.62"/>
<polygon fill="black" stroke="black" points="467.28,-384.36 474.22,-376.35 463.81,-378.28 467.28,-384.36"/>
<text text-anchor="middle" x="485.12" y="-397.7" font-family="Times,serif" font-size="14.00">«include»</text>
</g>
<!-- label&#45;&gt;3d&#45;engine -->
<g id="edge12" class="edge">
<title>label&#45;&gt;3d&#45;engine</title>
<path fill="none" stroke="black" d="M523.25,-344.97C522.14,-334.37 522.5,-320.28 529.75,-310.5 535.38,-302.9 543.09,-297.1 551.53,-292.68"/>
<polygon fill="black" stroke="black" points="552.65,-295.57 560.31,-288.25 549.76,-289.19 552.65,-295.57"/>
<text text-anchor="middle" x="563.12" y="-314.45" font-family="Times,serif" font-size="14.00">«include»</text>
</g>
<!-- limits -->
<g id="node14" class="node">
<title>limits</title>
<polygon fill="white" stroke="black" stroke-width="2" points="128,-113.25 28,-113.25 28,-83.25 128,-83.25 128,-113.25"/>
<text text-anchor="middle" x="78" y="-93.58" font-family="Times,serif" font-size="14.00">limits</text>
</g>
<!-- limits&#45;&gt;core -->
<g id="edge13" class="edge">
<title>limits&#45;&gt;core</title>
<path fill="none" stroke="black" d="M98.95,-82.39C115.53,-71.32 139.65,-56.67 162.75,-48 195.91,-35.56 234.72,-27.73 266.39,-22.93"/>
<polygon fill="black" stroke="black" points="266.88,-26.25 276.27,-21.35 265.87,-19.32 266.88,-26.25"/>
<text text-anchor="middle" x="197.12" y="-51.95" font-family="Times,serif" font-size="14.00">«include»</text>
</g>
<!-- mngm&#45;engine&#45;&gt;core -->
<g id="edge14" class="edge">
<title>mngm&#45;engine&#45;&gt;core</title>
<path fill="none" stroke="black" d="M216.24,-82.48C226.3,-71.89 240.91,-57.81 255.75,-48 262.59,-43.48 270.18,-39.32 277.79,-35.61"/>
<polygon fill="black" stroke="black" points="279.16,-38.37 286.75,-30.99 276.21,-32.02 279.16,-38.37"/>
<text text-anchor="middle" x="290.12" y="-51.95" font-family="Times,serif" font-size="14.00">«include»</text>
</g>
<!-- polymorphic&#45;engine&#45;&gt;3d&#45;engine -->
<g id="edge26" class="edge">
<title>polymorphic&#45;engine&#45;&gt;3d&#45;engine</title>
<path fill="none" stroke="red" stroke-width="2" d="M373.04,-344.77C377.64,-333.47 385.61,-318.59 397.75,-310.5 421.82,-294.46 494.31,-286.14 548.35,-282.06"/>
<polygon fill="red" stroke="red" stroke-width="2" points="548.58,-285.34 558.3,-281.13 548.08,-278.35 548.58,-285.34"/>
<text text-anchor="middle" x="417.62" y="-314.45" font-family="Times,serif" font-size="14.00">«use»</text>
</g>
<!-- polymorphic&#45;engine&#45;&gt;bbox&#45;engine -->
<g id="edge27" class="edge">
<title>polymorphic&#45;engine&#45;&gt;bbox&#45;engine</title>
<path fill="none" stroke="red" stroke-width="2" d="M366.14,-344.87C363.45,-320.17 359.64,-269.26 367.75,-227.25 372.11,-204.68 375.73,-199.28 387,-179.25 388.67,-176.28 410.93,-146.76 427.86,-124.44"/>
<polygon fill="red" stroke="red" stroke-width="2" points="431.36,-126.29 434.62,-116.21 425.79,-122.06 431.36,-126.29"/>
<text text-anchor="middle" x="387.62" y="-231.2" font-family="Times,serif" font-size="14.00">«use»</text>
</g>
<!-- polymorphic&#45;engine&#45;&gt;core -->
<g id="edge15" class="edge">
<title>polymorphic&#45;engine&#45;&gt;core</title>
<path fill="none" stroke="black" d="M288.6,-358.03C180.42,-353.5 0,-337.14 0,-278.5 0,-278.5 0,-278.5 0,-97.25 0,-43.01 171.16,-24.73 266.19,-18.77"/>
<polygon fill="black" stroke="black" points="266.34,-22.21 276.11,-18.12 265.92,-15.22 266.34,-22.21"/>
<text text-anchor="middle" x="34.12" y="-189.58" font-family="Times,serif" font-size="14.00">«include»</text>
</g>
<!-- polymorphic&#45;engine&#45;&gt;mngm&#45;engine -->
<g id="edge28" class="edge">
<title>polymorphic&#45;engine&#45;&gt;mngm&#45;engine</title>
<path fill="none" stroke="red" stroke-width="2" d="M293.02,-344.79C263.36,-334.96 231.9,-318.83 213,-292.5 177.53,-243.08 187.24,-166.87 195.96,-126.51"/>
<polygon fill="red" stroke="red" stroke-width="2" points="200,-126.59 198.87,-116.06 193.18,-125 200,-126.59"/>
<text text-anchor="middle" x="213.62" y="-231.2" font-family="Times,serif" font-size="14.00">«use»</text>
</g>
<!-- profile -->
<g id="node17" class="node">
<title>profile</title>
<polygon fill="white" stroke="black" stroke-width="2" points="634,-459 534,-459 534,-429 634,-429 634,-459"/>
<text text-anchor="middle" x="584" y="-439.33" font-family="Times,serif" font-size="14.00">profile</text>
</g>
<!-- profile&#45;&gt;3d&#45;engine -->
<g id="edge16" class="edge">
<title>profile&#45;&gt;3d&#45;engine</title>
<path fill="none" stroke="black" d="M591.68,-428.04C594.07,-422.78 596.48,-416.74 598,-411 607.59,-374.77 610.65,-331.33 611.6,-304.31"/>
<polygon fill="black" stroke="black" points="615.13,-304.57 611.9,-294.47 608.13,-304.37 615.13,-304.57"/>
<text text-anchor="middle" x="642.12" y="-356.08" font-family="Times,serif" font-size="14.00">«include»</text>
</g>
<!-- profile&#45;&gt;label -->
<g id="edge17" class="edge">
<title>profile&#45;&gt;label</title>
<path fill="none" stroke="black" d="M547.49,-428.07C540.54,-423.59 534.08,-417.96 529.75,-411 525.44,-404.07 523.81,-395.49 523.47,-387.44"/>
<polygon fill="black" stroke="black" points="526.99,-387.72 523.7,-377.65 519.99,-387.57 526.99,-387.72"/>
<text text-anchor="middle" x="563.12" y="-397.7" font-family="Times,serif" font-size="14.00">«include»</text>
</g>
<!-- quaternions -->
<g id="node18" class="node">
<title>quaternions</title>
<polygon fill="white" stroke="black" stroke-width="2" points="1035.75,-459 934.25,-459 934.25,-429 1035.75,-429 1035.75,-459"/>
<text text-anchor="middle" x="985" y="-439.33" font-family="Times,serif" font-size="14.00">quaternions</text>
</g>
<!-- template -->
<g id="node19" class="node">
<title>template</title>
<polygon fill="white" stroke="black" stroke-width="2" points="1154,-459 1054,-459 1054,-429 1154,-429 1154,-459"/>
<text text-anchor="middle" x="1104" y="-439.33" font-family="Times,serif" font-size="14.00">template</text>
</g>
<!-- type&#45;engine&#45;&gt;bbox&#45;engine -->
<g id="edge29" class="edge">
<title>type&#45;engine&#45;&gt;bbox&#45;engine</title>
<path fill="none" stroke="red" stroke-width="2" d="M563.29,-178.34C554.87,-173.51 546.06,-167.71 538.75,-161.25 526.21,-150.17 529.03,-141.75 516,-131.25 510.86,-127.11 505.1,-123.37 499.15,-120.03"/>
<polygon fill="red" stroke="red" stroke-width="2" points="500.1,-116.55 489.61,-115.09 496.9,-122.77 500.1,-116.55"/>
<text text-anchor="middle" x="558.62" y="-141.58" font-family="Times,serif" font-size="14.00">«use»</text>
</g>
<!-- type&#45;engine&#45;&gt;core -->
<g id="edge18" class="edge">
<title>type&#45;engine&#45;&gt;core</title>
<path fill="none" stroke="black" d="M593.1,-178.33C591.76,-165.18 588.4,-145.9 580,-131.25 553.07,-84.26 539.22,-72.67 491,-48 459.77,-32.02 421.41,-24 389.75,-19.99"/>
<polygon fill="black" stroke="black" points="390.19,-16.4 379.85,-18.73 389.39,-23.35 390.19,-16.4"/>
<text text-anchor="middle" x="603.12" y="-93.58" font-family="Times,serif" font-size="14.00">«include»</text>
</g>
<!-- type_trait&#45;&gt;core -->
<g id="edge19" class="edge">
<title>type_trait&#45;&gt;core</title>
<path fill="none" stroke="black" d="M687.1,-130.32C683.86,-116.8 677.48,-96.97 666,-83.25 646.64,-60.12 636.54,-57.77 608,-48 535.81,-23.28 447.67,-16.8 389.8,-15.51"/>
<polygon fill="black" stroke="black" points="390.06,-12 380,-15.33 389.93,-19 390.06,-12"/>
<text text-anchor="middle" x="715.12" y="-93.58" font-family="Times,serif" font-size="14.00">«include»</text>
</g>
<!-- unsafe_defs&#45;&gt;core -->
<g id="edge20" class="edge">
<title>unsafe_defs&#45;&gt;core</title>
<path fill="none" stroke="black" d="M328,-82.35C328,-71.01 328,-55.13 328,-41.75"/>
<polygon fill="black" stroke="black" points="331.5,-41.81 328,-31.81 324.5,-41.81 331.5,-41.81"/>
<text text-anchor="middle" x="362.12" y="-51.95" font-family="Times,serif" font-size="14.00">«include»</text>
</g>
<!-- util&#45;&gt;3d&#45;engine -->
<g id="edge21" class="edge">
<title>util&#45;&gt;3d&#45;engine</title>
<path fill="none" stroke="black" d="M723.06,-344.85C701.49,-331.96 670.1,-313.21 646.2,-298.93"/>
<polygon fill="black" stroke="black" points="648.17,-295.43 637.79,-293.31 644.58,-301.44 648.17,-295.43"/>
<text text-anchor="middle" x="726.12" y="-314.45" font-family="Times,serif" font-size="14.00">«include»</text>
</g>
</g>
</svg>
