<?xml version="1.0" encoding="UTF-8" standalone="no"?>
<!DOCTYPE svg PUBLIC "-//W3C//DTD SVG 1.1//EN"
 "http://www.w3.org/Graphics/SVG/1.1/DTD/svg11.dtd">
<!-- Generated by graphviz version 2.43.0 (0)
 -->
<!-- Title: foundation Pages: 1 -->
<svg width="1097pt" height="458pt"
 viewBox="0.00 0.00 1097.00 458.00" xmlns="http://www.w3.org/2000/svg" xmlns:xlink="http://www.w3.org/1999/xlink">
<g id="graph0" class="graph" transform="scale(1 1) rotate(0) translate(4 454)">
<title>foundation</title>
<polygon fill="white" stroke="transparent" points="-4,4 -4,-454 1093,-454 1093,4 -4,4"/>
<!-- 2d&#45;engine -->
<g id="node1" class="node">
<title>2d&#45;engine</title>
<polygon fill="white" stroke="black" stroke-width="2" points="582,-207 482,-207 482,-177 582,-177 582,-207"/>
<text text-anchor="middle" x="532" y="-188.3" font-family="Times,serif" font-size="14.00">2d&#45;engine</text>
</g>
<!-- bbox&#45;engine -->
<g id="node4" class="node">
<title>bbox&#45;engine</title>
<polygon fill="white" stroke="black" stroke-width="2" points="848.5,-111 745.5,-111 745.5,-81 848.5,-81 848.5,-111"/>
<text text-anchor="middle" x="797" y="-92.3" font-family="Times,serif" font-size="14.00">bbox&#45;engine</text>
</g>
<!-- 2d&#45;engine&#45;&gt;bbox&#45;engine -->
<g id="edge20" class="edge">
<title>2d&#45;engine&#45;&gt;bbox&#45;engine</title>
<path fill="none" stroke="red" stroke-width="2" d="M571.67,-176.93C618.74,-160.23 697.22,-132.39 748.03,-114.37"/>
<polygon fill="red" stroke="red" stroke-width="2" points="749.23,-117.66 757.49,-111.02 746.89,-111.06 749.23,-117.66"/>
<text text-anchor="middle" x="725" y="-140.3" font-family="Times,serif" font-size="14.00">«use»</text>
</g>
<!-- mngm&#45;engine -->
<g id="node14" class="node">
<title>mngm&#45;engine</title>
<polygon fill="white" stroke="black" stroke-width="2" points="727,-111 613,-111 613,-81 727,-81 727,-111"/>
<text text-anchor="middle" x="670" y="-92.3" font-family="Times,serif" font-size="14.00">mngm&#45;engine</text>
</g>
<!-- 2d&#45;engine&#45;&gt;mngm&#45;engine -->
<g id="edge19" class="edge">
<title>2d&#45;engine&#45;&gt;mngm&#45;engine</title>
<path fill="none" stroke="red" stroke-width="2" d="M535.51,-176.87C539.73,-162.77 548.17,-141.47 563,-129 569.86,-123.24 585.7,-117.47 603.15,-112.44"/>
<polygon fill="red" stroke="red" stroke-width="2" points="604.26,-115.77 612.97,-109.73 602.4,-109.02 604.26,-115.77"/>
<text text-anchor="middle" x="584" y="-140.3" font-family="Times,serif" font-size="14.00">«use»</text>
</g>
<!-- unsafe_defs -->
<g id="node20" class="node">
<title>unsafe_defs</title>
<polygon fill="white" stroke="black" stroke-width="2" points="594.5,-111 493.5,-111 493.5,-81 594.5,-81 594.5,-111"/>
<text text-anchor="middle" x="544" y="-92.3" font-family="Times,serif" font-size="14.00">unsafe_defs</text>
</g>
<!-- 2d&#45;engine&#45;&gt;unsafe_defs -->
<g id="edge1" class="edge">
<title>2d&#45;engine&#45;&gt;unsafe_defs</title>
<path fill="none" stroke="black" d="M490.29,-176.96C482.61,-172.44 475.58,-166.57 471,-159 464.1,-147.59 463.71,-140.16 471,-129 474.53,-123.6 479.19,-119.11 484.45,-115.37"/>
<polygon fill="black" stroke="black" points="486.42,-118.28 493.15,-110.1 482.79,-112.29 486.42,-118.28"/>
<text text-anchor="middle" x="505.5" y="-140.3" font-family="Times,serif" font-size="14.00">«include»</text>
</g>
<!-- 3d&#45;engine -->
<g id="node2" class="node">
<title>3d&#45;engine</title>
<polygon fill="white" stroke="black" stroke-width="2" points="477,-288 377,-288 377,-258 477,-258 477,-288"/>
<text text-anchor="middle" x="427" y="-269.3" font-family="Times,serif" font-size="14.00">3d&#45;engine</text>
</g>
<!-- 3d&#45;engine&#45;&gt;2d&#45;engine -->
<g id="edge2" class="edge">
<title>3d&#45;engine&#45;&gt;2d&#45;engine</title>
<path fill="none" stroke="black" d="M447.3,-257.86C455.09,-252.36 464.01,-245.96 472,-240 483.38,-231.5 495.76,-221.87 506.31,-213.55"/>
<polygon fill="black" stroke="black" points="508.65,-216.16 514.31,-207.2 504.3,-210.67 508.65,-216.16"/>
<text text-anchor="middle" x="525.5" y="-228.8" font-family="Times,serif" font-size="14.00">«include»</text>
</g>
<!-- polymorphic&#45;engine -->
<g id="node15" class="node">
<title>polymorphic&#45;engine</title>
<polygon fill="white" stroke="black" stroke-width="2" points="763,-369 605,-369 605,-339 763,-339 763,-369"/>
<text text-anchor="middle" x="684" y="-350.3" font-family="Times,serif" font-size="14.00">polymorphic&#45;engine</text>
</g>
<!-- 3d&#45;engine&#45;&gt;polymorphic&#45;engine -->
<g id="edge21" class="edge">
<title>3d&#45;engine&#45;&gt;polymorphic&#45;engine</title>
<path fill="none" stroke="red" stroke-width="2" d="M477.1,-284.72C497.14,-289.89 520.14,-296.97 540,-306 551.11,-311.05 551.85,-316.04 563,-321 576.39,-326.95 591.12,-331.99 605.56,-336.18"/>
<polygon fill="red" stroke="red" stroke-width="2" points="604.92,-339.63 615.49,-338.95 606.8,-332.89 604.92,-339.63"/>
<text text-anchor="middle" x="584" y="-309.8" font-family="Times,serif" font-size="14.00">«use»</text>
</g>
<!-- traits&#45;engine -->
<g id="node18" class="node">
<title>traits&#45;engine</title>
<polygon fill="white" stroke="black" stroke-width="2" points="447,-159 339,-159 339,-129 447,-129 447,-159"/>
<text text-anchor="middle" x="393" y="-140.3" font-family="Times,serif" font-size="14.00">traits&#45;engine</text>
</g>
<!-- 3d&#45;engine&#45;&gt;traits&#45;engine -->
<g id="edge3" class="edge">
<title>3d&#45;engine&#45;&gt;traits&#45;engine</title>
<path fill="none" stroke="black" d="M411.02,-257.8C406.31,-252.69 401.7,-246.55 399,-240 389.65,-217.31 389.13,-188.98 390.34,-169.18"/>
<polygon fill="black" stroke="black" points="393.83,-169.4 391.14,-159.16 386.85,-168.84 393.83,-169.4"/>
<text text-anchor="middle" x="433.5" y="-228.8" font-family="Times,serif" font-size="14.00">«include»</text>
</g>
<!-- type&#45;engine -->
<g id="node19" class="node">
<title>type&#45;engine</title>
<polygon fill="white" stroke="black" stroke-width="2" points="934.5,-207 833.5,-207 833.5,-177 934.5,-177 934.5,-207"/>
<text text-anchor="middle" x="884" y="-188.3" font-family="Times,serif" font-size="14.00">type&#45;engine</text>
</g>
<!-- 3d&#45;engine&#45;&gt;type&#45;engine -->
<g id="edge22" class="edge">
<title>3d&#45;engine&#45;&gt;type&#45;engine</title>
<path fill="none" stroke="red" stroke-width="2" d="M477.2,-260.68C503.16,-254.73 535.33,-247.19 564,-240 588.99,-233.74 594.63,-229.48 620,-225 706.57,-209.71 732.37,-220.57 823.44,-206.89"/>
<polygon fill="red" stroke="red" stroke-width="2" points="824.02,-210.35 833.36,-205.35 822.94,-203.43 824.02,-210.35"/>
<text text-anchor="middle" x="641" y="-228.8" font-family="Times,serif" font-size="14.00">«use»</text>
</g>
<!-- algo&#45;engine -->
<g id="node3" class="node">
<title>algo&#45;engine</title>
<polygon fill="white" stroke="black" stroke-width="2" points="100,-369 0,-369 0,-339 100,-339 100,-369"/>
<text text-anchor="middle" x="50" y="-350.3" font-family="Times,serif" font-size="14.00">algo&#45;engine</text>
</g>
<!-- algo&#45;engine&#45;&gt;3d&#45;engine -->
<g id="edge4" class="edge">
<title>algo&#45;engine&#45;&gt;3d&#45;engine</title>
<path fill="none" stroke="black" d="M67.57,-338.93C82.27,-327.98 104.28,-313.44 126,-306 169.09,-291.25 291.84,-281.8 366.61,-277.24"/>
<polygon fill="black" stroke="black" points="367.05,-280.72 376.83,-276.63 366.63,-273.73 367.05,-280.72"/>
<text text-anchor="middle" x="160.5" y="-309.8" font-family="Times,serif" font-size="14.00">«include»</text>
</g>
<!-- core -->
<g id="node7" class="node">
<title>core</title>
<polygon fill="white" stroke="black" stroke-width="2" points="720,-30 620,-30 620,0 720,0 720,-30"/>
<text text-anchor="middle" x="670" y="-11.3" font-family="Times,serif" font-size="14.00">core</text>
</g>
<!-- bbox&#45;engine&#45;&gt;core -->
<g id="edge5" class="edge">
<title>bbox&#45;engine&#45;&gt;core</title>
<path fill="none" stroke="black" d="M783.28,-80.96C772.89,-70.87 757.91,-57.44 743,-48 734.93,-42.89 725.91,-38.21 717.03,-34.1"/>
<polygon fill="black" stroke="black" points="718.43,-30.89 707.88,-30.02 715.59,-37.29 718.43,-30.89"/>
<text text-anchor="middle" x="797.5" y="-51.8" font-family="Times,serif" font-size="14.00">«include»</text>
</g>
<!-- components -->
<g id="node5" class="node">
<title>components</title>
<polygon fill="white" stroke="black" stroke-width="2" points="815.5,-207 712.5,-207 712.5,-177 815.5,-177 815.5,-207"/>
<text text-anchor="middle" x="764" y="-188.3" font-family="Times,serif" font-size="14.00">components</text>
</g>
<!-- components&#45;&gt;bbox&#45;engine -->
<g id="edge6" class="edge">
<title>components&#45;&gt;bbox&#45;engine</title>
<path fill="none" stroke="black" d="M761.3,-176.84C759.5,-163.85 758.49,-144.36 765,-129 766.58,-125.28 768.81,-121.77 771.37,-118.52"/>
<polygon fill="black" stroke="black" points="774.04,-120.79 778.24,-111.06 768.89,-116.05 774.04,-120.79"/>
<text text-anchor="middle" x="799.5" y="-140.3" font-family="Times,serif" font-size="14.00">«include»</text>
</g>
<!-- connect -->
<g id="node6" class="node">
<title>connect</title>
<polygon fill="white" stroke="black" stroke-width="2" points="454,-450 354,-450 354,-420 454,-420 454,-450"/>
<text text-anchor="middle" x="404" y="-431.3" font-family="Times,serif" font-size="14.00">connect</text>
</g>
<!-- util -->
<g id="node21" class="node">
<title>util</title>
<polygon fill="white" stroke="black" stroke-width="2" points="454,-369 354,-369 354,-339 454,-339 454,-369"/>
<text text-anchor="middle" x="404" y="-350.3" font-family="Times,serif" font-size="14.00">util</text>
</g>
<!-- connect&#45;&gt;util -->
<g id="edge7" class="edge">
<title>connect&#45;&gt;util</title>
<path fill="none" stroke="black" d="M404,-419.88C404,-408.64 404,-392.66 404,-379.37"/>
<polygon fill="black" stroke="black" points="407.5,-379 404,-369 400.5,-379 407.5,-379"/>
<text text-anchor="middle" x="438.5" y="-390.8" font-family="Times,serif" font-size="14.00">«include»</text>
</g>
<!-- dimensions -->
<g id="node8" class="node">
<title>dimensions</title>
<polygon fill="white" stroke="black" stroke-width="2" points="690,-450 590,-450 590,-420 690,-420 690,-450"/>
<text text-anchor="middle" x="640" y="-431.3" font-family="Times,serif" font-size="14.00">dimensions</text>
</g>
<!-- fillet -->
<g id="node9" class="node">
<title>fillet</title>
<polygon fill="white" stroke="black" stroke-width="2" points="218,-369 118,-369 118,-339 218,-339 218,-369"/>
<text text-anchor="middle" x="168" y="-350.3" font-family="Times,serif" font-size="14.00">fillet</text>
</g>
<!-- fillet&#45;&gt;3d&#45;engine -->
<g id="edge8" class="edge">
<title>fillet&#45;&gt;3d&#45;engine</title>
<path fill="none" stroke="black" d="M179.95,-338.66C189.8,-327.86 204.75,-313.64 221,-306 266.84,-284.43 324.13,-276.88 366.65,-274.47"/>
<polygon fill="black" stroke="black" points="367.03,-277.96 376.85,-273.97 366.69,-270.96 367.03,-277.96"/>
<text text-anchor="middle" x="255.5" y="-309.8" font-family="Times,serif" font-size="14.00">«include»</text>
</g>
<!-- grid -->
<g id="node10" class="node">
<title>grid</title>
<polygon fill="white" stroke="black" stroke-width="2" points="336,-369 236,-369 236,-339 336,-339 336,-369"/>
<text text-anchor="middle" x="286" y="-350.3" font-family="Times,serif" font-size="14.00">grid</text>
</g>
<!-- grid&#45;&gt;3d&#45;engine -->
<g id="edge9" class="edge">
<title>grid&#45;&gt;3d&#45;engine</title>
<path fill="none" stroke="black" d="M287.94,-338.7C290.1,-328.21 294.62,-314.39 304,-306 321.18,-290.63 344.83,-282.47 366.81,-278.21"/>
<polygon fill="black" stroke="black" points="367.49,-281.64 376.76,-276.51 366.31,-274.74 367.49,-281.64"/>
<text text-anchor="middle" x="338.5" y="-309.8" font-family="Times,serif" font-size="14.00">«include»</text>
</g>
<!-- hole -->
<g id="node11" class="node">
<title>hole</title>
<polygon fill="white" stroke="black" stroke-width="2" points="572,-450 472,-450 472,-420 572,-420 572,-450"/>
<text text-anchor="middle" x="522" y="-431.3" font-family="Times,serif" font-size="14.00">hole</text>
</g>
<!-- label -->
<g id="node12" class="node">
<title>label</title>
<polygon fill="white" stroke="black" stroke-width="2" points="572,-369 472,-369 472,-339 572,-339 572,-369"/>
<text text-anchor="middle" x="522" y="-350.3" font-family="Times,serif" font-size="14.00">label</text>
</g>
<!-- hole&#45;&gt;label -->
<g id="edge10" class="edge">
<title>hole&#45;&gt;label</title>
<path fill="none" stroke="black" d="M522,-419.88C522,-408.64 522,-392.66 522,-379.37"/>
<polygon fill="black" stroke="black" points="525.5,-379 522,-369 518.5,-379 525.5,-379"/>
<text text-anchor="middle" x="556.5" y="-390.8" font-family="Times,serif" font-size="14.00">«include»</text>
</g>
<!-- label&#45;&gt;3d&#45;engine -->
<g id="edge11" class="edge">
<title>label&#45;&gt;3d&#45;engine</title>
<path fill="none" stroke="black" d="M496.73,-338.92C488.23,-333.73 478.9,-327.52 471,-321 461.85,-313.46 452.73,-304.09 445.18,-295.72"/>
<polygon fill="black" stroke="black" points="447.7,-293.28 438.48,-288.07 442.44,-297.9 447.7,-293.28"/>
<text text-anchor="middle" x="505.5" y="-309.8" font-family="Times,serif" font-size="14.00">«include»</text>
</g>
<!-- limits -->
<g id="node13" class="node">
<title>limits</title>
<polygon fill="white" stroke="black" stroke-width="2" points="370,-111 270,-111 270,-81 370,-81 370,-111"/>
<text text-anchor="middle" x="320" y="-92.3" font-family="Times,serif" font-size="14.00">limits</text>
</g>
<!-- limits&#45;&gt;core -->
<g id="edge12" class="edge">
<title>limits&#45;&gt;core</title>
<path fill="none" stroke="black" d="M316.51,-80.73C314.87,-70.26 314.79,-56.44 323,-48 342.54,-27.9 515.6,-20.13 609.7,-17.38"/>
<polygon fill="black" stroke="black" points="610.04,-20.87 619.93,-17.09 609.84,-13.87 610.04,-20.87"/>
<text text-anchor="middle" x="357.5" y="-51.8" font-family="Times,serif" font-size="14.00">«include»</text>
</g>
<!-- mngm&#45;engine&#45;&gt;core -->
<g id="edge13" class="edge">
<title>mngm&#45;engine&#45;&gt;core</title>
<path fill="none" stroke="black" d="M670,-80.88C670,-69.64 670,-53.66 670,-40.37"/>
<polygon fill="black" stroke="black" points="673.5,-40 670,-30 666.5,-40 673.5,-40"/>
<text text-anchor="middle" x="704.5" y="-51.8" font-family="Times,serif" font-size="14.00">«include»</text>
</g>
<!-- polymorphic&#45;engine&#45;&gt;3d&#45;engine -->
<g id="edge23" class="edge">
<title>polymorphic&#45;engine&#45;&gt;3d&#45;engine</title>
<path fill="none" stroke="red" stroke-width="2" d="M658.73,-338.97C649.04,-333.49 637.94,-327.07 628,-321 617.59,-314.64 616.34,-310.5 605,-306 567.42,-291.08 522.6,-283.07 487.34,-278.8"/>
<polygon fill="red" stroke="red" stroke-width="2" points="487.52,-275.3 477.19,-277.64 486.73,-282.25 487.52,-275.3"/>
<text text-anchor="middle" x="649" y="-309.8" font-family="Times,serif" font-size="14.00">«use»</text>
</g>
<!-- polymorphic&#45;engine&#45;&gt;bbox&#45;engine -->
<g id="edge24" class="edge">
<title>polymorphic&#45;engine&#45;&gt;bbox&#45;engine</title>
<path fill="none" stroke="red" stroke-width="2" d="M742,-338.97C804.44,-320.42 900.65,-281.05 944,-207 963.78,-173.2 935.79,-150.41 903,-129 889.67,-120.29 873.86,-113.87 858.58,-109.16"/>
<polygon fill="red" stroke="red" stroke-width="2" points="859.22,-105.71 848.64,-106.31 857.29,-112.43 859.22,-105.71"/>
<text text-anchor="middle" x="951" y="-228.8" font-family="Times,serif" font-size="14.00">«use»</text>
</g>
<!-- polymorphic&#45;engine&#45;&gt;core -->
<g id="edge14" class="edge">
<title>polymorphic&#45;engine&#45;&gt;core</title>
<path fill="none" stroke="black" d="M763.2,-350.05C862.54,-344.15 1020,-326.51 1020,-274 1020,-274 1020,-274 1020,-95 1020,-36.34 830.57,-21.23 730.43,-17.35"/>
<polygon fill="black" stroke="black" points="730.27,-13.84 720.15,-16.97 730.01,-20.83 730.27,-13.84"/>
<text text-anchor="middle" x="1054.5" y="-188.3" font-family="Times,serif" font-size="14.00">«include»</text>
</g>
<!-- polymorphic&#45;engine&#45;&gt;mngm&#45;engine -->
<g id="edge25" class="edge">
<title>polymorphic&#45;engine&#45;&gt;mngm&#45;engine</title>
<path fill="none" stroke="red" stroke-width="2" d="M683.23,-338.87C680.94,-297.09 674.2,-173.74 671.32,-121.17"/>
<polygon fill="red" stroke="red" stroke-width="2" points="674.81,-120.88 670.77,-111.08 667.82,-121.26 674.81,-120.88"/>
<text text-anchor="middle" x="699" y="-228.8" font-family="Times,serif" font-size="14.00">«use»</text>
</g>
<!-- quaternions -->
<g id="node16" class="node">
<title>quaternions</title>
<polygon fill="white" stroke="black" stroke-width="2" points="810,-450 708,-450 708,-420 810,-420 810,-450"/>
<text text-anchor="middle" x="759" y="-431.3" font-family="Times,serif" font-size="14.00">quaternions</text>
</g>
<!-- template -->
<g id="node17" class="node">
<title>template</title>
<polygon fill="white" stroke="black" stroke-width="2" points="928,-450 828,-450 828,-420 928,-420 928,-450"/>
<text text-anchor="middle" x="878" y="-431.3" font-family="Times,serif" font-size="14.00">template</text>
</g>
<!-- traits&#45;engine&#45;&gt;core -->
<g id="edge15" class="edge">
<title>traits&#45;engine&#45;&gt;core</title>
<path fill="none" stroke="black" d="M394.23,-128.84C396.22,-114.72 401.42,-93.4 415,-81 468.21,-32.44 552.62,-19.04 609.6,-15.91"/>
<polygon fill="black" stroke="black" points="610.08,-19.39 619.91,-15.44 609.76,-12.4 610.08,-19.39"/>
<text text-anchor="middle" x="449.5" y="-92.3" font-family="Times,serif" font-size="14.00">«include»</text>
</g>
<!-- type&#45;engine&#45;&gt;bbox&#45;engine -->
<g id="edge26" class="edge">
<title>type&#45;engine&#45;&gt;bbox&#45;engine</title>
<path fill="none" stroke="red" stroke-width="2" d="M871.76,-176.78C867.08,-171.28 861.74,-164.89 857,-159 846.47,-145.91 845.52,-141.23 834,-129 830.45,-125.23 826.49,-121.45 822.53,-117.86"/>
<polygon fill="red" stroke="red" stroke-width="2" points="824.82,-115.22 814.98,-111.28 820.22,-120.49 824.82,-115.22"/>
<text text-anchor="middle" x="878" y="-140.3" font-family="Times,serif" font-size="14.00">«use»</text>
</g>
<!-- type&#45;engine&#45;&gt;core -->
<g id="edge16" class="edge">
<title>type&#45;engine&#45;&gt;core</title>
<path fill="none" stroke="black" d="M892.28,-176.82C894.98,-171.43 897.64,-165.11 899,-159 901.9,-145.99 903.33,-141.61 899,-129 884.2,-85.86 874.88,-71.84 836,-48 804.37,-28.6 763.5,-20.56 730.22,-17.39"/>
<polygon fill="black" stroke="black" points="730.41,-13.89 720.16,-16.55 729.84,-20.87 730.41,-13.89"/>
<text text-anchor="middle" x="926.5" y="-92.3" font-family="Times,serif" font-size="14.00">«include»</text>
</g>
<!-- unsafe_defs&#45;&gt;core -->
<g id="edge17" class="edge">
<title>unsafe_defs&#45;&gt;core</title>
<path fill="none" stroke="black" d="M557.42,-80.94C567.59,-70.84 582.29,-57.41 597,-48 604.87,-42.96 613.68,-38.35 622.37,-34.3"/>
<polygon fill="black" stroke="black" points="624.01,-37.4 631.71,-30.12 621.15,-31.01 624.01,-37.4"/>
<text text-anchor="middle" x="631.5" y="-51.8" font-family="Times,serif" font-size="14.00">«include»</text>
</g>
<!-- util&#45;&gt;3d&#45;engine -->
<g id="edge18" class="edge">
<title>util&#45;&gt;3d&#45;engine</title>
<path fill="none" stroke="black" d="M388.4,-338.59C380.28,-329.28 373.16,-316.92 379,-306 381.3,-301.7 384.46,-297.88 388.07,-294.51"/>
<polygon fill="black" stroke="black" points="390.34,-297.18 395.99,-288.22 385.98,-291.7 390.34,-297.18"/>
<text text-anchor="middle" x="413.5" y="-309.8" font-family="Times,serif" font-size="14.00">«include»</text>
</g>
</g>
</svg>
