<?xml version="1.0" encoding="UTF-8" standalone="no"?>
<!DOCTYPE svg PUBLIC "-//W3C//DTD SVG 1.1//EN"
 "http://www.w3.org/Graphics/SVG/1.1/DTD/svg11.dtd">
<!-- Generated by graphviz version 8.1.0 (20230707.0739)
 -->
<!-- Title: foundation Pages: 1 -->
<svg width="1141pt" height="467pt"
 viewBox="0.00 0.00 1141.25 467.00" xmlns="http://www.w3.org/2000/svg" xmlns:xlink="http://www.w3.org/1999/xlink">
<g id="graph0" class="graph" transform="scale(1 1) rotate(0) translate(4 463)">
<title>foundation</title>
<polygon fill="white" stroke="none" points="-4,4 -4,-463 1137.25,-463 1137.25,4 -4,4"/>
<!-- 2d&#45;engine -->
<g id="node1" class="node">
<title>2d&#45;engine</title>
<polygon fill="white" stroke="black" stroke-width="2" points="741,-209.25 641,-209.25 641,-179.25 741,-179.25 741,-209.25"/>
<text text-anchor="middle" x="691" y="-189.58" font-family="Times,serif" font-size="14.00">2d&#45;engine</text>
</g>
<!-- bbox&#45;engine -->
<g id="node4" class="node">
<title>bbox&#45;engine</title>
<polygon fill="white" stroke="black" stroke-width="2" points="878.13,-113.25 775.88,-113.25 775.88,-83.25 878.13,-83.25 878.13,-113.25"/>
<text text-anchor="middle" x="827" y="-93.58" font-family="Times,serif" font-size="14.00">bbox&#45;engine</text>
</g>
<!-- 2d&#45;engine&#45;&gt;bbox&#45;engine -->
<g id="edge22" class="edge">
<title>2d&#45;engine&#45;&gt;bbox&#45;engine</title>
<path fill="none" stroke="red" stroke-width="2" d="M719.6,-178.26C727.6,-173.39 736.01,-167.59 743,-161.25 755.39,-150.01 752.97,-142.05 765.75,-131.25 770.37,-127.34 775.56,-123.73 780.9,-120.45"/>
<polygon fill="red" stroke="red" stroke-width="2" points="782.97,-123.17 789.95,-115.2 779.52,-117.08 782.97,-123.17"/>
<text text-anchor="middle" x="786.63" y="-141.58" font-family="Times,serif" font-size="14.00">«use»</text>
</g>
<!-- mngm&#45;engine -->
<g id="node14" class="node">
<title>mngm&#45;engine</title>
<polygon fill="white" stroke="black" stroke-width="2" points="757.75,-113.25 644.25,-113.25 644.25,-83.25 757.75,-83.25 757.75,-113.25"/>
<text text-anchor="middle" x="701" y="-93.58" font-family="Times,serif" font-size="14.00">mngm&#45;engine</text>
</g>
<!-- 2d&#45;engine&#45;&gt;mngm&#45;engine -->
<g id="edge21" class="edge">
<title>2d&#45;engine&#45;&gt;mngm&#45;engine</title>
<path fill="none" stroke="red" stroke-width="2" d="M692.56,-178.56C694.03,-164.78 696.26,-143.81 698.06,-126.89"/>
<polygon fill="red" stroke="red" stroke-width="2" points="701.84,-127.46 699.42,-117.14 694.88,-126.72 701.84,-127.46"/>
<text text-anchor="middle" x="718.63" y="-141.58" font-family="Times,serif" font-size="14.00">«use»</text>
</g>
<!-- unsafe_defs -->
<g id="node19" class="node">
<title>unsafe_defs</title>
<polygon fill="white" stroke="black" stroke-width="2" points="626,-113.25 526,-113.25 526,-83.25 626,-83.25 626,-113.25"/>
<text text-anchor="middle" x="576" y="-93.58" font-family="Times,serif" font-size="14.00">unsafe_defs</text>
</g>
<!-- 2d&#45;engine&#45;&gt;unsafe_defs -->
<g id="edge1" class="edge">
<title>2d&#45;engine&#45;&gt;unsafe_defs</title>
<path fill="none" stroke="black" d="M650.82,-178.37C641.08,-173.72 631.08,-168.01 622.75,-161.25 609.74,-150.69 598.34,-135.77 590.05,-123.21"/>
<polygon fill="black" stroke="black" points="592.65,-121.76 584.35,-115.18 586.73,-125.5 592.65,-121.76"/>
<text text-anchor="middle" x="657.13" y="-141.58" font-family="Times,serif" font-size="14.00">«include»</text>
</g>
<!-- 3d&#45;engine -->
<g id="node2" class="node">
<title>3d&#45;engine</title>
<polygon fill="white" stroke="black" stroke-width="2" points="572,-292.5 472,-292.5 472,-262.5 572,-262.5 572,-292.5"/>
<text text-anchor="middle" x="522" y="-272.83" font-family="Times,serif" font-size="14.00">3d&#45;engine</text>
</g>
<!-- 3d&#45;engine&#45;&gt;2d&#45;engine -->
<g id="edge23" class="edge">
<title>3d&#45;engine&#45;&gt;2d&#45;engine</title>
<path fill="none" stroke="red" stroke-width="2" d="M554.72,-261.52C566.21,-256.2 579.21,-250.14 591,-244.5 610.39,-235.23 631.77,-224.74 649.77,-215.83"/>
<polygon fill="red" stroke="red" stroke-width="2" points="651.93,-218.67 659.33,-211.09 648.82,-212.4 651.93,-218.67"/>
<text text-anchor="middle" x="645.63" y="-231.2" font-family="Times,serif" font-size="14.00">«use»</text>
</g>
<!-- 3d&#45;engine&#45;&gt;bbox&#45;engine -->
<g id="edge24" class="edge">
<title>3d&#45;engine&#45;&gt;bbox&#45;engine</title>
<path fill="none" stroke="red" stroke-width="2" d="M572.89,-270.04C643.03,-261.08 761.05,-245.85 763,-244.5 802.15,-217.23 817.62,-160.41 823.53,-126.48"/>
<polygon fill="red" stroke="red" stroke-width="2" points="827.41,-126.31 825.47,-115.9 820.49,-125.25 827.41,-126.31"/>
<text text-anchor="middle" x="828.63" y="-189.58" font-family="Times,serif" font-size="14.00">«use»</text>
</g>
<!-- 3d&#45;engine&#45;&gt;mngm&#45;engine -->
<g id="edge25" class="edge">
<title>3d&#45;engine&#45;&gt;mngm&#45;engine</title>
<path fill="none" stroke="red" stroke-width="2" d="M529.4,-261.57C536.12,-247.96 546.3,-227.29 555,-209.25 571.67,-174.69 562.82,-156.16 592,-131.25 598.73,-125.5 614.15,-119.85 631.33,-114.93"/>
<polygon fill="red" stroke="red" stroke-width="2" points="632.69,-117.65 641.42,-111.65 630.86,-110.89 632.69,-117.65"/>
<text text-anchor="middle" x="586.63" y="-189.58" font-family="Times,serif" font-size="14.00">«use»</text>
</g>
<!-- type_trait -->
<g id="node18" class="node">
<title>type_trait</title>
<polygon fill="white" stroke="black" stroke-width="2" points="449,-161.25 349,-161.25 349,-131.25 449,-131.25 449,-161.25"/>
<text text-anchor="middle" x="399" y="-141.58" font-family="Times,serif" font-size="14.00">type_trait</text>
</g>
<!-- 3d&#45;engine&#45;&gt;type_trait -->
<g id="edge3" class="edge">
<title>3d&#45;engine&#45;&gt;type_trait</title>
<path fill="none" stroke="black" d="M471.12,-270.59C438.65,-265.65 400.82,-257.32 390.75,-244.5 374.88,-224.3 380.7,-193.93 388.08,-172.51"/>
<polygon fill="black" stroke="black" points="391.71,-173.82 391.98,-163.23 385.16,-171.34 391.71,-173.82"/>
<text text-anchor="middle" x="425.13" y="-231.2" font-family="Times,serif" font-size="14.00">«include»</text>
</g>
<!-- 3d&#45;engine&#45;&gt;unsafe_defs -->
<g id="edge2" class="edge">
<title>3d&#45;engine&#45;&gt;unsafe_defs</title>
<path fill="none" stroke="black" d="M509.55,-261.74C494.87,-242.46 474.01,-207.78 486.75,-179.25 497.86,-154.37 520.96,-134.01 540.87,-120.06"/>
<polygon fill="black" stroke="black" points="542.39,-122.58 548.74,-114.11 538.49,-116.77 542.39,-122.58"/>
<text text-anchor="middle" x="521.13" y="-189.58" font-family="Times,serif" font-size="14.00">«include»</text>
</g>
<!-- algo&#45;engine -->
<g id="node3" class="node">
<title>algo&#45;engine</title>
<polygon fill="white" stroke="black" stroke-width="2" points="218,-375.75 118,-375.75 118,-345.75 218,-345.75 218,-375.75"/>
<text text-anchor="middle" x="168" y="-356.08" font-family="Times,serif" font-size="14.00">algo&#45;engine</text>
</g>
<!-- algo&#45;engine&#45;&gt;3d&#45;engine -->
<g id="edge4" class="edge">
<title>algo&#45;engine&#45;&gt;3d&#45;engine</title>
<path fill="none" stroke="black" d="M189.43,-344.92C206.98,-333.55 232.88,-318.5 257.75,-310.5 324.84,-288.92 405.76,-281.7 460.24,-279.38"/>
<polygon fill="black" stroke="black" points="460.25,-282.85 470.11,-278.97 459.98,-275.85 460.25,-282.85"/>
<text text-anchor="middle" x="292.13" y="-314.45" font-family="Times,serif" font-size="14.00">«include»</text>
</g>
<!-- core -->
<g id="node7" class="node">
<title>core</title>
<polygon fill="white" stroke="black" stroke-width="2" points="688,-30 588,-30 588,0 688,0 688,-30"/>
<text text-anchor="middle" x="638" y="-10.33" font-family="Times,serif" font-size="14.00">core</text>
</g>
<!-- bbox&#45;engine&#45;&gt;core -->
<g id="edge5" class="edge">
<title>bbox&#45;engine&#45;&gt;core</title>
<path fill="none" stroke="black" d="M806.75,-82.45C791.28,-71.69 769.1,-57.43 748,-48 732.66,-41.14 715.46,-35.33 699.3,-30.61"/>
<polygon fill="black" stroke="black" points="700.44,-27.01 689.87,-27.67 698.54,-33.75 700.44,-27.01"/>
<text text-anchor="middle" x="813.13" y="-51.95" font-family="Times,serif" font-size="14.00">«include»</text>
</g>
<!-- components -->
<g id="node5" class="node">
<title>components</title>
<polygon fill="white" stroke="black" stroke-width="2" points="981.13,-209.25 878.88,-209.25 878.88,-179.25 981.13,-179.25 981.13,-209.25"/>
<text text-anchor="middle" x="930" y="-189.58" font-family="Times,serif" font-size="14.00">components</text>
</g>
<!-- components&#45;&gt;bbox&#45;engine -->
<g id="edge6" class="edge">
<title>components&#45;&gt;bbox&#45;engine</title>
<path fill="none" stroke="black" d="M915.01,-178.45C902,-165.71 882.53,-146.97 865,-131.25 861.19,-127.83 857.1,-124.28 853.07,-120.83"/>
<polygon fill="black" stroke="black" points="855.88,-117.78 845.98,-114 851.36,-123.13 855.88,-117.78"/>
<text text-anchor="middle" x="929.13" y="-141.58" font-family="Times,serif" font-size="14.00">«include»</text>
</g>
<!-- connect -->
<g id="node6" class="node">
<title>connect</title>
<polygon fill="white" stroke="black" stroke-width="2" points="808,-459 708,-459 708,-429 808,-429 808,-459"/>
<text text-anchor="middle" x="758" y="-439.33" font-family="Times,serif" font-size="14.00">connect</text>
</g>
<!-- util -->
<g id="node20" class="node">
<title>util</title>
<polygon fill="white" stroke="black" stroke-width="2" points="808,-375.75 708,-375.75 708,-345.75 808,-345.75 808,-375.75"/>
<text text-anchor="middle" x="758" y="-356.08" font-family="Times,serif" font-size="14.00">util</text>
</g>
<!-- connect&#45;&gt;util -->
<g id="edge7" class="edge">
<title>connect&#45;&gt;util</title>
<path fill="none" stroke="black" d="M758,-428.1C758,-416.76 758,-400.88 758,-387.5"/>
<polygon fill="black" stroke="black" points="761.5,-387.56 758,-377.56 754.5,-387.56 761.5,-387.56"/>
<text text-anchor="middle" x="792.13" y="-397.7" font-family="Times,serif" font-size="14.00">«include»</text>
</g>
<!-- drawio -->
<g id="node8" class="node">
<title>drawio</title>
<polygon fill="white" stroke="black" stroke-width="2" points="741,-292.5 641,-292.5 641,-262.5 741,-262.5 741,-292.5"/>
<text text-anchor="middle" x="691" y="-272.83" font-family="Times,serif" font-size="14.00">drawio</text>
</g>
<!-- drawio&#45;&gt;2d&#45;engine -->
<g id="edge8" class="edge">
<title>drawio&#45;&gt;2d&#45;engine</title>
<path fill="none" stroke="black" d="M691,-261.6C691,-250.26 691,-234.38 691,-221"/>
<polygon fill="black" stroke="black" points="694.5,-221.06 691,-211.06 687.5,-221.06 694.5,-221.06"/>
<text text-anchor="middle" x="725.13" y="-231.2" font-family="Times,serif" font-size="14.00">«include»</text>
</g>
<!-- fillet -->
<g id="node9" class="node">
<title>fillet</title>
<polygon fill="white" stroke="black" stroke-width="2" points="336,-375.75 236,-375.75 236,-345.75 336,-345.75 336,-375.75"/>
<text text-anchor="middle" x="286" y="-356.08" font-family="Times,serif" font-size="14.00">fillet</text>
</g>
<!-- fillet&#45;&gt;3d&#45;engine -->
<g id="edge9" class="edge">
<title>fillet&#45;&gt;3d&#45;engine</title>
<path fill="none" stroke="black" d="M303.65,-344.79C317.7,-333.67 338.33,-319 358.75,-310.5 390.95,-297.1 429.1,-289.22 460.42,-284.64"/>
<polygon fill="black" stroke="black" points="460.76,-287.98 470.19,-283.15 459.81,-281.05 460.76,-287.98"/>
<text text-anchor="middle" x="393.13" y="-314.45" font-family="Times,serif" font-size="14.00">«include»</text>
</g>
<!-- grid -->
<g id="node10" class="node">
<title>grid</title>
<polygon fill="white" stroke="black" stroke-width="2" points="454,-375.75 354,-375.75 354,-345.75 454,-345.75 454,-375.75"/>
<text text-anchor="middle" x="404" y="-356.08" font-family="Times,serif" font-size="14.00">grid</text>
</g>
<!-- grid&#45;&gt;3d&#45;engine -->
<g id="edge10" class="edge">
<title>grid&#45;&gt;3d&#45;engine</title>
<path fill="none" stroke="black" d="M415.11,-344.87C423.66,-334.22 436.26,-320.12 449.75,-310.5 456.35,-305.79 463.74,-301.56 471.22,-297.82"/>
<polygon fill="black" stroke="black" points="472.13,-300.79 479.69,-293.36 469.15,-294.46 472.13,-300.79"/>
<text text-anchor="middle" x="484.13" y="-314.45" font-family="Times,serif" font-size="14.00">«include»</text>
</g>
<!-- hole -->
<g id="node11" class="node">
<title>hole</title>
<polygon fill="white" stroke="black" stroke-width="2" points="100,-459 0,-459 0,-429 100,-429 100,-459"/>
<text text-anchor="middle" x="50" y="-439.33" font-family="Times,serif" font-size="14.00">hole</text>
</g>
<!-- label -->
<g id="node12" class="node">
<title>label</title>
<polygon fill="white" stroke="black" stroke-width="2" points="100,-375.75 0,-375.75 0,-345.75 100,-345.75 100,-375.75"/>
<text text-anchor="middle" x="50" y="-356.08" font-family="Times,serif" font-size="14.00">label</text>
</g>
<!-- hole&#45;&gt;label -->
<g id="edge11" class="edge">
<title>hole&#45;&gt;label</title>
<path fill="none" stroke="black" d="M50,-428.1C50,-416.76 50,-400.88 50,-387.5"/>
<polygon fill="black" stroke="black" points="53.5,-387.56 50,-377.56 46.5,-387.56 53.5,-387.56"/>
<text text-anchor="middle" x="84.13" y="-397.7" font-family="Times,serif" font-size="14.00">«include»</text>
</g>
<!-- label&#45;&gt;3d&#45;engine -->
<g id="edge12" class="edge">
<title>label&#45;&gt;3d&#45;engine</title>
<path fill="none" stroke="black" d="M73.07,-344.94C92.25,-333.43 120.69,-318.16 147.75,-310.5 204.74,-294.36 369.32,-285.01 460.09,-280.94"/>
<polygon fill="black" stroke="black" points="460.21,-284.4 470.05,-280.46 459.9,-277.4 460.21,-284.4"/>
<text text-anchor="middle" x="182.13" y="-314.45" font-family="Times,serif" font-size="14.00">«include»</text>
</g>
<!-- limits -->
<g id="node13" class="node">
<title>limits</title>
<polygon fill="white" stroke="black" stroke-width="2" points="404,-113.25 304,-113.25 304,-83.25 404,-83.25 404,-113.25"/>
<text text-anchor="middle" x="354" y="-93.58" font-family="Times,serif" font-size="14.00">limits</text>
</g>
<!-- limits&#45;&gt;core -->
<g id="edge13" class="edge">
<title>limits&#45;&gt;core</title>
<path fill="none" stroke="black" d="M350.61,-82.33C349.07,-71.37 349.18,-56.89 357.75,-48 372.63,-32.55 498.48,-23.25 576.39,-18.93"/>
<polygon fill="black" stroke="black" points="576.25,-22.39 586.05,-18.35 575.87,-15.4 576.25,-22.39"/>
<text text-anchor="middle" x="392.13" y="-51.95" font-family="Times,serif" font-size="14.00">«include»</text>
</g>
<!-- mngm&#45;engine&#45;&gt;core -->
<g id="edge14" class="edge">
<title>mngm&#45;engine&#45;&gt;core</title>
<path fill="none" stroke="black" d="M689.44,-82.35C680.12,-70.32 666.83,-53.19 656.1,-39.34"/>
<polygon fill="black" stroke="black" points="658.38,-37.57 649.48,-31.81 652.84,-41.86 658.38,-37.57"/>
<text text-anchor="middle" x="710.13" y="-51.95" font-family="Times,serif" font-size="14.00">«include»</text>
</g>
<!-- polymorphic&#45;engine -->
<g id="node15" class="node">
<title>polymorphic&#45;engine</title>
<polygon fill="white" stroke="black" stroke-width="2" points="1035.5,-375.75 878.5,-375.75 878.5,-345.75 1035.5,-345.75 1035.5,-375.75"/>
<text text-anchor="middle" x="957" y="-356.08" font-family="Times,serif" font-size="14.00">polymorphic&#45;engine</text>
</g>
<!-- polymorphic&#45;engine&#45;&gt;3d&#45;engine -->
<g id="edge26" class="edge">
<title>polymorphic&#45;engine&#45;&gt;3d&#45;engine</title>
<path fill="none" stroke="red" stroke-width="2" d="M877.7,-351.33C850.87,-346.59 821.26,-339.21 795.75,-327.75 784.18,-322.55 784.75,-315.3 773,-310.5 772.86,-310.44 659.54,-296.01 585.23,-286.55"/>
<polygon fill="red" stroke="red" stroke-width="2" points="586.12,-282.75 575.76,-284.96 585.24,-289.7 586.12,-282.75"/>
<text text-anchor="middle" x="815.63" y="-314.45" font-family="Times,serif" font-size="14.00">«use»</text>
</g>
<!-- polymorphic&#45;engine&#45;&gt;bbox&#45;engine -->
<g id="edge27" class="edge">
<title>polymorphic&#45;engine&#45;&gt;bbox&#45;engine</title>
<path fill="none" stroke="red" stroke-width="2" d="M964.3,-345.01C983.91,-303.15 1031.98,-183.19 967,-131.25 945.84,-114.34 917.43,-106.02 891.73,-102.04"/>
<polygon fill="red" stroke="red" stroke-width="2" points="892.35,-98.2 881.98,-100.38 891.44,-105.14 892.35,-98.2"/>
<text text-anchor="middle" x="1019.63" y="-231.2" font-family="Times,serif" font-size="14.00">«use»</text>
</g>
<!-- polymorphic&#45;engine&#45;&gt;core -->
<g id="edge15" class="edge">
<title>polymorphic&#45;engine&#45;&gt;core</title>
<path fill="none" stroke="black" d="M1004.06,-344.79C1033.16,-332.27 1065,-311.11 1065,-278.5 1065,-278.5 1065,-278.5 1065,-97.25 1065,-23.71 817.46,-15.05 699.33,-15.11"/>
<polygon fill="black" stroke="black" points="699.65,-11.61 689.66,-15.14 699.67,-18.61 699.65,-11.61"/>
<text text-anchor="middle" x="1099.13" y="-189.58" font-family="Times,serif" font-size="14.00">«include»</text>
</g>
<!-- polymorphic&#45;engine&#45;&gt;mngm&#45;engine -->
<g id="edge28" class="edge">
<title>polymorphic&#45;engine&#45;&gt;mngm&#45;engine</title>
<path fill="none" stroke="red" stroke-width="2" d="M948.33,-344.88C920.05,-296.58 831.21,-146.38 811,-131.25 803.85,-125.9 788.19,-120.37 770.86,-115.44"/>
<polygon fill="red" stroke="red" stroke-width="2" points="771.25,-111.37 760.68,-112.13 769.42,-118.13 771.25,-111.37"/>
<text text-anchor="middle" x="906.63" y="-231.2" font-family="Times,serif" font-size="14.00">«use»</text>
</g>
<!-- profile -->
<g id="node16" class="node">
<title>profile</title>
<polygon fill="white" stroke="black" stroke-width="2" points="572,-375.75 472,-375.75 472,-345.75 572,-345.75 572,-375.75"/>
<text text-anchor="middle" x="522" y="-356.08" font-family="Times,serif" font-size="14.00">profile</text>
</g>
<!-- profile&#45;&gt;3d&#45;engine -->
<g id="edge16" class="edge">
<title>profile&#45;&gt;3d&#45;engine</title>
<path fill="none" stroke="black" d="M522,-344.85C522,-333.51 522,-317.63 522,-304.25"/>
<polygon fill="black" stroke="black" points="525.5,-304.31 522,-294.31 518.5,-304.31 525.5,-304.31"/>
<text text-anchor="middle" x="556.13" y="-314.45" font-family="Times,serif" font-size="14.00">«include»</text>
</g>
<!-- template -->
<g id="node17" class="node">
<title>template</title>
<polygon fill="white" stroke="black" stroke-width="2" points="690,-375.75 590,-375.75 590,-345.75 690,-345.75 690,-375.75"/>
<text text-anchor="middle" x="640" y="-356.08" font-family="Times,serif" font-size="14.00">template</text>
</g>
<!-- template&#45;&gt;3d&#45;engine -->
<g id="edge17" class="edge">
<title>template&#45;&gt;3d&#45;engine</title>
<path fill="none" stroke="black" d="M627.85,-345C618.57,-334.41 605.03,-320.33 591,-310.5 584.61,-306.02 577.48,-301.9 570.31,-298.22"/>
<polygon fill="black" stroke="black" points="572.09,-294.7 561.57,-293.47 569.02,-301 572.09,-294.7"/>
<text text-anchor="middle" x="646.13" y="-314.45" font-family="Times,serif" font-size="14.00">«include»</text>
</g>
<!-- type_trait&#45;&gt;core -->
<g id="edge18" class="edge">
<title>type_trait&#45;&gt;core</title>
<path fill="none" stroke="black" d="M407.48,-130.5C416.19,-116.54 430.98,-95.88 448.75,-83.25 487.02,-56.05 537.39,-38.85 576.54,-28.67"/>
<polygon fill="black" stroke="black" points="577.16,-31.87 586.01,-26.04 575.46,-25.08 577.16,-31.87"/>
<text text-anchor="middle" x="483.13" y="-93.58" font-family="Times,serif" font-size="14.00">«include»</text>
</g>
<!-- unsafe_defs&#45;&gt;core -->
<g id="edge19" class="edge">
<title>unsafe_defs&#45;&gt;core</title>
<path fill="none" stroke="black" d="M578.92,-82.34C581.51,-71.94 586.1,-58.17 593.75,-48 596.51,-44.34 599.8,-40.91 603.34,-37.77"/>
<polygon fill="black" stroke="black" points="605.23,-39.95 610.86,-30.98 600.86,-34.47 605.23,-39.95"/>
<text text-anchor="middle" x="628.13" y="-51.95" font-family="Times,serif" font-size="14.00">«include»</text>
</g>
<!-- util&#45;&gt;3d&#45;engine -->
<g id="edge20" class="edge">
<title>util&#45;&gt;3d&#45;engine</title>
<path fill="none" stroke="black" d="M731.92,-344.84C723.16,-339.63 713.41,-333.61 704.75,-327.75 694.24,-320.64 693.57,-315.71 682,-310.5 651.04,-296.56 613.99,-288.66 583.35,-284.2"/>
<polygon fill="black" stroke="black" points="584.18,-280.64 573.8,-282.76 583.23,-287.58 584.18,-280.64"/>
<text text-anchor="middle" x="739.13" y="-314.45" font-family="Times,serif" font-size="14.00">«include»</text>
</g>
</g>
</svg>
