<?xml version="1.0" encoding="UTF-8" standalone="no"?>
<!DOCTYPE svg PUBLIC "-//W3C//DTD SVG 1.1//EN"
 "http://www.w3.org/Graphics/SVG/1.1/DTD/svg11.dtd">
<!-- Generated by graphviz version 12.1.0 (20240811.2233)
 -->
<!-- Title: foundation Pages: 1 -->
<svg width="1279pt" height="550pt"
 viewBox="0.00 0.00 1278.71 550.25" xmlns="http://www.w3.org/2000/svg" xmlns:xlink="http://www.w3.org/1999/xlink">
<g id="graph0" class="graph" transform="scale(1 1) rotate(0) translate(4 546.25)">
<title>foundation</title>
<polygon fill="white" stroke="none" points="-4,4 -4,-546.25 1274.71,-546.25 1274.71,4 -4,4"/>
<!-- 2d&#45;engine -->
<g id="node1" class="node">
<title>2d&#45;engine</title>
<polygon fill="white" stroke="black" stroke-width="2" points="297.71,-292.5 197.71,-292.5 197.71,-262.5 297.71,-262.5 297.71,-292.5"/>
<text text-anchor="middle" x="247.71" y="-272.83" font-family="Times,serif" font-size="14.00">2d&#45;engine</text>
</g>
<!-- bbox&#45;engine -->
<g id="node4" class="node">
<title>bbox&#45;engine</title>
<polygon fill="white" stroke="black" stroke-width="2" points="404.84,-113.25 302.59,-113.25 302.59,-83.25 404.84,-83.25 404.84,-113.25"/>
<text text-anchor="middle" x="353.71" y="-93.58" font-family="Times,serif" font-size="14.00">bbox&#45;engine</text>
</g>
<!-- 2d&#45;engine&#45;&gt;bbox&#45;engine -->
<g id="edge18" class="edge">
<title>2d&#45;engine&#45;&gt;bbox&#45;engine</title>
<path fill="none" stroke="red" stroke-width="2" d="M267.13,-261.76C285.12,-247.1 311.35,-223.02 326.71,-196.5 339.27,-174.82 346.22,-147.01 349.92,-126.69"/>
<polygon fill="red" stroke="red" stroke-width="2" points="353.35,-127.41 351.49,-116.98 346.44,-126.28 353.35,-127.41"/>
<text text-anchor="middle" x="360.31" y="-176.83" font-family="Times,serif" font-size="14.00">«use»</text>
</g>
<!-- mngm&#45;engine -->
<g id="node15" class="node">
<title>mngm&#45;engine</title>
<polygon fill="white" stroke="black" stroke-width="2" points="197.46,-196.5 83.96,-196.5 83.96,-166.5 197.46,-166.5 197.46,-196.5"/>
<text text-anchor="middle" x="140.71" y="-176.83" font-family="Times,serif" font-size="14.00">mngm&#45;engine</text>
</g>
<!-- 2d&#45;engine&#45;&gt;mngm&#45;engine -->
<g id="edge17" class="edge">
<title>2d&#45;engine&#45;&gt;mngm&#45;engine</title>
<path fill="none" stroke="red" stroke-width="2" d="M230.99,-261.81C213.98,-246.86 187.34,-223.46 167.4,-205.94"/>
<polygon fill="red" stroke="red" stroke-width="2" points="169.76,-203.36 159.94,-199.39 165.14,-208.62 169.76,-203.36"/>
<text text-anchor="middle" x="230.67" y="-224.83" font-family="Times,serif" font-size="14.00">«use»</text>
</g>
<!-- unsafe_defs -->
<g id="node20" class="node">
<title>unsafe_defs</title>
<polygon fill="white" stroke="black" stroke-width="2" points="163.71,-113.25 63.71,-113.25 63.71,-83.25 163.71,-83.25 163.71,-113.25"/>
<text text-anchor="middle" x="113.71" y="-93.58" font-family="Times,serif" font-size="14.00">unsafe_defs</text>
</g>
<!-- 2d&#45;engine&#45;&gt;unsafe_defs -->
<g id="edge1" class="edge">
<title>2d&#45;engine&#45;&gt;unsafe_defs</title>
<path fill="none" stroke="black" d="M196.92,-275.93C139.93,-272.23 49.79,-256.52 6.46,-196.5 -16.02,-165.35 26.57,-136.73 64.55,-118.72"/>
<polygon fill="black" stroke="black" points="65.55,-122.12 73.19,-114.78 62.64,-115.75 65.55,-122.12"/>
<text text-anchor="middle" x="40.59" y="-176.83" font-family="Times,serif" font-size="14.00">«include»</text>
</g>
<!-- 3d&#45;engine -->
<g id="node2" class="node">
<title>3d&#45;engine</title>
<polygon fill="white" stroke="black" stroke-width="2" points="512.71,-375.75 412.71,-375.75 412.71,-345.75 512.71,-345.75 512.71,-375.75"/>
<text text-anchor="middle" x="462.71" y="-356.08" font-family="Times,serif" font-size="14.00">3d&#45;engine</text>
</g>
<!-- 3d&#45;engine&#45;&gt;2d&#45;engine -->
<g id="edge2" class="edge">
<title>3d&#45;engine&#45;&gt;2d&#45;engine</title>
<path fill="none" stroke="black" d="M423.03,-344.75C387.65,-331.38 335.71,-311.75 297.54,-297.33"/>
<polygon fill="black" stroke="black" points="299.17,-294.21 288.58,-293.94 296.7,-300.75 299.17,-294.21"/>
<text text-anchor="middle" x="408.6" y="-314.45" font-family="Times,serif" font-size="14.00">«include»</text>
</g>
<!-- traits&#45;engine -->
<g id="node18" class="node">
<title>traits&#45;engine</title>
<polygon fill="white" stroke="black" stroke-width="2" points="591.46,-244.5 483.96,-244.5 483.96,-214.5 591.46,-214.5 591.46,-244.5"/>
<text text-anchor="middle" x="537.71" y="-224.83" font-family="Times,serif" font-size="14.00">traits&#45;engine</text>
</g>
<!-- 3d&#45;engine&#45;&gt;traits&#45;engine -->
<g id="edge19" class="edge">
<title>3d&#45;engine&#45;&gt;traits&#45;engine</title>
<path fill="none" stroke="red" stroke-width="2" d="M473.52,-344.91C483.04,-331.53 497.03,-311.15 507.71,-292.5 514.23,-281.12 520.68,-268.1 525.91,-256.95"/>
<polygon fill="red" stroke="red" stroke-width="2" points="528.99,-258.63 529.98,-248.08 522.63,-255.71 528.99,-258.63"/>
<text text-anchor="middle" x="516.79" y="-314.45" font-family="Times,serif" font-size="14.00">«use»</text>
</g>
<!-- type&#45;engine -->
<g id="node19" class="node">
<title>type&#45;engine</title>
<polygon fill="white" stroke="black" stroke-width="2" points="512.71,-196.5 412.71,-196.5 412.71,-166.5 512.71,-166.5 512.71,-196.5"/>
<text text-anchor="middle" x="462.71" y="-176.83" font-family="Times,serif" font-size="14.00">type&#45;engine</text>
</g>
<!-- 3d&#45;engine&#45;&gt;type&#45;engine -->
<g id="edge20" class="edge">
<title>3d&#45;engine&#45;&gt;type&#45;engine</title>
<path fill="none" stroke="red" stroke-width="2" d="M462.64,-344.79C462.58,-331.16 462.5,-310.48 462.46,-292.5 462.41,-264.48 462.5,-232.45 462.59,-210.21"/>
<polygon fill="red" stroke="red" stroke-width="2" points="466.09,-210.49 462.63,-200.47 459.09,-210.46 466.09,-210.49"/>
<text text-anchor="middle" x="483.09" y="-272.83" font-family="Times,serif" font-size="14.00">«use»</text>
</g>
<!-- algo&#45;engine -->
<g id="node3" class="node">
<title>algo&#45;engine</title>
<polygon fill="white" stroke="black" stroke-width="2" points="276.71,-459 176.71,-459 176.71,-429 276.71,-429 276.71,-459"/>
<text text-anchor="middle" x="226.71" y="-439.33" font-family="Times,serif" font-size="14.00">algo&#45;engine</text>
</g>
<!-- algo&#45;engine&#45;&gt;3d&#45;engine -->
<g id="edge3" class="edge">
<title>algo&#45;engine&#45;&gt;3d&#45;engine</title>
<path fill="none" stroke="black" d="M244.09,-428.03C257.92,-416.9 278.26,-402.22 298.46,-393.75 330.8,-380.19 369.15,-372.31 400.65,-367.76"/>
<polygon fill="black" stroke="black" points="400.99,-371.25 410.43,-366.43 400.05,-364.31 400.99,-371.25"/>
<text text-anchor="middle" x="332.59" y="-397.7" font-family="Times,serif" font-size="14.00">«include»</text>
</g>
<!-- core -->
<g id="node7" class="node">
<title>core</title>
<polygon fill="white" stroke="black" stroke-width="2" points="403.71,-30 303.71,-30 303.71,0 403.71,0 403.71,-30"/>
<text text-anchor="middle" x="353.71" y="-10.33" font-family="Times,serif" font-size="14.00">core</text>
</g>
<!-- bbox&#45;engine&#45;&gt;core -->
<g id="edge4" class="edge">
<title>bbox&#45;engine&#45;&gt;core</title>
<path fill="none" stroke="black" d="M353.71,-82.35C353.71,-71.12 353.71,-55.45 353.71,-42.15"/>
<polygon fill="black" stroke="black" points="357.21,-42.32 353.71,-32.32 350.21,-42.32 357.21,-42.32"/>
<text text-anchor="middle" x="387.84" y="-51.95" font-family="Times,serif" font-size="14.00">«include»</text>
</g>
<!-- components -->
<g id="node5" class="node">
<title>components</title>
<polygon fill="white" stroke="black" stroke-width="2" points="317.84,-196.5 215.59,-196.5 215.59,-166.5 317.84,-166.5 317.84,-196.5"/>
<text text-anchor="middle" x="266.71" y="-176.83" font-family="Times,serif" font-size="14.00">components</text>
</g>
<!-- components&#45;&gt;bbox&#45;engine -->
<g id="edge5" class="edge">
<title>components&#45;&gt;bbox&#45;engine</title>
<path fill="none" stroke="black" d="M264.32,-165.68C263.45,-155.07 264.1,-140.98 271.46,-131.25 276.8,-124.21 283.9,-118.71 291.7,-114.43"/>
<polygon fill="black" stroke="black" points="292.97,-117.7 300.52,-110.27 289.98,-111.37 292.97,-117.7"/>
<text text-anchor="middle" x="305.59" y="-135.2" font-family="Times,serif" font-size="14.00">«include»</text>
</g>
<!-- connect -->
<g id="node6" class="node">
<title>connect</title>
<polygon fill="white" stroke="black" stroke-width="2" points="748.71,-542.25 648.71,-542.25 648.71,-512.25 748.71,-512.25 748.71,-542.25"/>
<text text-anchor="middle" x="698.71" y="-522.58" font-family="Times,serif" font-size="14.00">connect</text>
</g>
<!-- util -->
<g id="node21" class="node">
<title>util</title>
<polygon fill="white" stroke="black" stroke-width="2" points="748.71,-459 648.71,-459 648.71,-429 748.71,-429 748.71,-459"/>
<text text-anchor="middle" x="698.71" y="-439.33" font-family="Times,serif" font-size="14.00">util</text>
</g>
<!-- connect&#45;&gt;util -->
<g id="edge6" class="edge">
<title>connect&#45;&gt;util</title>
<path fill="none" stroke="black" d="M698.71,-511.35C698.71,-500.12 698.71,-484.45 698.71,-471.15"/>
<polygon fill="black" stroke="black" points="702.21,-471.32 698.71,-461.32 695.21,-471.32 702.21,-471.32"/>
<text text-anchor="middle" x="732.84" y="-480.95" font-family="Times,serif" font-size="14.00">«include»</text>
</g>
<!-- customizer&#45;engine -->
<g id="node8" class="node">
<title>customizer&#45;engine</title>
<polygon fill="white" stroke="black" stroke-width="2" points="914.34,-542.25 767.09,-542.25 767.09,-512.25 914.34,-512.25 914.34,-542.25"/>
<text text-anchor="middle" x="840.71" y="-522.58" font-family="Times,serif" font-size="14.00">customizer&#45;engine</text>
</g>
<!-- dimensions -->
<g id="node9" class="node">
<title>dimensions</title>
<polygon fill="white" stroke="black" stroke-width="2" points="1032.71,-542.25 932.71,-542.25 932.71,-512.25 1032.71,-512.25 1032.71,-542.25"/>
<text text-anchor="middle" x="982.71" y="-522.58" font-family="Times,serif" font-size="14.00">dimensions</text>
</g>
<!-- fillet -->
<g id="node10" class="node">
<title>fillet</title>
<polygon fill="white" stroke="black" stroke-width="2" points="394.71,-459 294.71,-459 294.71,-429 394.71,-429 394.71,-459"/>
<text text-anchor="middle" x="344.71" y="-439.33" font-family="Times,serif" font-size="14.00">fillet</text>
</g>
<!-- fillet&#45;&gt;3d&#45;engine -->
<g id="edge7" class="edge">
<title>fillet&#45;&gt;3d&#45;engine</title>
<path fill="none" stroke="black" d="M355.82,-428.12C364.37,-417.47 376.97,-403.37 390.46,-393.75 396.91,-389.15 404.13,-385 411.44,-381.32"/>
<polygon fill="black" stroke="black" points="412.49,-384.7 420.03,-377.26 409.5,-378.37 412.49,-384.7"/>
<text text-anchor="middle" x="424.59" y="-397.7" font-family="Times,serif" font-size="14.00">«include»</text>
</g>
<!-- grid -->
<g id="node11" class="node">
<title>grid</title>
<polygon fill="white" stroke="black" stroke-width="2" points="512.71,-459 412.71,-459 412.71,-429 512.71,-429 512.71,-459"/>
<text text-anchor="middle" x="462.71" y="-439.33" font-family="Times,serif" font-size="14.00">grid</text>
</g>
<!-- grid&#45;&gt;3d&#45;engine -->
<g id="edge8" class="edge">
<title>grid&#45;&gt;3d&#45;engine</title>
<path fill="none" stroke="black" d="M462.71,-428.1C462.71,-416.87 462.71,-401.2 462.71,-387.9"/>
<polygon fill="black" stroke="black" points="466.21,-388.07 462.71,-378.07 459.21,-388.07 466.21,-388.07"/>
<text text-anchor="middle" x="496.84" y="-397.7" font-family="Times,serif" font-size="14.00">«include»</text>
</g>
<!-- hole&#45;engine -->
<g id="node12" class="node">
<title>hole&#45;engine</title>
<polygon fill="white" stroke="black" stroke-width="2" points="630.71,-542.25 530.71,-542.25 530.71,-512.25 630.71,-512.25 630.71,-542.25"/>
<text text-anchor="middle" x="580.71" y="-522.58" font-family="Times,serif" font-size="14.00">hole&#45;engine</text>
</g>
<!-- label -->
<g id="node13" class="node">
<title>label</title>
<polygon fill="white" stroke="black" stroke-width="2" points="630.71,-459 530.71,-459 530.71,-429 630.71,-429 630.71,-459"/>
<text text-anchor="middle" x="580.71" y="-439.33" font-family="Times,serif" font-size="14.00">label</text>
</g>
<!-- hole&#45;engine&#45;&gt;label -->
<g id="edge9" class="edge">
<title>hole&#45;engine&#45;&gt;label</title>
<path fill="none" stroke="black" d="M580.71,-511.35C580.71,-500.12 580.71,-484.45 580.71,-471.15"/>
<polygon fill="black" stroke="black" points="584.21,-471.32 580.71,-461.32 577.21,-471.32 584.21,-471.32"/>
<text text-anchor="middle" x="614.84" y="-480.95" font-family="Times,serif" font-size="14.00">«include»</text>
</g>
<!-- label&#45;&gt;3d&#45;engine -->
<g id="edge10" class="edge">
<title>label&#45;&gt;3d&#45;engine</title>
<path fill="none" stroke="black" d="M569.52,-428.13C560.92,-417.49 548.25,-403.39 534.71,-393.75 528.28,-389.17 521.08,-385.02 513.8,-381.35"/>
<polygon fill="black" stroke="black" points="515.77,-378.42 505.24,-377.3 512.77,-384.74 515.77,-378.42"/>
<text text-anchor="middle" x="588.26" y="-397.7" font-family="Times,serif" font-size="14.00">«include»</text>
</g>
<!-- limits -->
<g id="node14" class="node">
<title>limits</title>
<polygon fill="white" stroke="black" stroke-width="2" points="284.71,-113.25 184.71,-113.25 184.71,-83.25 284.71,-83.25 284.71,-113.25"/>
<text text-anchor="middle" x="234.71" y="-93.58" font-family="Times,serif" font-size="14.00">limits</text>
</g>
<!-- limits&#45;&gt;core -->
<g id="edge11" class="edge">
<title>limits&#45;&gt;core</title>
<path fill="none" stroke="black" d="M246.13,-82.39C254.89,-71.75 267.78,-57.65 281.46,-48 287.94,-43.43 295.17,-39.3 302.48,-35.64"/>
<polygon fill="black" stroke="black" points="303.53,-39.01 311.08,-31.58 300.54,-32.68 303.53,-39.01"/>
<text text-anchor="middle" x="315.59" y="-51.95" font-family="Times,serif" font-size="14.00">«include»</text>
</g>
<!-- mngm&#45;engine&#45;&gt;bbox&#45;engine -->
<g id="edge21" class="edge">
<title>mngm&#45;engine&#45;&gt;bbox&#45;engine</title>
<path fill="none" stroke="red" stroke-width="2" d="M160.44,-165.62C175.8,-154.68 198.04,-140.22 219.46,-131.25 221.26,-130.5 255.87,-122.25 289.49,-114.32"/>
<polygon fill="red" stroke="red" stroke-width="2" points="289.89,-117.82 298.83,-112.12 288.29,-111.01 289.89,-117.82"/>
<text text-anchor="middle" x="240.09" y="-135.2" font-family="Times,serif" font-size="14.00">«use»</text>
</g>
<!-- mngm&#45;engine&#45;&gt;unsafe_defs -->
<g id="edge12" class="edge">
<title>mngm&#45;engine&#45;&gt;unsafe_defs</title>
<path fill="none" stroke="black" d="M125,-165.57C120.77,-160.59 116.74,-154.71 114.46,-148.5 111.8,-141.23 110.93,-132.94 110.91,-125.26"/>
<polygon fill="black" stroke="black" points="114.4,-125.6 111.38,-115.44 107.41,-125.26 114.4,-125.6"/>
<text text-anchor="middle" x="148.59" y="-135.2" font-family="Times,serif" font-size="14.00">«include»</text>
</g>
<!-- quaternions -->
<g id="node16" class="node">
<title>quaternions</title>
<polygon fill="white" stroke="black" stroke-width="2" points="1152.46,-542.25 1050.96,-542.25 1050.96,-512.25 1152.46,-512.25 1152.46,-542.25"/>
<text text-anchor="middle" x="1101.71" y="-522.58" font-family="Times,serif" font-size="14.00">quaternions</text>
</g>
<!-- template -->
<g id="node17" class="node">
<title>template</title>
<polygon fill="white" stroke="black" stroke-width="2" points="1270.71,-542.25 1170.71,-542.25 1170.71,-512.25 1270.71,-512.25 1270.71,-542.25"/>
<text text-anchor="middle" x="1220.71" y="-522.58" font-family="Times,serif" font-size="14.00">template</text>
</g>
<!-- traits&#45;engine&#45;&gt;core -->
<g id="edge13" class="edge">
<title>traits&#45;engine&#45;&gt;core</title>
<path fill="none" stroke="black" d="M541.18,-213.67C546.88,-185.39 554.99,-123.03 526.71,-83.25 501.39,-47.63 454.35,-30.88 415.71,-23"/>
<polygon fill="black" stroke="black" points="416.5,-19.59 406.03,-21.19 415.21,-26.47 416.5,-19.59"/>
<text text-anchor="middle" x="580.63" y="-135.2" font-family="Times,serif" font-size="14.00">«include»</text>
</g>
<!-- type&#45;engine&#45;&gt;bbox&#45;engine -->
<g id="edge22" class="edge">
<title>type&#45;engine&#45;&gt;bbox&#45;engine</title>
<path fill="none" stroke="red" stroke-width="2" d="M418.34,-165.62C408.25,-161.05 398.01,-155.37 389.46,-148.5 381.31,-141.94 374.12,-133.09 368.36,-124.7"/>
<polygon fill="red" stroke="red" stroke-width="2" points="371.38,-122.93 363.07,-116.36 365.47,-126.68 371.38,-122.93"/>
<text text-anchor="middle" x="410.09" y="-135.2" font-family="Times,serif" font-size="14.00">«use»</text>
</g>
<!-- type&#45;engine&#45;&gt;core -->
<g id="edge14" class="edge">
<title>type&#45;engine&#45;&gt;core</title>
<path fill="none" stroke="black" d="M462.54,-165.89C461.45,-139.29 455.53,-82.52 425.71,-48 421.95,-43.65 417.49,-39.86 412.65,-36.57"/>
<polygon fill="black" stroke="black" points="414.66,-33.7 404.27,-31.62 411.09,-39.72 414.66,-33.7"/>
<text text-anchor="middle" x="489.69" y="-93.58" font-family="Times,serif" font-size="14.00">«include»</text>
</g>
<!-- unsafe_defs&#45;&gt;core -->
<g id="edge15" class="edge">
<title>unsafe_defs&#45;&gt;core</title>
<path fill="none" stroke="black" d="M132.2,-82.31C146.88,-71.2 168.38,-56.53 189.46,-48 221.96,-34.85 260.32,-26.99 291.79,-22.35"/>
<polygon fill="black" stroke="black" points="292.13,-25.84 301.55,-20.99 291.17,-18.9 292.13,-25.84"/>
<text text-anchor="middle" x="223.59" y="-51.95" font-family="Times,serif" font-size="14.00">«include»</text>
</g>
<!-- util&#45;&gt;3d&#45;engine -->
<g id="edge16" class="edge">
<title>util&#45;&gt;3d&#45;engine</title>
<path fill="none" stroke="black" d="M681.27,-428.03C667.38,-416.9 646.97,-402.23 626.71,-393.75 594.42,-380.24 556.13,-372.35 524.67,-367.79"/>
<polygon fill="black" stroke="black" points="525.29,-364.35 514.91,-366.46 524.35,-371.28 525.29,-364.35"/>
<text text-anchor="middle" x="692.16" y="-397.7" font-family="Times,serif" font-size="14.00">«include»</text>
</g>
</g>
</svg>
