<?xml version="1.0" encoding="UTF-8" standalone="no"?>
<!DOCTYPE svg PUBLIC "-//W3C//DTD SVG 1.1//EN"
 "http://www.w3.org/Graphics/SVG/1.1/DTD/svg11.dtd">
<!-- Generated by graphviz version 5.0.0 (0)
 -->
<!-- Title: foundation Pages: 1 -->
<svg width="1956pt" height="539pt"
 viewBox="0.00 0.00 1956.14 539.00" xmlns="http://www.w3.org/2000/svg" xmlns:xlink="http://www.w3.org/1999/xlink">
<g id="graph0" class="graph" transform="scale(1 1) rotate(0) translate(4 535)">
<title>foundation</title>
<polygon fill="white" stroke="transparent" points="-4,4 -4,-535 1952.14,-535 1952.14,4 -4,4"/>
<!-- 2d&#45;engine -->
<g id="node1" class="node">
<title>2d&#45;engine</title>
<polygon fill="white" stroke="black" stroke-width="2" points="704.14,-288 604.14,-288 604.14,-258 704.14,-258 704.14,-288"/>
<text text-anchor="middle" x="654.14" y="-269.3" font-family="Times,serif" font-size="14.00">2d&#45;engine</text>
</g>
<!-- bbox&#45;engine -->
<g id="node9" class="node">
<title>bbox&#45;engine</title>
<polygon fill="white" stroke="black" stroke-width="2" points="974.14,-192 870.14,-192 870.14,-162 974.14,-162 974.14,-192"/>
<text text-anchor="middle" x="922.14" y="-173.3" font-family="Times,serif" font-size="14.00">bbox&#45;engine</text>
</g>
<!-- 2d&#45;engine&#45;&gt;bbox&#45;engine -->
<g id="edge23" class="edge">
<title>2d&#45;engine&#45;&gt;bbox&#45;engine</title>
<path fill="none" stroke="red" stroke-width="2" d="M682.91,-257.92C711.42,-244.35 756.56,-223.89 797.14,-210 817.36,-203.08 839.86,-196.87 860.15,-191.81"/>
<polygon fill="red" stroke="red" stroke-width="2" points="861.03,-195.2 869.91,-189.42 859.36,-188.4 861.03,-195.2"/>
<text text-anchor="middle" x="818.14" y="-221.3" font-family="Times,serif" font-size="14.00">«use»</text>
</g>
<!-- mngm -->
<g id="node19" class="node">
<title>mngm</title>
<polygon fill="white" stroke="black" stroke-width="2" points="684.14,-192 584.14,-192 584.14,-162 684.14,-162 684.14,-192"/>
<text text-anchor="middle" x="634.14" y="-173.3" font-family="Times,serif" font-size="14.00">mngm</text>
</g>
<!-- 2d&#45;engine&#45;&gt;mngm -->
<g id="edge24" class="edge">
<title>2d&#45;engine&#45;&gt;mngm</title>
<path fill="none" stroke="red" stroke-width="2" d="M623.76,-257.66C617.11,-253.01 610.93,-247.16 607.14,-240 600.91,-228.21 602.56,-222.52 607.14,-210 608.38,-206.62 610.14,-203.35 612.19,-200.28"/>
<polygon fill="red" stroke="red" stroke-width="2" points="615.1,-202.23 618.49,-192.19 609.58,-197.93 615.1,-202.23"/>
<text text-anchor="middle" x="628.14" y="-221.3" font-family="Times,serif" font-size="14.00">«use»</text>
</g>
<!-- unsafe_defs -->
<g id="node25" class="node">
<title>unsafe_defs</title>
<polygon fill="white" stroke="black" stroke-width="2" points="1198.64,-192 1097.64,-192 1097.64,-162 1198.64,-162 1198.64,-192"/>
<text text-anchor="middle" x="1148.14" y="-173.3" font-family="Times,serif" font-size="14.00">unsafe_defs</text>
</g>
<!-- 2d&#45;engine&#45;&gt;unsafe_defs -->
<g id="edge1" class="edge">
<title>2d&#45;engine&#45;&gt;unsafe_defs</title>
<path fill="none" stroke="black" d="M704.21,-267.6C737.29,-263.4 781.04,-255.33 817.14,-240 838.59,-230.89 838.21,-217.88 860.14,-210 953.72,-176.39 984.77,-206.5 1083.14,-192 1084.6,-191.78 1086.08,-191.56 1087.58,-191.31"/>
<polygon fill="black" stroke="black" points="1088.27,-194.75 1097.52,-189.58 1087.06,-187.85 1088.27,-194.75"/>
<text text-anchor="middle" x="894.64" y="-221.3" font-family="Times,serif" font-size="14.00">«include»</text>
</g>
<!-- 3d&#45;engine -->
<g id="node2" class="node">
<title>3d&#45;engine</title>
<polygon fill="white" stroke="black" stroke-width="2" points="1139.14,-369 1039.14,-369 1039.14,-339 1139.14,-339 1139.14,-369"/>
<text text-anchor="middle" x="1089.14" y="-350.3" font-family="Times,serif" font-size="14.00">3d&#45;engine</text>
</g>
<!-- 3d&#45;engine&#45;&gt;2d&#45;engine -->
<g id="edge27" class="edge">
<title>3d&#45;engine&#45;&gt;2d&#45;engine</title>
<path fill="none" stroke="red" stroke-width="2" d="M1038.83,-345.23C1013.12,-340.21 981.73,-332.43 955.14,-321 943.93,-316.18 943.62,-310.14 932.14,-306 912.2,-298.81 790.22,-286.55 714.62,-279.47"/>
<polygon fill="red" stroke="red" stroke-width="2" points="714.55,-275.95 704.27,-278.51 713.9,-282.92 714.55,-275.95"/>
<text text-anchor="middle" x="976.14" y="-309.8" font-family="Times,serif" font-size="14.00">«use»</text>
</g>
<!-- 3d&#45;engine&#45;&gt;bbox&#45;engine -->
<g id="edge25" class="edge">
<title>3d&#45;engine&#45;&gt;bbox&#45;engine</title>
<path fill="none" stroke="red" stroke-width="2" d="M1106.06,-338.89C1114.94,-329.71 1122.88,-317.36 1117.14,-306 1088.81,-249.85 1023.09,-214.72 975.77,-195.77"/>
<polygon fill="red" stroke="red" stroke-width="2" points="976.86,-192.44 966.27,-192.08 974.33,-198.97 976.86,-192.44"/>
<text text-anchor="middle" x="1126.14" y="-269.3" font-family="Times,serif" font-size="14.00">«use»</text>
</g>
<!-- 3d&#45;engine&#45;&gt;mngm -->
<g id="edge28" class="edge">
<title>3d&#45;engine&#45;&gt;mngm</title>
<path fill="none" stroke="red" stroke-width="2" d="M1093.73,-338.83C1096.13,-328.41 1097.13,-314.61 1089.14,-306 1052.77,-266.79 895.89,-313.98 849.14,-288 811.61,-267.14 828.3,-233.16 792.14,-210 763.24,-191.48 725.77,-183.37 694.57,-179.93"/>
<polygon fill="red" stroke="red" stroke-width="2" points="694.55,-176.41 684.26,-178.94 693.87,-183.38 694.55,-176.41"/>
<text text-anchor="middle" x="870.14" y="-269.3" font-family="Times,serif" font-size="14.00">«use»</text>
</g>
<!-- type_trait -->
<g id="node24" class="node">
<title>type_trait</title>
<polygon fill="white" stroke="black" stroke-width="2" points="1759.14,-240 1659.14,-240 1659.14,-210 1759.14,-210 1759.14,-240"/>
<text text-anchor="middle" x="1709.14" y="-221.3" font-family="Times,serif" font-size="14.00">type_trait</text>
</g>
<!-- 3d&#45;engine&#45;&gt;type_trait -->
<g id="edge26" class="edge">
<title>3d&#45;engine&#45;&gt;type_trait</title>
<path fill="none" stroke="red" stroke-width="2" d="M1139.33,-345.5C1196.26,-336.92 1282.17,-323.69 1289.14,-321 1300.53,-316.61 1300.85,-310.62 1312.14,-306 1425.8,-259.5 1569.16,-239.21 1648.79,-231.01"/>
<polygon fill="red" stroke="red" stroke-width="2" points="1649.52,-234.46 1659.13,-229.98 1648.83,-227.49 1649.52,-234.46"/>
<text text-anchor="middle" x="1333.14" y="-309.8" font-family="Times,serif" font-size="14.00">«use»</text>
</g>
<!-- 3d&#45;engine&#45;&gt;unsafe_defs -->
<g id="edge2" class="edge">
<title>3d&#45;engine&#45;&gt;unsafe_defs</title>
<path fill="none" stroke="black" d="M1139.59,-345.38C1189.84,-337.56 1260.1,-325.85 1264.14,-321 1300.7,-277.15 1229.79,-224.89 1183.57,-197.29"/>
<polygon fill="black" stroke="black" points="1185.1,-194.13 1174.7,-192.11 1181.57,-200.17 1185.1,-194.13"/>
<text text-anchor="middle" x="1308.64" y="-269.3" font-family="Times,serif" font-size="14.00">«include»</text>
</g>
<!-- algo&#45;engine -->
<g id="node3" class="node">
<title>algo&#45;engine</title>
<polygon fill="white" stroke="black" stroke-width="2" points="1592.14,-450 1492.14,-450 1492.14,-420 1592.14,-420 1592.14,-450"/>
<text text-anchor="middle" x="1542.14" y="-431.3" font-family="Times,serif" font-size="14.00">algo&#45;engine</text>
</g>
<!-- algo&#45;engine&#45;&gt;3d&#45;engine -->
<g id="edge29" class="edge">
<title>algo&#45;engine&#45;&gt;3d&#45;engine</title>
<path fill="none" stroke="red" stroke-width="2" d="M1492.01,-421.71C1489.02,-421.1 1486.04,-420.52 1483.14,-420 1418.79,-408.44 1398.55,-424.44 1337.14,-402 1325.68,-397.81 1325.57,-391.29 1314.14,-387 1260.35,-366.83 1243.02,-377.1 1186.14,-369 1174.3,-367.31 1161.64,-365.5 1149.52,-363.75"/>
<polygon fill="red" stroke="red" stroke-width="2" points="1149.88,-360.26 1139.48,-362.3 1148.88,-367.19 1149.88,-360.26"/>
<text text-anchor="middle" x="1358.14" y="-390.8" font-family="Times,serif" font-size="14.00">«use»</text>
</g>
<!-- algo&#45;engine&#45;&gt;unsafe_defs -->
<g id="edge3" class="edge">
<title>algo&#45;engine&#45;&gt;unsafe_defs</title>
<path fill="none" stroke="black" d="M1546.09,-419.91C1552.27,-394.74 1561.26,-341.35 1538.14,-306 1483.73,-222.81 1430.92,-239.96 1336.14,-210 1294.73,-196.91 1246.4,-188.84 1209.11,-184.07"/>
<polygon fill="black" stroke="black" points="1209.26,-180.56 1198.91,-182.81 1208.4,-187.51 1209.26,-180.56"/>
<text text-anchor="middle" x="1579.64" y="-309.8" font-family="Times,serif" font-size="14.00">«include»</text>
</g>
<!-- base_geo -->
<g id="node4" class="node">
<title>base_geo</title>
<polygon fill="white" stroke="black" stroke-width="2" points="1024.14,-30 924.14,-30 924.14,0 1024.14,0 1024.14,-30"/>
<text text-anchor="middle" x="974.14" y="-11.3" font-family="Times,serif" font-size="14.00">base_geo</text>
</g>
<!-- base_kv -->
<g id="node5" class="node">
<title>base_kv</title>
<polygon fill="white" stroke="black" stroke-width="2" points="1456.14,-30 1356.14,-30 1356.14,0 1456.14,0 1456.14,-30"/>
<text text-anchor="middle" x="1406.14" y="-11.3" font-family="Times,serif" font-size="14.00">base_kv</text>
</g>
<!-- base_parameters -->
<g id="node6" class="node">
<title>base_parameters</title>
<polygon fill="white" stroke="black" stroke-width="2" points="1180.14,-30 1042.14,-30 1042.14,0 1180.14,0 1180.14,-30"/>
<text text-anchor="middle" x="1111.14" y="-11.3" font-family="Times,serif" font-size="14.00">base_parameters</text>
</g>
<!-- base_string -->
<g id="node7" class="node">
<title>base_string</title>
<polygon fill="white" stroke="black" stroke-width="2" points="1901.14,-30 1801.14,-30 1801.14,0 1901.14,0 1901.14,-30"/>
<text text-anchor="middle" x="1851.14" y="-11.3" font-family="Times,serif" font-size="14.00">base_string</text>
</g>
<!-- base_trace -->
<g id="node8" class="node">
<title>base_trace</title>
<polygon fill="white" stroke="black" stroke-width="2" points="177.14,-30 77.14,-30 77.14,0 177.14,0 177.14,-30"/>
<text text-anchor="middle" x="127.14" y="-11.3" font-family="Times,serif" font-size="14.00">base_trace</text>
</g>
<!-- core -->
<g id="node12" class="node">
<title>core</title>
<polygon fill="white" stroke="black" stroke-width="2" points="1093.14,-111 993.14,-111 993.14,-81 1093.14,-81 1093.14,-111"/>
<text text-anchor="middle" x="1043.14" y="-92.3" font-family="Times,serif" font-size="14.00">core</text>
</g>
<!-- bbox&#45;engine&#45;&gt;core -->
<g id="edge4" class="edge">
<title>bbox&#45;engine&#45;&gt;core</title>
<path fill="none" stroke="black" d="M919.75,-161.62C918.89,-151.37 919.6,-137.88 927.14,-129 940.97,-112.71 962.26,-104.33 982.84,-100.14"/>
<polygon fill="black" stroke="black" points="983.6,-103.56 992.86,-98.4 982.41,-96.66 983.6,-103.56"/>
<text text-anchor="middle" x="961.64" y="-132.8" font-family="Times,serif" font-size="14.00">«include»</text>
</g>
<!-- components -->
<g id="node10" class="node">
<title>components</title>
<polygon fill="white" stroke="black" stroke-width="2" points="1002.14,-288 900.14,-288 900.14,-258 1002.14,-258 1002.14,-288"/>
<text text-anchor="middle" x="951.14" y="-269.3" font-family="Times,serif" font-size="14.00">components</text>
</g>
<!-- components&#45;&gt;bbox&#45;engine -->
<g id="edge30" class="edge">
<title>components&#45;&gt;bbox&#45;engine</title>
<path fill="none" stroke="red" stroke-width="2" d="M946.74,-257.72C942.15,-242.87 934.9,-219.36 929.46,-201.71"/>
<polygon fill="red" stroke="red" stroke-width="2" points="932.79,-200.63 926.49,-192.1 926.1,-202.69 932.79,-200.63"/>
<text text-anchor="middle" x="962.14" y="-221.3" font-family="Times,serif" font-size="14.00">«use»</text>
</g>
<!-- components&#45;&gt;core -->
<g id="edge5" class="edge">
<title>components&#45;&gt;core</title>
<path fill="none" stroke="black" d="M970.37,-257.84C976.34,-252.73 982.55,-246.59 987.14,-240 990.74,-234.84 1019.42,-159.68 1034.28,-120.46"/>
<polygon fill="black" stroke="black" points="1037.56,-121.69 1037.82,-111.1 1031.01,-119.21 1037.56,-121.69"/>
<text text-anchor="middle" x="1052.64" y="-173.3" font-family="Times,serif" font-size="14.00">«include»</text>
</g>
<!-- connect -->
<g id="node11" class="node">
<title>connect</title>
<polygon fill="white" stroke="black" stroke-width="2" points="830.14,-531 730.14,-531 730.14,-501 830.14,-501 830.14,-531"/>
<text text-anchor="middle" x="780.14" y="-512.3" font-family="Times,serif" font-size="14.00">connect</text>
</g>
<!-- connect&#45;&gt;3d&#45;engine -->
<g id="edge31" class="edge">
<title>connect&#45;&gt;3d&#45;engine</title>
<path fill="none" stroke="red" stroke-width="2" d="M813.04,-500.99C859.45,-480.84 946.39,-441.72 1017.14,-402 1031.84,-393.75 1047.58,-383.63 1060.59,-374.9"/>
<polygon fill="red" stroke="red" stroke-width="2" points="1062.8,-377.62 1069.11,-369.11 1058.87,-371.83 1062.8,-377.62"/>
<text text-anchor="middle" x="1004.14" y="-431.3" font-family="Times,serif" font-size="14.00">«use»</text>
</g>
<!-- util -->
<g id="node26" class="node">
<title>util</title>
<polygon fill="white" stroke="black" stroke-width="2" points="316.14,-450 216.14,-450 216.14,-420 316.14,-420 316.14,-450"/>
<text text-anchor="middle" x="266.14" y="-431.3" font-family="Times,serif" font-size="14.00">util</text>
</g>
<!-- connect&#45;&gt;util -->
<g id="edge6" class="edge">
<title>connect&#45;&gt;util</title>
<path fill="none" stroke="black" d="M730.07,-509.36C647.82,-499.77 478.82,-478.66 326.31,-450.12"/>
<polygon fill="black" stroke="black" points="326.76,-446.64 316.29,-448.23 325.46,-453.52 326.76,-446.64"/>
<text text-anchor="middle" x="559.64" y="-471.8" font-family="Times,serif" font-size="14.00">«include»</text>
</g>
<!-- core&#45;&gt;base_geo -->
<g id="edge32" class="edge">
<title>core&#45;&gt;base_geo</title>
<path fill="none" stroke="red" stroke-width="2" d="M1030.81,-80.88C1020.31,-68.86 1005.06,-51.4 993.02,-37.62"/>
<polygon fill="red" stroke="red" stroke-width="2" points="995.59,-35.23 986.37,-30 990.31,-39.84 995.59,-35.23"/>
<text text-anchor="middle" x="1036.14" y="-51.8" font-family="Times,serif" font-size="14.00">«use»</text>
</g>
<!-- core&#45;&gt;base_kv -->
<g id="edge33" class="edge">
<title>core&#45;&gt;base_kv</title>
<path fill="none" stroke="red" stroke-width="2" d="M1093.23,-84.1C1159.23,-69.74 1275.18,-44.5 1345.89,-29.11"/>
<polygon fill="red" stroke="red" stroke-width="2" points="1346.95,-32.46 1355.98,-26.92 1345.47,-25.62 1346.95,-32.46"/>
<text text-anchor="middle" x="1279.14" y="-51.8" font-family="Times,serif" font-size="14.00">«use»</text>
</g>
<!-- core&#45;&gt;base_parameters -->
<g id="edge34" class="edge">
<title>core&#45;&gt;base_parameters</title>
<path fill="none" stroke="red" stroke-width="2" d="M1055.3,-80.88C1065.65,-68.86 1080.67,-51.4 1092.53,-37.62"/>
<polygon fill="red" stroke="red" stroke-width="2" points="1095.22,-39.86 1099.09,-30 1089.91,-35.3 1095.22,-39.86"/>
<text text-anchor="middle" x="1105.14" y="-51.8" font-family="Times,serif" font-size="14.00">«use»</text>
</g>
<!-- core&#45;&gt;base_string -->
<g id="edge7" class="edge">
<title>core&#45;&gt;base_string</title>
<path fill="none" stroke="black" d="M1093.38,-90.09C1235.1,-76.23 1637.68,-36.87 1790.92,-21.89"/>
<polygon fill="black" stroke="black" points="1791.47,-25.35 1801.08,-20.89 1790.79,-18.38 1791.47,-25.35"/>
<text text-anchor="middle" x="1553.64" y="-51.8" font-family="Times,serif" font-size="14.00">«include»</text>
</g>
<!-- core&#45;&gt;base_trace -->
<g id="edge35" class="edge">
<title>core&#45;&gt;base_trace</title>
<path fill="none" stroke="red" stroke-width="2" d="M992.92,-90.67C836.24,-77.16 356.83,-35.81 187.31,-21.19"/>
<polygon fill="red" stroke="red" stroke-width="2" points="187.58,-17.7 177.31,-20.33 186.97,-24.67 187.58,-17.7"/>
<text text-anchor="middle" x="689.14" y="-51.8" font-family="Times,serif" font-size="14.00">«use»</text>
</g>
<!-- drawio -->
<g id="node13" class="node">
<title>drawio</title>
<polygon fill="white" stroke="black" stroke-width="2" points="236.14,-369 136.14,-369 136.14,-339 236.14,-339 236.14,-369"/>
<text text-anchor="middle" x="186.14" y="-350.3" font-family="Times,serif" font-size="14.00">drawio</text>
</g>
<!-- drawio&#45;&gt;2d&#45;engine -->
<g id="edge36" class="edge">
<title>drawio&#45;&gt;2d&#45;engine</title>
<path fill="none" stroke="red" stroke-width="2" d="M236.36,-340.82C254.08,-335.71 273.87,-329.06 291.14,-321 302.2,-315.84 302.62,-310.02 314.14,-306 364.25,-288.51 510.56,-279.83 594.01,-276.19"/>
<polygon fill="red" stroke="red" stroke-width="2" points="594.27,-279.69 604.11,-275.77 593.97,-272.69 594.27,-279.69"/>
<text text-anchor="middle" x="335.14" y="-309.8" font-family="Times,serif" font-size="14.00">«use»</text>
</g>
<!-- drawio&#45;&gt;base_trace -->
<g id="edge37" class="edge">
<title>drawio&#45;&gt;base_trace</title>
<path fill="none" stroke="red" stroke-width="2" d="M183.68,-338.95C174.61,-287.14 142.96,-106.37 131.41,-40.37"/>
<polygon fill="red" stroke="red" stroke-width="2" points="134.78,-39.36 129.61,-30.11 127.89,-40.57 134.78,-39.36"/>
<text text-anchor="middle" x="179.14" y="-173.3" font-family="Times,serif" font-size="14.00">«use»</text>
</g>
<!-- drawio&#45;&gt;core -->
<g id="edge8" class="edge">
<title>drawio&#45;&gt;core</title>
<path fill="none" stroke="black" d="M185.46,-338.62C184.93,-309.48 188.23,-243.41 226.14,-210 338.6,-110.89 813.57,-98.31 982.88,-97.02"/>
<polygon fill="black" stroke="black" points="983.13,-100.52 993.11,-96.95 983.09,-93.52 983.13,-100.52"/>
<text text-anchor="middle" x="260.64" y="-221.3" font-family="Times,serif" font-size="14.00">«include»</text>
</g>
<!-- drawio&#45;&gt;mngm -->
<g id="edge38" class="edge">
<title>drawio&#45;&gt;mngm</title>
<path fill="none" stroke="red" stroke-width="2" d="M198.81,-338.9C207.31,-329.51 218.8,-316.92 229.14,-306 279.75,-252.53 294,-232.37 364.14,-210 433.89,-187.76 518.23,-180.72 573.88,-178.63"/>
<polygon fill="red" stroke="red" stroke-width="2" points="574.05,-182.13 583.92,-178.29 573.81,-175.13 574.05,-182.13"/>
<text text-anchor="middle" x="296.14" y="-269.3" font-family="Times,serif" font-size="14.00">«use»</text>
</g>
<!-- fillet -->
<g id="node14" class="node">
<title>fillet</title>
<polygon fill="white" stroke="black" stroke-width="2" points="888.14,-450 788.14,-450 788.14,-420 888.14,-420 888.14,-450"/>
<text text-anchor="middle" x="838.14" y="-431.3" font-family="Times,serif" font-size="14.00">fillet</text>
</g>
<!-- fillet&#45;&gt;2d&#45;engine -->
<g id="edge39" class="edge">
<title>fillet&#45;&gt;2d&#45;engine</title>
<path fill="none" stroke="red" stroke-width="2" d="M788.07,-426.94C771.83,-424.68 753.73,-422.2 737.14,-420 705.61,-415.82 616.17,-425.86 595.14,-402 590.73,-397 591.02,-392.24 595.14,-387 616.06,-360.39 647.41,-394.95 669.14,-369 687.14,-347.51 679.25,-333.12 672.14,-306 671.38,-303.11 670.3,-300.2 669.04,-297.39"/>
<polygon fill="red" stroke="red" stroke-width="2" points="672.01,-295.51 664.25,-288.3 665.81,-298.78 672.01,-295.51"/>
<text text-anchor="middle" x="702.14" y="-350.3" font-family="Times,serif" font-size="14.00">«use»</text>
</g>
<!-- fillet&#45;&gt;3d&#45;engine -->
<g id="edge40" class="edge">
<title>fillet&#45;&gt;3d&#45;engine</title>
<path fill="none" stroke="red" stroke-width="2" d="M888.4,-423.4C908.69,-418.23 932.02,-411.13 952.14,-402 963.26,-396.96 964.03,-392.04 975.14,-387 992.12,-379.3 1011.38,-373.04 1029.17,-368.16"/>
<polygon fill="red" stroke="red" stroke-width="2" points="1030.11,-371.54 1038.88,-365.6 1028.32,-364.77 1030.11,-371.54"/>
<text text-anchor="middle" x="996.14" y="-390.8" font-family="Times,serif" font-size="14.00">«use»</text>
</g>
<!-- fillet&#45;&gt;mngm -->
<g id="edge41" class="edge">
<title>fillet&#45;&gt;mngm</title>
<path fill="none" stroke="red" stroke-width="2" d="M832.08,-420C827.45,-410.18 820.45,-397.07 812.14,-387 783.02,-351.72 758.64,-358.99 733.14,-321 716.77,-296.61 728.33,-283.15 713.14,-258 699.27,-235.02 677.51,-213.65 660.33,-198.79"/>
<polygon fill="red" stroke="red" stroke-width="2" points="662.23,-195.81 652.33,-192.03 657.72,-201.16 662.23,-195.81"/>
<text text-anchor="middle" x="754.14" y="-309.8" font-family="Times,serif" font-size="14.00">«use»</text>
</g>
<!-- fillet&#45;&gt;unsafe_defs -->
<g id="edge9" class="edge">
<title>fillet&#45;&gt;unsafe_defs</title>
<path fill="none" stroke="black" d="M843.65,-419.8C848.18,-409.63 855.42,-396.17 865.14,-387 912.84,-341.98 940.81,-354.6 997.14,-321 1019.06,-307.92 1024.83,-304.69 1044.14,-288 1076.55,-259.99 1109.85,-223.06 1129.76,-199.92"/>
<polygon fill="black" stroke="black" points="1132.64,-201.94 1136.47,-192.06 1127.32,-197.39 1132.64,-201.94"/>
<text text-anchor="middle" x="1056.64" y="-309.8" font-family="Times,serif" font-size="14.00">«include»</text>
</g>
<!-- grid -->
<g id="node15" class="node">
<title>grid</title>
<polygon fill="white" stroke="black" stroke-width="2" points="434.14,-450 334.14,-450 334.14,-420 434.14,-420 434.14,-450"/>
<text text-anchor="middle" x="384.14" y="-431.3" font-family="Times,serif" font-size="14.00">grid</text>
</g>
<!-- grid&#45;&gt;2d&#45;engine -->
<g id="edge42" class="edge">
<title>grid&#45;&gt;2d&#45;engine</title>
<path fill="none" stroke="red" stroke-width="2" d="M392.48,-419.85C406,-398.35 434.87,-357.95 471.14,-339 524.4,-311.18 551.01,-347.09 605.14,-321 617.13,-315.22 628.08,-305.4 636.57,-296.22"/>
<polygon fill="red" stroke="red" stroke-width="2" points="639.42,-298.27 643.36,-288.44 634.15,-293.67 639.42,-298.27"/>
<text text-anchor="middle" x="492.14" y="-350.3" font-family="Times,serif" font-size="14.00">«use»</text>
</g>
<!-- grid&#45;&gt;3d&#45;engine -->
<g id="edge43" class="edge">
<title>grid&#45;&gt;3d&#45;engine</title>
<path fill="none" stroke="red" stroke-width="2" d="M434.45,-422.03C438.39,-421.28 442.33,-420.59 446.14,-420 539.15,-405.6 568.47,-433.54 657.14,-402 668.29,-398.03 667.98,-390.93 679.14,-387 742,-364.9 931.14,-358.01 1029.01,-355.91"/>
<polygon fill="red" stroke="red" stroke-width="2" points="1029.12,-359.4 1039.05,-355.7 1028.98,-352.41 1029.12,-359.4"/>
<text text-anchor="middle" x="700.14" y="-390.8" font-family="Times,serif" font-size="14.00">«use»</text>
</g>
<!-- grid&#45;&gt;base_trace -->
<g id="edge44" class="edge">
<title>grid&#45;&gt;base_trace</title>
<path fill="none" stroke="red" stroke-width="2" d="M334.02,-421.64C331.02,-421.05 328.05,-420.49 325.14,-420 248.49,-407 225.08,-426.04 151.14,-402 111.56,-389.13 70.14,-396.62 70.14,-355 70.14,-355 70.14,-355 70.14,-95 70.14,-72.24 85.89,-51.59 100.83,-37.11"/>
<polygon fill="red" stroke="red" stroke-width="2" points="103.45,-39.45 108.48,-30.12 98.73,-34.28 103.45,-39.45"/>
<text text-anchor="middle" x="91.14" y="-221.3" font-family="Times,serif" font-size="14.00">«use»</text>
</g>
<!-- hole -->
<g id="node16" class="node">
<title>hole</title>
<polygon fill="white" stroke="black" stroke-width="2" points="1670.14,-531 1570.14,-531 1570.14,-501 1670.14,-501 1670.14,-531"/>
<text text-anchor="middle" x="1620.14" y="-512.3" font-family="Times,serif" font-size="14.00">hole</text>
</g>
<!-- hole&#45;&gt;3d&#45;engine -->
<g id="edge45" class="edge">
<title>hole&#45;&gt;3d&#45;engine</title>
<path fill="none" stroke="red" stroke-width="2" d="M1570.12,-512.87C1439.96,-506.81 1098.47,-487.46 1065.14,-450 1047.41,-430.07 1060.4,-398.92 1073.14,-377.76"/>
<polygon fill="red" stroke="red" stroke-width="2" points="1076.24,-379.41 1078.67,-369.1 1070.34,-375.64 1076.24,-379.41"/>
<text text-anchor="middle" x="1086.14" y="-431.3" font-family="Times,serif" font-size="14.00">«use»</text>
</g>
<!-- hole&#45;&gt;base_kv -->
<g id="edge46" class="edge">
<title>hole&#45;&gt;base_kv</title>
<path fill="none" stroke="red" stroke-width="2" d="M1670.39,-510C1745.71,-501.08 1879.14,-479.19 1879.14,-436 1879.14,-436 1879.14,-436 1879.14,-95 1879.14,-53.61 1593.71,-28.85 1466.31,-19.86"/>
<polygon fill="red" stroke="red" stroke-width="2" points="1466.53,-16.37 1456.31,-19.17 1466.05,-23.35 1466.53,-16.37"/>
<text text-anchor="middle" x="1900.14" y="-269.3" font-family="Times,serif" font-size="14.00">«use»</text>
</g>
<!-- label -->
<g id="node17" class="node">
<title>label</title>
<polygon fill="white" stroke="black" stroke-width="2" points="1474.14,-450 1374.14,-450 1374.14,-420 1474.14,-420 1474.14,-450"/>
<text text-anchor="middle" x="1424.14" y="-431.3" font-family="Times,serif" font-size="14.00">label</text>
</g>
<!-- hole&#45;&gt;label -->
<g id="edge47" class="edge">
<title>hole&#45;&gt;label</title>
<path fill="none" stroke="red" stroke-width="2" d="M1585.1,-500.88C1552.49,-487.73 1503.75,-468.09 1468.45,-453.86"/>
<polygon fill="red" stroke="red" stroke-width="2" points="1469.46,-450.49 1458.88,-450 1466.85,-456.99 1469.46,-450.49"/>
<text text-anchor="middle" x="1560.14" y="-471.8" font-family="Times,serif" font-size="14.00">«use»</text>
</g>
<!-- hole&#45;&gt;type_trait -->
<g id="edge48" class="edge">
<title>hole&#45;&gt;type_trait</title>
<path fill="none" stroke="red" stroke-width="2" d="M1670.3,-505.29C1701.09,-496.47 1738.15,-480.04 1757.14,-450 1798.04,-385.33 1750.36,-291.36 1724.14,-248.64"/>
<polygon fill="red" stroke="red" stroke-width="2" points="1727.05,-246.7 1718.76,-240.1 1721.12,-250.43 1727.05,-246.7"/>
<text text-anchor="middle" x="1793.14" y="-390.8" font-family="Times,serif" font-size="14.00">«use»</text>
</g>
<!-- hole&#45;&gt;unsafe_defs -->
<g id="edge10" class="edge">
<title>hole&#45;&gt;unsafe_defs</title>
<path fill="none" stroke="black" d="M1621.85,-500.91C1626.61,-459.41 1638.36,-338.51 1618.14,-306 1593.16,-265.83 1566.05,-277.93 1523.14,-258 1473.65,-235.02 1462.85,-224.11 1410.14,-210 1342.57,-191.91 1262.42,-184.01 1208.72,-180.59"/>
<polygon fill="black" stroke="black" points="1208.87,-177.09 1198.68,-179.98 1208.45,-184.08 1208.87,-177.09"/>
<text text-anchor="middle" x="1663.64" y="-350.3" font-family="Times,serif" font-size="14.00">«include»</text>
</g>
<!-- label&#45;&gt;3d&#45;engine -->
<g id="edge49" class="edge">
<title>label&#45;&gt;3d&#45;engine</title>
<path fill="none" stroke="red" stroke-width="2" d="M1373.8,-424.99C1344.02,-419.27 1305.69,-411.21 1272.14,-402 1252.22,-396.53 1248.01,-392.66 1228.14,-387 1202.5,-379.7 1173.84,-372.88 1149.24,-367.43"/>
<polygon fill="red" stroke="red" stroke-width="2" points="1149.83,-363.97 1139.32,-365.25 1148.34,-370.81 1149.83,-363.97"/>
<text text-anchor="middle" x="1293.14" y="-390.8" font-family="Times,serif" font-size="14.00">«use»</text>
</g>
<!-- label&#45;&gt;mngm -->
<g id="edge50" class="edge">
<title>label&#45;&gt;mngm</title>
<path fill="none" stroke="red" stroke-width="2" d="M1473.86,-419.81C1492.61,-411.89 1507.05,-400.83 1496.14,-387 1466.84,-349.87 1124.5,-309.04 1082.14,-288 1033.22,-263.69 1037.69,-230.72 987.14,-210 960.8,-199.2 788.07,-187.29 694.37,-181.52"/>
<polygon fill="red" stroke="red" stroke-width="2" points="694.37,-178.02 684.17,-180.9 693.94,-185 694.37,-178.02"/>
<text text-anchor="middle" x="1255.14" y="-309.8" font-family="Times,serif" font-size="14.00">«use»</text>
</g>
<!-- label&#45;&gt;unsafe_defs -->
<g id="edge11" class="edge">
<title>label&#45;&gt;unsafe_defs</title>
<path fill="none" stroke="black" d="M1474.27,-420.23C1496.34,-413.67 1518.01,-406.33 1521.14,-402 1525.05,-396.6 1523.57,-393.21 1521.14,-387 1497.87,-327.61 1354.14,-234.27 1295.14,-210 1267.83,-198.76 1235.98,-191.21 1208.91,-186.28"/>
<polygon fill="black" stroke="black" points="1209.25,-182.79 1198.79,-184.52 1208.04,-189.68 1209.25,-182.79"/>
<text text-anchor="middle" x="1499.64" y="-309.8" font-family="Times,serif" font-size="14.00">«include»</text>
</g>
<!-- limits -->
<g id="node18" class="node">
<title>limits</title>
<polygon fill="white" stroke="black" stroke-width="2" points="1748.14,-450 1648.14,-450 1648.14,-420 1748.14,-420 1748.14,-450"/>
<text text-anchor="middle" x="1698.14" y="-431.3" font-family="Times,serif" font-size="14.00">limits</text>
</g>
<!-- limits&#45;&gt;3d&#45;engine -->
<g id="edge12" class="edge">
<title>limits&#45;&gt;3d&#45;engine</title>
<path fill="none" stroke="black" d="M1647.97,-425.76C1585.23,-415.66 1474.46,-398.46 1379.14,-387 1293.61,-376.72 1271.69,-379.16 1186.14,-369 1174.26,-367.59 1161.59,-365.9 1149.46,-364.19"/>
<polygon fill="black" stroke="black" points="1149.82,-360.7 1139.42,-362.75 1148.83,-367.63 1149.82,-360.7"/>
<text text-anchor="middle" x="1518.64" y="-390.8" font-family="Times,serif" font-size="14.00">«include»</text>
</g>
<!-- limits&#45;&gt;core -->
<g id="edge13" class="edge">
<title>limits&#45;&gt;core</title>
<path fill="none" stroke="black" d="M1737.32,-419.83C1745.79,-415.24 1754.04,-409.37 1760.14,-402 1774.05,-385.22 1774.14,-376.8 1774.14,-355 1774.14,-355 1774.14,-355 1774.14,-176 1774.14,-108.73 1278.48,-98.68 1103.46,-97.23"/>
<polygon fill="black" stroke="black" points="1103.41,-93.73 1093.39,-97.15 1103.36,-100.73 1103.41,-93.73"/>
<text text-anchor="middle" x="1808.64" y="-269.3" font-family="Times,serif" font-size="14.00">«include»</text>
</g>
<!-- mngm&#45;&gt;core -->
<g id="edge14" class="edge">
<title>mngm&#45;&gt;core</title>
<path fill="none" stroke="black" d="M684.14,-164.22C727.41,-154.22 791.73,-139.82 848.14,-129 893.14,-120.37 944.27,-112.04 982.88,-106.04"/>
<polygon fill="black" stroke="black" points="983.57,-109.47 992.91,-104.49 982.5,-102.55 983.57,-109.47"/>
<text text-anchor="middle" x="882.64" y="-132.8" font-family="Times,serif" font-size="14.00">«include»</text>
</g>
<!-- profile -->
<g id="node20" class="node">
<title>profile</title>
<polygon fill="white" stroke="black" stroke-width="2" points="1334.14,-450 1234.14,-450 1234.14,-420 1334.14,-420 1334.14,-450"/>
<text text-anchor="middle" x="1284.14" y="-431.3" font-family="Times,serif" font-size="14.00">profile</text>
</g>
<!-- profile&#45;&gt;2d&#45;engine -->
<g id="edge51" class="edge">
<title>profile&#45;&gt;2d&#45;engine</title>
<path fill="none" stroke="red" stroke-width="2" d="M1269.35,-419.58C1239.12,-391.24 1166.79,-329.03 1092.14,-306 1034.26,-288.14 880.55,-292.55 820.14,-288 785.16,-285.37 746.07,-282.09 714.61,-279.36"/>
<polygon fill="red" stroke="red" stroke-width="2" points="714.51,-275.84 704.25,-278.46 713.91,-282.82 714.51,-275.84"/>
<text text-anchor="middle" x="1229.14" y="-350.3" font-family="Times,serif" font-size="14.00">«use»</text>
</g>
<!-- profile&#45;&gt;3d&#45;engine -->
<g id="edge52" class="edge">
<title>profile&#45;&gt;3d&#45;engine</title>
<path fill="none" stroke="red" stroke-width="2" d="M1234.08,-421.27C1217.2,-416.21 1198.51,-409.72 1182.14,-402 1171.11,-396.79 1169.83,-392.89 1159.14,-387 1150.54,-382.26 1141.11,-377.61 1132.04,-373.38"/>
<polygon fill="red" stroke="red" stroke-width="2" points="1133.31,-370.12 1122.76,-369.14 1130.4,-376.48 1133.31,-370.12"/>
<text text-anchor="middle" x="1203.14" y="-390.8" font-family="Times,serif" font-size="14.00">«use»</text>
</g>
<!-- profile&#45;&gt;mngm -->
<g id="edge53" class="edge">
<title>profile&#45;&gt;mngm</title>
<path fill="none" stroke="red" stroke-width="2" d="M1234.05,-421.47C1231.04,-420.92 1228.06,-420.42 1225.14,-420 1188.25,-414.68 918.78,-425.86 890.14,-402 856.43,-373.92 896.07,-338.98 867.14,-306 852.39,-289.18 837.85,-301.66 820.14,-288 786.35,-261.94 799.49,-233.91 764.14,-210 743.68,-196.16 717.81,-188.3 694.54,-183.83"/>
<polygon fill="red" stroke="red" stroke-width="2" points="694.86,-180.33 684.4,-182.06 693.65,-187.23 694.86,-180.33"/>
<text text-anchor="middle" x="897.14" y="-309.8" font-family="Times,serif" font-size="14.00">«use»</text>
</g>
<!-- profile&#45;&gt;unsafe_defs -->
<g id="edge15" class="edge">
<title>profile&#45;&gt;unsafe_defs</title>
<path fill="none" stroke="black" d="M1334.26,-425.31C1344.48,-423.55 1355.15,-421.71 1365.14,-420 1413.77,-411.67 1493.9,-430.78 1471.14,-387 1447.6,-341.71 1410.09,-359.99 1377.14,-321 1357.13,-297.31 1369.43,-279.56 1347.14,-258 1308.81,-220.91 1286.71,-229.7 1237.14,-210 1224.74,-205.07 1211.24,-200.05 1198.59,-195.48"/>
<polygon fill="black" stroke="black" points="1199.71,-192.17 1189.12,-192.09 1197.35,-198.76 1199.71,-192.17"/>
<text text-anchor="middle" x="1411.64" y="-309.8" font-family="Times,serif" font-size="14.00">«include»</text>
</g>
<!-- template -->
<g id="node21" class="node">
<title>template</title>
<polygon fill="white" stroke="black" stroke-width="2" points="1216.14,-450 1116.14,-450 1116.14,-420 1216.14,-420 1216.14,-450"/>
<text text-anchor="middle" x="1166.14" y="-431.3" font-family="Times,serif" font-size="14.00">template</text>
</g>
<!-- template&#45;&gt;3d&#45;engine -->
<g id="edge16" class="edge">
<title>template&#45;&gt;3d&#45;engine</title>
<path fill="none" stroke="black" d="M1116.11,-422.5C1105.92,-417.82 1096.42,-411.24 1090.14,-402 1085.73,-395.5 1084.49,-387.25 1084.67,-379.47"/>
<polygon fill="black" stroke="black" points="1088.16,-379.67 1085.62,-369.38 1081.19,-379.01 1088.16,-379.67"/>
<text text-anchor="middle" x="1124.64" y="-390.8" font-family="Times,serif" font-size="14.00">«include»</text>
</g>
<!-- torus -->
<g id="node22" class="node">
<title>torus</title>
<polygon fill="white" stroke="black" stroke-width="2" points="555.14,-450 455.14,-450 455.14,-420 555.14,-420 555.14,-450"/>
<text text-anchor="middle" x="505.14" y="-431.3" font-family="Times,serif" font-size="14.00">torus</text>
</g>
<!-- torus&#45;&gt;2d&#45;engine -->
<g id="edge54" class="edge">
<title>torus&#45;&gt;2d&#45;engine</title>
<path fill="none" stroke="red" stroke-width="2" d="M505.5,-419.66C506.84,-398.65 512.58,-359.76 536.14,-339 568.06,-310.88 596.12,-346.54 630.14,-321 637.83,-315.23 643.25,-306.29 646.97,-297.75"/>
<polygon fill="red" stroke="red" stroke-width="2" points="650.34,-298.72 650.58,-288.13 643.79,-296.26 650.34,-298.72"/>
<text text-anchor="middle" x="557.14" y="-350.3" font-family="Times,serif" font-size="14.00">«use»</text>
</g>
<!-- torus&#45;&gt;3d&#45;engine -->
<g id="edge55" class="edge">
<title>torus&#45;&gt;3d&#45;engine</title>
<path fill="none" stroke="red" stroke-width="2" d="M555.19,-428.18C599.94,-422.62 667.21,-413.43 725.14,-402 752.11,-396.68 758.07,-391.78 785.14,-387 869,-372.18 967.17,-363.37 1028.77,-358.85"/>
<polygon fill="red" stroke="red" stroke-width="2" points="1029.36,-362.32 1039.08,-358.11 1028.86,-355.34 1029.36,-362.32"/>
<text text-anchor="middle" x="806.14" y="-390.8" font-family="Times,serif" font-size="14.00">«use»</text>
</g>
<!-- torus&#45;&gt;mngm -->
<g id="edge56" class="edge">
<title>torus&#45;&gt;mngm</title>
<path fill="none" stroke="red" stroke-width="2" d="M455.12,-422.42C451.07,-421.57 447.04,-420.75 443.14,-420 373.31,-406.49 173.26,-423.16 127.14,-369 118.5,-358.85 125.75,-352.26 127.14,-339 133.42,-279.17 120.23,-246.38 168.14,-210 199.71,-186.02 454.96,-180.01 573.74,-178.5"/>
<polygon fill="red" stroke="red" stroke-width="2" points="573.82,-182 583.77,-178.38 573.73,-175 573.82,-182"/>
<text text-anchor="middle" x="151.14" y="-309.8" font-family="Times,serif" font-size="14.00">«use»</text>
</g>
<!-- torus&#45;&gt;unsafe_defs -->
<g id="edge17" class="edge">
<title>torus&#45;&gt;unsafe_defs</title>
<path fill="none" stroke="black" d="M503.03,-419.83C500.83,-400.38 499.39,-364.87 513.14,-339 537.18,-293.76 548.83,-279.9 595.14,-258 664.62,-225.14 694.24,-264.35 767.14,-240 791.72,-231.79 792.41,-217.73 817.14,-210 930.44,-174.58 968.45,-208.66 1087.35,-192.4"/>
<polygon fill="black" stroke="black" points="1088.19,-195.82 1097.58,-190.91 1087.17,-188.89 1088.19,-195.82"/>
<text text-anchor="middle" x="567.64" y="-309.8" font-family="Times,serif" font-size="14.00">«include»</text>
</g>
<!-- tube -->
<g id="node23" class="node">
<title>tube</title>
<polygon fill="white" stroke="black" stroke-width="2" points="728.14,-450 628.14,-450 628.14,-420 728.14,-420 728.14,-450"/>
<text text-anchor="middle" x="678.14" y="-431.3" font-family="Times,serif" font-size="14.00">tube</text>
</g>
<!-- tube&#45;&gt;2d&#45;engine -->
<g id="edge57" class="edge">
<title>tube&#45;&gt;2d&#45;engine</title>
<path fill="none" stroke="red" stroke-width="2" d="M627.91,-431.92C606.56,-428.24 583.54,-419.94 570.14,-402 566.15,-396.66 567.33,-393.04 570.14,-387 584.11,-356.97 600.49,-358.66 627.14,-339 639.05,-330.22 648.05,-333.98 655.14,-321 658.91,-314.11 659.7,-305.75 659.22,-298.01"/>
<polygon fill="red" stroke="red" stroke-width="2" points="662.69,-297.5 657.94,-288.03 655.74,-298.39 662.69,-297.5"/>
<text text-anchor="middle" x="648.14" y="-350.3" font-family="Times,serif" font-size="14.00">«use»</text>
</g>
<!-- tube&#45;&gt;3d&#45;engine -->
<g id="edge58" class="edge">
<title>tube&#45;&gt;3d&#45;engine</title>
<path fill="none" stroke="red" stroke-width="2" d="M728.32,-423.2C774.46,-413.38 844.8,-398.68 906.14,-387 946.95,-379.23 993.01,-371.18 1028.71,-365.1"/>
<polygon fill="red" stroke="red" stroke-width="2" points="1029.7,-368.48 1038.97,-363.35 1028.52,-361.58 1029.7,-368.48"/>
<text text-anchor="middle" x="927.14" y="-390.8" font-family="Times,serif" font-size="14.00">«use»</text>
</g>
<!-- tube&#45;&gt;mngm -->
<g id="edge59" class="edge">
<title>tube&#45;&gt;mngm</title>
<path fill="none" stroke="red" stroke-width="2" d="M628.1,-422.12C607.96,-416.78 584.67,-409.89 564.14,-402 505.33,-379.39 495.64,-362.41 437.14,-339 412.08,-328.97 395.15,-342.73 379.14,-321 323.36,-245.28 481.94,-204.25 573.78,-187.37"/>
<polygon fill="red" stroke="red" stroke-width="2" points="574.58,-190.78 583.81,-185.57 573.35,-183.89 574.58,-190.78"/>
<text text-anchor="middle" x="400.14" y="-309.8" font-family="Times,serif" font-size="14.00">«use»</text>
</g>
<!-- tube&#45;&gt;unsafe_defs -->
<g id="edge18" class="edge">
<title>tube&#45;&gt;unsafe_defs</title>
<path fill="none" stroke="black" d="M700.1,-419.8C707.45,-414.6 715.46,-408.41 722.14,-402 761.4,-364.31 750.2,-331.74 798.14,-306 881.84,-261.06 924.73,-327.48 1011.14,-288 1022.43,-282.84 1081.2,-217.44 1091.14,-210 1097.2,-205.47 1103.97,-201.12 1110.67,-197.18"/>
<polygon fill="black" stroke="black" points="1112.72,-200.04 1119.69,-192.07 1109.27,-193.95 1112.72,-200.04"/>
<text text-anchor="middle" x="832.64" y="-309.8" font-family="Times,serif" font-size="14.00">«include»</text>
</g>
<!-- type_trait&#45;&gt;base_string -->
<g id="edge20" class="edge">
<title>type_trait&#45;&gt;base_string</title>
<path fill="none" stroke="black" d="M1756.26,-209.88C1800.51,-193.82 1864.13,-162.86 1893.14,-111 1906.81,-86.56 1905.57,-73.09 1893.14,-48 1891.12,-43.92 1888.3,-40.21 1885.06,-36.89"/>
<polygon fill="black" stroke="black" points="1887.31,-34.2 1877.48,-30.25 1882.69,-39.47 1887.31,-34.2"/>
<text text-anchor="middle" x="1913.64" y="-132.8" font-family="Times,serif" font-size="14.00">«include»</text>
</g>
<!-- type_trait&#45;&gt;core -->
<g id="edge19" class="edge">
<title>type_trait&#45;&gt;core</title>
<path fill="none" stroke="black" d="M1658.87,-210.84C1657.61,-210.55 1656.37,-210.27 1655.14,-210 1454.14,-165.45 1213.29,-124.61 1103.28,-106.64"/>
<polygon fill="black" stroke="black" points="1103.8,-103.18 1093.36,-105.03 1102.67,-110.09 1103.8,-103.18"/>
<text text-anchor="middle" x="1594.64" y="-173.3" font-family="Times,serif" font-size="14.00">«include»</text>
</g>
<!-- unsafe_defs&#45;&gt;core -->
<g id="edge21" class="edge">
<title>unsafe_defs&#45;&gt;core</title>
<path fill="none" stroke="black" d="M1129.37,-161.88C1112.8,-149.41 1088.45,-131.09 1069.84,-117.09"/>
<polygon fill="black" stroke="black" points="1071.85,-114.22 1061.75,-111 1067.64,-119.81 1071.85,-114.22"/>
<text text-anchor="middle" x="1139.64" y="-132.8" font-family="Times,serif" font-size="14.00">«include»</text>
</g>
<!-- util&#45;&gt;3d&#45;engine -->
<g id="edge60" class="edge">
<title>util&#45;&gt;3d&#45;engine</title>
<path fill="none" stroke="red" stroke-width="2" d="M316.27,-421.68C319.26,-421.08 322.24,-420.51 325.14,-420 584.6,-374.41 899.45,-360.46 1029.02,-356.48"/>
<polygon fill="red" stroke="red" stroke-width="2" points="1029.25,-359.98 1039.14,-356.18 1029.04,-352.98 1029.25,-359.98"/>
<text text-anchor="middle" x="576.14" y="-390.8" font-family="Times,serif" font-size="14.00">«use»</text>
</g>
<!-- util&#45;&gt;bbox&#45;engine -->
<g id="edge61" class="edge">
<title>util&#45;&gt;bbox&#45;engine</title>
<path fill="none" stroke="red" stroke-width="2" d="M262.57,-419.58C254.92,-388 238.2,-314.86 245.14,-306 265.75,-279.69 285.82,-296.47 318.14,-288 443.52,-255.15 471.74,-233.81 599.14,-210 688.92,-193.22 794.49,-184.86 859.87,-180.99"/>
<polygon fill="red" stroke="red" stroke-width="2" points="860.22,-184.47 870.01,-180.4 859.82,-177.48 860.22,-184.47"/>
<text text-anchor="middle" x="266.14" y="-309.8" font-family="Times,serif" font-size="14.00">«use»</text>
</g>
<!-- util&#45;&gt;mngm -->
<g id="edge62" class="edge">
<title>util&#45;&gt;mngm</title>
<path fill="none" stroke="red" stroke-width="2" d="M215.75,-431.53C161.93,-427.99 81.02,-419.83 56.14,-402 -13.28,-352.25 -20.24,-261.17 48.14,-210 68.93,-194.44 428.21,-183.37 573.7,-179.51"/>
<polygon fill="red" stroke="red" stroke-width="2" points="573.89,-183 583.8,-179.24 573.71,-176 573.89,-183"/>
<text text-anchor="middle" x="23.14" y="-309.8" font-family="Times,serif" font-size="14.00">«use»</text>
</g>
<!-- util&#45;&gt;unsafe_defs -->
<g id="edge22" class="edge">
<title>util&#45;&gt;unsafe_defs</title>
<path fill="none" stroke="black" d="M284.78,-419.9C317.56,-395.39 388.03,-343.91 451.14,-306 491.02,-282.05 499.49,-271.04 544.14,-258 627.68,-233.59 661,-278.32 739.14,-240 755.52,-231.97 750.62,-217.73 767.14,-210 829.78,-180.69 1004.66,-200.83 1087.47,-192.21"/>
<polygon fill="black" stroke="black" points="1088.09,-195.65 1097.58,-190.93 1087.22,-188.71 1088.09,-195.65"/>
<text text-anchor="middle" x="485.64" y="-309.8" font-family="Times,serif" font-size="14.00">«include»</text>
</g>
</g>
</svg>
