<?xml version="1.0" encoding="UTF-8" standalone="no"?>
<!DOCTYPE svg PUBLIC "-//W3C//DTD SVG 1.1//EN"
 "http://www.w3.org/Graphics/SVG/1.1/DTD/svg11.dtd">
<!-- Generated by graphviz version 2.43.0 (0)
 -->
<!-- Title: foundation Pages: 1 -->
<svg width="1265pt" height="458pt"
 viewBox="0.00 0.00 1265.00 458.00" xmlns="http://www.w3.org/2000/svg" xmlns:xlink="http://www.w3.org/1999/xlink">
<g id="graph0" class="graph" transform="scale(1 1) rotate(0) translate(4 454)">
<title>foundation</title>
<polygon fill="white" stroke="transparent" points="-4,4 -4,-454 1261,-454 1261,4 -4,4"/>
<!-- 2d&#45;engine -->
<g id="node1" class="node">
<title>2d&#45;engine</title>
<polygon fill="white" stroke="black" stroke-width="2" points="1019,-207 919,-207 919,-177 1019,-177 1019,-207"/>
<text text-anchor="middle" x="969" y="-188.3" font-family="Times,serif" font-size="14.00">2d&#45;engine</text>
</g>
<!-- bbox&#45;engine -->
<g id="node4" class="node">
<title>bbox&#45;engine</title>
<polygon fill="white" stroke="black" stroke-width="2" points="908.5,-111 805.5,-111 805.5,-81 908.5,-81 908.5,-111"/>
<text text-anchor="middle" x="857" y="-92.3" font-family="Times,serif" font-size="14.00">bbox&#45;engine</text>
</g>
<!-- 2d&#45;engine&#45;&gt;bbox&#45;engine -->
<g id="edge22" class="edge">
<title>2d&#45;engine&#45;&gt;bbox&#45;engine</title>
<path fill="none" stroke="red" stroke-width="2" d="M949.01,-176.72C941.66,-171.31 933.35,-165.01 926,-159 917.06,-151.68 896.46,-133.08 880.08,-118.15"/>
<polygon fill="red" stroke="red" stroke-width="2" points="882.19,-115.34 872.45,-111.18 877.47,-120.51 882.19,-115.34"/>
<text text-anchor="middle" x="947" y="-140.3" font-family="Times,serif" font-size="14.00">«use»</text>
</g>
<!-- mngm&#45;engine -->
<g id="node15" class="node">
<title>mngm&#45;engine</title>
<polygon fill="white" stroke="black" stroke-width="2" points="1160,-111 1046,-111 1046,-81 1160,-81 1160,-111"/>
<text text-anchor="middle" x="1103" y="-92.3" font-family="Times,serif" font-size="14.00">mngm&#45;engine</text>
</g>
<!-- 2d&#45;engine&#45;&gt;mngm&#45;engine -->
<g id="edge21" class="edge">
<title>2d&#45;engine&#45;&gt;mngm&#45;engine</title>
<path fill="none" stroke="red" stroke-width="2" d="M1014.98,-176.97C1026.39,-172.28 1038.15,-166.34 1048,-159 1061.69,-148.8 1060.71,-141.81 1072,-129 1075.07,-125.51 1078.41,-121.89 1081.73,-118.4"/>
<polygon fill="red" stroke="red" stroke-width="2" points="1084.39,-120.69 1088.82,-111.06 1079.35,-115.83 1084.39,-120.69"/>
<text text-anchor="middle" x="1093" y="-140.3" font-family="Times,serif" font-size="14.00">«use»</text>
</g>
<!-- unsafe_defs -->
<g id="node21" class="node">
<title>unsafe_defs</title>
<polygon fill="white" stroke="black" stroke-width="2" points="1027.5,-111 926.5,-111 926.5,-81 1027.5,-81 1027.5,-111"/>
<text text-anchor="middle" x="977" y="-92.3" font-family="Times,serif" font-size="14.00">unsafe_defs</text>
</g>
<!-- 2d&#45;engine&#45;&gt;unsafe_defs -->
<g id="edge1" class="edge">
<title>2d&#45;engine&#45;&gt;unsafe_defs</title>
<path fill="none" stroke="black" d="M970.22,-176.72C971.47,-162.01 973.44,-138.79 974.94,-121.2"/>
<polygon fill="black" stroke="black" points="978.44,-121.36 975.8,-111.1 971.46,-120.77 978.44,-121.36"/>
<text text-anchor="middle" x="1009.5" y="-140.3" font-family="Times,serif" font-size="14.00">«include»</text>
</g>
<!-- 3d&#45;engine -->
<g id="node2" class="node">
<title>3d&#45;engine</title>
<polygon fill="white" stroke="black" stroke-width="2" points="636,-288 536,-288 536,-258 636,-258 636,-288"/>
<text text-anchor="middle" x="586" y="-269.3" font-family="Times,serif" font-size="14.00">3d&#45;engine</text>
</g>
<!-- 3d&#45;engine&#45;&gt;2d&#45;engine -->
<g id="edge2" class="edge">
<title>3d&#45;engine&#45;&gt;2d&#45;engine</title>
<path fill="none" stroke="black" d="M636.13,-260.14C678.4,-250.29 740.52,-236.13 795,-225 832.64,-217.31 875.03,-209.5 908.54,-203.52"/>
<polygon fill="black" stroke="black" points="909.41,-206.92 918.64,-201.72 908.19,-200.02 909.41,-206.92"/>
<text text-anchor="middle" x="829.5" y="-228.8" font-family="Times,serif" font-size="14.00">«include»</text>
</g>
<!-- polymorphic&#45;engine -->
<g id="node16" class="node">
<title>polymorphic&#45;engine</title>
<polygon fill="white" stroke="black" stroke-width="2" points="971,-369 813,-369 813,-339 971,-339 971,-369"/>
<text text-anchor="middle" x="892" y="-350.3" font-family="Times,serif" font-size="14.00">polymorphic&#45;engine</text>
</g>
<!-- 3d&#45;engine&#45;&gt;polymorphic&#45;engine -->
<g id="edge23" class="edge">
<title>3d&#45;engine&#45;&gt;polymorphic&#45;engine</title>
<path fill="none" stroke="red" stroke-width="2" d="M636.34,-278.91C669.06,-283.31 712.15,-291.41 748,-306 759.3,-310.6 759.85,-316.04 771,-321 784.39,-326.95 799.12,-331.99 813.56,-336.18"/>
<polygon fill="red" stroke="red" stroke-width="2" points="812.92,-339.63 823.49,-338.95 814.8,-332.89 812.92,-339.63"/>
<text text-anchor="middle" x="792" y="-309.8" font-family="Times,serif" font-size="14.00">«use»</text>
</g>
<!-- type_trait -->
<g id="node20" class="node">
<title>type_trait</title>
<polygon fill="white" stroke="black" stroke-width="2" points="639,-159 539,-159 539,-129 639,-129 639,-159"/>
<text text-anchor="middle" x="589" y="-140.3" font-family="Times,serif" font-size="14.00">type_trait</text>
</g>
<!-- 3d&#45;engine&#45;&gt;type_trait -->
<g id="edge3" class="edge">
<title>3d&#45;engine&#45;&gt;type_trait</title>
<path fill="none" stroke="black" d="M586.33,-257.92C586.84,-236.56 587.8,-195.68 588.42,-169.4"/>
<polygon fill="black" stroke="black" points="591.93,-169.22 588.67,-159.14 584.93,-169.05 591.93,-169.22"/>
<text text-anchor="middle" x="622.5" y="-228.8" font-family="Times,serif" font-size="14.00">«include»</text>
</g>
<!-- algo&#45;engine -->
<g id="node3" class="node">
<title>algo&#45;engine</title>
<polygon fill="white" stroke="black" stroke-width="2" points="531,-369 431,-369 431,-339 531,-339 531,-369"/>
<text text-anchor="middle" x="481" y="-350.3" font-family="Times,serif" font-size="14.00">algo&#45;engine</text>
</g>
<!-- algo&#45;engine&#45;&gt;3d&#45;engine -->
<g id="edge4" class="edge">
<title>algo&#45;engine&#45;&gt;3d&#45;engine</title>
<path fill="none" stroke="black" d="M487.97,-338.67C493.55,-328.44 502.22,-314.96 513,-306 519.21,-300.84 526.39,-296.37 533.76,-292.54"/>
<polygon fill="black" stroke="black" points="535.65,-295.52 543.15,-288.04 532.62,-289.21 535.65,-295.52"/>
<text text-anchor="middle" x="547.5" y="-309.8" font-family="Times,serif" font-size="14.00">«include»</text>
</g>
<!-- core -->
<g id="node7" class="node">
<title>core</title>
<polygon fill="white" stroke="black" stroke-width="2" points="974,-30 874,-30 874,0 974,0 974,-30"/>
<text text-anchor="middle" x="924" y="-11.3" font-family="Times,serif" font-size="14.00">core</text>
</g>
<!-- bbox&#45;engine&#45;&gt;core -->
<g id="edge5" class="edge">
<title>bbox&#45;engine&#45;&gt;core</title>
<path fill="none" stroke="black" d="M859.27,-80.62C861.43,-70.63 865.51,-57.46 873,-48 876.53,-43.54 880.86,-39.53 885.49,-35.99"/>
<polygon fill="black" stroke="black" points="887.79,-38.65 894.04,-30.1 883.82,-32.88 887.79,-38.65"/>
<text text-anchor="middle" x="907.5" y="-51.8" font-family="Times,serif" font-size="14.00">«include»</text>
</g>
<!-- components -->
<g id="node5" class="node">
<title>components</title>
<polygon fill="white" stroke="black" stroke-width="2" points="848.5,-207 745.5,-207 745.5,-177 848.5,-177 848.5,-207"/>
<text text-anchor="middle" x="797" y="-188.3" font-family="Times,serif" font-size="14.00">components</text>
</g>
<!-- components&#45;&gt;bbox&#45;engine -->
<g id="edge6" class="edge">
<title>components&#45;&gt;bbox&#45;engine</title>
<path fill="none" stroke="black" d="M793.4,-176.84C790.85,-163.5 789.24,-143.45 798,-129 800.76,-124.45 804.42,-120.5 808.56,-117.08"/>
<polygon fill="black" stroke="black" points="810.83,-119.76 817.02,-111.16 806.82,-114.03 810.83,-119.76"/>
<text text-anchor="middle" x="832.5" y="-140.3" font-family="Times,serif" font-size="14.00">«include»</text>
</g>
<!-- connect -->
<g id="node6" class="node">
<title>connect</title>
<polygon fill="white" stroke="black" stroke-width="2" points="413,-450 313,-450 313,-420 413,-420 413,-450"/>
<text text-anchor="middle" x="363" y="-431.3" font-family="Times,serif" font-size="14.00">connect</text>
</g>
<!-- util -->
<g id="node22" class="node">
<title>util</title>
<polygon fill="white" stroke="black" stroke-width="2" points="413,-369 313,-369 313,-339 413,-339 413,-369"/>
<text text-anchor="middle" x="363" y="-350.3" font-family="Times,serif" font-size="14.00">util</text>
</g>
<!-- connect&#45;&gt;util -->
<g id="edge7" class="edge">
<title>connect&#45;&gt;util</title>
<path fill="none" stroke="black" d="M363,-419.88C363,-408.64 363,-392.66 363,-379.37"/>
<polygon fill="black" stroke="black" points="366.5,-379 363,-369 359.5,-379 366.5,-379"/>
<text text-anchor="middle" x="397.5" y="-390.8" font-family="Times,serif" font-size="14.00">«include»</text>
</g>
<!-- dimensions -->
<g id="node8" class="node">
<title>dimensions</title>
<polygon fill="white" stroke="black" stroke-width="2" points="531,-450 431,-450 431,-420 531,-420 531,-450"/>
<text text-anchor="middle" x="481" y="-431.3" font-family="Times,serif" font-size="14.00">dimensions</text>
</g>
<!-- drawio -->
<g id="node9" class="node">
<title>drawio</title>
<polygon fill="white" stroke="black" stroke-width="2" points="1019,-288 919,-288 919,-258 1019,-258 1019,-288"/>
<text text-anchor="middle" x="969" y="-269.3" font-family="Times,serif" font-size="14.00">drawio</text>
</g>
<!-- drawio&#45;&gt;2d&#45;engine -->
<g id="edge8" class="edge">
<title>drawio&#45;&gt;2d&#45;engine</title>
<path fill="none" stroke="black" d="M969,-257.88C969,-246.64 969,-230.66 969,-217.37"/>
<polygon fill="black" stroke="black" points="972.5,-217 969,-207 965.5,-217 972.5,-217"/>
<text text-anchor="middle" x="1003.5" y="-228.8" font-family="Times,serif" font-size="14.00">«include»</text>
</g>
<!-- fillet -->
<g id="node10" class="node">
<title>fillet</title>
<polygon fill="white" stroke="black" stroke-width="2" points="649,-369 549,-369 549,-339 649,-339 649,-369"/>
<text text-anchor="middle" x="599" y="-350.3" font-family="Times,serif" font-size="14.00">fillet</text>
</g>
<!-- fillet&#45;&gt;3d&#45;engine -->
<g id="edge9" class="edge">
<title>fillet&#45;&gt;3d&#45;engine</title>
<path fill="none" stroke="black" d="M592.56,-338.96C590.36,-333.48 588.17,-327.06 587,-321 585.59,-313.68 585.06,-305.59 584.96,-298.23"/>
<polygon fill="black" stroke="black" points="588.46,-298.15 585.07,-288.11 581.46,-298.08 588.46,-298.15"/>
<text text-anchor="middle" x="621.5" y="-309.8" font-family="Times,serif" font-size="14.00">«include»</text>
</g>
<!-- grid -->
<g id="node11" class="node">
<title>grid</title>
<polygon fill="white" stroke="black" stroke-width="2" points="767,-369 667,-369 667,-339 767,-339 767,-369"/>
<text text-anchor="middle" x="717" y="-350.3" font-family="Times,serif" font-size="14.00">grid</text>
</g>
<!-- grid&#45;&gt;3d&#45;engine -->
<g id="edge10" class="edge">
<title>grid&#45;&gt;3d&#45;engine</title>
<path fill="none" stroke="black" d="M700.9,-338.96C689.01,-329 672.14,-315.73 656,-306 647.93,-301.14 639,-296.52 630.29,-292.39"/>
<polygon fill="black" stroke="black" points="631.53,-289.11 620.98,-288.11 628.6,-295.47 631.53,-289.11"/>
<text text-anchor="middle" x="712.5" y="-309.8" font-family="Times,serif" font-size="14.00">«include»</text>
</g>
<!-- hole -->
<g id="node12" class="node">
<title>hole</title>
<polygon fill="white" stroke="black" stroke-width="2" points="100,-450 0,-450 0,-420 100,-420 100,-450"/>
<text text-anchor="middle" x="50" y="-431.3" font-family="Times,serif" font-size="14.00">hole</text>
</g>
<!-- label -->
<g id="node13" class="node">
<title>label</title>
<polygon fill="white" stroke="black" stroke-width="2" points="190,-369 90,-369 90,-339 190,-339 190,-369"/>
<text text-anchor="middle" x="140" y="-350.3" font-family="Times,serif" font-size="14.00">label</text>
</g>
<!-- hole&#45;&gt;label -->
<g id="edge11" class="edge">
<title>hole&#45;&gt;label</title>
<path fill="none" stroke="black" d="M51.75,-419.69C53.68,-409.47 57.7,-395.99 66,-387 70.66,-381.96 76.24,-377.67 82.24,-374.04"/>
<polygon fill="black" stroke="black" points="84.11,-377 91.24,-369.17 80.78,-370.84 84.11,-377"/>
<text text-anchor="middle" x="100.5" y="-390.8" font-family="Times,serif" font-size="14.00">«include»</text>
</g>
<!-- label&#45;&gt;3d&#45;engine -->
<g id="edge12" class="edge">
<title>label&#45;&gt;3d&#45;engine</title>
<path fill="none" stroke="black" d="M136.46,-338.68C134.8,-328.19 134.71,-314.36 143,-306 169.39,-279.39 411.11,-274.74 525.95,-274.04"/>
<polygon fill="black" stroke="black" points="526.01,-277.54 535.99,-273.99 525.97,-270.54 526.01,-277.54"/>
<text text-anchor="middle" x="177.5" y="-309.8" font-family="Times,serif" font-size="14.00">«include»</text>
</g>
<!-- limits -->
<g id="node14" class="node">
<title>limits</title>
<polygon fill="white" stroke="black" stroke-width="2" points="787,-111 687,-111 687,-81 787,-81 787,-111"/>
<text text-anchor="middle" x="737" y="-92.3" font-family="Times,serif" font-size="14.00">limits</text>
</g>
<!-- limits&#45;&gt;core -->
<g id="edge13" class="edge">
<title>limits&#45;&gt;core</title>
<path fill="none" stroke="black" d="M750.12,-80.61C760.51,-70.07 775.89,-56.23 792,-48 814.13,-36.69 840.42,-29.27 863.68,-24.45"/>
<polygon fill="black" stroke="black" points="864.64,-27.83 873.79,-22.48 863.3,-20.96 864.64,-27.83"/>
<text text-anchor="middle" x="826.5" y="-51.8" font-family="Times,serif" font-size="14.00">«include»</text>
</g>
<!-- mngm&#45;engine&#45;&gt;core -->
<g id="edge14" class="edge">
<title>mngm&#45;engine&#45;&gt;core</title>
<path fill="none" stroke="black" d="M1084.03,-80.92C1069.55,-70.69 1048.77,-57.09 1029,-48 1014.8,-41.47 998.91,-35.84 983.89,-31.2"/>
<polygon fill="black" stroke="black" points="984.75,-27.81 974.16,-28.3 982.74,-34.51 984.75,-27.81"/>
<text text-anchor="middle" x="1090.5" y="-51.8" font-family="Times,serif" font-size="14.00">«include»</text>
</g>
<!-- polymorphic&#45;engine&#45;&gt;3d&#45;engine -->
<g id="edge24" class="edge">
<title>polymorphic&#45;engine&#45;&gt;3d&#45;engine</title>
<path fill="none" stroke="red" stroke-width="2" d="M866.73,-338.97C857.04,-333.49 845.94,-327.07 836,-321 825.59,-314.64 824.43,-310.29 813,-306 758.96,-285.72 693.29,-278.15 646.52,-275.39"/>
<polygon fill="red" stroke="red" stroke-width="2" points="646.41,-271.88 636.24,-274.85 646.04,-278.87 646.41,-271.88"/>
<text text-anchor="middle" x="857" y="-309.8" font-family="Times,serif" font-size="14.00">«use»</text>
</g>
<!-- polymorphic&#45;engine&#45;&gt;bbox&#45;engine -->
<g id="edge25" class="edge">
<title>polymorphic&#45;engine&#45;&gt;bbox&#45;engine</title>
<path fill="none" stroke="red" stroke-width="2" d="M891.37,-338.96C889.57,-303.45 883.45,-207.31 867,-129 866.44,-126.32 865.74,-123.54 864.98,-120.79"/>
<polygon fill="red" stroke="red" stroke-width="2" points="868.32,-119.74 862.07,-111.18 861.62,-121.77 868.32,-119.74"/>
<text text-anchor="middle" x="905" y="-228.8" font-family="Times,serif" font-size="14.00">«use»</text>
</g>
<!-- polymorphic&#45;engine&#45;&gt;core -->
<g id="edge15" class="edge">
<title>polymorphic&#45;engine&#45;&gt;core</title>
<path fill="none" stroke="black" d="M971.32,-347.4C1059,-338.98 1188,-318.94 1188,-274 1188,-274 1188,-274 1188,-95 1188,-61.47 1159.7,-61.48 1129,-48 1082.99,-27.8 1026.25,-20.11 984.14,-17.3"/>
<polygon fill="black" stroke="black" points="984.23,-13.8 974.04,-16.7 983.81,-20.78 984.23,-13.8"/>
<text text-anchor="middle" x="1222.5" y="-188.3" font-family="Times,serif" font-size="14.00">«include»</text>
</g>
<!-- polymorphic&#45;engine&#45;&gt;mngm&#45;engine -->
<g id="edge26" class="edge">
<title>polymorphic&#45;engine&#45;&gt;mngm&#45;engine</title>
<path fill="none" stroke="red" stroke-width="2" d="M935.91,-338.91C964.41,-328.2 1001.11,-311.32 1028,-288 1080.06,-242.86 1094.03,-224.95 1114,-159 1117.77,-146.54 1115.65,-132.25 1112.31,-120.53"/>
<polygon fill="red" stroke="red" stroke-width="2" points="1115.62,-119.41 1109.17,-111.01 1108.98,-121.6 1115.62,-119.41"/>
<text text-anchor="middle" x="1107" y="-228.8" font-family="Times,serif" font-size="14.00">«use»</text>
</g>
<!-- profile -->
<g id="node17" class="node">
<title>profile</title>
<polygon fill="white" stroke="black" stroke-width="2" points="247,-450 147,-450 147,-420 247,-420 247,-450"/>
<text text-anchor="middle" x="197" y="-431.3" font-family="Times,serif" font-size="14.00">profile</text>
</g>
<!-- profile&#45;&gt;3d&#45;engine -->
<g id="edge16" class="edge">
<title>profile&#45;&gt;3d&#45;engine</title>
<path fill="none" stroke="black" d="M203.99,-419.78C206.61,-414.28 209.55,-407.89 212,-402 223.45,-374.48 212.39,-358.42 235,-339 277.79,-302.25 437.21,-284.89 525.76,-277.94"/>
<polygon fill="black" stroke="black" points="526.22,-281.41 535.93,-277.16 525.69,-274.43 526.22,-281.41"/>
<text text-anchor="middle" x="269.5" y="-350.3" font-family="Times,serif" font-size="14.00">«include»</text>
</g>
<!-- profile&#45;&gt;label -->
<g id="edge17" class="edge">
<title>profile&#45;&gt;label</title>
<path fill="none" stroke="black" d="M161.98,-419.96C154.54,-415.35 147.56,-409.43 143,-402 138.89,-395.29 137.44,-386.98 137.24,-379.23"/>
<polygon fill="black" stroke="black" points="140.74,-379.31 137.61,-369.19 133.75,-379.06 140.74,-379.31"/>
<text text-anchor="middle" x="177.5" y="-390.8" font-family="Times,serif" font-size="14.00">«include»</text>
</g>
<!-- quaternions -->
<g id="node18" class="node">
<title>quaternions</title>
<polygon fill="white" stroke="black" stroke-width="2" points="651,-450 549,-450 549,-420 651,-420 651,-450"/>
<text text-anchor="middle" x="600" y="-431.3" font-family="Times,serif" font-size="14.00">quaternions</text>
</g>
<!-- template -->
<g id="node19" class="node">
<title>template</title>
<polygon fill="white" stroke="black" stroke-width="2" points="769,-450 669,-450 669,-420 769,-420 769,-450"/>
<text text-anchor="middle" x="719" y="-431.3" font-family="Times,serif" font-size="14.00">template</text>
</g>
<!-- type_trait&#45;&gt;core -->
<g id="edge18" class="edge">
<title>type_trait&#45;&gt;core</title>
<path fill="none" stroke="black" d="M589.62,-128.75C591.04,-114.56 595.46,-93.17 609,-81 645.88,-47.84 783.27,-29.4 863.91,-21.22"/>
<polygon fill="black" stroke="black" points="864.33,-24.7 873.93,-20.23 863.64,-17.73 864.33,-24.7"/>
<text text-anchor="middle" x="643.5" y="-92.3" font-family="Times,serif" font-size="14.00">«include»</text>
</g>
<!-- unsafe_defs&#45;&gt;core -->
<g id="edge19" class="edge">
<title>unsafe_defs&#45;&gt;core</title>
<path fill="none" stroke="black" d="M967.52,-80.88C959.61,-69.08 948.18,-52.05 939.03,-38.4"/>
<polygon fill="black" stroke="black" points="941.87,-36.36 933.39,-30 936.06,-40.26 941.87,-36.36"/>
<text text-anchor="middle" x="990.5" y="-51.8" font-family="Times,serif" font-size="14.00">«include»</text>
</g>
<!-- util&#45;&gt;3d&#45;engine -->
<g id="edge20" class="edge">
<title>util&#45;&gt;3d&#45;engine</title>
<path fill="none" stroke="black" d="M378.1,-338.93C390.36,-328.28 408.59,-314.13 427,-306 458.12,-292.25 495.29,-284.35 525.86,-279.84"/>
<polygon fill="black" stroke="black" points="526.54,-283.28 535.96,-278.44 525.57,-276.35 526.54,-283.28"/>
<text text-anchor="middle" x="461.5" y="-309.8" font-family="Times,serif" font-size="14.00">«include»</text>
</g>
</g>
</svg>
