<?xml version="1.0" encoding="UTF-8" standalone="no"?>
<!DOCTYPE svg PUBLIC "-//W3C//DTD SVG 1.1//EN"
 "http://www.w3.org/Graphics/SVG/1.1/DTD/svg11.dtd">
<!-- Generated by graphviz version 5.0.0 (0)
 -->
<!-- Title: foundation Pages: 1 -->
<svg width="835pt" height="458pt"
 viewBox="0.00 0.00 835.00 458.00" xmlns="http://www.w3.org/2000/svg" xmlns:xlink="http://www.w3.org/1999/xlink">
<g id="graph0" class="graph" transform="scale(1 1) rotate(0) translate(4 454)">
<title>foundation</title>
<polygon fill="white" stroke="transparent" points="-4,4 -4,-454 831,-454 831,4 -4,4"/>
<!-- 2d&#45;engine -->
<g id="node1" class="node">
<title>2d&#45;engine</title>
<polygon fill="white" stroke="black" stroke-width="2" points="317,-207 217,-207 217,-177 317,-177 317,-207"/>
<text text-anchor="middle" x="267" y="-188.3" font-family="Times,serif" font-size="14.00">2d&#45;engine</text>
</g>
<!-- bbox&#45;engine -->
<g id="node4" class="node">
<title>bbox&#45;engine</title>
<polygon fill="white" stroke="black" stroke-width="2" points="190,-111 86,-111 86,-81 190,-81 190,-111"/>
<text text-anchor="middle" x="138" y="-92.3" font-family="Times,serif" font-size="14.00">bbox&#45;engine</text>
</g>
<!-- 2d&#45;engine&#45;&gt;bbox&#45;engine -->
<g id="edge21" class="edge">
<title>2d&#45;engine&#45;&gt;bbox&#45;engine</title>
<path fill="none" stroke="red" stroke-width="2" d="M234.91,-176.89C224.67,-171.83 213.54,-165.7 204,-159 187.16,-147.18 170.3,-131.25 157.83,-118.49"/>
<polygon fill="red" stroke="red" stroke-width="2" points="160.12,-115.82 150.67,-111.03 155.07,-120.67 160.12,-115.82"/>
<text text-anchor="middle" x="225" y="-140.3" font-family="Times,serif" font-size="14.00">«use»</text>
</g>
<!-- mngm&#45;engine -->
<g id="node14" class="node">
<title>mngm&#45;engine</title>
<polygon fill="white" stroke="black" stroke-width="2" points="560,-111 446,-111 446,-81 560,-81 560,-111"/>
<text text-anchor="middle" x="503" y="-92.3" font-family="Times,serif" font-size="14.00">mngm&#45;engine</text>
</g>
<!-- 2d&#45;engine&#45;&gt;mngm&#45;engine -->
<g id="edge20" class="edge">
<title>2d&#45;engine&#45;&gt;mngm&#45;engine</title>
<path fill="none" stroke="red" stroke-width="2" d="M302.33,-176.93C343.9,-160.37 412.98,-132.86 458.25,-114.82"/>
<polygon fill="red" stroke="red" stroke-width="2" points="459.82,-117.97 467.81,-111.02 457.23,-111.46 459.82,-117.97"/>
<text text-anchor="middle" x="440" y="-140.3" font-family="Times,serif" font-size="14.00">«use»</text>
</g>
<!-- unsafe_defs -->
<g id="node18" class="node">
<title>unsafe_defs</title>
<polygon fill="white" stroke="black" stroke-width="2" points="427.5,-111 326.5,-111 326.5,-81 427.5,-81 427.5,-111"/>
<text text-anchor="middle" x="377" y="-92.3" font-family="Times,serif" font-size="14.00">unsafe_defs</text>
</g>
<!-- 2d&#45;engine&#45;&gt;unsafe_defs -->
<g id="edge1" class="edge">
<title>2d&#45;engine&#45;&gt;unsafe_defs</title>
<path fill="none" stroke="black" d="M258.89,-176.97C252.21,-163.35 245.4,-142.77 256,-129 258.08,-126.29 287.33,-118.52 316.54,-111.31"/>
<polygon fill="black" stroke="black" points="317.53,-114.68 326.41,-108.9 315.87,-107.88 317.53,-114.68"/>
<text text-anchor="middle" x="290.5" y="-140.3" font-family="Times,serif" font-size="14.00">«include»</text>
</g>
<!-- 3d&#45;engine -->
<g id="node2" class="node">
<title>3d&#45;engine</title>
<polygon fill="white" stroke="black" stroke-width="2" points="454,-288 354,-288 354,-258 454,-258 454,-288"/>
<text text-anchor="middle" x="404" y="-269.3" font-family="Times,serif" font-size="14.00">3d&#45;engine</text>
</g>
<!-- 3d&#45;engine&#45;&gt;2d&#45;engine -->
<g id="edge22" class="edge">
<title>3d&#45;engine&#45;&gt;2d&#45;engine</title>
<path fill="none" stroke="red" stroke-width="2" d="M379.17,-257.86C369.44,-252.3 358.19,-245.87 348,-240 332.13,-230.86 314.55,-220.67 299.83,-212.12"/>
<polygon fill="red" stroke="red" stroke-width="2" points="301.48,-209.03 291.08,-207.03 297.96,-215.08 301.48,-209.03"/>
<text text-anchor="middle" x="369" y="-228.8" font-family="Times,serif" font-size="14.00">«use»</text>
</g>
<!-- 3d&#45;engine&#45;&gt;bbox&#45;engine -->
<g id="edge23" class="edge">
<title>3d&#45;engine&#45;&gt;bbox&#45;engine</title>
<path fill="none" stroke="red" stroke-width="2" d="M353.94,-272.31C300.09,-269.84 215.54,-257.41 166,-207 159.95,-200.84 149.05,-151.52 142.79,-121.05"/>
<polygon fill="red" stroke="red" stroke-width="2" points="146.2,-120.26 140.78,-111.16 139.34,-121.66 146.2,-120.26"/>
<text text-anchor="middle" x="187" y="-188.3" font-family="Times,serif" font-size="14.00">«use»</text>
</g>
<!-- 3d&#45;engine&#45;&gt;mngm&#45;engine -->
<g id="edge24" class="edge">
<title>3d&#45;engine&#45;&gt;mngm&#45;engine</title>
<path fill="none" stroke="red" stroke-width="2" d="M424.77,-257.81C440.53,-245.99 461.55,-227.77 474,-207 490.04,-180.24 497.33,-144.62 500.56,-121.26"/>
<polygon fill="red" stroke="red" stroke-width="2" points="504.05,-121.52 501.8,-111.17 497.1,-120.67 504.05,-121.52"/>
<text text-anchor="middle" x="508" y="-188.3" font-family="Times,serif" font-size="14.00">«use»</text>
</g>
<!-- type_trait -->
<g id="node17" class="node">
<title>type_trait</title>
<polygon fill="white" stroke="black" stroke-width="2" points="643,-159 543,-159 543,-129 643,-129 643,-159"/>
<text text-anchor="middle" x="593" y="-140.3" font-family="Times,serif" font-size="14.00">type_trait</text>
</g>
<!-- 3d&#45;engine&#45;&gt;type_trait -->
<g id="edge3" class="edge">
<title>3d&#45;engine&#45;&gt;type_trait</title>
<path fill="none" stroke="black" d="M454.11,-264.74C476.31,-260 502.07,-252.31 523,-240 551.15,-223.44 571.38,-190.67 582.65,-168.29"/>
<polygon fill="black" stroke="black" points="585.87,-169.66 587.05,-159.13 579.56,-166.63 585.87,-169.66"/>
<text text-anchor="middle" x="575.5" y="-228.8" font-family="Times,serif" font-size="14.00">«include»</text>
</g>
<!-- 3d&#45;engine&#45;&gt;unsafe_defs -->
<g id="edge2" class="edge">
<title>3d&#45;engine&#45;&gt;unsafe_defs</title>
<path fill="none" stroke="black" d="M403.96,-257.97C403.59,-232.09 401.41,-175.26 390,-129 389.3,-126.16 388.4,-123.24 387.39,-120.38"/>
<polygon fill="black" stroke="black" points="390.64,-119.08 383.73,-111.04 384.12,-121.63 390.64,-119.08"/>
<text text-anchor="middle" x="435.5" y="-188.3" font-family="Times,serif" font-size="14.00">«include»</text>
</g>
<!-- algo&#45;engine -->
<g id="node3" class="node">
<title>algo&#45;engine</title>
<polygon fill="white" stroke="black" stroke-width="2" points="100,-369 0,-369 0,-339 100,-339 100,-369"/>
<text text-anchor="middle" x="50" y="-350.3" font-family="Times,serif" font-size="14.00">algo&#45;engine</text>
</g>
<!-- algo&#45;engine&#45;&gt;3d&#45;engine -->
<g id="edge4" class="edge">
<title>algo&#45;engine&#45;&gt;3d&#45;engine</title>
<path fill="none" stroke="black" d="M71.33,-338.86C88.78,-328.02 114.48,-313.66 139,-306 206.94,-284.76 288.75,-277.49 343.33,-275.07"/>
<polygon fill="black" stroke="black" points="343.68,-278.56 353.53,-274.66 343.4,-271.56 343.68,-278.56"/>
<text text-anchor="middle" x="173.5" y="-309.8" font-family="Times,serif" font-size="14.00">«include»</text>
</g>
<!-- core -->
<g id="node7" class="node">
<title>core</title>
<polygon fill="white" stroke="black" stroke-width="2" points="427,-30 327,-30 327,0 427,0 427,-30"/>
<text text-anchor="middle" x="377" y="-11.3" font-family="Times,serif" font-size="14.00">core</text>
</g>
<!-- bbox&#45;engine&#45;&gt;core -->
<g id="edge5" class="edge">
<title>bbox&#45;engine&#45;&gt;core</title>
<path fill="none" stroke="black" d="M156.08,-80.99C170.67,-70.37 192.13,-56.24 213,-48 246.11,-34.92 285.16,-27.03 316.85,-22.35"/>
<polygon fill="black" stroke="black" points="317.45,-25.8 326.86,-20.95 316.47,-18.87 317.45,-25.8"/>
<text text-anchor="middle" x="247.5" y="-51.8" font-family="Times,serif" font-size="14.00">«include»</text>
</g>
<!-- components -->
<g id="node5" class="node">
<title>components</title>
<polygon fill="white" stroke="black" stroke-width="2" points="121,-207 19,-207 19,-177 121,-177 121,-207"/>
<text text-anchor="middle" x="70" y="-188.3" font-family="Times,serif" font-size="14.00">components</text>
</g>
<!-- components&#45;&gt;bbox&#45;engine -->
<g id="edge6" class="edge">
<title>components&#45;&gt;bbox&#45;engine</title>
<path fill="none" stroke="black" d="M67.17,-176.94C65.26,-163.49 64.58,-143.2 74,-129 77.13,-124.28 81.18,-120.22 85.72,-116.74"/>
<polygon fill="black" stroke="black" points="87.89,-119.51 94.33,-111.09 84.05,-113.66 87.89,-119.51"/>
<text text-anchor="middle" x="108.5" y="-140.3" font-family="Times,serif" font-size="14.00">«include»</text>
</g>
<!-- connect -->
<g id="node6" class="node">
<title>connect</title>
<polygon fill="white" stroke="black" stroke-width="2" points="808,-450 708,-450 708,-420 808,-420 808,-450"/>
<text text-anchor="middle" x="758" y="-431.3" font-family="Times,serif" font-size="14.00">connect</text>
</g>
<!-- util -->
<g id="node19" class="node">
<title>util</title>
<polygon fill="white" stroke="black" stroke-width="2" points="808,-369 708,-369 708,-339 808,-339 808,-369"/>
<text text-anchor="middle" x="758" y="-350.3" font-family="Times,serif" font-size="14.00">util</text>
</g>
<!-- connect&#45;&gt;util -->
<g id="edge7" class="edge">
<title>connect&#45;&gt;util</title>
<path fill="none" stroke="black" d="M758,-419.88C758,-408.64 758,-392.66 758,-379.37"/>
<polygon fill="black" stroke="black" points="761.5,-379 758,-369 754.5,-379 761.5,-379"/>
<text text-anchor="middle" x="792.5" y="-390.8" font-family="Times,serif" font-size="14.00">«include»</text>
</g>
<!-- drawio -->
<g id="node8" class="node">
<title>drawio</title>
<polygon fill="white" stroke="black" stroke-width="2" points="123,-288 23,-288 23,-258 123,-258 123,-288"/>
<text text-anchor="middle" x="73" y="-269.3" font-family="Times,serif" font-size="14.00">drawio</text>
</g>
<!-- drawio&#45;&gt;2d&#45;engine -->
<g id="edge8" class="edge">
<title>drawio&#45;&gt;2d&#45;engine</title>
<path fill="none" stroke="black" d="M107.68,-257.88C139.96,-244.73 188.2,-225.09 223.14,-210.86"/>
<polygon fill="black" stroke="black" points="224.68,-214.01 232.62,-207 222.04,-207.53 224.68,-214.01"/>
<text text-anchor="middle" x="221.5" y="-228.8" font-family="Times,serif" font-size="14.00">«include»</text>
</g>
<!-- fillet -->
<g id="node9" class="node">
<title>fillet</title>
<polygon fill="white" stroke="black" stroke-width="2" points="218,-369 118,-369 118,-339 218,-339 218,-369"/>
<text text-anchor="middle" x="168" y="-350.3" font-family="Times,serif" font-size="14.00">fillet</text>
</g>
<!-- fillet&#45;&gt;3d&#45;engine -->
<g id="edge9" class="edge">
<title>fillet&#45;&gt;3d&#45;engine</title>
<path fill="none" stroke="black" d="M185.27,-338.96C199.23,-328.33 219.81,-314.2 240,-306 272.99,-292.61 312.03,-284.71 343.75,-280.1"/>
<polygon fill="black" stroke="black" points="344.35,-283.56 353.78,-278.72 343.39,-276.62 344.35,-283.56"/>
<text text-anchor="middle" x="274.5" y="-309.8" font-family="Times,serif" font-size="14.00">«include»</text>
</g>
<!-- grid -->
<g id="node10" class="node">
<title>grid</title>
<polygon fill="white" stroke="black" stroke-width="2" points="336,-369 236,-369 236,-339 336,-339 336,-369"/>
<text text-anchor="middle" x="286" y="-350.3" font-family="Times,serif" font-size="14.00">grid</text>
</g>
<!-- grid&#45;&gt;3d&#45;engine -->
<g id="edge10" class="edge">
<title>grid&#45;&gt;3d&#45;engine</title>
<path fill="none" stroke="black" d="M297,-338.81C305.45,-328.65 317.85,-315.19 331,-306 338.33,-300.87 346.62,-296.29 354.91,-292.31"/>
<polygon fill="black" stroke="black" points="356.57,-295.4 364.22,-288.08 353.67,-289.03 356.57,-295.4"/>
<text text-anchor="middle" x="365.5" y="-309.8" font-family="Times,serif" font-size="14.00">«include»</text>
</g>
<!-- hole -->
<g id="node11" class="node">
<title>hole</title>
<polygon fill="white" stroke="black" stroke-width="2" points="454,-450 354,-450 354,-420 454,-420 454,-450"/>
<text text-anchor="middle" x="404" y="-431.3" font-family="Times,serif" font-size="14.00">hole</text>
</g>
<!-- label -->
<g id="node12" class="node">
<title>label</title>
<polygon fill="white" stroke="black" stroke-width="2" points="454,-369 354,-369 354,-339 454,-339 454,-369"/>
<text text-anchor="middle" x="404" y="-350.3" font-family="Times,serif" font-size="14.00">label</text>
</g>
<!-- hole&#45;&gt;label -->
<g id="edge11" class="edge">
<title>hole&#45;&gt;label</title>
<path fill="none" stroke="black" d="M404,-419.88C404,-408.64 404,-392.66 404,-379.37"/>
<polygon fill="black" stroke="black" points="407.5,-379 404,-369 400.5,-379 407.5,-379"/>
<text text-anchor="middle" x="438.5" y="-390.8" font-family="Times,serif" font-size="14.00">«include»</text>
</g>
<!-- label&#45;&gt;3d&#45;engine -->
<g id="edge12" class="edge">
<title>label&#45;&gt;3d&#45;engine</title>
<path fill="none" stroke="black" d="M404,-338.88C404,-327.64 404,-311.66 404,-298.37"/>
<polygon fill="black" stroke="black" points="407.5,-298 404,-288 400.5,-298 407.5,-298"/>
<text text-anchor="middle" x="438.5" y="-309.8" font-family="Times,serif" font-size="14.00">«include»</text>
</g>
<!-- limits -->
<g id="node13" class="node">
<title>limits</title>
<polygon fill="white" stroke="black" stroke-width="2" points="308,-111 208,-111 208,-81 308,-81 308,-111"/>
<text text-anchor="middle" x="258" y="-92.3" font-family="Times,serif" font-size="14.00">limits</text>
</g>
<!-- limits&#45;&gt;core -->
<g id="edge13" class="edge">
<title>limits&#45;&gt;core</title>
<path fill="none" stroke="black" d="M269.31,-80.82C277.97,-70.67 290.66,-57.22 304,-48 311.36,-42.91 319.66,-38.35 327.96,-34.38"/>
<polygon fill="black" stroke="black" points="329.61,-37.47 337.27,-30.15 326.72,-31.1 329.61,-37.47"/>
<text text-anchor="middle" x="338.5" y="-51.8" font-family="Times,serif" font-size="14.00">«include»</text>
</g>
<!-- mngm&#45;engine&#45;&gt;core -->
<g id="edge14" class="edge">
<title>mngm&#45;engine&#45;&gt;core</title>
<path fill="none" stroke="black" d="M489.58,-80.94C479.41,-70.84 464.71,-57.41 450,-48 442.13,-42.96 433.32,-38.35 424.63,-34.3"/>
<polygon fill="black" stroke="black" points="425.85,-31.01 415.29,-30.12 422.99,-37.4 425.85,-31.01"/>
<text text-anchor="middle" x="502.5" y="-51.8" font-family="Times,serif" font-size="14.00">«include»</text>
</g>
<!-- profile -->
<g id="node15" class="node">
<title>profile</title>
<polygon fill="white" stroke="black" stroke-width="2" points="572,-369 472,-369 472,-339 572,-339 572,-369"/>
<text text-anchor="middle" x="522" y="-350.3" font-family="Times,serif" font-size="14.00">profile</text>
</g>
<!-- profile&#45;&gt;3d&#45;engine -->
<g id="edge15" class="edge">
<title>profile&#45;&gt;3d&#45;engine</title>
<path fill="none" stroke="black" d="M511,-338.81C502.55,-328.65 490.15,-315.19 477,-306 469.67,-300.87 461.38,-296.29 453.09,-292.31"/>
<polygon fill="black" stroke="black" points="454.33,-289.03 443.78,-288.08 451.43,-295.4 454.33,-289.03"/>
<text text-anchor="middle" x="528.5" y="-309.8" font-family="Times,serif" font-size="14.00">«include»</text>
</g>
<!-- template -->
<g id="node16" class="node">
<title>template</title>
<polygon fill="white" stroke="black" stroke-width="2" points="690,-369 590,-369 590,-339 690,-339 690,-369"/>
<text text-anchor="middle" x="640" y="-350.3" font-family="Times,serif" font-size="14.00">template</text>
</g>
<!-- template&#45;&gt;3d&#45;engine -->
<g id="edge16" class="edge">
<title>template&#45;&gt;3d&#45;engine</title>
<path fill="none" stroke="black" d="M622.46,-338.98C608.29,-328.35 587.41,-314.22 567,-306 534.29,-292.82 495.65,-284.94 464.2,-280.29"/>
<polygon fill="black" stroke="black" points="464.64,-276.82 454.25,-278.89 463.67,-283.75 464.64,-276.82"/>
<text text-anchor="middle" x="628.5" y="-309.8" font-family="Times,serif" font-size="14.00">«include»</text>
</g>
<!-- type_trait&#45;&gt;core -->
<g id="edge17" class="edge">
<title>type_trait&#45;&gt;core</title>
<path fill="none" stroke="black" d="M590.06,-128.83C584.65,-106.91 570.85,-65.49 541,-48 509.72,-29.67 469.89,-21.61 437.32,-18.17"/>
<polygon fill="black" stroke="black" points="437.31,-14.65 427.02,-17.2 436.65,-21.62 437.31,-14.65"/>
<text text-anchor="middle" x="618.5" y="-92.3" font-family="Times,serif" font-size="14.00">«include»</text>
</g>
<!-- unsafe_defs&#45;&gt;core -->
<g id="edge18" class="edge">
<title>unsafe_defs&#45;&gt;core</title>
<path fill="none" stroke="black" d="M377,-80.88C377,-69.64 377,-53.66 377,-40.37"/>
<polygon fill="black" stroke="black" points="380.5,-40 377,-30 373.5,-40 380.5,-40"/>
<text text-anchor="middle" x="411.5" y="-51.8" font-family="Times,serif" font-size="14.00">«include»</text>
</g>
<!-- util&#45;&gt;3d&#45;engine -->
<g id="edge19" class="edge">
<title>util&#45;&gt;3d&#45;engine</title>
<path fill="none" stroke="black" d="M736.14,-338.88C718.28,-328.05 691.98,-313.7 667,-306 599.48,-285.19 518.31,-277.84 464.17,-275.28"/>
<polygon fill="black" stroke="black" points="464.19,-271.78 454.05,-274.84 463.89,-278.77 464.19,-271.78"/>
<text text-anchor="middle" x="737.5" y="-309.8" font-family="Times,serif" font-size="14.00">«include»</text>
</g>
</g>
</svg>
