<?xml version="1.0" encoding="UTF-8" standalone="no"?>
<!DOCTYPE svg PUBLIC "-//W3C//DTD SVG 1.1//EN"
 "http://www.w3.org/Graphics/SVG/1.1/DTD/svg11.dtd">
<!-- Generated by graphviz version 8.1.0 (20230707.0739)
 -->
<!-- Title: foundation Pages: 1 -->
<svg width="834pt" height="467pt"
 viewBox="0.00 0.00 834.25 467.00" xmlns="http://www.w3.org/2000/svg" xmlns:xlink="http://www.w3.org/1999/xlink">
<g id="graph0" class="graph" transform="scale(1 1) rotate(0) translate(4 463)">
<title>foundation</title>
<polygon fill="white" stroke="none" points="-4,4 -4,-463 830.25,-463 830.25,4 -4,4"/>
<!-- 2d&#45;engine -->
<g id="node1" class="node">
<title>2d&#45;engine</title>
<polygon fill="white" stroke="black" stroke-width="2" points="319,-209.25 219,-209.25 219,-179.25 319,-179.25 319,-209.25"/>
<text text-anchor="middle" x="269" y="-189.58" font-family="Times,serif" font-size="14.00">2d&#45;engine</text>
</g>
<!-- bbox&#45;engine -->
<g id="node4" class="node">
<title>bbox&#45;engine</title>
<polygon fill="white" stroke="black" stroke-width="2" points="191.13,-113.25 88.88,-113.25 88.88,-83.25 191.13,-83.25 191.13,-113.25"/>
<text text-anchor="middle" x="140" y="-93.58" font-family="Times,serif" font-size="14.00">bbox&#45;engine</text>
</g>
<!-- 2d&#45;engine&#45;&gt;bbox&#45;engine -->
<g id="edge21" class="edge">
<title>2d&#45;engine&#45;&gt;bbox&#45;engine</title>
<path fill="none" stroke="red" stroke-width="2" d="M235.72,-178.26C226.06,-173.35 215.7,-167.53 206.75,-161.25 197.85,-155.01 179.26,-137.59 163.95,-122.8"/>
<polygon fill="red" stroke="red" stroke-width="2" points="166.57,-120.52 156.96,-116.06 161.69,-125.54 166.57,-120.52"/>
<text text-anchor="middle" x="226.63" y="-141.58" font-family="Times,serif" font-size="14.00">«use»</text>
</g>
<!-- mngm&#45;engine -->
<g id="node14" class="node">
<title>mngm&#45;engine</title>
<polygon fill="white" stroke="black" stroke-width="2" points="558.75,-113.25 445.25,-113.25 445.25,-83.25 558.75,-83.25 558.75,-113.25"/>
<text text-anchor="middle" x="502" y="-93.58" font-family="Times,serif" font-size="14.00">mngm&#45;engine</text>
</g>
<!-- 2d&#45;engine&#45;&gt;mngm&#45;engine -->
<g id="edge20" class="edge">
<title>2d&#45;engine&#45;&gt;mngm&#45;engine</title>
<path fill="none" stroke="red" stroke-width="2" d="M306.18,-178.25C345.99,-162.19 409.34,-136.63 453.15,-118.96"/>
<polygon fill="red" stroke="red" stroke-width="2" points="454.99,-122.18 462.96,-115.2 452.37,-115.69 454.99,-122.18"/>
<text text-anchor="middle" x="439.63" y="-141.58" font-family="Times,serif" font-size="14.00">«use»</text>
</g>
<!-- unsafe_defs -->
<g id="node18" class="node">
<title>unsafe_defs</title>
<polygon fill="white" stroke="black" stroke-width="2" points="427,-113.25 327,-113.25 327,-83.25 427,-83.25 427,-113.25"/>
<text text-anchor="middle" x="377" y="-93.58" font-family="Times,serif" font-size="14.00">unsafe_defs</text>
</g>
<!-- 2d&#45;engine&#45;&gt;unsafe_defs -->
<g id="edge1" class="edge">
<title>2d&#45;engine&#45;&gt;unsafe_defs</title>
<path fill="none" stroke="black" d="M260.44,-178.46C253.81,-164.85 247.36,-144.79 257.75,-131.25 259.76,-128.63 287.52,-121.1 315.75,-114.01"/>
<polygon fill="black" stroke="black" points="316.27,-117.24 325.12,-111.42 314.57,-110.45 316.27,-117.24"/>
<text text-anchor="middle" x="291.13" y="-141.58" font-family="Times,serif" font-size="14.00">«include»</text>
</g>
<!-- 3d&#45;engine -->
<g id="node2" class="node">
<title>3d&#45;engine</title>
<polygon fill="white" stroke="black" stroke-width="2" points="454,-292.5 354,-292.5 354,-262.5 454,-262.5 454,-292.5"/>
<text text-anchor="middle" x="404" y="-272.83" font-family="Times,serif" font-size="14.00">3d&#45;engine</text>
</g>
<!-- 3d&#45;engine&#45;&gt;2d&#45;engine -->
<g id="edge22" class="edge">
<title>3d&#45;engine&#45;&gt;2d&#45;engine</title>
<path fill="none" stroke="red" stroke-width="2" d="M377.77,-261.51C368.56,-256.2 358.17,-250.13 348.75,-244.5 333.76,-235.54 317.33,-225.43 303.29,-216.72"/>
<polygon fill="red" stroke="red" stroke-width="2" points="304.96,-213.39 294.62,-211.08 301.26,-219.34 304.96,-213.39"/>
<text text-anchor="middle" x="368.63" y="-231.2" font-family="Times,serif" font-size="14.00">«use»</text>
</g>
<!-- 3d&#45;engine&#45;&gt;bbox&#45;engine -->
<g id="edge23" class="edge">
<title>3d&#45;engine&#45;&gt;bbox&#45;engine</title>
<path fill="none" stroke="red" stroke-width="2" d="M353.07,-275.96C299.79,-272.57 217.3,-258.92 168.75,-209.25 162.89,-203.26 152.15,-156.79 145.58,-126.19"/>
<polygon fill="red" stroke="red" stroke-width="2" points="148.47,-124.9 142.97,-115.84 141.62,-126.35 148.47,-124.9"/>
<text text-anchor="middle" x="188.63" y="-189.58" font-family="Times,serif" font-size="14.00">«use»</text>
</g>
<!-- 3d&#45;engine&#45;&gt;mngm&#45;engine -->
<g id="edge24" class="edge">
<title>3d&#45;engine&#45;&gt;mngm&#45;engine</title>
<path fill="none" stroke="red" stroke-width="2" d="M424.46,-261.61C439.98,-249.25 460.7,-230.35 473,-209.25 487.98,-183.56 495.38,-150.03 498.92,-126.77"/>
<polygon fill="red" stroke="red" stroke-width="2" points="502.76,-126.47 500.63,-116.09 495.82,-125.53 502.76,-126.47"/>
<text text-anchor="middle" x="506.63" y="-189.58" font-family="Times,serif" font-size="14.00">«use»</text>
</g>
<!-- type_trait -->
<g id="node17" class="node">
<title>type_trait</title>
<polygon fill="white" stroke="black" stroke-width="2" points="642,-161.25 542,-161.25 542,-131.25 642,-131.25 642,-161.25"/>
<text text-anchor="middle" x="592" y="-141.58" font-family="Times,serif" font-size="14.00">type_trait</text>
</g>
<!-- 3d&#45;engine&#45;&gt;type_trait -->
<g id="edge3" class="edge">
<title>3d&#45;engine&#45;&gt;type_trait</title>
<path fill="none" stroke="black" d="M454.85,-269.45C476.71,-264.77 501.82,-257.07 522,-244.5 549.74,-227.22 569.8,-194.52 581.15,-171.83"/>
<polygon fill="black" stroke="black" points="584.74,-173.44 585.89,-162.91 578.42,-170.43 584.74,-173.44"/>
<text text-anchor="middle" x="575.13" y="-231.2" font-family="Times,serif" font-size="14.00">«include»</text>
</g>
<!-- 3d&#45;engine&#45;&gt;unsafe_defs -->
<g id="edge2" class="edge">
<title>3d&#45;engine&#45;&gt;unsafe_defs</title>
<path fill="none" stroke="black" d="M403.98,-261.84C403.64,-235.36 401.49,-177.99 390,-131.25 389.42,-128.88 388.69,-126.46 387.89,-124.06"/>
<polygon fill="black" stroke="black" points="390.85,-123.02 384,-114.93 384.31,-125.52 390.85,-123.02"/>
<text text-anchor="middle" x="435.13" y="-189.58" font-family="Times,serif" font-size="14.00">«include»</text>
</g>
<!-- algo&#45;engine -->
<g id="node3" class="node">
<title>algo&#45;engine</title>
<polygon fill="white" stroke="black" stroke-width="2" points="100,-375.75 0,-375.75 0,-345.75 100,-345.75 100,-375.75"/>
<text text-anchor="middle" x="50" y="-356.08" font-family="Times,serif" font-size="14.00">algo&#45;engine</text>
</g>
<!-- algo&#45;engine&#45;&gt;3d&#45;engine -->
<g id="edge4" class="edge">
<title>algo&#45;engine&#45;&gt;3d&#45;engine</title>
<path fill="none" stroke="black" d="M70.37,-344.89C87.08,-333.5 111.79,-318.44 135.75,-310.5 204.1,-287.85 286.94,-280.86 342.31,-278.89"/>
<polygon fill="black" stroke="black" points="342.12,-282.37 352,-278.56 341.9,-275.37 342.12,-282.37"/>
<text text-anchor="middle" x="169.13" y="-314.45" font-family="Times,serif" font-size="14.00">«include»</text>
</g>
<!-- core -->
<g id="node7" class="node">
<title>core</title>
<polygon fill="white" stroke="black" stroke-width="2" points="427,-30 327,-30 327,0 427,0 427,-30"/>
<text text-anchor="middle" x="377" y="-10.33" font-family="Times,serif" font-size="14.00">core</text>
</g>
<!-- bbox&#45;engine&#45;&gt;core -->
<g id="edge5" class="edge">
<title>bbox&#45;engine&#45;&gt;core</title>
<path fill="none" stroke="black" d="M157.65,-82.29C171.7,-71.16 192.33,-56.49 212.75,-48 245.27,-34.49 283.81,-26.6 315.39,-22.04"/>
<polygon fill="black" stroke="black" points="315.81,-25.37 325.25,-20.56 314.87,-18.44 315.81,-25.37"/>
<text text-anchor="middle" x="246.13" y="-51.95" font-family="Times,serif" font-size="14.00">«include»</text>
</g>
<!-- components -->
<g id="node5" class="node">
<title>components</title>
<polygon fill="white" stroke="black" stroke-width="2" points="124.13,-209.25 21.88,-209.25 21.88,-179.25 124.13,-179.25 124.13,-209.25"/>
<text text-anchor="middle" x="73" y="-189.58" font-family="Times,serif" font-size="14.00">components</text>
</g>
<!-- components&#45;&gt;bbox&#45;engine -->
<g id="edge6" class="edge">
<title>components&#45;&gt;bbox&#45;engine</title>
<path fill="none" stroke="black" d="M70.31,-178.42C68.7,-164.98 68.49,-145.19 77.75,-131.25 80.47,-127.15 83.89,-123.55 87.71,-120.39"/>
<polygon fill="black" stroke="black" points="89.43,-122.76 95.62,-114.16 85.42,-117.02 89.43,-122.76"/>
<text text-anchor="middle" x="111.13" y="-141.58" font-family="Times,serif" font-size="14.00">«include»</text>
</g>
<!-- connect -->
<g id="node6" class="node">
<title>connect</title>
<polygon fill="white" stroke="black" stroke-width="2" points="808,-459 708,-459 708,-429 808,-429 808,-459"/>
<text text-anchor="middle" x="758" y="-439.33" font-family="Times,serif" font-size="14.00">connect</text>
</g>
<!-- util -->
<g id="node19" class="node">
<title>util</title>
<polygon fill="white" stroke="black" stroke-width="2" points="808,-375.75 708,-375.75 708,-345.75 808,-345.75 808,-375.75"/>
<text text-anchor="middle" x="758" y="-356.08" font-family="Times,serif" font-size="14.00">util</text>
</g>
<!-- connect&#45;&gt;util -->
<g id="edge7" class="edge">
<title>connect&#45;&gt;util</title>
<path fill="none" stroke="black" d="M758,-428.1C758,-416.76 758,-400.88 758,-387.5"/>
<polygon fill="black" stroke="black" points="761.5,-387.56 758,-377.56 754.5,-387.56 761.5,-387.56"/>
<text text-anchor="middle" x="792.13" y="-397.7" font-family="Times,serif" font-size="14.00">«include»</text>
</g>
<!-- drawio -->
<g id="node8" class="node">
<title>drawio</title>
<polygon fill="white" stroke="black" stroke-width="2" points="127,-292.5 27,-292.5 27,-262.5 127,-262.5 127,-292.5"/>
<text text-anchor="middle" x="77" y="-272.83" font-family="Times,serif" font-size="14.00">drawio</text>
</g>
<!-- drawio&#45;&gt;2d&#45;engine -->
<g id="edge8" class="edge">
<title>drawio&#45;&gt;2d&#45;engine</title>
<path fill="none" stroke="black" d="M112.22,-261.6C143.65,-248.3 189.85,-228.75 223.96,-214.31"/>
<polygon fill="black" stroke="black" points="224.84,-217.32 232.68,-210.2 222.11,-210.87 224.84,-217.32"/>
<text text-anchor="middle" x="224.13" y="-231.2" font-family="Times,serif" font-size="14.00">«include»</text>
</g>
<!-- fillet -->
<g id="node9" class="node">
<title>fillet</title>
<polygon fill="white" stroke="black" stroke-width="2" points="218,-375.75 118,-375.75 118,-345.75 218,-345.75 218,-375.75"/>
<text text-anchor="middle" x="168" y="-356.08" font-family="Times,serif" font-size="14.00">fillet</text>
</g>
<!-- fillet&#45;&gt;3d&#45;engine -->
<g id="edge9" class="edge">
<title>fillet&#45;&gt;3d&#45;engine</title>
<path fill="none" stroke="black" d="M185.37,-344.78C199.21,-333.65 219.55,-318.97 239.75,-310.5 272.22,-296.89 310.77,-288.99 342.35,-284.45"/>
<polygon fill="black" stroke="black" points="342.78,-287.79 352.22,-282.98 341.84,-280.85 342.78,-287.79"/>
<text text-anchor="middle" x="273.13" y="-314.45" font-family="Times,serif" font-size="14.00">«include»</text>
</g>
<!-- grid -->
<g id="node10" class="node">
<title>grid</title>
<polygon fill="white" stroke="black" stroke-width="2" points="336,-375.75 236,-375.75 236,-345.75 336,-345.75 336,-375.75"/>
<text text-anchor="middle" x="286" y="-356.08" font-family="Times,serif" font-size="14.00">grid</text>
</g>
<!-- grid&#45;&gt;3d&#45;engine -->
<g id="edge10" class="edge">
<title>grid&#45;&gt;3d&#45;engine</title>
<path fill="none" stroke="black" d="M297.11,-344.87C305.66,-334.22 318.26,-320.12 331.75,-310.5 338.35,-305.79 345.74,-301.56 353.22,-297.82"/>
<polygon fill="black" stroke="black" points="354.13,-300.79 361.69,-293.36 351.15,-294.46 354.13,-300.79"/>
<text text-anchor="middle" x="365.13" y="-314.45" font-family="Times,serif" font-size="14.00">«include»</text>
</g>
<!-- hole -->
<g id="node11" class="node">
<title>hole</title>
<polygon fill="white" stroke="black" stroke-width="2" points="454,-459 354,-459 354,-429 454,-429 454,-459"/>
<text text-anchor="middle" x="404" y="-439.33" font-family="Times,serif" font-size="14.00">hole</text>
</g>
<!-- label -->
<g id="node12" class="node">
<title>label</title>
<polygon fill="white" stroke="black" stroke-width="2" points="454,-375.75 354,-375.75 354,-345.75 454,-345.75 454,-375.75"/>
<text text-anchor="middle" x="404" y="-356.08" font-family="Times,serif" font-size="14.00">label</text>
</g>
<!-- hole&#45;&gt;label -->
<g id="edge11" class="edge">
<title>hole&#45;&gt;label</title>
<path fill="none" stroke="black" d="M404,-428.1C404,-416.76 404,-400.88 404,-387.5"/>
<polygon fill="black" stroke="black" points="407.5,-387.56 404,-377.56 400.5,-387.56 407.5,-387.56"/>
<text text-anchor="middle" x="438.13" y="-397.7" font-family="Times,serif" font-size="14.00">«include»</text>
</g>
<!-- label&#45;&gt;3d&#45;engine -->
<g id="edge12" class="edge">
<title>label&#45;&gt;3d&#45;engine</title>
<path fill="none" stroke="black" d="M404,-344.85C404,-333.51 404,-317.63 404,-304.25"/>
<polygon fill="black" stroke="black" points="407.5,-304.31 404,-294.31 400.5,-304.31 407.5,-304.31"/>
<text text-anchor="middle" x="438.13" y="-314.45" font-family="Times,serif" font-size="14.00">«include»</text>
</g>
<!-- limits -->
<g id="node13" class="node">
<title>limits</title>
<polygon fill="white" stroke="black" stroke-width="2" points="309,-113.25 209,-113.25 209,-83.25 309,-83.25 309,-113.25"/>
<text text-anchor="middle" x="259" y="-93.58" font-family="Times,serif" font-size="14.00">limits</text>
</g>
<!-- limits&#45;&gt;core -->
<g id="edge13" class="edge">
<title>limits&#45;&gt;core</title>
<path fill="none" stroke="black" d="M270.11,-82.37C278.66,-71.72 291.26,-57.62 304.75,-48 311.35,-43.29 318.74,-39.06 326.22,-35.32"/>
<polygon fill="black" stroke="black" points="327.13,-38.29 334.69,-30.86 324.15,-31.96 327.13,-38.29"/>
<text text-anchor="middle" x="338.13" y="-51.95" font-family="Times,serif" font-size="14.00">«include»</text>
</g>
<!-- mngm&#45;engine&#45;&gt;core -->
<g id="edge14" class="edge">
<title>mngm&#45;engine&#45;&gt;core</title>
<path fill="none" stroke="black" d="M488.69,-82.49C478.56,-71.91 463.89,-57.83 449,-48 442.02,-43.39 434.26,-39.16 426.5,-35.38"/>
<polygon fill="black" stroke="black" points="428.27,-31.88 417.72,-30.85 425.32,-38.23 428.27,-31.88"/>
<text text-anchor="middle" x="504.13" y="-51.95" font-family="Times,serif" font-size="14.00">«include»</text>
</g>
<!-- profile -->
<g id="node15" class="node">
<title>profile</title>
<polygon fill="white" stroke="black" stroke-width="2" points="572,-375.75 472,-375.75 472,-345.75 572,-345.75 572,-375.75"/>
<text text-anchor="middle" x="522" y="-356.08" font-family="Times,serif" font-size="14.00">profile</text>
</g>
<!-- profile&#45;&gt;3d&#45;engine -->
<g id="edge15" class="edge">
<title>profile&#45;&gt;3d&#45;engine</title>
<path fill="none" stroke="black" d="M510.81,-344.88C502.21,-334.24 489.53,-320.14 476,-310.5 469.57,-305.92 462.37,-301.77 455.08,-298.1"/>
<polygon fill="black" stroke="black" points="456.69,-294.52 446.16,-293.4 453.69,-300.84 456.69,-294.52"/>
<text text-anchor="middle" x="529.13" y="-314.45" font-family="Times,serif" font-size="14.00">«include»</text>
</g>
<!-- template -->
<g id="node16" class="node">
<title>template</title>
<polygon fill="white" stroke="black" stroke-width="2" points="690,-375.75 590,-375.75 590,-345.75 690,-345.75 690,-375.75"/>
<text text-anchor="middle" x="640" y="-356.08" font-family="Times,serif" font-size="14.00">template</text>
</g>
<!-- template&#45;&gt;3d&#45;engine -->
<g id="edge16" class="edge">
<title>template&#45;&gt;3d&#45;engine</title>
<path fill="none" stroke="black" d="M622.28,-344.8C608.17,-333.67 587.47,-319 567,-310.5 534.84,-297.14 496.75,-289.26 465.48,-284.67"/>
<polygon fill="black" stroke="black" points="466.11,-281.09 455.72,-283.18 465.15,-288.02 466.11,-281.09"/>
<text text-anchor="middle" x="630.13" y="-314.45" font-family="Times,serif" font-size="14.00">«include»</text>
</g>
<!-- type_trait&#45;&gt;core -->
<g id="edge17" class="edge">
<title>type_trait&#45;&gt;core</title>
<path fill="none" stroke="black" d="M589.29,-130.56C584.3,-108.28 571.37,-66.55 542,-48 511.3,-28.61 471.46,-20.51 438.62,-17.3"/>
<polygon fill="black" stroke="black" points="439.04,-13.74 428.78,-16.39 438.45,-20.72 439.04,-13.74"/>
<text text-anchor="middle" x="618.13" y="-93.58" font-family="Times,serif" font-size="14.00">«include»</text>
</g>
<!-- unsafe_defs&#45;&gt;core -->
<g id="edge18" class="edge">
<title>unsafe_defs&#45;&gt;core</title>
<path fill="none" stroke="black" d="M377,-82.35C377,-71.01 377,-55.13 377,-41.75"/>
<polygon fill="black" stroke="black" points="380.5,-41.81 377,-31.81 373.5,-41.81 380.5,-41.81"/>
<text text-anchor="middle" x="411.13" y="-51.95" font-family="Times,serif" font-size="14.00">«include»</text>
</g>
<!-- util&#45;&gt;3d&#45;engine -->
<g id="edge19" class="edge">
<title>util&#45;&gt;3d&#45;engine</title>
<path fill="none" stroke="black" d="M736.5,-344.92C718.9,-333.56 692.93,-318.5 668,-310.5 600.97,-288.98 520.12,-281.74 465.7,-279.41"/>
<polygon fill="black" stroke="black" points="465.97,-275.88 455.84,-278.99 465.7,-282.87 465.97,-275.88"/>
<text text-anchor="middle" x="740.13" y="-314.45" font-family="Times,serif" font-size="14.00">«include»</text>
</g>
</g>
</svg>
