<?xml version="1.0" encoding="UTF-8" standalone="no"?>
<!DOCTYPE svg PUBLIC "-//W3C//DTD SVG 1.1//EN"
 "http://www.w3.org/Graphics/SVG/1.1/DTD/svg11.dtd">
<!-- Generated by graphviz version 5.0.0 (0)
 -->
<!-- Title: foundation Pages: 1 -->
<svg width="1927pt" height="443pt"
 viewBox="0.00 0.00 1927.00 443.00" xmlns="http://www.w3.org/2000/svg" xmlns:xlink="http://www.w3.org/1999/xlink">
<g id="graph0" class="graph" transform="scale(1 1) rotate(0) translate(4 439)">
<title>foundation</title>
<polygon fill="white" stroke="transparent" points="-4,4 -4,-439 1923,-439 1923,4 -4,4"/>
<!-- 2d&#45;engine -->
<g id="node1" class="node">
<title>2d&#45;engine</title>
<polygon fill="white" stroke="black" stroke-width="2" points="720,-192 620,-192 620,-162 720,-162 720,-192"/>
<text text-anchor="middle" x="670" y="-173.3" font-family="Times,serif" font-size="14.00">2d&#45;engine</text>
</g>
<!-- bbox&#45;engine -->
<g id="node4" class="node">
<title>bbox&#45;engine</title>
<polygon fill="white" stroke="black" stroke-width="2" points="472,-111 368,-111 368,-81 472,-81 472,-111"/>
<text text-anchor="middle" x="420" y="-92.3" font-family="Times,serif" font-size="14.00">bbox&#45;engine</text>
</g>
<!-- 2d&#45;engine&#45;&gt;bbox&#45;engine -->
<g id="edge22" class="edge">
<title>2d&#45;engine&#45;&gt;bbox&#45;engine</title>
<path fill="none" stroke="red" stroke-width="2" d="M625.59,-161.97C583.24,-148.58 519.37,-128.4 474.07,-114.09"/>
<polygon fill="red" stroke="red" stroke-width="2" points="475,-110.71 464.41,-111.03 472.89,-117.39 475,-110.71"/>
<text text-anchor="middle" x="589" y="-132.8" font-family="Times,serif" font-size="14.00">«use»</text>
</g>
<!-- mngm -->
<g id="node14" class="node">
<title>mngm</title>
<polygon fill="white" stroke="black" stroke-width="2" points="770,-111 670,-111 670,-81 770,-81 770,-111"/>
<text text-anchor="middle" x="720" y="-92.3" font-family="Times,serif" font-size="14.00">mngm</text>
</g>
<!-- 2d&#45;engine&#45;&gt;mngm -->
<g id="edge23" class="edge">
<title>2d&#45;engine&#45;&gt;mngm</title>
<path fill="none" stroke="red" stroke-width="2" d="M678.94,-161.88C686.33,-150.19 696.98,-133.37 705.58,-119.79"/>
<polygon fill="red" stroke="red" stroke-width="2" points="708.75,-121.32 711.14,-111 702.83,-117.58 708.75,-121.32"/>
<text text-anchor="middle" x="721" y="-132.8" font-family="Times,serif" font-size="14.00">«use»</text>
</g>
<!-- unsafe_defs -->
<g id="node20" class="node">
<title>unsafe_defs</title>
<polygon fill="white" stroke="black" stroke-width="2" points="1358.5,-111 1257.5,-111 1257.5,-81 1358.5,-81 1358.5,-111"/>
<text text-anchor="middle" x="1308" y="-92.3" font-family="Times,serif" font-size="14.00">unsafe_defs</text>
</g>
<!-- 2d&#45;engine&#45;&gt;unsafe_defs -->
<g id="edge1" class="edge">
<title>2d&#45;engine&#45;&gt;unsafe_defs</title>
<path fill="none" stroke="black" d="M720.21,-164.51C724.86,-163.6 729.51,-162.74 734,-162 831.68,-145.83 1120.14,-115.94 1246.99,-103.11"/>
<polygon fill="black" stroke="black" points="1247.69,-106.55 1257.29,-102.07 1246.99,-99.59 1247.69,-106.55"/>
<text text-anchor="middle" x="1024.5" y="-132.8" font-family="Times,serif" font-size="14.00">«include»</text>
</g>
<!-- 3d&#45;engine -->
<g id="node2" class="node">
<title>3d&#45;engine</title>
<polygon fill="white" stroke="black" stroke-width="2" points="826,-273 726,-273 726,-243 826,-243 826,-273"/>
<text text-anchor="middle" x="776" y="-254.3" font-family="Times,serif" font-size="14.00">3d&#45;engine</text>
</g>
<!-- 3d&#45;engine&#45;&gt;2d&#45;engine -->
<g id="edge26" class="edge">
<title>3d&#45;engine&#45;&gt;2d&#45;engine</title>
<path fill="none" stroke="red" stroke-width="2" d="M730.04,-242.89C719.46,-238.28 708.76,-232.38 700,-225 692.37,-218.56 686.01,-209.68 681.15,-201.37"/>
<polygon fill="red" stroke="red" stroke-width="2" points="684.13,-199.52 676.3,-192.39 677.97,-202.85 684.13,-199.52"/>
<text text-anchor="middle" x="721" y="-213.8" font-family="Times,serif" font-size="14.00">«use»</text>
</g>
<!-- 3d&#45;engine&#45;&gt;bbox&#45;engine -->
<g id="edge24" class="edge">
<title>3d&#45;engine&#45;&gt;bbox&#45;engine</title>
<path fill="none" stroke="red" stroke-width="2" d="M725.99,-245.92C720.27,-244.84 714.52,-243.84 709,-243 625.57,-230.35 601.71,-246.06 520,-225 502.17,-220.4 455.92,-206.03 444,-192 427.21,-172.24 421.91,-142.33 420.36,-121.36"/>
<polygon fill="red" stroke="red" stroke-width="2" points="423.85,-121.13 419.86,-111.32 416.86,-121.48 423.85,-121.13"/>
<text text-anchor="middle" x="465" y="-173.3" font-family="Times,serif" font-size="14.00">«use»</text>
</g>
<!-- 3d&#45;engine&#45;&gt;mngm -->
<g id="edge27" class="edge">
<title>3d&#45;engine&#45;&gt;mngm</title>
<path fill="none" stroke="red" stroke-width="2" d="M773.84,-242.63C769.82,-218.36 759.96,-168.07 742,-129 740.52,-125.78 738.72,-122.53 736.79,-119.4"/>
<polygon fill="red" stroke="red" stroke-width="2" points="739.66,-117.39 731.19,-111.03 733.84,-121.28 739.66,-117.39"/>
<text text-anchor="middle" x="785" y="-173.3" font-family="Times,serif" font-size="14.00">«use»</text>
</g>
<!-- type_trait -->
<g id="node19" class="node">
<title>type_trait</title>
<polygon fill="white" stroke="black" stroke-width="2" points="1099,-192 999,-192 999,-162 1099,-162 1099,-192"/>
<text text-anchor="middle" x="1049" y="-173.3" font-family="Times,serif" font-size="14.00">type_trait</text>
</g>
<!-- 3d&#45;engine&#45;&gt;type_trait -->
<g id="edge25" class="edge">
<title>3d&#45;engine&#45;&gt;type_trait</title>
<path fill="none" stroke="red" stroke-width="2" d="M776.28,-242.87C777.29,-232.19 780.51,-218.03 790,-210 819.12,-185.37 921.95,-179.29 988.95,-178.02"/>
<polygon fill="red" stroke="red" stroke-width="2" points="989.03,-181.52 998.97,-177.86 988.92,-174.52 989.03,-181.52"/>
<text text-anchor="middle" x="811" y="-213.8" font-family="Times,serif" font-size="14.00">«use»</text>
</g>
<!-- 3d&#45;engine&#45;&gt;unsafe_defs -->
<g id="edge2" class="edge">
<title>3d&#45;engine&#45;&gt;unsafe_defs</title>
<path fill="none" stroke="black" d="M800.79,-242.79C824.39,-229.31 856.78,-210.97 860,-210 965.86,-178.26 1004.27,-230.11 1108,-192 1129.19,-184.21 1129.62,-173.59 1149,-162 1178.18,-144.55 1186.61,-142.05 1218,-129 1230.2,-123.93 1243.53,-118.91 1256.1,-114.41"/>
<polygon fill="black" stroke="black" points="1257.27,-117.71 1265.53,-111.08 1254.93,-111.11 1257.27,-117.71"/>
<text text-anchor="middle" x="1183.5" y="-173.3" font-family="Times,serif" font-size="14.00">«include»</text>
</g>
<!-- algo&#45;engine -->
<g id="node3" class="node">
<title>algo&#45;engine</title>
<polygon fill="white" stroke="black" stroke-width="2" points="1666,-354 1566,-354 1566,-324 1666,-324 1666,-354"/>
<text text-anchor="middle" x="1616" y="-335.3" font-family="Times,serif" font-size="14.00">algo&#45;engine</text>
</g>
<!-- algo&#45;engine&#45;&gt;3d&#45;engine -->
<g id="edge28" class="edge">
<title>algo&#45;engine&#45;&gt;3d&#45;engine</title>
<path fill="none" stroke="red" stroke-width="2" d="M1565.95,-328.06C1509.39,-317.21 1414.45,-300.17 1332,-291 1237.48,-280.49 959.91,-267.24 836.43,-261.66"/>
<polygon fill="red" stroke="red" stroke-width="2" points="836.53,-258.16 826.39,-261.21 836.22,-265.16 836.53,-258.16"/>
<text text-anchor="middle" x="1454" y="-294.8" font-family="Times,serif" font-size="14.00">«use»</text>
</g>
<!-- algo&#45;engine&#45;&gt;unsafe_defs -->
<g id="edge3" class="edge">
<title>algo&#45;engine&#45;&gt;unsafe_defs</title>
<path fill="none" stroke="black" d="M1634.95,-323.78C1664.05,-300.15 1713.98,-251.28 1690,-210 1653.51,-147.17 1616.84,-152.23 1548,-129 1489.25,-109.17 1418.52,-101.57 1369.12,-98.69"/>
<polygon fill="black" stroke="black" points="1369.09,-95.18 1358.92,-98.14 1368.72,-102.17 1369.09,-95.18"/>
<text text-anchor="middle" x="1729.5" y="-213.8" font-family="Times,serif" font-size="14.00">«include»</text>
</g>
<!-- core -->
<g id="node7" class="node">
<title>core</title>
<polygon fill="white" stroke="black" stroke-width="2" points="400,-30 300,-30 300,0 400,0 400,-30"/>
<text text-anchor="middle" x="350" y="-11.3" font-family="Times,serif" font-size="14.00">core</text>
</g>
<!-- bbox&#45;engine&#45;&gt;core -->
<g id="edge4" class="edge">
<title>bbox&#45;engine&#45;&gt;core</title>
<path fill="none" stroke="black" d="M407.49,-80.88C396.83,-68.86 381.37,-51.4 369.16,-37.62"/>
<polygon fill="black" stroke="black" points="371.66,-35.16 362.41,-30 366.42,-39.81 371.66,-35.16"/>
<text text-anchor="middle" x="426.5" y="-51.8" font-family="Times,serif" font-size="14.00">«include»</text>
</g>
<!-- components -->
<g id="node5" class="node">
<title>components</title>
<polygon fill="white" stroke="black" stroke-width="2" points="332,-192 230,-192 230,-162 332,-162 332,-192"/>
<text text-anchor="middle" x="281" y="-173.3" font-family="Times,serif" font-size="14.00">components</text>
</g>
<!-- components&#45;&gt;bbox&#45;engine -->
<g id="edge29" class="edge">
<title>components&#45;&gt;bbox&#45;engine</title>
<path fill="none" stroke="red" stroke-width="2" d="M288.05,-161.72C293.92,-151.25 303.2,-137.43 315,-129 322.63,-123.55 339.89,-117.57 358.26,-112.26"/>
<polygon fill="red" stroke="red" stroke-width="2" points="359.24,-115.62 367.93,-109.56 357.35,-108.88 359.24,-115.62"/>
<text text-anchor="middle" x="336" y="-132.8" font-family="Times,serif" font-size="14.00">«use»</text>
</g>
<!-- components&#45;&gt;core -->
<g id="edge5" class="edge">
<title>components&#45;&gt;core</title>
<path fill="none" stroke="black" d="M279.6,-161.77C278.32,-142.54 278.11,-107.62 290,-81 297.62,-63.93 311.56,-48.4 324.09,-36.8"/>
<polygon fill="black" stroke="black" points="326.48,-39.36 331.64,-30.11 321.83,-34.12 326.48,-39.36"/>
<text text-anchor="middle" x="324.5" y="-92.3" font-family="Times,serif" font-size="14.00">«include»</text>
</g>
<!-- connect -->
<g id="node6" class="node">
<title>connect</title>
<polygon fill="white" stroke="black" stroke-width="2" points="665,-435 565,-435 565,-405 665,-405 665,-435"/>
<text text-anchor="middle" x="615" y="-416.3" font-family="Times,serif" font-size="14.00">connect</text>
</g>
<!-- connect&#45;&gt;3d&#45;engine -->
<g id="edge30" class="edge">
<title>connect&#45;&gt;3d&#45;engine</title>
<path fill="none" stroke="red" stroke-width="2" d="M618.89,-404.94C625.32,-384.28 640.08,-345.83 666,-324 685.35,-307.7 697.92,-318.35 720,-306 732.41,-299.06 744.69,-289.19 754.57,-280.28"/>
<polygon fill="red" stroke="red" stroke-width="2" points="757,-282.8 761.93,-273.43 752.23,-277.68 757,-282.8"/>
<text text-anchor="middle" x="687" y="-335.3" font-family="Times,serif" font-size="14.00">«use»</text>
</g>
<!-- util -->
<g id="node21" class="node">
<title>util</title>
<polygon fill="white" stroke="black" stroke-width="2" points="503,-354 403,-354 403,-324 503,-324 503,-354"/>
<text text-anchor="middle" x="453" y="-335.3" font-family="Times,serif" font-size="14.00">util</text>
</g>
<!-- connect&#45;&gt;util -->
<g id="edge6" class="edge">
<title>connect&#45;&gt;util</title>
<path fill="none" stroke="black" d="M586.04,-404.88C559.43,-391.9 519.83,-372.59 490.75,-358.41"/>
<polygon fill="black" stroke="black" points="492.23,-355.24 481.71,-354 489.17,-361.53 492.23,-355.24"/>
<text text-anchor="middle" x="583.5" y="-375.8" font-family="Times,serif" font-size="14.00">«include»</text>
</g>
<!-- drawio -->
<g id="node8" class="node">
<title>drawio</title>
<polygon fill="white" stroke="black" stroke-width="2" points="436,-273 336,-273 336,-243 436,-243 436,-273"/>
<text text-anchor="middle" x="386" y="-254.3" font-family="Times,serif" font-size="14.00">drawio</text>
</g>
<!-- drawio&#45;&gt;2d&#45;engine -->
<g id="edge31" class="edge">
<title>drawio&#45;&gt;2d&#45;engine</title>
<path fill="none" stroke="red" stroke-width="2" d="M401,-242.88C413.42,-232.05 432.03,-217.7 451,-210 454.71,-208.5 546.33,-195.4 609.87,-186.43"/>
<polygon fill="red" stroke="red" stroke-width="2" points="610.4,-189.89 619.81,-185.03 609.42,-182.96 610.4,-189.89"/>
<text text-anchor="middle" x="472" y="-213.8" font-family="Times,serif" font-size="14.00">«use»</text>
</g>
<!-- drawio&#45;&gt;core -->
<g id="edge7" class="edge">
<title>drawio&#45;&gt;core</title>
<path fill="none" stroke="black" d="M335.9,-248.29C313.5,-243.26 287.2,-235.75 265,-225 243,-214.35 234.91,-212.1 221,-192 208.35,-173.73 210.14,-166 207,-144 199.46,-91.19 257.29,-54.37 301.67,-34.19"/>
<polygon fill="black" stroke="black" points="303.15,-37.36 310.9,-30.14 300.34,-30.95 303.15,-37.36"/>
<text text-anchor="middle" x="241.5" y="-132.8" font-family="Times,serif" font-size="14.00">«include»</text>
</g>
<!-- drawio&#45;&gt;mngm -->
<g id="edge32" class="edge">
<title>drawio&#45;&gt;mngm</title>
<path fill="none" stroke="red" stroke-width="2" d="M393.26,-242.58C399.3,-232.03 408.85,-218.19 421,-210 447.28,-192.29 461.3,-205.45 490,-192 533.55,-171.59 534.11,-148.68 578,-129 603.65,-117.5 633.82,-109.95 659.74,-105.09"/>
<polygon fill="red" stroke="red" stroke-width="2" points="660.58,-108.5 669.81,-103.3 659.35,-101.61 660.58,-108.5"/>
<text text-anchor="middle" x="553" y="-173.3" font-family="Times,serif" font-size="14.00">«use»</text>
</g>
<!-- fillet -->
<g id="node9" class="node">
<title>fillet</title>
<polygon fill="white" stroke="black" stroke-width="2" points="1382,-354 1282,-354 1282,-324 1382,-324 1382,-354"/>
<text text-anchor="middle" x="1332" y="-335.3" font-family="Times,serif" font-size="14.00">fillet</text>
</g>
<!-- fillet&#45;&gt;2d&#45;engine -->
<g id="edge33" class="edge">
<title>fillet&#45;&gt;2d&#45;engine</title>
<path fill="none" stroke="red" stroke-width="2" d="M1325.01,-324C1318.99,-313.38 1309.35,-299.26 1297,-291 1269.94,-272.9 1256.06,-285.51 1226,-273 1175.75,-252.09 1173.08,-225.8 1121,-210 1042.22,-186.1 832.82,-201.03 751,-192 744.33,-191.26 737.37,-190.33 730.47,-189.28"/>
<polygon fill="red" stroke="red" stroke-width="2" points="730.84,-185.8 720.42,-187.7 729.75,-192.71 730.84,-185.8"/>
<text text-anchor="middle" x="1247" y="-254.3" font-family="Times,serif" font-size="14.00">«use»</text>
</g>
<!-- fillet&#45;&gt;3d&#45;engine -->
<g id="edge34" class="edge">
<title>fillet&#45;&gt;3d&#45;engine</title>
<path fill="none" stroke="red" stroke-width="2" d="M1281.8,-329.35C1223.51,-319.45 1124.45,-303.05 1039,-291 969.47,-281.2 889.34,-271.71 835.98,-265.64"/>
<polygon fill="red" stroke="red" stroke-width="2" points="836.33,-262.16 826,-264.51 835.55,-269.11 836.33,-262.16"/>
<text text-anchor="middle" x="1156" y="-294.8" font-family="Times,serif" font-size="14.00">«use»</text>
</g>
<!-- fillet&#45;&gt;mngm -->
<g id="edge35" class="edge">
<title>fillet&#45;&gt;mngm</title>
<path fill="none" stroke="red" stroke-width="2" d="M1329.72,-323.64C1327.71,-313.9 1324.12,-301.03 1318,-291 1282.55,-232.88 1254.21,-225.82 1188,-210 1087.84,-186.07 1056.13,-219.87 957,-192 928.68,-184.04 924.67,-174.41 898,-162 863.87,-146.13 855.29,-142.08 820,-129 806.04,-123.83 790.82,-118.7 776.55,-114.11"/>
<polygon fill="red" stroke="red" stroke-width="2" points="777.44,-110.72 766.85,-111.03 775.32,-117.39 777.44,-110.72"/>
<text text-anchor="middle" x="1263" y="-213.8" font-family="Times,serif" font-size="14.00">«use»</text>
</g>
<!-- fillet&#45;&gt;unsafe_defs -->
<g id="edge8" class="edge">
<title>fillet&#45;&gt;unsafe_defs</title>
<path fill="none" stroke="black" d="M1343.23,-323.9C1352.5,-313.23 1366.59,-299.08 1382,-291 1415.82,-273.27 1430.83,-287.85 1466,-273 1505.17,-256.46 1551.16,-250.43 1538,-210 1524.21,-167.65 1516.66,-152.78 1479,-129 1446.23,-108.31 1403.34,-100.32 1368.71,-97.5"/>
<polygon fill="black" stroke="black" points="1368.94,-94.01 1358.72,-96.81 1368.45,-100.99 1368.94,-94.01"/>
<text text-anchor="middle" x="1574.5" y="-213.8" font-family="Times,serif" font-size="14.00">«include»</text>
</g>
<!-- grid -->
<g id="node10" class="node">
<title>grid</title>
<polygon fill="white" stroke="black" stroke-width="2" points="205,-354 105,-354 105,-324 205,-324 205,-354"/>
<text text-anchor="middle" x="155" y="-335.3" font-family="Times,serif" font-size="14.00">grid</text>
</g>
<!-- grid&#45;&gt;2d&#45;engine -->
<g id="edge36" class="edge">
<title>grid&#45;&gt;2d&#45;engine</title>
<path fill="none" stroke="red" stroke-width="2" d="M190.92,-323.9C219.3,-313.31 260.13,-299.26 297,-291 361.66,-276.52 384.14,-299.21 445,-273 485.3,-255.65 481.53,-229.16 521,-210 536.71,-202.38 575.82,-194.11 610.03,-187.89"/>
<polygon fill="red" stroke="red" stroke-width="2" points="610.76,-191.31 619.99,-186.11 609.53,-184.42 610.76,-191.31"/>
<text text-anchor="middle" x="504" y="-254.3" font-family="Times,serif" font-size="14.00">«use»</text>
</g>
<!-- grid&#45;&gt;3d&#45;engine -->
<g id="edge37" class="edge">
<title>grid&#45;&gt;3d&#45;engine</title>
<path fill="none" stroke="red" stroke-width="2" d="M205.28,-325.96C253.22,-314.99 327.61,-299.26 393,-291 533.88,-273.2 571.31,-292.23 712,-273 713.27,-272.83 714.55,-272.64 715.84,-272.45"/>
<polygon fill="red" stroke="red" stroke-width="2" points="716.55,-275.88 725.83,-270.77 715.38,-268.97 716.55,-275.88"/>
<text text-anchor="middle" x="414" y="-294.8" font-family="Times,serif" font-size="14.00">«use»</text>
</g>
<!-- grid&#45;&gt;core -->
<g id="edge9" class="edge">
<title>grid&#45;&gt;core</title>
<path fill="none" stroke="black" d="M104.68,-333.18C59.42,-325.75 0,-306.87 0,-259 0,-259 0,-259 0,-95 0,-36.34 189.43,-21.23 289.57,-17.35"/>
<polygon fill="black" stroke="black" points="289.99,-20.83 299.85,-16.97 289.73,-13.84 289.99,-20.83"/>
<text text-anchor="middle" x="34.5" y="-173.3" font-family="Times,serif" font-size="14.00">«include»</text>
</g>
<!-- hole -->
<g id="node11" class="node">
<title>hole</title>
<polygon fill="white" stroke="black" stroke-width="2" points="1716,-435 1616,-435 1616,-405 1716,-405 1716,-435"/>
<text text-anchor="middle" x="1666" y="-416.3" font-family="Times,serif" font-size="14.00">hole</text>
</g>
<!-- hole&#45;&gt;3d&#45;engine -->
<g id="edge38" class="edge">
<title>hole&#45;&gt;3d&#45;engine</title>
<path fill="none" stroke="red" stroke-width="2" d="M1615.98,-417.99C1449.7,-414.22 922.59,-398.81 862,-354 837.78,-336.09 857.15,-313.39 837,-291 832.7,-286.22 827.51,-282.03 821.99,-278.4"/>
<polygon fill="red" stroke="red" stroke-width="2" points="823.53,-275.24 813.14,-273.15 819.96,-281.26 823.53,-275.24"/>
<text text-anchor="middle" x="883" y="-335.3" font-family="Times,serif" font-size="14.00">«use»</text>
</g>
<!-- label -->
<g id="node12" class="node">
<title>label</title>
<polygon fill="white" stroke="black" stroke-width="2" points="1511,-354 1411,-354 1411,-324 1511,-324 1511,-354"/>
<text text-anchor="middle" x="1461" y="-335.3" font-family="Times,serif" font-size="14.00">label</text>
</g>
<!-- hole&#45;&gt;label -->
<g id="edge39" class="edge">
<title>hole&#45;&gt;label</title>
<path fill="none" stroke="red" stroke-width="2" d="M1629.35,-404.88C1595.1,-391.68 1543.83,-371.92 1506.87,-357.68"/>
<polygon fill="red" stroke="red" stroke-width="2" points="1507.92,-354.33 1497.33,-354 1505.41,-360.86 1507.92,-354.33"/>
<text text-anchor="middle" x="1602" y="-375.8" font-family="Times,serif" font-size="14.00">«use»</text>
</g>
<!-- hole&#45;&gt;type_trait -->
<g id="edge40" class="edge">
<title>hole&#45;&gt;type_trait</title>
<path fill="none" stroke="red" stroke-width="2" d="M1671.8,-404.93C1678.82,-385.59 1688.16,-350.21 1675,-324 1655.98,-286.11 1561.95,-224.21 1522,-210 1437.31,-179.88 1211.65,-203.83 1109.36,-192.53"/>
<polygon fill="red" stroke="red" stroke-width="2" points="1109.63,-189.04 1099.27,-191.24 1108.74,-195.98 1109.63,-189.04"/>
<text text-anchor="middle" x="1682" y="-294.8" font-family="Times,serif" font-size="14.00">«use»</text>
</g>
<!-- hole&#45;&gt;unsafe_defs -->
<g id="edge10" class="edge">
<title>hole&#45;&gt;unsafe_defs</title>
<path fill="none" stroke="black" d="M1716.28,-418.12C1770.76,-414.18 1850,-398.4 1850,-340 1850,-340 1850,-340 1850,-176 1850,-127.82 1510.27,-106.41 1368.75,-99.58"/>
<polygon fill="black" stroke="black" points="1368.66,-96.08 1358.5,-99.1 1368.33,-103.07 1368.66,-96.08"/>
<text text-anchor="middle" x="1884.5" y="-254.3" font-family="Times,serif" font-size="14.00">«include»</text>
</g>
<!-- label&#45;&gt;3d&#45;engine -->
<g id="edge41" class="edge">
<title>label&#45;&gt;3d&#45;engine</title>
<path fill="none" stroke="red" stroke-width="2" d="M1410.96,-327.73C1404.26,-326.43 1397.47,-325.15 1391,-324 1297.99,-307.4 1274.83,-302.06 1181,-291 1058.99,-276.62 915.52,-266.99 836.28,-262.31"/>
<polygon fill="red" stroke="red" stroke-width="2" points="836.19,-258.8 826,-261.71 835.78,-265.79 836.19,-258.8"/>
<text text-anchor="middle" x="1307" y="-294.8" font-family="Times,serif" font-size="14.00">«use»</text>
</g>
<!-- label&#45;&gt;mngm -->
<g id="edge42" class="edge">
<title>label&#45;&gt;mngm</title>
<path fill="none" stroke="red" stroke-width="2" d="M1457.26,-323.89C1454.38,-314.26 1449.9,-301.42 1444,-291 1432.56,-270.8 1398.74,-220.45 1378,-210 1300.92,-171.16 1072.51,-217.33 990,-192 965.59,-184.51 963.97,-173.16 941,-162 903.05,-143.57 892.35,-141.32 852,-129 828.72,-121.89 802.75,-115.31 780.05,-109.99"/>
<polygon fill="red" stroke="red" stroke-width="2" points="780.74,-106.56 770.21,-107.71 779.16,-113.38 780.74,-106.56"/>
<text text-anchor="middle" x="1416" y="-213.8" font-family="Times,serif" font-size="14.00">«use»</text>
</g>
<!-- label&#45;&gt;unsafe_defs -->
<g id="edge11" class="edge">
<title>label&#45;&gt;unsafe_defs</title>
<path fill="none" stroke="black" d="M1505.2,-323.85C1559.21,-303.91 1640.24,-263.88 1613,-210 1568.84,-122.64 1444.64,-101.78 1369.04,-97.41"/>
<polygon fill="black" stroke="black" points="1368.87,-93.9 1358.71,-96.9 1368.52,-100.89 1368.87,-93.9"/>
<text text-anchor="middle" x="1651.5" y="-213.8" font-family="Times,serif" font-size="14.00">«include»</text>
</g>
<!-- limits -->
<g id="node13" class="node">
<title>limits</title>
<polygon fill="white" stroke="black" stroke-width="2" points="350,-354 250,-354 250,-324 350,-324 350,-354"/>
<text text-anchor="middle" x="300" y="-335.3" font-family="Times,serif" font-size="14.00">limits</text>
</g>
<!-- limits&#45;&gt;3d&#45;engine -->
<g id="edge12" class="edge">
<title>limits&#45;&gt;3d&#45;engine</title>
<path fill="none" stroke="black" d="M350.1,-325.34C393.88,-314.71 459.28,-299.88 517,-291 603.02,-277.76 625.99,-286.32 712,-273 713.26,-272.8 714.54,-272.6 715.83,-272.38"/>
<polygon fill="black" stroke="black" points="716.58,-275.81 725.8,-270.59 715.34,-268.92 716.58,-275.81"/>
<text text-anchor="middle" x="551.5" y="-294.8" font-family="Times,serif" font-size="14.00">«include»</text>
</g>
<!-- limits&#45;&gt;core -->
<g id="edge13" class="edge">
<title>limits&#45;&gt;core</title>
<path fill="none" stroke="black" d="M280.75,-323.98C241.01,-294.55 152.3,-226.25 137,-192 131.56,-179.83 132.3,-174.48 137,-162 162.01,-95.52 186.41,-81.57 249,-48 261.84,-41.11 276.41,-35.42 290.4,-30.85"/>
<polygon fill="black" stroke="black" points="291.47,-34.19 299.97,-27.86 289.38,-27.5 291.47,-34.19"/>
<text text-anchor="middle" x="171.5" y="-173.3" font-family="Times,serif" font-size="14.00">«include»</text>
</g>
<!-- mngm&#45;&gt;core -->
<g id="edge14" class="edge">
<title>mngm&#45;&gt;core</title>
<path fill="none" stroke="black" d="M669.72,-84.26C602.16,-69.84 482.25,-44.24 410.04,-28.82"/>
<polygon fill="black" stroke="black" points="410.69,-25.38 400.17,-26.71 409.22,-32.22 410.69,-25.38"/>
<text text-anchor="middle" x="603.5" y="-51.8" font-family="Times,serif" font-size="14.00">«include»</text>
</g>
<!-- profile -->
<g id="node15" class="node">
<title>profile</title>
<polygon fill="white" stroke="black" stroke-width="2" points="621,-354 521,-354 521,-324 621,-324 621,-354"/>
<text text-anchor="middle" x="571" y="-335.3" font-family="Times,serif" font-size="14.00">profile</text>
</g>
<!-- profile&#45;&gt;2d&#45;engine -->
<g id="edge43" class="edge">
<title>profile&#45;&gt;2d&#45;engine</title>
<path fill="none" stroke="red" stroke-width="2" d="M521.09,-323.93C499.76,-317.42 479.02,-310.21 476,-306 472.11,-300.59 471.84,-296.21 476,-291 498.77,-262.54 523.31,-289.11 556,-273 575.77,-263.25 620.04,-224.09 647.23,-199.2"/>
<polygon fill="red" stroke="red" stroke-width="2" points="649.75,-201.63 654.74,-192.28 645.01,-196.48 649.75,-201.63"/>
<text text-anchor="middle" x="619" y="-254.3" font-family="Times,serif" font-size="14.00">«use»</text>
</g>
<!-- profile&#45;&gt;3d&#45;engine -->
<g id="edge44" class="edge">
<title>profile&#45;&gt;3d&#45;engine</title>
<path fill="none" stroke="red" stroke-width="2" d="M613.21,-323.93C626.81,-318.87 641.79,-312.73 655,-306 665.88,-300.46 666.99,-296.27 678,-291 690.03,-285.24 703.35,-280.12 716.21,-275.76"/>
<polygon fill="red" stroke="red" stroke-width="2" points="717.5,-279.02 725.91,-272.57 715.32,-272.37 717.5,-279.02"/>
<text text-anchor="middle" x="699" y="-294.8" font-family="Times,serif" font-size="14.00">«use»</text>
</g>
<!-- profile&#45;&gt;mngm -->
<g id="edge45" class="edge">
<title>profile&#45;&gt;mngm</title>
<path fill="none" stroke="red" stroke-width="2" d="M520.9,-325.11C496.83,-318.41 472.43,-310.67 469,-306 465.05,-300.63 465.03,-296.36 469,-291 485.31,-268.97 505.66,-288.89 528,-273 556.25,-252.91 553.19,-237.73 574,-210 590.17,-188.45 590.85,-179.88 611,-162 631.91,-143.44 658.86,-127.31 680.74,-115.77"/>
<polygon fill="red" stroke="red" stroke-width="2" points="682.49,-118.8 689.77,-111.1 679.28,-112.58 682.49,-118.8"/>
<text text-anchor="middle" x="595" y="-213.8" font-family="Times,serif" font-size="14.00">«use»</text>
</g>
<!-- profile&#45;&gt;unsafe_defs -->
<g id="edge15" class="edge">
<title>profile&#45;&gt;unsafe_defs</title>
<path fill="none" stroke="black" d="M621.34,-326.57C626.94,-325.57 632.58,-324.68 638,-324 660.29,-321.19 1025.97,-321.74 1042,-306 1072.5,-276.04 1018.2,-240.65 1048,-210 1078.8,-178.32 1208.14,-214.78 1246,-192 1272.78,-175.89 1290.18,-143.24 1299.54,-120.76"/>
<polygon fill="black" stroke="black" points="1302.89,-121.82 1303.28,-111.24 1296.37,-119.26 1302.89,-121.82"/>
<text text-anchor="middle" x="1082.5" y="-213.8" font-family="Times,serif" font-size="14.00">«include»</text>
</g>
<!-- template -->
<g id="node16" class="node">
<title>template</title>
<polygon fill="white" stroke="black" stroke-width="2" points="817,-354 717,-354 717,-324 817,-324 817,-354"/>
<text text-anchor="middle" x="767" y="-335.3" font-family="Times,serif" font-size="14.00">template</text>
</g>
<!-- template&#45;&gt;3d&#45;engine -->
<g id="edge16" class="edge">
<title>template&#45;&gt;3d&#45;engine</title>
<path fill="none" stroke="black" d="M766.48,-323.95C766.34,-314.58 766.53,-302 768,-291 768.35,-288.42 768.82,-285.74 769.37,-283.09"/>
<polygon fill="black" stroke="black" points="772.81,-283.74 771.72,-273.2 766,-282.12 772.81,-283.74"/>
<text text-anchor="middle" x="802.5" y="-294.8" font-family="Times,serif" font-size="14.00">«include»</text>
</g>
<!-- torus -->
<g id="node17" class="node">
<title>torus</title>
<polygon fill="white" stroke="black" stroke-width="2" points="1013,-354 913,-354 913,-324 1013,-324 1013,-354"/>
<text text-anchor="middle" x="963" y="-335.3" font-family="Times,serif" font-size="14.00">torus</text>
</g>
<!-- torus&#45;&gt;2d&#45;engine -->
<g id="edge46" class="edge">
<title>torus&#45;&gt;2d&#45;engine</title>
<path fill="none" stroke="red" stroke-width="2" d="M912.83,-326.18C908.17,-325.34 903.51,-324.59 899,-324 877.05,-321.12 516.29,-322 501,-306 496.39,-301.18 496.59,-296 501,-291 543.37,-242.96 595.61,-314.97 644,-273 664.11,-255.56 669.38,-224.19 670.42,-202.29"/>
<polygon fill="red" stroke="red" stroke-width="2" points="673.92,-202.19 670.63,-192.11 666.92,-202.04 673.92,-202.19"/>
<text text-anchor="middle" x="684" y="-254.3" font-family="Times,serif" font-size="14.00">«use»</text>
</g>
<!-- torus&#45;&gt;3d&#45;engine -->
<g id="edge47" class="edge">
<title>torus&#45;&gt;3d&#45;engine</title>
<path fill="none" stroke="red" stroke-width="2" d="M924.66,-323.94C911.81,-318.79 897.57,-312.6 885,-306 874.2,-300.33 872.9,-296.5 862,-291 851.66,-285.79 840.25,-280.95 829.23,-276.7"/>
<polygon fill="red" stroke="red" stroke-width="2" points="830.26,-273.35 819.67,-273.12 827.81,-279.91 830.26,-273.35"/>
<text text-anchor="middle" x="906" y="-294.8" font-family="Times,serif" font-size="14.00">«use»</text>
</g>
<!-- torus&#45;&gt;mngm -->
<g id="edge48" class="edge">
<title>torus&#45;&gt;mngm</title>
<path fill="none" stroke="red" stroke-width="2" d="M952.59,-323.78C945.55,-314.33 935.95,-301.73 927,-291 877.42,-231.56 867.69,-213.61 810,-162 791.36,-145.32 768.49,-128.85 750.47,-116.66"/>
<polygon fill="red" stroke="red" stroke-width="2" points="752.31,-113.69 742.05,-111.04 748.43,-119.51 752.31,-113.69"/>
<text text-anchor="middle" x="893" y="-213.8" font-family="Times,serif" font-size="14.00">«use»</text>
</g>
<!-- torus&#45;&gt;unsafe_defs -->
<g id="edge17" class="edge">
<title>torus&#45;&gt;unsafe_defs</title>
<path fill="none" stroke="black" d="M1010.78,-323.9C1046.85,-313.65 1097.71,-300.04 1143,-291 1171.38,-285.33 1250.1,-291.93 1272,-273 1315.59,-235.32 1315.01,-160.35 1311.32,-121.55"/>
<polygon fill="black" stroke="black" points="1314.75,-120.74 1310.17,-111.18 1307.79,-121.51 1314.75,-120.74"/>
<text text-anchor="middle" x="1340.5" y="-213.8" font-family="Times,serif" font-size="14.00">«include»</text>
</g>
<!-- tube -->
<g id="node18" class="node">
<title>tube</title>
<polygon fill="white" stroke="black" stroke-width="2" points="1169,-354 1069,-354 1069,-324 1169,-324 1169,-354"/>
<text text-anchor="middle" x="1119" y="-335.3" font-family="Times,serif" font-size="14.00">tube</text>
</g>
<!-- tube&#45;&gt;2d&#45;engine -->
<g id="edge49" class="edge">
<title>tube&#45;&gt;2d&#45;engine</title>
<path fill="none" stroke="red" stroke-width="2" d="M1116.73,-323.83C1114.7,-310.69 1111.77,-290.57 1110,-273 1109.3,-266.02 1110.99,-214.93 1106,-210 1077.9,-182.25 790.25,-196.37 751,-192 744.33,-191.26 737.38,-190.31 730.47,-189.27"/>
<polygon fill="red" stroke="red" stroke-width="2" points="730.84,-185.79 720.42,-187.68 729.75,-192.7 730.84,-185.79"/>
<text text-anchor="middle" x="1131" y="-254.3" font-family="Times,serif" font-size="14.00">«use»</text>
</g>
<!-- tube&#45;&gt;3d&#45;engine -->
<g id="edge50" class="edge">
<title>tube&#45;&gt;3d&#45;engine</title>
<path fill="none" stroke="red" stroke-width="2" d="M1068.86,-324.87C1031.07,-315.11 977.91,-301.7 931,-291 899.73,-283.87 864.75,-276.58 835.94,-270.77"/>
<polygon fill="red" stroke="red" stroke-width="2" points="836.52,-267.32 826.02,-268.78 835.14,-274.18 836.52,-267.32"/>
<text text-anchor="middle" x="1014" y="-294.8" font-family="Times,serif" font-size="14.00">«use»</text>
</g>
<!-- tube&#45;&gt;mngm -->
<g id="edge51" class="edge">
<title>tube&#45;&gt;mngm</title>
<path fill="none" stroke="red" stroke-width="2" d="M1127.14,-323.9C1136.09,-308.1 1149.53,-283.34 1152,-273 1159.26,-242.65 1149.06,-223.65 1121,-210 1039.95,-170.57 1005.75,-216.45 919,-192 858.35,-174.91 849.02,-155.8 792,-129 782.24,-124.41 771.67,-119.62 761.71,-115.18"/>
<polygon fill="red" stroke="red" stroke-width="2" points="762.95,-111.9 752.39,-111.05 760.11,-118.3 762.95,-111.9"/>
<text text-anchor="middle" x="1163" y="-213.8" font-family="Times,serif" font-size="14.00">«use»</text>
</g>
<!-- tube&#45;&gt;unsafe_defs -->
<g id="edge18" class="edge">
<title>tube&#45;&gt;unsafe_defs</title>
<path fill="none" stroke="black" d="M1129.91,-323.9C1139.27,-312.94 1153.78,-298.38 1170,-291 1283.62,-239.31 1374.8,-329.55 1443,-225 1472.92,-179.13 1403.97,-137.87 1354,-115.23"/>
<polygon fill="black" stroke="black" points="1355.17,-111.92 1344.61,-111.09 1352.35,-118.33 1355.17,-111.92"/>
<text text-anchor="middle" x="1483.5" y="-213.8" font-family="Times,serif" font-size="14.00">«include»</text>
</g>
<!-- type_trait&#45;&gt;core -->
<g id="edge19" class="edge">
<title>type_trait&#45;&gt;core</title>
<path fill="none" stroke="black" d="M1059.44,-161.89C1065.55,-151.76 1070.7,-138.32 1063,-129 941.66,17.91 830.41,-76.4 642,-48 562.2,-35.97 469.48,-26.59 410.3,-21.17"/>
<polygon fill="black" stroke="black" points="410.29,-17.66 400.02,-20.24 409.66,-24.63 410.29,-17.66"/>
<text text-anchor="middle" x="1080.5" y="-92.3" font-family="Times,serif" font-size="14.00">«include»</text>
</g>
<!-- unsafe_defs&#45;&gt;core -->
<g id="edge20" class="edge">
<title>unsafe_defs&#45;&gt;core</title>
<path fill="none" stroke="black" d="M1258.09,-80.93C1216.66,-69.9 1155.99,-55.25 1102,-48 968.83,-30.13 564.33,-20.32 410.37,-17.15"/>
<polygon fill="black" stroke="black" points="410.23,-13.65 400.16,-16.94 410.09,-20.65 410.23,-13.65"/>
<text text-anchor="middle" x="1215.5" y="-51.8" font-family="Times,serif" font-size="14.00">«include»</text>
</g>
<!-- util&#45;&gt;3d&#45;engine -->
<g id="edge52" class="edge">
<title>util&#45;&gt;3d&#45;engine</title>
<path fill="none" stroke="red" stroke-width="2" d="M503.21,-326.06C506.18,-325.36 509.13,-324.67 512,-324 546.64,-315.89 557.93,-321.4 590,-306 599.7,-301.34 599.18,-295.39 609,-291 651.42,-272.02 666.4,-281.97 712,-273 713.26,-272.75 714.52,-272.5 715.8,-272.24"/>
<polygon fill="red" stroke="red" stroke-width="2" points="716.64,-275.65 725.73,-270.21 715.23,-268.79 716.64,-275.65"/>
<text text-anchor="middle" x="630" y="-294.8" font-family="Times,serif" font-size="14.00">«use»</text>
</g>
<!-- util&#45;&gt;bbox&#45;engine -->
<g id="edge53" class="edge">
<title>util&#45;&gt;bbox&#45;engine</title>
<path fill="none" stroke="red" stroke-width="2" d="M402.86,-330.58C359.34,-323.71 302.06,-313.46 294,-306 266.53,-280.59 276.16,-262.07 271,-225 270.08,-218.4 266.91,-215.27 271,-210 290.68,-184.61 313.86,-209.18 341,-192 369.7,-173.83 393.13,-141.78 406.82,-119.98"/>
<polygon fill="red" stroke="red" stroke-width="2" points="409.87,-121.7 412.08,-111.34 403.89,-118.06 409.87,-121.7"/>
<text text-anchor="middle" x="292" y="-213.8" font-family="Times,serif" font-size="14.00">«use»</text>
</g>
<!-- util&#45;&gt;mngm -->
<g id="edge54" class="edge">
<title>util&#45;&gt;mngm</title>
<path fill="none" stroke="red" stroke-width="2" d="M402.94,-325.9C375.39,-316.41 343.52,-300.11 327,-273 320.06,-261.61 321.9,-255.32 327,-243 334.94,-223.84 344.28,-223.53 360,-210 420.11,-158.26 442.11,-148.45 519,-129 565.74,-117.18 619.75,-108.87 660.01,-103.68"/>
<polygon fill="red" stroke="red" stroke-width="2" points="660.45,-107.16 669.93,-102.43 659.57,-100.21 660.45,-107.16"/>
<text text-anchor="middle" x="381" y="-213.8" font-family="Times,serif" font-size="14.00">«use»</text>
</g>
<!-- util&#45;&gt;unsafe_defs -->
<g id="edge21" class="edge">
<title>util&#45;&gt;unsafe_defs</title>
<path fill="none" stroke="black" d="M503.09,-325.41C506.09,-324.87 509.08,-324.39 512,-324 539.82,-320.24 997.51,-326.2 1017,-306 1050.55,-271.23 933.08,-245.36 966,-210 1004.26,-168.91 1167.34,-216.2 1218,-192 1234.46,-184.14 1233.48,-175.27 1246,-162 1259.74,-147.44 1275.29,-131.14 1287.38,-118.5"/>
<polygon fill="black" stroke="black" points="1290.02,-120.8 1294.41,-111.16 1284.97,-115.96 1290.02,-120.8"/>
<text text-anchor="middle" x="1000.5" y="-213.8" font-family="Times,serif" font-size="14.00">«include»</text>
</g>
</g>
</svg>
