<?xml version="1.0" encoding="UTF-8" standalone="no"?>
<!DOCTYPE svg PUBLIC "-//W3C//DTD SVG 1.1//EN"
 "http://www.w3.org/Graphics/SVG/1.1/DTD/svg11.dtd">
<!-- Generated by graphviz version 8.1.0 (20230707.0739)
 -->
<!-- Title: foundation Pages: 1 -->
<svg width="1254pt" height="467pt"
 viewBox="0.00 0.00 1254.25 467.00" xmlns="http://www.w3.org/2000/svg" xmlns:xlink="http://www.w3.org/1999/xlink">
<g id="graph0" class="graph" transform="scale(1 1) rotate(0) translate(4 463)">
<title>foundation</title>
<polygon fill="white" stroke="none" points="-4,4 -4,-463 1250.25,-463 1250.25,4 -4,4"/>
<!-- 2d&#45;engine -->
<g id="node1" class="node">
<title>2d&#45;engine</title>
<polygon fill="white" stroke="black" stroke-width="2" points="1012,-209.25 912,-209.25 912,-179.25 1012,-179.25 1012,-209.25"/>
<text text-anchor="middle" x="962" y="-189.58" font-family="Times,serif" font-size="14.00">2d&#45;engine</text>
</g>
<!-- bbox&#45;engine -->
<g id="node4" class="node">
<title>bbox&#45;engine</title>
<polygon fill="white" stroke="black" stroke-width="2" points="900.13,-113.25 797.88,-113.25 797.88,-83.25 900.13,-83.25 900.13,-113.25"/>
<text text-anchor="middle" x="849" y="-93.58" font-family="Times,serif" font-size="14.00">bbox&#45;engine</text>
</g>
<!-- 2d&#45;engine&#45;&gt;bbox&#45;engine -->
<g id="edge22" class="edge">
<title>2d&#45;engine&#45;&gt;bbox&#45;engine</title>
<path fill="none" stroke="red" stroke-width="2" d="M942,-178.56C934.89,-173.22 926.88,-167.06 919.75,-161.25 911.15,-154.24 891.77,-137.22 875.46,-122.78"/>
<polygon fill="red" stroke="red" stroke-width="2" points="877.63,-120.26 867.82,-116.24 872.98,-125.49 877.63,-120.26"/>
<text text-anchor="middle" x="940.63" y="-141.58" font-family="Times,serif" font-size="14.00">«use»</text>
</g>
<!-- mngm&#45;engine -->
<g id="node15" class="node">
<title>mngm&#45;engine</title>
<polygon fill="white" stroke="black" stroke-width="2" points="1149.75,-113.25 1036.25,-113.25 1036.25,-83.25 1149.75,-83.25 1149.75,-113.25"/>
<text text-anchor="middle" x="1093" y="-93.58" font-family="Times,serif" font-size="14.00">mngm&#45;engine</text>
</g>
<!-- 2d&#45;engine&#45;&gt;mngm&#45;engine -->
<g id="edge21" class="edge">
<title>2d&#45;engine&#45;&gt;mngm&#45;engine</title>
<path fill="none" stroke="red" stroke-width="2" d="M1007.34,-178.37C1017.94,-173.78 1028.81,-168.09 1038,-161.25 1051.87,-150.93 1051.31,-144.2 1062.75,-131.25 1065.04,-128.65 1067.47,-125.97 1069.92,-123.32"/>
<polygon fill="red" stroke="red" stroke-width="2" points="1072.34,-125.72 1076.63,-116.03 1067.24,-120.93 1072.34,-125.72"/>
<text text-anchor="middle" x="1082.63" y="-141.58" font-family="Times,serif" font-size="14.00">«use»</text>
</g>
<!-- unsafe_defs -->
<g id="node21" class="node">
<title>unsafe_defs</title>
<polygon fill="white" stroke="black" stroke-width="2" points="1018,-113.25 918,-113.25 918,-83.25 1018,-83.25 1018,-113.25"/>
<text text-anchor="middle" x="968" y="-93.58" font-family="Times,serif" font-size="14.00">unsafe_defs</text>
</g>
<!-- 2d&#45;engine&#45;&gt;unsafe_defs -->
<g id="edge1" class="edge">
<title>2d&#45;engine&#45;&gt;unsafe_defs</title>
<path fill="none" stroke="black" d="M962.94,-178.56C963.86,-164.16 965.28,-141.91 966.38,-124.64"/>
<polygon fill="black" stroke="black" points="969.91,-125.35 967.05,-115.14 962.92,-124.9 969.91,-125.35"/>
<text text-anchor="middle" x="1000.13" y="-141.58" font-family="Times,serif" font-size="14.00">«include»</text>
</g>
<!-- 3d&#45;engine -->
<g id="node2" class="node">
<title>3d&#45;engine</title>
<polygon fill="white" stroke="black" stroke-width="2" points="632,-292.5 532,-292.5 532,-262.5 632,-262.5 632,-292.5"/>
<text text-anchor="middle" x="582" y="-272.83" font-family="Times,serif" font-size="14.00">3d&#45;engine</text>
</g>
<!-- 3d&#45;engine&#45;&gt;2d&#45;engine -->
<g id="edge2" class="edge">
<title>3d&#45;engine&#45;&gt;2d&#45;engine</title>
<path fill="none" stroke="black" d="M632.82,-263.63C674.57,-253.24 735.32,-238.54 788.75,-227.25 825.74,-219.43 867.41,-211.7 900.61,-205.8"/>
<polygon fill="black" stroke="black" points="900.84,-209.14 910.07,-203.95 899.62,-202.24 900.84,-209.14"/>
<text text-anchor="middle" x="823.13" y="-231.2" font-family="Times,serif" font-size="14.00">«include»</text>
</g>
<!-- polymorphic&#45;engine -->
<g id="node16" class="node">
<title>polymorphic&#45;engine</title>
<polygon fill="white" stroke="black" stroke-width="2" points="962.5,-375.75 805.5,-375.75 805.5,-345.75 962.5,-345.75 962.5,-375.75"/>
<text text-anchor="middle" x="884" y="-356.08" font-family="Times,serif" font-size="14.00">polymorphic&#45;engine</text>
</g>
<!-- 3d&#45;engine&#45;&gt;polymorphic&#45;engine -->
<g id="edge23" class="edge">
<title>3d&#45;engine&#45;&gt;polymorphic&#45;engine</title>
<path fill="none" stroke="red" stroke-width="2" d="M632.8,-282.76C665.17,-286.88 707.39,-294.92 742,-310.5 753.57,-315.71 753.35,-322.17 764.75,-327.75 775.21,-332.87 786.61,-337.26 798.06,-341"/>
<polygon fill="red" stroke="red" stroke-width="2" points="797.9,-345.22 808.48,-344.81 799.95,-338.53 797.9,-345.22"/>
<text text-anchor="middle" x="785.63" y="-314.45" font-family="Times,serif" font-size="14.00">«use»</text>
</g>
<!-- type_trait -->
<g id="node20" class="node">
<title>type_trait</title>
<polygon fill="white" stroke="black" stroke-width="2" points="634,-161.25 534,-161.25 534,-131.25 634,-131.25 634,-161.25"/>
<text text-anchor="middle" x="584" y="-141.58" font-family="Times,serif" font-size="14.00">type_trait</text>
</g>
<!-- 3d&#45;engine&#45;&gt;type_trait -->
<g id="edge3" class="edge">
<title>3d&#45;engine&#45;&gt;type_trait</title>
<path fill="none" stroke="black" d="M582.23,-261.67C582.57,-239.96 583.2,-199.2 583.61,-172.65"/>
<polygon fill="black" stroke="black" points="587.12,-172.96 583.77,-162.9 580.12,-172.85 587.12,-172.96"/>
<text text-anchor="middle" x="617.13" y="-231.2" font-family="Times,serif" font-size="14.00">«include»</text>
</g>
<!-- algo&#45;engine -->
<g id="node3" class="node">
<title>algo&#45;engine</title>
<polygon fill="white" stroke="black" stroke-width="2" points="528,-375.75 428,-375.75 428,-345.75 528,-345.75 528,-375.75"/>
<text text-anchor="middle" x="478" y="-356.08" font-family="Times,serif" font-size="14.00">algo&#45;engine</text>
</g>
<!-- algo&#45;engine&#45;&gt;3d&#45;engine -->
<g id="edge4" class="edge">
<title>algo&#45;engine&#45;&gt;3d&#45;engine</title>
<path fill="none" stroke="black" d="M484.2,-345.17C489.41,-334.38 497.76,-319.99 508.75,-310.5 514.11,-305.87 520.25,-301.81 526.64,-298.28"/>
<polygon fill="black" stroke="black" points="527.78,-301.13 535.12,-293.49 524.62,-294.88 527.78,-301.13"/>
<text text-anchor="middle" x="543.13" y="-314.45" font-family="Times,serif" font-size="14.00">«include»</text>
</g>
<!-- core -->
<g id="node7" class="node">
<title>core</title>
<polygon fill="white" stroke="black" stroke-width="2" points="965,-30 865,-30 865,0 965,0 965,-30"/>
<text text-anchor="middle" x="915" y="-10.33" font-family="Times,serif" font-size="14.00">core</text>
</g>
<!-- bbox&#45;engine&#45;&gt;core -->
<g id="edge5" class="edge">
<title>bbox&#45;engine&#45;&gt;core</title>
<path fill="none" stroke="black" d="M850.96,-82.66C852.97,-72.15 856.97,-58.1 864.75,-48 867.74,-44.12 871.35,-40.57 875.24,-37.38"/>
<polygon fill="black" stroke="black" points="877.06,-39.66 883.09,-30.94 872.94,-34 877.06,-39.66"/>
<text text-anchor="middle" x="899.13" y="-51.95" font-family="Times,serif" font-size="14.00">«include»</text>
</g>
<!-- components -->
<g id="node5" class="node">
<title>components</title>
<polygon fill="white" stroke="black" stroke-width="2" points="842.13,-209.25 739.88,-209.25 739.88,-179.25 842.13,-179.25 842.13,-209.25"/>
<text text-anchor="middle" x="791" y="-189.58" font-family="Times,serif" font-size="14.00">components</text>
</g>
<!-- components&#45;&gt;bbox&#45;engine -->
<g id="edge6" class="edge">
<title>components&#45;&gt;bbox&#45;engine</title>
<path fill="none" stroke="black" d="M787.23,-178.35C784.73,-165.04 783.28,-145.5 791.75,-131.25 794.11,-127.29 797.15,-123.78 800.61,-120.68"/>
<polygon fill="black" stroke="black" points="802.39,-122.96 808.28,-114.16 798.19,-117.37 802.39,-122.96"/>
<text text-anchor="middle" x="826.13" y="-141.58" font-family="Times,serif" font-size="14.00">«include»</text>
</g>
<!-- connect -->
<g id="node6" class="node">
<title>connect</title>
<polygon fill="white" stroke="black" stroke-width="2" points="410,-459 310,-459 310,-429 410,-429 410,-459"/>
<text text-anchor="middle" x="360" y="-439.33" font-family="Times,serif" font-size="14.00">connect</text>
</g>
<!-- util -->
<g id="node22" class="node">
<title>util</title>
<polygon fill="white" stroke="black" stroke-width="2" points="410,-375.75 310,-375.75 310,-345.75 410,-345.75 410,-375.75"/>
<text text-anchor="middle" x="360" y="-356.08" font-family="Times,serif" font-size="14.00">util</text>
</g>
<!-- connect&#45;&gt;util -->
<g id="edge7" class="edge">
<title>connect&#45;&gt;util</title>
<path fill="none" stroke="black" d="M360,-428.1C360,-416.76 360,-400.88 360,-387.5"/>
<polygon fill="black" stroke="black" points="363.5,-387.56 360,-377.56 356.5,-387.56 363.5,-387.56"/>
<text text-anchor="middle" x="394.13" y="-397.7" font-family="Times,serif" font-size="14.00">«include»</text>
</g>
<!-- dimensions -->
<g id="node8" class="node">
<title>dimensions</title>
<polygon fill="white" stroke="black" stroke-width="2" points="528,-459 428,-459 428,-429 528,-429 528,-459"/>
<text text-anchor="middle" x="478" y="-439.33" font-family="Times,serif" font-size="14.00">dimensions</text>
</g>
<!-- drawio -->
<g id="node9" class="node">
<title>drawio</title>
<polygon fill="white" stroke="black" stroke-width="2" points="1012,-292.5 912,-292.5 912,-262.5 1012,-262.5 1012,-292.5"/>
<text text-anchor="middle" x="962" y="-272.83" font-family="Times,serif" font-size="14.00">drawio</text>
</g>
<!-- drawio&#45;&gt;2d&#45;engine -->
<g id="edge8" class="edge">
<title>drawio&#45;&gt;2d&#45;engine</title>
<path fill="none" stroke="black" d="M962,-261.6C962,-250.26 962,-234.38 962,-221"/>
<polygon fill="black" stroke="black" points="965.5,-221.06 962,-211.06 958.5,-221.06 965.5,-221.06"/>
<text text-anchor="middle" x="996.13" y="-231.2" font-family="Times,serif" font-size="14.00">«include»</text>
</g>
<!-- fillet -->
<g id="node10" class="node">
<title>fillet</title>
<polygon fill="white" stroke="black" stroke-width="2" points="646,-375.75 546,-375.75 546,-345.75 646,-345.75 646,-375.75"/>
<text text-anchor="middle" x="596" y="-356.08" font-family="Times,serif" font-size="14.00">fillet</text>
</g>
<!-- fillet&#45;&gt;3d&#45;engine -->
<g id="edge9" class="edge">
<title>fillet&#45;&gt;3d&#45;engine</title>
<path fill="none" stroke="black" d="M588.45,-344.82C586.16,-339.56 583.94,-333.52 582.75,-327.75 581.19,-320.19 580.63,-311.83 580.57,-304.18"/>
<polygon fill="black" stroke="black" points="584.09,-304.38 580.79,-294.31 577.09,-304.24 584.09,-304.38"/>
<text text-anchor="middle" x="617.13" y="-314.45" font-family="Times,serif" font-size="14.00">«include»</text>
</g>
<!-- grid -->
<g id="node11" class="node">
<title>grid</title>
<polygon fill="white" stroke="black" stroke-width="2" points="764,-375.75 664,-375.75 664,-345.75 764,-345.75 764,-375.75"/>
<text text-anchor="middle" x="714" y="-356.08" font-family="Times,serif" font-size="14.00">grid</text>
</g>
<!-- grid&#45;&gt;3d&#45;engine -->
<g id="edge10" class="edge">
<title>grid&#45;&gt;3d&#45;engine</title>
<path fill="none" stroke="black" d="M695.07,-344.78C677.39,-330.82 653.37,-311.95 651,-310.5 643.79,-306.09 635.88,-301.89 628.06,-298.06"/>
<polygon fill="black" stroke="black" points="629.8,-294.54 619.27,-293.43 626.81,-300.87 629.8,-294.54"/>
<text text-anchor="middle" x="708.13" y="-314.45" font-family="Times,serif" font-size="14.00">«include»</text>
</g>
<!-- hole -->
<g id="node12" class="node">
<title>hole</title>
<polygon fill="white" stroke="black" stroke-width="2" points="100,-459 0,-459 0,-429 100,-429 100,-459"/>
<text text-anchor="middle" x="50" y="-439.33" font-family="Times,serif" font-size="14.00">hole</text>
</g>
<!-- label -->
<g id="node13" class="node">
<title>label</title>
<polygon fill="white" stroke="black" stroke-width="2" points="188,-375.75 88,-375.75 88,-345.75 188,-345.75 188,-375.75"/>
<text text-anchor="middle" x="138" y="-356.08" font-family="Times,serif" font-size="14.00">label</text>
</g>
<!-- hole&#45;&gt;label -->
<g id="edge11" class="edge">
<title>hole&#45;&gt;label</title>
<path fill="none" stroke="black" d="M51.17,-428.04C52.73,-417.35 56.35,-403.24 64.75,-393.75 68.66,-389.34 73.29,-385.5 78.3,-382.19"/>
<polygon fill="black" stroke="black" points="79.75,-384.8 86.63,-376.75 76.23,-378.76 79.75,-384.8"/>
<text text-anchor="middle" x="99.13" y="-397.7" font-family="Times,serif" font-size="14.00">«include»</text>
</g>
<!-- label&#45;&gt;3d&#45;engine -->
<g id="edge12" class="edge">
<title>label&#45;&gt;3d&#45;engine</title>
<path fill="none" stroke="black" d="M134.57,-345.18C132.91,-334.11 132.88,-319.34 141.75,-310.5 167.98,-284.36 405.52,-279.45 520.37,-278.61"/>
<polygon fill="black" stroke="black" points="520.11,-282.11 530.09,-278.55 520.07,-275.11 520.11,-282.11"/>
<text text-anchor="middle" x="176.13" y="-314.45" font-family="Times,serif" font-size="14.00">«include»</text>
</g>
<!-- limits -->
<g id="node14" class="node">
<title>limits</title>
<polygon fill="white" stroke="black" stroke-width="2" points="780,-113.25 680,-113.25 680,-83.25 780,-83.25 780,-113.25"/>
<text text-anchor="middle" x="730" y="-93.58" font-family="Times,serif" font-size="14.00">limits</text>
</g>
<!-- limits&#45;&gt;core -->
<g id="edge13" class="edge">
<title>limits&#45;&gt;core</title>
<path fill="none" stroke="black" d="M742.5,-82.62C752.76,-71.52 768.25,-56.73 784.75,-48 805.89,-36.81 831.04,-29.45 853.58,-24.64"/>
<polygon fill="black" stroke="black" points="853.94,-27.94 863.06,-22.55 852.57,-21.08 853.94,-27.94"/>
<text text-anchor="middle" x="819.13" y="-51.95" font-family="Times,serif" font-size="14.00">«include»</text>
</g>
<!-- mngm&#45;engine&#45;&gt;core -->
<g id="edge14" class="edge">
<title>mngm&#45;engine&#45;&gt;core</title>
<path fill="none" stroke="black" d="M1074.13,-82.46C1059.69,-71.72 1038.94,-57.46 1019,-48 1005.54,-41.62 990.5,-36.13 976.14,-31.59"/>
<polygon fill="black" stroke="black" points="977.42,-28.02 966.83,-28.46 975.38,-34.71 977.42,-28.02"/>
<text text-anchor="middle" x="1082.13" y="-51.95" font-family="Times,serif" font-size="14.00">«include»</text>
</g>
<!-- polymorphic&#45;engine&#45;&gt;3d&#45;engine -->
<g id="edge24" class="edge">
<title>polymorphic&#45;engine&#45;&gt;3d&#45;engine</title>
<path fill="none" stroke="red" stroke-width="2" d="M856.62,-344.78C847.6,-339.62 837.61,-333.64 828.75,-327.75 818.18,-320.72 817.71,-315.39 806,-310.5 754.75,-289.11 691.79,-281.59 645.68,-279.14"/>
<polygon fill="red" stroke="red" stroke-width="2" points="645.99,-275.51 635.85,-278.56 645.68,-282.51 645.99,-275.51"/>
<text text-anchor="middle" x="849.63" y="-314.45" font-family="Times,serif" font-size="14.00">«use»</text>
</g>
<!-- polymorphic&#45;engine&#45;&gt;bbox&#45;engine -->
<g id="edge25" class="edge">
<title>polymorphic&#45;engine&#45;&gt;bbox&#45;engine</title>
<path fill="none" stroke="red" stroke-width="2" d="M883.6,-344.86C882.36,-308.15 877.55,-210.5 860,-131.25 859.64,-129.64 859.23,-127.99 858.78,-126.34"/>
<polygon fill="red" stroke="red" stroke-width="2" points="861.23,-124.49 854.86,-116.03 854.56,-126.62 861.23,-124.49"/>
<text text-anchor="middle" x="897.63" y="-231.2" font-family="Times,serif" font-size="14.00">«use»</text>
</g>
<!-- polymorphic&#45;engine&#45;&gt;core -->
<g id="edge15" class="edge">
<title>polymorphic&#45;engine&#45;&gt;core</title>
<path fill="none" stroke="black" d="M963.17,-353.44C1050.25,-344.26 1178,-323.18 1178,-278.5 1178,-278.5 1178,-278.5 1178,-97.25 1178,-63.43 1150.75,-62.08 1120,-48 1074.75,-27.28 1018.64,-19.6 976.56,-16.93"/>
<polygon fill="black" stroke="black" points="976.82,-13.38 966.64,-16.32 976.43,-20.37 976.82,-13.38"/>
<text text-anchor="middle" x="1212.13" y="-189.58" font-family="Times,serif" font-size="14.00">«include»</text>
</g>
<!-- polymorphic&#45;engine&#45;&gt;mngm&#45;engine -->
<g id="edge26" class="edge">
<title>polymorphic&#45;engine&#45;&gt;mngm&#45;engine</title>
<path fill="none" stroke="red" stroke-width="2" d="M929.37,-344.77C958.01,-333.66 994.48,-316.31 1021,-292.5 1072.36,-246.39 1084.8,-227.54 1104,-161.25 1107.24,-150.05 1105.88,-137.43 1103.18,-126.5"/>
<polygon fill="red" stroke="red" stroke-width="2" points="1105.7,-124.78 1099.44,-116.24 1099.01,-126.82 1105.7,-124.78"/>
<text text-anchor="middle" x="1098.63" y="-231.2" font-family="Times,serif" font-size="14.00">«use»</text>
</g>
<!-- profile -->
<g id="node17" class="node">
<title>profile</title>
<polygon fill="white" stroke="black" stroke-width="2" points="246,-459 146,-459 146,-429 246,-429 246,-459"/>
<text text-anchor="middle" x="196" y="-439.33" font-family="Times,serif" font-size="14.00">profile</text>
</g>
<!-- profile&#45;&gt;3d&#45;engine -->
<g id="edge16" class="edge">
<title>profile&#45;&gt;3d&#45;engine</title>
<path fill="none" stroke="black" d="M202.79,-428.12C205.16,-422.76 207.78,-416.65 210,-411 221.22,-382.41 209.81,-366.17 232.75,-345.75 274.48,-308.61 431.71,-290.37 520.31,-282.87"/>
<polygon fill="black" stroke="black" points="520.35,-286.3 530.03,-281.99 519.78,-279.32 520.35,-286.3"/>
<text text-anchor="middle" x="267.13" y="-356.08" font-family="Times,serif" font-size="14.00">«include»</text>
</g>
<!-- profile&#45;&gt;label -->
<g id="edge17" class="edge">
<title>profile&#45;&gt;label</title>
<path fill="none" stroke="black" d="M159.49,-428.07C152.54,-423.59 146.09,-417.96 141.75,-411 137.44,-404.07 135.81,-395.49 135.47,-387.44"/>
<polygon fill="black" stroke="black" points="138.99,-387.72 135.7,-377.65 131.99,-387.57 138.99,-387.72"/>
<text text-anchor="middle" x="176.13" y="-397.7" font-family="Times,serif" font-size="14.00">«include»</text>
</g>
<!-- quaternions -->
<g id="node18" class="node">
<title>quaternions</title>
<polygon fill="white" stroke="black" stroke-width="2" points="647.75,-459 546.25,-459 546.25,-429 647.75,-429 647.75,-459"/>
<text text-anchor="middle" x="597" y="-439.33" font-family="Times,serif" font-size="14.00">quaternions</text>
</g>
<!-- template -->
<g id="node19" class="node">
<title>template</title>
<polygon fill="white" stroke="black" stroke-width="2" points="766,-459 666,-459 666,-429 766,-429 766,-459"/>
<text text-anchor="middle" x="716" y="-439.33" font-family="Times,serif" font-size="14.00">template</text>
</g>
<!-- type_trait&#45;&gt;core -->
<g id="edge18" class="edge">
<title>type_trait&#45;&gt;core</title>
<path fill="none" stroke="black" d="M584.43,-130.27C585.66,-116.14 589.75,-95.36 602.75,-83.25 638.57,-49.87 773.52,-30.54 853.82,-21.76"/>
<polygon fill="black" stroke="black" points="853.72,-25.19 863.29,-20.65 852.98,-18.23 853.72,-25.19"/>
<text text-anchor="middle" x="637.13" y="-93.58" font-family="Times,serif" font-size="14.00">«include»</text>
</g>
<!-- unsafe_defs&#45;&gt;core -->
<g id="edge19" class="edge">
<title>unsafe_defs&#45;&gt;core</title>
<path fill="none" stroke="black" d="M958.28,-82.35C950.51,-70.44 939.47,-53.51 930.49,-39.74"/>
<polygon fill="black" stroke="black" points="933.05,-38.27 924.66,-31.81 927.19,-42.1 933.05,-38.27"/>
<text text-anchor="middle" x="981.13" y="-51.95" font-family="Times,serif" font-size="14.00">«include»</text>
</g>
<!-- util&#45;&gt;3d&#45;engine -->
<g id="edge20" class="edge">
<title>util&#45;&gt;3d&#45;engine</title>
<path fill="none" stroke="black" d="M374.63,-344.97C386.56,-333.79 404.39,-318.96 422.75,-310.5 453.45,-296.35 490.31,-288.44 520.84,-284.02"/>
<polygon fill="black" stroke="black" points="520.91,-287.41 530.35,-282.6 519.97,-280.47 520.91,-287.41"/>
<text text-anchor="middle" x="457.13" y="-314.45" font-family="Times,serif" font-size="14.00">«include»</text>
</g>
</g>
</svg>
