<?xml version="1.0" encoding="UTF-8" standalone="no"?>
<!DOCTYPE svg PUBLIC "-//W3C//DTD SVG 1.1//EN"
 "http://www.w3.org/Graphics/SVG/1.1/DTD/svg11.dtd">
<!-- Generated by graphviz version 2.43.0 (0)
 -->
<!-- Title: foundation Pages: 1 -->
<svg width="1293pt" height="458pt"
 viewBox="0.00 0.00 1293.00 458.00" xmlns="http://www.w3.org/2000/svg" xmlns:xlink="http://www.w3.org/1999/xlink">
<g id="graph0" class="graph" transform="scale(1 1) rotate(0) translate(4 454)">
<title>foundation</title>
<polygon fill="white" stroke="transparent" points="-4,4 -4,-454 1289,-454 1289,4 -4,4"/>
<!-- 2d&#45;engine -->
<g id="node1" class="node">
<title>2d&#45;engine</title>
<polygon fill="white" stroke="black" stroke-width="2" points="1047,-207 947,-207 947,-177 1047,-177 1047,-207"/>
<text text-anchor="middle" x="997" y="-188.3" font-family="Times,serif" font-size="14.00">2d&#45;engine</text>
</g>
<!-- bbox&#45;engine -->
<g id="node4" class="node">
<title>bbox&#45;engine</title>
<polygon fill="white" stroke="black" stroke-width="2" points="936.5,-111 833.5,-111 833.5,-81 936.5,-81 936.5,-111"/>
<text text-anchor="middle" x="885" y="-92.3" font-family="Times,serif" font-size="14.00">bbox&#45;engine</text>
</g>
<!-- 2d&#45;engine&#45;&gt;bbox&#45;engine -->
<g id="edge22" class="edge">
<title>2d&#45;engine&#45;&gt;bbox&#45;engine</title>
<path fill="none" stroke="red" stroke-width="2" d="M977.01,-176.72C969.66,-171.31 961.35,-165.01 954,-159 945.06,-151.68 924.46,-133.08 908.08,-118.15"/>
<polygon fill="red" stroke="red" stroke-width="2" points="910.19,-115.34 900.45,-111.18 905.47,-120.51 910.19,-115.34"/>
<text text-anchor="middle" x="975" y="-140.3" font-family="Times,serif" font-size="14.00">«use»</text>
</g>
<!-- mngm&#45;engine -->
<g id="node14" class="node">
<title>mngm&#45;engine</title>
<polygon fill="white" stroke="black" stroke-width="2" points="1188,-111 1074,-111 1074,-81 1188,-81 1188,-111"/>
<text text-anchor="middle" x="1131" y="-92.3" font-family="Times,serif" font-size="14.00">mngm&#45;engine</text>
</g>
<!-- 2d&#45;engine&#45;&gt;mngm&#45;engine -->
<g id="edge21" class="edge">
<title>2d&#45;engine&#45;&gt;mngm&#45;engine</title>
<path fill="none" stroke="red" stroke-width="2" d="M1042.98,-176.97C1054.39,-172.28 1066.15,-166.34 1076,-159 1089.69,-148.8 1088.71,-141.81 1100,-129 1103.07,-125.51 1106.41,-121.89 1109.73,-118.4"/>
<polygon fill="red" stroke="red" stroke-width="2" points="1112.39,-120.69 1116.82,-111.06 1107.35,-115.83 1112.39,-120.69"/>
<text text-anchor="middle" x="1121" y="-140.3" font-family="Times,serif" font-size="14.00">«use»</text>
</g>
<!-- unsafe_defs -->
<g id="node19" class="node">
<title>unsafe_defs</title>
<polygon fill="white" stroke="black" stroke-width="2" points="1055.5,-111 954.5,-111 954.5,-81 1055.5,-81 1055.5,-111"/>
<text text-anchor="middle" x="1005" y="-92.3" font-family="Times,serif" font-size="14.00">unsafe_defs</text>
</g>
<!-- 2d&#45;engine&#45;&gt;unsafe_defs -->
<g id="edge1" class="edge">
<title>2d&#45;engine&#45;&gt;unsafe_defs</title>
<path fill="none" stroke="black" d="M998.22,-176.72C999.47,-162.01 1001.44,-138.79 1002.94,-121.2"/>
<polygon fill="black" stroke="black" points="1006.44,-121.36 1003.8,-111.1 999.46,-120.77 1006.44,-121.36"/>
<text text-anchor="middle" x="1037.5" y="-140.3" font-family="Times,serif" font-size="14.00">«include»</text>
</g>
<!-- 3d&#45;engine -->
<g id="node2" class="node">
<title>3d&#45;engine</title>
<polygon fill="white" stroke="black" stroke-width="2" points="664,-288 564,-288 564,-258 664,-258 664,-288"/>
<text text-anchor="middle" x="614" y="-269.3" font-family="Times,serif" font-size="14.00">3d&#45;engine</text>
</g>
<!-- 3d&#45;engine&#45;&gt;2d&#45;engine -->
<g id="edge2" class="edge">
<title>3d&#45;engine&#45;&gt;2d&#45;engine</title>
<path fill="none" stroke="black" d="M664.13,-260.14C706.4,-250.29 768.52,-236.13 823,-225 860.64,-217.31 903.03,-209.5 936.54,-203.52"/>
<polygon fill="black" stroke="black" points="937.41,-206.92 946.64,-201.72 936.19,-200.02 937.41,-206.92"/>
<text text-anchor="middle" x="857.5" y="-228.8" font-family="Times,serif" font-size="14.00">«include»</text>
</g>
<!-- polymorphic&#45;engine -->
<g id="node15" class="node">
<title>polymorphic&#45;engine</title>
<polygon fill="white" stroke="black" stroke-width="2" points="999,-369 841,-369 841,-339 999,-339 999,-369"/>
<text text-anchor="middle" x="920" y="-350.3" font-family="Times,serif" font-size="14.00">polymorphic&#45;engine</text>
</g>
<!-- 3d&#45;engine&#45;&gt;polymorphic&#45;engine -->
<g id="edge23" class="edge">
<title>3d&#45;engine&#45;&gt;polymorphic&#45;engine</title>
<path fill="none" stroke="red" stroke-width="2" d="M664.24,-274.85C711.29,-277.08 782.87,-284.19 841,-306 852.43,-310.29 853.59,-314.64 864,-321 870.99,-325.27 878.55,-329.71 885.79,-333.88"/>
<polygon fill="red" stroke="red" stroke-width="2" points="884.31,-337.06 894.73,-338.97 887.78,-330.98 884.31,-337.06"/>
<text text-anchor="middle" x="885" y="-309.8" font-family="Times,serif" font-size="14.00">«use»</text>
</g>
<!-- type_trait -->
<g id="node18" class="node">
<title>type_trait</title>
<polygon fill="white" stroke="black" stroke-width="2" points="667,-159 567,-159 567,-129 667,-129 667,-159"/>
<text text-anchor="middle" x="617" y="-140.3" font-family="Times,serif" font-size="14.00">type_trait</text>
</g>
<!-- 3d&#45;engine&#45;&gt;type_trait -->
<g id="edge3" class="edge">
<title>3d&#45;engine&#45;&gt;type_trait</title>
<path fill="none" stroke="black" d="M614.33,-257.92C614.84,-236.56 615.8,-195.68 616.42,-169.4"/>
<polygon fill="black" stroke="black" points="619.93,-169.22 616.67,-159.14 612.93,-169.05 619.93,-169.22"/>
<text text-anchor="middle" x="650.5" y="-228.8" font-family="Times,serif" font-size="14.00">«include»</text>
</g>
<!-- algo&#45;engine -->
<g id="node3" class="node">
<title>algo&#45;engine</title>
<polygon fill="white" stroke="black" stroke-width="2" points="572,-369 472,-369 472,-339 572,-339 572,-369"/>
<text text-anchor="middle" x="522" y="-350.3" font-family="Times,serif" font-size="14.00">algo&#45;engine</text>
</g>
<!-- algo&#45;engine&#45;&gt;3d&#45;engine -->
<g id="edge4" class="edge">
<title>algo&#45;engine&#45;&gt;3d&#45;engine</title>
<path fill="none" stroke="black" d="M524.42,-338.67C526.82,-328.44 531.41,-314.96 540,-306 544.99,-300.79 550.98,-296.38 557.35,-292.66"/>
<polygon fill="black" stroke="black" points="559,-295.75 566.23,-288 555.75,-289.55 559,-295.75"/>
<text text-anchor="middle" x="574.5" y="-309.8" font-family="Times,serif" font-size="14.00">«include»</text>
</g>
<!-- core -->
<g id="node7" class="node">
<title>core</title>
<polygon fill="white" stroke="black" stroke-width="2" points="1002,-30 902,-30 902,0 1002,0 1002,-30"/>
<text text-anchor="middle" x="952" y="-11.3" font-family="Times,serif" font-size="14.00">core</text>
</g>
<!-- bbox&#45;engine&#45;&gt;core -->
<g id="edge5" class="edge">
<title>bbox&#45;engine&#45;&gt;core</title>
<path fill="none" stroke="black" d="M887.27,-80.62C889.43,-70.63 893.51,-57.46 901,-48 904.53,-43.54 908.86,-39.53 913.49,-35.99"/>
<polygon fill="black" stroke="black" points="915.79,-38.65 922.04,-30.1 911.82,-32.88 915.79,-38.65"/>
<text text-anchor="middle" x="935.5" y="-51.8" font-family="Times,serif" font-size="14.00">«include»</text>
</g>
<!-- components -->
<g id="node5" class="node">
<title>components</title>
<polygon fill="white" stroke="black" stroke-width="2" points="876.5,-207 773.5,-207 773.5,-177 876.5,-177 876.5,-207"/>
<text text-anchor="middle" x="825" y="-188.3" font-family="Times,serif" font-size="14.00">components</text>
</g>
<!-- components&#45;&gt;bbox&#45;engine -->
<g id="edge6" class="edge">
<title>components&#45;&gt;bbox&#45;engine</title>
<path fill="none" stroke="black" d="M821.4,-176.84C818.85,-163.5 817.24,-143.45 826,-129 828.76,-124.45 832.42,-120.5 836.56,-117.08"/>
<polygon fill="black" stroke="black" points="838.83,-119.76 845.02,-111.16 834.82,-114.03 838.83,-119.76"/>
<text text-anchor="middle" x="860.5" y="-140.3" font-family="Times,serif" font-size="14.00">«include»</text>
</g>
<!-- connect -->
<g id="node6" class="node">
<title>connect</title>
<polygon fill="white" stroke="black" stroke-width="2" points="454,-450 354,-450 354,-420 454,-420 454,-450"/>
<text text-anchor="middle" x="404" y="-431.3" font-family="Times,serif" font-size="14.00">connect</text>
</g>
<!-- util -->
<g id="node20" class="node">
<title>util</title>
<polygon fill="white" stroke="black" stroke-width="2" points="454,-369 354,-369 354,-339 454,-339 454,-369"/>
<text text-anchor="middle" x="404" y="-350.3" font-family="Times,serif" font-size="14.00">util</text>
</g>
<!-- connect&#45;&gt;util -->
<g id="edge7" class="edge">
<title>connect&#45;&gt;util</title>
<path fill="none" stroke="black" d="M404,-419.88C404,-408.64 404,-392.66 404,-379.37"/>
<polygon fill="black" stroke="black" points="407.5,-379 404,-369 400.5,-379 407.5,-379"/>
<text text-anchor="middle" x="438.5" y="-390.8" font-family="Times,serif" font-size="14.00">«include»</text>
</g>
<!-- drawio -->
<g id="node8" class="node">
<title>drawio</title>
<polygon fill="white" stroke="black" stroke-width="2" points="1047,-288 947,-288 947,-258 1047,-258 1047,-288"/>
<text text-anchor="middle" x="997" y="-269.3" font-family="Times,serif" font-size="14.00">drawio</text>
</g>
<!-- drawio&#45;&gt;2d&#45;engine -->
<g id="edge8" class="edge">
<title>drawio&#45;&gt;2d&#45;engine</title>
<path fill="none" stroke="black" d="M997,-257.88C997,-246.64 997,-230.66 997,-217.37"/>
<polygon fill="black" stroke="black" points="1000.5,-217 997,-207 993.5,-217 1000.5,-217"/>
<text text-anchor="middle" x="1031.5" y="-228.8" font-family="Times,serif" font-size="14.00">«include»</text>
</g>
<!-- fillet -->
<g id="node9" class="node">
<title>fillet</title>
<polygon fill="white" stroke="black" stroke-width="2" points="690,-369 590,-369 590,-339 690,-339 690,-369"/>
<text text-anchor="middle" x="640" y="-350.3" font-family="Times,serif" font-size="14.00">fillet</text>
</g>
<!-- fillet&#45;&gt;3d&#45;engine -->
<g id="edge9" class="edge">
<title>fillet&#45;&gt;3d&#45;engine</title>
<path fill="none" stroke="black" d="M625.84,-338.92C621.53,-333.72 617.32,-327.51 615,-321 612.5,-313.97 611.65,-305.98 611.6,-298.6"/>
<polygon fill="black" stroke="black" points="615.11,-298.54 612,-288.41 608.11,-298.26 615.11,-298.54"/>
<text text-anchor="middle" x="649.5" y="-309.8" font-family="Times,serif" font-size="14.00">«include»</text>
</g>
<!-- grid -->
<g id="node10" class="node">
<title>grid</title>
<polygon fill="white" stroke="black" stroke-width="2" points="808,-369 708,-369 708,-339 808,-339 808,-369"/>
<text text-anchor="middle" x="758" y="-350.3" font-family="Times,serif" font-size="14.00">grid</text>
</g>
<!-- grid&#45;&gt;3d&#45;engine -->
<g id="edge10" class="edge">
<title>grid&#45;&gt;3d&#45;engine</title>
<path fill="none" stroke="black" d="M735.35,-338.91C726.49,-333.36 716.25,-326.91 707,-321 696.72,-314.42 694.69,-311.89 684,-306 675.4,-301.26 665.97,-296.61 656.89,-292.38"/>
<polygon fill="black" stroke="black" points="658.17,-289.12 647.62,-288.14 655.26,-295.48 658.17,-289.12"/>
<text text-anchor="middle" x="741.5" y="-309.8" font-family="Times,serif" font-size="14.00">«include»</text>
</g>
<!-- hole -->
<g id="node11" class="node">
<title>hole</title>
<polygon fill="white" stroke="black" stroke-width="2" points="100,-450 0,-450 0,-420 100,-420 100,-450"/>
<text text-anchor="middle" x="50" y="-431.3" font-family="Times,serif" font-size="14.00">hole</text>
</g>
<!-- label -->
<g id="node12" class="node">
<title>label</title>
<polygon fill="white" stroke="black" stroke-width="2" points="100,-369 0,-369 0,-339 100,-339 100,-369"/>
<text text-anchor="middle" x="50" y="-350.3" font-family="Times,serif" font-size="14.00">label</text>
</g>
<!-- hole&#45;&gt;label -->
<g id="edge11" class="edge">
<title>hole&#45;&gt;label</title>
<path fill="none" stroke="black" d="M50,-419.88C50,-408.64 50,-392.66 50,-379.37"/>
<polygon fill="black" stroke="black" points="53.5,-379 50,-369 46.5,-379 53.5,-379"/>
<text text-anchor="middle" x="84.5" y="-390.8" font-family="Times,serif" font-size="14.00">«include»</text>
</g>
<!-- label&#45;&gt;3d&#45;engine -->
<g id="edge12" class="edge">
<title>label&#45;&gt;3d&#45;engine</title>
<path fill="none" stroke="black" d="M73.96,-338.78C93.86,-327.74 123.28,-313.14 151,-306 225.45,-286.81 446.21,-278.45 553.76,-275.43"/>
<polygon fill="black" stroke="black" points="553.9,-278.93 563.8,-275.16 553.71,-271.93 553.9,-278.93"/>
<text text-anchor="middle" x="185.5" y="-309.8" font-family="Times,serif" font-size="14.00">«include»</text>
</g>
<!-- limits -->
<g id="node13" class="node">
<title>limits</title>
<polygon fill="white" stroke="black" stroke-width="2" points="815,-111 715,-111 715,-81 815,-81 815,-111"/>
<text text-anchor="middle" x="765" y="-92.3" font-family="Times,serif" font-size="14.00">limits</text>
</g>
<!-- limits&#45;&gt;core -->
<g id="edge13" class="edge">
<title>limits&#45;&gt;core</title>
<path fill="none" stroke="black" d="M778.12,-80.61C788.51,-70.07 803.89,-56.23 820,-48 842.13,-36.69 868.42,-29.27 891.68,-24.45"/>
<polygon fill="black" stroke="black" points="892.64,-27.83 901.79,-22.48 891.3,-20.96 892.64,-27.83"/>
<text text-anchor="middle" x="854.5" y="-51.8" font-family="Times,serif" font-size="14.00">«include»</text>
</g>
<!-- mngm&#45;engine&#45;&gt;core -->
<g id="edge14" class="edge">
<title>mngm&#45;engine&#45;&gt;core</title>
<path fill="none" stroke="black" d="M1112.03,-80.92C1097.55,-70.69 1076.77,-57.09 1057,-48 1042.8,-41.47 1026.91,-35.84 1011.89,-31.2"/>
<polygon fill="black" stroke="black" points="1012.75,-27.81 1002.16,-28.3 1010.74,-34.51 1012.75,-27.81"/>
<text text-anchor="middle" x="1118.5" y="-51.8" font-family="Times,serif" font-size="14.00">«include»</text>
</g>
<!-- polymorphic&#45;engine&#45;&gt;3d&#45;engine -->
<g id="edge24" class="edge">
<title>polymorphic&#45;engine&#45;&gt;3d&#45;engine</title>
<path fill="none" stroke="red" stroke-width="2" d="M844.14,-338.98C827.48,-334.44 810.26,-328.55 795,-321 785.36,-316.23 785.77,-310.5 776,-306 744.05,-291.28 705.5,-283.32 674.03,-279.02"/>
<polygon fill="red" stroke="red" stroke-width="2" points="674.44,-275.54 664.07,-277.75 673.55,-282.49 674.44,-275.54"/>
<text text-anchor="middle" x="816" y="-309.8" font-family="Times,serif" font-size="14.00">«use»</text>
</g>
<!-- polymorphic&#45;engine&#45;&gt;bbox&#45;engine -->
<g id="edge25" class="edge">
<title>polymorphic&#45;engine&#45;&gt;bbox&#45;engine</title>
<path fill="none" stroke="red" stroke-width="2" d="M919.37,-338.96C917.57,-303.45 911.45,-207.31 895,-129 894.44,-126.32 893.74,-123.54 892.98,-120.79"/>
<polygon fill="red" stroke="red" stroke-width="2" points="896.32,-119.74 890.07,-111.18 889.62,-121.77 896.32,-119.74"/>
<text text-anchor="middle" x="933" y="-228.8" font-family="Times,serif" font-size="14.00">«use»</text>
</g>
<!-- polymorphic&#45;engine&#45;&gt;core -->
<g id="edge15" class="edge">
<title>polymorphic&#45;engine&#45;&gt;core</title>
<path fill="none" stroke="black" d="M999.32,-347.4C1087,-338.98 1216,-318.94 1216,-274 1216,-274 1216,-274 1216,-95 1216,-61.47 1187.7,-61.48 1157,-48 1110.99,-27.8 1054.25,-20.11 1012.14,-17.3"/>
<polygon fill="black" stroke="black" points="1012.23,-13.8 1002.04,-16.7 1011.81,-20.78 1012.23,-13.8"/>
<text text-anchor="middle" x="1250.5" y="-188.3" font-family="Times,serif" font-size="14.00">«include»</text>
</g>
<!-- polymorphic&#45;engine&#45;&gt;mngm&#45;engine -->
<g id="edge26" class="edge">
<title>polymorphic&#45;engine&#45;&gt;mngm&#45;engine</title>
<path fill="none" stroke="red" stroke-width="2" d="M963.91,-338.91C992.41,-328.2 1029.11,-311.32 1056,-288 1108.06,-242.86 1122.03,-224.95 1142,-159 1145.77,-146.54 1143.65,-132.25 1140.31,-120.53"/>
<polygon fill="red" stroke="red" stroke-width="2" points="1143.62,-119.41 1137.17,-111.01 1136.98,-121.6 1143.62,-119.41"/>
<text text-anchor="middle" x="1135" y="-228.8" font-family="Times,serif" font-size="14.00">«use»</text>
</g>
<!-- profile -->
<g id="node16" class="node">
<title>profile</title>
<polygon fill="white" stroke="black" stroke-width="2" points="218,-369 118,-369 118,-339 218,-339 218,-369"/>
<text text-anchor="middle" x="168" y="-350.3" font-family="Times,serif" font-size="14.00">profile</text>
</g>
<!-- profile&#45;&gt;3d&#45;engine -->
<g id="edge16" class="edge">
<title>profile&#45;&gt;3d&#45;engine</title>
<path fill="none" stroke="black" d="M189.69,-338.9C207.73,-327.92 234.5,-313.37 260,-306 313.48,-290.55 467.4,-280.98 553.63,-276.68"/>
<polygon fill="black" stroke="black" points="553.98,-280.17 563.8,-276.18 553.64,-273.18 553.98,-280.17"/>
<text text-anchor="middle" x="294.5" y="-309.8" font-family="Times,serif" font-size="14.00">«include»</text>
</g>
<!-- template -->
<g id="node17" class="node">
<title>template</title>
<polygon fill="white" stroke="black" stroke-width="2" points="336,-369 236,-369 236,-339 336,-339 336,-369"/>
<text text-anchor="middle" x="286" y="-350.3" font-family="Times,serif" font-size="14.00">template</text>
</g>
<!-- template&#45;&gt;3d&#45;engine -->
<g id="edge17" class="edge">
<title>template&#45;&gt;3d&#45;engine</title>
<path fill="none" stroke="black" d="M304.44,-338.85C319.59,-328 342.05,-313.64 364,-306 426.38,-284.3 502.11,-277.06 553.76,-274.78"/>
<polygon fill="black" stroke="black" points="553.9,-278.28 563.76,-274.39 553.63,-271.28 553.9,-278.28"/>
<text text-anchor="middle" x="398.5" y="-309.8" font-family="Times,serif" font-size="14.00">«include»</text>
</g>
<!-- type_trait&#45;&gt;core -->
<g id="edge18" class="edge">
<title>type_trait&#45;&gt;core</title>
<path fill="none" stroke="black" d="M617.62,-128.75C619.04,-114.56 623.46,-93.17 637,-81 673.88,-47.84 811.27,-29.4 891.91,-21.22"/>
<polygon fill="black" stroke="black" points="892.33,-24.7 901.93,-20.23 891.64,-17.73 892.33,-24.7"/>
<text text-anchor="middle" x="671.5" y="-92.3" font-family="Times,serif" font-size="14.00">«include»</text>
</g>
<!-- unsafe_defs&#45;&gt;core -->
<g id="edge19" class="edge">
<title>unsafe_defs&#45;&gt;core</title>
<path fill="none" stroke="black" d="M995.52,-80.88C987.61,-69.08 976.18,-52.05 967.03,-38.4"/>
<polygon fill="black" stroke="black" points="969.87,-36.36 961.39,-30 964.06,-40.26 969.87,-36.36"/>
<text text-anchor="middle" x="1018.5" y="-51.8" font-family="Times,serif" font-size="14.00">«include»</text>
</g>
<!-- util&#45;&gt;3d&#45;engine -->
<g id="edge20" class="edge">
<title>util&#45;&gt;3d&#45;engine</title>
<path fill="none" stroke="black" d="M416.33,-338.88C426.46,-328.2 441.73,-314.04 458,-306 487.72,-291.3 523.84,-283.35 553.83,-279.05"/>
<polygon fill="black" stroke="black" points="554.3,-282.52 563.75,-277.73 553.38,-275.58 554.3,-282.52"/>
<text text-anchor="middle" x="492.5" y="-309.8" font-family="Times,serif" font-size="14.00">«include»</text>
</g>
</g>
</svg>
