<?xml version="1.0" encoding="UTF-8" standalone="no"?>
<!DOCTYPE svg PUBLIC "-//W3C//DTD SVG 1.1//EN"
 "http://www.w3.org/Graphics/SVG/1.1/DTD/svg11.dtd">
<!-- Generated by graphviz version 2.43.0 (0)
 -->
<!-- Title: foundation Pages: 1 -->
<svg width="1201pt" height="458pt"
 viewBox="0.00 0.00 1201.00 458.00" xmlns="http://www.w3.org/2000/svg" xmlns:xlink="http://www.w3.org/1999/xlink">
<g id="graph0" class="graph" transform="scale(1 1) rotate(0) translate(4 454)">
<title>foundation</title>
<polygon fill="white" stroke="transparent" points="-4,4 -4,-454 1197,-454 1197,4 -4,4"/>
<!-- 2d&#45;engine -->
<g id="node1" class="node">
<title>2d&#45;engine</title>
<polygon fill="white" stroke="black" stroke-width="2" points="283,-450 183,-450 183,-420 283,-420 283,-450"/>
<text text-anchor="middle" x="233" y="-431.3" font-family="Times,serif" font-size="14.00">2d&#45;engine</text>
</g>
<!-- bbox&#45;engine -->
<g id="node4" class="node">
<title>bbox&#45;engine</title>
<polygon fill="white" stroke="black" stroke-width="2" points="410.5,-111 307.5,-111 307.5,-81 410.5,-81 410.5,-111"/>
<text text-anchor="middle" x="359" y="-92.3" font-family="Times,serif" font-size="14.00">bbox&#45;engine</text>
</g>
<!-- 2d&#45;engine&#45;&gt;bbox&#45;engine -->
<g id="edge20" class="edge">
<title>2d&#45;engine&#45;&gt;bbox&#45;engine</title>
<path fill="none" stroke="red" stroke-width="2" d="M182.64,-431.07C147.07,-427.5 98.98,-419.58 60,-402 29.12,-388.07 0,-388.87 0,-355 0,-355 0,-355 0,-191 0,-130.35 194.2,-108.06 296.93,-100.52"/>
<polygon fill="red" stroke="red" stroke-width="2" points="297.45,-103.99 307.18,-99.79 296.96,-97.01 297.45,-103.99"/>
<text text-anchor="middle" x="21" y="-269.3" font-family="Times,serif" font-size="14.00">«use»</text>
</g>
<!-- mngm&#45;engine -->
<g id="node14" class="node">
<title>mngm&#45;engine</title>
<polygon fill="white" stroke="black" stroke-width="2" points="719,-369 605,-369 605,-339 719,-339 719,-369"/>
<text text-anchor="middle" x="662" y="-350.3" font-family="Times,serif" font-size="14.00">mngm&#45;engine</text>
</g>
<!-- 2d&#45;engine&#45;&gt;mngm&#45;engine -->
<g id="edge19" class="edge">
<title>2d&#45;engine&#45;&gt;mngm&#45;engine</title>
<path fill="none" stroke="red" stroke-width="2" d="M283.12,-431.53C378.82,-426.56 580.74,-414.71 610,-402 622.91,-396.39 634.76,-386.26 643.88,-376.84"/>
<polygon fill="red" stroke="red" stroke-width="2" points="646.7,-378.95 650.86,-369.21 641.53,-374.22 646.7,-378.95"/>
<text text-anchor="middle" x="653" y="-390.8" font-family="Times,serif" font-size="14.00">«use»</text>
</g>
<!-- unsafe_defs -->
<g id="node20" class="node">
<title>unsafe_defs</title>
<polygon fill="white" stroke="black" stroke-width="2" points="922.5,-288 821.5,-288 821.5,-258 922.5,-258 922.5,-288"/>
<text text-anchor="middle" x="872" y="-269.3" font-family="Times,serif" font-size="14.00">unsafe_defs</text>
</g>
<!-- 2d&#45;engine&#45;&gt;unsafe_defs -->
<g id="edge1" class="edge">
<title>2d&#45;engine&#45;&gt;unsafe_defs</title>
<path fill="none" stroke="black" d="M283.2,-430.99C332.72,-428.05 410.56,-423.52 478,-420 499.16,-418.9 843.62,-416.57 859,-402 886.75,-375.71 883.21,-327.37 877.81,-298.21"/>
<polygon fill="black" stroke="black" points="881.16,-297.14 875.71,-288.05 874.31,-298.56 881.16,-297.14"/>
<text text-anchor="middle" x="915.5" y="-350.3" font-family="Times,serif" font-size="14.00">«include»</text>
</g>
<!-- 3d&#45;engine -->
<g id="node2" class="node">
<title>3d&#45;engine</title>
<polygon fill="white" stroke="black" stroke-width="2" points="542,-288 442,-288 442,-258 542,-258 542,-288"/>
<text text-anchor="middle" x="492" y="-269.3" font-family="Times,serif" font-size="14.00">3d&#45;engine</text>
</g>
<!-- 3d&#45;engine&#45;&gt;2d&#45;engine -->
<g id="edge2" class="edge">
<title>3d&#45;engine&#45;&gt;2d&#45;engine</title>
<path fill="none" stroke="black" d="M441.88,-273.45C337.61,-273.5 103.01,-280.29 55,-339 17.4,-384.97 107.68,-411.72 172.95,-424.54"/>
<polygon fill="black" stroke="black" points="172.3,-427.98 182.78,-426.41 173.61,-421.11 172.3,-427.98"/>
<text text-anchor="middle" x="89.5" y="-350.3" font-family="Times,serif" font-size="14.00">«include»</text>
</g>
<!-- polymorphic&#45;engine -->
<g id="node15" class="node">
<title>polymorphic&#45;engine</title>
<polygon fill="white" stroke="black" stroke-width="2" points="636,-207 478,-207 478,-177 636,-177 636,-207"/>
<text text-anchor="middle" x="557" y="-188.3" font-family="Times,serif" font-size="14.00">polymorphic&#45;engine</text>
</g>
<!-- 3d&#45;engine&#45;&gt;polymorphic&#45;engine -->
<g id="edge21" class="edge">
<title>3d&#45;engine&#45;&gt;polymorphic&#45;engine</title>
<path fill="none" stroke="red" stroke-width="2" d="M488.67,-257.74C487.16,-247.81 486.89,-234.66 493,-225 495.99,-220.28 499.91,-216.22 504.33,-212.75"/>
<polygon fill="red" stroke="red" stroke-width="2" points="506.39,-215.59 512.75,-207.12 502.5,-209.77 506.39,-215.59"/>
<text text-anchor="middle" x="514" y="-228.8" font-family="Times,serif" font-size="14.00">«use»</text>
</g>
<!-- traits&#45;engine -->
<g id="node18" class="node">
<title>traits&#45;engine</title>
<polygon fill="white" stroke="black" stroke-width="2" points="742,-159 634,-159 634,-129 742,-129 742,-159"/>
<text text-anchor="middle" x="688" y="-140.3" font-family="Times,serif" font-size="14.00">traits&#45;engine</text>
</g>
<!-- 3d&#45;engine&#45;&gt;traits&#45;engine -->
<g id="edge3" class="edge">
<title>3d&#45;engine&#45;&gt;traits&#45;engine</title>
<path fill="none" stroke="black" d="M542.22,-267.85C614.11,-260.69 740.54,-243.18 766,-207 773.67,-196.1 773.43,-188.07 766,-177 762.11,-171.2 756.96,-166.45 751.16,-162.56"/>
<polygon fill="black" stroke="black" points="752.68,-159.4 742.26,-157.46 749.19,-165.47 752.68,-159.4"/>
<text text-anchor="middle" x="773.5" y="-228.8" font-family="Times,serif" font-size="14.00">«include»</text>
</g>
<!-- type&#45;engine -->
<g id="node19" class="node">
<title>type&#45;engine</title>
<polygon fill="white" stroke="black" stroke-width="2" points="756.5,-207 655.5,-207 655.5,-177 756.5,-177 756.5,-207"/>
<text text-anchor="middle" x="706" y="-188.3" font-family="Times,serif" font-size="14.00">type&#45;engine</text>
</g>
<!-- 3d&#45;engine&#45;&gt;type&#45;engine -->
<g id="edge22" class="edge">
<title>3d&#45;engine&#45;&gt;type&#45;engine</title>
<path fill="none" stroke="red" stroke-width="2" d="M537.11,-257.99C553.81,-252.62 572.85,-246.26 590,-240 614.62,-231 641.8,-220.05 663.66,-210.98"/>
<polygon fill="red" stroke="red" stroke-width="2" points="665.1,-214.17 672.99,-207.09 662.41,-207.71 665.1,-214.17"/>
<text text-anchor="middle" x="649" y="-228.8" font-family="Times,serif" font-size="14.00">«use»</text>
</g>
<!-- algo&#45;engine -->
<g id="node3" class="node">
<title>algo&#45;engine</title>
<polygon fill="white" stroke="black" stroke-width="2" points="233,-369 133,-369 133,-339 233,-339 233,-369"/>
<text text-anchor="middle" x="183" y="-350.3" font-family="Times,serif" font-size="14.00">algo&#45;engine</text>
</g>
<!-- algo&#45;engine&#45;&gt;3d&#45;engine -->
<g id="edge4" class="edge">
<title>algo&#45;engine&#45;&gt;3d&#45;engine</title>
<path fill="none" stroke="black" d="M197.97,-338.81C210.37,-327.93 228.98,-313.56 248,-306 307.43,-282.38 380.78,-275.44 431.46,-273.75"/>
<polygon fill="black" stroke="black" points="431.7,-277.25 441.6,-273.48 431.5,-270.25 431.7,-277.25"/>
<text text-anchor="middle" x="282.5" y="-309.8" font-family="Times,serif" font-size="14.00">«include»</text>
</g>
<!-- core -->
<g id="node7" class="node">
<title>core</title>
<polygon fill="white" stroke="black" stroke-width="2" points="667,-30 567,-30 567,0 667,0 667,-30"/>
<text text-anchor="middle" x="617" y="-11.3" font-family="Times,serif" font-size="14.00">core</text>
</g>
<!-- bbox&#45;engine&#45;&gt;core -->
<g id="edge5" class="edge">
<title>bbox&#45;engine&#45;&gt;core</title>
<path fill="none" stroke="black" d="M368.1,-80.62C375.76,-69.8 387.74,-55.58 402,-48 428.06,-34.14 502.54,-25.27 556.54,-20.47"/>
<polygon fill="black" stroke="black" points="557.05,-23.94 566.71,-19.59 556.45,-16.96 557.05,-23.94"/>
<text text-anchor="middle" x="436.5" y="-51.8" font-family="Times,serif" font-size="14.00">«include»</text>
</g>
<!-- components -->
<g id="node5" class="node">
<title>components</title>
<polygon fill="white" stroke="black" stroke-width="2" points="402.5,-207 299.5,-207 299.5,-177 402.5,-177 402.5,-207"/>
<text text-anchor="middle" x="351" y="-188.3" font-family="Times,serif" font-size="14.00">components</text>
</g>
<!-- components&#45;&gt;bbox&#45;engine -->
<g id="edge6" class="edge">
<title>components&#45;&gt;bbox&#45;engine</title>
<path fill="none" stroke="black" d="M350.43,-176.66C350.11,-164.06 350.11,-145.25 352,-129 352.3,-126.43 352.71,-123.76 353.19,-121.11"/>
<polygon fill="black" stroke="black" points="356.64,-121.74 355.25,-111.23 349.78,-120.31 356.64,-121.74"/>
<text text-anchor="middle" x="386.5" y="-140.3" font-family="Times,serif" font-size="14.00">«include»</text>
</g>
<!-- connect -->
<g id="node6" class="node">
<title>connect</title>
<polygon fill="white" stroke="black" stroke-width="2" points="837,-450 737,-450 737,-420 837,-420 837,-450"/>
<text text-anchor="middle" x="787" y="-431.3" font-family="Times,serif" font-size="14.00">connect</text>
</g>
<!-- util -->
<g id="node21" class="node">
<title>util</title>
<polygon fill="white" stroke="black" stroke-width="2" points="837,-369 737,-369 737,-339 837,-339 837,-369"/>
<text text-anchor="middle" x="787" y="-350.3" font-family="Times,serif" font-size="14.00">util</text>
</g>
<!-- connect&#45;&gt;util -->
<g id="edge7" class="edge">
<title>connect&#45;&gt;util</title>
<path fill="none" stroke="black" d="M787,-419.88C787,-408.64 787,-392.66 787,-379.37"/>
<polygon fill="black" stroke="black" points="790.5,-379 787,-369 783.5,-379 790.5,-379"/>
<text text-anchor="middle" x="821.5" y="-390.8" font-family="Times,serif" font-size="14.00">«include»</text>
</g>
<!-- dimensions -->
<g id="node8" class="node">
<title>dimensions</title>
<polygon fill="white" stroke="black" stroke-width="2" points="955,-450 855,-450 855,-420 955,-420 955,-450"/>
<text text-anchor="middle" x="905" y="-431.3" font-family="Times,serif" font-size="14.00">dimensions</text>
</g>
<!-- fillet -->
<g id="node9" class="node">
<title>fillet</title>
<polygon fill="white" stroke="black" stroke-width="2" points="351,-369 251,-369 251,-339 351,-339 351,-369"/>
<text text-anchor="middle" x="301" y="-350.3" font-family="Times,serif" font-size="14.00">fillet</text>
</g>
<!-- fillet&#45;&gt;3d&#45;engine -->
<g id="edge8" class="edge">
<title>fillet&#45;&gt;3d&#45;engine</title>
<path fill="none" stroke="black" d="M308.19,-338.84C314.37,-328.14 324.29,-313.98 337,-306 365.23,-288.29 401.5,-280.17 431.86,-276.54"/>
<polygon fill="black" stroke="black" points="432.34,-280.01 441.91,-275.48 431.6,-273.05 432.34,-280.01"/>
<text text-anchor="middle" x="371.5" y="-309.8" font-family="Times,serif" font-size="14.00">«include»</text>
</g>
<!-- grid -->
<g id="node10" class="node">
<title>grid</title>
<polygon fill="white" stroke="black" stroke-width="2" points="469,-369 369,-369 369,-339 469,-339 469,-369"/>
<text text-anchor="middle" x="419" y="-350.3" font-family="Times,serif" font-size="14.00">grid</text>
</g>
<!-- grid&#45;&gt;3d&#45;engine -->
<g id="edge9" class="edge">
<title>grid&#45;&gt;3d&#45;engine</title>
<path fill="none" stroke="black" d="M413.36,-338.67C410.43,-328.7 408.64,-315.54 415,-306 419.52,-299.23 425.77,-293.88 432.77,-289.67"/>
<polygon fill="black" stroke="black" points="434.7,-292.62 441.97,-284.92 431.48,-286.4 434.7,-292.62"/>
<text text-anchor="middle" x="449.5" y="-309.8" font-family="Times,serif" font-size="14.00">«include»</text>
</g>
<!-- hole -->
<g id="node11" class="node">
<title>hole</title>
<polygon fill="white" stroke="black" stroke-width="2" points="587,-450 487,-450 487,-420 587,-420 587,-450"/>
<text text-anchor="middle" x="537" y="-431.3" font-family="Times,serif" font-size="14.00">hole</text>
</g>
<!-- label -->
<g id="node12" class="node">
<title>label</title>
<polygon fill="white" stroke="black" stroke-width="2" points="587,-369 487,-369 487,-339 587,-339 587,-369"/>
<text text-anchor="middle" x="537" y="-350.3" font-family="Times,serif" font-size="14.00">label</text>
</g>
<!-- hole&#45;&gt;label -->
<g id="edge10" class="edge">
<title>hole&#45;&gt;label</title>
<path fill="none" stroke="black" d="M537,-419.88C537,-408.64 537,-392.66 537,-379.37"/>
<polygon fill="black" stroke="black" points="540.5,-379 537,-369 533.5,-379 540.5,-379"/>
<text text-anchor="middle" x="571.5" y="-390.8" font-family="Times,serif" font-size="14.00">«include»</text>
</g>
<!-- label&#45;&gt;3d&#45;engine -->
<g id="edge11" class="edge">
<title>label&#45;&gt;3d&#45;engine</title>
<path fill="none" stroke="black" d="M508.36,-338.77C501.81,-334.06 495.69,-328.16 492,-321 488.49,-314.2 487.55,-306.07 487.77,-298.5"/>
<polygon fill="black" stroke="black" points="491.27,-298.65 488.71,-288.37 484.3,-298.01 491.27,-298.65"/>
<text text-anchor="middle" x="526.5" y="-309.8" font-family="Times,serif" font-size="14.00">«include»</text>
</g>
<!-- limits -->
<g id="node13" class="node">
<title>limits</title>
<polygon fill="white" stroke="black" stroke-width="2" points="529,-111 429,-111 429,-81 529,-81 529,-111"/>
<text text-anchor="middle" x="479" y="-92.3" font-family="Times,serif" font-size="14.00">limits</text>
</g>
<!-- limits&#45;&gt;core -->
<g id="edge12" class="edge">
<title>limits&#45;&gt;core</title>
<path fill="none" stroke="black" d="M475.8,-80.62C474.41,-70.36 474.51,-56.87 482,-48 491.92,-36.25 525.52,-28.26 556.72,-23.2"/>
<polygon fill="black" stroke="black" points="557.38,-26.64 566.73,-21.66 556.32,-19.72 557.38,-26.64"/>
<text text-anchor="middle" x="516.5" y="-51.8" font-family="Times,serif" font-size="14.00">«include»</text>
</g>
<!-- mngm&#45;engine&#45;&gt;3d&#45;engine -->
<g id="edge23" class="edge">
<title>mngm&#45;engine&#45;&gt;3d&#45;engine</title>
<path fill="none" stroke="red" stroke-width="2" d="M623.66,-338.94C610.81,-333.79 596.57,-327.6 584,-321 573.2,-315.33 571.67,-311.92 561,-306 552.43,-301.25 543.03,-296.56 534,-292.3"/>
<polygon fill="red" stroke="red" stroke-width="2" points="535.32,-289.06 524.77,-288.04 532.38,-295.41 535.32,-289.06"/>
<text text-anchor="middle" x="605" y="-309.8" font-family="Times,serif" font-size="14.00">«use»</text>
</g>
<!-- mngm&#45;engine&#45;&gt;unsafe_defs -->
<g id="edge13" class="edge">
<title>mngm&#45;engine&#45;&gt;unsafe_defs</title>
<path fill="none" stroke="black" d="M699.54,-338.88C734.63,-325.68 787.15,-305.92 825.01,-291.68"/>
<polygon fill="black" stroke="black" points="826.65,-294.8 834.78,-288 824.19,-288.25 826.65,-294.8"/>
<text text-anchor="middle" x="819.5" y="-309.8" font-family="Times,serif" font-size="14.00">«include»</text>
</g>
<!-- polymorphic&#45;engine&#45;&gt;3d&#45;engine -->
<g id="edge24" class="edge">
<title>polymorphic&#45;engine&#45;&gt;3d&#45;engine</title>
<path fill="none" stroke="red" stroke-width="2" d="M552.45,-207.19C548.81,-217.09 542.97,-230.23 535,-240 531.63,-244.13 527.62,-248.01 523.41,-251.55"/>
<polygon fill="red" stroke="red" stroke-width="2" points="520.97,-249.02 515.22,-257.92 525.27,-254.55 520.97,-249.02"/>
<text text-anchor="middle" x="565" y="-228.8" font-family="Times,serif" font-size="14.00">«use»</text>
</g>
<!-- polymorphic&#45;engine&#45;&gt;bbox&#45;engine -->
<g id="edge25" class="edge">
<title>polymorphic&#45;engine&#45;&gt;bbox&#45;engine</title>
<path fill="none" stroke="red" stroke-width="2" d="M481.65,-176.97C468.43,-172.52 455.3,-166.67 444,-159 430.1,-149.56 433.89,-139.78 421,-129 415.25,-124.19 408.66,-119.84 401.97,-116"/>
<polygon fill="red" stroke="red" stroke-width="2" points="403.32,-112.75 392.85,-111.09 400,-118.91 403.32,-112.75"/>
<text text-anchor="middle" x="465" y="-140.3" font-family="Times,serif" font-size="14.00">«use»</text>
</g>
<!-- polymorphic&#45;engine&#45;&gt;core -->
<g id="edge14" class="edge">
<title>polymorphic&#45;engine&#45;&gt;core</title>
<path fill="none" stroke="black" d="M558.76,-176.73C561.69,-155.39 568.53,-114.11 581,-81 586.51,-66.38 594.86,-51.04 602.14,-38.94"/>
<polygon fill="black" stroke="black" points="605.15,-40.73 607.43,-30.38 599.19,-37.05 605.15,-40.73"/>
<text text-anchor="middle" x="615.5" y="-92.3" font-family="Times,serif" font-size="14.00">«include»</text>
</g>
<!-- polymorphic&#45;engine&#45;&gt;mngm&#45;engine -->
<g id="edge26" class="edge">
<title>polymorphic&#45;engine&#45;&gt;mngm&#45;engine</title>
<path fill="none" stroke="red" stroke-width="2" d="M594.43,-207.04C633.36,-223.91 692.17,-256.31 718,-306 723.65,-316.86 717.09,-326.21 706.73,-333.64"/>
<polygon fill="red" stroke="red" stroke-width="2" points="704.85,-330.69 698.2,-338.94 708.54,-336.63 704.85,-330.69"/>
<text text-anchor="middle" x="726" y="-269.3" font-family="Times,serif" font-size="14.00">«use»</text>
</g>
<!-- quaternions -->
<g id="node16" class="node">
<title>quaternions</title>
<polygon fill="white" stroke="black" stroke-width="2" points="1075,-450 973,-450 973,-420 1075,-420 1075,-450"/>
<text text-anchor="middle" x="1024" y="-431.3" font-family="Times,serif" font-size="14.00">quaternions</text>
</g>
<!-- template -->
<g id="node17" class="node">
<title>template</title>
<polygon fill="white" stroke="black" stroke-width="2" points="1193,-450 1093,-450 1093,-420 1193,-420 1193,-450"/>
<text text-anchor="middle" x="1143" y="-431.3" font-family="Times,serif" font-size="14.00">template</text>
</g>
<!-- traits&#45;engine&#45;&gt;core -->
<g id="edge15" class="edge">
<title>traits&#45;engine&#45;&gt;core</title>
<path fill="none" stroke="black" d="M680.13,-128.92C667.98,-107.18 644.51,-65.21 629.86,-39.01"/>
<polygon fill="black" stroke="black" points="632.84,-37.16 624.9,-30.14 626.73,-40.58 632.84,-37.16"/>
<text text-anchor="middle" x="704.5" y="-92.3" font-family="Times,serif" font-size="14.00">«include»</text>
</g>
<!-- type&#45;engine&#45;&gt;bbox&#45;engine -->
<g id="edge27" class="edge">
<title>type&#45;engine&#45;&gt;bbox&#45;engine</title>
<path fill="none" stroke="red" stroke-width="2" d="M655.29,-178.36C633.05,-172.67 606.66,-165.73 583,-159 539.6,-146.65 529.45,-141.18 486,-129 464.83,-123.06 441.54,-117.05 420.75,-111.86"/>
<polygon fill="red" stroke="red" stroke-width="2" points="421.31,-108.39 410.76,-109.38 419.62,-115.19 421.31,-108.39"/>
<text text-anchor="middle" x="604" y="-140.3" font-family="Times,serif" font-size="14.00">«use»</text>
</g>
<!-- type&#45;engine&#45;&gt;core -->
<g id="edge16" class="edge">
<title>type&#45;engine&#45;&gt;core</title>
<path fill="none" stroke="black" d="M734.64,-176.77C741.19,-172.06 747.31,-166.16 751,-159 766.98,-128.03 763.53,-109.16 743,-81 726.81,-58.79 700.77,-43.58 676.55,-33.5"/>
<polygon fill="black" stroke="black" points="677.61,-30.16 667.03,-29.75 675.05,-36.67 677.61,-30.16"/>
<text text-anchor="middle" x="793.5" y="-92.3" font-family="Times,serif" font-size="14.00">«include»</text>
</g>
<!-- unsafe_defs&#45;&gt;core -->
<g id="edge17" class="edge">
<title>unsafe_defs&#45;&gt;core</title>
<path fill="none" stroke="black" d="M873.44,-257.92C876.17,-223.17 878.2,-132.4 832,-81 793.06,-37.68 726.36,-22.78 677.56,-17.89"/>
<polygon fill="black" stroke="black" points="677.7,-14.39 667.43,-16.99 677.08,-21.36 677.7,-14.39"/>
<text text-anchor="middle" x="902.5" y="-140.3" font-family="Times,serif" font-size="14.00">«include»</text>
</g>
<!-- util&#45;&gt;3d&#45;engine -->
<g id="edge18" class="edge">
<title>util&#45;&gt;3d&#45;engine</title>
<path fill="none" stroke="black" d="M737.04,-338.94C717.65,-333.43 695.26,-327 675,-321 653.16,-314.54 647.98,-311.98 626,-306 601.98,-299.46 575.33,-292.95 552.17,-287.52"/>
<polygon fill="black" stroke="black" points="552.67,-284.05 542.14,-285.19 551.09,-290.86 552.67,-284.05"/>
<text text-anchor="middle" x="709.5" y="-309.8" font-family="Times,serif" font-size="14.00">«include»</text>
</g>
</g>
</svg>
