<?xml version="1.0" encoding="UTF-8" standalone="no"?>
<!DOCTYPE svg PUBLIC "-//W3C//DTD SVG 1.1//EN"
 "http://www.w3.org/Graphics/SVG/1.1/DTD/svg11.dtd">
<!-- Generated by graphviz version 5.0.0 (0)
 -->
<!-- Title: foundation Pages: 1 -->
<svg width="835pt" height="458pt"
 viewBox="0.00 0.00 835.00 458.00" xmlns="http://www.w3.org/2000/svg" xmlns:xlink="http://www.w3.org/1999/xlink">
<g id="graph0" class="graph" transform="scale(1 1) rotate(0) translate(4 454)">
<title>foundation</title>
<polygon fill="white" stroke="transparent" points="-4,4 -4,-454 831,-454 831,4 -4,4"/>
<!-- 2d&#45;engine -->
<g id="node1" class="node">
<title>2d&#45;engine</title>
<polygon fill="white" stroke="black" stroke-width="2" points="564,-207 464,-207 464,-177 564,-177 564,-207"/>
<text text-anchor="middle" x="514" y="-188.3" font-family="Times,serif" font-size="14.00">2d&#45;engine</text>
</g>
<!-- bbox&#45;engine -->
<g id="node4" class="node">
<title>bbox&#45;engine</title>
<polygon fill="white" stroke="black" stroke-width="2" points="436,-111 332,-111 332,-81 436,-81 436,-111"/>
<text text-anchor="middle" x="384" y="-92.3" font-family="Times,serif" font-size="14.00">bbox&#45;engine</text>
</g>
<!-- 2d&#45;engine&#45;&gt;bbox&#45;engine -->
<g id="edge21" class="edge">
<title>2d&#45;engine&#45;&gt;bbox&#45;engine</title>
<path fill="none" stroke="red" stroke-width="2" d="M489.8,-176.93C480.91,-171.55 470.85,-165.21 462,-159 443.48,-146.01 423.52,-130.11 408.43,-117.67"/>
<polygon fill="red" stroke="red" stroke-width="2" points="410.52,-114.85 400.59,-111.15 406.05,-120.23 410.52,-114.85"/>
<text text-anchor="middle" x="483" y="-140.3" font-family="Times,serif" font-size="14.00">«use»</text>
</g>
<!-- mngm -->
<g id="node14" class="node">
<title>mngm</title>
<polygon fill="white" stroke="black" stroke-width="2" points="554,-111 454,-111 454,-81 554,-81 554,-111"/>
<text text-anchor="middle" x="504" y="-92.3" font-family="Times,serif" font-size="14.00">mngm</text>
</g>
<!-- 2d&#45;engine&#45;&gt;mngm -->
<g id="edge2" class="edge">
<title>2d&#45;engine&#45;&gt;mngm</title>
<path fill="none" stroke="black" d="M512.48,-176.72C510.92,-162.01 508.45,-138.79 506.57,-121.2"/>
<polygon fill="black" stroke="black" points="510.04,-120.68 505.5,-111.1 503.08,-121.42 510.04,-120.68"/>
<text text-anchor="middle" x="545.5" y="-140.3" font-family="Times,serif" font-size="14.00">«include»</text>
</g>
<!-- unsafe_defs -->
<g id="node18" class="node">
<title>unsafe_defs</title>
<polygon fill="white" stroke="black" stroke-width="2" points="673.5,-111 572.5,-111 572.5,-81 673.5,-81 673.5,-111"/>
<text text-anchor="middle" x="623" y="-92.3" font-family="Times,serif" font-size="14.00">unsafe_defs</text>
</g>
<!-- 2d&#45;engine&#45;&gt;unsafe_defs -->
<g id="edge1" class="edge">
<title>2d&#45;engine&#45;&gt;unsafe_defs</title>
<path fill="none" stroke="black" d="M555.26,-176.92C565.36,-172.24 575.65,-166.31 584,-159 596.12,-148.39 605.8,-133.09 612.48,-120.35"/>
<polygon fill="black" stroke="black" points="615.7,-121.74 617,-111.22 609.43,-118.63 615.7,-121.74"/>
<text text-anchor="middle" x="642.5" y="-140.3" font-family="Times,serif" font-size="14.00">«include»</text>
</g>
<!-- 3d&#45;engine -->
<g id="node2" class="node">
<title>3d&#45;engine</title>
<polygon fill="white" stroke="black" stroke-width="2" points="454,-288 354,-288 354,-258 454,-258 454,-288"/>
<text text-anchor="middle" x="404" y="-269.3" font-family="Times,serif" font-size="14.00">3d&#45;engine</text>
</g>
<!-- 3d&#45;engine&#45;&gt;2d&#45;engine -->
<g id="edge3" class="edge">
<title>3d&#45;engine&#45;&gt;2d&#45;engine</title>
<path fill="none" stroke="black" d="M414.8,-257.94C423.08,-247.84 435.22,-234.41 448,-225 454.63,-220.11 462.13,-215.65 469.62,-211.72"/>
<polygon fill="black" stroke="black" points="471.67,-214.61 479.06,-207.02 468.55,-208.34 471.67,-214.61"/>
<text text-anchor="middle" x="482.5" y="-228.8" font-family="Times,serif" font-size="14.00">«include»</text>
</g>
<!-- 3d&#45;engine&#45;&gt;bbox&#45;engine -->
<g id="edge22" class="edge">
<title>3d&#45;engine&#45;&gt;bbox&#45;engine</title>
<path fill="none" stroke="red" stroke-width="2" d="M403.02,-257.74C401.16,-231.96 396.68,-175.92 390,-129 389.64,-126.45 389.21,-123.8 388.76,-121.16"/>
<polygon fill="red" stroke="red" stroke-width="2" points="392.2,-120.5 386.96,-111.29 385.31,-121.76 392.2,-120.5"/>
<text text-anchor="middle" x="420" y="-188.3" font-family="Times,serif" font-size="14.00">«use»</text>
</g>
<!-- type_trait -->
<g id="node17" class="node">
<title>type_trait</title>
<polygon fill="white" stroke="black" stroke-width="2" points="291,-159 191,-159 191,-129 291,-129 291,-159"/>
<text text-anchor="middle" x="241" y="-140.3" font-family="Times,serif" font-size="14.00">type_trait</text>
</g>
<!-- 3d&#45;engine&#45;&gt;type_trait -->
<g id="edge4" class="edge">
<title>3d&#45;engine&#45;&gt;type_trait</title>
<path fill="none" stroke="black" d="M353.7,-262.29C321.27,-253.39 280.85,-236.88 257,-207 248.47,-196.32 244.44,-181.59 242.56,-169.17"/>
<polygon fill="black" stroke="black" points="246.01,-168.55 241.4,-159.01 239.06,-169.34 246.01,-168.55"/>
<text text-anchor="middle" x="332.5" y="-228.8" font-family="Times,serif" font-size="14.00">«include»</text>
</g>
<!-- algo&#45;engine -->
<g id="node3" class="node">
<title>algo&#45;engine</title>
<polygon fill="white" stroke="black" stroke-width="2" points="100,-369 0,-369 0,-339 100,-339 100,-369"/>
<text text-anchor="middle" x="50" y="-350.3" font-family="Times,serif" font-size="14.00">algo&#45;engine</text>
</g>
<!-- algo&#45;engine&#45;&gt;3d&#45;engine -->
<g id="edge5" class="edge">
<title>algo&#45;engine&#45;&gt;3d&#45;engine</title>
<path fill="none" stroke="black" d="M71.86,-338.88C89.72,-328.05 116.02,-313.7 141,-306 208.52,-285.19 289.69,-277.84 343.83,-275.28"/>
<polygon fill="black" stroke="black" points="344.11,-278.77 353.95,-274.84 343.81,-271.78 344.11,-278.77"/>
<text text-anchor="middle" x="175.5" y="-309.8" font-family="Times,serif" font-size="14.00">«include»</text>
</g>
<!-- core -->
<g id="node7" class="node">
<title>core</title>
<polygon fill="white" stroke="black" stroke-width="2" points="434,-30 334,-30 334,0 434,0 434,-30"/>
<text text-anchor="middle" x="384" y="-11.3" font-family="Times,serif" font-size="14.00">core</text>
</g>
<!-- bbox&#45;engine&#45;&gt;core -->
<g id="edge6" class="edge">
<title>bbox&#45;engine&#45;&gt;core</title>
<path fill="none" stroke="black" d="M384,-80.88C384,-69.64 384,-53.66 384,-40.37"/>
<polygon fill="black" stroke="black" points="387.5,-40 384,-30 380.5,-40 387.5,-40"/>
<text text-anchor="middle" x="418.5" y="-51.8" font-family="Times,serif" font-size="14.00">«include»</text>
</g>
<!-- components -->
<g id="node5" class="node">
<title>components</title>
<polygon fill="white" stroke="black" stroke-width="2" points="368,-207 266,-207 266,-177 368,-177 368,-207"/>
<text text-anchor="middle" x="317" y="-188.3" font-family="Times,serif" font-size="14.00">components</text>
</g>
<!-- components&#45;&gt;bbox&#45;engine -->
<g id="edge7" class="edge">
<title>components&#45;&gt;bbox&#45;engine</title>
<path fill="none" stroke="black" d="M314.19,-176.96C312.3,-163.51 311.62,-143.23 321,-129 324.12,-124.26 328.17,-120.19 332.71,-116.7"/>
<polygon fill="black" stroke="black" points="334.9,-119.45 341.32,-111.03 331.05,-113.61 334.9,-119.45"/>
<text text-anchor="middle" x="355.5" y="-140.3" font-family="Times,serif" font-size="14.00">«include»</text>
</g>
<!-- connect -->
<g id="node6" class="node">
<title>connect</title>
<polygon fill="white" stroke="black" stroke-width="2" points="808,-450 708,-450 708,-420 808,-420 808,-450"/>
<text text-anchor="middle" x="758" y="-431.3" font-family="Times,serif" font-size="14.00">connect</text>
</g>
<!-- util -->
<g id="node19" class="node">
<title>util</title>
<polygon fill="white" stroke="black" stroke-width="2" points="808,-369 708,-369 708,-339 808,-339 808,-369"/>
<text text-anchor="middle" x="758" y="-350.3" font-family="Times,serif" font-size="14.00">util</text>
</g>
<!-- connect&#45;&gt;util -->
<g id="edge8" class="edge">
<title>connect&#45;&gt;util</title>
<path fill="none" stroke="black" d="M758,-419.88C758,-408.64 758,-392.66 758,-379.37"/>
<polygon fill="black" stroke="black" points="761.5,-379 758,-369 754.5,-379 761.5,-379"/>
<text text-anchor="middle" x="792.5" y="-390.8" font-family="Times,serif" font-size="14.00">«include»</text>
</g>
<!-- drawio -->
<g id="node8" class="node">
<title>drawio</title>
<polygon fill="white" stroke="black" stroke-width="2" points="579,-288 479,-288 479,-258 579,-258 579,-288"/>
<text text-anchor="middle" x="529" y="-269.3" font-family="Times,serif" font-size="14.00">drawio</text>
</g>
<!-- drawio&#45;&gt;2d&#45;engine -->
<g id="edge9" class="edge">
<title>drawio&#45;&gt;2d&#45;engine</title>
<path fill="none" stroke="black" d="M526.32,-257.88C524.16,-246.53 521.09,-230.34 518.55,-216.97"/>
<polygon fill="black" stroke="black" points="521.96,-216.17 516.66,-207 515.09,-217.48 521.96,-216.17"/>
<text text-anchor="middle" x="557.5" y="-228.8" font-family="Times,serif" font-size="14.00">«include»</text>
</g>
<!-- fillet -->
<g id="node9" class="node">
<title>fillet</title>
<polygon fill="white" stroke="black" stroke-width="2" points="218,-369 118,-369 118,-339 218,-339 218,-369"/>
<text text-anchor="middle" x="168" y="-350.3" font-family="Times,serif" font-size="14.00">fillet</text>
</g>
<!-- fillet&#45;&gt;3d&#45;engine -->
<g id="edge10" class="edge">
<title>fillet&#45;&gt;3d&#45;engine</title>
<path fill="none" stroke="black" d="M185.54,-338.98C199.71,-328.35 220.59,-314.22 241,-306 273.71,-292.82 312.35,-284.94 343.8,-280.29"/>
<polygon fill="black" stroke="black" points="344.33,-283.75 353.75,-278.89 343.36,-276.82 344.33,-283.75"/>
<text text-anchor="middle" x="275.5" y="-309.8" font-family="Times,serif" font-size="14.00">«include»</text>
</g>
<!-- grid -->
<g id="node10" class="node">
<title>grid</title>
<polygon fill="white" stroke="black" stroke-width="2" points="336,-369 236,-369 236,-339 336,-339 336,-369"/>
<text text-anchor="middle" x="286" y="-350.3" font-family="Times,serif" font-size="14.00">grid</text>
</g>
<!-- grid&#45;&gt;3d&#45;engine -->
<g id="edge11" class="edge">
<title>grid&#45;&gt;3d&#45;engine</title>
<path fill="none" stroke="black" d="M297,-338.81C305.45,-328.65 317.85,-315.19 331,-306 338.33,-300.87 346.62,-296.29 354.91,-292.31"/>
<polygon fill="black" stroke="black" points="356.57,-295.4 364.22,-288.08 353.67,-289.03 356.57,-295.4"/>
<text text-anchor="middle" x="365.5" y="-309.8" font-family="Times,serif" font-size="14.00">«include»</text>
</g>
<!-- hole -->
<g id="node11" class="node">
<title>hole</title>
<polygon fill="white" stroke="black" stroke-width="2" points="454,-450 354,-450 354,-420 454,-420 454,-450"/>
<text text-anchor="middle" x="404" y="-431.3" font-family="Times,serif" font-size="14.00">hole</text>
</g>
<!-- label -->
<g id="node12" class="node">
<title>label</title>
<polygon fill="white" stroke="black" stroke-width="2" points="454,-369 354,-369 354,-339 454,-339 454,-369"/>
<text text-anchor="middle" x="404" y="-350.3" font-family="Times,serif" font-size="14.00">label</text>
</g>
<!-- hole&#45;&gt;label -->
<g id="edge12" class="edge">
<title>hole&#45;&gt;label</title>
<path fill="none" stroke="black" d="M404,-419.88C404,-408.64 404,-392.66 404,-379.37"/>
<polygon fill="black" stroke="black" points="407.5,-379 404,-369 400.5,-379 407.5,-379"/>
<text text-anchor="middle" x="438.5" y="-390.8" font-family="Times,serif" font-size="14.00">«include»</text>
</g>
<!-- label&#45;&gt;3d&#45;engine -->
<g id="edge13" class="edge">
<title>label&#45;&gt;3d&#45;engine</title>
<path fill="none" stroke="black" d="M404,-338.88C404,-327.64 404,-311.66 404,-298.37"/>
<polygon fill="black" stroke="black" points="407.5,-298 404,-288 400.5,-298 407.5,-298"/>
<text text-anchor="middle" x="438.5" y="-309.8" font-family="Times,serif" font-size="14.00">«include»</text>
</g>
<!-- limits -->
<g id="node13" class="node">
<title>limits</title>
<polygon fill="white" stroke="black" stroke-width="2" points="209,-111 109,-111 109,-81 209,-81 209,-111"/>
<text text-anchor="middle" x="159" y="-92.3" font-family="Times,serif" font-size="14.00">limits</text>
</g>
<!-- limits&#45;&gt;core -->
<g id="edge14" class="edge">
<title>limits&#45;&gt;core</title>
<path fill="none" stroke="black" d="M155.63,-80.85C154.06,-70.44 154.01,-56.65 162,-48 183.25,-24.99 265.43,-18.27 323.59,-16.44"/>
<polygon fill="black" stroke="black" points="323.89,-19.93 333.79,-16.16 323.7,-12.94 323.89,-19.93"/>
<text text-anchor="middle" x="196.5" y="-51.8" font-family="Times,serif" font-size="14.00">«include»</text>
</g>
<!-- mngm&#45;&gt;core -->
<g id="edge15" class="edge">
<title>mngm&#45;&gt;core</title>
<path fill="none" stroke="black" d="M492.39,-80.84C483.51,-70.69 470.53,-57.24 457,-48 449.45,-42.84 440.93,-38.21 432.45,-34.19"/>
<polygon fill="black" stroke="black" points="433.86,-30.98 423.3,-30.05 430.98,-37.36 433.86,-30.98"/>
<text text-anchor="middle" x="510.5" y="-51.8" font-family="Times,serif" font-size="14.00">«include»</text>
</g>
<!-- profile -->
<g id="node15" class="node">
<title>profile</title>
<polygon fill="white" stroke="black" stroke-width="2" points="572,-369 472,-369 472,-339 572,-339 572,-369"/>
<text text-anchor="middle" x="522" y="-350.3" font-family="Times,serif" font-size="14.00">profile</text>
</g>
<!-- profile&#45;&gt;3d&#45;engine -->
<g id="edge16" class="edge">
<title>profile&#45;&gt;3d&#45;engine</title>
<path fill="none" stroke="black" d="M511,-338.81C502.55,-328.65 490.15,-315.19 477,-306 469.67,-300.87 461.38,-296.29 453.09,-292.31"/>
<polygon fill="black" stroke="black" points="454.33,-289.03 443.78,-288.08 451.43,-295.4 454.33,-289.03"/>
<text text-anchor="middle" x="529.5" y="-309.8" font-family="Times,serif" font-size="14.00">«include»</text>
</g>
<!-- template -->
<g id="node16" class="node">
<title>template</title>
<polygon fill="white" stroke="black" stroke-width="2" points="690,-369 590,-369 590,-339 690,-339 690,-369"/>
<text text-anchor="middle" x="640" y="-350.3" font-family="Times,serif" font-size="14.00">template</text>
</g>
<!-- template&#45;&gt;3d&#45;engine -->
<g id="edge17" class="edge">
<title>template&#45;&gt;3d&#45;engine</title>
<path fill="none" stroke="black" d="M622.75,-338.9C608.81,-328.23 588.24,-314.08 568,-306 526.87,-289.57 513.44,-296.6 470,-288 468.06,-287.62 466.09,-287.22 464.1,-286.82"/>
<polygon fill="black" stroke="black" points="464.56,-283.34 454.06,-284.77 463.16,-290.2 464.56,-283.34"/>
<text text-anchor="middle" x="630.5" y="-309.8" font-family="Times,serif" font-size="14.00">«include»</text>
</g>
<!-- type_trait&#45;&gt;core -->
<g id="edge18" class="edge">
<title>type_trait&#45;&gt;core</title>
<path fill="none" stroke="black" d="M240.59,-128.75C240.92,-115.15 243.39,-94.76 254,-81 271.49,-58.32 299.02,-42.97 324.26,-32.92"/>
<polygon fill="black" stroke="black" points="325.67,-36.12 333.79,-29.32 323.2,-29.58 325.67,-36.12"/>
<text text-anchor="middle" x="288.5" y="-92.3" font-family="Times,serif" font-size="14.00">«include»</text>
</g>
<!-- unsafe_defs&#45;&gt;core -->
<g id="edge19" class="edge">
<title>unsafe_defs&#45;&gt;core</title>
<path fill="none" stroke="black" d="M605.19,-80.97C590.81,-70.35 569.65,-56.22 549,-48 515.61,-34.71 476.15,-26.8 444.2,-22.17"/>
<polygon fill="black" stroke="black" points="444.49,-18.68 434.1,-20.78 443.53,-25.61 444.49,-18.68"/>
<text text-anchor="middle" x="611.5" y="-51.8" font-family="Times,serif" font-size="14.00">«include»</text>
</g>
<!-- util&#45;&gt;3d&#45;engine -->
<g id="edge20" class="edge">
<title>util&#45;&gt;3d&#45;engine</title>
<path fill="none" stroke="black" d="M737.08,-338.89C719.67,-327.91 693.8,-313.35 669,-306 583.85,-280.77 557.81,-301.24 470,-288 468.09,-287.71 466.15,-287.4 464.19,-287.08"/>
<polygon fill="black" stroke="black" points="464.79,-283.63 454.34,-285.32 463.57,-290.52 464.79,-283.63"/>
<text text-anchor="middle" x="738.5" y="-309.8" font-family="Times,serif" font-size="14.00">«include»</text>
</g>
</g>
</svg>
