<?xml version="1.0" encoding="UTF-8" standalone="no"?>
<!DOCTYPE svg PUBLIC "-//W3C//DTD SVG 1.1//EN"
 "http://www.w3.org/Graphics/SVG/1.1/DTD/svg11.dtd">
<!-- Generated by graphviz version 12.1.0 (20240811.2233)
 -->
<!-- Title: foundation Pages: 1 -->
<svg width="1102pt" height="621pt"
 viewBox="0.00 0.00 1102.00 620.75" xmlns="http://www.w3.org/2000/svg" xmlns:xlink="http://www.w3.org/1999/xlink">
<g id="graph0" class="graph" transform="scale(1 1) rotate(0) translate(4 616.75)">
<title>foundation</title>
<polygon fill="white" stroke="none" points="-4,4 -4,-616.75 1098,-616.75 1098,4 -4,4"/>
<!-- 2d&#45;engine -->
<g id="node1" class="node">
<title>2d&#45;engine</title>
<polygon fill="white" stroke="black" stroke-width="2" points="336,-363 236,-363 236,-333 336,-333 336,-363"/>
<text text-anchor="middle" x="286" y="-343.33" font-family="Times,serif" font-size="14.00">2d&#45;engine</text>
</g>
<!-- bbox&#45;engine -->
<g id="node4" class="node">
<title>bbox&#45;engine</title>
<polygon fill="white" stroke="black" stroke-width="2" points="442.13,-196.5 339.88,-196.5 339.88,-166.5 442.13,-166.5 442.13,-196.5"/>
<text text-anchor="middle" x="391" y="-176.83" font-family="Times,serif" font-size="14.00">bbox&#45;engine</text>
</g>
<!-- 2d&#45;engine&#45;&gt;bbox&#45;engine -->
<g id="edge18" class="edge">
<title>2d&#45;engine&#45;&gt;bbox&#45;engine</title>
<path fill="none" stroke="red" stroke-width="2" d="M310.85,-332.08C317.85,-327.18 325.15,-321.34 331,-315 359.08,-284.55 375.81,-238.73 384.2,-209.73"/>
<polygon fill="red" stroke="red" stroke-width="2" points="387.53,-210.84 386.78,-200.27 380.78,-209 387.53,-210.84"/>
<text text-anchor="middle" x="390.88" y="-260.08" font-family="Times,serif" font-size="14.00">«use»</text>
</g>
<!-- mngm&#45;engine -->
<g id="node15" class="node">
<title>mngm&#45;engine</title>
<polygon fill="white" stroke="black" stroke-width="2" points="342.75,-279.75 229.25,-279.75 229.25,-249.75 342.75,-249.75 342.75,-279.75"/>
<text text-anchor="middle" x="286" y="-260.08" font-family="Times,serif" font-size="14.00">mngm&#45;engine</text>
</g>
<!-- 2d&#45;engine&#45;&gt;mngm&#45;engine -->
<g id="edge17" class="edge">
<title>2d&#45;engine&#45;&gt;mngm&#45;engine</title>
<path fill="none" stroke="red" stroke-width="2" d="M286,-332.1C286,-321.33 286,-306.47 286,-293.54"/>
<polygon fill="red" stroke="red" stroke-width="2" points="289.5,-293.59 286,-283.59 282.5,-293.59 289.5,-293.59"/>
<text text-anchor="middle" x="306.63" y="-301.7" font-family="Times,serif" font-size="14.00">«use»</text>
</g>
<!-- unsafe_defs -->
<g id="node20" class="node">
<title>unsafe_defs</title>
<polygon fill="white" stroke="black" stroke-width="2" points="322,-196.5 222,-196.5 222,-166.5 322,-166.5 322,-196.5"/>
<text text-anchor="middle" x="272" y="-176.83" font-family="Times,serif" font-size="14.00">unsafe_defs</text>
</g>
<!-- 2d&#45;engine&#45;&gt;unsafe_defs -->
<g id="edge1" class="edge">
<title>2d&#45;engine&#45;&gt;unsafe_defs</title>
<path fill="none" stroke="black" d="M235.08,-335.67C205.22,-326.12 169.9,-309.14 151.75,-279.75 130.79,-245.81 174.66,-218.51 215.17,-201.57"/>
<polygon fill="black" stroke="black" points="216.24,-204.92 224.22,-197.95 213.64,-198.42 216.24,-204.92"/>
<text text-anchor="middle" x="185.88" y="-260.08" font-family="Times,serif" font-size="14.00">«include»</text>
</g>
<!-- 3d&#45;engine -->
<g id="node2" class="node">
<title>3d&#45;engine</title>
<polygon fill="white" stroke="black" stroke-width="2" points="336,-446.25 236,-446.25 236,-416.25 336,-416.25 336,-446.25"/>
<text text-anchor="middle" x="286" y="-426.58" font-family="Times,serif" font-size="14.00">3d&#45;engine</text>
</g>
<!-- 3d&#45;engine&#45;&gt;2d&#45;engine -->
<g id="edge2" class="edge">
<title>3d&#45;engine&#45;&gt;2d&#45;engine</title>
<path fill="none" stroke="black" d="M286,-415.35C286,-404.12 286,-388.45 286,-375.15"/>
<polygon fill="black" stroke="black" points="289.5,-375.32 286,-365.32 282.5,-375.32 289.5,-375.32"/>
<text text-anchor="middle" x="320.13" y="-384.95" font-family="Times,serif" font-size="14.00">«include»</text>
</g>
<!-- traits&#45;engine -->
<g id="node18" class="node">
<title>traits&#45;engine</title>
<polygon fill="white" stroke="black" stroke-width="2" points="234.75,-30 127.25,-30 127.25,0 234.75,0 234.75,-30"/>
<text text-anchor="middle" x="181" y="-10.33" font-family="Times,serif" font-size="14.00">traits&#45;engine</text>
</g>
<!-- 3d&#45;engine&#45;&gt;traits&#45;engine -->
<g id="edge19" class="edge">
<title>3d&#45;engine&#45;&gt;traits&#45;engine</title>
<path fill="none" stroke="red" stroke-width="2" d="M235.16,-421.05C173.01,-408.32 76,-383.01 76,-349 76,-349 76,-349 76,-97.25 76,-69.17 99.78,-49.41 124.71,-36.42"/>
<polygon fill="red" stroke="red" stroke-width="2" points="125.94,-39.71 133.44,-32.23 122.91,-33.4 125.94,-39.71"/>
<text text-anchor="middle" x="96.63" y="-218.45" font-family="Times,serif" font-size="14.00">«use»</text>
</g>
<!-- type&#45;engine -->
<g id="node19" class="node">
<title>type&#45;engine</title>
<polygon fill="white" stroke="black" stroke-width="2" points="658,-279.75 558,-279.75 558,-249.75 658,-249.75 658,-279.75"/>
<text text-anchor="middle" x="608" y="-260.08" font-family="Times,serif" font-size="14.00">type&#45;engine</text>
</g>
<!-- 3d&#45;engine&#45;&gt;type&#45;engine -->
<g id="edge20" class="edge">
<title>3d&#45;engine&#45;&gt;type&#45;engine</title>
<path fill="none" stroke="red" stroke-width="2" d="M321.01,-415.27C332.84,-410.05 346.07,-404.05 358,-398.25 434.31,-361.13 521.48,-313.77 570.09,-286.89"/>
<polygon fill="red" stroke="red" stroke-width="2" points="571.61,-290.06 578.66,-282.15 568.22,-283.93 571.61,-290.06"/>
<text text-anchor="middle" x="504.7" y="-343.33" font-family="Times,serif" font-size="14.00">«use»</text>
</g>
<!-- algo&#45;engine -->
<g id="node3" class="node">
<title>algo&#45;engine</title>
<polygon fill="white" stroke="black" stroke-width="2" points="100,-529.5 0,-529.5 0,-499.5 100,-499.5 100,-529.5"/>
<text text-anchor="middle" x="50" y="-509.83" font-family="Times,serif" font-size="14.00">algo&#45;engine</text>
</g>
<!-- algo&#45;engine&#45;&gt;3d&#45;engine -->
<g id="edge3" class="edge">
<title>algo&#45;engine&#45;&gt;3d&#45;engine</title>
<path fill="none" stroke="black" d="M67.37,-498.53C81.21,-487.4 101.55,-472.72 121.75,-464.25 154.08,-450.69 192.43,-442.81 223.94,-438.26"/>
<polygon fill="black" stroke="black" points="224.28,-441.75 233.72,-436.93 223.34,-434.81 224.28,-441.75"/>
<text text-anchor="middle" x="155.88" y="-468.2" font-family="Times,serif" font-size="14.00">«include»</text>
</g>
<!-- core -->
<g id="node7" class="node">
<title>core</title>
<polygon fill="white" stroke="black" stroke-width="2" points="322,-113.25 222,-113.25 222,-83.25 322,-83.25 322,-113.25"/>
<text text-anchor="middle" x="272" y="-93.58" font-family="Times,serif" font-size="14.00">core</text>
</g>
<!-- bbox&#45;engine&#45;&gt;core -->
<g id="edge4" class="edge">
<title>bbox&#45;engine&#45;&gt;core</title>
<path fill="none" stroke="black" d="M379.5,-165.65C370.68,-155.01 357.72,-140.91 344,-131.25 337.54,-126.7 330.33,-122.58 323.04,-118.92"/>
<polygon fill="black" stroke="black" points="325.01,-115.98 314.48,-114.86 322.02,-122.31 325.01,-115.98"/>
<text text-anchor="middle" x="397.89" y="-135.2" font-family="Times,serif" font-size="14.00">«include»</text>
</g>
<!-- components -->
<g id="node5" class="node">
<title>components</title>
<polygon fill="white" stroke="black" stroke-width="2" points="540.13,-279.75 437.88,-279.75 437.88,-249.75 540.13,-249.75 540.13,-279.75"/>
<text text-anchor="middle" x="489" y="-260.08" font-family="Times,serif" font-size="14.00">components</text>
</g>
<!-- components&#45;&gt;bbox&#45;engine -->
<g id="edge5" class="edge">
<title>components&#45;&gt;bbox&#45;engine</title>
<path fill="none" stroke="black" d="M471.03,-248.85C455.97,-236.36 434.27,-218.37 417.27,-204.28"/>
<polygon fill="black" stroke="black" points="419.96,-201.96 410.03,-198.27 415.49,-207.35 419.96,-201.96"/>
<text text-anchor="middle" x="482.9" y="-218.45" font-family="Times,serif" font-size="14.00">«include»</text>
</g>
<!-- connect -->
<g id="node6" class="node">
<title>connect</title>
<polygon fill="white" stroke="black" stroke-width="2" points="572,-612.75 472,-612.75 472,-582.75 572,-582.75 572,-612.75"/>
<text text-anchor="middle" x="522" y="-593.08" font-family="Times,serif" font-size="14.00">connect</text>
</g>
<!-- util -->
<g id="node21" class="node">
<title>util</title>
<polygon fill="white" stroke="black" stroke-width="2" points="572,-529.5 472,-529.5 472,-499.5 572,-499.5 572,-529.5"/>
<text text-anchor="middle" x="522" y="-509.83" font-family="Times,serif" font-size="14.00">util</text>
</g>
<!-- connect&#45;&gt;util -->
<g id="edge6" class="edge">
<title>connect&#45;&gt;util</title>
<path fill="none" stroke="black" d="M522,-581.85C522,-570.62 522,-554.95 522,-541.65"/>
<polygon fill="black" stroke="black" points="525.5,-541.82 522,-531.82 518.5,-541.82 525.5,-541.82"/>
<text text-anchor="middle" x="556.13" y="-551.45" font-family="Times,serif" font-size="14.00">«include»</text>
</g>
<!-- core&#45;&gt;traits&#45;engine -->
<g id="edge21" class="edge">
<title>core&#45;&gt;traits&#45;engine</title>
<path fill="none" stroke="red" stroke-width="2" d="M268.35,-82.28C265.08,-71.59 259.34,-57.47 250,-48 246.03,-43.98 241.47,-40.41 236.61,-37.25"/>
<polygon fill="red" stroke="red" stroke-width="2" points="238.68,-34.4 228.26,-32.48 235.21,-40.48 238.68,-34.4"/>
<text text-anchor="middle" x="282.16" y="-51.95" font-family="Times,serif" font-size="14.00">«use»</text>
</g>
<!-- customizer&#45;engine -->
<g id="node8" class="node">
<title>customizer&#45;engine</title>
<polygon fill="white" stroke="black" stroke-width="2" points="737.63,-612.75 590.38,-612.75 590.38,-582.75 737.63,-582.75 737.63,-612.75"/>
<text text-anchor="middle" x="664" y="-593.08" font-family="Times,serif" font-size="14.00">customizer&#45;engine</text>
</g>
<!-- dimensions -->
<g id="node9" class="node">
<title>dimensions</title>
<polygon fill="white" stroke="black" stroke-width="2" points="856,-612.75 756,-612.75 756,-582.75 856,-582.75 856,-612.75"/>
<text text-anchor="middle" x="806" y="-593.08" font-family="Times,serif" font-size="14.00">dimensions</text>
</g>
<!-- fillet -->
<g id="node10" class="node">
<title>fillet</title>
<polygon fill="white" stroke="black" stroke-width="2" points="218,-529.5 118,-529.5 118,-499.5 218,-499.5 218,-529.5"/>
<text text-anchor="middle" x="168" y="-509.83" font-family="Times,serif" font-size="14.00">fillet</text>
</g>
<!-- fillet&#45;&gt;3d&#45;engine -->
<g id="edge7" class="edge">
<title>fillet&#45;&gt;3d&#45;engine</title>
<path fill="none" stroke="black" d="M179.11,-498.62C187.66,-487.97 200.26,-473.87 213.75,-464.25 220.2,-459.65 227.42,-455.5 234.73,-451.82"/>
<polygon fill="black" stroke="black" points="235.77,-455.2 243.32,-447.76 232.78,-448.87 235.77,-455.2"/>
<text text-anchor="middle" x="247.88" y="-468.2" font-family="Times,serif" font-size="14.00">«include»</text>
</g>
<!-- grid -->
<g id="node11" class="node">
<title>grid</title>
<polygon fill="white" stroke="black" stroke-width="2" points="336,-529.5 236,-529.5 236,-499.5 336,-499.5 336,-529.5"/>
<text text-anchor="middle" x="286" y="-509.83" font-family="Times,serif" font-size="14.00">grid</text>
</g>
<!-- grid&#45;&gt;3d&#45;engine -->
<g id="edge8" class="edge">
<title>grid&#45;&gt;3d&#45;engine</title>
<path fill="none" stroke="black" d="M286,-498.6C286,-487.37 286,-471.7 286,-458.4"/>
<polygon fill="black" stroke="black" points="289.5,-458.57 286,-448.57 282.5,-458.57 289.5,-458.57"/>
<text text-anchor="middle" x="320.13" y="-468.2" font-family="Times,serif" font-size="14.00">«include»</text>
</g>
<!-- hole&#45;engine -->
<g id="node12" class="node">
<title>hole&#45;engine</title>
<polygon fill="white" stroke="black" stroke-width="2" points="454,-612.75 354,-612.75 354,-582.75 454,-582.75 454,-612.75"/>
<text text-anchor="middle" x="404" y="-593.08" font-family="Times,serif" font-size="14.00">hole&#45;engine</text>
</g>
<!-- label -->
<g id="node13" class="node">
<title>label</title>
<polygon fill="white" stroke="black" stroke-width="2" points="454,-529.5 354,-529.5 354,-499.5 454,-499.5 454,-529.5"/>
<text text-anchor="middle" x="404" y="-509.83" font-family="Times,serif" font-size="14.00">label</text>
</g>
<!-- hole&#45;engine&#45;&gt;label -->
<g id="edge9" class="edge">
<title>hole&#45;engine&#45;&gt;label</title>
<path fill="none" stroke="black" d="M404,-581.85C404,-570.62 404,-554.95 404,-541.65"/>
<polygon fill="black" stroke="black" points="407.5,-541.82 404,-531.82 400.5,-541.82 407.5,-541.82"/>
<text text-anchor="middle" x="438.13" y="-551.45" font-family="Times,serif" font-size="14.00">«include»</text>
</g>
<!-- label&#45;&gt;3d&#45;engine -->
<g id="edge10" class="edge">
<title>label&#45;&gt;3d&#45;engine</title>
<path fill="none" stroke="black" d="M392.81,-498.63C384.21,-487.99 371.53,-473.89 358,-464.25 351.57,-459.67 344.37,-455.52 337.08,-451.85"/>
<polygon fill="black" stroke="black" points="339.06,-448.92 328.52,-447.8 336.06,-455.24 339.06,-448.92"/>
<text text-anchor="middle" x="411.55" y="-468.2" font-family="Times,serif" font-size="14.00">«include»</text>
</g>
<!-- limits -->
<g id="node14" class="node">
<title>limits</title>
<polygon fill="white" stroke="black" stroke-width="2" points="204,-196.5 104,-196.5 104,-166.5 204,-166.5 204,-196.5"/>
<text text-anchor="middle" x="154" y="-176.83" font-family="Times,serif" font-size="14.00">limits</text>
</g>
<!-- limits&#45;&gt;core -->
<g id="edge11" class="edge">
<title>limits&#45;&gt;core</title>
<path fill="none" stroke="black" d="M165.11,-165.62C173.66,-154.97 186.26,-140.87 199.75,-131.25 206.2,-126.65 213.42,-122.5 220.73,-118.82"/>
<polygon fill="black" stroke="black" points="221.77,-122.2 229.32,-114.76 218.78,-115.87 221.77,-122.2"/>
<text text-anchor="middle" x="233.88" y="-135.2" font-family="Times,serif" font-size="14.00">«include»</text>
</g>
<!-- mngm&#45;engine&#45;&gt;bbox&#45;engine -->
<g id="edge22" class="edge">
<title>mngm&#45;engine&#45;&gt;bbox&#45;engine</title>
<path fill="none" stroke="red" stroke-width="2" d="M294.72,-248.87C301.55,-238.23 311.86,-224.12 323.75,-214.5 328.83,-210.39 334.53,-206.65 340.41,-203.3"/>
<polygon fill="red" stroke="red" stroke-width="2" points="341.88,-206.48 349.12,-198.74 338.64,-200.27 341.88,-206.48"/>
<text text-anchor="middle" x="344.38" y="-218.45" font-family="Times,serif" font-size="14.00">«use»</text>
</g>
<!-- mngm&#45;engine&#45;&gt;unsafe_defs -->
<g id="edge12" class="edge">
<title>mngm&#45;engine&#45;&gt;unsafe_defs</title>
<path fill="none" stroke="black" d="M249.49,-248.76C242.79,-244.3 236.68,-238.7 232.75,-231.75 227.46,-222.4 232.01,-212.97 239.63,-204.9"/>
<polygon fill="black" stroke="black" points="241.81,-207.65 246.9,-198.36 237.12,-202.45 241.81,-207.65"/>
<text text-anchor="middle" x="266.88" y="-218.45" font-family="Times,serif" font-size="14.00">«include»</text>
</g>
<!-- quaternions -->
<g id="node16" class="node">
<title>quaternions</title>
<polygon fill="white" stroke="black" stroke-width="2" points="975.75,-612.75 874.25,-612.75 874.25,-582.75 975.75,-582.75 975.75,-612.75"/>
<text text-anchor="middle" x="925" y="-593.08" font-family="Times,serif" font-size="14.00">quaternions</text>
</g>
<!-- template -->
<g id="node17" class="node">
<title>template</title>
<polygon fill="white" stroke="black" stroke-width="2" points="1094,-612.75 994,-612.75 994,-582.75 1094,-582.75 1094,-612.75"/>
<text text-anchor="middle" x="1044" y="-593.08" font-family="Times,serif" font-size="14.00">template</text>
</g>
<!-- traits&#45;engine&#45;&gt;core -->
<g id="edge13" class="edge">
<title>traits&#45;engine&#45;&gt;core</title>
<path fill="none" stroke="black" d="M177.1,-30.73C175.21,-41.31 174.67,-55.39 181.75,-65.25 188.88,-75.18 199.35,-82.04 210.66,-86.78"/>
<polygon fill="black" stroke="black" points="209.19,-89.97 219.79,-90.06 211.56,-83.39 209.19,-89.97"/>
<text text-anchor="middle" x="215.88" y="-51.95" font-family="Times,serif" font-size="14.00">«include»</text>
</g>
<!-- type&#45;engine&#45;&gt;bbox&#45;engine -->
<g id="edge23" class="edge">
<title>type&#45;engine&#45;&gt;bbox&#45;engine</title>
<path fill="none" stroke="red" stroke-width="2" d="M582.29,-248.97C557.82,-234.94 524.25,-215.79 521,-214.5 500.24,-206.25 476.75,-199.69 455.5,-194.7"/>
<polygon fill="red" stroke="red" stroke-width="2" points="456.42,-191.32 445.9,-192.54 454.89,-198.15 456.42,-191.32"/>
<text text-anchor="middle" x="572.03" y="-218.45" font-family="Times,serif" font-size="14.00">«use»</text>
</g>
<!-- type&#45;engine&#45;&gt;core -->
<g id="edge14" class="edge">
<title>type&#45;engine&#45;&gt;core</title>
<path fill="none" stroke="black" d="M606.87,-248.98C605.39,-238.38 601.95,-224.3 594,-214.5 544,-152.85 510.86,-157.63 436,-131.25 403.23,-119.7 365.21,-111.95 334.04,-106.98"/>
<polygon fill="black" stroke="black" points="334.8,-103.55 324.39,-105.5 333.74,-110.47 334.8,-103.55"/>
<text text-anchor="middle" x="612" y="-176.83" font-family="Times,serif" font-size="14.00">«include»</text>
</g>
<!-- unsafe_defs&#45;&gt;core -->
<g id="edge15" class="edge">
<title>unsafe_defs&#45;&gt;core</title>
<path fill="none" stroke="black" d="M272,-165.6C272,-154.37 272,-138.7 272,-125.4"/>
<polygon fill="black" stroke="black" points="275.5,-125.57 272,-115.57 268.5,-125.57 275.5,-125.57"/>
<text text-anchor="middle" x="306.13" y="-135.2" font-family="Times,serif" font-size="14.00">«include»</text>
</g>
<!-- util&#45;&gt;3d&#45;engine -->
<g id="edge16" class="edge">
<title>util&#45;&gt;3d&#45;engine</title>
<path fill="none" stroke="black" d="M504.56,-498.53C490.67,-487.4 470.26,-472.73 450,-464.25 417.71,-450.74 379.41,-442.85 347.96,-438.29"/>
<polygon fill="black" stroke="black" points="348.58,-434.85 338.2,-436.96 347.64,-441.78 348.58,-434.85"/>
<text text-anchor="middle" x="515.45" y="-468.2" font-family="Times,serif" font-size="14.00">«include»</text>
</g>
</g>
</svg>
