<?xml version="1.0" encoding="UTF-8" standalone="no"?>
<!DOCTYPE svg PUBLIC "-//W3C//DTD SVG 1.1//EN"
 "http://www.w3.org/Graphics/SVG/1.1/DTD/svg11.dtd">
<!-- Generated by graphviz version 12.1.0 (20240811.2233)
 -->
<!-- Title: foundation Pages: 1 -->
<svg width="888pt" height="464pt"
 viewBox="0.00 0.00 888.00 464.00" xmlns="http://www.w3.org/2000/svg" xmlns:xlink="http://www.w3.org/1999/xlink">
<g id="graph0" class="graph" transform="scale(1 1) rotate(0) translate(4 460)">
<title>foundation</title>
<polygon fill="white" stroke="none" points="-4,4 -4,-460 884,-460 884,4 -4,4"/>
<!-- 2d&#45;engine -->
<g id="node1" class="node">
<title>2d&#45;engine</title>
<polygon fill="white" stroke="black" stroke-width="2" points="391,-208.5 291,-208.5 291,-178.5 391,-178.5 391,-208.5"/>
<text text-anchor="middle" x="341" y="-188.45" font-family="Times,serif" font-size="14.00">2d&#45;engine</text>
</g>
<!-- bbox&#45;engine -->
<g id="node4" class="node">
<title>bbox&#45;engine</title>
<polygon fill="white" stroke="black" stroke-width="2" points="501,-112.5 401,-112.5 401,-82.5 501,-82.5 501,-112.5"/>
<text text-anchor="middle" x="451" y="-92.45" font-family="Times,serif" font-size="14.00">bbox&#45;engine</text>
</g>
<!-- 2d&#45;engine&#45;&gt;bbox&#45;engine -->
<g id="edge21" class="edge">
<title>2d&#45;engine&#45;&gt;bbox&#45;engine</title>
<path fill="none" stroke="red" stroke-width="2" d="M364,-177.58C371.52,-172.42 379.79,-166.44 387,-160.5 401.18,-148.83 415.98,-134.64 427.77,-122.79"/>
<polygon fill="red" stroke="red" stroke-width="2" points="430.27,-125.24 434.76,-115.65 425.27,-120.34 430.27,-125.24"/>
<text text-anchor="middle" x="435.19" y="-140.45" font-family="Times,serif" font-size="14.00">«use»</text>
</g>
<!-- mngm&#45;engine -->
<g id="node14" class="node">
<title>mngm&#45;engine</title>
<polygon fill="white" stroke="black" stroke-width="2" points="265,-112.5 165,-112.5 165,-82.5 265,-82.5 265,-112.5"/>
<text text-anchor="middle" x="215" y="-92.45" font-family="Times,serif" font-size="14.00">mngm&#45;engine</text>
</g>
<!-- 2d&#45;engine&#45;&gt;mngm&#45;engine -->
<g id="edge20" class="edge">
<title>2d&#45;engine&#45;&gt;mngm&#45;engine</title>
<path fill="none" stroke="red" stroke-width="2" d="M320.09,-177.64C312.61,-172.28 304.15,-166.16 296.5,-160.5 279.08,-147.61 259.78,-132.95 244.33,-121.11"/>
<polygon fill="red" stroke="red" stroke-width="2" points="246.79,-118.59 236.72,-115.27 242.52,-124.14 246.79,-118.59"/>
<text text-anchor="middle" x="312.25" y="-140.45" font-family="Times,serif" font-size="14.00">«use»</text>
</g>
<!-- unsafe_defs -->
<g id="node21" class="node">
<title>unsafe_defs</title>
<polygon fill="white" stroke="black" stroke-width="2" points="383,-112.5 283,-112.5 283,-82.5 383,-82.5 383,-112.5"/>
<text text-anchor="middle" x="333" y="-92.45" font-family="Times,serif" font-size="14.00">unsafe_defs</text>
</g>
<!-- 2d&#45;engine&#45;&gt;unsafe_defs -->
<g id="edge1" class="edge">
<title>2d&#45;engine&#45;&gt;unsafe_defs</title>
<path fill="none" stroke="black" d="M336.95,-177.64C335.67,-172.28 334.42,-166.16 333.75,-160.5 332.38,-148.85 332.04,-135.88 332.1,-124.83"/>
<polygon fill="black" stroke="black" points="335.6,-124.91 332.28,-114.85 328.6,-124.79 335.6,-124.91"/>
<text text-anchor="middle" x="360.38" y="-140.45" font-family="Times,serif" font-size="14.00">«include»</text>
</g>
<!-- 3d&#45;engine -->
<g id="node2" class="node">
<title>3d&#45;engine</title>
<polygon fill="white" stroke="black" stroke-width="2" points="552,-291 452,-291 452,-261 552,-261 552,-291"/>
<text text-anchor="middle" x="502" y="-270.95" font-family="Times,serif" font-size="14.00">3d&#45;engine</text>
</g>
<!-- 3d&#45;engine&#45;&gt;2d&#45;engine -->
<g id="edge2" class="edge">
<title>3d&#45;engine&#45;&gt;2d&#45;engine</title>
<path fill="none" stroke="black" d="M472.09,-260.05C446.34,-247.17 408.96,-228.48 380.71,-214.35"/>
<polygon fill="black" stroke="black" points="382.61,-211.39 372.1,-210.05 379.48,-217.65 382.61,-211.39"/>
<text text-anchor="middle" x="462.55" y="-229.7" font-family="Times,serif" font-size="14.00">«include»</text>
</g>
<!-- polymorphic&#45;engine -->
<g id="node15" class="node">
<title>polymorphic&#45;engine</title>
<polygon fill="white" stroke="black" stroke-width="2" points="290.13,-373.5 163.88,-373.5 163.88,-343.5 290.13,-343.5 290.13,-373.5"/>
<text text-anchor="middle" x="227" y="-353.45" font-family="Times,serif" font-size="14.00">polymorphic&#45;engine</text>
</g>
<!-- 3d&#45;engine&#45;&gt;polymorphic&#45;engine -->
<g id="edge22" class="edge">
<title>3d&#45;engine&#45;&gt;polymorphic&#45;engine</title>
<path fill="none" stroke="red" stroke-width="2" d="M451.1,-287.39C425.75,-292.99 394.77,-300.51 367.5,-309 348.15,-315.03 344.08,-318.69 325,-325.5 312.74,-329.88 299.53,-334.35 286.91,-338.52"/>
<polygon fill="red" stroke="red" stroke-width="2" points="285.83,-335.19 277.41,-341.62 288,-341.84 285.83,-335.19"/>
<text text-anchor="middle" x="383.25" y="-312.2" font-family="Times,serif" font-size="14.00">«use»</text>
</g>
<!-- type&#45;engine -->
<g id="node19" class="node">
<title>type&#45;engine</title>
<polygon fill="white" stroke="black" stroke-width="2" points="632,-208.5 532,-208.5 532,-178.5 632,-178.5 632,-208.5"/>
<text text-anchor="middle" x="582" y="-188.45" font-family="Times,serif" font-size="14.00">type&#45;engine</text>
</g>
<!-- 3d&#45;engine&#45;&gt;type&#45;engine -->
<g id="edge23" class="edge">
<title>3d&#45;engine&#45;&gt;type&#45;engine</title>
<path fill="none" stroke="red" stroke-width="2" d="M526.04,-260.08C533.17,-255.1 540.74,-249.21 547,-243 553.83,-236.22 560.31,-227.98 565.79,-220.24"/>
<polygon fill="red" stroke="red" stroke-width="2" points="568.66,-222.24 571.34,-211.99 562.85,-218.33 568.66,-222.24"/>
<text text-anchor="middle" x="576.67" y="-229.7" font-family="Times,serif" font-size="14.00">«use»</text>
</g>
<!-- type_trait -->
<g id="node20" class="node">
<title>type_trait</title>
<polygon fill="white" stroke="black" stroke-width="2" points="722,-160.5 622,-160.5 622,-130.5 722,-130.5 722,-160.5"/>
<text text-anchor="middle" x="672" y="-140.45" font-family="Times,serif" font-size="14.00">type_trait</text>
</g>
<!-- 3d&#45;engine&#45;&gt;type_trait -->
<g id="edge3" class="edge">
<title>3d&#45;engine&#45;&gt;type_trait</title>
<path fill="none" stroke="black" d="M552.76,-262.36C582.54,-252.43 618.6,-235.63 641,-208.5 649.94,-197.67 657.17,-183.83 662.4,-171.97"/>
<polygon fill="black" stroke="black" points="665.61,-173.36 666.2,-162.78 659.14,-170.68 665.61,-173.36"/>
<text text-anchor="middle" x="648.55" y="-229.7" font-family="Times,serif" font-size="14.00">«include»</text>
</g>
<!-- algo&#45;engine -->
<g id="node3" class="node">
<title>algo&#45;engine</title>
<polygon fill="white" stroke="black" stroke-width="2" points="644,-373.5 544,-373.5 544,-343.5 644,-343.5 644,-373.5"/>
<text text-anchor="middle" x="594" y="-353.45" font-family="Times,serif" font-size="14.00">algo&#45;engine</text>
</g>
<!-- algo&#45;engine&#45;&gt;3d&#45;engine -->
<g id="edge4" class="edge">
<title>algo&#45;engine&#45;&gt;3d&#45;engine</title>
<path fill="none" stroke="black" d="M581.79,-342.67C573.16,-332.62 561.02,-319.34 549,-309 544.82,-305.41 540.23,-301.86 535.61,-298.51"/>
<polygon fill="black" stroke="black" points="537.64,-295.66 527.43,-292.82 533.64,-301.41 537.64,-295.66"/>
<text text-anchor="middle" x="592.69" y="-312.2" font-family="Times,serif" font-size="14.00">«include»</text>
</g>
<!-- core -->
<g id="node7" class="node">
<title>core</title>
<polygon fill="white" stroke="black" stroke-width="2" points="383,-30 283,-30 283,0 383,0 383,-30"/>
<text text-anchor="middle" x="333" y="-9.95" font-family="Times,serif" font-size="14.00">core</text>
</g>
<!-- bbox&#45;engine&#45;&gt;core -->
<g id="edge5" class="edge">
<title>bbox&#45;engine&#45;&gt;core</title>
<path fill="none" stroke="black" d="M433.68,-81.5C421.77,-71.5 405.39,-58.34 390,-48 384.13,-44.05 377.73,-40.13 371.42,-36.46"/>
<polygon fill="black" stroke="black" points="373.4,-33.55 362.98,-31.66 369.95,-39.64 373.4,-33.55"/>
<text text-anchor="middle" x="439.13" y="-51.2" font-family="Times,serif" font-size="14.00">«include»</text>
</g>
<!-- components -->
<g id="node5" class="node">
<title>components</title>
<polygon fill="white" stroke="black" stroke-width="2" points="514,-208.5 414,-208.5 414,-178.5 514,-178.5 514,-208.5"/>
<text text-anchor="middle" x="464" y="-188.45" font-family="Times,serif" font-size="14.00">components</text>
</g>
<!-- components&#45;&gt;bbox&#45;engine -->
<g id="edge6" class="edge">
<title>components&#45;&gt;bbox&#45;engine</title>
<path fill="none" stroke="black" d="M461.97,-177.81C460.01,-163.62 456.99,-141.8 454.61,-124.64"/>
<polygon fill="black" stroke="black" points="458.1,-124.32 453.27,-114.89 451.17,-125.28 458.1,-124.32"/>
<text text-anchor="middle" x="486.05" y="-140.45" font-family="Times,serif" font-size="14.00">«include»</text>
</g>
<!-- connect -->
<g id="node6" class="node">
<title>connect</title>
<polygon fill="white" stroke="black" stroke-width="2" points="526,-456 426,-456 426,-426 526,-426 526,-456"/>
<text text-anchor="middle" x="476" y="-435.95" font-family="Times,serif" font-size="14.00">connect</text>
</g>
<!-- util -->
<g id="node22" class="node">
<title>util</title>
<polygon fill="white" stroke="black" stroke-width="2" points="526,-373.5 426,-373.5 426,-343.5 526,-343.5 526,-373.5"/>
<text text-anchor="middle" x="476" y="-353.45" font-family="Times,serif" font-size="14.00">util</text>
</g>
<!-- connect&#45;&gt;util -->
<g id="edge7" class="edge">
<title>connect&#45;&gt;util</title>
<path fill="none" stroke="black" d="M476,-425.24C476,-414.18 476,-398.78 476,-385.66"/>
<polygon fill="black" stroke="black" points="479.5,-385.96 476,-375.96 472.5,-385.96 479.5,-385.96"/>
<text text-anchor="middle" x="502.63" y="-394.7" font-family="Times,serif" font-size="14.00">«include»</text>
</g>
<!-- dimensions -->
<g id="node8" class="node">
<title>dimensions</title>
<polygon fill="white" stroke="black" stroke-width="2" points="644,-456 544,-456 544,-426 644,-426 644,-456"/>
<text text-anchor="middle" x="594" y="-435.95" font-family="Times,serif" font-size="14.00">dimensions</text>
</g>
<!-- fillet -->
<g id="node9" class="node">
<title>fillet</title>
<polygon fill="white" stroke="black" stroke-width="2" points="762,-373.5 662,-373.5 662,-343.5 762,-343.5 762,-373.5"/>
<text text-anchor="middle" x="712" y="-353.45" font-family="Times,serif" font-size="14.00">fillet</text>
</g>
<!-- fillet&#45;&gt;3d&#45;engine -->
<g id="edge8" class="edge">
<title>fillet&#45;&gt;3d&#45;engine</title>
<path fill="none" stroke="black" d="M688.58,-342.71C671.06,-332.15 646.22,-318.24 623,-309 604.27,-301.54 583.22,-295.29 563.99,-290.34"/>
<polygon fill="black" stroke="black" points="564.93,-286.97 554.38,-287.95 563.24,-293.76 564.93,-286.97"/>
<text text-anchor="middle" x="682.42" y="-312.2" font-family="Times,serif" font-size="14.00">«include»</text>
</g>
<!-- grid -->
<g id="node10" class="node">
<title>grid</title>
<polygon fill="white" stroke="black" stroke-width="2" points="880,-373.5 780,-373.5 780,-343.5 880,-343.5 880,-373.5"/>
<text text-anchor="middle" x="830" y="-353.45" font-family="Times,serif" font-size="14.00">grid</text>
</g>
<!-- grid&#45;&gt;3d&#45;engine -->
<g id="edge9" class="edge">
<title>grid&#45;&gt;3d&#45;engine</title>
<path fill="none" stroke="black" d="M799.93,-342.65C776.71,-331.78 743.5,-317.5 713,-309 663.8,-295.29 606.4,-287.07 563.9,-282.4"/>
<polygon fill="black" stroke="black" points="564.42,-278.93 554.11,-281.36 563.68,-285.89 564.42,-278.93"/>
<text text-anchor="middle" x="785.62" y="-312.2" font-family="Times,serif" font-size="14.00">«include»</text>
</g>
<!-- hole -->
<g id="node11" class="node">
<title>hole</title>
<polygon fill="white" stroke="black" stroke-width="2" points="408,-456 308,-456 308,-426 408,-426 408,-456"/>
<text text-anchor="middle" x="358" y="-435.95" font-family="Times,serif" font-size="14.00">hole</text>
</g>
<!-- label -->
<g id="node12" class="node">
<title>label</title>
<polygon fill="white" stroke="black" stroke-width="2" points="408,-373.5 308,-373.5 308,-343.5 408,-343.5 408,-373.5"/>
<text text-anchor="middle" x="358" y="-353.45" font-family="Times,serif" font-size="14.00">label</text>
</g>
<!-- hole&#45;&gt;label -->
<g id="edge10" class="edge">
<title>hole&#45;&gt;label</title>
<path fill="none" stroke="black" d="M358,-425.24C358,-414.18 358,-398.78 358,-385.66"/>
<polygon fill="black" stroke="black" points="361.5,-385.96 358,-375.96 354.5,-385.96 361.5,-385.96"/>
<text text-anchor="middle" x="384.63" y="-394.7" font-family="Times,serif" font-size="14.00">«include»</text>
</g>
<!-- label&#45;&gt;3d&#45;engine -->
<g id="edge11" class="edge">
<title>label&#45;&gt;3d&#45;engine</title>
<path fill="none" stroke="black" d="M377.8,-342.71C391.88,-332.55 411.47,-319.12 429.75,-309 437.6,-304.65 446.15,-300.44 454.54,-296.58"/>
<polygon fill="black" stroke="black" points="455.93,-299.79 463.62,-292.5 453.06,-293.4 455.93,-299.79"/>
<text text-anchor="middle" x="456.38" y="-312.2" font-family="Times,serif" font-size="14.00">«include»</text>
</g>
<!-- limits -->
<g id="node13" class="node">
<title>limits</title>
<polygon fill="white" stroke="black" stroke-width="2" points="100,-112.5 0,-112.5 0,-82.5 100,-82.5 100,-112.5"/>
<text text-anchor="middle" x="50" y="-92.45" font-family="Times,serif" font-size="14.00">limits</text>
</g>
<!-- limits&#45;&gt;core -->
<g id="edge12" class="edge">
<title>limits&#45;&gt;core</title>
<path fill="none" stroke="black" d="M49.08,-81.55C49.29,-70.63 51.54,-56.33 60.75,-48 90.64,-20.99 200.1,-15.71 270.79,-15.23"/>
<polygon fill="black" stroke="black" points="270.71,-18.73 280.7,-15.2 270.69,-11.73 270.71,-18.73"/>
<text text-anchor="middle" x="87.38" y="-51.2" font-family="Times,serif" font-size="14.00">«include»</text>
</g>
<!-- mngm&#45;engine&#45;&gt;core -->
<g id="edge13" class="edge">
<title>mngm&#45;engine&#45;&gt;core</title>
<path fill="none" stroke="black" d="M231.97,-81.71C243.85,-71.67 260.29,-58.39 275.75,-48 281.64,-44.04 288.06,-40.11 294.4,-36.43"/>
<polygon fill="black" stroke="black" points="295.9,-39.6 302.89,-31.64 292.46,-33.51 295.9,-39.6"/>
<text text-anchor="middle" x="302.38" y="-51.2" font-family="Times,serif" font-size="14.00">«include»</text>
</g>
<!-- polymorphic&#45;engine&#45;&gt;3d&#45;engine -->
<g id="edge24" class="edge">
<title>polymorphic&#45;engine&#45;&gt;3d&#45;engine</title>
<path fill="none" stroke="red" stroke-width="2" d="M245.71,-342.61C263.19,-328.76 286.98,-310.08 289.5,-309 336.74,-288.76 394.67,-281.04 438.1,-278.22"/>
<polygon fill="red" stroke="red" stroke-width="2" points="438.28,-281.72 448.07,-277.67 437.89,-274.73 438.28,-281.72"/>
<text text-anchor="middle" x="305.25" y="-312.2" font-family="Times,serif" font-size="14.00">«use»</text>
</g>
<!-- polymorphic&#45;engine&#45;&gt;bbox&#45;engine -->
<g id="edge25" class="edge">
<title>polymorphic&#45;engine&#45;&gt;bbox&#45;engine</title>
<path fill="none" stroke="red" stroke-width="2" d="M228.06,-342.72C231.63,-294.75 243.87,-145.55 259,-130.5 278,-111.6 346.55,-116.53 387.5,-112.6"/>
<polygon fill="red" stroke="red" stroke-width="2" points="387.78,-116.1 397.22,-111.29 386.84,-109.16 387.78,-116.1"/>
<text text-anchor="middle" x="254.49" y="-229.7" font-family="Times,serif" font-size="14.00">«use»</text>
</g>
<!-- polymorphic&#45;engine&#45;&gt;core -->
<g id="edge14" class="edge">
<title>polymorphic&#45;engine&#45;&gt;core</title>
<path fill="none" stroke="black" d="M185.59,-342.54C158.46,-329.78 128,-308.46 128,-277 128,-277 128,-277 128,-96.5 128,-65.41 210.73,-41.33 271.08,-27.91"/>
<polygon fill="black" stroke="black" points="271.55,-31.39 280.58,-25.85 270.07,-24.54 271.55,-31.39"/>
<text text-anchor="middle" x="154.63" y="-188.45" font-family="Times,serif" font-size="14.00">«include»</text>
</g>
<!-- polymorphic&#45;engine&#45;&gt;mngm&#45;engine -->
<g id="edge26" class="edge">
<title>polymorphic&#45;engine&#45;&gt;mngm&#45;engine</title>
<path fill="none" stroke="red" stroke-width="2" d="M222.2,-342.52C215.53,-320.84 203.8,-279.34 199.5,-243 194.66,-202.12 202.29,-154.65 208.45,-125.6"/>
<polygon fill="red" stroke="red" stroke-width="2" points="211.78,-126.76 210.56,-116.24 204.95,-125.23 211.78,-126.76"/>
<text text-anchor="middle" x="215.25" y="-229.7" font-family="Times,serif" font-size="14.00">«use»</text>
</g>
<!-- profile -->
<g id="node16" class="node">
<title>profile</title>
<polygon fill="white" stroke="black" stroke-width="2" points="290,-456 190,-456 190,-426 290,-426 290,-456"/>
<text text-anchor="middle" x="240" y="-435.95" font-family="Times,serif" font-size="14.00">profile</text>
</g>
<!-- profile&#45;&gt;label -->
<g id="edge15" class="edge">
<title>profile&#45;&gt;label</title>
<path fill="none" stroke="black" d="M256.97,-425.21C268.85,-415.17 285.29,-401.89 300.75,-391.5 306.64,-387.54 313.06,-383.61 319.4,-379.93"/>
<polygon fill="black" stroke="black" points="320.9,-383.1 327.89,-375.14 317.46,-377.01 320.9,-383.1"/>
<text text-anchor="middle" x="327.38" y="-394.7" font-family="Times,serif" font-size="14.00">«include»</text>
</g>
<!-- quaternions -->
<g id="node17" class="node">
<title>quaternions</title>
<polygon fill="white" stroke="black" stroke-width="2" points="762,-456 662,-456 662,-426 762,-426 762,-456"/>
<text text-anchor="middle" x="712" y="-435.95" font-family="Times,serif" font-size="14.00">quaternions</text>
</g>
<!-- template -->
<g id="node18" class="node">
<title>template</title>
<polygon fill="white" stroke="black" stroke-width="2" points="880,-456 780,-456 780,-426 880,-426 880,-456"/>
<text text-anchor="middle" x="830" y="-435.95" font-family="Times,serif" font-size="14.00">template</text>
</g>
<!-- type&#45;engine&#45;&gt;bbox&#45;engine -->
<g id="edge27" class="edge">
<title>type&#45;engine&#45;&gt;bbox&#45;engine</title>
<path fill="none" stroke="red" stroke-width="2" d="M561.5,-177.7C554.86,-172.54 547.63,-166.53 541.5,-160.5 529.23,-148.43 530.51,-141.17 517,-130.5 511.89,-126.46 506.18,-122.75 500.32,-119.41"/>
<polygon fill="red" stroke="red" stroke-width="2" points="502.14,-116.42 491.66,-114.85 498.88,-122.61 502.14,-116.42"/>
<text text-anchor="middle" x="557.25" y="-140.45" font-family="Times,serif" font-size="14.00">«use»</text>
</g>
<!-- type&#45;engine&#45;&gt;core -->
<g id="edge16" class="edge">
<title>type&#45;engine&#45;&gt;core</title>
<path fill="none" stroke="black" d="M582.81,-177.74C582.89,-164.52 581.32,-145.04 573,-130.5 543.87,-79.6 522.75,-73.64 470,-48 446.77,-36.71 419.35,-29.29 395.17,-24.46"/>
<polygon fill="black" stroke="black" points="395.92,-21.04 385.45,-22.64 394.63,-27.92 395.92,-21.04"/>
<text text-anchor="middle" x="588.31" y="-92.45" font-family="Times,serif" font-size="14.00">«include»</text>
</g>
<!-- type_trait&#45;&gt;core -->
<g id="edge17" class="edge">
<title>type_trait&#45;&gt;core</title>
<path fill="none" stroke="black" d="M667.51,-129.66C663.01,-116.39 655.14,-96.88 644,-82.5 628.99,-63.13 623.59,-57.49 601,-48 565.01,-32.89 462.35,-23.89 395.04,-19.45"/>
<polygon fill="black" stroke="black" points="395.45,-15.97 385.25,-18.82 395,-22.96 395.45,-15.97"/>
<text text-anchor="middle" x="687.5" y="-92.45" font-family="Times,serif" font-size="14.00">«include»</text>
</g>
<!-- unsafe_defs&#45;&gt;core -->
<g id="edge18" class="edge">
<title>unsafe_defs&#45;&gt;core</title>
<path fill="none" stroke="black" d="M333,-81.74C333,-70.68 333,-55.28 333,-42.16"/>
<polygon fill="black" stroke="black" points="336.5,-42.46 333,-32.46 329.5,-42.46 336.5,-42.46"/>
<text text-anchor="middle" x="359.63" y="-51.2" font-family="Times,serif" font-size="14.00">«include»</text>
</g>
<!-- util&#45;&gt;3d&#45;engine -->
<g id="edge19" class="edge">
<title>util&#45;&gt;3d&#45;engine</title>
<path fill="none" stroke="black" d="M480.77,-342.74C484.37,-331.57 489.42,-315.96 493.68,-302.76"/>
<polygon fill="black" stroke="black" points="496.97,-303.98 496.71,-293.38 490.3,-301.82 496.97,-303.98"/>
<text text-anchor="middle" x="517.95" y="-312.2" font-family="Times,serif" font-size="14.00">«include»</text>
</g>
</g>
</svg>
