<?xml version="1.0" encoding="UTF-8" standalone="no"?>
<!DOCTYPE svg PUBLIC "-//W3C//DTD SVG 1.1//EN"
 "http://www.w3.org/Graphics/SVG/1.1/DTD/svg11.dtd">
<!-- Generated by graphviz version 8.1.0 (20230707.0739)
 -->
<!-- Title: foundation Pages: 1 -->
<svg width="834pt" height="467pt"
 viewBox="0.00 0.00 834.25 467.00" xmlns="http://www.w3.org/2000/svg" xmlns:xlink="http://www.w3.org/1999/xlink">
<g id="graph0" class="graph" transform="scale(1 1) rotate(0) translate(4 463)">
<title>foundation</title>
<polygon fill="white" stroke="none" points="-4,4 -4,-463 830.25,-463 830.25,4 -4,4"/>
<!-- 2d&#45;engine -->
<g id="node1" class="node">
<title>2d&#45;engine</title>
<polygon fill="white" stroke="black" stroke-width="2" points="447,-209.25 347,-209.25 347,-179.25 447,-179.25 447,-209.25"/>
<text text-anchor="middle" x="397" y="-189.58" font-family="Times,serif" font-size="14.00">2d&#45;engine</text>
</g>
<!-- bbox&#45;engine -->
<g id="node4" class="node">
<title>bbox&#45;engine</title>
<polygon fill="white" stroke="black" stroke-width="2" points="608.13,-113.25 505.88,-113.25 505.88,-83.25 608.13,-83.25 608.13,-113.25"/>
<text text-anchor="middle" x="557" y="-93.58" font-family="Times,serif" font-size="14.00">bbox&#45;engine</text>
</g>
<!-- 2d&#45;engine&#45;&gt;bbox&#45;engine -->
<g id="edge22" class="edge">
<title>2d&#45;engine&#45;&gt;bbox&#45;engine</title>
<path fill="none" stroke="red" stroke-width="2" d="M416.81,-178.46C423.87,-173.11 431.84,-166.98 439,-161.25 455.2,-148.29 456.9,-141.82 474.75,-131.25 482.37,-126.74 490.74,-122.64 499.13,-118.98"/>
<polygon fill="red" stroke="red" stroke-width="2" points="501.02,-122.17 508.93,-115.13 498.35,-115.7 501.02,-122.17"/>
<text text-anchor="middle" x="494.63" y="-141.58" font-family="Times,serif" font-size="14.00">«use»</text>
</g>
<!-- mngm&#45;engine -->
<g id="node14" class="node">
<title>mngm&#45;engine</title>
<polygon fill="white" stroke="black" stroke-width="2" points="487.75,-113.25 374.25,-113.25 374.25,-83.25 487.75,-83.25 487.75,-113.25"/>
<text text-anchor="middle" x="431" y="-93.58" font-family="Times,serif" font-size="14.00">mngm&#45;engine</text>
</g>
<!-- 2d&#45;engine&#45;&gt;mngm&#45;engine -->
<g id="edge21" class="edge">
<title>2d&#45;engine&#45;&gt;mngm&#45;engine</title>
<path fill="none" stroke="red" stroke-width="2" d="M394.05,-178.3C392.21,-165.31 391.25,-146.27 397.75,-131.25 398.89,-128.62 400.36,-126.1 402.04,-123.71"/>
<polygon fill="red" stroke="red" stroke-width="2" points="405.48,-125.97 409.45,-116.15 400.22,-121.35 405.48,-125.97"/>
<text text-anchor="middle" x="417.63" y="-141.58" font-family="Times,serif" font-size="14.00">«use»</text>
</g>
<!-- unsafe_defs -->
<g id="node19" class="node">
<title>unsafe_defs</title>
<polygon fill="white" stroke="black" stroke-width="2" points="356,-113.25 256,-113.25 256,-83.25 356,-83.25 356,-113.25"/>
<text text-anchor="middle" x="306" y="-93.58" font-family="Times,serif" font-size="14.00">unsafe_defs</text>
</g>
<!-- 2d&#45;engine&#45;&gt;unsafe_defs -->
<g id="edge1" class="edge">
<title>2d&#45;engine&#45;&gt;unsafe_defs</title>
<path fill="none" stroke="black" d="M346.25,-180.39C336.28,-175.79 326.75,-169.59 319.75,-161.25 311.37,-151.27 307.8,-137.28 306.38,-125.12"/>
<polygon fill="black" stroke="black" points="309.8,-124.93 305.59,-115.21 302.82,-125.44 309.8,-124.93"/>
<text text-anchor="middle" x="354.13" y="-141.58" font-family="Times,serif" font-size="14.00">«include»</text>
</g>
<!-- 3d&#45;engine -->
<g id="node2" class="node">
<title>3d&#45;engine</title>
<polygon fill="white" stroke="black" stroke-width="2" points="454,-292.5 354,-292.5 354,-262.5 454,-262.5 454,-292.5"/>
<text text-anchor="middle" x="404" y="-272.83" font-family="Times,serif" font-size="14.00">3d&#45;engine</text>
</g>
<!-- 3d&#45;engine&#45;&gt;2d&#45;engine -->
<g id="edge2" class="edge">
<title>3d&#45;engine&#45;&gt;2d&#45;engine</title>
<path fill="none" stroke="black" d="M402.72,-261.6C401.74,-250.26 400.37,-234.38 399.22,-221"/>
<polygon fill="black" stroke="black" points="402.62,-220.72 398.28,-211.06 395.65,-221.32 402.62,-220.72"/>
<text text-anchor="middle" x="435.13" y="-231.2" font-family="Times,serif" font-size="14.00">«include»</text>
</g>
<!-- polymorphic&#45;engine -->
<g id="node15" class="node">
<title>polymorphic&#45;engine</title>
<polygon fill="white" stroke="black" stroke-width="2" points="750.5,-209.25 593.5,-209.25 593.5,-179.25 750.5,-179.25 750.5,-209.25"/>
<text text-anchor="middle" x="672" y="-189.58" font-family="Times,serif" font-size="14.00">polymorphic&#45;engine</text>
</g>
<!-- 3d&#45;engine&#45;&gt;polymorphic&#45;engine -->
<g id="edge23" class="edge">
<title>3d&#45;engine&#45;&gt;polymorphic&#45;engine</title>
<path fill="none" stroke="red" stroke-width="2" d="M453.47,-261.5C497.76,-248.08 562.87,-228.34 610.5,-213.9"/>
<polygon fill="red" stroke="red" stroke-width="2" points="612.27,-216.41 620.82,-210.16 610.24,-209.71 612.27,-216.41"/>
<text text-anchor="middle" x="582.63" y="-231.2" font-family="Times,serif" font-size="14.00">«use»</text>
</g>
<!-- type_trait -->
<g id="node18" class="node">
<title>type_trait</title>
<polygon fill="white" stroke="black" stroke-width="2" points="193,-161.25 93,-161.25 93,-131.25 193,-131.25 193,-161.25"/>
<text text-anchor="middle" x="143" y="-141.58" font-family="Times,serif" font-size="14.00">type_trait</text>
</g>
<!-- 3d&#45;engine&#45;&gt;type_trait -->
<g id="edge3" class="edge">
<title>3d&#45;engine&#45;&gt;type_trait</title>
<path fill="none" stroke="black" d="M365.97,-261.58C353.38,-256.42 339.36,-250.43 326.75,-244.5 274.28,-219.82 215.31,-187.82 178.65,-167.4"/>
<polygon fill="black" stroke="black" points="180.82,-164.04 170.38,-162.22 177.4,-170.15 180.82,-164.04"/>
<text text-anchor="middle" x="361.13" y="-231.2" font-family="Times,serif" font-size="14.00">«include»</text>
</g>
<!-- algo&#45;engine -->
<g id="node3" class="node">
<title>algo&#45;engine</title>
<polygon fill="white" stroke="black" stroke-width="2" points="100,-375.75 0,-375.75 0,-345.75 100,-345.75 100,-375.75"/>
<text text-anchor="middle" x="50" y="-356.08" font-family="Times,serif" font-size="14.00">algo&#45;engine</text>
</g>
<!-- algo&#45;engine&#45;&gt;3d&#45;engine -->
<g id="edge4" class="edge">
<title>algo&#45;engine&#45;&gt;3d&#45;engine</title>
<path fill="none" stroke="black" d="M71.43,-344.92C88.98,-333.55 114.88,-318.5 139.75,-310.5 144.56,-308.95 265.97,-294.6 342.53,-285.65"/>
<polygon fill="black" stroke="black" points="342.49,-289.06 352.02,-284.43 341.68,-282.11 342.49,-289.06"/>
<text text-anchor="middle" x="174.13" y="-314.45" font-family="Times,serif" font-size="14.00">«include»</text>
</g>
<!-- core -->
<g id="node7" class="node">
<title>core</title>
<polygon fill="white" stroke="black" stroke-width="2" points="426,-30 326,-30 326,0 426,0 426,-30"/>
<text text-anchor="middle" x="376" y="-10.33" font-family="Times,serif" font-size="14.00">core</text>
</g>
<!-- bbox&#45;engine&#45;&gt;core -->
<g id="edge5" class="edge">
<title>bbox&#45;engine&#45;&gt;core</title>
<path fill="none" stroke="black" d="M536.96,-82.28C521.9,-71.59 500.45,-57.47 480,-48 466.48,-41.74 451.42,-36.3 437.06,-31.77"/>
<polygon fill="black" stroke="black" points="438.34,-28.19 427.75,-28.63 436.3,-34.89 438.34,-28.19"/>
<text text-anchor="middle" x="544.13" y="-51.95" font-family="Times,serif" font-size="14.00">«include»</text>
</g>
<!-- components -->
<g id="node5" class="node">
<title>components</title>
<polygon fill="white" stroke="black" stroke-width="2" points="575.13,-209.25 472.88,-209.25 472.88,-179.25 575.13,-179.25 575.13,-209.25"/>
<text text-anchor="middle" x="524" y="-189.58" font-family="Times,serif" font-size="14.00">components</text>
</g>
<!-- components&#45;&gt;bbox&#45;engine -->
<g id="edge6" class="edge">
<title>components&#45;&gt;bbox&#45;engine</title>
<path fill="none" stroke="black" d="M521.47,-178.33C519.94,-165.35 519.36,-146.32 525.75,-131.25 527.07,-128.13 528.85,-125.15 530.89,-122.35"/>
<polygon fill="black" stroke="black" points="534.17,-124.9 538.06,-115.05 528.87,-120.32 534.17,-124.9"/>
<text text-anchor="middle" x="559.13" y="-141.58" font-family="Times,serif" font-size="14.00">«include»</text>
</g>
<!-- connect -->
<g id="node6" class="node">
<title>connect</title>
<polygon fill="white" stroke="black" stroke-width="2" points="808,-459 708,-459 708,-429 808,-429 808,-459"/>
<text text-anchor="middle" x="758" y="-439.33" font-family="Times,serif" font-size="14.00">connect</text>
</g>
<!-- util -->
<g id="node20" class="node">
<title>util</title>
<polygon fill="white" stroke="black" stroke-width="2" points="808,-375.75 708,-375.75 708,-345.75 808,-345.75 808,-375.75"/>
<text text-anchor="middle" x="758" y="-356.08" font-family="Times,serif" font-size="14.00">util</text>
</g>
<!-- connect&#45;&gt;util -->
<g id="edge7" class="edge">
<title>connect&#45;&gt;util</title>
<path fill="none" stroke="black" d="M758,-428.1C758,-416.76 758,-400.88 758,-387.5"/>
<polygon fill="black" stroke="black" points="761.5,-387.56 758,-377.56 754.5,-387.56 761.5,-387.56"/>
<text text-anchor="middle" x="792.13" y="-397.7" font-family="Times,serif" font-size="14.00">«include»</text>
</g>
<!-- drawio -->
<g id="node8" class="node">
<title>drawio</title>
<polygon fill="white" stroke="black" stroke-width="2" points="272,-292.5 172,-292.5 172,-262.5 272,-262.5 272,-292.5"/>
<text text-anchor="middle" x="222" y="-272.83" font-family="Times,serif" font-size="14.00">drawio</text>
</g>
<!-- drawio&#45;&gt;2d&#45;engine -->
<g id="edge8" class="edge">
<title>drawio&#45;&gt;2d&#45;engine</title>
<path fill="none" stroke="black" d="M217.74,-261.87C215.55,-251.06 214.8,-236.65 222.75,-227.25 237.2,-210.17 291.52,-202.17 335.71,-198.44"/>
<polygon fill="black" stroke="black" points="335.71,-201.87 345.41,-197.6 335.17,-194.89 335.71,-201.87"/>
<text text-anchor="middle" x="257.13" y="-231.2" font-family="Times,serif" font-size="14.00">«include»</text>
</g>
<!-- fillet -->
<g id="node9" class="node">
<title>fillet</title>
<polygon fill="white" stroke="black" stroke-width="2" points="218,-375.75 118,-375.75 118,-345.75 218,-345.75 218,-375.75"/>
<text text-anchor="middle" x="168" y="-356.08" font-family="Times,serif" font-size="14.00">fillet</text>
</g>
<!-- fillet&#45;&gt;3d&#45;engine -->
<g id="edge9" class="edge">
<title>fillet&#45;&gt;3d&#45;engine</title>
<path fill="none" stroke="black" d="M185.65,-344.79C199.7,-333.67 220.33,-319 240.75,-310.5 272.95,-297.1 311.1,-289.22 342.42,-284.64"/>
<polygon fill="black" stroke="black" points="342.76,-287.98 352.19,-283.15 341.81,-281.05 342.76,-287.98"/>
<text text-anchor="middle" x="275.13" y="-314.45" font-family="Times,serif" font-size="14.00">«include»</text>
</g>
<!-- grid -->
<g id="node10" class="node">
<title>grid</title>
<polygon fill="white" stroke="black" stroke-width="2" points="336,-375.75 236,-375.75 236,-345.75 336,-345.75 336,-375.75"/>
<text text-anchor="middle" x="286" y="-356.08" font-family="Times,serif" font-size="14.00">grid</text>
</g>
<!-- grid&#45;&gt;3d&#45;engine -->
<g id="edge10" class="edge">
<title>grid&#45;&gt;3d&#45;engine</title>
<path fill="none" stroke="black" d="M297.11,-344.87C305.66,-334.22 318.26,-320.12 331.75,-310.5 338.35,-305.79 345.74,-301.56 353.22,-297.82"/>
<polygon fill="black" stroke="black" points="354.13,-300.79 361.69,-293.36 351.15,-294.46 354.13,-300.79"/>
<text text-anchor="middle" x="366.13" y="-314.45" font-family="Times,serif" font-size="14.00">«include»</text>
</g>
<!-- hole -->
<g id="node11" class="node">
<title>hole</title>
<polygon fill="white" stroke="black" stroke-width="2" points="454,-459 354,-459 354,-429 454,-429 454,-459"/>
<text text-anchor="middle" x="404" y="-439.33" font-family="Times,serif" font-size="14.00">hole</text>
</g>
<!-- label -->
<g id="node12" class="node">
<title>label</title>
<polygon fill="white" stroke="black" stroke-width="2" points="454,-375.75 354,-375.75 354,-345.75 454,-345.75 454,-375.75"/>
<text text-anchor="middle" x="404" y="-356.08" font-family="Times,serif" font-size="14.00">label</text>
</g>
<!-- hole&#45;&gt;label -->
<g id="edge11" class="edge">
<title>hole&#45;&gt;label</title>
<path fill="none" stroke="black" d="M404,-428.1C404,-416.76 404,-400.88 404,-387.5"/>
<polygon fill="black" stroke="black" points="407.5,-387.56 404,-377.56 400.5,-387.56 407.5,-387.56"/>
<text text-anchor="middle" x="438.13" y="-397.7" font-family="Times,serif" font-size="14.00">«include»</text>
</g>
<!-- label&#45;&gt;3d&#45;engine -->
<g id="edge12" class="edge">
<title>label&#45;&gt;3d&#45;engine</title>
<path fill="none" stroke="black" d="M404,-344.85C404,-333.51 404,-317.63 404,-304.25"/>
<polygon fill="black" stroke="black" points="407.5,-304.31 404,-294.31 400.5,-304.31 407.5,-304.31"/>
<text text-anchor="middle" x="438.13" y="-314.45" font-family="Times,serif" font-size="14.00">«include»</text>
</g>
<!-- limits -->
<g id="node13" class="node">
<title>limits</title>
<polygon fill="white" stroke="black" stroke-width="2" points="238,-113.25 138,-113.25 138,-83.25 238,-83.25 238,-113.25"/>
<text text-anchor="middle" x="188" y="-93.58" font-family="Times,serif" font-size="14.00">limits</text>
</g>
<!-- limits&#45;&gt;core -->
<g id="edge13" class="edge">
<title>limits&#45;&gt;core</title>
<path fill="none" stroke="black" d="M201.06,-82.63C211.75,-71.53 227.83,-56.74 244.75,-48 266.25,-36.89 291.73,-29.54 314.5,-24.72"/>
<polygon fill="black" stroke="black" points="314.96,-28 324.09,-22.62 313.59,-21.13 314.96,-28"/>
<text text-anchor="middle" x="279.13" y="-51.95" font-family="Times,serif" font-size="14.00">«include»</text>
</g>
<!-- mngm&#45;engine&#45;&gt;core -->
<g id="edge14" class="edge">
<title>mngm&#45;engine&#45;&gt;core</title>
<path fill="none" stroke="black" d="M420.91,-82.35C412.85,-70.44 401.39,-53.51 392.07,-39.74"/>
<polygon fill="black" stroke="black" points="394.53,-38.13 386.02,-31.81 388.73,-42.05 394.53,-38.13"/>
<text text-anchor="middle" x="442.13" y="-51.95" font-family="Times,serif" font-size="14.00">«include»</text>
</g>
<!-- polymorphic&#45;engine&#45;&gt;bbox&#45;engine -->
<g id="edge24" class="edge">
<title>polymorphic&#45;engine&#45;&gt;bbox&#45;engine</title>
<path fill="none" stroke="red" stroke-width="2" d="M641.29,-178.34C632.87,-173.51 624.06,-167.71 616.75,-161.25 604.21,-150.17 605.45,-143.46 594,-131.25 591.3,-128.37 588.36,-125.48 585.35,-122.68"/>
<polygon fill="red" stroke="red" stroke-width="2" points="587.56,-120.18 577.76,-116.16 582.91,-125.41 587.56,-120.18"/>
<text text-anchor="middle" x="636.63" y="-141.58" font-family="Times,serif" font-size="14.00">«use»</text>
</g>
<!-- polymorphic&#45;engine&#45;&gt;core -->
<g id="edge15" class="edge">
<title>polymorphic&#45;engine&#45;&gt;core</title>
<path fill="none" stroke="black" d="M670.67,-178.29C669.04,-165.29 665.51,-146.25 658,-131.25 635.56,-86.46 626.63,-70.76 582,-48 557.39,-35.45 488.89,-26.49 437.59,-21.3"/>
<polygon fill="black" stroke="black" points="438.22,-17.75 427.93,-20.25 437.53,-24.71 438.22,-17.75"/>
<text text-anchor="middle" x="682.13" y="-93.58" font-family="Times,serif" font-size="14.00">«include»</text>
</g>
<!-- profile -->
<g id="node16" class="node">
<title>profile</title>
<polygon fill="white" stroke="black" stroke-width="2" points="572,-375.75 472,-375.75 472,-345.75 572,-345.75 572,-375.75"/>
<text text-anchor="middle" x="522" y="-356.08" font-family="Times,serif" font-size="14.00">profile</text>
</g>
<!-- profile&#45;&gt;3d&#45;engine -->
<g id="edge16" class="edge">
<title>profile&#45;&gt;3d&#45;engine</title>
<path fill="none" stroke="black" d="M510.81,-344.88C502.21,-334.24 489.53,-320.14 476,-310.5 469.57,-305.92 462.37,-301.77 455.08,-298.1"/>
<polygon fill="black" stroke="black" points="456.69,-294.52 446.16,-293.4 453.69,-300.84 456.69,-294.52"/>
<text text-anchor="middle" x="529.13" y="-314.45" font-family="Times,serif" font-size="14.00">«include»</text>
</g>
<!-- template -->
<g id="node17" class="node">
<title>template</title>
<polygon fill="white" stroke="black" stroke-width="2" points="690,-375.75 590,-375.75 590,-345.75 690,-345.75 690,-375.75"/>
<text text-anchor="middle" x="640" y="-356.08" font-family="Times,serif" font-size="14.00">template</text>
</g>
<!-- template&#45;&gt;3d&#45;engine -->
<g id="edge17" class="edge">
<title>template&#45;&gt;3d&#45;engine</title>
<path fill="none" stroke="black" d="M622.28,-344.8C608.17,-333.67 587.47,-319 567,-310.5 534.84,-297.14 496.75,-289.26 465.48,-284.67"/>
<polygon fill="black" stroke="black" points="466.11,-281.09 455.72,-283.18 465.15,-288.02 466.11,-281.09"/>
<text text-anchor="middle" x="630.13" y="-314.45" font-family="Times,serif" font-size="14.00">«include»</text>
</g>
<!-- type_trait&#45;&gt;core -->
<g id="edge18" class="edge">
<title>type_trait&#45;&gt;core</title>
<path fill="none" stroke="black" d="M92.2,-136.05C79.91,-131.31 68.19,-124.13 60.75,-113.25 53.22,-102.24 52.42,-93.66 60.75,-83.25 91.81,-44.4 231.75,-27.08 314.38,-20.12"/>
<polygon fill="black" stroke="black" points="314.46,-23.54 324.14,-19.24 313.89,-16.56 314.46,-23.54"/>
<text text-anchor="middle" x="95.13" y="-93.58" font-family="Times,serif" font-size="14.00">«include»</text>
</g>
<!-- unsafe_defs&#45;&gt;core -->
<g id="edge19" class="edge">
<title>unsafe_defs&#45;&gt;core</title>
<path fill="none" stroke="black" d="M309.29,-82.64C312.23,-72.12 317.4,-58.07 325.75,-48 329.04,-44.03 332.96,-40.39 337.13,-37.11"/>
<polygon fill="black" stroke="black" points="338.8,-39.51 344.94,-30.87 334.76,-33.79 338.8,-39.51"/>
<text text-anchor="middle" x="360.13" y="-51.95" font-family="Times,serif" font-size="14.00">«include»</text>
</g>
<!-- util&#45;&gt;3d&#45;engine -->
<g id="edge20" class="edge">
<title>util&#45;&gt;3d&#45;engine</title>
<path fill="none" stroke="black" d="M736.5,-344.92C718.9,-333.56 692.93,-318.5 668,-310.5 600.97,-288.98 520.12,-281.74 465.7,-279.41"/>
<polygon fill="black" stroke="black" points="465.97,-275.88 455.84,-278.99 465.7,-282.87 465.97,-275.88"/>
<text text-anchor="middle" x="740.13" y="-314.45" font-family="Times,serif" font-size="14.00">«include»</text>
</g>
</g>
</svg>
