<?xml version="1.0" encoding="UTF-8" standalone="no"?>
<!DOCTYPE svg PUBLIC "-//W3C//DTD SVG 1.1//EN"
 "http://www.w3.org/Graphics/SVG/1.1/DTD/svg11.dtd">
<!-- Generated by graphviz version 8.1.0 (20230707.0739)
 -->
<!-- Title: foundation Pages: 1 -->
<svg width="1119pt" height="464pt"
 viewBox="0.00 0.00 1119.25 464.00" xmlns="http://www.w3.org/2000/svg" xmlns:xlink="http://www.w3.org/1999/xlink">
<g id="graph0" class="graph" transform="scale(1 1) rotate(0) translate(4 460)">
<title>foundation</title>
<polygon fill="white" stroke="none" points="-4,4 -4,-460 1115.25,-460 1115.25,4 -4,4"/>
<!-- 2d&#45;engine -->
<g id="node1" class="node">
<title>2d&#45;engine</title>
<polygon fill="white" stroke="black" stroke-width="2" points="906,-208.5 806,-208.5 806,-178.5 906,-178.5 906,-208.5"/>
<text text-anchor="middle" x="856" y="-188.45" font-family="Times,serif" font-size="14.00">2d&#45;engine</text>
</g>
<!-- bbox&#45;engine -->
<g id="node4" class="node">
<title>bbox&#45;engine</title>
<polygon fill="white" stroke="black" stroke-width="2" points="794,-112.5 694,-112.5 694,-82.5 794,-82.5 794,-112.5"/>
<text text-anchor="middle" x="744" y="-92.45" font-family="Times,serif" font-size="14.00">bbox&#45;engine</text>
</g>
<!-- 2d&#45;engine&#45;&gt;bbox&#45;engine -->
<g id="edge21" class="edge">
<title>2d&#45;engine&#45;&gt;bbox&#45;engine</title>
<path fill="none" stroke="red" stroke-width="2" d="M838.98,-177.54C824.49,-164.87 803.04,-146.3 784,-130.5 780.36,-127.48 776.52,-124.34 772.7,-121.25"/>
<polygon fill="red" stroke="red" stroke-width="2" points="774.82,-117.87 764.83,-114.34 770.44,-123.33 774.82,-117.87"/>
<text text-anchor="middle" x="833.75" y="-140.45" font-family="Times,serif" font-size="14.00">«use»</text>
</g>
<!-- mngm&#45;engine -->
<g id="node15" class="node">
<title>mngm&#45;engine</title>
<polygon fill="white" stroke="black" stroke-width="2" points="1030,-112.5 930,-112.5 930,-82.5 1030,-82.5 1030,-112.5"/>
<text text-anchor="middle" x="980" y="-92.45" font-family="Times,serif" font-size="14.00">mngm&#45;engine</text>
</g>
<!-- 2d&#45;engine&#45;&gt;mngm&#45;engine -->
<g id="edge20" class="edge">
<title>2d&#45;engine&#45;&gt;mngm&#45;engine</title>
<path fill="none" stroke="red" stroke-width="2" d="M889.07,-177.63C897.96,-172.84 907.26,-167.04 915,-160.5 927.94,-149.57 926.48,-142.43 938.5,-130.5 941.63,-127.39 945.06,-124.32 948.57,-121.37"/>
<polygon fill="red" stroke="red" stroke-width="2" points="950.83,-123.45 956.47,-114.49 946.47,-117.98 950.83,-123.45"/>
<text text-anchor="middle" x="953.75" y="-140.45" font-family="Times,serif" font-size="14.00">«use»</text>
</g>
<!-- unsafe_defs -->
<g id="node20" class="node">
<title>unsafe_defs</title>
<polygon fill="white" stroke="black" stroke-width="2" points="912,-112.5 812,-112.5 812,-82.5 912,-82.5 912,-112.5"/>
<text text-anchor="middle" x="862" y="-92.45" font-family="Times,serif" font-size="14.00">unsafe_defs</text>
</g>
<!-- 2d&#45;engine&#45;&gt;unsafe_defs -->
<g id="edge1" class="edge">
<title>2d&#45;engine&#45;&gt;unsafe_defs</title>
<path fill="none" stroke="black" d="M856.94,-177.81C857.86,-163.41 859.28,-141.16 860.38,-123.89"/>
<polygon fill="black" stroke="black" points="863.91,-124.6 861.05,-114.39 856.92,-124.15 863.91,-124.6"/>
<text text-anchor="middle" x="886.63" y="-140.45" font-family="Times,serif" font-size="14.00">«include»</text>
</g>
<!-- 3d&#45;engine -->
<g id="node2" class="node">
<title>3d&#45;engine</title>
<polygon fill="white" stroke="black" stroke-width="2" points="568,-291 468,-291 468,-261 568,-261 568,-291"/>
<text text-anchor="middle" x="518" y="-270.95" font-family="Times,serif" font-size="14.00">3d&#45;engine</text>
</g>
<!-- 3d&#45;engine&#45;&gt;2d&#45;engine -->
<g id="edge2" class="edge">
<title>3d&#45;engine&#45;&gt;2d&#45;engine</title>
<path fill="none" stroke="black" d="M568.92,-260.33C604.79,-250.22 654.02,-236.81 697.75,-226.5 729.58,-219 765.27,-211.68 794.68,-205.95"/>
<polygon fill="black" stroke="black" points="795.07,-209.25 804.22,-203.91 793.74,-202.37 795.07,-209.25"/>
<text text-anchor="middle" x="724.63" y="-229.7" font-family="Times,serif" font-size="14.00">«include»</text>
</g>
<!-- polymorphic&#45;engine -->
<g id="node16" class="node">
<title>polymorphic&#45;engine</title>
<polygon fill="white" stroke="black" stroke-width="2" points="836.13,-373.5 709.88,-373.5 709.88,-343.5 836.13,-343.5 836.13,-373.5"/>
<text text-anchor="middle" x="773" y="-353.45" font-family="Times,serif" font-size="14.00">polymorphic&#45;engine</text>
</g>
<!-- 3d&#45;engine&#45;&gt;polymorphic&#45;engine -->
<g id="edge22" class="edge">
<title>3d&#45;engine&#45;&gt;polymorphic&#45;engine</title>
<path fill="none" stroke="red" stroke-width="2" d="M568.91,-284.86C593.79,-289.83 623.74,-297.54 649,-309 660.62,-314.27 661.07,-319.83 672.5,-325.5 682.33,-330.37 693.07,-334.72 703.75,-338.52"/>
<polygon fill="red" stroke="red" stroke-width="2" points="703.14,-342.68 713.74,-342.57 705.39,-336.05 703.14,-342.68"/>
<text text-anchor="middle" x="688.75" y="-312.2" font-family="Times,serif" font-size="14.00">«use»</text>
</g>
<!-- type_trait -->
<g id="node19" class="node">
<title>type_trait</title>
<polygon fill="white" stroke="black" stroke-width="2" points="562,-160.5 462,-160.5 462,-130.5 562,-130.5 562,-160.5"/>
<text text-anchor="middle" x="512" y="-140.45" font-family="Times,serif" font-size="14.00">type_trait</text>
</g>
<!-- 3d&#45;engine&#45;&gt;type_trait -->
<g id="edge3" class="edge">
<title>3d&#45;engine&#45;&gt;type_trait</title>
<path fill="none" stroke="black" d="M517.3,-260.01C516.29,-238.44 514.42,-198.36 513.19,-172.06"/>
<polygon fill="black" stroke="black" points="516.66,-172.22 512.7,-162.4 509.67,-172.55 516.66,-172.22"/>
<text text-anchor="middle" x="543.63" y="-229.7" font-family="Times,serif" font-size="14.00">«include»</text>
</g>
<!-- algo&#45;engine -->
<g id="node3" class="node">
<title>algo&#45;engine</title>
<polygon fill="white" stroke="black" stroke-width="2" points="454,-373.5 354,-373.5 354,-343.5 454,-343.5 454,-373.5"/>
<text text-anchor="middle" x="404" y="-353.45" font-family="Times,serif" font-size="14.00">algo&#45;engine</text>
</g>
<!-- algo&#45;engine&#45;&gt;3d&#45;engine -->
<g id="edge4" class="edge">
<title>algo&#45;engine&#45;&gt;3d&#45;engine</title>
<path fill="none" stroke="black" d="M420.39,-342.73C431.86,-332.7 447.76,-319.42 462.75,-309 468.42,-305.06 474.61,-301.13 480.72,-297.46"/>
<polygon fill="black" stroke="black" points="482.33,-299.99 489.19,-291.92 478.79,-293.95 482.33,-299.99"/>
<text text-anchor="middle" x="489.63" y="-312.2" font-family="Times,serif" font-size="14.00">«include»</text>
</g>
<!-- core -->
<g id="node7" class="node">
<title>core</title>
<polygon fill="white" stroke="black" stroke-width="2" points="863,-30 763,-30 763,0 863,0 863,-30"/>
<text text-anchor="middle" x="813" y="-9.95" font-family="Times,serif" font-size="14.00">core</text>
</g>
<!-- bbox&#45;engine&#45;&gt;core -->
<g id="edge5" class="edge">
<title>bbox&#45;engine&#45;&gt;core</title>
<path fill="none" stroke="black" d="M752.56,-81.8C758.7,-71.8 767.5,-58.53 776.75,-48 779.74,-44.59 783.08,-41.2 786.5,-37.97"/>
<polygon fill="black" stroke="black" points="788.38,-41.08 793.45,-31.78 783.69,-35.89 788.38,-41.08"/>
<text text-anchor="middle" x="803.63" y="-51.2" font-family="Times,serif" font-size="14.00">«include»</text>
</g>
<!-- components -->
<g id="node5" class="node">
<title>components</title>
<polygon fill="white" stroke="black" stroke-width="2" points="745,-208.5 645,-208.5 645,-178.5 745,-178.5 745,-208.5"/>
<text text-anchor="middle" x="695" y="-188.45" font-family="Times,serif" font-size="14.00">components</text>
</g>
<!-- components&#45;&gt;bbox&#45;engine -->
<g id="edge6" class="edge">
<title>components&#45;&gt;bbox&#45;engine</title>
<path fill="none" stroke="black" d="M694.76,-177.76C695.16,-164.55 697.35,-145.08 705.75,-130.5 707.77,-126.99 710.33,-123.7 713.16,-120.66"/>
<polygon fill="black" stroke="black" points="715.2,-123.61 720.12,-114.23 710.42,-118.5 715.2,-123.61"/>
<text text-anchor="middle" x="732.63" y="-140.45" font-family="Times,serif" font-size="14.00">«include»</text>
</g>
<!-- connect -->
<g id="node6" class="node">
<title>connect</title>
<polygon fill="white" stroke="black" stroke-width="2" points="336,-456 236,-456 236,-426 336,-426 336,-456"/>
<text text-anchor="middle" x="286" y="-435.95" font-family="Times,serif" font-size="14.00">connect</text>
</g>
<!-- util -->
<g id="node21" class="node">
<title>util</title>
<polygon fill="white" stroke="black" stroke-width="2" points="336,-373.5 236,-373.5 236,-343.5 336,-343.5 336,-373.5"/>
<text text-anchor="middle" x="286" y="-353.45" font-family="Times,serif" font-size="14.00">util</text>
</g>
<!-- connect&#45;&gt;util -->
<g id="edge7" class="edge">
<title>connect&#45;&gt;util</title>
<path fill="none" stroke="black" d="M286,-425.24C286,-414.07 286,-398.46 286,-385.26"/>
<polygon fill="black" stroke="black" points="289.5,-385.44 286,-375.44 282.5,-385.44 289.5,-385.44"/>
<text text-anchor="middle" x="312.63" y="-394.7" font-family="Times,serif" font-size="14.00">«include»</text>
</g>
<!-- dimensions -->
<g id="node8" class="node">
<title>dimensions</title>
<polygon fill="white" stroke="black" stroke-width="2" points="454,-456 354,-456 354,-426 454,-426 454,-456"/>
<text text-anchor="middle" x="404" y="-435.95" font-family="Times,serif" font-size="14.00">dimensions</text>
</g>
<!-- drawio -->
<g id="node9" class="node">
<title>drawio</title>
<polygon fill="white" stroke="black" stroke-width="2" points="906,-291 806,-291 806,-261 906,-261 906,-291"/>
<text text-anchor="middle" x="856" y="-270.95" font-family="Times,serif" font-size="14.00">drawio</text>
</g>
<!-- drawio&#45;&gt;2d&#45;engine -->
<g id="edge8" class="edge">
<title>drawio&#45;&gt;2d&#45;engine</title>
<path fill="none" stroke="black" d="M856,-260.24C856,-249.07 856,-233.46 856,-220.26"/>
<polygon fill="black" stroke="black" points="859.5,-220.44 856,-210.44 852.5,-220.44 859.5,-220.44"/>
<text text-anchor="middle" x="882.63" y="-229.7" font-family="Times,serif" font-size="14.00">«include»</text>
</g>
<!-- fillet -->
<g id="node10" class="node">
<title>fillet</title>
<polygon fill="white" stroke="black" stroke-width="2" points="572,-373.5 472,-373.5 472,-343.5 572,-343.5 572,-373.5"/>
<text text-anchor="middle" x="522" y="-353.45" font-family="Times,serif" font-size="14.00">fillet</text>
</g>
<!-- fillet&#45;&gt;3d&#45;engine -->
<g id="edge9" class="edge">
<title>fillet&#45;&gt;3d&#45;engine</title>
<path fill="none" stroke="black" d="M520.84,-342.53C520.45,-337.16 520.05,-331.06 519.75,-325.5 519.36,-318.1 519.03,-310.06 518.76,-302.7"/>
<polygon fill="black" stroke="black" points="522.23,-302.74 518.41,-292.86 515.24,-302.98 522.23,-302.74"/>
<text text-anchor="middle" x="546.63" y="-312.2" font-family="Times,serif" font-size="14.00">«include»</text>
</g>
<!-- grid -->
<g id="node11" class="node">
<title>grid</title>
<polygon fill="white" stroke="black" stroke-width="2" points="690,-373.5 590,-373.5 590,-343.5 690,-343.5 690,-373.5"/>
<text text-anchor="middle" x="640" y="-353.45" font-family="Times,serif" font-size="14.00">grid</text>
</g>
<!-- grid&#45;&gt;3d&#45;engine -->
<g id="edge10" class="edge">
<title>grid&#45;&gt;3d&#45;engine</title>
<path fill="none" stroke="black" d="M619.28,-342.53C611.86,-337.16 603.43,-331.06 595.75,-325.5 585.63,-318.17 583.47,-315.82 573,-309 566.97,-305.07 560.44,-301.07 554.06,-297.29"/>
<polygon fill="black" stroke="black" points="556.3,-293.96 545.9,-291.93 552.77,-300 556.3,-293.96"/>
<text text-anchor="middle" x="622.63" y="-312.2" font-family="Times,serif" font-size="14.00">«include»</text>
</g>
<!-- hole -->
<g id="node12" class="node">
<title>hole</title>
<polygon fill="white" stroke="black" stroke-width="2" points="100,-456 0,-456 0,-426 100,-426 100,-456"/>
<text text-anchor="middle" x="50" y="-435.95" font-family="Times,serif" font-size="14.00">hole</text>
</g>
<!-- label -->
<g id="node13" class="node">
<title>label</title>
<polygon fill="white" stroke="black" stroke-width="2" points="100,-373.5 0,-373.5 0,-343.5 100,-343.5 100,-373.5"/>
<text text-anchor="middle" x="50" y="-353.45" font-family="Times,serif" font-size="14.00">label</text>
</g>
<!-- hole&#45;&gt;label -->
<g id="edge11" class="edge">
<title>hole&#45;&gt;label</title>
<path fill="none" stroke="black" d="M50,-425.24C50,-414.07 50,-398.46 50,-385.26"/>
<polygon fill="black" stroke="black" points="53.5,-385.44 50,-375.44 46.5,-385.44 53.5,-385.44"/>
<text text-anchor="middle" x="76.63" y="-394.7" font-family="Times,serif" font-size="14.00">«include»</text>
</g>
<!-- label&#45;&gt;3d&#45;engine -->
<g id="edge12" class="edge">
<title>label&#45;&gt;3d&#45;engine</title>
<path fill="none" stroke="black" d="M84.72,-342.52C111.96,-331.43 151.09,-316.92 186.75,-309 279.31,-288.44 389.33,-281.09 456.38,-278.46"/>
<polygon fill="black" stroke="black" points="456.31,-281.93 466.17,-278.07 456.05,-274.94 456.31,-281.93"/>
<text text-anchor="middle" x="213.63" y="-312.2" font-family="Times,serif" font-size="14.00">«include»</text>
</g>
<!-- limits -->
<g id="node14" class="node">
<title>limits</title>
<polygon fill="white" stroke="black" stroke-width="2" points="676,-112.5 576,-112.5 576,-82.5 676,-82.5 676,-112.5"/>
<text text-anchor="middle" x="626" y="-92.45" font-family="Times,serif" font-size="14.00">limits</text>
</g>
<!-- limits&#45;&gt;core -->
<g id="edge13" class="edge">
<title>limits&#45;&gt;core</title>
<path fill="none" stroke="black" d="M647.48,-81.58C663.31,-71.1 685.66,-57.33 706.75,-48 720.99,-41.7 736.83,-36.18 751.85,-31.59"/>
<polygon fill="black" stroke="black" points="752.48,-34.75 761.08,-28.56 750.49,-28.04 752.48,-34.75"/>
<text text-anchor="middle" x="733.63" y="-51.2" font-family="Times,serif" font-size="14.00">«include»</text>
</g>
<!-- mngm&#45;engine&#45;&gt;core -->
<g id="edge14" class="edge">
<title>mngm&#45;engine&#45;&gt;core</title>
<path fill="none" stroke="black" d="M957.58,-81.55C941.65,-71.32 919.54,-57.87 899,-48 889.2,-43.29 878.51,-38.82 868.11,-34.79"/>
<polygon fill="black" stroke="black" points="869.43,-31.17 858.84,-30.92 866.96,-37.72 869.43,-31.17"/>
<text text-anchor="middle" x="954.63" y="-51.2" font-family="Times,serif" font-size="14.00">«include»</text>
</g>
<!-- polymorphic&#45;engine&#45;&gt;3d&#45;engine -->
<g id="edge23" class="edge">
<title>polymorphic&#45;engine&#45;&gt;3d&#45;engine</title>
<path fill="none" stroke="red" stroke-width="2" d="M751.99,-342.71C731.76,-328.47 704.17,-309.07 704,-309 664.99,-292.89 618.14,-284.89 581.23,-280.92"/>
<polygon fill="red" stroke="red" stroke-width="2" points="581.91,-277.18 571.61,-279.68 581.22,-284.14 581.91,-277.18"/>
<text text-anchor="middle" x="742.75" y="-312.2" font-family="Times,serif" font-size="14.00">«use»</text>
</g>
<!-- polymorphic&#45;engine&#45;&gt;bbox&#45;engine -->
<g id="edge24" class="edge">
<title>polymorphic&#45;engine&#45;&gt;bbox&#45;engine</title>
<path fill="none" stroke="red" stroke-width="2" d="M773.98,-342.6C776,-305.87 778.88,-208.35 759,-130.5 758.56,-128.77 758.02,-127.02 757.42,-125.28"/>
<polygon fill="red" stroke="red" stroke-width="2" points="760.5,-123.21 753.39,-115.36 754.06,-125.94 760.5,-123.21"/>
<text text-anchor="middle" x="790.75" y="-229.7" font-family="Times,serif" font-size="14.00">«use»</text>
</g>
<!-- polymorphic&#45;engine&#45;&gt;core -->
<g id="edge15" class="edge">
<title>polymorphic&#45;engine&#45;&gt;core</title>
<path fill="none" stroke="black" d="M836.96,-352.31C920.99,-343.68 1058,-322.63 1058,-277 1058,-277 1058,-277 1058,-96.5 1058,-57.96 947.19,-34.85 874.62,-23.85"/>
<polygon fill="black" stroke="black" points="875.17,-20.24 864.76,-22.25 874.15,-27.17 875.17,-20.24"/>
<text text-anchor="middle" x="1084.63" y="-188.45" font-family="Times,serif" font-size="14.00">«include»</text>
</g>
<!-- polymorphic&#45;engine&#45;&gt;mngm&#45;engine -->
<g id="edge25" class="edge">
<title>polymorphic&#45;engine&#45;&gt;mngm&#45;engine</title>
<path fill="none" stroke="red" stroke-width="2" d="M827.27,-342.6C856.45,-332.22 891.23,-315.72 915,-291 959.39,-244.84 973.51,-167.35 977.97,-126.17"/>
<polygon fill="red" stroke="red" stroke-width="2" points="981.71,-126.74 979.16,-116.46 974.74,-126.09 981.71,-126.74"/>
<text text-anchor="middle" x="969.75" y="-229.7" font-family="Times,serif" font-size="14.00">«use»</text>
</g>
<!-- profile -->
<g id="node17" class="node">
<title>profile</title>
<polygon fill="white" stroke="black" stroke-width="2" points="218,-373.5 118,-373.5 118,-343.5 218,-343.5 218,-373.5"/>
<text text-anchor="middle" x="168" y="-353.45" font-family="Times,serif" font-size="14.00">profile</text>
</g>
<!-- profile&#45;&gt;3d&#45;engine -->
<g id="edge16" class="edge">
<title>profile&#45;&gt;3d&#45;engine</title>
<path fill="none" stroke="black" d="M200.14,-342.51C224.72,-331.64 259.72,-317.42 291.75,-309 346.45,-294.62 410.4,-286.33 456.32,-281.81"/>
<polygon fill="black" stroke="black" points="456.39,-285.23 466.01,-280.8 455.72,-278.26 456.39,-285.23"/>
<text text-anchor="middle" x="318.63" y="-312.2" font-family="Times,serif" font-size="14.00">«include»</text>
</g>
<!-- template -->
<g id="node18" class="node">
<title>template</title>
<polygon fill="white" stroke="black" stroke-width="2" points="572,-456 472,-456 472,-426 572,-426 572,-456"/>
<text text-anchor="middle" x="522" y="-435.95" font-family="Times,serif" font-size="14.00">template</text>
</g>
<!-- type_trait&#45;&gt;core -->
<g id="edge17" class="edge">
<title>type_trait&#45;&gt;core</title>
<path fill="none" stroke="black" d="M507.75,-129.7C504.77,-115.9 502.99,-95.54 513.75,-82.5 543.44,-46.54 672.73,-28.65 751.33,-20.94"/>
<polygon fill="black" stroke="black" points="751.45,-24.35 761.07,-19.92 750.79,-17.38 751.45,-24.35"/>
<text text-anchor="middle" x="540.63" y="-92.45" font-family="Times,serif" font-size="14.00">«include»</text>
</g>
<!-- unsafe_defs&#45;&gt;core -->
<g id="edge18" class="edge">
<title>unsafe_defs&#45;&gt;core</title>
<path fill="none" stroke="black" d="M853.01,-81.74C845.94,-70.12 835.95,-53.7 827.71,-40.17"/>
<polygon fill="black" stroke="black" points="830.29,-38.67 822.1,-31.94 824.31,-42.31 830.29,-38.67"/>
<text text-anchor="middle" x="868.63" y="-51.2" font-family="Times,serif" font-size="14.00">«include»</text>
</g>
<!-- util&#45;&gt;3d&#45;engine -->
<g id="edge19" class="edge">
<title>util&#45;&gt;3d&#45;engine</title>
<path fill="none" stroke="black" d="M312.13,-342.69C331.64,-332.12 359.24,-318.2 384.75,-309 407.74,-300.71 433.74,-293.92 456.63,-288.76"/>
<polygon fill="black" stroke="black" points="457.22,-291.99 466.24,-286.43 455.72,-285.16 457.22,-291.99"/>
<text text-anchor="middle" x="411.63" y="-312.2" font-family="Times,serif" font-size="14.00">«include»</text>
</g>
</g>
</svg>
