<?xml version="1.0" encoding="UTF-8" standalone="no"?>
<!DOCTYPE svg PUBLIC "-//W3C//DTD SVG 1.1//EN"
 "http://www.w3.org/Graphics/SVG/1.1/DTD/svg11.dtd">
<!-- Generated by graphviz version 8.1.0 (20230707.0739)
 -->
<!-- Title: foundation Pages: 1 -->
<svg width="1180pt" height="467pt"
 viewBox="0.00 0.00 1180.25 467.00" xmlns="http://www.w3.org/2000/svg" xmlns:xlink="http://www.w3.org/1999/xlink">
<g id="graph0" class="graph" transform="scale(1 1) rotate(0) translate(4 463)">
<title>foundation</title>
<polygon fill="white" stroke="none" points="-4,4 -4,-463 1176.25,-463 1176.25,4 -4,4"/>
<!-- 2d&#45;engine -->
<g id="node1" class="node">
<title>2d&#45;engine</title>
<polygon fill="white" stroke="black" stroke-width="2" points="938,-209.25 838,-209.25 838,-179.25 938,-179.25 938,-209.25"/>
<text text-anchor="middle" x="888" y="-189.58" font-family="Times,serif" font-size="14.00">2d&#45;engine</text>
</g>
<!-- bbox&#45;engine -->
<g id="node4" class="node">
<title>bbox&#45;engine</title>
<polygon fill="white" stroke="black" stroke-width="2" points="826.13,-113.25 723.88,-113.25 723.88,-83.25 826.13,-83.25 826.13,-113.25"/>
<text text-anchor="middle" x="775" y="-93.58" font-family="Times,serif" font-size="14.00">bbox&#45;engine</text>
</g>
<!-- 2d&#45;engine&#45;&gt;bbox&#45;engine -->
<g id="edge21" class="edge">
<title>2d&#45;engine&#45;&gt;bbox&#45;engine</title>
<path fill="none" stroke="red" stroke-width="2" d="M868,-178.56C860.89,-173.22 852.88,-167.06 845.75,-161.25 837.15,-154.24 817.77,-137.22 801.46,-122.78"/>
<polygon fill="red" stroke="red" stroke-width="2" points="803.63,-120.26 793.82,-116.24 798.98,-125.49 803.63,-120.26"/>
<text text-anchor="middle" x="866.63" y="-141.58" font-family="Times,serif" font-size="14.00">«use»</text>
</g>
<!-- mngm&#45;engine -->
<g id="node14" class="node">
<title>mngm&#45;engine</title>
<polygon fill="white" stroke="black" stroke-width="2" points="1075.75,-113.25 962.25,-113.25 962.25,-83.25 1075.75,-83.25 1075.75,-113.25"/>
<text text-anchor="middle" x="1019" y="-93.58" font-family="Times,serif" font-size="14.00">mngm&#45;engine</text>
</g>
<!-- 2d&#45;engine&#45;&gt;mngm&#45;engine -->
<g id="edge20" class="edge">
<title>2d&#45;engine&#45;&gt;mngm&#45;engine</title>
<path fill="none" stroke="red" stroke-width="2" d="M933.34,-178.37C943.94,-173.78 954.81,-168.09 964,-161.25 977.87,-150.93 977.31,-144.2 988.75,-131.25 991.04,-128.65 993.47,-125.97 995.92,-123.32"/>
<polygon fill="red" stroke="red" stroke-width="2" points="998.34,-125.72 1002.63,-116.03 993.24,-120.93 998.34,-125.72"/>
<text text-anchor="middle" x="1008.63" y="-141.58" font-family="Times,serif" font-size="14.00">«use»</text>
</g>
<!-- unsafe_defs -->
<g id="node19" class="node">
<title>unsafe_defs</title>
<polygon fill="white" stroke="black" stroke-width="2" points="944,-113.25 844,-113.25 844,-83.25 944,-83.25 944,-113.25"/>
<text text-anchor="middle" x="894" y="-93.58" font-family="Times,serif" font-size="14.00">unsafe_defs</text>
</g>
<!-- 2d&#45;engine&#45;&gt;unsafe_defs -->
<g id="edge1" class="edge">
<title>2d&#45;engine&#45;&gt;unsafe_defs</title>
<path fill="none" stroke="black" d="M888.94,-178.56C889.86,-164.16 891.28,-141.91 892.38,-124.64"/>
<polygon fill="black" stroke="black" points="895.91,-125.35 893.05,-115.14 888.92,-124.9 895.91,-125.35"/>
<text text-anchor="middle" x="926.13" y="-141.58" font-family="Times,serif" font-size="14.00">«include»</text>
</g>
<!-- 3d&#45;engine -->
<g id="node2" class="node">
<title>3d&#45;engine</title>
<polygon fill="white" stroke="black" stroke-width="2" points="558,-292.5 458,-292.5 458,-262.5 558,-262.5 558,-292.5"/>
<text text-anchor="middle" x="508" y="-272.83" font-family="Times,serif" font-size="14.00">3d&#45;engine</text>
</g>
<!-- 3d&#45;engine&#45;&gt;2d&#45;engine -->
<g id="edge2" class="edge">
<title>3d&#45;engine&#45;&gt;2d&#45;engine</title>
<path fill="none" stroke="black" d="M558.82,-263.63C600.57,-253.24 661.32,-238.54 714.75,-227.25 751.74,-219.43 793.41,-211.7 826.61,-205.8"/>
<polygon fill="black" stroke="black" points="826.84,-209.14 836.07,-203.95 825.62,-202.24 826.84,-209.14"/>
<text text-anchor="middle" x="749.13" y="-231.2" font-family="Times,serif" font-size="14.00">«include»</text>
</g>
<!-- polymorphic&#45;engine -->
<g id="node15" class="node">
<title>polymorphic&#45;engine</title>
<polygon fill="white" stroke="black" stroke-width="2" points="888.5,-375.75 731.5,-375.75 731.5,-345.75 888.5,-345.75 888.5,-375.75"/>
<text text-anchor="middle" x="810" y="-356.08" font-family="Times,serif" font-size="14.00">polymorphic&#45;engine</text>
</g>
<!-- 3d&#45;engine&#45;&gt;polymorphic&#45;engine -->
<g id="edge22" class="edge">
<title>3d&#45;engine&#45;&gt;polymorphic&#45;engine</title>
<path fill="none" stroke="red" stroke-width="2" d="M558.8,-282.76C591.17,-286.88 633.39,-294.92 668,-310.5 679.57,-315.71 679.35,-322.17 690.75,-327.75 701.21,-332.87 712.61,-337.26 724.06,-341"/>
<polygon fill="red" stroke="red" stroke-width="2" points="723.9,-345.22 734.48,-344.81 725.95,-338.53 723.9,-345.22"/>
<text text-anchor="middle" x="711.63" y="-314.45" font-family="Times,serif" font-size="14.00">«use»</text>
</g>
<!-- type_trait -->
<g id="node18" class="node">
<title>type_trait</title>
<polygon fill="white" stroke="black" stroke-width="2" points="560,-161.25 460,-161.25 460,-131.25 560,-131.25 560,-161.25"/>
<text text-anchor="middle" x="510" y="-141.58" font-family="Times,serif" font-size="14.00">type_trait</text>
</g>
<!-- 3d&#45;engine&#45;&gt;type_trait -->
<g id="edge3" class="edge">
<title>3d&#45;engine&#45;&gt;type_trait</title>
<path fill="none" stroke="black" d="M508.23,-261.67C508.57,-239.96 509.2,-199.2 509.61,-172.65"/>
<polygon fill="black" stroke="black" points="513.12,-172.96 509.77,-162.9 506.12,-172.85 513.12,-172.96"/>
<text text-anchor="middle" x="543.13" y="-231.2" font-family="Times,serif" font-size="14.00">«include»</text>
</g>
<!-- algo&#45;engine -->
<g id="node3" class="node">
<title>algo&#45;engine</title>
<polygon fill="white" stroke="black" stroke-width="2" points="454,-375.75 354,-375.75 354,-345.75 454,-345.75 454,-375.75"/>
<text text-anchor="middle" x="404" y="-356.08" font-family="Times,serif" font-size="14.00">algo&#45;engine</text>
</g>
<!-- algo&#45;engine&#45;&gt;3d&#45;engine -->
<g id="edge4" class="edge">
<title>algo&#45;engine&#45;&gt;3d&#45;engine</title>
<path fill="none" stroke="black" d="M410.2,-345.17C415.41,-334.38 423.76,-319.99 434.75,-310.5 440.11,-305.87 446.25,-301.81 452.64,-298.28"/>
<polygon fill="black" stroke="black" points="453.78,-301.13 461.12,-293.49 450.62,-294.88 453.78,-301.13"/>
<text text-anchor="middle" x="469.13" y="-314.45" font-family="Times,serif" font-size="14.00">«include»</text>
</g>
<!-- core -->
<g id="node7" class="node">
<title>core</title>
<polygon fill="white" stroke="black" stroke-width="2" points="891,-30 791,-30 791,0 891,0 891,-30"/>
<text text-anchor="middle" x="841" y="-10.33" font-family="Times,serif" font-size="14.00">core</text>
</g>
<!-- bbox&#45;engine&#45;&gt;core -->
<g id="edge5" class="edge">
<title>bbox&#45;engine&#45;&gt;core</title>
<path fill="none" stroke="black" d="M776.96,-82.66C778.97,-72.15 782.97,-58.1 790.75,-48 793.74,-44.12 797.35,-40.57 801.24,-37.38"/>
<polygon fill="black" stroke="black" points="803.06,-39.66 809.09,-30.94 798.94,-34 803.06,-39.66"/>
<text text-anchor="middle" x="825.13" y="-51.95" font-family="Times,serif" font-size="14.00">«include»</text>
</g>
<!-- components -->
<g id="node5" class="node">
<title>components</title>
<polygon fill="white" stroke="black" stroke-width="2" points="768.13,-209.25 665.88,-209.25 665.88,-179.25 768.13,-179.25 768.13,-209.25"/>
<text text-anchor="middle" x="717" y="-189.58" font-family="Times,serif" font-size="14.00">components</text>
</g>
<!-- components&#45;&gt;bbox&#45;engine -->
<g id="edge6" class="edge">
<title>components&#45;&gt;bbox&#45;engine</title>
<path fill="none" stroke="black" d="M713.23,-178.35C710.73,-165.04 709.28,-145.5 717.75,-131.25 720.11,-127.29 723.15,-123.78 726.61,-120.68"/>
<polygon fill="black" stroke="black" points="728.39,-122.96 734.28,-114.16 724.19,-117.37 728.39,-122.96"/>
<text text-anchor="middle" x="752.13" y="-141.58" font-family="Times,serif" font-size="14.00">«include»</text>
</g>
<!-- connect -->
<g id="node6" class="node">
<title>connect</title>
<polygon fill="white" stroke="black" stroke-width="2" points="336,-459 236,-459 236,-429 336,-429 336,-459"/>
<text text-anchor="middle" x="286" y="-439.33" font-family="Times,serif" font-size="14.00">connect</text>
</g>
<!-- util -->
<g id="node20" class="node">
<title>util</title>
<polygon fill="white" stroke="black" stroke-width="2" points="336,-375.75 236,-375.75 236,-345.75 336,-345.75 336,-375.75"/>
<text text-anchor="middle" x="286" y="-356.08" font-family="Times,serif" font-size="14.00">util</text>
</g>
<!-- connect&#45;&gt;util -->
<g id="edge7" class="edge">
<title>connect&#45;&gt;util</title>
<path fill="none" stroke="black" d="M286,-428.1C286,-416.76 286,-400.88 286,-387.5"/>
<polygon fill="black" stroke="black" points="289.5,-387.56 286,-377.56 282.5,-387.56 289.5,-387.56"/>
<text text-anchor="middle" x="320.13" y="-397.7" font-family="Times,serif" font-size="14.00">«include»</text>
</g>
<!-- drawio -->
<g id="node8" class="node">
<title>drawio</title>
<polygon fill="white" stroke="black" stroke-width="2" points="938,-292.5 838,-292.5 838,-262.5 938,-262.5 938,-292.5"/>
<text text-anchor="middle" x="888" y="-272.83" font-family="Times,serif" font-size="14.00">drawio</text>
</g>
<!-- drawio&#45;&gt;2d&#45;engine -->
<g id="edge8" class="edge">
<title>drawio&#45;&gt;2d&#45;engine</title>
<path fill="none" stroke="black" d="M888,-261.6C888,-250.26 888,-234.38 888,-221"/>
<polygon fill="black" stroke="black" points="891.5,-221.06 888,-211.06 884.5,-221.06 891.5,-221.06"/>
<text text-anchor="middle" x="922.13" y="-231.2" font-family="Times,serif" font-size="14.00">«include»</text>
</g>
<!-- fillet -->
<g id="node9" class="node">
<title>fillet</title>
<polygon fill="white" stroke="black" stroke-width="2" points="572,-375.75 472,-375.75 472,-345.75 572,-345.75 572,-375.75"/>
<text text-anchor="middle" x="522" y="-356.08" font-family="Times,serif" font-size="14.00">fillet</text>
</g>
<!-- fillet&#45;&gt;3d&#45;engine -->
<g id="edge9" class="edge">
<title>fillet&#45;&gt;3d&#45;engine</title>
<path fill="none" stroke="black" d="M514.45,-344.82C512.16,-339.56 509.94,-333.52 508.75,-327.75 507.19,-320.19 506.63,-311.83 506.57,-304.18"/>
<polygon fill="black" stroke="black" points="510.09,-304.38 506.79,-294.31 503.09,-304.24 510.09,-304.38"/>
<text text-anchor="middle" x="543.13" y="-314.45" font-family="Times,serif" font-size="14.00">«include»</text>
</g>
<!-- grid -->
<g id="node10" class="node">
<title>grid</title>
<polygon fill="white" stroke="black" stroke-width="2" points="690,-375.75 590,-375.75 590,-345.75 690,-345.75 690,-375.75"/>
<text text-anchor="middle" x="640" y="-356.08" font-family="Times,serif" font-size="14.00">grid</text>
</g>
<!-- grid&#45;&gt;3d&#45;engine -->
<g id="edge10" class="edge">
<title>grid&#45;&gt;3d&#45;engine</title>
<path fill="none" stroke="black" d="M621.07,-344.78C603.39,-330.82 579.37,-311.95 577,-310.5 569.79,-306.09 561.88,-301.89 554.06,-298.06"/>
<polygon fill="black" stroke="black" points="555.8,-294.54 545.27,-293.43 552.81,-300.87 555.8,-294.54"/>
<text text-anchor="middle" x="634.13" y="-314.45" font-family="Times,serif" font-size="14.00">«include»</text>
</g>
<!-- hole -->
<g id="node11" class="node">
<title>hole</title>
<polygon fill="white" stroke="black" stroke-width="2" points="100,-459 0,-459 0,-429 100,-429 100,-459"/>
<text text-anchor="middle" x="50" y="-439.33" font-family="Times,serif" font-size="14.00">hole</text>
</g>
<!-- label -->
<g id="node12" class="node">
<title>label</title>
<polygon fill="white" stroke="black" stroke-width="2" points="100,-375.75 0,-375.75 0,-345.75 100,-345.75 100,-375.75"/>
<text text-anchor="middle" x="50" y="-356.08" font-family="Times,serif" font-size="14.00">label</text>
</g>
<!-- hole&#45;&gt;label -->
<g id="edge11" class="edge">
<title>hole&#45;&gt;label</title>
<path fill="none" stroke="black" d="M50,-428.1C50,-416.76 50,-400.88 50,-387.5"/>
<polygon fill="black" stroke="black" points="53.5,-387.56 50,-377.56 46.5,-387.56 53.5,-387.56"/>
<text text-anchor="middle" x="84.13" y="-397.7" font-family="Times,serif" font-size="14.00">«include»</text>
</g>
<!-- label&#45;&gt;3d&#45;engine -->
<g id="edge12" class="edge">
<title>label&#45;&gt;3d&#45;engine</title>
<path fill="none" stroke="black" d="M71.52,-344.93C89.45,-333.41 116.11,-318.15 141.75,-310.5 197.09,-293.99 357.19,-284.83 446.3,-280.88"/>
<polygon fill="black" stroke="black" points="446.22,-284.35 456.06,-280.41 445.92,-277.35 446.22,-284.35"/>
<text text-anchor="middle" x="176.13" y="-314.45" font-family="Times,serif" font-size="14.00">«include»</text>
</g>
<!-- limits -->
<g id="node13" class="node">
<title>limits</title>
<polygon fill="white" stroke="black" stroke-width="2" points="706,-113.25 606,-113.25 606,-83.25 706,-83.25 706,-113.25"/>
<text text-anchor="middle" x="656" y="-93.58" font-family="Times,serif" font-size="14.00">limits</text>
</g>
<!-- limits&#45;&gt;core -->
<g id="edge13" class="edge">
<title>limits&#45;&gt;core</title>
<path fill="none" stroke="black" d="M668.5,-82.62C678.76,-71.52 694.25,-56.73 710.75,-48 731.89,-36.81 757.04,-29.45 779.58,-24.64"/>
<polygon fill="black" stroke="black" points="779.94,-27.94 789.06,-22.55 778.57,-21.08 779.94,-27.94"/>
<text text-anchor="middle" x="745.13" y="-51.95" font-family="Times,serif" font-size="14.00">«include»</text>
</g>
<!-- mngm&#45;engine&#45;&gt;core -->
<g id="edge14" class="edge">
<title>mngm&#45;engine&#45;&gt;core</title>
<path fill="none" stroke="black" d="M1000.13,-82.46C985.69,-71.72 964.94,-57.46 945,-48 931.54,-41.62 916.5,-36.13 902.14,-31.59"/>
<polygon fill="black" stroke="black" points="903.42,-28.02 892.83,-28.46 901.38,-34.71 903.42,-28.02"/>
<text text-anchor="middle" x="1008.13" y="-51.95" font-family="Times,serif" font-size="14.00">«include»</text>
</g>
<!-- polymorphic&#45;engine&#45;&gt;3d&#45;engine -->
<g id="edge23" class="edge">
<title>polymorphic&#45;engine&#45;&gt;3d&#45;engine</title>
<path fill="none" stroke="red" stroke-width="2" d="M782.62,-344.78C773.6,-339.62 763.61,-333.64 754.75,-327.75 744.18,-320.72 743.71,-315.39 732,-310.5 680.75,-289.11 617.79,-281.59 571.68,-279.14"/>
<polygon fill="red" stroke="red" stroke-width="2" points="571.99,-275.51 561.85,-278.56 571.68,-282.51 571.99,-275.51"/>
<text text-anchor="middle" x="775.63" y="-314.45" font-family="Times,serif" font-size="14.00">«use»</text>
</g>
<!-- polymorphic&#45;engine&#45;&gt;bbox&#45;engine -->
<g id="edge24" class="edge">
<title>polymorphic&#45;engine&#45;&gt;bbox&#45;engine</title>
<path fill="none" stroke="red" stroke-width="2" d="M809.6,-344.86C808.36,-308.15 803.55,-210.5 786,-131.25 785.64,-129.64 785.23,-127.99 784.78,-126.34"/>
<polygon fill="red" stroke="red" stroke-width="2" points="787.23,-124.49 780.86,-116.03 780.56,-126.62 787.23,-124.49"/>
<text text-anchor="middle" x="823.63" y="-231.2" font-family="Times,serif" font-size="14.00">«use»</text>
</g>
<!-- polymorphic&#45;engine&#45;&gt;core -->
<g id="edge15" class="edge">
<title>polymorphic&#45;engine&#45;&gt;core</title>
<path fill="none" stroke="black" d="M889.17,-353.44C976.25,-344.26 1104,-323.18 1104,-278.5 1104,-278.5 1104,-278.5 1104,-97.25 1104,-63.43 1076.75,-62.08 1046,-48 1000.75,-27.28 944.64,-19.6 902.56,-16.93"/>
<polygon fill="black" stroke="black" points="902.82,-13.38 892.64,-16.32 902.43,-20.37 902.82,-13.38"/>
<text text-anchor="middle" x="1138.13" y="-189.58" font-family="Times,serif" font-size="14.00">«include»</text>
</g>
<!-- polymorphic&#45;engine&#45;&gt;mngm&#45;engine -->
<g id="edge25" class="edge">
<title>polymorphic&#45;engine&#45;&gt;mngm&#45;engine</title>
<path fill="none" stroke="red" stroke-width="2" d="M855.37,-344.77C884.01,-333.66 920.48,-316.31 947,-292.5 998.36,-246.39 1010.8,-227.54 1030,-161.25 1033.24,-150.05 1031.88,-137.43 1029.18,-126.5"/>
<polygon fill="red" stroke="red" stroke-width="2" points="1031.7,-124.78 1025.44,-116.24 1025.01,-126.82 1031.7,-124.78"/>
<text text-anchor="middle" x="1024.63" y="-231.2" font-family="Times,serif" font-size="14.00">«use»</text>
</g>
<!-- profile -->
<g id="node16" class="node">
<title>profile</title>
<polygon fill="white" stroke="black" stroke-width="2" points="218,-375.75 118,-375.75 118,-345.75 218,-345.75 218,-375.75"/>
<text text-anchor="middle" x="168" y="-356.08" font-family="Times,serif" font-size="14.00">profile</text>
</g>
<!-- profile&#45;&gt;3d&#45;engine -->
<g id="edge16" class="edge">
<title>profile&#45;&gt;3d&#45;engine</title>
<path fill="none" stroke="black" d="M187.05,-344.89C202.71,-333.5 225.96,-318.44 248.75,-310.5 313.86,-287.82 393.06,-280.79 446.66,-278.82"/>
<polygon fill="black" stroke="black" points="446.48,-282.3 456.36,-278.49 446.26,-275.3 446.48,-282.3"/>
<text text-anchor="middle" x="283.13" y="-314.45" font-family="Times,serif" font-size="14.00">«include»</text>
</g>
<!-- template -->
<g id="node17" class="node">
<title>template</title>
<polygon fill="white" stroke="black" stroke-width="2" points="454,-459 354,-459 354,-429 454,-429 454,-459"/>
<text text-anchor="middle" x="404" y="-439.33" font-family="Times,serif" font-size="14.00">template</text>
</g>
<!-- type_trait&#45;&gt;core -->
<g id="edge17" class="edge">
<title>type_trait&#45;&gt;core</title>
<path fill="none" stroke="black" d="M510.43,-130.27C511.66,-116.14 515.75,-95.36 528.75,-83.25 564.57,-49.87 699.52,-30.54 779.82,-21.76"/>
<polygon fill="black" stroke="black" points="779.72,-25.19 789.29,-20.65 778.98,-18.23 779.72,-25.19"/>
<text text-anchor="middle" x="563.13" y="-93.58" font-family="Times,serif" font-size="14.00">«include»</text>
</g>
<!-- unsafe_defs&#45;&gt;core -->
<g id="edge18" class="edge">
<title>unsafe_defs&#45;&gt;core</title>
<path fill="none" stroke="black" d="M884.28,-82.35C876.51,-70.44 865.47,-53.51 856.49,-39.74"/>
<polygon fill="black" stroke="black" points="859.05,-38.27 850.66,-31.81 853.19,-42.1 859.05,-38.27"/>
<text text-anchor="middle" x="907.13" y="-51.95" font-family="Times,serif" font-size="14.00">«include»</text>
</g>
<!-- util&#45;&gt;3d&#45;engine -->
<g id="edge19" class="edge">
<title>util&#45;&gt;3d&#45;engine</title>
<path fill="none" stroke="black" d="M300.63,-344.97C312.56,-333.79 330.39,-318.96 348.75,-310.5 379.45,-296.35 416.31,-288.44 446.84,-284.02"/>
<polygon fill="black" stroke="black" points="446.91,-287.41 456.35,-282.6 445.97,-280.47 446.91,-287.41"/>
<text text-anchor="middle" x="383.13" y="-314.45" font-family="Times,serif" font-size="14.00">«include»</text>
</g>
</g>
</svg>
