<?xml version="1.0" encoding="UTF-8" standalone="no"?>
<!DOCTYPE svg PUBLIC "-//W3C//DTD SVG 1.1//EN"
 "http://www.w3.org/Graphics/SVG/1.1/DTD/svg11.dtd">
<!-- Generated by graphviz version 8.1.0 (20230707.0739)
 -->
<!-- Title: foundation Pages: 1 -->
<svg width="1010pt" height="467pt"
 viewBox="0.00 0.00 1010.25 467.00" xmlns="http://www.w3.org/2000/svg" xmlns:xlink="http://www.w3.org/1999/xlink">
<g id="graph0" class="graph" transform="scale(1 1) rotate(0) translate(4 463)">
<title>foundation</title>
<polygon fill="white" stroke="none" points="-4,4 -4,-463 1006.25,-463 1006.25,4 -4,4"/>
<!-- 2d&#45;engine -->
<g id="node1" class="node">
<title>2d&#45;engine</title>
<polygon fill="white" stroke="black" stroke-width="2" points="712,-209.25 612,-209.25 612,-179.25 712,-179.25 712,-209.25"/>
<text text-anchor="middle" x="662" y="-189.58" font-family="Times,serif" font-size="14.00">2d&#45;engine</text>
</g>
<!-- bbox&#45;engine -->
<g id="node4" class="node">
<title>bbox&#45;engine</title>
<polygon fill="white" stroke="black" stroke-width="2" points="868.13,-113.25 765.88,-113.25 765.88,-83.25 868.13,-83.25 868.13,-113.25"/>
<text text-anchor="middle" x="817" y="-93.58" font-family="Times,serif" font-size="14.00">bbox&#45;engine</text>
</g>
<!-- 2d&#45;engine&#45;&gt;bbox&#45;engine -->
<g id="edge22" class="edge">
<title>2d&#45;engine&#45;&gt;bbox&#45;engine</title>
<path fill="none" stroke="red" stroke-width="2" d="M691.8,-178.37C701.83,-173.17 713.01,-167.15 723,-161.25 744.19,-148.74 767.27,-133.55 785.26,-121.33"/>
<polygon fill="red" stroke="red" stroke-width="2" points="787.46,-123.69 793.73,-115.16 783.51,-117.92 787.46,-123.69"/>
<text text-anchor="middle" x="789.63" y="-141.58" font-family="Times,serif" font-size="14.00">«use»</text>
</g>
<!-- mngm&#45;engine -->
<g id="node14" class="node">
<title>mngm&#45;engine</title>
<polygon fill="white" stroke="black" stroke-width="2" points="747.75,-113.25 634.25,-113.25 634.25,-83.25 747.75,-83.25 747.75,-113.25"/>
<text text-anchor="middle" x="691" y="-93.58" font-family="Times,serif" font-size="14.00">mngm&#45;engine</text>
</g>
<!-- 2d&#45;engine&#45;&gt;mngm&#45;engine -->
<g id="edge21" class="edge">
<title>2d&#45;engine&#45;&gt;mngm&#45;engine</title>
<path fill="none" stroke="red" stroke-width="2" d="M666.53,-178.56C670.83,-164.64 677.38,-143.39 682.63,-126.39"/>
<polygon fill="red" stroke="red" stroke-width="2" points="686.8,-126.73 686.4,-116.14 680.11,-124.67 686.8,-126.73"/>
<text text-anchor="middle" x="700.63" y="-141.58" font-family="Times,serif" font-size="14.00">«use»</text>
</g>
<!-- unsafe_defs -->
<g id="node19" class="node">
<title>unsafe_defs</title>
<polygon fill="white" stroke="black" stroke-width="2" points="616,-113.25 516,-113.25 516,-83.25 616,-83.25 616,-113.25"/>
<text text-anchor="middle" x="566" y="-93.58" font-family="Times,serif" font-size="14.00">unsafe_defs</text>
</g>
<!-- 2d&#45;engine&#45;&gt;unsafe_defs -->
<g id="edge1" class="edge">
<title>2d&#45;engine&#45;&gt;unsafe_defs</title>
<path fill="none" stroke="black" d="M624.05,-178.3C615.39,-173.71 606.7,-168.04 599.75,-161.25 589.17,-150.92 581.07,-136.55 575.46,-124.25"/>
<polygon fill="black" stroke="black" points="578.29,-122.97 571.17,-115.13 571.84,-125.7 578.29,-122.97"/>
<text text-anchor="middle" x="634.13" y="-141.58" font-family="Times,serif" font-size="14.00">«include»</text>
</g>
<!-- 3d&#45;engine -->
<g id="node2" class="node">
<title>3d&#45;engine</title>
<polygon fill="white" stroke="black" stroke-width="2" points="555,-292.5 455,-292.5 455,-262.5 555,-262.5 555,-292.5"/>
<text text-anchor="middle" x="505" y="-272.83" font-family="Times,serif" font-size="14.00">3d&#45;engine</text>
</g>
<!-- 3d&#45;engine&#45;&gt;2d&#45;engine -->
<g id="edge2" class="edge">
<title>3d&#45;engine&#45;&gt;2d&#45;engine</title>
<path fill="none" stroke="black" d="M529.09,-261.56C545.84,-251.4 568.83,-237.92 589.75,-227.25 598.27,-222.9 607.52,-218.55 616.45,-214.51"/>
<polygon fill="black" stroke="black" points="617.64,-217.37 625.36,-210.11 614.8,-210.97 617.64,-217.37"/>
<text text-anchor="middle" x="624.13" y="-231.2" font-family="Times,serif" font-size="14.00">«include»</text>
</g>
<!-- type_trait -->
<g id="node18" class="node">
<title>type_trait</title>
<polygon fill="white" stroke="black" stroke-width="2" points="513,-161.25 413,-161.25 413,-131.25 513,-131.25 513,-161.25"/>
<text text-anchor="middle" x="463" y="-141.58" font-family="Times,serif" font-size="14.00">type_trait</text>
</g>
<!-- 3d&#45;engine&#45;&gt;type_trait -->
<g id="edge3" class="edge">
<title>3d&#45;engine&#45;&gt;type_trait</title>
<path fill="none" stroke="black" d="M495.38,-261.63C492.29,-256.38 489.07,-250.32 486.75,-244.5 477.4,-221.01 471.01,-192.82 467.23,-172.85"/>
<polygon fill="black" stroke="black" points="470.52,-172.37 465.31,-163.14 463.63,-173.61 470.52,-172.37"/>
<text text-anchor="middle" x="521.13" y="-231.2" font-family="Times,serif" font-size="14.00">«include»</text>
</g>
<!-- algo&#45;engine -->
<g id="node3" class="node">
<title>algo&#45;engine</title>
<polygon fill="white" stroke="black" stroke-width="2" points="100,-375.75 0,-375.75 0,-345.75 100,-345.75 100,-375.75"/>
<text text-anchor="middle" x="50" y="-356.08" font-family="Times,serif" font-size="14.00">algo&#45;engine</text>
</g>
<!-- algo&#45;engine&#45;&gt;3d&#45;engine -->
<g id="edge4" class="edge">
<title>algo&#45;engine&#45;&gt;3d&#45;engine</title>
<path fill="none" stroke="black" d="M73.33,-344.98C92.73,-333.48 121.47,-318.23 148.75,-310.5 202.46,-295.28 356.48,-285.65 443.39,-281.27"/>
<polygon fill="black" stroke="black" points="443.35,-284.73 453.16,-280.74 443,-277.74 443.35,-284.73"/>
<text text-anchor="middle" x="183.13" y="-314.45" font-family="Times,serif" font-size="14.00">«include»</text>
</g>
<!-- core -->
<g id="node7" class="node">
<title>core</title>
<polygon fill="white" stroke="black" stroke-width="2" points="616,-30 516,-30 516,0 616,0 616,-30"/>
<text text-anchor="middle" x="566" y="-10.33" font-family="Times,serif" font-size="14.00">core</text>
</g>
<!-- bbox&#45;engine&#45;&gt;core -->
<g id="edge5" class="edge">
<title>bbox&#45;engine&#45;&gt;core</title>
<path fill="none" stroke="black" d="M795.71,-82.4C778.87,-71.34 754.39,-56.69 731,-48 697.97,-35.72 659.39,-27.91 627.84,-23.08"/>
<polygon fill="black" stroke="black" points="628.39,-19.48 617.99,-21.49 627.38,-26.4 628.39,-19.48"/>
<text text-anchor="middle" x="799.13" y="-51.95" font-family="Times,serif" font-size="14.00">«include»</text>
</g>
<!-- components -->
<g id="node5" class="node">
<title>components</title>
<polygon fill="white" stroke="black" stroke-width="2" points="868.13,-209.25 765.88,-209.25 765.88,-179.25 868.13,-179.25 868.13,-209.25"/>
<text text-anchor="middle" x="817" y="-189.58" font-family="Times,serif" font-size="14.00">components</text>
</g>
<!-- components&#45;&gt;bbox&#45;engine -->
<g id="edge6" class="edge">
<title>components&#45;&gt;bbox&#45;engine</title>
<path fill="none" stroke="black" d="M817,-178.56C817,-164.3 817,-142.34 817,-125.14"/>
<polygon fill="black" stroke="black" points="820.5,-125.14 817,-115.14 813.5,-125.14 820.5,-125.14"/>
<text text-anchor="middle" x="851.13" y="-141.58" font-family="Times,serif" font-size="14.00">«include»</text>
</g>
<!-- connect -->
<g id="node6" class="node">
<title>connect</title>
<polygon fill="white" stroke="black" stroke-width="2" points="984,-459 884,-459 884,-429 984,-429 984,-459"/>
<text text-anchor="middle" x="934" y="-439.33" font-family="Times,serif" font-size="14.00">connect</text>
</g>
<!-- util -->
<g id="node20" class="node">
<title>util</title>
<polygon fill="white" stroke="black" stroke-width="2" points="984,-375.75 884,-375.75 884,-345.75 984,-345.75 984,-375.75"/>
<text text-anchor="middle" x="934" y="-356.08" font-family="Times,serif" font-size="14.00">util</text>
</g>
<!-- connect&#45;&gt;util -->
<g id="edge7" class="edge">
<title>connect&#45;&gt;util</title>
<path fill="none" stroke="black" d="M934,-428.1C934,-416.76 934,-400.88 934,-387.5"/>
<polygon fill="black" stroke="black" points="937.5,-387.56 934,-377.56 930.5,-387.56 937.5,-387.56"/>
<text text-anchor="middle" x="968.13" y="-397.7" font-family="Times,serif" font-size="14.00">«include»</text>
</g>
<!-- drawio -->
<g id="node8" class="node">
<title>drawio</title>
<polygon fill="white" stroke="black" stroke-width="2" points="712,-292.5 612,-292.5 612,-262.5 712,-262.5 712,-292.5"/>
<text text-anchor="middle" x="662" y="-272.83" font-family="Times,serif" font-size="14.00">drawio</text>
</g>
<!-- drawio&#45;&gt;2d&#45;engine -->
<g id="edge8" class="edge">
<title>drawio&#45;&gt;2d&#45;engine</title>
<path fill="none" stroke="black" d="M662,-261.6C662,-250.26 662,-234.38 662,-221"/>
<polygon fill="black" stroke="black" points="665.5,-221.06 662,-211.06 658.5,-221.06 665.5,-221.06"/>
<text text-anchor="middle" x="696.13" y="-231.2" font-family="Times,serif" font-size="14.00">«include»</text>
</g>
<!-- fillet -->
<g id="node9" class="node">
<title>fillet</title>
<polygon fill="white" stroke="black" stroke-width="2" points="218,-375.75 118,-375.75 118,-345.75 218,-345.75 218,-375.75"/>
<text text-anchor="middle" x="168" y="-356.08" font-family="Times,serif" font-size="14.00">fillet</text>
</g>
<!-- fillet&#45;&gt;3d&#45;engine -->
<g id="edge9" class="edge">
<title>fillet&#45;&gt;3d&#45;engine</title>
<path fill="none" stroke="black" d="M190.34,-344.76C208.31,-333.46 234.62,-318.58 259.75,-310.5 320.3,-291.02 392.89,-283.37 443.32,-280.38"/>
<polygon fill="black" stroke="black" points="443.25,-283.84 453.04,-279.8 442.87,-276.85 443.25,-283.84"/>
<text text-anchor="middle" x="294.13" y="-314.45" font-family="Times,serif" font-size="14.00">«include»</text>
</g>
<!-- grid -->
<g id="node10" class="node">
<title>grid</title>
<polygon fill="white" stroke="black" stroke-width="2" points="336,-375.75 236,-375.75 236,-345.75 336,-345.75 336,-375.75"/>
<text text-anchor="middle" x="286" y="-356.08" font-family="Times,serif" font-size="14.00">grid</text>
</g>
<!-- grid&#45;&gt;3d&#45;engine -->
<g id="edge10" class="edge">
<title>grid&#45;&gt;3d&#45;engine</title>
<path fill="none" stroke="black" d="M304.55,-344.98C319.27,-333.95 340.78,-319.32 361.75,-310.5 387.54,-299.65 417.57,-292.22 443.45,-287.27"/>
<polygon fill="black" stroke="black" points="444.05,-290.54 453.26,-285.3 442.79,-283.65 444.05,-290.54"/>
<text text-anchor="middle" x="396.13" y="-314.45" font-family="Times,serif" font-size="14.00">«include»</text>
</g>
<!-- hole -->
<g id="node11" class="node">
<title>hole</title>
<polygon fill="white" stroke="black" stroke-width="2" points="454,-459 354,-459 354,-429 454,-429 454,-459"/>
<text text-anchor="middle" x="404" y="-439.33" font-family="Times,serif" font-size="14.00">hole</text>
</g>
<!-- label -->
<g id="node12" class="node">
<title>label</title>
<polygon fill="white" stroke="black" stroke-width="2" points="454,-375.75 354,-375.75 354,-345.75 454,-345.75 454,-375.75"/>
<text text-anchor="middle" x="404" y="-356.08" font-family="Times,serif" font-size="14.00">label</text>
</g>
<!-- hole&#45;&gt;label -->
<g id="edge11" class="edge">
<title>hole&#45;&gt;label</title>
<path fill="none" stroke="black" d="M404,-428.1C404,-416.76 404,-400.88 404,-387.5"/>
<polygon fill="black" stroke="black" points="407.5,-387.56 404,-377.56 400.5,-387.56 407.5,-387.56"/>
<text text-anchor="middle" x="438.13" y="-397.7" font-family="Times,serif" font-size="14.00">«include»</text>
</g>
<!-- label&#45;&gt;3d&#45;engine -->
<g id="edge12" class="edge">
<title>label&#45;&gt;3d&#45;engine</title>
<path fill="none" stroke="black" d="M416.48,-344.96C425.64,-334.62 438.69,-320.87 451.75,-310.5 456.73,-306.55 462.24,-302.72 467.77,-299.17"/>
<polygon fill="black" stroke="black" points="469.33,-301.7 476.01,-293.48 465.66,-295.74 469.33,-301.7"/>
<text text-anchor="middle" x="486.13" y="-314.45" font-family="Times,serif" font-size="14.00">«include»</text>
</g>
<!-- limits -->
<g id="node13" class="node">
<title>limits</title>
<polygon fill="white" stroke="black" stroke-width="2" points="394,-113.25 294,-113.25 294,-83.25 394,-83.25 394,-113.25"/>
<text text-anchor="middle" x="344" y="-93.58" font-family="Times,serif" font-size="14.00">limits</text>
</g>
<!-- limits&#45;&gt;core -->
<g id="edge13" class="edge">
<title>limits&#45;&gt;core</title>
<path fill="none" stroke="black" d="M340.69,-82.4C339.19,-71.48 339.33,-57.03 347.75,-48 368.49,-25.77 447.45,-18.8 504.44,-16.72"/>
<polygon fill="black" stroke="black" points="504.28,-20.2 514.16,-16.38 504.05,-13.2 504.28,-20.2"/>
<text text-anchor="middle" x="382.13" y="-51.95" font-family="Times,serif" font-size="14.00">«include»</text>
</g>
<!-- mngm&#45;engine&#45;&gt;core -->
<g id="edge14" class="edge">
<title>mngm&#45;engine&#45;&gt;core</title>
<path fill="none" stroke="black" d="M677.69,-82.49C667.56,-71.91 652.89,-57.83 638,-48 631.02,-43.39 623.26,-39.16 615.5,-35.38"/>
<polygon fill="black" stroke="black" points="617.27,-31.88 606.72,-30.85 614.32,-38.23 617.27,-31.88"/>
<text text-anchor="middle" x="693.13" y="-51.95" font-family="Times,serif" font-size="14.00">«include»</text>
</g>
<!-- polymorphic&#45;engine -->
<g id="node15" class="node">
<title>polymorphic&#45;engine</title>
<polygon fill="white" stroke="black" stroke-width="2" points="629.5,-375.75 472.5,-375.75 472.5,-345.75 629.5,-345.75 629.5,-375.75"/>
<text text-anchor="middle" x="551" y="-356.08" font-family="Times,serif" font-size="14.00">polymorphic&#45;engine</text>
</g>
<!-- polymorphic&#45;engine&#45;&gt;3d&#45;engine -->
<g id="edge15" class="edge">
<title>polymorphic&#45;engine&#45;&gt;3d&#45;engine</title>
<path fill="none" stroke="black" d="M542.56,-344.85C535.88,-333.05 526.42,-316.34 518.67,-302.64"/>
<polygon fill="black" stroke="black" points="521.36,-301.29 513.38,-294.31 515.26,-304.73 521.36,-301.29"/>
<text text-anchor="middle" x="567.13" y="-314.45" font-family="Times,serif" font-size="14.00">«include»</text>
</g>
<!-- profile -->
<g id="node16" class="node">
<title>profile</title>
<polygon fill="white" stroke="black" stroke-width="2" points="748,-375.75 648,-375.75 648,-345.75 748,-345.75 748,-375.75"/>
<text text-anchor="middle" x="698" y="-356.08" font-family="Times,serif" font-size="14.00">profile</text>
</g>
<!-- profile&#45;&gt;3d&#45;engine -->
<g id="edge16" class="edge">
<title>profile&#45;&gt;3d&#45;engine</title>
<path fill="none" stroke="black" d="M672.93,-344.91C654.54,-334.42 628.74,-320.49 605,-310.5 592.67,-305.31 579.19,-300.47 566.24,-296.2"/>
<polygon fill="black" stroke="black" points="567.58,-292.63 556.99,-292.9 565.44,-299.3 567.58,-292.63"/>
<text text-anchor="middle" x="673.13" y="-314.45" font-family="Times,serif" font-size="14.00">«include»</text>
</g>
<!-- template -->
<g id="node17" class="node">
<title>template</title>
<polygon fill="white" stroke="black" stroke-width="2" points="866,-375.75 766,-375.75 766,-345.75 866,-345.75 866,-375.75"/>
<text text-anchor="middle" x="816" y="-356.08" font-family="Times,serif" font-size="14.00">template</text>
</g>
<!-- template&#45;&gt;3d&#45;engine -->
<g id="edge17" class="edge">
<title>template&#45;&gt;3d&#45;engine</title>
<path fill="none" stroke="black" d="M789.65,-344.81C768.9,-333.69 738.92,-319.03 711,-310.5 704.04,-308.38 624.6,-296.3 566.45,-287.61"/>
<polygon fill="black" stroke="black" points="567.27,-284.05 556.86,-286.03 566.23,-290.97 567.27,-284.05"/>
<text text-anchor="middle" x="786.13" y="-314.45" font-family="Times,serif" font-size="14.00">«include»</text>
</g>
<!-- type_trait&#45;&gt;core -->
<g id="edge18" class="edge">
<title>type_trait&#45;&gt;core</title>
<path fill="none" stroke="black" d="M448.67,-130.49C444.66,-125.43 440.84,-119.46 438.75,-113.25 434.5,-100.61 431.87,-94.67 438.75,-83.25 453.32,-59.08 479.8,-43.15 504.84,-32.89"/>
<polygon fill="black" stroke="black" points="506,-35.81 514.08,-28.96 503.49,-29.27 506,-35.81"/>
<text text-anchor="middle" x="473.13" y="-93.58" font-family="Times,serif" font-size="14.00">«include»</text>
</g>
<!-- unsafe_defs&#45;&gt;core -->
<g id="edge19" class="edge">
<title>unsafe_defs&#45;&gt;core</title>
<path fill="none" stroke="black" d="M566,-82.35C566,-71.01 566,-55.13 566,-41.75"/>
<polygon fill="black" stroke="black" points="569.5,-41.81 566,-31.81 562.5,-41.81 569.5,-41.81"/>
<text text-anchor="middle" x="600.13" y="-51.95" font-family="Times,serif" font-size="14.00">«include»</text>
</g>
<!-- util&#45;&gt;3d&#45;engine -->
<g id="edge20" class="edge">
<title>util&#45;&gt;3d&#45;engine</title>
<path fill="none" stroke="black" d="M907.8,-344.96C886.07,-333.45 854,-318.2 824,-310.5 728.54,-286.01 700.93,-303.47 603,-292.5 591.23,-291.18 578.7,-289.56 566.66,-287.89"/>
<polygon fill="black" stroke="black" points="567.18,-284.29 556.79,-286.35 566.2,-291.22 567.18,-284.29"/>
<text text-anchor="middle" x="904.13" y="-314.45" font-family="Times,serif" font-size="14.00">«include»</text>
</g>
</g>
</svg>
