<?xml version="1.0" encoding="UTF-8" standalone="no"?>
<!DOCTYPE svg PUBLIC "-//W3C//DTD SVG 1.1//EN"
 "http://www.w3.org/Graphics/SVG/1.1/DTD/svg11.dtd">
<!-- Generated by graphviz version 12.1.0 (20240811.2233)
 -->
<!-- Title: foundation Pages: 1 -->
<svg width="1200pt" height="467pt"
 viewBox="0.00 0.00 1200.00 467.00" xmlns="http://www.w3.org/2000/svg" xmlns:xlink="http://www.w3.org/1999/xlink">
<g id="graph0" class="graph" transform="scale(1 1) rotate(0) translate(4 463)">
<title>foundation</title>
<polygon fill="white" stroke="none" points="-4,4 -4,-463 1196,-463 1196,4 -4,4"/>
<!-- 2d&#45;engine -->
<g id="node1" class="node">
<title>2d&#45;engine</title>
<polygon fill="white" stroke="black" stroke-width="2" points="282,-459 182,-459 182,-429 282,-429 282,-459"/>
<text text-anchor="middle" x="232" y="-439.33" font-family="Times,serif" font-size="14.00">2d&#45;engine</text>
</g>
<!-- bbox&#45;engine -->
<g id="node4" class="node">
<title>bbox&#45;engine</title>
<polygon fill="white" stroke="black" stroke-width="2" points="412.12,-113.25 309.88,-113.25 309.88,-83.25 412.12,-83.25 412.12,-113.25"/>
<text text-anchor="middle" x="361" y="-93.58" font-family="Times,serif" font-size="14.00">bbox&#45;engine</text>
</g>
<!-- 2d&#45;engine&#45;&gt;bbox&#45;engine -->
<g id="edge20" class="edge">
<title>2d&#45;engine&#45;&gt;bbox&#45;engine</title>
<path fill="none" stroke="red" stroke-width="2" d="M181.04,-440.22C145.69,-436.72 98.28,-428.82 60,-411 28.72,-396.44 0,-396.25 0,-361.75 0,-361.75 0,-361.75 0,-193.25 0,-132.77 192.13,-110.51 296.06,-102.89"/>
<polygon fill="red" stroke="red" stroke-width="2" points="296.14,-106.39 305.87,-102.2 295.65,-99.41 296.14,-106.39"/>
<text text-anchor="middle" x="20.62" y="-272.83" font-family="Times,serif" font-size="14.00">«use»</text>
</g>
<!-- mngm&#45;engine -->
<g id="node14" class="node">
<title>mngm&#45;engine</title>
<polygon fill="white" stroke="black" stroke-width="2" points="717.75,-375.75 604.25,-375.75 604.25,-345.75 717.75,-345.75 717.75,-375.75"/>
<text text-anchor="middle" x="661" y="-356.08" font-family="Times,serif" font-size="14.00">mngm&#45;engine</text>
</g>
<!-- 2d&#45;engine&#45;&gt;mngm&#45;engine -->
<g id="edge19" class="edge">
<title>2d&#45;engine&#45;&gt;mngm&#45;engine</title>
<path fill="none" stroke="red" stroke-width="2" d="M282.74,-440.52C378.52,-435.58 578.98,-423.85 608,-411 620.62,-405.41 632.16,-395.55 641.24,-386.12"/>
<polygon fill="red" stroke="red" stroke-width="2" points="643.65,-388.67 647.72,-378.89 638.44,-384 643.65,-388.67"/>
<text text-anchor="middle" x="653.04" y="-397.7" font-family="Times,serif" font-size="14.00">«use»</text>
</g>
<!-- unsafe_defs -->
<g id="node20" class="node">
<title>unsafe_defs</title>
<polygon fill="white" stroke="black" stroke-width="2" points="920,-292.5 820,-292.5 820,-262.5 920,-262.5 920,-292.5"/>
<text text-anchor="middle" x="870" y="-272.83" font-family="Times,serif" font-size="14.00">unsafe_defs</text>
</g>
<!-- 2d&#45;engine&#45;&gt;unsafe_defs -->
<g id="edge1" class="edge">
<title>2d&#45;engine&#45;&gt;unsafe_defs</title>
<path fill="none" stroke="black" d="M282.67,-439.96C332.21,-437.02 409.78,-432.51 477,-429 498.16,-427.9 842.7,-425.66 858,-411 886.27,-383.92 882.37,-334.61 876.5,-304.38"/>
<polygon fill="black" stroke="black" points="879.99,-303.96 874.45,-294.93 873.15,-305.45 879.99,-303.96"/>
<text text-anchor="middle" x="914.8" y="-356.08" font-family="Times,serif" font-size="14.00">«include»</text>
</g>
<!-- 3d&#45;engine -->
<g id="node2" class="node">
<title>3d&#45;engine</title>
<polygon fill="white" stroke="black" stroke-width="2" points="542,-292.5 442,-292.5 442,-262.5 542,-262.5 542,-292.5"/>
<text text-anchor="middle" x="492" y="-272.83" font-family="Times,serif" font-size="14.00">3d&#45;engine</text>
</g>
<!-- 3d&#45;engine&#45;&gt;2d&#45;engine -->
<g id="edge2" class="edge">
<title>3d&#45;engine&#45;&gt;2d&#45;engine</title>
<path fill="none" stroke="black" d="M441.38,-278.17C336.71,-278.71 102.27,-286.64 54.75,-345.75 17.85,-391.65 105.47,-419.16 170.23,-432.67"/>
<polygon fill="black" stroke="black" points="169.23,-436.04 179.73,-434.57 170.61,-429.17 169.23,-436.04"/>
<text text-anchor="middle" x="88.88" y="-356.08" font-family="Times,serif" font-size="14.00">«include»</text>
</g>
<!-- polymorphic&#45;engine -->
<g id="node15" class="node">
<title>polymorphic&#45;engine</title>
<polygon fill="white" stroke="black" stroke-width="2" points="634.5,-209.25 477.5,-209.25 477.5,-179.25 634.5,-179.25 634.5,-209.25"/>
<text text-anchor="middle" x="556" y="-189.58" font-family="Times,serif" font-size="14.00">polymorphic&#45;engine</text>
</g>
<!-- 3d&#45;engine&#45;&gt;polymorphic&#45;engine -->
<g id="edge21" class="edge">
<title>3d&#45;engine&#45;&gt;polymorphic&#45;engine</title>
<path fill="none" stroke="red" stroke-width="2" d="M488.41,-261.58C486.77,-251.18 486.4,-237.4 492.75,-227.25 494.9,-223.81 497.54,-220.73 500.52,-217.97"/>
<polygon fill="red" stroke="red" stroke-width="2" points="502.59,-220.79 508.52,-212.01 498.41,-215.18 502.59,-220.79"/>
<text text-anchor="middle" x="513.38" y="-231.2" font-family="Times,serif" font-size="14.00">«use»</text>
</g>
<!-- traits&#45;engine -->
<g id="node18" class="node">
<title>traits&#45;engine</title>
<polygon fill="white" stroke="black" stroke-width="2" points="741.75,-161.25 634.25,-161.25 634.25,-131.25 741.75,-131.25 741.75,-161.25"/>
<text text-anchor="middle" x="688" y="-141.58" font-family="Times,serif" font-size="14.00">traits&#45;engine</text>
</g>
<!-- 3d&#45;engine&#45;&gt;traits&#45;engine -->
<g id="edge3" class="edge">
<title>3d&#45;engine&#45;&gt;traits&#45;engine</title>
<path fill="none" stroke="black" d="M542.9,-271.86C614.61,-264.08 739.43,-245.56 764,-209.25 771.47,-198.21 771.38,-190.36 764,-179.25 760.77,-174.38 756.63,-170.25 751.96,-166.75"/>
<polygon fill="black" stroke="black" points="754.04,-163.92 743.71,-161.56 750.32,-169.85 754.04,-163.92"/>
<text text-anchor="middle" x="775.57" y="-231.2" font-family="Times,serif" font-size="14.00">«include»</text>
</g>
<!-- type&#45;engine -->
<g id="node19" class="node">
<title>type&#45;engine</title>
<polygon fill="white" stroke="black" stroke-width="2" points="755,-209.25 655,-209.25 655,-179.25 755,-179.25 755,-209.25"/>
<text text-anchor="middle" x="705" y="-189.58" font-family="Times,serif" font-size="14.00">type&#45;engine</text>
</g>
<!-- 3d&#45;engine&#45;&gt;type&#45;engine -->
<g id="edge22" class="edge">
<title>3d&#45;engine&#45;&gt;type&#45;engine</title>
<path fill="none" stroke="red" stroke-width="2" d="M539.64,-261.65C555.44,-256.5 573.07,-250.5 589,-244.5 612.73,-235.57 638.75,-224.63 660.12,-215.33"/>
<polygon fill="red" stroke="red" stroke-width="2" points="661.27,-218.65 669.02,-211.43 658.46,-212.24 661.27,-218.65"/>
<text text-anchor="middle" x="651.46" y="-231.2" font-family="Times,serif" font-size="14.00">«use»</text>
</g>
<!-- algo&#45;engine -->
<g id="node3" class="node">
<title>algo&#45;engine</title>
<polygon fill="white" stroke="black" stroke-width="2" points="232,-375.75 132,-375.75 132,-345.75 232,-345.75 232,-375.75"/>
<text text-anchor="middle" x="182" y="-356.08" font-family="Times,serif" font-size="14.00">algo&#45;engine</text>
</g>
<!-- algo&#45;engine&#45;&gt;3d&#45;engine -->
<g id="edge4" class="edge">
<title>algo&#45;engine&#45;&gt;3d&#45;engine</title>
<path fill="none" stroke="black" d="M197.05,-344.87C209.53,-333.47 228.33,-318.4 247.75,-310.5 306.55,-286.57 379.28,-279.63 430.02,-278.02"/>
<polygon fill="black" stroke="black" points="430.03,-281.53 439.94,-277.78 429.86,-274.53 430.03,-281.53"/>
<text text-anchor="middle" x="281.88" y="-314.45" font-family="Times,serif" font-size="14.00">«include»</text>
</g>
<!-- core -->
<g id="node7" class="node">
<title>core</title>
<polygon fill="white" stroke="black" stroke-width="2" points="668,-30 568,-30 568,0 668,0 668,-30"/>
<text text-anchor="middle" x="618" y="-10.33" font-family="Times,serif" font-size="14.00">core</text>
</g>
<!-- bbox&#45;engine&#45;&gt;core -->
<g id="edge5" class="edge">
<title>bbox&#45;engine&#45;&gt;core</title>
<path fill="none" stroke="black" d="M369.84,-82.66C377.57,-71.27 389.87,-56.07 404.75,-48 430.12,-34.25 502.29,-25.45 555.68,-20.63"/>
<polygon fill="black" stroke="black" points="555.94,-24.12 565.59,-19.77 555.33,-17.15 555.94,-24.12"/>
<text text-anchor="middle" x="438.88" y="-51.95" font-family="Times,serif" font-size="14.00">«include»</text>
</g>
<!-- components -->
<g id="node5" class="node">
<title>components</title>
<polygon fill="white" stroke="black" stroke-width="2" points="406.12,-209.25 303.88,-209.25 303.88,-179.25 406.12,-179.25 406.12,-209.25"/>
<text text-anchor="middle" x="355" y="-189.58" font-family="Times,serif" font-size="14.00">components</text>
</g>
<!-- components&#45;&gt;bbox&#45;engine -->
<g id="edge6" class="edge">
<title>components&#45;&gt;bbox&#45;engine</title>
<path fill="none" stroke="black" d="M354.55,-178.44C354.33,-165.86 354.34,-147.34 355.75,-131.25 355.92,-129.32 356.14,-127.34 356.39,-125.34"/>
<polygon fill="black" stroke="black" points="359.82,-126.08 357.85,-115.67 352.9,-125.03 359.82,-126.08"/>
<text text-anchor="middle" x="389.88" y="-141.58" font-family="Times,serif" font-size="14.00">«include»</text>
</g>
<!-- connect -->
<g id="node6" class="node">
<title>connect</title>
<polygon fill="white" stroke="black" stroke-width="2" points="836,-459 736,-459 736,-429 836,-429 836,-459"/>
<text text-anchor="middle" x="786" y="-439.33" font-family="Times,serif" font-size="14.00">connect</text>
</g>
<!-- util -->
<g id="node21" class="node">
<title>util</title>
<polygon fill="white" stroke="black" stroke-width="2" points="836,-375.75 736,-375.75 736,-345.75 836,-345.75 836,-375.75"/>
<text text-anchor="middle" x="786" y="-356.08" font-family="Times,serif" font-size="14.00">util</text>
</g>
<!-- connect&#45;&gt;util -->
<g id="edge7" class="edge">
<title>connect&#45;&gt;util</title>
<path fill="none" stroke="black" d="M786,-428.1C786,-416.87 786,-401.2 786,-387.9"/>
<polygon fill="black" stroke="black" points="789.5,-388.07 786,-378.07 782.5,-388.07 789.5,-388.07"/>
<text text-anchor="middle" x="820.12" y="-397.7" font-family="Times,serif" font-size="14.00">«include»</text>
</g>
<!-- dimensions -->
<g id="node8" class="node">
<title>dimensions</title>
<polygon fill="white" stroke="black" stroke-width="2" points="954,-459 854,-459 854,-429 954,-429 954,-459"/>
<text text-anchor="middle" x="904" y="-439.33" font-family="Times,serif" font-size="14.00">dimensions</text>
</g>
<!-- fillet -->
<g id="node9" class="node">
<title>fillet</title>
<polygon fill="white" stroke="black" stroke-width="2" points="350,-375.75 250,-375.75 250,-345.75 350,-345.75 350,-375.75"/>
<text text-anchor="middle" x="300" y="-356.08" font-family="Times,serif" font-size="14.00">fillet</text>
</g>
<!-- fillet&#45;&gt;3d&#45;engine -->
<g id="edge8" class="edge">
<title>fillet&#45;&gt;3d&#45;engine</title>
<path fill="none" stroke="black" d="M307.84,-344.92C314.54,-333.71 325.25,-318.87 338.75,-310.5 365.87,-293.68 400.35,-285.56 429.74,-281.7"/>
<polygon fill="black" stroke="black" points="430.11,-285.18 439.64,-280.55 429.3,-278.22 430.11,-285.18"/>
<text text-anchor="middle" x="372.88" y="-314.45" font-family="Times,serif" font-size="14.00">«include»</text>
</g>
<!-- grid -->
<g id="node10" class="node">
<title>grid</title>
<polygon fill="white" stroke="black" stroke-width="2" points="468,-375.75 368,-375.75 368,-345.75 468,-345.75 468,-375.75"/>
<text text-anchor="middle" x="418" y="-356.08" font-family="Times,serif" font-size="14.00">grid</text>
</g>
<!-- grid&#45;&gt;3d&#45;engine -->
<g id="edge9" class="edge">
<title>grid&#45;&gt;3d&#45;engine</title>
<path fill="none" stroke="black" d="M413.06,-345.17C410.45,-334.67 409.02,-320.62 415.75,-310.5 419.77,-304.46 425.17,-299.56 431.25,-295.58"/>
<polygon fill="black" stroke="black" points="432.88,-298.68 439.95,-290.79 429.5,-292.55 432.88,-298.68"/>
<text text-anchor="middle" x="449.88" y="-314.45" font-family="Times,serif" font-size="14.00">«include»</text>
</g>
<!-- hole -->
<g id="node11" class="node">
<title>hole</title>
<polygon fill="white" stroke="black" stroke-width="2" points="586,-459 486,-459 486,-429 586,-429 586,-459"/>
<text text-anchor="middle" x="536" y="-439.33" font-family="Times,serif" font-size="14.00">hole</text>
</g>
<!-- label -->
<g id="node12" class="node">
<title>label</title>
<polygon fill="white" stroke="black" stroke-width="2" points="586,-375.75 486,-375.75 486,-345.75 586,-345.75 586,-375.75"/>
<text text-anchor="middle" x="536" y="-356.08" font-family="Times,serif" font-size="14.00">label</text>
</g>
<!-- hole&#45;&gt;label -->
<g id="edge10" class="edge">
<title>hole&#45;&gt;label</title>
<path fill="none" stroke="black" d="M536,-428.1C536,-416.87 536,-401.2 536,-387.9"/>
<polygon fill="black" stroke="black" points="539.5,-388.07 536,-378.07 532.5,-388.07 539.5,-388.07"/>
<text text-anchor="middle" x="570.12" y="-397.7" font-family="Times,serif" font-size="14.00">«include»</text>
</g>
<!-- label&#45;&gt;3d&#45;engine -->
<g id="edge11" class="edge">
<title>label&#45;&gt;3d&#45;engine</title>
<path fill="none" stroke="black" d="M507.36,-345.09C501.1,-340.44 495.29,-334.67 491.75,-327.75 488.13,-320.67 487.18,-312.24 487.42,-304.37"/>
<polygon fill="black" stroke="black" points="490.89,-304.91 488.39,-294.61 483.92,-304.22 490.89,-304.91"/>
<text text-anchor="middle" x="525.88" y="-314.45" font-family="Times,serif" font-size="14.00">«include»</text>
</g>
<!-- limits -->
<g id="node13" class="node">
<title>limits</title>
<polygon fill="white" stroke="black" stroke-width="2" points="530,-113.25 430,-113.25 430,-83.25 530,-83.25 530,-113.25"/>
<text text-anchor="middle" x="480" y="-93.58" font-family="Times,serif" font-size="14.00">limits</text>
</g>
<!-- limits&#45;&gt;core -->
<g id="edge12" class="edge">
<title>limits&#45;&gt;core</title>
<path fill="none" stroke="black" d="M476.92,-82.61C475.55,-71.8 475.73,-57.39 483.75,-48 493.48,-36.6 525.77,-28.7 556.25,-23.6"/>
<polygon fill="black" stroke="black" points="556.52,-27.1 565.85,-22.08 555.43,-20.18 556.52,-27.1"/>
<text text-anchor="middle" x="517.88" y="-51.95" font-family="Times,serif" font-size="14.00">«include»</text>
</g>
<!-- mngm&#45;engine&#45;&gt;3d&#45;engine -->
<g id="edge23" class="edge">
<title>mngm&#45;engine&#45;&gt;3d&#45;engine</title>
<path fill="none" stroke="red" stroke-width="2" d="M618.63,-344.76C606.72,-339.93 593.97,-334.15 582.75,-327.75 571.73,-321.46 570.86,-317.07 560,-310.5 553.34,-306.47 546.09,-302.58 538.89,-298.98"/>
<polygon fill="red" stroke="red" stroke-width="2" points="540.58,-295.91 530.05,-294.73 537.55,-302.22 540.58,-295.91"/>
<text text-anchor="middle" x="603.38" y="-314.45" font-family="Times,serif" font-size="14.00">«use»</text>
</g>
<!-- mngm&#45;engine&#45;&gt;unsafe_defs -->
<g id="edge13" class="edge">
<title>mngm&#45;engine&#45;&gt;unsafe_defs</title>
<path fill="none" stroke="black" d="M699.33,-344.85C733.55,-331.55 783.84,-312 820.97,-297.56"/>
<polygon fill="black" stroke="black" points="822.09,-300.88 830.15,-293.99 819.56,-294.36 822.09,-300.88"/>
<text text-anchor="middle" x="818.34" y="-314.45" font-family="Times,serif" font-size="14.00">«include»</text>
</g>
<!-- polymorphic&#45;engine&#45;&gt;3d&#45;engine -->
<g id="edge24" class="edge">
<title>polymorphic&#45;engine&#45;&gt;3d&#45;engine</title>
<path fill="none" stroke="red" stroke-width="2" d="M551.56,-210.09C547.96,-220.46 542.14,-234.22 534,-244.5 531.52,-247.63 528.66,-250.63 525.64,-253.44"/>
<polygon fill="red" stroke="red" stroke-width="2" points="523.41,-250.73 517.95,-259.81 527.88,-256.12 523.41,-250.73"/>
<text text-anchor="middle" x="564.67" y="-231.2" font-family="Times,serif" font-size="14.00">«use»</text>
</g>
<!-- polymorphic&#45;engine&#45;&gt;bbox&#45;engine -->
<g id="edge25" class="edge">
<title>polymorphic&#45;engine&#45;&gt;bbox&#45;engine</title>
<path fill="none" stroke="red" stroke-width="2" d="M481.11,-178.26C469.01,-173.93 457.08,-168.37 446.75,-161.25 432.97,-151.75 436.84,-141.98 424,-131.25 419.3,-127.33 414.05,-123.72 408.63,-120.45"/>
<polygon fill="red" stroke="red" stroke-width="2" points="410.48,-117.48 400.04,-115.69 407.09,-123.6 410.48,-117.48"/>
<text text-anchor="middle" x="467.38" y="-141.58" font-family="Times,serif" font-size="14.00">«use»</text>
</g>
<!-- polymorphic&#45;engine&#45;&gt;core -->
<g id="edge14" class="edge">
<title>polymorphic&#45;engine&#45;&gt;core</title>
<path fill="none" stroke="black" d="M558.21,-178.29C561.68,-156.78 569.31,-116.08 581.75,-83.25 587.33,-68.52 595.53,-52.99 602.73,-40.56"/>
<polygon fill="black" stroke="black" points="605.57,-42.63 607.68,-32.25 599.55,-39.05 605.57,-42.63"/>
<text text-anchor="middle" x="615.88" y="-93.58" font-family="Times,serif" font-size="14.00">«include»</text>
</g>
<!-- polymorphic&#45;engine&#45;&gt;mngm&#45;engine -->
<g id="edge26" class="edge">
<title>polymorphic&#45;engine&#45;&gt;mngm&#45;engine</title>
<path fill="none" stroke="red" stroke-width="2" d="M593.71,-210.23C632.19,-227.81 689.74,-261 715,-310.5 718.48,-317.33 718.8,-321.09 715,-327.75 713.13,-331.03 710.77,-334.02 708.1,-336.72"/>
<polygon fill="red" stroke="red" stroke-width="2" points="705.96,-333.95 700.37,-342.95 710.36,-339.39 705.96,-333.95"/>
<text text-anchor="middle" x="723.3" y="-272.83" font-family="Times,serif" font-size="14.00">«use»</text>
</g>
<!-- quaternions -->
<g id="node16" class="node">
<title>quaternions</title>
<polygon fill="white" stroke="black" stroke-width="2" points="1073.75,-459 972.25,-459 972.25,-429 1073.75,-429 1073.75,-459"/>
<text text-anchor="middle" x="1023" y="-439.33" font-family="Times,serif" font-size="14.00">quaternions</text>
</g>
<!-- template -->
<g id="node17" class="node">
<title>template</title>
<polygon fill="white" stroke="black" stroke-width="2" points="1192,-459 1092,-459 1092,-429 1192,-429 1192,-459"/>
<text text-anchor="middle" x="1142" y="-439.33" font-family="Times,serif" font-size="14.00">template</text>
</g>
<!-- traits&#45;engine&#45;&gt;core -->
<g id="edge15" class="edge">
<title>traits&#45;engine&#45;&gt;core</title>
<path fill="none" stroke="black" d="M679.97,-130.42C668.1,-108.51 645.74,-67.22 631.37,-40.69"/>
<polygon fill="black" stroke="black" points="634.5,-39.11 626.66,-31.98 628.34,-42.44 634.5,-39.11"/>
<text text-anchor="middle" x="704.42" y="-93.58" font-family="Times,serif" font-size="14.00">«include»</text>
</g>
<!-- type&#45;engine&#45;&gt;bbox&#45;engine -->
<g id="edge27" class="edge">
<title>type&#45;engine&#45;&gt;bbox&#45;engine</title>
<path fill="none" stroke="red" stroke-width="2" d="M654.12,-180.37C632.38,-174.73 606.76,-167.89 583.75,-161.25 540.9,-148.89 530.92,-143.37 488,-131.25 467.8,-125.55 445.65,-119.79 425.59,-114.77"/>
<polygon fill="red" stroke="red" stroke-width="2" points="426.57,-111.41 416.02,-112.39 424.88,-118.2 426.57,-111.41"/>
<text text-anchor="middle" x="604.38" y="-141.58" font-family="Times,serif" font-size="14.00">«use»</text>
</g>
<!-- type&#45;engine&#45;&gt;core -->
<g id="edge16" class="edge">
<title>type&#45;engine&#45;&gt;core</title>
<path fill="none" stroke="black" d="M735.22,-178.45C741.55,-173.86 747.4,-168.15 751,-161.25 767.14,-130.36 763.28,-111.59 743,-83.25 727.26,-61.26 702.04,-45.76 678.36,-35.23"/>
<polygon fill="black" stroke="black" points="679.96,-32.11 669.38,-31.47 677.25,-38.56 679.96,-32.11"/>
<text text-anchor="middle" x="793.12" y="-93.58" font-family="Times,serif" font-size="14.00">«include»</text>
</g>
<!-- unsafe_defs&#45;&gt;core -->
<g id="edge17" class="edge">
<title>unsafe_defs&#45;&gt;core</title>
<path fill="none" stroke="black" d="M871.58,-261.54C874.47,-225.97 876.63,-135.42 831,-83.25 793.3,-40.15 728.23,-24.39 679.9,-18.78"/>
<polygon fill="black" stroke="black" points="680.43,-15.32 670.13,-17.77 679.72,-22.28 680.43,-15.32"/>
<text text-anchor="middle" x="900.33" y="-141.58" font-family="Times,serif" font-size="14.00">«include»</text>
</g>
<!-- util&#45;&gt;3d&#45;engine -->
<g id="edge18" class="edge">
<title>util&#45;&gt;3d&#45;engine</title>
<path fill="none" stroke="black" d="M735.17,-345.68C716.16,-340.27 694.41,-333.91 674.75,-327.75 652.02,-320.62 646.88,-317.15 624,-310.5 601.24,-303.89 576,-297.53 553.74,-292.26"/>
<polygon fill="black" stroke="black" points="554.75,-288.9 544.21,-290.02 553.15,-295.71 554.75,-288.9"/>
<text text-anchor="middle" x="708.88" y="-314.45" font-family="Times,serif" font-size="14.00">«include»</text>
</g>
</g>
</svg>
