<?xml version="1.0" encoding="UTF-8" standalone="no"?>
<!DOCTYPE svg PUBLIC "-//W3C//DTD SVG 1.1//EN"
 "http://www.w3.org/Graphics/SVG/1.1/DTD/svg11.dtd">
<!-- Generated by graphviz version 8.1.0 (20230707.0739)
 -->
<!-- Title: foundation Pages: 1 -->
<svg width="1210pt" height="464pt"
 viewBox="0.00 0.00 1210.25 464.00" xmlns="http://www.w3.org/2000/svg" xmlns:xlink="http://www.w3.org/1999/xlink">
<g id="graph0" class="graph" transform="scale(1 1) rotate(0) translate(4 460)">
<title>foundation</title>
<polygon fill="white" stroke="none" points="-4,4 -4,-460 1206.25,-460 1206.25,4 -4,4"/>
<!-- 2d&#45;engine -->
<g id="node1" class="node">
<title>2d&#45;engine</title>
<polygon fill="white" stroke="black" stroke-width="2" points="1001,-208.5 901,-208.5 901,-178.5 1001,-178.5 1001,-208.5"/>
<text text-anchor="middle" x="951" y="-188.45" font-family="Times,serif" font-size="14.00">2d&#45;engine</text>
</g>
<!-- bbox&#45;engine -->
<g id="node4" class="node">
<title>bbox&#45;engine</title>
<polygon fill="white" stroke="black" stroke-width="2" points="885,-112.5 785,-112.5 785,-82.5 885,-82.5 885,-112.5"/>
<text text-anchor="middle" x="835" y="-92.45" font-family="Times,serif" font-size="14.00">bbox&#45;engine</text>
</g>
<!-- 2d&#45;engine&#45;&gt;bbox&#45;engine -->
<g id="edge22" class="edge">
<title>2d&#45;engine&#45;&gt;bbox&#45;engine</title>
<path fill="none" stroke="red" stroke-width="2" d="M933.23,-177.58C918.11,-164.93 895.76,-146.37 876,-130.5 872.26,-127.5 868.31,-124.36 864.39,-121.28"/>
<polygon fill="red" stroke="red" stroke-width="2" points="866.31,-117.77 856.28,-114.37 862,-123.28 866.31,-117.77"/>
<text text-anchor="middle" x="927.75" y="-140.45" font-family="Times,serif" font-size="14.00">«use»</text>
</g>
<!-- mngm&#45;engine -->
<g id="node14" class="node">
<title>mngm&#45;engine</title>
<polygon fill="white" stroke="black" stroke-width="2" points="1121,-112.5 1021,-112.5 1021,-82.5 1121,-82.5 1121,-112.5"/>
<text text-anchor="middle" x="1071" y="-92.45" font-family="Times,serif" font-size="14.00">mngm&#45;engine</text>
</g>
<!-- 2d&#45;engine&#45;&gt;mngm&#45;engine -->
<g id="edge21" class="edge">
<title>2d&#45;engine&#45;&gt;mngm&#45;engine</title>
<path fill="none" stroke="red" stroke-width="2" d="M982.07,-177.57C990.6,-172.74 999.54,-166.94 1007,-160.5 1019.81,-149.42 1018.55,-142.5 1030.5,-130.5 1033.63,-127.36 1037.06,-124.23 1040.57,-121.24"/>
<polygon fill="red" stroke="red" stroke-width="2" points="1042.87,-123.25 1048.43,-114.23 1038.46,-117.82 1042.87,-123.25"/>
<text text-anchor="middle" x="1045.75" y="-140.45" font-family="Times,serif" font-size="14.00">«use»</text>
</g>
<!-- unsafe_defs -->
<g id="node19" class="node">
<title>unsafe_defs</title>
<polygon fill="white" stroke="black" stroke-width="2" points="1003,-112.5 903,-112.5 903,-82.5 1003,-82.5 1003,-112.5"/>
<text text-anchor="middle" x="953" y="-92.45" font-family="Times,serif" font-size="14.00">unsafe_defs</text>
</g>
<!-- 2d&#45;engine&#45;&gt;unsafe_defs -->
<g id="edge1" class="edge">
<title>2d&#45;engine&#45;&gt;unsafe_defs</title>
<path fill="none" stroke="black" d="M951.31,-177.81C951.62,-163.55 952.08,-141.59 952.45,-124.39"/>
<polygon fill="black" stroke="black" points="955.97,-124.47 952.68,-114.39 948.97,-124.32 955.97,-124.47"/>
<text text-anchor="middle" x="979.63" y="-140.45" font-family="Times,serif" font-size="14.00">«include»</text>
</g>
<!-- 3d&#45;engine -->
<g id="node2" class="node">
<title>3d&#45;engine</title>
<polygon fill="white" stroke="black" stroke-width="2" points="646,-291 546,-291 546,-261 646,-261 646,-291"/>
<text text-anchor="middle" x="596" y="-270.95" font-family="Times,serif" font-size="14.00">3d&#45;engine</text>
</g>
<!-- 3d&#45;engine&#45;&gt;2d&#45;engine -->
<g id="edge2" class="edge">
<title>3d&#45;engine&#45;&gt;2d&#45;engine</title>
<path fill="none" stroke="black" d="M646.94,-262.01C687.02,-251.93 744.32,-237.81 794.75,-226.5 825.89,-219.51 860.67,-212.33 889.5,-206.54"/>
<polygon fill="black" stroke="black" points="890.11,-209.79 899.23,-204.4 888.74,-202.93 890.11,-209.79"/>
<text text-anchor="middle" x="821.63" y="-229.7" font-family="Times,serif" font-size="14.00">«include»</text>
</g>
<!-- polymorphic&#45;engine -->
<g id="node15" class="node">
<title>polymorphic&#45;engine</title>
<polygon fill="white" stroke="black" stroke-width="2" points="952.13,-373.5 825.88,-373.5 825.88,-343.5 952.13,-343.5 952.13,-373.5"/>
<text text-anchor="middle" x="889" y="-353.45" font-family="Times,serif" font-size="14.00">polymorphic&#45;engine</text>
</g>
<!-- 3d&#45;engine&#45;&gt;polymorphic&#45;engine -->
<g id="edge23" class="edge">
<title>3d&#45;engine&#45;&gt;polymorphic&#45;engine</title>
<path fill="none" stroke="red" stroke-width="2" d="M646.99,-278.54C689.54,-281.32 751.06,-288.85 801,-309 812.83,-313.78 813.53,-318.98 824.5,-325.5 831.04,-329.39 838.11,-333.24 845.1,-336.84"/>
<polygon fill="red" stroke="red" stroke-width="2" points="844.16,-340.29 854.67,-341.65 847.3,-334.03 844.16,-340.29"/>
<text text-anchor="middle" x="840.75" y="-312.2" font-family="Times,serif" font-size="14.00">«use»</text>
</g>
<!-- type_trait -->
<g id="node18" class="node">
<title>type_trait</title>
<polygon fill="white" stroke="black" stroke-width="2" points="646,-160.5 546,-160.5 546,-130.5 646,-130.5 646,-160.5"/>
<text text-anchor="middle" x="596" y="-140.45" font-family="Times,serif" font-size="14.00">type_trait</text>
</g>
<!-- 3d&#45;engine&#45;&gt;type_trait -->
<g id="edge3" class="edge">
<title>3d&#45;engine&#45;&gt;type_trait</title>
<path fill="none" stroke="black" d="M596,-260.01C596,-238.44 596,-198.36 596,-172.06"/>
<polygon fill="black" stroke="black" points="599.5,-172.4 596,-162.4 592.5,-172.4 599.5,-172.4"/>
<text text-anchor="middle" x="622.63" y="-229.7" font-family="Times,serif" font-size="14.00">«include»</text>
</g>
<!-- algo&#45;engine -->
<g id="node3" class="node">
<title>algo&#45;engine</title>
<polygon fill="white" stroke="black" stroke-width="2" points="572,-373.5 472,-373.5 472,-343.5 572,-343.5 572,-373.5"/>
<text text-anchor="middle" x="522" y="-353.45" font-family="Times,serif" font-size="14.00">algo&#45;engine</text>
</g>
<!-- algo&#45;engine&#45;&gt;3d&#45;engine -->
<g id="edge4" class="edge">
<title>algo&#45;engine&#45;&gt;3d&#45;engine</title>
<path fill="none" stroke="black" d="M529,-342.9C534.33,-332.7 542.35,-319.14 551.75,-309 555.27,-305.2 559.3,-301.57 563.47,-298.2"/>
<polygon fill="black" stroke="black" points="565.21,-300.51 571.09,-291.7 561,-294.93 565.21,-300.51"/>
<text text-anchor="middle" x="578.63" y="-312.2" font-family="Times,serif" font-size="14.00">«include»</text>
</g>
<!-- core -->
<g id="node7" class="node">
<title>core</title>
<polygon fill="white" stroke="black" stroke-width="2" points="954,-30 854,-30 854,0 954,0 954,-30"/>
<text text-anchor="middle" x="904" y="-9.95" font-family="Times,serif" font-size="14.00">core</text>
</g>
<!-- bbox&#45;engine&#45;&gt;core -->
<g id="edge5" class="edge">
<title>bbox&#45;engine&#45;&gt;core</title>
<path fill="none" stroke="black" d="M843.56,-81.8C849.7,-71.8 858.5,-58.53 867.75,-48 870.74,-44.59 874.08,-41.2 877.5,-37.97"/>
<polygon fill="black" stroke="black" points="879.38,-41.08 884.45,-31.78 874.69,-35.89 879.38,-41.08"/>
<text text-anchor="middle" x="894.63" y="-51.2" font-family="Times,serif" font-size="14.00">«include»</text>
</g>
<!-- components -->
<g id="node5" class="node">
<title>components</title>
<polygon fill="white" stroke="black" stroke-width="2" points="842,-208.5 742,-208.5 742,-178.5 842,-178.5 842,-208.5"/>
<text text-anchor="middle" x="792" y="-188.45" font-family="Times,serif" font-size="14.00">components</text>
</g>
<!-- components&#45;&gt;bbox&#45;engine -->
<g id="edge6" class="edge">
<title>components&#45;&gt;bbox&#45;engine</title>
<path fill="none" stroke="black" d="M790.36,-177.6C789.59,-164.47 790.16,-145.2 797.75,-130.5 799.49,-127.14 801.74,-123.99 804.27,-121.06"/>
<polygon fill="black" stroke="black" points="806.31,-123.98 810.99,-114.47 801.41,-118.99 806.31,-123.98"/>
<text text-anchor="middle" x="824.63" y="-140.45" font-family="Times,serif" font-size="14.00">«include»</text>
</g>
<!-- connect -->
<g id="node6" class="node">
<title>connect</title>
<polygon fill="white" stroke="black" stroke-width="2" points="454,-456 354,-456 354,-426 454,-426 454,-456"/>
<text text-anchor="middle" x="404" y="-435.95" font-family="Times,serif" font-size="14.00">connect</text>
</g>
<!-- util -->
<g id="node20" class="node">
<title>util</title>
<polygon fill="white" stroke="black" stroke-width="2" points="454,-373.5 354,-373.5 354,-343.5 454,-343.5 454,-373.5"/>
<text text-anchor="middle" x="404" y="-353.45" font-family="Times,serif" font-size="14.00">util</text>
</g>
<!-- connect&#45;&gt;util -->
<g id="edge7" class="edge">
<title>connect&#45;&gt;util</title>
<path fill="none" stroke="black" d="M404,-425.24C404,-414.07 404,-398.46 404,-385.26"/>
<polygon fill="black" stroke="black" points="407.5,-385.44 404,-375.44 400.5,-385.44 407.5,-385.44"/>
<text text-anchor="middle" x="430.63" y="-394.7" font-family="Times,serif" font-size="14.00">«include»</text>
</g>
<!-- drawio -->
<g id="node8" class="node">
<title>drawio</title>
<polygon fill="white" stroke="black" stroke-width="2" points="1001,-291 901,-291 901,-261 1001,-261 1001,-291"/>
<text text-anchor="middle" x="951" y="-270.95" font-family="Times,serif" font-size="14.00">drawio</text>
</g>
<!-- drawio&#45;&gt;2d&#45;engine -->
<g id="edge8" class="edge">
<title>drawio&#45;&gt;2d&#45;engine</title>
<path fill="none" stroke="black" d="M951,-260.24C951,-249.07 951,-233.46 951,-220.26"/>
<polygon fill="black" stroke="black" points="954.5,-220.44 951,-210.44 947.5,-220.44 954.5,-220.44"/>
<text text-anchor="middle" x="977.63" y="-229.7" font-family="Times,serif" font-size="14.00">«include»</text>
</g>
<!-- fillet -->
<g id="node9" class="node">
<title>fillet</title>
<polygon fill="white" stroke="black" stroke-width="2" points="690,-373.5 590,-373.5 590,-343.5 690,-343.5 690,-373.5"/>
<text text-anchor="middle" x="640" y="-353.45" font-family="Times,serif" font-size="14.00">fillet</text>
</g>
<!-- fillet&#45;&gt;3d&#45;engine -->
<g id="edge9" class="edge">
<title>fillet&#45;&gt;3d&#45;engine</title>
<path fill="none" stroke="black" d="M628.16,-342.67C624.26,-337.41 620.07,-331.35 616.75,-325.5 612.52,-318.05 608.62,-309.58 605.36,-301.82"/>
<polygon fill="black" stroke="black" points="608.33,-300.81 601.35,-292.84 601.83,-303.42 608.33,-300.81"/>
<text text-anchor="middle" x="643.63" y="-312.2" font-family="Times,serif" font-size="14.00">«include»</text>
</g>
<!-- grid -->
<g id="node10" class="node">
<title>grid</title>
<polygon fill="white" stroke="black" stroke-width="2" points="808,-373.5 708,-373.5 708,-343.5 808,-343.5 808,-373.5"/>
<text text-anchor="middle" x="758" y="-353.45" font-family="Times,serif" font-size="14.00">grid</text>
</g>
<!-- grid&#45;&gt;3d&#45;engine -->
<g id="edge10" class="edge">
<title>grid&#45;&gt;3d&#45;engine</title>
<path fill="none" stroke="black" d="M724.89,-342.62C714.41,-337.55 702.91,-331.62 692.75,-325.5 682.05,-319.06 680.85,-315.18 670,-309 662.05,-304.47 653.32,-300.16 644.75,-296.27"/>
<polygon fill="black" stroke="black" points="646.37,-292.71 635.8,-291.89 643.55,-299.12 646.37,-292.71"/>
<text text-anchor="middle" x="719.63" y="-312.2" font-family="Times,serif" font-size="14.00">«include»</text>
</g>
<!-- hole -->
<g id="node11" class="node">
<title>hole</title>
<polygon fill="white" stroke="black" stroke-width="2" points="100,-456 0,-456 0,-426 100,-426 100,-456"/>
<text text-anchor="middle" x="50" y="-435.95" font-family="Times,serif" font-size="14.00">hole</text>
</g>
<!-- label -->
<g id="node12" class="node">
<title>label</title>
<polygon fill="white" stroke="black" stroke-width="2" points="100,-373.5 0,-373.5 0,-343.5 100,-343.5 100,-373.5"/>
<text text-anchor="middle" x="50" y="-353.45" font-family="Times,serif" font-size="14.00">label</text>
</g>
<!-- hole&#45;&gt;label -->
<g id="edge11" class="edge">
<title>hole&#45;&gt;label</title>
<path fill="none" stroke="black" d="M50,-425.24C50,-414.07 50,-398.46 50,-385.26"/>
<polygon fill="black" stroke="black" points="53.5,-385.44 50,-375.44 46.5,-385.44 53.5,-385.44"/>
<text text-anchor="middle" x="76.63" y="-394.7" font-family="Times,serif" font-size="14.00">«include»</text>
</g>
<!-- label&#45;&gt;3d&#45;engine -->
<g id="edge12" class="edge">
<title>label&#45;&gt;3d&#45;engine</title>
<path fill="none" stroke="black" d="M84.38,-342.57C111.82,-331.36 151.53,-316.66 187.75,-309 308.66,-283.43 453.59,-277.83 534.18,-276.87"/>
<polygon fill="black" stroke="black" points="534.15,-280.36 544.12,-276.77 534.08,-273.36 534.15,-280.36"/>
<text text-anchor="middle" x="214.63" y="-312.2" font-family="Times,serif" font-size="14.00">«include»</text>
</g>
<!-- limits -->
<g id="node13" class="node">
<title>limits</title>
<polygon fill="white" stroke="black" stroke-width="2" points="767,-112.5 667,-112.5 667,-82.5 767,-82.5 767,-112.5"/>
<text text-anchor="middle" x="717" y="-92.45" font-family="Times,serif" font-size="14.00">limits</text>
</g>
<!-- limits&#45;&gt;core -->
<g id="edge13" class="edge">
<title>limits&#45;&gt;core</title>
<path fill="none" stroke="black" d="M738.48,-81.58C754.31,-71.1 776.66,-57.33 797.75,-48 811.99,-41.7 827.83,-36.18 842.85,-31.59"/>
<polygon fill="black" stroke="black" points="843.48,-34.75 852.08,-28.56 841.49,-28.04 843.48,-34.75"/>
<text text-anchor="middle" x="824.63" y="-51.2" font-family="Times,serif" font-size="14.00">«include»</text>
</g>
<!-- mngm&#45;engine&#45;&gt;core -->
<g id="edge14" class="edge">
<title>mngm&#45;engine&#45;&gt;core</title>
<path fill="none" stroke="black" d="M1048.58,-81.55C1032.65,-71.32 1010.54,-57.87 990,-48 980.2,-43.29 969.51,-38.82 959.11,-34.79"/>
<polygon fill="black" stroke="black" points="960.43,-31.17 949.84,-30.92 957.96,-37.72 960.43,-31.17"/>
<text text-anchor="middle" x="1045.63" y="-51.2" font-family="Times,serif" font-size="14.00">«include»</text>
</g>
<!-- polymorphic&#45;engine&#45;&gt;3d&#45;engine -->
<g id="edge24" class="edge">
<title>polymorphic&#45;engine&#45;&gt;3d&#45;engine</title>
<path fill="none" stroke="red" stroke-width="2" d="M825.2,-343.69C800.86,-337.86 776.37,-331.13 765.5,-325.5 755.42,-320.28 756.19,-314 746,-309 719.17,-295.83 687.04,-288.06 659.41,-283.49"/>
<polygon fill="red" stroke="red" stroke-width="2" points="659.07,-279.59 648.66,-281.54 658.02,-286.51 659.07,-279.59"/>
<text text-anchor="middle" x="781.75" y="-312.2" font-family="Times,serif" font-size="14.00">«use»</text>
</g>
<!-- polymorphic&#45;engine&#45;&gt;bbox&#45;engine -->
<g id="edge25" class="edge">
<title>polymorphic&#45;engine&#45;&gt;bbox&#45;engine</title>
<path fill="none" stroke="red" stroke-width="2" d="M888.04,-342.53C885.34,-305.65 876.17,-207.82 851,-130.5 850.41,-128.69 849.73,-126.86 849,-125.03"/>
<polygon fill="red" stroke="red" stroke-width="2" points="851.99,-123.01 844.61,-115.41 845.64,-125.95 851.99,-123.01"/>
<text text-anchor="middle" x="892.75" y="-229.7" font-family="Times,serif" font-size="14.00">«use»</text>
</g>
<!-- polymorphic&#45;engine&#45;&gt;core -->
<g id="edge15" class="edge">
<title>polymorphic&#45;engine&#45;&gt;core</title>
<path fill="none" stroke="black" d="M952.94,-350.54C1029.92,-340.33 1149,-317.93 1149,-277 1149,-277 1149,-277 1149,-96.5 1149,-57.96 1038.19,-34.85 965.62,-23.85"/>
<polygon fill="black" stroke="black" points="966.17,-20.24 955.76,-22.25 965.15,-27.17 966.17,-20.24"/>
<text text-anchor="middle" x="1175.63" y="-188.45" font-family="Times,serif" font-size="14.00">«include»</text>
</g>
<!-- polymorphic&#45;engine&#45;&gt;mngm&#45;engine -->
<g id="edge26" class="edge">
<title>polymorphic&#45;engine&#45;&gt;mngm&#45;engine</title>
<path fill="none" stroke="red" stroke-width="2" d="M931.63,-342.62C957.29,-331.78 988.97,-314.8 1010,-291 1051.95,-243.53 1065.07,-167.17 1069.16,-126.35"/>
<polygon fill="red" stroke="red" stroke-width="2" points="1072.89,-126.76 1070.26,-116.5 1065.92,-126.16 1072.89,-126.76"/>
<text text-anchor="middle" x="1061.75" y="-229.7" font-family="Times,serif" font-size="14.00">«use»</text>
</g>
<!-- profile -->
<g id="node16" class="node">
<title>profile</title>
<polygon fill="white" stroke="black" stroke-width="2" points="218,-373.5 118,-373.5 118,-343.5 218,-343.5 218,-373.5"/>
<text text-anchor="middle" x="168" y="-353.45" font-family="Times,serif" font-size="14.00">profile</text>
</g>
<!-- profile&#45;&gt;3d&#45;engine -->
<g id="edge16" class="edge">
<title>profile&#45;&gt;3d&#45;engine</title>
<path fill="none" stroke="black" d="M200.09,-342.55C225.28,-331.48 261.53,-316.98 294.75,-309 376.28,-289.42 473.1,-281.82 534.54,-278.87"/>
<polygon fill="black" stroke="black" points="534.38,-282.33 544.22,-278.39 534.07,-275.34 534.38,-282.33"/>
<text text-anchor="middle" x="321.63" y="-312.2" font-family="Times,serif" font-size="14.00">«include»</text>
</g>
<!-- template -->
<g id="node17" class="node">
<title>template</title>
<polygon fill="white" stroke="black" stroke-width="2" points="336,-373.5 236,-373.5 236,-343.5 336,-343.5 336,-373.5"/>
<text text-anchor="middle" x="286" y="-353.45" font-family="Times,serif" font-size="14.00">template</text>
</g>
<!-- template&#45;&gt;3d&#45;engine -->
<g id="edge17" class="edge">
<title>template&#45;&gt;3d&#45;engine</title>
<path fill="none" stroke="black" d="M313.85,-342.64C335.37,-331.76 366.21,-317.47 394.75,-309 440.57,-295.4 494.09,-287.24 534.41,-282.57"/>
<polygon fill="black" stroke="black" points="534.6,-285.96 544.15,-281.37 533.82,-279 534.6,-285.96"/>
<text text-anchor="middle" x="421.63" y="-312.2" font-family="Times,serif" font-size="14.00">«include»</text>
</g>
<!-- type_trait&#45;&gt;core -->
<g id="edge18" class="edge">
<title>type_trait&#45;&gt;core</title>
<path fill="none" stroke="black" d="M593.74,-129.74C592.49,-115.77 593.09,-95.11 604.75,-82.5 636.36,-48.3 764.62,-29.78 842.6,-21.49"/>
<polygon fill="black" stroke="black" points="842.67,-24.9 852.25,-20.38 841.95,-17.93 842.67,-24.9"/>
<text text-anchor="middle" x="631.63" y="-92.45" font-family="Times,serif" font-size="14.00">«include»</text>
</g>
<!-- unsafe_defs&#45;&gt;core -->
<g id="edge19" class="edge">
<title>unsafe_defs&#45;&gt;core</title>
<path fill="none" stroke="black" d="M944.01,-81.74C936.94,-70.12 926.95,-53.7 918.71,-40.17"/>
<polygon fill="black" stroke="black" points="921.29,-38.67 913.1,-31.94 915.31,-42.31 921.29,-38.67"/>
<text text-anchor="middle" x="959.63" y="-51.2" font-family="Times,serif" font-size="14.00">«include»</text>
</g>
<!-- util&#45;&gt;3d&#45;engine -->
<g id="edge20" class="edge">
<title>util&#45;&gt;3d&#45;engine</title>
<path fill="none" stroke="black" d="M424.52,-342.67C439.93,-332.09 461.87,-318.17 482.75,-309 499.09,-301.82 517.47,-295.82 534.59,-291.02"/>
<polygon fill="black" stroke="black" points="535.32,-294.18 544.06,-288.19 533.5,-287.42 535.32,-294.18"/>
<text text-anchor="middle" x="509.63" y="-312.2" font-family="Times,serif" font-size="14.00">«include»</text>
</g>
</g>
</svg>
