<?xml version="1.0" encoding="UTF-8" standalone="no"?>
<!DOCTYPE svg PUBLIC "-//W3C//DTD SVG 1.1//EN"
 "http://www.w3.org/Graphics/SVG/1.1/DTD/svg11.dtd">
<!-- Generated by graphviz version 5.0.0 (0)
 -->
<!-- Title: foundation Pages: 1 -->
<svg width="835pt" height="458pt"
 viewBox="0.00 0.00 835.00 458.00" xmlns="http://www.w3.org/2000/svg" xmlns:xlink="http://www.w3.org/1999/xlink">
<g id="graph0" class="graph" transform="scale(1 1) rotate(0) translate(4 454)">
<title>foundation</title>
<polygon fill="white" stroke="transparent" points="-4,4 -4,-454 831,-454 831,4 -4,4"/>
<!-- 2d&#45;engine -->
<g id="node1" class="node">
<title>2d&#45;engine</title>
<polygon fill="white" stroke="black" stroke-width="2" points="564,-207 464,-207 464,-177 564,-177 564,-207"/>
<text text-anchor="middle" x="514" y="-188.3" font-family="Times,serif" font-size="14.00">2d&#45;engine</text>
</g>
<!-- bbox&#45;engine -->
<g id="node4" class="node">
<title>bbox&#45;engine</title>
<polygon fill="white" stroke="black" stroke-width="2" points="434,-111 330,-111 330,-81 434,-81 434,-111"/>
<text text-anchor="middle" x="382" y="-92.3" font-family="Times,serif" font-size="14.00">bbox&#45;engine</text>
</g>
<!-- 2d&#45;engine&#45;&gt;bbox&#45;engine -->
<g id="edge21" class="edge">
<title>2d&#45;engine&#45;&gt;bbox&#45;engine</title>
<path fill="none" stroke="red" stroke-width="2" d="M491.85,-176.96C483.37,-171.47 473.66,-165.05 465,-159 445.67,-145.49 424.36,-129.55 408.18,-117.22"/>
<polygon fill="red" stroke="red" stroke-width="2" points="410.29,-114.42 400.22,-111.13 406.03,-119.98 410.29,-114.42"/>
<text text-anchor="middle" x="486" y="-140.3" font-family="Times,serif" font-size="14.00">«use»</text>
</g>
<!-- mngm&#45;engine -->
<g id="node14" class="node">
<title>mngm&#45;engine</title>
<polygon fill="white" stroke="black" stroke-width="2" points="566,-111 452,-111 452,-81 566,-81 566,-111"/>
<text text-anchor="middle" x="509" y="-92.3" font-family="Times,serif" font-size="14.00">mngm&#45;engine</text>
</g>
<!-- 2d&#45;engine&#45;&gt;mngm&#45;engine -->
<g id="edge20" class="edge">
<title>2d&#45;engine&#45;&gt;mngm&#45;engine</title>
<path fill="none" stroke="red" stroke-width="2" d="M513.24,-176.72C512.46,-162.01 511.22,-138.79 510.29,-121.2"/>
<polygon fill="red" stroke="red" stroke-width="2" points="513.78,-120.9 509.75,-111.1 506.79,-121.27 513.78,-120.9"/>
<text text-anchor="middle" x="534" y="-140.3" font-family="Times,serif" font-size="14.00">«use»</text>
</g>
<!-- unsafe_defs -->
<g id="node18" class="node">
<title>unsafe_defs</title>
<polygon fill="white" stroke="black" stroke-width="2" points="685.5,-111 584.5,-111 584.5,-81 685.5,-81 685.5,-111"/>
<text text-anchor="middle" x="635" y="-92.3" font-family="Times,serif" font-size="14.00">unsafe_defs</text>
</g>
<!-- 2d&#45;engine&#45;&gt;unsafe_defs -->
<g id="edge1" class="edge">
<title>2d&#45;engine&#45;&gt;unsafe_defs</title>
<path fill="none" stroke="black" d="M534.37,-176.94C542.16,-171.46 551.07,-165.04 559,-159 576.6,-145.59 595.91,-129.82 610.66,-117.54"/>
<polygon fill="black" stroke="black" points="612.92,-120.21 618.35,-111.11 608.43,-114.84 612.92,-120.21"/>
<text text-anchor="middle" x="629.5" y="-140.3" font-family="Times,serif" font-size="14.00">«include»</text>
</g>
<!-- 3d&#45;engine -->
<g id="node2" class="node">
<title>3d&#45;engine</title>
<polygon fill="white" stroke="black" stroke-width="2" points="454,-288 354,-288 354,-258 454,-258 454,-288"/>
<text text-anchor="middle" x="404" y="-269.3" font-family="Times,serif" font-size="14.00">3d&#45;engine</text>
</g>
<!-- 3d&#45;engine&#45;&gt;2d&#45;engine -->
<g id="edge2" class="edge">
<title>3d&#45;engine&#45;&gt;2d&#45;engine</title>
<path fill="none" stroke="black" d="M414.8,-257.94C423.08,-247.84 435.22,-234.41 448,-225 454.63,-220.11 462.13,-215.65 469.62,-211.72"/>
<polygon fill="black" stroke="black" points="471.67,-214.61 479.06,-207.02 468.55,-208.34 471.67,-214.61"/>
<text text-anchor="middle" x="482.5" y="-228.8" font-family="Times,serif" font-size="14.00">«include»</text>
</g>
<!-- 3d&#45;engine&#45;&gt;bbox&#45;engine -->
<g id="edge22" class="edge">
<title>3d&#45;engine&#45;&gt;bbox&#45;engine</title>
<path fill="none" stroke="red" stroke-width="2" d="M403.3,-257.7C401.88,-231.85 398.08,-175.7 390,-129 389.56,-126.43 389.02,-123.77 388.43,-121.12"/>
<polygon fill="red" stroke="red" stroke-width="2" points="391.79,-120.14 386.04,-111.24 384.99,-121.78 391.79,-120.14"/>
<text text-anchor="middle" x="421" y="-188.3" font-family="Times,serif" font-size="14.00">«use»</text>
</g>
<!-- type_trait -->
<g id="node17" class="node">
<title>type_trait</title>
<polygon fill="white" stroke="black" stroke-width="2" points="291,-159 191,-159 191,-129 291,-129 291,-159"/>
<text text-anchor="middle" x="241" y="-140.3" font-family="Times,serif" font-size="14.00">type_trait</text>
</g>
<!-- 3d&#45;engine&#45;&gt;type_trait -->
<g id="edge3" class="edge">
<title>3d&#45;engine&#45;&gt;type_trait</title>
<path fill="none" stroke="black" d="M353.7,-262.29C321.27,-253.39 280.85,-236.88 257,-207 248.47,-196.32 244.44,-181.59 242.56,-169.17"/>
<polygon fill="black" stroke="black" points="246.01,-168.55 241.4,-159.01 239.06,-169.34 246.01,-168.55"/>
<text text-anchor="middle" x="332.5" y="-228.8" font-family="Times,serif" font-size="14.00">«include»</text>
</g>
<!-- algo&#45;engine -->
<g id="node3" class="node">
<title>algo&#45;engine</title>
<polygon fill="white" stroke="black" stroke-width="2" points="100,-369 0,-369 0,-339 100,-339 100,-369"/>
<text text-anchor="middle" x="50" y="-350.3" font-family="Times,serif" font-size="14.00">algo&#45;engine</text>
</g>
<!-- algo&#45;engine&#45;&gt;3d&#45;engine -->
<g id="edge4" class="edge">
<title>algo&#45;engine&#45;&gt;3d&#45;engine</title>
<path fill="none" stroke="black" d="M71.86,-338.88C89.72,-328.05 116.02,-313.7 141,-306 208.52,-285.19 289.69,-277.84 343.83,-275.28"/>
<polygon fill="black" stroke="black" points="344.11,-278.77 353.95,-274.84 343.81,-271.78 344.11,-278.77"/>
<text text-anchor="middle" x="175.5" y="-309.8" font-family="Times,serif" font-size="14.00">«include»</text>
</g>
<!-- core -->
<g id="node7" class="node">
<title>core</title>
<polygon fill="white" stroke="black" stroke-width="2" points="432,-30 332,-30 332,0 432,0 432,-30"/>
<text text-anchor="middle" x="382" y="-11.3" font-family="Times,serif" font-size="14.00">core</text>
</g>
<!-- bbox&#45;engine&#45;&gt;core -->
<g id="edge5" class="edge">
<title>bbox&#45;engine&#45;&gt;core</title>
<path fill="none" stroke="black" d="M382,-80.88C382,-69.64 382,-53.66 382,-40.37"/>
<polygon fill="black" stroke="black" points="385.5,-40 382,-30 378.5,-40 385.5,-40"/>
<text text-anchor="middle" x="416.5" y="-51.8" font-family="Times,serif" font-size="14.00">«include»</text>
</g>
<!-- components -->
<g id="node5" class="node">
<title>components</title>
<polygon fill="white" stroke="black" stroke-width="2" points="368,-207 266,-207 266,-177 368,-177 368,-207"/>
<text text-anchor="middle" x="317" y="-188.3" font-family="Times,serif" font-size="14.00">components</text>
</g>
<!-- components&#45;&gt;bbox&#45;engine -->
<g id="edge6" class="edge">
<title>components&#45;&gt;bbox&#45;engine</title>
<path fill="none" stroke="black" d="M314.23,-176.98C312.37,-163.56 311.72,-143.29 321,-129 324.05,-124.3 328.03,-120.25 332.5,-116.76"/>
<polygon fill="black" stroke="black" points="334.61,-119.56 340.97,-111.09 330.71,-113.75 334.61,-119.56"/>
<text text-anchor="middle" x="355.5" y="-140.3" font-family="Times,serif" font-size="14.00">«include»</text>
</g>
<!-- connect -->
<g id="node6" class="node">
<title>connect</title>
<polygon fill="white" stroke="black" stroke-width="2" points="808,-450 708,-450 708,-420 808,-420 808,-450"/>
<text text-anchor="middle" x="758" y="-431.3" font-family="Times,serif" font-size="14.00">connect</text>
</g>
<!-- util -->
<g id="node19" class="node">
<title>util</title>
<polygon fill="white" stroke="black" stroke-width="2" points="808,-369 708,-369 708,-339 808,-339 808,-369"/>
<text text-anchor="middle" x="758" y="-350.3" font-family="Times,serif" font-size="14.00">util</text>
</g>
<!-- connect&#45;&gt;util -->
<g id="edge7" class="edge">
<title>connect&#45;&gt;util</title>
<path fill="none" stroke="black" d="M758,-419.88C758,-408.64 758,-392.66 758,-379.37"/>
<polygon fill="black" stroke="black" points="761.5,-379 758,-369 754.5,-379 761.5,-379"/>
<text text-anchor="middle" x="792.5" y="-390.8" font-family="Times,serif" font-size="14.00">«include»</text>
</g>
<!-- drawio -->
<g id="node8" class="node">
<title>drawio</title>
<polygon fill="white" stroke="black" stroke-width="2" points="579,-288 479,-288 479,-258 579,-258 579,-288"/>
<text text-anchor="middle" x="529" y="-269.3" font-family="Times,serif" font-size="14.00">drawio</text>
</g>
<!-- drawio&#45;&gt;2d&#45;engine -->
<g id="edge8" class="edge">
<title>drawio&#45;&gt;2d&#45;engine</title>
<path fill="none" stroke="black" d="M526.32,-257.88C524.16,-246.53 521.09,-230.34 518.55,-216.97"/>
<polygon fill="black" stroke="black" points="521.96,-216.17 516.66,-207 515.09,-217.48 521.96,-216.17"/>
<text text-anchor="middle" x="557.5" y="-228.8" font-family="Times,serif" font-size="14.00">«include»</text>
</g>
<!-- fillet -->
<g id="node9" class="node">
<title>fillet</title>
<polygon fill="white" stroke="black" stroke-width="2" points="218,-369 118,-369 118,-339 218,-339 218,-369"/>
<text text-anchor="middle" x="168" y="-350.3" font-family="Times,serif" font-size="14.00">fillet</text>
</g>
<!-- fillet&#45;&gt;3d&#45;engine -->
<g id="edge9" class="edge">
<title>fillet&#45;&gt;3d&#45;engine</title>
<path fill="none" stroke="black" d="M185.54,-338.98C199.71,-328.35 220.59,-314.22 241,-306 273.71,-292.82 312.35,-284.94 343.8,-280.29"/>
<polygon fill="black" stroke="black" points="344.33,-283.75 353.75,-278.89 343.36,-276.82 344.33,-283.75"/>
<text text-anchor="middle" x="275.5" y="-309.8" font-family="Times,serif" font-size="14.00">«include»</text>
</g>
<!-- grid -->
<g id="node10" class="node">
<title>grid</title>
<polygon fill="white" stroke="black" stroke-width="2" points="336,-369 236,-369 236,-339 336,-339 336,-369"/>
<text text-anchor="middle" x="286" y="-350.3" font-family="Times,serif" font-size="14.00">grid</text>
</g>
<!-- grid&#45;&gt;3d&#45;engine -->
<g id="edge10" class="edge">
<title>grid&#45;&gt;3d&#45;engine</title>
<path fill="none" stroke="black" d="M297,-338.81C305.45,-328.65 317.85,-315.19 331,-306 338.33,-300.87 346.62,-296.29 354.91,-292.31"/>
<polygon fill="black" stroke="black" points="356.57,-295.4 364.22,-288.08 353.67,-289.03 356.57,-295.4"/>
<text text-anchor="middle" x="365.5" y="-309.8" font-family="Times,serif" font-size="14.00">«include»</text>
</g>
<!-- hole -->
<g id="node11" class="node">
<title>hole</title>
<polygon fill="white" stroke="black" stroke-width="2" points="454,-450 354,-450 354,-420 454,-420 454,-450"/>
<text text-anchor="middle" x="404" y="-431.3" font-family="Times,serif" font-size="14.00">hole</text>
</g>
<!-- label -->
<g id="node12" class="node">
<title>label</title>
<polygon fill="white" stroke="black" stroke-width="2" points="454,-369 354,-369 354,-339 454,-339 454,-369"/>
<text text-anchor="middle" x="404" y="-350.3" font-family="Times,serif" font-size="14.00">label</text>
</g>
<!-- hole&#45;&gt;label -->
<g id="edge11" class="edge">
<title>hole&#45;&gt;label</title>
<path fill="none" stroke="black" d="M404,-419.88C404,-408.64 404,-392.66 404,-379.37"/>
<polygon fill="black" stroke="black" points="407.5,-379 404,-369 400.5,-379 407.5,-379"/>
<text text-anchor="middle" x="438.5" y="-390.8" font-family="Times,serif" font-size="14.00">«include»</text>
</g>
<!-- label&#45;&gt;3d&#45;engine -->
<g id="edge12" class="edge">
<title>label&#45;&gt;3d&#45;engine</title>
<path fill="none" stroke="black" d="M404,-338.88C404,-327.64 404,-311.66 404,-298.37"/>
<polygon fill="black" stroke="black" points="407.5,-298 404,-288 400.5,-298 407.5,-298"/>
<text text-anchor="middle" x="438.5" y="-309.8" font-family="Times,serif" font-size="14.00">«include»</text>
</g>
<!-- limits -->
<g id="node13" class="node">
<title>limits</title>
<polygon fill="white" stroke="black" stroke-width="2" points="207,-111 107,-111 107,-81 207,-81 207,-111"/>
<text text-anchor="middle" x="157" y="-92.3" font-family="Times,serif" font-size="14.00">limits</text>
</g>
<!-- limits&#45;&gt;core -->
<g id="edge13" class="edge">
<title>limits&#45;&gt;core</title>
<path fill="none" stroke="black" d="M153.63,-80.85C152.06,-70.44 152.01,-56.65 160,-48 181.25,-24.99 263.43,-18.27 321.59,-16.44"/>
<polygon fill="black" stroke="black" points="321.89,-19.93 331.79,-16.16 321.7,-12.94 321.89,-19.93"/>
<text text-anchor="middle" x="194.5" y="-51.8" font-family="Times,serif" font-size="14.00">«include»</text>
</g>
<!-- mngm&#45;engine&#45;&gt;core -->
<g id="edge14" class="edge">
<title>mngm&#45;engine&#45;&gt;core</title>
<path fill="none" stroke="black" d="M495.28,-80.96C484.89,-70.87 469.91,-57.44 455,-48 446.93,-42.89 437.91,-38.21 429.03,-34.1"/>
<polygon fill="black" stroke="black" points="430.43,-30.89 419.88,-30.02 427.59,-37.29 430.43,-30.89"/>
<text text-anchor="middle" x="509.5" y="-51.8" font-family="Times,serif" font-size="14.00">«include»</text>
</g>
<!-- profile -->
<g id="node15" class="node">
<title>profile</title>
<polygon fill="white" stroke="black" stroke-width="2" points="572,-369 472,-369 472,-339 572,-339 572,-369"/>
<text text-anchor="middle" x="522" y="-350.3" font-family="Times,serif" font-size="14.00">profile</text>
</g>
<!-- profile&#45;&gt;3d&#45;engine -->
<g id="edge15" class="edge">
<title>profile&#45;&gt;3d&#45;engine</title>
<path fill="none" stroke="black" d="M511,-338.81C502.55,-328.65 490.15,-315.19 477,-306 469.67,-300.87 461.38,-296.29 453.09,-292.31"/>
<polygon fill="black" stroke="black" points="454.33,-289.03 443.78,-288.08 451.43,-295.4 454.33,-289.03"/>
<text text-anchor="middle" x="529.5" y="-309.8" font-family="Times,serif" font-size="14.00">«include»</text>
</g>
<!-- template -->
<g id="node16" class="node">
<title>template</title>
<polygon fill="white" stroke="black" stroke-width="2" points="690,-369 590,-369 590,-339 690,-339 690,-369"/>
<text text-anchor="middle" x="640" y="-350.3" font-family="Times,serif" font-size="14.00">template</text>
</g>
<!-- template&#45;&gt;3d&#45;engine -->
<g id="edge16" class="edge">
<title>template&#45;&gt;3d&#45;engine</title>
<path fill="none" stroke="black" d="M622.75,-338.9C608.81,-328.23 588.24,-314.08 568,-306 526.87,-289.57 513.44,-296.6 470,-288 468.06,-287.62 466.09,-287.22 464.1,-286.82"/>
<polygon fill="black" stroke="black" points="464.56,-283.34 454.06,-284.77 463.16,-290.2 464.56,-283.34"/>
<text text-anchor="middle" x="630.5" y="-309.8" font-family="Times,serif" font-size="14.00">«include»</text>
</g>
<!-- type_trait&#45;&gt;core -->
<g id="edge17" class="edge">
<title>type_trait&#45;&gt;core</title>
<path fill="none" stroke="black" d="M240.06,-128.78C239.9,-115.21 241.67,-94.84 252,-81 269.2,-57.96 296.84,-42.55 322.23,-32.55"/>
<polygon fill="black" stroke="black" points="323.67,-35.75 331.82,-28.98 321.22,-29.19 323.67,-35.75"/>
<text text-anchor="middle" x="286.5" y="-92.3" font-family="Times,serif" font-size="14.00">«include»</text>
</g>
<!-- unsafe_defs&#45;&gt;core -->
<g id="edge18" class="edge">
<title>unsafe_defs&#45;&gt;core</title>
<path fill="none" stroke="black" d="M613.34,-80.87C596.24,-70.34 571.44,-56.37 548,-48 513.95,-35.85 474.24,-27.98 442.2,-23.09"/>
<polygon fill="black" stroke="black" points="442.48,-19.59 432.08,-21.6 441.47,-26.52 442.48,-19.59"/>
<text text-anchor="middle" x="615.5" y="-51.8" font-family="Times,serif" font-size="14.00">«include»</text>
</g>
<!-- util&#45;&gt;3d&#45;engine -->
<g id="edge19" class="edge">
<title>util&#45;&gt;3d&#45;engine</title>
<path fill="none" stroke="black" d="M737.08,-338.89C719.67,-327.91 693.8,-313.35 669,-306 583.85,-280.77 557.81,-301.24 470,-288 468.09,-287.71 466.15,-287.4 464.19,-287.08"/>
<polygon fill="black" stroke="black" points="464.79,-283.63 454.34,-285.32 463.57,-290.52 464.79,-283.63"/>
<text text-anchor="middle" x="738.5" y="-309.8" font-family="Times,serif" font-size="14.00">«include»</text>
</g>
</g>
</svg>
