<?xml version="1.0" encoding="UTF-8" standalone="no"?>
<!DOCTYPE svg PUBLIC "-//W3C//DTD SVG 1.1//EN"
 "http://www.w3.org/Graphics/SVG/1.1/DTD/svg11.dtd">
<!-- Generated by graphviz version 8.1.0 (20230707.0739)
 -->
<!-- Title: foundation Pages: 1 -->
<svg width="1392pt" height="467pt"
 viewBox="0.00 0.00 1392.00 467.00" xmlns="http://www.w3.org/2000/svg" xmlns:xlink="http://www.w3.org/1999/xlink">
<g id="graph0" class="graph" transform="scale(1 1) rotate(0) translate(4 463)">
<title>foundation</title>
<polygon fill="white" stroke="none" points="-4,4 -4,-463 1388,-463 1388,4 -4,4"/>
<!-- 2d&#45;engine -->
<g id="node1" class="node">
<title>2d&#45;engine</title>
<polygon fill="white" stroke="black" stroke-width="2" points="388,-209.25 288,-209.25 288,-179.25 388,-179.25 388,-209.25"/>
<text text-anchor="middle" x="338" y="-189.58" font-family="Times,serif" font-size="14.00">2d&#45;engine</text>
</g>
<!-- bbox&#45;engine -->
<g id="node4" class="node">
<title>bbox&#45;engine</title>
<polygon fill="white" stroke="black" stroke-width="2" points="526.13,-113.25 423.88,-113.25 423.88,-83.25 526.13,-83.25 526.13,-113.25"/>
<text text-anchor="middle" x="475" y="-93.58" font-family="Times,serif" font-size="14.00">bbox&#45;engine</text>
</g>
<!-- 2d&#45;engine&#45;&gt;bbox&#45;engine -->
<g id="edge22" class="edge">
<title>2d&#45;engine&#45;&gt;bbox&#45;engine</title>
<path fill="none" stroke="red" stroke-width="2" d="M362.62,-178.31C371.07,-173.05 380.53,-167.01 389,-161.25 407.59,-148.6 411.51,-144.41 429.75,-131.25 434.14,-128.08 438.78,-124.76 443.36,-121.51"/>
<polygon fill="red" stroke="red" stroke-width="2" points="445.62,-123.78 451.76,-115.14 441.58,-118.07 445.62,-123.78"/>
<text text-anchor="middle" x="450.63" y="-141.58" font-family="Times,serif" font-size="14.00">«use»</text>
</g>
<!-- mngm&#45;engine -->
<g id="node14" class="node">
<title>mngm&#45;engine</title>
<polygon fill="white" stroke="black" stroke-width="2" points="283.75,-113.25 170.25,-113.25 170.25,-83.25 283.75,-83.25 283.75,-113.25"/>
<text text-anchor="middle" x="227" y="-93.58" font-family="Times,serif" font-size="14.00">mngm&#45;engine</text>
</g>
<!-- 2d&#45;engine&#45;&gt;mngm&#45;engine -->
<g id="edge21" class="edge">
<title>2d&#45;engine&#45;&gt;mngm&#45;engine</title>
<path fill="none" stroke="red" stroke-width="2" d="M299.89,-178.35C290.48,-173.68 280.79,-167.96 272.75,-161.25 260.61,-151.12 249.93,-137.12 241.94,-124.99"/>
<polygon fill="red" stroke="red" stroke-width="2" points="244.42,-122.75 236.16,-116.12 238.48,-126.46 244.42,-122.75"/>
<text text-anchor="middle" x="293.63" y="-141.58" font-family="Times,serif" font-size="14.00">«use»</text>
</g>
<!-- unsafe_defs -->
<g id="node21" class="node">
<title>unsafe_defs</title>
<polygon fill="white" stroke="black" stroke-width="2" points="402,-113.25 302,-113.25 302,-83.25 402,-83.25 402,-113.25"/>
<text text-anchor="middle" x="352" y="-93.58" font-family="Times,serif" font-size="14.00">unsafe_defs</text>
</g>
<!-- 2d&#45;engine&#45;&gt;unsafe_defs -->
<g id="edge1" class="edge">
<title>2d&#45;engine&#45;&gt;unsafe_defs</title>
<path fill="none" stroke="black" d="M327.95,-178.26C325.03,-173.09 322.23,-167.12 320.75,-161.25 317.49,-148.32 315.72,-143.6 320.75,-131.25 322.03,-128.11 323.78,-125.12 325.8,-122.31"/>
<polygon fill="black" stroke="black" points="329.08,-124.86 332.95,-115 323.77,-120.3 329.08,-124.86"/>
<text text-anchor="middle" x="355.13" y="-141.58" font-family="Times,serif" font-size="14.00">«include»</text>
</g>
<!-- 3d&#45;engine -->
<g id="node2" class="node">
<title>3d&#45;engine</title>
<polygon fill="white" stroke="black" stroke-width="2" points="801,-292.5 701,-292.5 701,-262.5 801,-262.5 801,-292.5"/>
<text text-anchor="middle" x="751" y="-272.83" font-family="Times,serif" font-size="14.00">3d&#45;engine</text>
</g>
<!-- 3d&#45;engine&#45;&gt;2d&#45;engine -->
<g id="edge2" class="edge">
<title>3d&#45;engine&#45;&gt;2d&#45;engine</title>
<path fill="none" stroke="black" d="M700.14,-276.9C637.1,-276.13 526.95,-270.64 436.75,-244.5 413.82,-237.86 389.82,-226.01 371.22,-215.6"/>
<polygon fill="black" stroke="black" points="373.17,-212.11 362.75,-210.17 369.68,-218.18 373.17,-212.11"/>
<text text-anchor="middle" x="471.13" y="-231.2" font-family="Times,serif" font-size="14.00">«include»</text>
</g>
<!-- polymorphic&#45;engine -->
<g id="node15" class="node">
<title>polymorphic&#45;engine</title>
<polygon fill="white" stroke="black" stroke-width="2" points="569.5,-375.75 412.5,-375.75 412.5,-345.75 569.5,-345.75 569.5,-375.75"/>
<text text-anchor="middle" x="491" y="-356.08" font-family="Times,serif" font-size="14.00">polymorphic&#45;engine</text>
</g>
<!-- 3d&#45;engine&#45;&gt;polymorphic&#45;engine -->
<g id="edge23" class="edge">
<title>3d&#45;engine&#45;&gt;polymorphic&#45;engine</title>
<path fill="none" stroke="red" stroke-width="2" d="M700.21,-287.91C674.77,-293.29 643.73,-300.9 616.75,-310.5 600.13,-316.41 597.28,-320.95 581,-327.75 570.44,-332.16 559.03,-336.52 548,-340.53"/>
<polygon fill="red" stroke="red" stroke-width="2" points="546.01,-337.24 537.77,-343.9 548.36,-343.83 546.01,-337.24"/>
<text text-anchor="middle" x="636.63" y="-314.45" font-family="Times,serif" font-size="14.00">«use»</text>
</g>
<!-- type&#45;engine -->
<g id="node19" class="node">
<title>type&#45;engine</title>
<polygon fill="white" stroke="black" stroke-width="2" points="697,-209.25 597,-209.25 597,-179.25 697,-179.25 697,-209.25"/>
<text text-anchor="middle" x="647" y="-189.58" font-family="Times,serif" font-size="14.00">type&#45;engine</text>
</g>
<!-- 3d&#45;engine&#45;&gt;type&#45;engine -->
<g id="edge24" class="edge">
<title>3d&#45;engine&#45;&gt;type&#45;engine</title>
<path fill="none" stroke="red" stroke-width="2" d="M715.31,-261.65C705.87,-256.88 696.02,-251.11 687.75,-244.5 679.09,-237.58 670.99,-228.57 664.33,-220.15"/>
<polygon fill="red" stroke="red" stroke-width="2" points="666.52,-217.9 657.72,-212 660.92,-222.1 666.52,-217.9"/>
<text text-anchor="middle" x="707.63" y="-231.2" font-family="Times,serif" font-size="14.00">«use»</text>
</g>
<!-- type_trait -->
<g id="node20" class="node">
<title>type_trait</title>
<polygon fill="white" stroke="black" stroke-width="2" points="801,-161.25 701,-161.25 701,-131.25 801,-131.25 801,-161.25"/>
<text text-anchor="middle" x="751" y="-141.58" font-family="Times,serif" font-size="14.00">type_trait</text>
</g>
<!-- 3d&#45;engine&#45;&gt;type_trait -->
<g id="edge3" class="edge">
<title>3d&#45;engine&#45;&gt;type_trait</title>
<path fill="none" stroke="black" d="M751,-261.67C751,-239.96 751,-199.2 751,-172.65"/>
<polygon fill="black" stroke="black" points="754.5,-172.9 751,-162.9 747.5,-172.9 754.5,-172.9"/>
<text text-anchor="middle" x="785.13" y="-231.2" font-family="Times,serif" font-size="14.00">«include»</text>
</g>
<!-- algo&#45;engine -->
<g id="node3" class="node">
<title>algo&#45;engine</title>
<polygon fill="white" stroke="black" stroke-width="2" points="1146,-375.75 1046,-375.75 1046,-345.75 1146,-345.75 1146,-375.75"/>
<text text-anchor="middle" x="1096" y="-356.08" font-family="Times,serif" font-size="14.00">algo&#45;engine</text>
</g>
<!-- algo&#45;engine&#45;&gt;3d&#45;engine -->
<g id="edge4" class="edge">
<title>algo&#45;engine&#45;&gt;3d&#45;engine</title>
<path fill="none" stroke="black" d="M1064.33,-344.77C1039.68,-333.71 1004.34,-319.14 972,-310.5 919.06,-296.36 857.21,-288.08 812.42,-283.5"/>
<polygon fill="black" stroke="black" points="813,-279.94 802.71,-282.44 812.31,-286.91 813,-279.94"/>
<text text-anchor="middle" x="1054.13" y="-314.45" font-family="Times,serif" font-size="14.00">«include»</text>
</g>
<!-- core -->
<g id="node7" class="node">
<title>core</title>
<polygon fill="white" stroke="black" stroke-width="2" points="402,-30 302,-30 302,0 402,0 402,-30"/>
<text text-anchor="middle" x="352" y="-10.33" font-family="Times,serif" font-size="14.00">core</text>
</g>
<!-- bbox&#45;engine&#45;&gt;core -->
<g id="edge5" class="edge">
<title>bbox&#45;engine&#45;&gt;core</title>
<path fill="none" stroke="black" d="M462.29,-82.46C452.6,-71.85 438.49,-57.77 424,-48 417.22,-43.43 409.67,-39.25 402.1,-35.52"/>
<polygon fill="black" stroke="black" points="403.72,-31.95 393.18,-30.89 400.76,-38.29 403.72,-31.95"/>
<text text-anchor="middle" x="480.13" y="-51.95" font-family="Times,serif" font-size="14.00">«include»</text>
</g>
<!-- components -->
<g id="node5" class="node">
<title>components</title>
<polygon fill="white" stroke="black" stroke-width="2" points="526.13,-209.25 423.88,-209.25 423.88,-179.25 526.13,-179.25 526.13,-209.25"/>
<text text-anchor="middle" x="475" y="-189.58" font-family="Times,serif" font-size="14.00">components</text>
</g>
<!-- components&#45;&gt;bbox&#45;engine -->
<g id="edge6" class="edge">
<title>components&#45;&gt;bbox&#45;engine</title>
<path fill="none" stroke="black" d="M475,-178.56C475,-164.3 475,-142.34 475,-125.14"/>
<polygon fill="black" stroke="black" points="478.5,-125.14 475,-115.14 471.5,-125.14 478.5,-125.14"/>
<text text-anchor="middle" x="509.13" y="-141.58" font-family="Times,serif" font-size="14.00">«include»</text>
</g>
<!-- connect -->
<g id="node6" class="node">
<title>connect</title>
<polygon fill="white" stroke="black" stroke-width="2" points="1028,-459 928,-459 928,-429 1028,-429 1028,-459"/>
<text text-anchor="middle" x="978" y="-439.33" font-family="Times,serif" font-size="14.00">connect</text>
</g>
<!-- util -->
<g id="node22" class="node">
<title>util</title>
<polygon fill="white" stroke="black" stroke-width="2" points="1028,-375.75 928,-375.75 928,-345.75 1028,-345.75 1028,-375.75"/>
<text text-anchor="middle" x="978" y="-356.08" font-family="Times,serif" font-size="14.00">util</text>
</g>
<!-- connect&#45;&gt;util -->
<g id="edge7" class="edge">
<title>connect&#45;&gt;util</title>
<path fill="none" stroke="black" d="M978,-428.1C978,-416.76 978,-400.88 978,-387.5"/>
<polygon fill="black" stroke="black" points="981.5,-387.56 978,-377.56 974.5,-387.56 981.5,-387.56"/>
<text text-anchor="middle" x="1012.13" y="-397.7" font-family="Times,serif" font-size="14.00">«include»</text>
</g>
<!-- dimensions -->
<g id="node8" class="node">
<title>dimensions</title>
<polygon fill="white" stroke="black" stroke-width="2" points="1146,-459 1046,-459 1046,-429 1146,-429 1146,-459"/>
<text text-anchor="middle" x="1096" y="-439.33" font-family="Times,serif" font-size="14.00">dimensions</text>
</g>
<!-- fillet -->
<g id="node9" class="node">
<title>fillet</title>
<polygon fill="white" stroke="black" stroke-width="2" points="1264,-375.75 1164,-375.75 1164,-345.75 1264,-345.75 1264,-375.75"/>
<text text-anchor="middle" x="1214" y="-356.08" font-family="Times,serif" font-size="14.00">fillet</text>
</g>
<!-- fillet&#45;&gt;3d&#45;engine -->
<g id="edge8" class="edge">
<title>fillet&#45;&gt;3d&#45;engine</title>
<path fill="none" stroke="black" d="M1184.23,-344.88C1160.01,-333.5 1124.63,-318.44 1092,-310.5 996.16,-287.19 881.35,-280.65 812.4,-278.94"/>
<polygon fill="black" stroke="black" points="812.81,-275.42 802.73,-278.7 812.65,-282.42 812.81,-275.42"/>
<text text-anchor="middle" x="1177.13" y="-314.45" font-family="Times,serif" font-size="14.00">«include»</text>
</g>
<!-- grid -->
<g id="node10" class="node">
<title>grid</title>
<polygon fill="white" stroke="black" stroke-width="2" points="688,-375.75 588,-375.75 588,-345.75 688,-345.75 688,-375.75"/>
<text text-anchor="middle" x="638" y="-356.08" font-family="Times,serif" font-size="14.00">grid</text>
</g>
<!-- grid&#45;&gt;3d&#45;engine -->
<g id="edge9" class="edge">
<title>grid&#45;&gt;3d&#45;engine</title>
<path fill="none" stroke="black" d="M648.22,-344.87C656.13,-334.22 667.87,-320.12 680.75,-310.5 686.88,-305.92 693.76,-301.8 700.76,-298.15"/>
<polygon fill="black" stroke="black" points="701.88,-301.01 709.32,-293.47 698.8,-294.72 701.88,-301.01"/>
<text text-anchor="middle" x="714.13" y="-314.45" font-family="Times,serif" font-size="14.00">«include»</text>
</g>
<!-- hole -->
<g id="node11" class="node">
<title>hole</title>
<polygon fill="white" stroke="black" stroke-width="2" points="718,-459 618,-459 618,-429 718,-429 718,-459"/>
<text text-anchor="middle" x="668" y="-439.33" font-family="Times,serif" font-size="14.00">hole</text>
</g>
<!-- label -->
<g id="node12" class="node">
<title>label</title>
<polygon fill="white" stroke="black" stroke-width="2" points="806,-375.75 706,-375.75 706,-345.75 806,-345.75 806,-375.75"/>
<text text-anchor="middle" x="756" y="-356.08" font-family="Times,serif" font-size="14.00">label</text>
</g>
<!-- hole&#45;&gt;label -->
<g id="edge10" class="edge">
<title>hole&#45;&gt;label</title>
<path fill="none" stroke="black" d="M668.82,-428.05C670.13,-417.36 673.46,-403.24 681.75,-393.75 685.83,-389.08 690.72,-385.06 696.01,-381.62"/>
<polygon fill="black" stroke="black" points="697.28,-384.36 704.22,-376.35 693.81,-378.28 697.28,-384.36"/>
<text text-anchor="middle" x="715.13" y="-397.7" font-family="Times,serif" font-size="14.00">«include»</text>
</g>
<!-- label&#45;&gt;3d&#45;engine -->
<g id="edge11" class="edge">
<title>label&#45;&gt;3d&#45;engine</title>
<path fill="none" stroke="black" d="M755.08,-344.85C754.39,-333.51 753.41,-317.63 752.58,-304.25"/>
<polygon fill="black" stroke="black" points="756.02,-304.07 751.91,-294.31 749.03,-304.5 756.02,-304.07"/>
<text text-anchor="middle" x="787.13" y="-314.45" font-family="Times,serif" font-size="14.00">«include»</text>
</g>
<!-- limits -->
<g id="node13" class="node">
<title>limits</title>
<polygon fill="white" stroke="black" stroke-width="2" points="100,-113.25 0,-113.25 0,-83.25 100,-83.25 100,-113.25"/>
<text text-anchor="middle" x="50" y="-93.58" font-family="Times,serif" font-size="14.00">limits</text>
</g>
<!-- limits&#45;&gt;core -->
<g id="edge12" class="edge">
<title>limits&#45;&gt;core</title>
<path fill="none" stroke="black" d="M45.54,-82.44C43.25,-71.54 42.45,-57.09 50.75,-48 66.58,-30.67 206.77,-21.95 290.22,-18.26"/>
<polygon fill="black" stroke="black" points="290.26,-21.72 300.1,-17.79 289.96,-14.72 290.26,-21.72"/>
<text text-anchor="middle" x="85.13" y="-51.95" font-family="Times,serif" font-size="14.00">«include»</text>
</g>
<!-- mngm&#45;engine&#45;&gt;core -->
<g id="edge13" class="edge">
<title>mngm&#45;engine&#45;&gt;core</title>
<path fill="none" stroke="black" d="M240.24,-82.48C250.3,-71.89 264.91,-57.81 279.75,-48 286.59,-43.48 294.18,-39.32 301.79,-35.61"/>
<polygon fill="black" stroke="black" points="303.16,-38.37 310.75,-30.99 300.21,-32.02 303.16,-38.37"/>
<text text-anchor="middle" x="314.13" y="-51.95" font-family="Times,serif" font-size="14.00">«include»</text>
</g>
<!-- polymorphic&#45;engine&#45;&gt;3d&#45;engine -->
<g id="edge25" class="edge">
<title>polymorphic&#45;engine&#45;&gt;3d&#45;engine</title>
<path fill="none" stroke="red" stroke-width="2" d="M502.51,-345.02C512.92,-332.1 527.8,-314.74 535.75,-310.5 561.3,-296.86 633.49,-288.08 687.26,-283.23"/>
<polygon fill="red" stroke="red" stroke-width="2" points="687.49,-286.46 697.15,-282.11 686.89,-279.49 687.49,-286.46"/>
<text text-anchor="middle" x="555.63" y="-314.45" font-family="Times,serif" font-size="14.00">«use»</text>
</g>
<!-- polymorphic&#45;engine&#45;&gt;bbox&#45;engine -->
<g id="edge26" class="edge">
<title>polymorphic&#45;engine&#45;&gt;bbox&#45;engine</title>
<path fill="none" stroke="red" stroke-width="2" d="M497.22,-345.04C515.64,-300.46 567.23,-167.63 544,-131.25 541.73,-127.69 538.94,-124.52 535.81,-121.69"/>
<polygon fill="red" stroke="red" stroke-width="2" points="537.69,-118.28 527.54,-115.23 533.57,-123.94 537.69,-118.28"/>
<text text-anchor="middle" x="558.63" y="-231.2" font-family="Times,serif" font-size="14.00">«use»</text>
</g>
<!-- polymorphic&#45;engine&#45;&gt;core -->
<g id="edge14" class="edge">
<title>polymorphic&#45;engine&#45;&gt;core</title>
<path fill="none" stroke="black" d="M411.55,-357.52C306.08,-352.35 133,-335.22 133,-278.5 133,-278.5 133,-278.5 133,-97.25 133,-63.45 225.88,-39.21 290.67,-26.42"/>
<polygon fill="black" stroke="black" points="291.05,-29.72 300.21,-24.39 289.73,-22.84 291.05,-29.72"/>
<text text-anchor="middle" x="167.13" y="-189.58" font-family="Times,serif" font-size="14.00">«include»</text>
</g>
<!-- polymorphic&#45;engine&#45;&gt;mngm&#45;engine -->
<g id="edge27" class="edge">
<title>polymorphic&#45;engine&#45;&gt;mngm&#45;engine</title>
<path fill="none" stroke="red" stroke-width="2" d="M464.93,-344.89C422.89,-320.17 338.81,-267.52 279,-209.25 259.9,-190.64 254.55,-185.28 243,-161.25 237.8,-150.42 234.13,-137.69 231.64,-126.59"/>
<polygon fill="red" stroke="red" stroke-width="2" points="234.54,-125.22 229.15,-116.09 227.67,-126.58 234.54,-125.22"/>
<text text-anchor="middle" x="338.63" y="-231.2" font-family="Times,serif" font-size="14.00">«use»</text>
</g>
<!-- profile -->
<g id="node16" class="node">
<title>profile</title>
<polygon fill="white" stroke="black" stroke-width="2" points="864,-459 764,-459 764,-429 864,-429 864,-459"/>
<text text-anchor="middle" x="814" y="-439.33" font-family="Times,serif" font-size="14.00">profile</text>
</g>
<!-- profile&#45;&gt;3d&#45;engine -->
<g id="edge15" class="edge">
<title>profile&#45;&gt;3d&#45;engine</title>
<path fill="none" stroke="black" d="M822.03,-428.13C824.45,-422.87 826.78,-416.82 828,-411 833.89,-382.87 849.14,-345.84 825,-310.5 821.36,-305.17 816.63,-300.72 811.32,-297.01"/>
<polygon fill="black" stroke="black" points="813.31,-293.53 802.92,-291.43 809.73,-299.55 813.31,-293.53"/>
<text text-anchor="middle" x="872.13" y="-356.08" font-family="Times,serif" font-size="14.00">«include»</text>
</g>
<!-- profile&#45;&gt;label -->
<g id="edge16" class="edge">
<title>profile&#45;&gt;label</title>
<path fill="none" stroke="black" d="M777.49,-428.07C770.54,-423.59 764.09,-417.96 759.75,-411 755.44,-404.07 753.81,-395.49 753.47,-387.44"/>
<polygon fill="black" stroke="black" points="756.99,-387.72 753.7,-377.65 749.99,-387.57 756.99,-387.72"/>
<text text-anchor="middle" x="793.13" y="-397.7" font-family="Times,serif" font-size="14.00">«include»</text>
</g>
<!-- quaternions -->
<g id="node17" class="node">
<title>quaternions</title>
<polygon fill="white" stroke="black" stroke-width="2" points="1265.75,-459 1164.25,-459 1164.25,-429 1265.75,-429 1265.75,-459"/>
<text text-anchor="middle" x="1215" y="-439.33" font-family="Times,serif" font-size="14.00">quaternions</text>
</g>
<!-- template -->
<g id="node18" class="node">
<title>template</title>
<polygon fill="white" stroke="black" stroke-width="2" points="1384,-459 1284,-459 1284,-429 1384,-429 1384,-459"/>
<text text-anchor="middle" x="1334" y="-439.33" font-family="Times,serif" font-size="14.00">template</text>
</g>
<!-- type&#45;engine&#45;&gt;bbox&#45;engine -->
<g id="edge28" class="edge">
<title>type&#45;engine&#45;&gt;bbox&#45;engine</title>
<path fill="none" stroke="red" stroke-width="2" d="M616.29,-178.34C607.87,-173.51 599.06,-167.71 591.75,-161.25 579.21,-150.17 582.57,-141.04 569,-131.25 559.96,-124.73 549.49,-119.46 538.89,-115.23"/>
<polygon fill="red" stroke="red" stroke-width="2" points="539.53,-112 528.93,-111.87 537.13,-118.58 539.53,-112"/>
<text text-anchor="middle" x="611.63" y="-141.58" font-family="Times,serif" font-size="14.00">«use»</text>
</g>
<!-- type&#45;engine&#45;&gt;core -->
<g id="edge17" class="edge">
<title>type&#45;engine&#45;&gt;core</title>
<path fill="none" stroke="black" d="M646.56,-178.32C645.52,-164.99 642.36,-145.44 633,-131.25 598.26,-78.58 575.91,-73.07 518,-48 484.97,-33.7 445.49,-25.76 413.32,-21.36"/>
<polygon fill="black" stroke="black" points="414.07,-17.8 403.71,-20.01 413.19,-24.75 414.07,-17.8"/>
<text text-anchor="middle" x="653.13" y="-93.58" font-family="Times,serif" font-size="14.00">«include»</text>
</g>
<!-- type_trait&#45;&gt;core -->
<g id="edge18" class="edge">
<title>type_trait&#45;&gt;core</title>
<path fill="none" stroke="black" d="M745.97,-130.32C740.84,-116.81 731.81,-96.98 719,-83.25 698.43,-61.19 689.59,-57.62 661,-48 616.67,-33.08 490.53,-23.69 413.82,-19.18"/>
<polygon fill="black" stroke="black" points="414.06,-15.63 403.87,-18.55 413.65,-22.62 414.06,-15.63"/>
<text text-anchor="middle" x="772.13" y="-93.58" font-family="Times,serif" font-size="14.00">«include»</text>
</g>
<!-- unsafe_defs&#45;&gt;core -->
<g id="edge19" class="edge">
<title>unsafe_defs&#45;&gt;core</title>
<path fill="none" stroke="black" d="M352,-82.35C352,-71.01 352,-55.13 352,-41.75"/>
<polygon fill="black" stroke="black" points="355.5,-41.81 352,-31.81 348.5,-41.81 355.5,-41.81"/>
<text text-anchor="middle" x="386.13" y="-51.95" font-family="Times,serif" font-size="14.00">«include»</text>
</g>
<!-- util&#45;&gt;3d&#45;engine -->
<g id="edge20" class="edge">
<title>util&#45;&gt;3d&#45;engine</title>
<path fill="none" stroke="black" d="M943.34,-344.81C919.09,-334.59 885.83,-321.04 856,-310.5 841.9,-305.52 826.58,-300.58 812.12,-296.14"/>
<polygon fill="black" stroke="black" points="813.35,-292.55 802.76,-292.99 811.31,-299.25 813.35,-292.55"/>
<text text-anchor="middle" x="934.13" y="-314.45" font-family="Times,serif" font-size="14.00">«include»</text>
</g>
</g>
</svg>
