<?xml version="1.0" encoding="UTF-8" standalone="no"?>
<!DOCTYPE svg PUBLIC "-//W3C//DTD SVG 1.1//EN"
 "http://www.w3.org/Graphics/SVG/1.1/DTD/svg11.dtd">
<!-- Generated by graphviz version 5.0.0 (0)
 -->
<!-- Title: foundation Pages: 1 -->
<svg width="1506pt" height="443pt"
 viewBox="0.00 0.00 1505.55 443.00" xmlns="http://www.w3.org/2000/svg" xmlns:xlink="http://www.w3.org/1999/xlink">
<g id="graph0" class="graph" transform="scale(1 1) rotate(0) translate(4 439)">
<title>foundation</title>
<polygon fill="white" stroke="transparent" points="-4,4 -4,-439 1501.55,-439 1501.55,4 -4,4"/>
<!-- 2d&#45;engine -->
<g id="node1" class="node">
<title>2d&#45;engine</title>
<polygon fill="white" stroke="black" stroke-width="2" points="840.55,-192 740.55,-192 740.55,-162 840.55,-162 840.55,-192"/>
<text text-anchor="middle" x="790.55" y="-173.3" font-family="Times,serif" font-size="14.00">2d&#45;engine</text>
</g>
<!-- bbox&#45;engine -->
<g id="node4" class="node">
<title>bbox&#45;engine</title>
<polygon fill="white" stroke="black" stroke-width="2" points="295.55,-111 191.55,-111 191.55,-81 295.55,-81 295.55,-111"/>
<text text-anchor="middle" x="243.55" y="-92.3" font-family="Times,serif" font-size="14.00">bbox&#45;engine</text>
</g>
<!-- 2d&#45;engine&#45;&gt;bbox&#45;engine -->
<g id="edge19" class="edge">
<title>2d&#45;engine&#45;&gt;bbox&#45;engine</title>
<path fill="none" stroke="red" stroke-width="2" d="M740.32,-164.6C735.67,-163.67 731.03,-162.79 726.55,-162 556.97,-132.25 513.12,-134.39 342.55,-111 330.66,-109.37 317.97,-107.6 305.78,-105.88"/>
<polygon fill="red" stroke="red" stroke-width="2" points="306.08,-102.39 295.69,-104.46 305.1,-109.32 306.08,-102.39"/>
<text text-anchor="middle" x="628.55" y="-132.8" font-family="Times,serif" font-size="14.00">«use»</text>
</g>
<!-- mngm -->
<g id="node14" class="node">
<title>mngm</title>
<polygon fill="white" stroke="black" stroke-width="2" points="778.55,-111 678.55,-111 678.55,-81 778.55,-81 778.55,-111"/>
<text text-anchor="middle" x="728.55" y="-92.3" font-family="Times,serif" font-size="14.00">mngm</text>
</g>
<!-- 2d&#45;engine&#45;&gt;mngm -->
<g id="edge20" class="edge">
<title>2d&#45;engine&#45;&gt;mngm</title>
<path fill="none" stroke="red" stroke-width="2" d="M780.36,-161.85C773.49,-152.43 764.15,-139.84 755.55,-129 752.98,-125.76 750.22,-122.38 747.48,-119.08"/>
<polygon fill="red" stroke="red" stroke-width="2" points="749.95,-116.58 740.83,-111.18 744.59,-121.09 749.95,-116.58"/>
<text text-anchor="middle" x="786.55" y="-132.8" font-family="Times,serif" font-size="14.00">«use»</text>
</g>
<!-- unsafe_defs -->
<g id="node18" class="node">
<title>unsafe_defs</title>
<polygon fill="white" stroke="black" stroke-width="2" points="1173.05,-111 1072.05,-111 1072.05,-81 1173.05,-81 1173.05,-111"/>
<text text-anchor="middle" x="1122.55" y="-92.3" font-family="Times,serif" font-size="14.00">unsafe_defs</text>
</g>
<!-- 2d&#45;engine&#45;&gt;unsafe_defs -->
<g id="edge1" class="edge">
<title>2d&#45;engine&#45;&gt;unsafe_defs</title>
<path fill="none" stroke="black" d="M831.41,-161.97C862.02,-151.82 905.06,-138.32 943.55,-129 982.51,-119.57 1026.85,-111.62 1061.66,-106.01"/>
<polygon fill="black" stroke="black" points="1062.35,-109.44 1071.67,-104.41 1061.25,-102.53 1062.35,-109.44"/>
<text text-anchor="middle" x="978.05" y="-132.8" font-family="Times,serif" font-size="14.00">«include»</text>
</g>
<!-- 3d&#45;engine -->
<g id="node2" class="node">
<title>3d&#45;engine</title>
<polygon fill="white" stroke="black" stroke-width="2" points="732.55,-273 632.55,-273 632.55,-243 732.55,-243 732.55,-273"/>
<text text-anchor="middle" x="682.55" y="-254.3" font-family="Times,serif" font-size="14.00">3d&#45;engine</text>
</g>
<!-- 3d&#45;engine&#45;&gt;2d&#45;engine -->
<g id="edge23" class="edge">
<title>3d&#45;engine&#45;&gt;2d&#45;engine</title>
<path fill="none" stroke="red" stroke-width="2" d="M693.39,-242.99C701.68,-232.91 713.83,-219.49 726.55,-210 732.99,-205.19 740.26,-200.77 747.53,-196.85"/>
<polygon fill="red" stroke="red" stroke-width="2" points="749.38,-199.84 756.68,-192.16 746.19,-193.61 749.38,-199.84"/>
<text text-anchor="middle" x="747.55" y="-213.8" font-family="Times,serif" font-size="14.00">«use»</text>
</g>
<!-- 3d&#45;engine&#45;&gt;bbox&#45;engine -->
<g id="edge21" class="edge">
<title>3d&#45;engine&#45;&gt;bbox&#45;engine</title>
<path fill="none" stroke="red" stroke-width="2" d="M672.32,-242.93C655.23,-220.75 618.45,-178.47 575.55,-162 462.86,-118.74 417.46,-186.68 304.55,-144 289.66,-138.37 275.42,-127.81 264.45,-118.12"/>
<polygon fill="red" stroke="red" stroke-width="2" points="266.8,-115.52 257.08,-111.3 262.04,-120.66 266.8,-115.52"/>
<text text-anchor="middle" x="643.55" y="-173.3" font-family="Times,serif" font-size="14.00">«use»</text>
</g>
<!-- 3d&#45;engine&#45;&gt;mngm -->
<g id="edge24" class="edge">
<title>3d&#45;engine&#45;&gt;mngm</title>
<path fill="none" stroke="red" stroke-width="2" d="M680.45,-242.99C677.46,-218.39 674.26,-166.48 693.55,-129 695.5,-125.21 698.09,-121.65 700.99,-118.37"/>
<polygon fill="red" stroke="red" stroke-width="2" points="703.5,-120.81 708.13,-111.28 698.57,-115.84 703.5,-120.81"/>
<text text-anchor="middle" x="702.55" y="-173.3" font-family="Times,serif" font-size="14.00">«use»</text>
</g>
<!-- type_trait -->
<g id="node17" class="node">
<title>type_trait</title>
<polygon fill="white" stroke="black" stroke-width="2" points="566.55,-192 466.55,-192 466.55,-162 566.55,-162 566.55,-192"/>
<text text-anchor="middle" x="516.55" y="-173.3" font-family="Times,serif" font-size="14.00">type_trait</text>
</g>
<!-- 3d&#45;engine&#45;&gt;type_trait -->
<g id="edge22" class="edge">
<title>3d&#45;engine&#45;&gt;type_trait</title>
<path fill="none" stroke="red" stroke-width="2" d="M638.45,-242.85C624.2,-237.78 608.49,-231.66 594.55,-225 577.89,-217.04 560.2,-206.57 545.89,-197.53"/>
<polygon fill="red" stroke="red" stroke-width="2" points="547.76,-194.57 537.45,-192.12 543.98,-200.46 547.76,-194.57"/>
<text text-anchor="middle" x="615.55" y="-213.8" font-family="Times,serif" font-size="14.00">«use»</text>
</g>
<!-- 3d&#45;engine&#45;&gt;unsafe_defs -->
<g id="edge2" class="edge">
<title>3d&#45;engine&#45;&gt;unsafe_defs</title>
<path fill="none" stroke="black" d="M726.96,-242.95C790.68,-222.52 911.51,-182.83 1012.55,-144 1035.64,-135.13 1061.07,-124.33 1081.65,-115.33"/>
<polygon fill="black" stroke="black" points="1083.29,-118.43 1091.03,-111.2 1080.47,-112.02 1083.29,-118.43"/>
<text text-anchor="middle" x="997.05" y="-173.3" font-family="Times,serif" font-size="14.00">«include»</text>
</g>
<!-- algo&#45;engine -->
<g id="node3" class="node">
<title>algo&#45;engine</title>
<polygon fill="white" stroke="black" stroke-width="2" points="1119.55,-354 1019.55,-354 1019.55,-324 1119.55,-324 1119.55,-354"/>
<text text-anchor="middle" x="1069.55" y="-335.3" font-family="Times,serif" font-size="14.00">algo&#45;engine</text>
</g>
<!-- algo&#45;engine&#45;&gt;3d&#45;engine -->
<g id="edge25" class="edge">
<title>algo&#45;engine&#45;&gt;3d&#45;engine</title>
<path fill="none" stroke="red" stroke-width="2" d="M1019.36,-325.99C1016.38,-325.31 1013.43,-324.64 1010.55,-324 992.94,-320.08 869.25,-294.51 851.55,-291 815.6,-283.87 775.29,-276.22 743.05,-270.19"/>
<polygon fill="red" stroke="red" stroke-width="2" points="743.35,-266.69 732.88,-268.29 742.07,-273.57 743.35,-266.69"/>
<text text-anchor="middle" x="943.55" y="-294.8" font-family="Times,serif" font-size="14.00">«use»</text>
</g>
<!-- algo&#45;engine&#45;&gt;unsafe_defs -->
<g id="edge3" class="edge">
<title>algo&#45;engine&#45;&gt;unsafe_defs</title>
<path fill="none" stroke="black" d="M1119.71,-326.06C1142.06,-320.07 1165.39,-312.69 1174.55,-306 1209.89,-280.19 1217.51,-266.78 1230.55,-225 1244.88,-179.07 1195.56,-139.04 1158.89,-116.47"/>
<polygon fill="black" stroke="black" points="1160.27,-113.22 1149.88,-111.11 1156.69,-119.23 1160.27,-113.22"/>
<text text-anchor="middle" x="1267.05" y="-213.8" font-family="Times,serif" font-size="14.00">«include»</text>
</g>
<!-- core -->
<g id="node7" class="node">
<title>core</title>
<polygon fill="white" stroke="black" stroke-width="2" points="412.55,-30 312.55,-30 312.55,0 412.55,0 412.55,-30"/>
<text text-anchor="middle" x="362.55" y="-11.3" font-family="Times,serif" font-size="14.00">core</text>
</g>
<!-- bbox&#45;engine&#45;&gt;core -->
<g id="edge4" class="edge">
<title>bbox&#45;engine&#45;&gt;core</title>
<path fill="none" stroke="black" d="M238.08,-80.81C235.16,-70.65 233.46,-57.19 240.55,-48 248.53,-37.66 275.55,-30.01 302.14,-24.79"/>
<polygon fill="black" stroke="black" points="303.08,-28.17 312.27,-22.9 301.8,-21.29 303.08,-28.17"/>
<text text-anchor="middle" x="275.05" y="-51.8" font-family="Times,serif" font-size="14.00">«include»</text>
</g>
<!-- components -->
<g id="node5" class="node">
<title>components</title>
<polygon fill="white" stroke="black" stroke-width="2" points="199.55,-192 97.55,-192 97.55,-162 199.55,-162 199.55,-192"/>
<text text-anchor="middle" x="148.55" y="-173.3" font-family="Times,serif" font-size="14.00">components</text>
</g>
<!-- components&#45;&gt;bbox&#45;engine -->
<g id="edge26" class="edge">
<title>components&#45;&gt;bbox&#45;engine</title>
<path fill="none" stroke="red" stroke-width="2" d="M152.64,-161.67C156.2,-151.43 162.26,-137.95 171.55,-129 176.83,-123.91 183.06,-119.55 189.61,-115.83"/>
<polygon fill="red" stroke="red" stroke-width="2" points="191.39,-118.85 198.67,-111.16 188.18,-112.63 191.39,-118.85"/>
<text text-anchor="middle" x="192.55" y="-132.8" font-family="Times,serif" font-size="14.00">«use»</text>
</g>
<!-- components&#45;&gt;core -->
<g id="edge5" class="edge">
<title>components&#45;&gt;core</title>
<path fill="none" stroke="black" d="M135.52,-161.86C118.95,-142.12 94.64,-105.92 113.55,-81 136.22,-51.12 236.24,-32.48 302.41,-23.18"/>
<polygon fill="black" stroke="black" points="302.89,-26.65 312.32,-21.82 301.94,-19.71 302.89,-26.65"/>
<text text-anchor="middle" x="148.05" y="-92.3" font-family="Times,serif" font-size="14.00">«include»</text>
</g>
<!-- connect -->
<g id="node6" class="node">
<title>connect</title>
<polygon fill="white" stroke="black" stroke-width="2" points="446.55,-435 346.55,-435 346.55,-405 446.55,-405 446.55,-435"/>
<text text-anchor="middle" x="396.55" y="-416.3" font-family="Times,serif" font-size="14.00">connect</text>
</g>
<!-- connect&#45;&gt;3d&#45;engine -->
<g id="edge27" class="edge">
<title>connect&#45;&gt;3d&#45;engine</title>
<path fill="none" stroke="red" stroke-width="2" d="M418.96,-404.93C438.92,-392.17 468.72,-372.59 493.55,-354 510.22,-341.52 512.12,-335.4 529.55,-324 557,-306.05 565.45,-304.01 595.55,-291 607.21,-285.96 619.94,-280.99 631.98,-276.52"/>
<polygon fill="red" stroke="red" stroke-width="2" points="633.27,-279.78 641.46,-273.05 630.87,-273.2 633.27,-279.78"/>
<text text-anchor="middle" x="550.55" y="-335.3" font-family="Times,serif" font-size="14.00">«use»</text>
</g>
<!-- util -->
<g id="node19" class="node">
<title>util</title>
<polygon fill="white" stroke="black" stroke-width="2" points="322.55,-354 222.55,-354 222.55,-324 322.55,-324 322.55,-354"/>
<text text-anchor="middle" x="272.55" y="-335.3" font-family="Times,serif" font-size="14.00">util</text>
</g>
<!-- connect&#45;&gt;util -->
<g id="edge6" class="edge">
<title>connect&#45;&gt;util</title>
<path fill="none" stroke="black" d="M346.28,-412.14C316.48,-406.95 282.78,-398.69 273.55,-387 268.55,-380.68 267.26,-372.24 267.56,-364.26"/>
<polygon fill="black" stroke="black" points="271.05,-364.58 268.69,-354.25 264.09,-363.79 271.05,-364.58"/>
<text text-anchor="middle" x="308.05" y="-375.8" font-family="Times,serif" font-size="14.00">«include»</text>
</g>
<!-- drawio -->
<g id="node8" class="node">
<title>drawio</title>
<polygon fill="white" stroke="black" stroke-width="2" points="369.55,-273 269.55,-273 269.55,-243 369.55,-243 369.55,-273"/>
<text text-anchor="middle" x="319.55" y="-254.3" font-family="Times,serif" font-size="14.00">drawio</text>
</g>
<!-- drawio&#45;&gt;2d&#45;engine -->
<g id="edge28" class="edge">
<title>drawio&#45;&gt;2d&#45;engine</title>
<path fill="none" stroke="red" stroke-width="2" d="M369.55,-246.25C395.6,-240.41 427.92,-232.81 456.55,-225 478.11,-219.12 482.61,-214.26 504.55,-210 601.72,-191.12 628.64,-206.61 726.55,-192 727.82,-191.81 729.09,-191.61 730.38,-191.4"/>
<polygon fill="red" stroke="red" stroke-width="2" points="731.12,-194.83 740.36,-189.65 729.9,-187.93 731.12,-194.83"/>
<text text-anchor="middle" x="525.55" y="-213.8" font-family="Times,serif" font-size="14.00">«use»</text>
</g>
<!-- drawio&#45;&gt;core -->
<g id="edge7" class="edge">
<title>drawio&#45;&gt;core</title>
<path fill="none" stroke="black" d="M320.6,-242.72C322.98,-212.57 329.64,-140.32 342.55,-81 345.56,-67.17 350.14,-52.04 354.15,-39.86"/>
<polygon fill="black" stroke="black" points="357.59,-40.61 357.48,-30.02 350.96,-38.37 357.59,-40.61"/>
<text text-anchor="middle" x="367.05" y="-132.8" font-family="Times,serif" font-size="14.00">«include»</text>
</g>
<!-- drawio&#45;&gt;mngm -->
<g id="edge29" class="edge">
<title>drawio&#45;&gt;mngm</title>
<path fill="none" stroke="red" stroke-width="2" d="M327.24,-242.63C340.34,-218.7 367.05,-172.28 382.55,-162 428.56,-131.49 581.94,-111.67 668.24,-102.65"/>
<polygon fill="red" stroke="red" stroke-width="2" points="668.83,-106.11 678.42,-101.6 668.11,-99.14 668.83,-106.11"/>
<text text-anchor="middle" x="403.55" y="-173.3" font-family="Times,serif" font-size="14.00">«use»</text>
</g>
<!-- fillet -->
<g id="node9" class="node">
<title>fillet</title>
<polygon fill="white" stroke="black" stroke-width="2" points="1237.55,-354 1137.55,-354 1137.55,-324 1237.55,-324 1237.55,-354"/>
<text text-anchor="middle" x="1187.55" y="-335.3" font-family="Times,serif" font-size="14.00">fillet</text>
</g>
<!-- fillet&#45;&gt;2d&#45;engine -->
<g id="edge30" class="edge">
<title>fillet&#45;&gt;2d&#45;engine</title>
<path fill="none" stroke="red" stroke-width="2" d="M1137.36,-324.5C1120.34,-319.37 1101.39,-313.05 1084.55,-306 1071.53,-300.55 1069.54,-296.52 1056.55,-291 968.45,-253.58 936.27,-269.54 851.55,-225 838.16,-217.96 824.69,-207.96 813.82,-198.99"/>
<polygon fill="red" stroke="red" stroke-width="2" points="815.96,-196.21 806.07,-192.4 811.42,-201.55 815.96,-196.21"/>
<text text-anchor="middle" x="1025.55" y="-254.3" font-family="Times,serif" font-size="14.00">«use»</text>
</g>
<!-- fillet&#45;&gt;3d&#45;engine -->
<g id="edge31" class="edge">
<title>fillet&#45;&gt;3d&#45;engine</title>
<path fill="none" stroke="red" stroke-width="2" d="M1137.39,-325.82C1134.41,-325.18 1131.44,-324.57 1128.55,-324 1078.23,-314.07 1064.5,-317.68 1014.55,-306 992.79,-300.91 988.48,-295.33 966.55,-291 876.39,-273.19 851.65,-285.13 760.55,-273 754.78,-272.23 748.79,-271.34 742.81,-270.38"/>
<polygon fill="red" stroke="red" stroke-width="2" points="743.23,-266.9 732.8,-268.71 742.08,-273.8 743.23,-266.9"/>
<text text-anchor="middle" x="1035.55" y="-294.8" font-family="Times,serif" font-size="14.00">«use»</text>
</g>
<!-- fillet&#45;&gt;mngm -->
<g id="edge32" class="edge">
<title>fillet&#45;&gt;mngm</title>
<path fill="none" stroke="red" stroke-width="2" d="M1176.56,-323.57C1153.25,-293.34 1098.93,-224.95 1073.55,-210 1042.15,-191.51 1017.64,-219.35 993.55,-192 974.96,-170.9 1007.16,-149.16 987.55,-129 960.89,-101.58 856.74,-96.41 788.91,-96.07"/>
<polygon fill="red" stroke="red" stroke-width="2" points="788.77,-92.57 778.77,-96.05 788.76,-99.57 788.77,-92.57"/>
<text text-anchor="middle" x="1112.55" y="-213.8" font-family="Times,serif" font-size="14.00">«use»</text>
</g>
<!-- fillet&#45;&gt;unsafe_defs -->
<g id="edge8" class="edge">
<title>fillet&#45;&gt;unsafe_defs</title>
<path fill="none" stroke="black" d="M1218.57,-323.94C1261.08,-302.51 1329.62,-258.96 1305.55,-210 1281.46,-160.99 1225.15,-131.09 1181.31,-114.47"/>
<polygon fill="black" stroke="black" points="1182.48,-111.17 1171.88,-111.02 1180.07,-117.74 1182.48,-111.17"/>
<text text-anchor="middle" x="1344.05" y="-213.8" font-family="Times,serif" font-size="14.00">«include»</text>
</g>
<!-- grid -->
<g id="node10" class="node">
<title>grid</title>
<polygon fill="white" stroke="black" stroke-width="2" points="484.55,-354 384.55,-354 384.55,-324 484.55,-324 484.55,-354"/>
<text text-anchor="middle" x="434.55" y="-335.3" font-family="Times,serif" font-size="14.00">grid</text>
</g>
<!-- grid&#45;&gt;2d&#45;engine -->
<g id="edge33" class="edge">
<title>grid&#45;&gt;2d&#45;engine</title>
<path fill="none" stroke="red" stroke-width="2" d="M427.65,-323.75C423.92,-313.82 421.23,-300.67 427.55,-291 438.43,-274.34 450.85,-282.1 468.55,-273 480.73,-266.73 561.57,-214.4 574.55,-210 639.4,-188.03 660.04,-203.44 727.55,-192 728.47,-191.84 729.39,-191.68 730.32,-191.52"/>
<polygon fill="red" stroke="red" stroke-width="2" points="731.25,-194.91 740.43,-189.62 729.96,-188.03 731.25,-194.91"/>
<text text-anchor="middle" x="537.55" y="-254.3" font-family="Times,serif" font-size="14.00">«use»</text>
</g>
<!-- grid&#45;&gt;3d&#45;engine -->
<g id="edge34" class="edge">
<title>grid&#45;&gt;3d&#45;engine</title>
<path fill="none" stroke="red" stroke-width="2" d="M459.35,-323.93C468.86,-318.44 479.77,-312.03 489.55,-306 499.94,-299.6 501.23,-295.55 512.55,-291 532.2,-283.11 581.81,-274.2 622.39,-267.79"/>
<polygon fill="red" stroke="red" stroke-width="2" points="623.15,-271.21 632.49,-266.21 622.07,-264.29 623.15,-271.21"/>
<text text-anchor="middle" x="533.55" y="-294.8" font-family="Times,serif" font-size="14.00">«use»</text>
</g>
<!-- grid&#45;&gt;core -->
<g id="edge9" class="edge">
<title>grid&#45;&gt;core</title>
<path fill="none" stroke="black" d="M384.36,-327.85C283.66,-306.35 62.87,-253.16 19.55,-192 -31.61,-119.78 22.4,-103.83 135.55,-48 164.04,-33.94 245.29,-24.97 302.41,-20.21"/>
<polygon fill="black" stroke="black" points="302.74,-23.7 312.42,-19.4 302.17,-16.72 302.74,-23.7"/>
<text text-anchor="middle" x="54.05" y="-173.3" font-family="Times,serif" font-size="14.00">«include»</text>
</g>
<!-- hole -->
<g id="node11" class="node">
<title>hole</title>
<polygon fill="white" stroke="black" stroke-width="2" points="833.55,-435 733.55,-435 733.55,-405 833.55,-405 833.55,-435"/>
<text text-anchor="middle" x="783.55" y="-416.3" font-family="Times,serif" font-size="14.00">hole</text>
</g>
<!-- hole&#45;&gt;3d&#45;engine -->
<g id="edge35" class="edge">
<title>hole&#45;&gt;3d&#45;engine</title>
<path fill="none" stroke="red" stroke-width="2" d="M770.45,-404.7C752.28,-384.21 719.44,-344.7 699.55,-306 695.84,-298.78 692.57,-290.57 689.92,-283.05"/>
<polygon fill="red" stroke="red" stroke-width="2" points="693.18,-281.76 686.7,-273.38 686.54,-283.97 693.18,-281.76"/>
<text text-anchor="middle" x="749.55" y="-335.3" font-family="Times,serif" font-size="14.00">«use»</text>
</g>
<!-- label -->
<g id="node12" class="node">
<title>label</title>
<polygon fill="white" stroke="black" stroke-width="2" points="1001.55,-354 901.55,-354 901.55,-324 1001.55,-324 1001.55,-354"/>
<text text-anchor="middle" x="951.55" y="-335.3" font-family="Times,serif" font-size="14.00">label</text>
</g>
<!-- hole&#45;&gt;label -->
<g id="edge36" class="edge">
<title>hole&#45;&gt;label</title>
<path fill="none" stroke="red" stroke-width="2" d="M813.58,-404.88C841.18,-391.9 882.24,-372.59 912.4,-358.41"/>
<polygon fill="red" stroke="red" stroke-width="2" points="914.21,-361.42 921.77,-354 911.24,-355.09 914.21,-361.42"/>
<text text-anchor="middle" x="903.55" y="-375.8" font-family="Times,serif" font-size="14.00">«use»</text>
</g>
<!-- hole&#45;&gt;type_trait -->
<g id="edge37" class="edge">
<title>hole&#45;&gt;type_trait</title>
<path fill="none" stroke="red" stroke-width="2" d="M733.21,-418.76C634.46,-417.09 421,-407.27 375.55,-354 357.37,-332.69 362.36,-314.54 377.55,-291 377.65,-290.85 468.39,-243.07 468.55,-243 491.4,-233.17 507.06,-245.22 521.55,-225 526.27,-218.41 526.6,-209.92 525.23,-201.96"/>
<polygon fill="red" stroke="red" stroke-width="2" points="528.56,-200.84 522.68,-192.02 521.78,-202.58 528.56,-200.84"/>
<text text-anchor="middle" x="398.55" y="-294.8" font-family="Times,serif" font-size="14.00">«use»</text>
</g>
<!-- hole&#45;&gt;unsafe_defs -->
<g id="edge10" class="edge">
<title>hole&#45;&gt;unsafe_defs</title>
<path fill="none" stroke="black" d="M833.62,-418.11C985.17,-414.77 1428.55,-399.86 1428.55,-340 1428.55,-340 1428.55,-340 1428.55,-176 1428.55,-125.81 1272.27,-107.01 1183.08,-100.37"/>
<polygon fill="black" stroke="black" points="1183.3,-96.87 1173.08,-99.65 1182.8,-103.86 1183.3,-96.87"/>
<text text-anchor="middle" x="1463.05" y="-254.3" font-family="Times,serif" font-size="14.00">«include»</text>
</g>
<!-- label&#45;&gt;3d&#45;engine -->
<g id="edge38" class="edge">
<title>label&#45;&gt;3d&#45;engine</title>
<path fill="none" stroke="red" stroke-width="2" d="M901.35,-326.02C898.38,-325.33 895.42,-324.65 892.55,-324 855.74,-315.64 845.78,-316.58 809.55,-306 781.26,-297.74 750.22,-286.3 725.91,-276.78"/>
<polygon fill="red" stroke="red" stroke-width="2" points="727.19,-273.52 716.61,-273.09 724.62,-280.03 727.19,-273.52"/>
<text text-anchor="middle" x="830.55" y="-294.8" font-family="Times,serif" font-size="14.00">«use»</text>
</g>
<!-- label&#45;&gt;mngm -->
<g id="edge39" class="edge">
<title>label&#45;&gt;mngm</title>
<path fill="none" stroke="red" stroke-width="2" d="M1001.74,-327.22C1022.78,-319.98 1040.52,-308.48 1031.55,-291 1008.57,-246.23 978.48,-256.89 939.55,-225 891.14,-185.35 890.88,-160.05 836.55,-129 821.86,-120.6 804.76,-114.23 788.55,-109.46"/>
<polygon fill="red" stroke="red" stroke-width="2" points="789.18,-106.01 778.61,-106.7 787.31,-112.75 789.18,-106.01"/>
<text text-anchor="middle" x="960.55" y="-213.8" font-family="Times,serif" font-size="14.00">«use»</text>
</g>
<!-- label&#45;&gt;unsafe_defs -->
<g id="edge11" class="edge">
<title>label&#45;&gt;unsafe_defs</title>
<path fill="none" stroke="black" d="M1001.81,-325.71C1024.94,-319.53 1049.46,-312.09 1059.55,-306 1102.6,-280.02 1119.6,-271.58 1138.55,-225 1143.89,-211.89 1162.54,-246.04 1136.55,-129 1135.94,-126.26 1135.1,-123.47 1134.12,-120.74"/>
<polygon fill="black" stroke="black" points="1137.25,-119.15 1130.2,-111.25 1130.79,-121.83 1137.25,-119.15"/>
<text text-anchor="middle" x="1184.05" y="-213.8" font-family="Times,serif" font-size="14.00">«include»</text>
</g>
<!-- limits -->
<g id="node13" class="node">
<title>limits</title>
<polygon fill="white" stroke="black" stroke-width="2" points="451.55,-111 351.55,-111 351.55,-81 451.55,-81 451.55,-111"/>
<text text-anchor="middle" x="401.55" y="-92.3" font-family="Times,serif" font-size="14.00">limits</text>
</g>
<!-- limits&#45;&gt;core -->
<g id="edge12" class="edge">
<title>limits&#45;&gt;core</title>
<path fill="none" stroke="black" d="M394.58,-80.88C388.86,-69.31 380.67,-52.7 373.99,-39.18"/>
<polygon fill="black" stroke="black" points="377.03,-37.42 369.46,-30 370.75,-40.52 377.03,-37.42"/>
<text text-anchor="middle" x="419.05" y="-51.8" font-family="Times,serif" font-size="14.00">«include»</text>
</g>
<!-- mngm&#45;&gt;core -->
<g id="edge13" class="edge">
<title>mngm&#45;&gt;core</title>
<path fill="none" stroke="black" d="M678.23,-83.73C635.09,-74.11 571.27,-59.97 515.55,-48 485.07,-41.45 451.13,-34.33 422.98,-28.48"/>
<polygon fill="black" stroke="black" points="423.39,-24.99 412.88,-26.38 421.96,-31.84 423.39,-24.99"/>
<text text-anchor="middle" x="614.05" y="-51.8" font-family="Times,serif" font-size="14.00">«include»</text>
</g>
<!-- profile -->
<g id="node15" class="node">
<title>profile</title>
<polygon fill="white" stroke="black" stroke-width="2" points="883.55,-354 783.55,-354 783.55,-324 883.55,-324 883.55,-354"/>
<text text-anchor="middle" x="833.55" y="-335.3" font-family="Times,serif" font-size="14.00">profile</text>
</g>
<!-- profile&#45;&gt;2d&#45;engine -->
<g id="edge40" class="edge">
<title>profile&#45;&gt;2d&#45;engine</title>
<path fill="none" stroke="red" stroke-width="2" d="M834.49,-323.71C834.46,-313.76 832.97,-300.6 826.55,-291 817.91,-278.07 804.63,-286.28 796.55,-273 783.59,-251.7 783.82,-222.51 786.2,-202.12"/>
<polygon fill="red" stroke="red" stroke-width="2" points="789.68,-202.48 787.62,-192.09 782.75,-201.49 789.68,-202.48"/>
<text text-anchor="middle" x="817.55" y="-254.3" font-family="Times,serif" font-size="14.00">«use»</text>
</g>
<!-- profile&#45;&gt;3d&#45;engine -->
<g id="edge41" class="edge">
<title>profile&#45;&gt;3d&#45;engine</title>
<path fill="none" stroke="red" stroke-width="2" d="M783.55,-327.19C758.1,-321.06 730.32,-313.19 719.55,-306 710.22,-299.77 702.18,-290.43 696,-281.72"/>
<polygon fill="red" stroke="red" stroke-width="2" points="698.9,-279.75 690.46,-273.35 693.06,-283.62 698.9,-279.75"/>
<text text-anchor="middle" x="740.55" y="-294.8" font-family="Times,serif" font-size="14.00">«use»</text>
</g>
<!-- profile&#45;&gt;mngm -->
<g id="edge42" class="edge">
<title>profile&#45;&gt;mngm</title>
<path fill="none" stroke="red" stroke-width="2" d="M883.58,-323.93C898.56,-318.64 912.18,-312.37 916.55,-306 932.39,-282.91 931.96,-266.38 916.55,-243 905.37,-226.05 888.71,-239.55 874.55,-225 853.54,-203.41 866.97,-186.57 849.55,-162 836.61,-143.75 830.72,-140.53 811.55,-129 802.62,-123.63 792.64,-118.87 782.78,-114.77"/>
<polygon fill="red" stroke="red" stroke-width="2" points="783.98,-111.48 773.39,-111.04 781.39,-117.99 783.98,-111.48"/>
<text text-anchor="middle" x="895.55" y="-213.8" font-family="Times,serif" font-size="14.00">«use»</text>
</g>
<!-- profile&#45;&gt;unsafe_defs -->
<g id="edge14" class="edge">
<title>profile&#45;&gt;unsafe_defs</title>
<path fill="none" stroke="black" d="M883.63,-325.27C904.53,-319.32 925.93,-312.2 934.55,-306 977.41,-275.16 965.32,-245.35 1004.55,-210 1016.39,-199.33 1023.14,-201.99 1035.55,-192 1062.68,-170.16 1089,-139.73 1105.46,-119.25"/>
<polygon fill="black" stroke="black" points="1108.42,-121.15 1111.88,-111.13 1102.93,-116.8 1108.42,-121.15"/>
<text text-anchor="middle" x="1039.05" y="-213.8" font-family="Times,serif" font-size="14.00">«include»</text>
</g>
<!-- template -->
<g id="node16" class="node">
<title>template</title>
<polygon fill="white" stroke="black" stroke-width="2" points="680.55,-354 580.55,-354 580.55,-324 680.55,-324 680.55,-354"/>
<text text-anchor="middle" x="630.55" y="-335.3" font-family="Times,serif" font-size="14.00">template</text>
</g>
<!-- template&#45;&gt;3d&#45;engine -->
<g id="edge15" class="edge">
<title>template&#45;&gt;3d&#45;engine</title>
<path fill="none" stroke="black" d="M613.09,-323.75C603.66,-314.29 595.31,-301.7 602.55,-291 607.72,-283.36 615.05,-277.54 623.19,-273.11"/>
<polygon fill="black" stroke="black" points="624.72,-276.26 632.28,-268.83 621.74,-269.93 624.72,-276.26"/>
<text text-anchor="middle" x="637.05" y="-294.8" font-family="Times,serif" font-size="14.00">«include»</text>
</g>
<!-- type_trait&#45;&gt;core -->
<g id="edge16" class="edge">
<title>type_trait&#45;&gt;core</title>
<path fill="none" stroke="black" d="M513.88,-161.89C508.21,-135.7 492.5,-79.4 457.55,-48 447.65,-39.1 435.18,-32.67 422.56,-28.01"/>
<polygon fill="black" stroke="black" points="423.52,-24.64 412.93,-24.79 421.3,-31.28 423.52,-24.64"/>
<text text-anchor="middle" x="532.05" y="-92.3" font-family="Times,serif" font-size="14.00">«include»</text>
</g>
<!-- unsafe_defs&#45;&gt;core -->
<g id="edge17" class="edge">
<title>unsafe_defs&#45;&gt;core</title>
<path fill="none" stroke="black" d="M1071.8,-89.72C936.69,-75.68 568.65,-37.42 423.03,-22.29"/>
<polygon fill="black" stroke="black" points="423.24,-18.79 412.93,-21.24 422.52,-25.75 423.24,-18.79"/>
<text text-anchor="middle" x="845.05" y="-51.8" font-family="Times,serif" font-size="14.00">«include»</text>
</g>
<!-- util&#45;&gt;3d&#45;engine -->
<g id="edge43" class="edge">
<title>util&#45;&gt;3d&#45;engine</title>
<path fill="none" stroke="red" stroke-width="2" d="M322.59,-327.03C346.9,-321.36 376.43,-313.97 402.55,-306 421.11,-300.34 424.69,-295.56 443.55,-291 506.67,-275.75 524.21,-281.78 588.55,-273 599.44,-271.51 611.03,-269.85 622.21,-268.21"/>
<polygon fill="red" stroke="red" stroke-width="2" points="622.96,-271.64 632.33,-266.71 621.93,-264.71 622.96,-271.64"/>
<text text-anchor="middle" x="464.55" y="-294.8" font-family="Times,serif" font-size="14.00">«use»</text>
</g>
<!-- util&#45;&gt;bbox&#45;engine -->
<g id="edge44" class="edge">
<title>util&#45;&gt;bbox&#45;engine</title>
<path fill="none" stroke="red" stroke-width="2" d="M246.75,-323.87C239.72,-318.99 232.64,-312.96 227.55,-306 205.22,-275.49 207.4,-262.35 201.55,-225 200.52,-218.41 200.32,-216.55 201.55,-210 203.13,-201.56 205.51,-200.03 208.55,-192 217.73,-167.76 227.95,-139.91 234.96,-120.67"/>
<polygon fill="red" stroke="red" stroke-width="2" points="238.28,-121.79 238.41,-111.19 231.7,-119.39 238.28,-121.79"/>
<text text-anchor="middle" x="222.55" y="-213.8" font-family="Times,serif" font-size="14.00">«use»</text>
</g>
<!-- util&#45;&gt;mngm -->
<g id="edge45" class="edge">
<title>util&#45;&gt;mngm</title>
<path fill="none" stroke="red" stroke-width="2" d="M267.76,-323.7C262.17,-305 254.43,-271.27 260.55,-243 268.39,-206.79 324.55,-130.2 326.55,-129 373.15,-100.99 516.36,-115.4 570.55,-111 602.84,-108.38 638.81,-105.21 668.27,-102.55"/>
<polygon fill="red" stroke="red" stroke-width="2" points="668.76,-106.02 678.4,-101.63 668.12,-99.05 668.76,-106.02"/>
<text text-anchor="middle" x="294.55" y="-213.8" font-family="Times,serif" font-size="14.00">«use»</text>
</g>
<!-- util&#45;&gt;unsafe_defs -->
<g id="edge18" class="edge">
<title>util&#45;&gt;unsafe_defs</title>
<path fill="none" stroke="black" d="M313.12,-323.89C336.36,-313.56 363.77,-297.11 378.55,-273 393.23,-249.05 367.27,-232.89 383.55,-210 395.08,-193.78 407.86,-202.84 424.55,-192 441.18,-181.21 439.25,-169.61 457.55,-162 530.27,-131.74 733.36,-153.55 811.55,-144 846.16,-139.77 854.15,-134.7 888.55,-129 947.15,-119.29 1014.37,-110.32 1061.68,-104.37"/>
<polygon fill="black" stroke="black" points="1062.27,-107.82 1071.76,-103.11 1061.4,-100.87 1062.27,-107.82"/>
<text text-anchor="middle" x="418.05" y="-213.8" font-family="Times,serif" font-size="14.00">«include»</text>
</g>
</g>
</svg>
