<?xml version="1.0" encoding="UTF-8" standalone="no"?>
<!DOCTYPE svg PUBLIC "-//W3C//DTD SVG 1.1//EN"
 "http://www.w3.org/Graphics/SVG/1.1/DTD/svg11.dtd">
<!-- Generated by graphviz version 12.1.0 (20240811.2233)
 -->
<!-- Title: foundation Pages: 1 -->
<svg width="1392pt" height="467pt"
 viewBox="0.00 0.00 1392.00 467.00" xmlns="http://www.w3.org/2000/svg" xmlns:xlink="http://www.w3.org/1999/xlink">
<g id="graph0" class="graph" transform="scale(1 1) rotate(0) translate(4 463)">
<title>foundation</title>
<polygon fill="white" stroke="none" points="-4,4 -4,-463 1388,-463 1388,4 -4,4"/>
<!-- 2d&#45;engine -->
<g id="node1" class="node">
<title>2d&#45;engine</title>
<polygon fill="white" stroke="black" stroke-width="2" points="388,-209.25 288,-209.25 288,-179.25 388,-179.25 388,-209.25"/>
<text text-anchor="middle" x="338" y="-189.58" font-family="Times,serif" font-size="14.00">2d&#45;engine</text>
</g>
<!-- bbox&#45;engine -->
<g id="node4" class="node">
<title>bbox&#45;engine</title>
<polygon fill="white" stroke="black" stroke-width="2" points="526.13,-113.25 423.88,-113.25 423.88,-83.25 526.13,-83.25 526.13,-113.25"/>
<text text-anchor="middle" x="475" y="-93.58" font-family="Times,serif" font-size="14.00">bbox&#45;engine</text>
</g>
<!-- 2d&#45;engine&#45;&gt;bbox&#45;engine -->
<g id="edge22" class="edge">
<title>2d&#45;engine&#45;&gt;bbox&#45;engine</title>
<path fill="none" stroke="red" stroke-width="2" d="M362.62,-178.31C371.07,-173.05 380.53,-167.01 389,-161.25 407.59,-148.6 411.51,-144.41 429.75,-131.25 434.14,-128.08 438.78,-124.76 443.36,-121.51"/>
<polygon fill="red" stroke="red" stroke-width="2" points="445.15,-124.53 451.29,-115.89 441.11,-118.82 445.15,-124.53"/>
<text text-anchor="middle" x="450.38" y="-141.58" font-family="Times,serif" font-size="14.00">«use»</text>
</g>
<!-- mngm&#45;engine -->
<g id="node14" class="node">
<title>mngm&#45;engine</title>
<polygon fill="white" stroke="black" stroke-width="2" points="283.75,-113.25 170.25,-113.25 170.25,-83.25 283.75,-83.25 283.75,-113.25"/>
<text text-anchor="middle" x="227" y="-93.58" font-family="Times,serif" font-size="14.00">mngm&#45;engine</text>
</g>
<!-- 2d&#45;engine&#45;&gt;mngm&#45;engine -->
<g id="edge21" class="edge">
<title>2d&#45;engine&#45;&gt;mngm&#45;engine</title>
<path fill="none" stroke="red" stroke-width="2" d="M299.89,-178.35C290.48,-173.68 280.79,-167.96 272.75,-161.25 260.61,-151.12 249.93,-137.12 241.94,-124.99"/>
<polygon fill="red" stroke="red" stroke-width="2" points="245.02,-123.32 236.76,-116.69 239.08,-127.02 245.02,-123.32"/>
<text text-anchor="middle" x="293.38" y="-141.58" font-family="Times,serif" font-size="14.00">«use»</text>
</g>
<!-- unsafe_defs -->
<g id="node21" class="node">
<title>unsafe_defs</title>
<polygon fill="white" stroke="black" stroke-width="2" points="402,-113.25 302,-113.25 302,-83.25 402,-83.25 402,-113.25"/>
<text text-anchor="middle" x="352" y="-93.58" font-family="Times,serif" font-size="14.00">unsafe_defs</text>
</g>
<!-- 2d&#45;engine&#45;&gt;unsafe_defs -->
<g id="edge1" class="edge">
<title>2d&#45;engine&#45;&gt;unsafe_defs</title>
<path fill="none" stroke="black" d="M327.95,-178.26C325.03,-173.09 322.23,-167.12 320.75,-161.25 317.49,-148.32 315.72,-143.6 320.75,-131.25 321.99,-128.22 323.66,-125.31 325.6,-122.58"/>
<polygon fill="black" stroke="black" points="328.12,-125.02 331.96,-115.15 322.8,-120.47 328.12,-125.02"/>
<text text-anchor="middle" x="354.88" y="-141.58" font-family="Times,serif" font-size="14.00">«include»</text>
</g>
<!-- 3d&#45;engine -->
<g id="node2" class="node">
<title>3d&#45;engine</title>
<polygon fill="white" stroke="black" stroke-width="2" points="801,-292.5 701,-292.5 701,-262.5 801,-262.5 801,-292.5"/>
<text text-anchor="middle" x="751" y="-272.83" font-family="Times,serif" font-size="14.00">3d&#45;engine</text>
</g>
<!-- 3d&#45;engine&#45;&gt;2d&#45;engine -->
<g id="edge2" class="edge">
<title>3d&#45;engine&#45;&gt;2d&#45;engine</title>
<path fill="none" stroke="black" d="M700.14,-276.9C637.1,-276.13 526.95,-270.64 436.75,-244.5 414.03,-237.92 390.26,-226.23 371.73,-215.89"/>
<polygon fill="black" stroke="black" points="373.48,-212.86 363.06,-210.92 370,-218.93 373.48,-212.86"/>
<text text-anchor="middle" x="470.88" y="-231.2" font-family="Times,serif" font-size="14.00">«include»</text>
</g>
<!-- polymorphic&#45;engine -->
<g id="node15" class="node">
<title>polymorphic&#45;engine</title>
<polygon fill="white" stroke="black" stroke-width="2" points="569.5,-375.75 412.5,-375.75 412.5,-345.75 569.5,-345.75 569.5,-375.75"/>
<text text-anchor="middle" x="491" y="-356.08" font-family="Times,serif" font-size="14.00">polymorphic&#45;engine</text>
</g>
<!-- 3d&#45;engine&#45;&gt;polymorphic&#45;engine -->
<g id="edge23" class="edge">
<title>3d&#45;engine&#45;&gt;polymorphic&#45;engine</title>
<path fill="none" stroke="red" stroke-width="2" d="M700.21,-287.91C674.77,-293.29 643.73,-300.9 616.75,-310.5 600.13,-316.41 597.28,-320.95 581,-327.75 570.44,-332.16 559.03,-336.52 548,-340.53"/>
<polygon fill="red" stroke="red" stroke-width="2" points="546.86,-337.22 538.62,-343.88 549.21,-343.82 546.86,-337.22"/>
<text text-anchor="middle" x="637.38" y="-314.45" font-family="Times,serif" font-size="14.00">«use»</text>
</g>
<!-- type&#45;engine -->
<g id="node19" class="node">
<title>type&#45;engine</title>
<polygon fill="white" stroke="black" stroke-width="2" points="697,-209.25 597,-209.25 597,-179.25 697,-179.25 697,-209.25"/>
<text text-anchor="middle" x="647" y="-189.58" font-family="Times,serif" font-size="14.00">type&#45;engine</text>
</g>
<!-- 3d&#45;engine&#45;&gt;type&#45;engine -->
<g id="edge24" class="edge">
<title>3d&#45;engine&#45;&gt;type&#45;engine</title>
<path fill="none" stroke="red" stroke-width="2" d="M715.31,-261.65C705.87,-256.88 696.02,-251.11 687.75,-244.5 679.09,-237.58 670.99,-228.57 664.33,-220.15"/>
<polygon fill="red" stroke="red" stroke-width="2" points="667.33,-218.33 658.54,-212.42 661.73,-222.52 667.33,-218.33"/>
<text text-anchor="middle" x="708.38" y="-231.2" font-family="Times,serif" font-size="14.00">«use»</text>
</g>
<!-- type_trait -->
<g id="node20" class="node">
<title>type_trait</title>
<polygon fill="white" stroke="black" stroke-width="2" points="801,-161.25 701,-161.25 701,-131.25 801,-131.25 801,-161.25"/>
<text text-anchor="middle" x="751" y="-141.58" font-family="Times,serif" font-size="14.00">type_trait</text>
</g>
<!-- 3d&#45;engine&#45;&gt;type_trait -->
<g id="edge3" class="edge">
<title>3d&#45;engine&#45;&gt;type_trait</title>
<path fill="none" stroke="black" d="M751,-261.67C751,-240.15 751,-199.93 751,-173.37"/>
<polygon fill="black" stroke="black" points="754.5,-173.42 751,-163.42 747.5,-173.42 754.5,-173.42"/>
<text text-anchor="middle" x="785.13" y="-231.2" font-family="Times,serif" font-size="14.00">«include»</text>
</g>
<!-- algo&#45;engine -->
<g id="node3" class="node">
<title>algo&#45;engine</title>
<polygon fill="white" stroke="black" stroke-width="2" points="1146,-375.75 1046,-375.75 1046,-345.75 1146,-345.75 1146,-375.75"/>
<text text-anchor="middle" x="1096" y="-356.08" font-family="Times,serif" font-size="14.00">algo&#45;engine</text>
</g>
<!-- algo&#45;engine&#45;&gt;3d&#45;engine -->
<g id="edge4" class="edge">
<title>algo&#45;engine&#45;&gt;3d&#45;engine</title>
<path fill="none" stroke="black" d="M1064.33,-344.77C1039.68,-333.71 1004.34,-319.14 972,-310.5 919.28,-296.42 857.73,-288.15 812.99,-283.56"/>
<polygon fill="black" stroke="black" points="813.51,-280.09 803.21,-282.59 812.82,-287.06 813.51,-280.09"/>
<text text-anchor="middle" x="1054.79" y="-314.45" font-family="Times,serif" font-size="14.00">«include»</text>
</g>
<!-- core -->
<g id="node7" class="node">
<title>core</title>
<polygon fill="white" stroke="black" stroke-width="2" points="402,-30 302,-30 302,0 402,0 402,-30"/>
<text text-anchor="middle" x="352" y="-10.33" font-family="Times,serif" font-size="14.00">core</text>
</g>
<!-- bbox&#45;engine&#45;&gt;core -->
<g id="edge5" class="edge">
<title>bbox&#45;engine&#45;&gt;core</title>
<path fill="none" stroke="black" d="M462.29,-82.46C452.6,-71.85 438.49,-57.77 424,-48 417.29,-43.48 409.84,-39.34 402.35,-35.65"/>
<polygon fill="black" stroke="black" points="404.09,-32.6 393.55,-31.53 401.13,-38.94 404.09,-32.6"/>
<text text-anchor="middle" x="479.26" y="-51.95" font-family="Times,serif" font-size="14.00">«include»</text>
</g>
<!-- components -->
<g id="node5" class="node">
<title>components</title>
<polygon fill="white" stroke="black" stroke-width="2" points="526.13,-209.25 423.88,-209.25 423.88,-179.25 526.13,-179.25 526.13,-209.25"/>
<text text-anchor="middle" x="475" y="-189.58" font-family="Times,serif" font-size="14.00">components</text>
</g>
<!-- components&#45;&gt;bbox&#45;engine -->
<g id="edge6" class="edge">
<title>components&#45;&gt;bbox&#45;engine</title>
<path fill="none" stroke="black" d="M475,-178.56C475,-164.44 475,-142.76 475,-125.64"/>
<polygon fill="black" stroke="black" points="478.5,-125.66 475,-115.66 471.5,-125.66 478.5,-125.66"/>
<text text-anchor="middle" x="509.13" y="-141.58" font-family="Times,serif" font-size="14.00">«include»</text>
</g>
<!-- connect -->
<g id="node6" class="node">
<title>connect</title>
<polygon fill="white" stroke="black" stroke-width="2" points="1028,-459 928,-459 928,-429 1028,-429 1028,-459"/>
<text text-anchor="middle" x="978" y="-439.33" font-family="Times,serif" font-size="14.00">connect</text>
</g>
<!-- util -->
<g id="node22" class="node">
<title>util</title>
<polygon fill="white" stroke="black" stroke-width="2" points="1028,-375.75 928,-375.75 928,-345.75 1028,-345.75 1028,-375.75"/>
<text text-anchor="middle" x="978" y="-356.08" font-family="Times,serif" font-size="14.00">util</text>
</g>
<!-- connect&#45;&gt;util -->
<g id="edge7" class="edge">
<title>connect&#45;&gt;util</title>
<path fill="none" stroke="black" d="M978,-428.1C978,-416.87 978,-401.2 978,-387.9"/>
<polygon fill="black" stroke="black" points="981.5,-388.07 978,-378.07 974.5,-388.07 981.5,-388.07"/>
<text text-anchor="middle" x="1012.13" y="-397.7" font-family="Times,serif" font-size="14.00">«include»</text>
</g>
<!-- dimensions -->
<g id="node8" class="node">
<title>dimensions</title>
<polygon fill="white" stroke="black" stroke-width="2" points="1146,-459 1046,-459 1046,-429 1146,-429 1146,-459"/>
<text text-anchor="middle" x="1096" y="-439.33" font-family="Times,serif" font-size="14.00">dimensions</text>
</g>
<!-- fillet -->
<g id="node9" class="node">
<title>fillet</title>
<polygon fill="white" stroke="black" stroke-width="2" points="1264,-375.75 1164,-375.75 1164,-345.75 1264,-345.75 1264,-375.75"/>
<text text-anchor="middle" x="1214" y="-356.08" font-family="Times,serif" font-size="14.00">fillet</text>
</g>
<!-- fillet&#45;&gt;3d&#45;engine -->
<g id="edge8" class="edge">
<title>fillet&#45;&gt;3d&#45;engine</title>
<path fill="none" stroke="black" d="M1184.49,-344.88C1160.48,-333.49 1125.39,-318.42 1093,-310.5 997.11,-287.04 882.23,-280.54 813.02,-278.88"/>
<polygon fill="black" stroke="black" points="813.48,-275.39 803.41,-278.67 813.33,-282.38 813.48,-275.39"/>
<text text-anchor="middle" x="1178.13" y="-314.45" font-family="Times,serif" font-size="14.00">«include»</text>
</g>
<!-- grid -->
<g id="node10" class="node">
<title>grid</title>
<polygon fill="white" stroke="black" stroke-width="2" points="688,-375.75 588,-375.75 588,-345.75 688,-345.75 688,-375.75"/>
<text text-anchor="middle" x="638" y="-356.08" font-family="Times,serif" font-size="14.00">grid</text>
</g>
<!-- grid&#45;&gt;3d&#45;engine -->
<g id="edge9" class="edge">
<title>grid&#45;&gt;3d&#45;engine</title>
<path fill="none" stroke="black" d="M648.22,-344.87C656.13,-334.22 667.87,-320.12 680.75,-310.5 686.74,-306.03 693.45,-301.98 700.29,-298.4"/>
<polygon fill="black" stroke="black" points="701.53,-301.68 708.97,-294.14 698.45,-295.4 701.53,-301.68"/>
<text text-anchor="middle" x="714.88" y="-314.45" font-family="Times,serif" font-size="14.00">«include»</text>
</g>
<!-- hole -->
<g id="node11" class="node">
<title>hole</title>
<polygon fill="white" stroke="black" stroke-width="2" points="718,-459 618,-459 618,-429 718,-429 718,-459"/>
<text text-anchor="middle" x="668" y="-439.33" font-family="Times,serif" font-size="14.00">hole</text>
</g>
<!-- label -->
<g id="node12" class="node">
<title>label</title>
<polygon fill="white" stroke="black" stroke-width="2" points="806,-375.75 706,-375.75 706,-345.75 806,-345.75 806,-375.75"/>
<text text-anchor="middle" x="756" y="-356.08" font-family="Times,serif" font-size="14.00">label</text>
</g>
<!-- hole&#45;&gt;label -->
<g id="edge10" class="edge">
<title>hole&#45;&gt;label</title>
<path fill="none" stroke="black" d="M668.82,-428.05C670.13,-417.36 673.46,-403.24 681.75,-393.75 685.73,-389.19 690.48,-385.26 695.62,-381.88"/>
<polygon fill="black" stroke="black" points="696.99,-385.13 703.91,-377.11 693.5,-379.06 696.99,-385.13"/>
<text text-anchor="middle" x="715.88" y="-397.7" font-family="Times,serif" font-size="14.00">«include»</text>
</g>
<!-- label&#45;&gt;3d&#45;engine -->
<g id="edge11" class="edge">
<title>label&#45;&gt;3d&#45;engine</title>
<path fill="none" stroke="black" d="M755.08,-344.85C754.39,-333.62 753.43,-317.95 752.61,-304.65"/>
<polygon fill="black" stroke="black" points="756.11,-304.58 752,-294.82 749.13,-305.01 756.11,-304.58"/>
<text text-anchor="middle" x="788.07" y="-314.45" font-family="Times,serif" font-size="14.00">«include»</text>
</g>
<!-- limits -->
<g id="node13" class="node">
<title>limits</title>
<polygon fill="white" stroke="black" stroke-width="2" points="100,-113.25 0,-113.25 0,-83.25 100,-83.25 100,-113.25"/>
<text text-anchor="middle" x="50" y="-93.58" font-family="Times,serif" font-size="14.00">limits</text>
</g>
<!-- limits&#45;&gt;core -->
<g id="edge12" class="edge">
<title>limits&#45;&gt;core</title>
<path fill="none" stroke="black" d="M45.54,-82.44C43.25,-71.54 42.45,-57.09 50.75,-48 66.54,-30.71 206.2,-21.99 289.71,-18.28"/>
<polygon fill="black" stroke="black" points="289.75,-21.78 299.59,-17.86 289.45,-14.79 289.75,-21.78"/>
<text text-anchor="middle" x="84.88" y="-51.95" font-family="Times,serif" font-size="14.00">«include»</text>
</g>
<!-- mngm&#45;engine&#45;&gt;core -->
<g id="edge13" class="edge">
<title>mngm&#45;engine&#45;&gt;core</title>
<path fill="none" stroke="black" d="M240.24,-82.48C250.3,-71.89 264.91,-57.81 279.75,-48 286.52,-43.53 294.01,-39.41 301.54,-35.73"/>
<polygon fill="black" stroke="black" points="302.79,-39.01 310.38,-31.62 299.84,-32.66 302.79,-39.01"/>
<text text-anchor="middle" x="313.88" y="-51.95" font-family="Times,serif" font-size="14.00">«include»</text>
</g>
<!-- polymorphic&#45;engine&#45;&gt;3d&#45;engine -->
<g id="edge25" class="edge">
<title>polymorphic&#45;engine&#45;&gt;3d&#45;engine</title>
<path fill="none" stroke="red" stroke-width="2" d="M502.51,-345.02C512.92,-332.1 527.8,-314.74 535.75,-310.5 561.3,-296.86 633.49,-288.08 687.26,-283.23"/>
<polygon fill="red" stroke="red" stroke-width="2" points="687.48,-286.72 697.13,-282.37 686.87,-279.75 687.48,-286.72"/>
<text text-anchor="middle" x="556.38" y="-314.45" font-family="Times,serif" font-size="14.00">«use»</text>
</g>
<!-- polymorphic&#45;engine&#45;&gt;bbox&#45;engine -->
<g id="edge26" class="edge">
<title>polymorphic&#45;engine&#45;&gt;bbox&#45;engine</title>
<path fill="none" stroke="red" stroke-width="2" d="M497.22,-345.04C515.64,-300.46 567.23,-167.63 544,-131.25 541.73,-127.69 538.94,-124.52 535.81,-121.69"/>
<polygon fill="red" stroke="red" stroke-width="2" points="538.14,-119.06 527.99,-116.01 534.02,-124.72 538.14,-119.06"/>
<text text-anchor="middle" x="558.75" y="-231.2" font-family="Times,serif" font-size="14.00">«use»</text>
</g>
<!-- polymorphic&#45;engine&#45;&gt;core -->
<g id="edge14" class="edge">
<title>polymorphic&#45;engine&#45;&gt;core</title>
<path fill="none" stroke="black" d="M411.55,-357.52C306.08,-352.35 133,-335.22 133,-278.5 133,-278.5 133,-278.5 133,-97.25 133,-63.51 225.5,-39.31 290.27,-26.5"/>
<polygon fill="black" stroke="black" points="290.56,-30.01 299.72,-24.68 289.24,-23.13 290.56,-30.01"/>
<text text-anchor="middle" x="167.13" y="-189.58" font-family="Times,serif" font-size="14.00">«include»</text>
</g>
<!-- polymorphic&#45;engine&#45;&gt;mngm&#45;engine -->
<g id="edge27" class="edge">
<title>polymorphic&#45;engine&#45;&gt;mngm&#45;engine</title>
<path fill="none" stroke="red" stroke-width="2" d="M465.02,-344.8C423.1,-319.95 339.2,-267.12 279,-209.25 259.58,-190.58 253.64,-185.54 242,-161.25 236.83,-150.46 233.35,-137.73 231.06,-126.62"/>
<polygon fill="red" stroke="red" stroke-width="2" points="234.56,-126.32 229.35,-117.1 227.67,-127.56 234.56,-126.32"/>
<text text-anchor="middle" x="338.51" y="-231.2" font-family="Times,serif" font-size="14.00">«use»</text>
</g>
<!-- profile -->
<g id="node16" class="node">
<title>profile</title>
<polygon fill="white" stroke="black" stroke-width="2" points="864,-459 764,-459 764,-429 864,-429 864,-459"/>
<text text-anchor="middle" x="814" y="-439.33" font-family="Times,serif" font-size="14.00">profile</text>
</g>
<!-- profile&#45;&gt;3d&#45;engine -->
<g id="edge15" class="edge">
<title>profile&#45;&gt;3d&#45;engine</title>
<path fill="none" stroke="black" d="M822.03,-428.13C824.45,-422.87 826.78,-416.82 828,-411 833.8,-383.26 851.16,-347.62 826,-310.5 822.23,-304.95 817.29,-300.35 811.74,-296.55"/>
<polygon fill="black" stroke="black" points="813.63,-293.6 803.22,-291.63 810.13,-299.66 813.63,-293.6"/>
<text text-anchor="middle" x="873.37" y="-356.08" font-family="Times,serif" font-size="14.00">«include»</text>
</g>
<!-- profile&#45;&gt;label -->
<g id="edge16" class="edge">
<title>profile&#45;&gt;label</title>
<path fill="none" stroke="black" d="M777.49,-428.07C770.54,-423.59 764.09,-417.96 759.75,-411 755.54,-404.23 753.89,-395.89 753.5,-388"/>
<polygon fill="black" stroke="black" points="756.99,-388.22 753.68,-378.16 750,-388.09 756.99,-388.22"/>
<text text-anchor="middle" x="793.88" y="-397.7" font-family="Times,serif" font-size="14.00">«include»</text>
</g>
<!-- quaternions -->
<g id="node17" class="node">
<title>quaternions</title>
<polygon fill="white" stroke="black" stroke-width="2" points="1265.75,-459 1164.25,-459 1164.25,-429 1265.75,-429 1265.75,-459"/>
<text text-anchor="middle" x="1215" y="-439.33" font-family="Times,serif" font-size="14.00">quaternions</text>
</g>
<!-- template -->
<g id="node18" class="node">
<title>template</title>
<polygon fill="white" stroke="black" stroke-width="2" points="1384,-459 1284,-459 1284,-429 1384,-429 1384,-459"/>
<text text-anchor="middle" x="1334" y="-439.33" font-family="Times,serif" font-size="14.00">template</text>
</g>
<!-- type&#45;engine&#45;&gt;bbox&#45;engine -->
<g id="edge28" class="edge">
<title>type&#45;engine&#45;&gt;bbox&#45;engine</title>
<path fill="none" stroke="red" stroke-width="2" d="M616.29,-178.34C607.87,-173.51 599.06,-167.71 591.75,-161.25 579.21,-150.17 582.57,-141.04 569,-131.25 559.96,-124.73 549.49,-119.46 538.89,-115.23"/>
<polygon fill="red" stroke="red" stroke-width="2" points="540.37,-112.04 529.78,-111.91 537.98,-118.62 540.37,-112.04"/>
<text text-anchor="middle" x="612.38" y="-141.58" font-family="Times,serif" font-size="14.00">«use»</text>
</g>
<!-- type&#45;engine&#45;&gt;core -->
<g id="edge17" class="edge">
<title>type&#45;engine&#45;&gt;core</title>
<path fill="none" stroke="black" d="M646.57,-178.31C645.55,-164.98 642.39,-145.42 633,-131.25 597.95,-78.35 575.27,-73.12 517,-48 484.54,-34.01 445.86,-26.09 414.11,-21.64"/>
<polygon fill="black" stroke="black" points="414.62,-18.17 404.25,-20.34 413.71,-25.11 414.62,-18.17"/>
<text text-anchor="middle" x="653.65" y="-93.58" font-family="Times,serif" font-size="14.00">«include»</text>
</g>
<!-- type_trait&#45;&gt;core -->
<g id="edge18" class="edge">
<title>type_trait&#45;&gt;core</title>
<path fill="none" stroke="black" d="M745.97,-130.32C740.84,-116.81 731.81,-96.98 719,-83.25 698.43,-61.19 689.59,-57.62 661,-48 616.76,-33.11 491.05,-23.72 414.29,-19.21"/>
<polygon fill="black" stroke="black" points="414.57,-15.72 404.38,-18.64 414.16,-22.71 414.57,-15.72"/>
<text text-anchor="middle" x="772.4" y="-93.58" font-family="Times,serif" font-size="14.00">«include»</text>
</g>
<!-- unsafe_defs&#45;&gt;core -->
<g id="edge19" class="edge">
<title>unsafe_defs&#45;&gt;core</title>
<path fill="none" stroke="black" d="M352,-82.35C352,-71.12 352,-55.45 352,-42.15"/>
<polygon fill="black" stroke="black" points="355.5,-42.32 352,-32.32 348.5,-42.32 355.5,-42.32"/>
<text text-anchor="middle" x="386.13" y="-51.95" font-family="Times,serif" font-size="14.00">«include»</text>
</g>
<!-- util&#45;&gt;3d&#45;engine -->
<g id="edge20" class="edge">
<title>util&#45;&gt;3d&#45;engine</title>
<path fill="none" stroke="black" d="M943.34,-344.81C919.09,-334.59 885.83,-321.04 856,-310.5 842.04,-305.57 826.88,-300.68 812.54,-296.27"/>
<polygon fill="black" stroke="black" points="813.8,-292.99 803.21,-293.43 811.76,-299.69 813.8,-292.99"/>
<text text-anchor="middle" x="934.13" y="-314.45" font-family="Times,serif" font-size="14.00">«include»</text>
</g>
</g>
</svg>
