<?xml version="1.0" encoding="UTF-8" standalone="no"?>
<!DOCTYPE svg PUBLIC "-//W3C//DTD SVG 1.1//EN"
 "http://www.w3.org/Graphics/SVG/1.1/DTD/svg11.dtd">
<!-- Generated by graphviz version 2.43.0 (0)
 -->
<!-- Title: foundation Pages: 1 -->
<svg width="1117pt" height="539pt"
 viewBox="0.00 0.00 1117.36 539.00" xmlns="http://www.w3.org/2000/svg" xmlns:xlink="http://www.w3.org/1999/xlink">
<g id="graph0" class="graph" transform="scale(1 1) rotate(0) translate(4 535)">
<title>foundation</title>
<polygon fill="white" stroke="transparent" points="-4,4 -4,-535 1113.36,-535 1113.36,4 -4,4"/>
<!-- 2d&#45;engine -->
<g id="node1" class="node">
<title>2d&#45;engine</title>
<polygon fill="white" stroke="black" stroke-width="2" points="299.36,-288 199.36,-288 199.36,-258 299.36,-258 299.36,-288"/>
<text text-anchor="middle" x="249.36" y="-269.3" font-family="Times,serif" font-size="14.00">2d&#45;engine</text>
</g>
<!-- bbox&#45;engine -->
<g id="node4" class="node">
<title>bbox&#45;engine</title>
<polygon fill="white" stroke="black" stroke-width="2" points="407.86,-111 304.86,-111 304.86,-81 407.86,-81 407.86,-111"/>
<text text-anchor="middle" x="356.36" y="-92.3" font-family="Times,serif" font-size="14.00">bbox&#45;engine</text>
</g>
<!-- 2d&#45;engine&#45;&gt;bbox&#45;engine -->
<g id="edge18" class="edge">
<title>2d&#45;engine&#45;&gt;bbox&#45;engine</title>
<path fill="none" stroke="red" stroke-width="2" d="M268.3,-257.85C286.51,-243.27 313.54,-218.93 329.36,-192 342.39,-169.82 349.42,-141.01 353.01,-120.95"/>
<polygon fill="red" stroke="red" stroke-width="2" points="356.47,-121.52 354.63,-111.08 349.56,-120.38 356.47,-121.52"/>
<text text-anchor="middle" x="362.36" y="-173.3" font-family="Times,serif" font-size="14.00">«use»</text>
</g>
<!-- mngm&#45;engine -->
<g id="node14" class="node">
<title>mngm&#45;engine</title>
<polygon fill="white" stroke="black" stroke-width="2" points="198.36,-192 84.36,-192 84.36,-162 198.36,-162 198.36,-192"/>
<text text-anchor="middle" x="141.36" y="-173.3" font-family="Times,serif" font-size="14.00">mngm&#45;engine</text>
</g>
<!-- 2d&#45;engine&#45;&gt;mngm&#45;engine -->
<g id="edge17" class="edge">
<title>2d&#45;engine&#45;&gt;mngm&#45;engine</title>
<path fill="none" stroke="red" stroke-width="2" d="M232.96,-257.72C214.93,-242.04 185.82,-216.69 165.25,-198.8"/>
<polygon fill="red" stroke="red" stroke-width="2" points="167.41,-196.03 157.57,-192.1 162.81,-201.31 167.41,-196.03"/>
<text text-anchor="middle" x="232.36" y="-221.3" font-family="Times,serif" font-size="14.00">«use»</text>
</g>
<!-- unsafe_defs -->
<g id="node19" class="node">
<title>unsafe_defs</title>
<polygon fill="white" stroke="black" stroke-width="2" points="163.86,-111 62.86,-111 62.86,-81 163.86,-81 163.86,-111"/>
<text text-anchor="middle" x="113.36" y="-92.3" font-family="Times,serif" font-size="14.00">unsafe_defs</text>
</g>
<!-- 2d&#45;engine&#45;&gt;unsafe_defs -->
<g id="edge1" class="edge">
<title>2d&#45;engine&#45;&gt;unsafe_defs</title>
<path fill="none" stroke="black" d="M199.23,-271.62C141.9,-268.15 50.3,-252.72 6.36,-192 -16.12,-160.92 27.45,-132.77 65.56,-115.32"/>
<polygon fill="black" stroke="black" points="67.36,-118.36 75.1,-111.12 64.53,-111.95 67.36,-118.36"/>
<text text-anchor="middle" x="40.86" y="-173.3" font-family="Times,serif" font-size="14.00">«include»</text>
</g>
<!-- 3d&#45;engine -->
<g id="node2" class="node">
<title>3d&#45;engine</title>
<polygon fill="white" stroke="black" stroke-width="2" points="517.36,-369 417.36,-369 417.36,-339 517.36,-339 517.36,-369"/>
<text text-anchor="middle" x="467.36" y="-350.3" font-family="Times,serif" font-size="14.00">3d&#45;engine</text>
</g>
<!-- 3d&#45;engine&#45;&gt;2d&#45;engine -->
<g id="edge2" class="edge">
<title>3d&#45;engine&#45;&gt;2d&#45;engine</title>
<path fill="none" stroke="black" d="M428.64,-338.97C392.09,-325.72 337.18,-305.82 297.76,-291.54"/>
<polygon fill="black" stroke="black" points="298.68,-288.15 288.09,-288.03 296.3,-294.73 298.68,-288.15"/>
<text text-anchor="middle" x="411.86" y="-309.8" font-family="Times,serif" font-size="14.00">«include»</text>
</g>
<!-- traits&#45;engine -->
<g id="node17" class="node">
<title>traits&#45;engine</title>
<polygon fill="white" stroke="black" stroke-width="2" points="597.36,-240 489.36,-240 489.36,-210 597.36,-210 597.36,-240"/>
<text text-anchor="middle" x="543.36" y="-221.3" font-family="Times,serif" font-size="14.00">traits&#45;engine</text>
</g>
<!-- 3d&#45;engine&#45;&gt;traits&#45;engine -->
<g id="edge19" class="edge">
<title>3d&#45;engine&#45;&gt;traits&#45;engine</title>
<path fill="none" stroke="red" stroke-width="2" d="M478.3,-339C488.09,-326.13 502.54,-306.33 513.36,-288 520.68,-275.61 527.74,-261.17 533.18,-249.35"/>
<polygon fill="red" stroke="red" stroke-width="2" points="536.41,-250.69 537.33,-240.13 530.03,-247.81 536.41,-250.69"/>
<text text-anchor="middle" x="522.36" y="-309.8" font-family="Times,serif" font-size="14.00">«use»</text>
</g>
<!-- type&#45;engine -->
<g id="node18" class="node">
<title>type&#45;engine</title>
<polygon fill="white" stroke="black" stroke-width="2" points="517.86,-192 416.86,-192 416.86,-162 517.86,-162 517.86,-192"/>
<text text-anchor="middle" x="467.36" y="-173.3" font-family="Times,serif" font-size="14.00">type&#45;engine</text>
</g>
<!-- 3d&#45;engine&#45;&gt;type&#45;engine -->
<g id="edge20" class="edge">
<title>3d&#45;engine&#45;&gt;type&#45;engine</title>
<path fill="none" stroke="red" stroke-width="2" d="M467.36,-338.97C467.36,-309.28 467.36,-239.74 467.36,-202.52"/>
<polygon fill="red" stroke="red" stroke-width="2" points="470.86,-202.09 467.36,-192.09 463.86,-202.09 470.86,-202.09"/>
<text text-anchor="middle" x="488.36" y="-269.3" font-family="Times,serif" font-size="14.00">«use»</text>
</g>
<!-- algo&#45;engine -->
<g id="node3" class="node">
<title>algo&#45;engine</title>
<polygon fill="white" stroke="black" stroke-width="2" points="281.36,-450 181.36,-450 181.36,-420 281.36,-420 281.36,-450"/>
<text text-anchor="middle" x="231.36" y="-431.3" font-family="Times,serif" font-size="14.00">algo&#45;engine</text>
</g>
<!-- algo&#45;engine&#45;&gt;3d&#45;engine -->
<g id="edge3" class="edge">
<title>algo&#45;engine&#45;&gt;3d&#45;engine</title>
<path fill="none" stroke="black" d="M248.63,-419.96C262.59,-409.33 283.17,-395.2 303.36,-387 336.35,-373.61 375.4,-365.71 407.11,-361.1"/>
<polygon fill="black" stroke="black" points="407.71,-364.56 417.14,-359.72 406.75,-357.62 407.71,-364.56"/>
<text text-anchor="middle" x="337.86" y="-390.8" font-family="Times,serif" font-size="14.00">«include»</text>
</g>
<!-- core -->
<g id="node7" class="node">
<title>core</title>
<polygon fill="white" stroke="black" stroke-width="2" points="406.36,-30 306.36,-30 306.36,0 406.36,0 406.36,-30"/>
<text text-anchor="middle" x="356.36" y="-11.3" font-family="Times,serif" font-size="14.00">core</text>
</g>
<!-- bbox&#45;engine&#45;&gt;core -->
<g id="edge4" class="edge">
<title>bbox&#45;engine&#45;&gt;core</title>
<path fill="none" stroke="black" d="M356.36,-80.88C356.36,-69.64 356.36,-53.66 356.36,-40.37"/>
<polygon fill="black" stroke="black" points="359.86,-40 356.36,-30 352.86,-40 359.86,-40"/>
<text text-anchor="middle" x="390.86" y="-51.8" font-family="Times,serif" font-size="14.00">«include»</text>
</g>
<!-- components -->
<g id="node5" class="node">
<title>components</title>
<polygon fill="white" stroke="black" stroke-width="2" points="319.86,-192 216.86,-192 216.86,-162 319.86,-162 319.86,-192"/>
<text text-anchor="middle" x="268.36" y="-173.3" font-family="Times,serif" font-size="14.00">components</text>
</g>
<!-- components&#45;&gt;bbox&#45;engine -->
<g id="edge5" class="edge">
<title>components&#45;&gt;bbox&#45;engine</title>
<path fill="none" stroke="black" d="M266.23,-161.84C265.51,-151.69 266.27,-138.25 273.36,-129 279.09,-121.53 286.8,-115.81 295.22,-111.41"/>
<polygon fill="black" stroke="black" points="296.92,-114.49 304.57,-107.16 294.02,-108.12 296.92,-114.49"/>
<text text-anchor="middle" x="307.86" y="-132.8" font-family="Times,serif" font-size="14.00">«include»</text>
</g>
<!-- connect -->
<g id="node6" class="node">
<title>connect</title>
<polygon fill="white" stroke="black" stroke-width="2" points="753.36,-531 653.36,-531 653.36,-501 753.36,-501 753.36,-531"/>
<text text-anchor="middle" x="703.36" y="-512.3" font-family="Times,serif" font-size="14.00">connect</text>
</g>
<!-- util -->
<g id="node20" class="node">
<title>util</title>
<polygon fill="white" stroke="black" stroke-width="2" points="753.36,-450 653.36,-450 653.36,-420 753.36,-420 753.36,-450"/>
<text text-anchor="middle" x="703.36" y="-431.3" font-family="Times,serif" font-size="14.00">util</text>
</g>
<!-- connect&#45;&gt;util -->
<g id="edge6" class="edge">
<title>connect&#45;&gt;util</title>
<path fill="none" stroke="black" d="M703.36,-500.88C703.36,-489.64 703.36,-473.66 703.36,-460.37"/>
<polygon fill="black" stroke="black" points="706.86,-460 703.36,-450 699.86,-460 706.86,-460"/>
<text text-anchor="middle" x="737.86" y="-471.8" font-family="Times,serif" font-size="14.00">«include»</text>
</g>
<!-- dimensions -->
<g id="node8" class="node">
<title>dimensions</title>
<polygon fill="white" stroke="black" stroke-width="2" points="871.36,-531 771.36,-531 771.36,-501 871.36,-501 871.36,-531"/>
<text text-anchor="middle" x="821.36" y="-512.3" font-family="Times,serif" font-size="14.00">dimensions</text>
</g>
<!-- fillet -->
<g id="node9" class="node">
<title>fillet</title>
<polygon fill="white" stroke="black" stroke-width="2" points="399.36,-450 299.36,-450 299.36,-420 399.36,-420 399.36,-450"/>
<text text-anchor="middle" x="349.36" y="-431.3" font-family="Times,serif" font-size="14.00">fillet</text>
</g>
<!-- fillet&#45;&gt;3d&#45;engine -->
<g id="edge7" class="edge">
<title>fillet&#45;&gt;3d&#45;engine</title>
<path fill="none" stroke="black" d="M360.36,-419.81C368.81,-409.65 381.21,-396.19 394.36,-387 401.7,-381.87 409.98,-377.29 418.27,-373.31"/>
<polygon fill="black" stroke="black" points="419.93,-376.4 427.58,-369.08 417.03,-370.03 419.93,-376.4"/>
<text text-anchor="middle" x="428.86" y="-390.8" font-family="Times,serif" font-size="14.00">«include»</text>
</g>
<!-- grid -->
<g id="node10" class="node">
<title>grid</title>
<polygon fill="white" stroke="black" stroke-width="2" points="517.36,-450 417.36,-450 417.36,-420 517.36,-420 517.36,-450"/>
<text text-anchor="middle" x="467.36" y="-431.3" font-family="Times,serif" font-size="14.00">grid</text>
</g>
<!-- grid&#45;&gt;3d&#45;engine -->
<g id="edge8" class="edge">
<title>grid&#45;&gt;3d&#45;engine</title>
<path fill="none" stroke="black" d="M467.36,-419.88C467.36,-408.64 467.36,-392.66 467.36,-379.37"/>
<polygon fill="black" stroke="black" points="470.86,-379 467.36,-369 463.86,-379 470.86,-379"/>
<text text-anchor="middle" x="501.86" y="-390.8" font-family="Times,serif" font-size="14.00">«include»</text>
</g>
<!-- hole -->
<g id="node11" class="node">
<title>hole</title>
<polygon fill="white" stroke="black" stroke-width="2" points="635.36,-531 535.36,-531 535.36,-501 635.36,-501 635.36,-531"/>
<text text-anchor="middle" x="585.36" y="-512.3" font-family="Times,serif" font-size="14.00">hole</text>
</g>
<!-- label -->
<g id="node12" class="node">
<title>label</title>
<polygon fill="white" stroke="black" stroke-width="2" points="635.36,-450 535.36,-450 535.36,-420 635.36,-420 635.36,-450"/>
<text text-anchor="middle" x="585.36" y="-431.3" font-family="Times,serif" font-size="14.00">label</text>
</g>
<!-- hole&#45;&gt;label -->
<g id="edge9" class="edge">
<title>hole&#45;&gt;label</title>
<path fill="none" stroke="black" d="M585.36,-500.88C585.36,-489.64 585.36,-473.66 585.36,-460.37"/>
<polygon fill="black" stroke="black" points="588.86,-460 585.36,-450 581.86,-460 588.86,-460"/>
<text text-anchor="middle" x="619.86" y="-471.8" font-family="Times,serif" font-size="14.00">«include»</text>
</g>
<!-- label&#45;&gt;3d&#45;engine -->
<g id="edge10" class="edge">
<title>label&#45;&gt;3d&#45;engine</title>
<path fill="none" stroke="black" d="M574.36,-419.81C565.92,-409.65 553.51,-396.19 540.36,-387 533.03,-381.87 524.74,-377.29 516.45,-373.31"/>
<polygon fill="black" stroke="black" points="517.69,-370.03 507.14,-369.08 514.79,-376.4 517.69,-370.03"/>
<text text-anchor="middle" x="591.86" y="-390.8" font-family="Times,serif" font-size="14.00">«include»</text>
</g>
<!-- limits -->
<g id="node13" class="node">
<title>limits</title>
<polygon fill="white" stroke="black" stroke-width="2" points="286.36,-111 186.36,-111 186.36,-81 286.36,-81 286.36,-111"/>
<text text-anchor="middle" x="236.36" y="-92.3" font-family="Times,serif" font-size="14.00">limits</text>
</g>
<!-- limits&#45;&gt;core -->
<g id="edge11" class="edge">
<title>limits&#45;&gt;core</title>
<path fill="none" stroke="black" d="M247.97,-80.84C256.85,-70.69 269.83,-57.24 283.36,-48 290.91,-42.84 299.43,-38.21 307.92,-34.19"/>
<polygon fill="black" stroke="black" points="309.39,-37.36 317.06,-30.05 306.5,-30.98 309.39,-37.36"/>
<text text-anchor="middle" x="317.86" y="-51.8" font-family="Times,serif" font-size="14.00">«include»</text>
</g>
<!-- mngm&#45;engine&#45;&gt;bbox&#45;engine -->
<g id="edge21" class="edge">
<title>mngm&#45;engine&#45;&gt;bbox&#45;engine</title>
<path fill="none" stroke="red" stroke-width="2" d="M161.54,-161.85C177.22,-151.44 199.84,-137.65 221.36,-129 225.05,-127.52 260.81,-119.06 294.6,-111.21"/>
<polygon fill="red" stroke="red" stroke-width="2" points="295.56,-114.58 304.52,-108.91 293.98,-107.76 295.56,-114.58"/>
<text text-anchor="middle" x="242.36" y="-132.8" font-family="Times,serif" font-size="14.00">«use»</text>
</g>
<!-- mngm&#45;engine&#45;&gt;unsafe_defs -->
<g id="edge12" class="edge">
<title>mngm&#45;engine&#45;&gt;unsafe_defs</title>
<path fill="none" stroke="black" d="M125.79,-161.78C121.24,-156.66 116.83,-150.53 114.36,-144 111.66,-136.84 110.8,-128.62 110.8,-121.07"/>
<polygon fill="black" stroke="black" points="114.3,-121.19 111.27,-111.04 107.31,-120.86 114.3,-121.19"/>
<text text-anchor="middle" x="148.86" y="-132.8" font-family="Times,serif" font-size="14.00">«include»</text>
</g>
<!-- quaternions -->
<g id="node15" class="node">
<title>quaternions</title>
<polygon fill="white" stroke="black" stroke-width="2" points="991.36,-531 889.36,-531 889.36,-501 991.36,-501 991.36,-531"/>
<text text-anchor="middle" x="940.36" y="-512.3" font-family="Times,serif" font-size="14.00">quaternions</text>
</g>
<!-- template -->
<g id="node16" class="node">
<title>template</title>
<polygon fill="white" stroke="black" stroke-width="2" points="1109.36,-531 1009.36,-531 1009.36,-501 1109.36,-501 1109.36,-531"/>
<text text-anchor="middle" x="1059.36" y="-512.3" font-family="Times,serif" font-size="14.00">template</text>
</g>
<!-- traits&#45;engine&#45;&gt;core -->
<g id="edge13" class="edge">
<title>traits&#45;engine&#45;&gt;core</title>
<path fill="none" stroke="black" d="M546.66,-209.73C552.2,-181.93 560.15,-119.82 531.36,-81 504.72,-45.08 455.96,-28.99 416.66,-21.8"/>
<polygon fill="black" stroke="black" points="417.07,-18.32 406.63,-20.12 415.91,-25.23 417.07,-18.32"/>
<text text-anchor="middle" x="585.86" y="-132.8" font-family="Times,serif" font-size="14.00">«include»</text>
</g>
<!-- type&#45;engine&#45;&gt;bbox&#45;engine -->
<g id="edge22" class="edge">
<title>type&#45;engine&#45;&gt;bbox&#45;engine</title>
<path fill="none" stroke="red" stroke-width="2" d="M424.01,-161.95C413.06,-157.25 401.75,-151.29 392.36,-144 383.81,-137.36 376.19,-128.22 370.2,-119.76"/>
<polygon fill="red" stroke="red" stroke-width="2" points="373.03,-117.7 364.56,-111.33 367.21,-121.59 373.03,-117.7"/>
<text text-anchor="middle" x="413.36" y="-132.8" font-family="Times,serif" font-size="14.00">«use»</text>
</g>
<!-- type&#45;engine&#45;&gt;core -->
<g id="edge14" class="edge">
<title>type&#45;engine&#45;&gt;core</title>
<path fill="none" stroke="black" d="M466.92,-161.85C465.39,-136.11 458.66,-81.2 429.36,-48 424.87,-42.91 419.42,-38.6 413.54,-34.95"/>
<polygon fill="black" stroke="black" points="415.14,-31.83 404.69,-30.07 411.76,-37.96 415.14,-31.83"/>
<text text-anchor="middle" x="492.86" y="-92.3" font-family="Times,serif" font-size="14.00">«include»</text>
</g>
<!-- unsafe_defs&#45;&gt;core -->
<g id="edge15" class="edge">
<title>unsafe_defs&#45;&gt;core</title>
<path fill="none" stroke="black" d="M132.85,-80.81C148.27,-70.24 170.74,-56.25 192.36,-48 225.62,-35.3 264.68,-27.43 296.33,-22.66"/>
<polygon fill="black" stroke="black" points="296.94,-26.11 306.34,-21.23 295.94,-19.19 296.94,-26.11"/>
<text text-anchor="middle" x="226.86" y="-51.8" font-family="Times,serif" font-size="14.00">«include»</text>
</g>
<!-- util&#45;&gt;3d&#45;engine -->
<g id="edge16" class="edge">
<title>util&#45;&gt;3d&#45;engine</title>
<path fill="none" stroke="black" d="M685.82,-419.98C671.65,-409.35 650.77,-395.22 630.36,-387 597.66,-373.82 559.01,-365.94 527.56,-361.29"/>
<polygon fill="black" stroke="black" points="528,-357.82 517.61,-359.89 527.03,-364.75 528,-357.82"/>
<text text-anchor="middle" x="691.86" y="-390.8" font-family="Times,serif" font-size="14.00">«include»</text>
</g>
</g>
</svg>
