<?xml version="1.0" encoding="UTF-8" standalone="no"?>
<!DOCTYPE svg PUBLIC "-//W3C//DTD SVG 1.1//EN"
 "http://www.w3.org/Graphics/SVG/1.1/DTD/svg11.dtd">
<!-- Generated by graphviz version 8.1.0 (20230707.0739)
 -->
<!-- Title: foundation Pages: 1 -->
<svg width="1285pt" height="464pt"
 viewBox="0.00 0.00 1285.00 464.00" xmlns="http://www.w3.org/2000/svg" xmlns:xlink="http://www.w3.org/1999/xlink">
<g id="graph0" class="graph" transform="scale(1 1) rotate(0) translate(4 460)">
<title>foundation</title>
<polygon fill="white" stroke="none" points="-4,4 -4,-460 1281,-460 1281,4 -4,4"/>
<!-- 2d&#45;engine -->
<g id="node1" class="node">
<title>2d&#45;engine</title>
<polygon fill="white" stroke="black" stroke-width="2" points="347,-208.5 247,-208.5 247,-178.5 347,-178.5 347,-208.5"/>
<text text-anchor="middle" x="297" y="-188.45" font-family="Times,serif" font-size="14.00">2d&#45;engine</text>
</g>
<!-- bbox&#45;engine -->
<g id="node4" class="node">
<title>bbox&#45;engine</title>
<polygon fill="white" stroke="black" stroke-width="2" points="493,-112.5 393,-112.5 393,-82.5 493,-82.5 493,-112.5"/>
<text text-anchor="middle" x="443" y="-92.45" font-family="Times,serif" font-size="14.00">bbox&#45;engine</text>
</g>
<!-- 2d&#45;engine&#45;&gt;bbox&#45;engine -->
<g id="edge22" class="edge">
<title>2d&#45;engine&#45;&gt;bbox&#45;engine</title>
<path fill="none" stroke="red" stroke-width="2" d="M323.2,-177.53C331.63,-172.41 340.89,-166.46 349,-160.5 365.37,-148.47 366.78,-142.05 383.5,-130.5 388.97,-126.72 394.93,-123.05 400.9,-119.62"/>
<polygon fill="red" stroke="red" stroke-width="2" points="403.2,-122.25 410.27,-114.36 399.82,-116.12 403.2,-122.25"/>
<text text-anchor="middle" x="399.75" y="-140.45" font-family="Times,serif" font-size="14.00">«use»</text>
</g>
<!-- mngm&#45;engine -->
<g id="node14" class="node">
<title>mngm&#45;engine</title>
<polygon fill="white" stroke="black" stroke-width="2" points="257,-112.5 157,-112.5 157,-82.5 257,-82.5 257,-112.5"/>
<text text-anchor="middle" x="207" y="-92.45" font-family="Times,serif" font-size="14.00">mngm&#45;engine</text>
</g>
<!-- 2d&#45;engine&#45;&gt;mngm&#45;engine -->
<g id="edge21" class="edge">
<title>2d&#45;engine&#45;&gt;mngm&#45;engine</title>
<path fill="none" stroke="red" stroke-width="2" d="M276.46,-177.74C269.82,-172.58 262.6,-166.57 256.5,-160.5 245.18,-149.24 233.96,-135.46 225.07,-123.75"/>
<polygon fill="red" stroke="red" stroke-width="2" points="227.1,-121.27 218.34,-115.32 221.48,-125.43 227.1,-121.27"/>
<text text-anchor="middle" x="272.75" y="-140.45" font-family="Times,serif" font-size="14.00">«use»</text>
</g>
<!-- unsafe_defs -->
<g id="node21" class="node">
<title>unsafe_defs</title>
<polygon fill="white" stroke="black" stroke-width="2" points="375,-112.5 275,-112.5 275,-82.5 375,-82.5 375,-112.5"/>
<text text-anchor="middle" x="325" y="-92.45" font-family="Times,serif" font-size="14.00">unsafe_defs</text>
</g>
<!-- 2d&#45;engine&#45;&gt;unsafe_defs -->
<g id="edge1" class="edge">
<title>2d&#45;engine&#45;&gt;unsafe_defs</title>
<path fill="none" stroke="black" d="M293.62,-177.67C291.38,-164.75 289.83,-145.76 295.75,-130.5 296.9,-127.54 298.46,-124.69 300.28,-121.98"/>
<polygon fill="black" stroke="black" points="303.6,-124.43 307.15,-114.45 298.15,-120.05 303.6,-124.43"/>
<text text-anchor="middle" x="322.63" y="-140.45" font-family="Times,serif" font-size="14.00">«include»</text>
</g>
<!-- 3d&#45;engine -->
<g id="node2" class="node">
<title>3d&#45;engine</title>
<polygon fill="white" stroke="black" stroke-width="2" points="713,-291 613,-291 613,-261 713,-261 713,-291"/>
<text text-anchor="middle" x="663" y="-270.95" font-family="Times,serif" font-size="14.00">3d&#45;engine</text>
</g>
<!-- 3d&#45;engine&#45;&gt;2d&#45;engine -->
<g id="edge2" class="edge">
<title>3d&#45;engine&#45;&gt;2d&#45;engine</title>
<path fill="none" stroke="black" d="M612.07,-274.16C557.12,-272.06 467.58,-265.15 393.75,-243 371.58,-236.35 348.34,-224.87 330.2,-214.75"/>
<polygon fill="black" stroke="black" points="332.1,-211.23 321.68,-209.3 328.63,-217.31 332.1,-211.23"/>
<text text-anchor="middle" x="420.63" y="-229.7" font-family="Times,serif" font-size="14.00">«include»</text>
</g>
<!-- polymorphic&#45;engine -->
<g id="node15" class="node">
<title>polymorphic&#45;engine</title>
<polygon fill="white" stroke="black" stroke-width="2" points="480.13,-373.5 353.88,-373.5 353.88,-343.5 480.13,-343.5 480.13,-373.5"/>
<text text-anchor="middle" x="417" y="-353.45" font-family="Times,serif" font-size="14.00">polymorphic&#45;engine</text>
</g>
<!-- 3d&#45;engine&#45;&gt;polymorphic&#45;engine -->
<g id="edge23" class="edge">
<title>3d&#45;engine&#45;&gt;polymorphic&#45;engine</title>
<path fill="none" stroke="red" stroke-width="2" d="M612.04,-287.93C591.81,-293.12 568.62,-300.14 548.5,-309 535.8,-314.59 534.63,-319.76 522,-325.5 511.3,-330.36 499.65,-334.74 488.15,-338.58"/>
<polygon fill="red" stroke="red" stroke-width="2" points="486.23,-336.16 477.77,-342.54 488.36,-342.83 486.23,-336.16"/>
<text text-anchor="middle" x="563.75" y="-312.2" font-family="Times,serif" font-size="14.00">«use»</text>
</g>
<!-- type&#45;engine -->
<g id="node19" class="node">
<title>type&#45;engine</title>
<polygon fill="white" stroke="black" stroke-width="2" points="624,-208.5 524,-208.5 524,-178.5 624,-178.5 624,-208.5"/>
<text text-anchor="middle" x="574" y="-188.45" font-family="Times,serif" font-size="14.00">type&#45;engine</text>
</g>
<!-- 3d&#45;engine&#45;&gt;type&#45;engine -->
<g id="edge24" class="edge">
<title>3d&#45;engine&#45;&gt;type&#45;engine</title>
<path fill="none" stroke="red" stroke-width="2" d="M633.21,-260.03C625.06,-255.2 616.54,-249.42 609.5,-243 602.16,-236.31 595.37,-227.9 589.74,-219.96"/>
<polygon fill="red" stroke="red" stroke-width="2" points="592.08,-217.66 583.61,-211.29 586.26,-221.55 592.08,-217.66"/>
<text text-anchor="middle" x="624.75" y="-229.7" font-family="Times,serif" font-size="14.00">«use»</text>
</g>
<!-- type_trait -->
<g id="node20" class="node">
<title>type_trait</title>
<polygon fill="white" stroke="black" stroke-width="2" points="713,-160.5 613,-160.5 613,-130.5 713,-130.5 713,-160.5"/>
<text text-anchor="middle" x="663" y="-140.45" font-family="Times,serif" font-size="14.00">type_trait</text>
</g>
<!-- 3d&#45;engine&#45;&gt;type_trait -->
<g id="edge3" class="edge">
<title>3d&#45;engine&#45;&gt;type_trait</title>
<path fill="none" stroke="black" d="M663,-260.01C663,-238.44 663,-198.36 663,-172.06"/>
<polygon fill="black" stroke="black" points="666.5,-172.4 663,-162.4 659.5,-172.4 666.5,-172.4"/>
<text text-anchor="middle" x="689.63" y="-229.7" font-family="Times,serif" font-size="14.00">«include»</text>
</g>
<!-- algo&#45;engine -->
<g id="node3" class="node">
<title>algo&#45;engine</title>
<polygon fill="white" stroke="black" stroke-width="2" points="1041,-373.5 941,-373.5 941,-343.5 1041,-343.5 1041,-373.5"/>
<text text-anchor="middle" x="991" y="-353.45" font-family="Times,serif" font-size="14.00">algo&#45;engine</text>
</g>
<!-- algo&#45;engine&#45;&gt;3d&#45;engine -->
<g id="edge4" class="edge">
<title>algo&#45;engine&#45;&gt;3d&#45;engine</title>
<path fill="none" stroke="black" d="M956.57,-342.53C930.71,-331.81 894.18,-317.78 861,-309 815.92,-297.07 763.83,-288.87 724.39,-283.75"/>
<polygon fill="black" stroke="black" points="724.98,-280.17 714.62,-282.39 724.1,-287.12 724.98,-280.17"/>
<text text-anchor="middle" x="937.63" y="-312.2" font-family="Times,serif" font-size="14.00">«include»</text>
</g>
<!-- core -->
<g id="node7" class="node">
<title>core</title>
<polygon fill="white" stroke="black" stroke-width="2" points="375,-30 275,-30 275,0 375,0 375,-30"/>
<text text-anchor="middle" x="325" y="-9.95" font-family="Times,serif" font-size="14.00">core</text>
</g>
<!-- bbox&#45;engine&#45;&gt;core -->
<g id="edge5" class="edge">
<title>bbox&#45;engine&#45;&gt;core</title>
<path fill="none" stroke="black" d="M425.68,-81.5C413.77,-71.5 397.39,-58.34 382,-48 375.99,-43.96 369.43,-39.95 362.97,-36.19"/>
<polygon fill="black" stroke="black" points="365.08,-32.8 354.66,-30.92 361.63,-38.89 365.08,-32.8"/>
<text text-anchor="middle" x="431.63" y="-51.2" font-family="Times,serif" font-size="14.00">«include»</text>
</g>
<!-- components -->
<g id="node5" class="node">
<title>components</title>
<polygon fill="white" stroke="black" stroke-width="2" points="466,-208.5 366,-208.5 366,-178.5 466,-178.5 466,-208.5"/>
<text text-anchor="middle" x="416" y="-188.45" font-family="Times,serif" font-size="14.00">components</text>
</g>
<!-- components&#45;&gt;bbox&#45;engine -->
<g id="edge6" class="edge">
<title>components&#45;&gt;bbox&#45;engine</title>
<path fill="none" stroke="black" d="M417.32,-177.67C418.74,-164.91 421.55,-146.15 426.75,-130.5 427.56,-128.06 428.54,-125.57 429.6,-123.11"/>
<polygon fill="black" stroke="black" points="433.09,-124.93 434.27,-114.4 426.78,-121.89 433.09,-124.93"/>
<text text-anchor="middle" x="452.63" y="-140.45" font-family="Times,serif" font-size="14.00">«include»</text>
</g>
<!-- connect -->
<g id="node6" class="node">
<title>connect</title>
<polygon fill="white" stroke="black" stroke-width="2" points="923,-456 823,-456 823,-426 923,-426 923,-456"/>
<text text-anchor="middle" x="873" y="-435.95" font-family="Times,serif" font-size="14.00">connect</text>
</g>
<!-- util -->
<g id="node22" class="node">
<title>util</title>
<polygon fill="white" stroke="black" stroke-width="2" points="923,-373.5 823,-373.5 823,-343.5 923,-343.5 923,-373.5"/>
<text text-anchor="middle" x="873" y="-353.45" font-family="Times,serif" font-size="14.00">util</text>
</g>
<!-- connect&#45;&gt;util -->
<g id="edge7" class="edge">
<title>connect&#45;&gt;util</title>
<path fill="none" stroke="black" d="M873,-425.24C873,-414.07 873,-398.46 873,-385.26"/>
<polygon fill="black" stroke="black" points="876.5,-385.44 873,-375.44 869.5,-385.44 876.5,-385.44"/>
<text text-anchor="middle" x="899.63" y="-394.7" font-family="Times,serif" font-size="14.00">«include»</text>
</g>
<!-- dimensions -->
<g id="node8" class="node">
<title>dimensions</title>
<polygon fill="white" stroke="black" stroke-width="2" points="1041,-456 941,-456 941,-426 1041,-426 1041,-456"/>
<text text-anchor="middle" x="991" y="-435.95" font-family="Times,serif" font-size="14.00">dimensions</text>
</g>
<!-- fillet -->
<g id="node9" class="node">
<title>fillet</title>
<polygon fill="white" stroke="black" stroke-width="2" points="1159,-373.5 1059,-373.5 1059,-343.5 1159,-343.5 1159,-373.5"/>
<text text-anchor="middle" x="1109" y="-353.45" font-family="Times,serif" font-size="14.00">fillet</text>
</g>
<!-- fillet&#45;&gt;3d&#45;engine -->
<g id="edge8" class="edge">
<title>fillet&#45;&gt;3d&#45;engine</title>
<path fill="none" stroke="black" d="M1072.84,-342.52C1044.74,-331.5 1004.52,-317.09 968,-309 884.88,-290.59 786.6,-282.7 724.53,-279.36"/>
<polygon fill="black" stroke="black" points="724.92,-275.83 714.75,-278.81 724.56,-282.82 724.92,-275.83"/>
<text text-anchor="middle" x="1049.63" y="-312.2" font-family="Times,serif" font-size="14.00">«include»</text>
</g>
<!-- grid -->
<g id="node10" class="node">
<title>grid</title>
<polygon fill="white" stroke="black" stroke-width="2" points="598,-373.5 498,-373.5 498,-343.5 598,-343.5 598,-373.5"/>
<text text-anchor="middle" x="548" y="-353.45" font-family="Times,serif" font-size="14.00">grid</text>
</g>
<!-- grid&#45;&gt;3d&#45;engine -->
<g id="edge9" class="edge">
<title>grid&#45;&gt;3d&#45;engine</title>
<path fill="none" stroke="black" d="M564.36,-342.69C575.83,-332.65 591.72,-319.36 606.75,-309 612.65,-304.93 619.11,-300.9 625.48,-297.14"/>
<polygon fill="black" stroke="black" points="626.74,-299.88 633.67,-291.86 623.25,-293.81 626.74,-299.88"/>
<text text-anchor="middle" x="632.63" y="-312.2" font-family="Times,serif" font-size="14.00">«include»</text>
</g>
<!-- hole -->
<g id="node11" class="node">
<title>hole</title>
<polygon fill="white" stroke="black" stroke-width="2" points="658,-456 558,-456 558,-426 658,-426 658,-456"/>
<text text-anchor="middle" x="608" y="-435.95" font-family="Times,serif" font-size="14.00">hole</text>
</g>
<!-- label -->
<g id="node12" class="node">
<title>label</title>
<polygon fill="white" stroke="black" stroke-width="2" points="716,-373.5 616,-373.5 616,-343.5 716,-343.5 716,-373.5"/>
<text text-anchor="middle" x="666" y="-353.45" font-family="Times,serif" font-size="14.00">label</text>
</g>
<!-- hole&#45;&gt;label -->
<g id="edge10" class="edge">
<title>hole&#45;&gt;label</title>
<path fill="none" stroke="black" d="M604.6,-425.39C603.05,-415.18 602.71,-401.62 608.75,-391.5 611.11,-387.54 614.16,-384.03 617.62,-380.93"/>
<polygon fill="black" stroke="black" points="619.4,-383.22 625.3,-374.42 615.2,-377.62 619.4,-383.22"/>
<text text-anchor="middle" x="634.63" y="-394.7" font-family="Times,serif" font-size="14.00">«include»</text>
</g>
<!-- label&#45;&gt;3d&#45;engine -->
<g id="edge11" class="edge">
<title>label&#45;&gt;3d&#45;engine</title>
<path fill="none" stroke="black" d="M665.45,-342.74C665.03,-331.57 664.45,-315.96 663.96,-302.76"/>
<polygon fill="black" stroke="black" points="667.43,-302.81 663.56,-292.94 660.43,-303.07 667.43,-302.81"/>
<text text-anchor="middle" x="690.63" y="-312.2" font-family="Times,serif" font-size="14.00">«include»</text>
</g>
<!-- limits -->
<g id="node13" class="node">
<title>limits</title>
<polygon fill="white" stroke="black" stroke-width="2" points="100,-112.5 0,-112.5 0,-82.5 100,-82.5 100,-112.5"/>
<text text-anchor="middle" x="50" y="-92.45" font-family="Times,serif" font-size="14.00">limits</text>
</g>
<!-- limits&#45;&gt;core -->
<g id="edge12" class="edge">
<title>limits&#45;&gt;core</title>
<path fill="none" stroke="black" d="M49.09,-81.56C49.3,-70.65 51.55,-56.34 60.75,-48 89.59,-21.85 194.93,-16.26 263.58,-15.49"/>
<polygon fill="black" stroke="black" points="263.29,-18.99 273.27,-15.41 263.24,-11.99 263.29,-18.99"/>
<text text-anchor="middle" x="87.63" y="-51.2" font-family="Times,serif" font-size="14.00">«include»</text>
</g>
<!-- mngm&#45;engine&#45;&gt;core -->
<g id="edge13" class="edge">
<title>mngm&#45;engine&#45;&gt;core</title>
<path fill="none" stroke="black" d="M223.97,-81.71C235.85,-71.67 252.29,-58.39 267.75,-48 273.78,-43.95 280.37,-39.92 286.85,-36.17"/>
<polygon fill="black" stroke="black" points="288.22,-38.85 295.2,-30.89 284.77,-32.76 288.22,-38.85"/>
<text text-anchor="middle" x="294.63" y="-51.2" font-family="Times,serif" font-size="14.00">«include»</text>
</g>
<!-- polymorphic&#45;engine&#45;&gt;3d&#45;engine -->
<g id="edge25" class="edge">
<title>polymorphic&#45;engine&#45;&gt;3d&#45;engine</title>
<path fill="none" stroke="red" stroke-width="2" d="M441.85,-342.51C450.02,-337.34 459.04,-331.38 467,-325.5 476.13,-318.76 476.23,-313.84 486.5,-309 521.71,-292.39 564.63,-284.37 599.33,-280.51"/>
<polygon fill="red" stroke="red" stroke-width="2" points="599.59,-283.7 609.19,-279.23 598.89,-276.74 599.59,-283.7"/>
<text text-anchor="middle" x="501.75" y="-312.2" font-family="Times,serif" font-size="14.00">«use»</text>
</g>
<!-- polymorphic&#45;engine&#45;&gt;bbox&#45;engine -->
<g id="edge26" class="edge">
<title>polymorphic&#45;engine&#45;&gt;bbox&#45;engine</title>
<path fill="none" stroke="red" stroke-width="2" d="M424.3,-342.7C436.93,-316.4 462.66,-259.49 475,-208.5 480.05,-187.65 478.89,-181.92 480,-160.5 480.69,-147.18 485.54,-142.63 480,-130.5 478.72,-127.7 477.06,-125.05 475.15,-122.56"/>
<polygon fill="red" stroke="red" stroke-width="2" points="477.71,-120.09 468.26,-115.31 472.66,-124.94 477.71,-120.09"/>
<text text-anchor="middle" x="484.75" y="-229.7" font-family="Times,serif" font-size="14.00">«use»</text>
</g>
<!-- polymorphic&#45;engine&#45;&gt;core -->
<g id="edge14" class="edge">
<title>polymorphic&#45;engine&#45;&gt;core</title>
<path fill="none" stroke="black" d="M353.22,-352.58C268.11,-344.22 128,-323.42 128,-277 128,-277 128,-277 128,-96.5 128,-37.23 205.35,-20.63 263.11,-16.5"/>
<polygon fill="black" stroke="black" points="263.24,-19.94 273.01,-15.85 262.82,-12.95 263.24,-19.94"/>
<text text-anchor="middle" x="154.63" y="-188.45" font-family="Times,serif" font-size="14.00">«include»</text>
</g>
<!-- polymorphic&#45;engine&#45;&gt;mngm&#45;engine -->
<g id="edge27" class="edge">
<title>polymorphic&#45;engine&#45;&gt;mngm&#45;engine</title>
<path fill="none" stroke="red" stroke-width="2" d="M390.5,-342.63C351.23,-319.23 277.95,-270.06 238,-208.5 221.64,-183.3 213.79,-149.42 210.1,-125.95"/>
<polygon fill="red" stroke="red" stroke-width="2" points="213.18,-124.6 208.35,-115.17 206.24,-125.55 213.18,-124.6"/>
<text text-anchor="middle" x="279.75" y="-229.7" font-family="Times,serif" font-size="14.00">«use»</text>
</g>
<!-- profile -->
<g id="node16" class="node">
<title>profile</title>
<polygon fill="white" stroke="black" stroke-width="2" points="789,-456 689,-456 689,-426 789,-426 789,-456"/>
<text text-anchor="middle" x="739" y="-435.95" font-family="Times,serif" font-size="14.00">profile</text>
</g>
<!-- profile&#45;&gt;3d&#45;engine -->
<g id="edge15" class="edge">
<title>profile&#45;&gt;3d&#45;engine</title>
<path fill="none" stroke="black" d="M741.19,-425.37C744.25,-399.27 746.87,-344.12 721,-309 717.96,-304.88 714.23,-301.22 710.13,-297.99"/>
<polygon fill="black" stroke="black" points="712.54,-294.72 702.31,-291.96 708.58,-300.49 712.54,-294.72"/>
<text text-anchor="middle" x="768.63" y="-353.45" font-family="Times,serif" font-size="14.00">«include»</text>
</g>
<!-- profile&#45;&gt;label -->
<g id="edge16" class="edge">
<title>profile&#45;&gt;label</title>
<path fill="none" stroke="black" d="M705.64,-425.05C698.01,-420.44 690.48,-414.76 684.75,-408 679.13,-401.37 675.09,-392.87 672.23,-384.85"/>
<polygon fill="black" stroke="black" points="675.3,-383.95 669.03,-375.41 668.61,-386 675.3,-383.95"/>
<text text-anchor="middle" x="710.63" y="-394.7" font-family="Times,serif" font-size="14.00">«include»</text>
</g>
<!-- quaternions -->
<g id="node17" class="node">
<title>quaternions</title>
<polygon fill="white" stroke="black" stroke-width="2" points="1159,-456 1059,-456 1059,-426 1159,-426 1159,-456"/>
<text text-anchor="middle" x="1109" y="-435.95" font-family="Times,serif" font-size="14.00">quaternions</text>
</g>
<!-- template -->
<g id="node18" class="node">
<title>template</title>
<polygon fill="white" stroke="black" stroke-width="2" points="1277,-456 1177,-456 1177,-426 1277,-426 1277,-456"/>
<text text-anchor="middle" x="1227" y="-435.95" font-family="Times,serif" font-size="14.00">template</text>
</g>
<!-- type&#45;engine&#45;&gt;bbox&#45;engine -->
<g id="edge28" class="edge">
<title>type&#45;engine&#45;&gt;bbox&#45;engine</title>
<path fill="none" stroke="red" stroke-width="2" d="M550.31,-177.79C542.97,-172.73 535.08,-166.75 528.5,-160.5 516.22,-148.84 518.05,-141.3 505,-130.5 500.29,-126.6 495.03,-123 489.61,-119.72"/>
<polygon fill="red" stroke="red" stroke-width="2" points="490.85,-116.29 480.42,-114.47 487.44,-122.4 490.85,-116.29"/>
<text text-anchor="middle" x="543.75" y="-140.45" font-family="Times,serif" font-size="14.00">«use»</text>
</g>
<!-- type&#45;engine&#45;&gt;core -->
<g id="edge17" class="edge">
<title>type&#45;engine&#45;&gt;core</title>
<path fill="none" stroke="black" d="M573.31,-177.73C572.1,-164.51 568.83,-145.02 560,-130.5 530.41,-81.86 512.9,-73.51 462,-48 438.6,-36.27 410.79,-28.76 386.36,-23.98"/>
<polygon fill="black" stroke="black" points="387.23,-20.4 376.76,-22.04 385.97,-27.28 387.23,-20.4"/>
<text text-anchor="middle" x="573.63" y="-92.45" font-family="Times,serif" font-size="14.00">«include»</text>
</g>
<!-- type_trait&#45;&gt;core -->
<g id="edge18" class="edge">
<title>type_trait&#45;&gt;core</title>
<path fill="none" stroke="black" d="M657.43,-129.69C651.99,-116.44 642.81,-96.94 631,-82.5 615.49,-63.53 610.58,-57.51 588,-48 552.81,-33.18 452.67,-24.12 386.61,-19.59"/>
<polygon fill="black" stroke="black" points="387.12,-16.05 376.91,-18.87 386.65,-23.03 387.12,-16.05"/>
<text text-anchor="middle" x="675.63" y="-92.45" font-family="Times,serif" font-size="14.00">«include»</text>
</g>
<!-- unsafe_defs&#45;&gt;core -->
<g id="edge19" class="edge">
<title>unsafe_defs&#45;&gt;core</title>
<path fill="none" stroke="black" d="M325,-81.74C325,-70.57 325,-54.96 325,-41.76"/>
<polygon fill="black" stroke="black" points="328.5,-41.94 325,-31.94 321.5,-41.94 328.5,-41.94"/>
<text text-anchor="middle" x="351.63" y="-51.2" font-family="Times,serif" font-size="14.00">«include»</text>
</g>
<!-- util&#45;&gt;3d&#45;engine -->
<g id="edge20" class="edge">
<title>util&#45;&gt;3d&#45;engine</title>
<path fill="none" stroke="black" d="M842.98,-342.68C821.77,-332.51 792.5,-319.08 766,-309 752.68,-303.93 738.18,-299.05 724.37,-294.69"/>
<polygon fill="black" stroke="black" points="725.57,-291.09 714.98,-291.47 723.49,-297.78 725.57,-291.09"/>
<text text-anchor="middle" x="830.63" y="-312.2" font-family="Times,serif" font-size="14.00">«include»</text>
</g>
</g>
</svg>
