<?xml version="1.0" encoding="UTF-8" standalone="no"?>
<!DOCTYPE svg PUBLIC "-//W3C//DTD SVG 1.1//EN"
 "http://www.w3.org/Graphics/SVG/1.1/DTD/svg11.dtd">
<!-- Generated by graphviz version 12.1.0 (20240811.2233)
 -->
<!-- Title: foundation Pages: 1 -->
<svg width="1016pt" height="464pt"
 viewBox="0.00 0.00 1016.25 464.00" xmlns="http://www.w3.org/2000/svg" xmlns:xlink="http://www.w3.org/1999/xlink">
<g id="graph0" class="graph" transform="scale(1 1) rotate(0) translate(4 460)">
<title>foundation</title>
<polygon fill="white" stroke="none" points="-4,4 -4,-460 1012.25,-460 1012.25,4 -4,4"/>
<!-- 2d&#45;engine -->
<g id="node1" class="node">
<title>2d&#45;engine</title>
<polygon fill="white" stroke="black" stroke-width="2" points="548,-208.5 448,-208.5 448,-178.5 548,-178.5 548,-208.5"/>
<text text-anchor="middle" x="498" y="-188.45" font-family="Times,serif" font-size="14.00">2d&#45;engine</text>
</g>
<!-- bbox&#45;engine -->
<g id="node4" class="node">
<title>bbox&#45;engine</title>
<polygon fill="white" stroke="black" stroke-width="2" points="795,-112.5 695,-112.5 695,-82.5 795,-82.5 795,-112.5"/>
<text text-anchor="middle" x="745" y="-92.45" font-family="Times,serif" font-size="14.00">bbox&#45;engine</text>
</g>
<!-- 2d&#45;engine&#45;&gt;bbox&#45;engine -->
<g id="edge20" class="edge">
<title>2d&#45;engine&#45;&gt;bbox&#45;engine</title>
<path fill="none" stroke="red" stroke-width="2" d="M537.41,-177.5C579.8,-161.37 647.34,-135.66 693.81,-117.98"/>
<polygon fill="red" stroke="red" stroke-width="2" points="694.8,-121.35 702.9,-114.52 692.31,-114.81 694.8,-121.35"/>
<text text-anchor="middle" x="673.81" y="-140.45" font-family="Times,serif" font-size="14.00">«use»</text>
</g>
<!-- mngm&#45;engine -->
<g id="node14" class="node">
<title>mngm&#45;engine</title>
<polygon fill="white" stroke="black" stroke-width="2" points="677,-112.5 577,-112.5 577,-82.5 677,-82.5 677,-112.5"/>
<text text-anchor="middle" x="627" y="-92.45" font-family="Times,serif" font-size="14.00">mngm&#45;engine</text>
</g>
<!-- 2d&#45;engine&#45;&gt;mngm&#45;engine -->
<g id="edge19" class="edge">
<title>2d&#45;engine&#45;&gt;mngm&#45;engine</title>
<path fill="none" stroke="red" stroke-width="2" d="M502.98,-177.68C508.41,-163.67 518.39,-142.98 533.5,-130.5 538.97,-125.98 550.68,-121.04 564.02,-116.42"/>
<polygon fill="red" stroke="red" stroke-width="2" points="564.76,-119.86 573.17,-113.41 562.57,-113.21 564.76,-119.86"/>
<text text-anchor="middle" x="549.25" y="-140.45" font-family="Times,serif" font-size="14.00">«use»</text>
</g>
<!-- unsafe_defs -->
<g id="node20" class="node">
<title>unsafe_defs</title>
<polygon fill="white" stroke="black" stroke-width="2" points="559,-112.5 459,-112.5 459,-82.5 559,-82.5 559,-112.5"/>
<text text-anchor="middle" x="509" y="-92.45" font-family="Times,serif" font-size="14.00">unsafe_defs</text>
</g>
<!-- 2d&#45;engine&#45;&gt;unsafe_defs -->
<g id="edge1" class="edge">
<title>2d&#45;engine&#45;&gt;unsafe_defs</title>
<path fill="none" stroke="black" d="M471.69,-177.83C465.69,-173.13 460.1,-167.34 456.75,-160.5 450.88,-148.53 450.23,-142.13 456.75,-130.5 458.82,-126.8 461.51,-123.48 464.58,-120.51"/>
<polygon fill="black" stroke="black" points="466.62,-123.36 472.24,-114.38 462.25,-117.89 466.62,-123.36"/>
<text text-anchor="middle" x="483.38" y="-140.45" font-family="Times,serif" font-size="14.00">«include»</text>
</g>
<!-- 3d&#45;engine -->
<g id="node2" class="node">
<title>3d&#45;engine</title>
<polygon fill="white" stroke="black" stroke-width="2" points="487,-291 387,-291 387,-261 487,-261 487,-291"/>
<text text-anchor="middle" x="437" y="-270.95" font-family="Times,serif" font-size="14.00">3d&#45;engine</text>
</g>
<!-- 3d&#45;engine&#45;&gt;2d&#45;engine -->
<g id="edge2" class="edge">
<title>3d&#45;engine&#45;&gt;2d&#45;engine</title>
<path fill="none" stroke="black" d="M448.19,-260.24C457.08,-248.51 469.68,-231.88 479.98,-218.28"/>
<polygon fill="black" stroke="black" points="482.51,-220.73 485.76,-210.65 476.93,-216.51 482.51,-220.73"/>
<text text-anchor="middle" x="499.59" y="-229.7" font-family="Times,serif" font-size="14.00">«include»</text>
</g>
<!-- polymorphic&#45;engine -->
<g id="node15" class="node">
<title>polymorphic&#45;engine</title>
<polygon fill="white" stroke="black" stroke-width="2" points="716.13,-373.5 589.88,-373.5 589.88,-343.5 716.13,-343.5 716.13,-373.5"/>
<text text-anchor="middle" x="653" y="-353.45" font-family="Times,serif" font-size="14.00">polymorphic&#45;engine</text>
</g>
<!-- 3d&#45;engine&#45;&gt;polymorphic&#45;engine -->
<g id="edge21" class="edge">
<title>3d&#45;engine&#45;&gt;polymorphic&#45;engine</title>
<path fill="none" stroke="red" stroke-width="2" d="M474.83,-291.88C486.36,-296.87 498.91,-302.76 510,-309 521.12,-315.26 521.94,-320.1 533.5,-325.5 547.03,-331.82 562.03,-337.07 576.69,-341.36"/>
<polygon fill="red" stroke="red" stroke-width="2" points="575.41,-344.63 585.98,-343.93 577.28,-337.89 575.41,-344.63"/>
<text text-anchor="middle" x="549.25" y="-312.2" font-family="Times,serif" font-size="14.00">«use»</text>
</g>
<!-- traits&#45;engine -->
<g id="node18" class="node">
<title>traits&#45;engine</title>
<polygon fill="white" stroke="black" stroke-width="2" points="433,-160.5 333,-160.5 333,-130.5 433,-130.5 433,-160.5"/>
<text text-anchor="middle" x="383" y="-140.45" font-family="Times,serif" font-size="14.00">traits&#45;engine</text>
</g>
<!-- 3d&#45;engine&#45;&gt;traits&#45;engine -->
<g id="edge3" class="edge">
<title>3d&#45;engine&#45;&gt;traits&#45;engine</title>
<path fill="none" stroke="black" d="M418.58,-260.24C413.42,-255.27 408.26,-249.35 404.75,-243 392.64,-221.12 387.27,-192.91 384.89,-172.65"/>
<polygon fill="black" stroke="black" points="388.4,-172.58 383.93,-162.98 381.43,-173.27 388.4,-172.58"/>
<text text-anchor="middle" x="431.38" y="-229.7" font-family="Times,serif" font-size="14.00">«include»</text>
</g>
<!-- type&#45;engine -->
<g id="node19" class="node">
<title>type&#45;engine</title>
<polygon fill="white" stroke="black" stroke-width="2" points="880,-208.5 780,-208.5 780,-178.5 880,-178.5 880,-208.5"/>
<text text-anchor="middle" x="830" y="-188.45" font-family="Times,serif" font-size="14.00">type&#45;engine</text>
</g>
<!-- 3d&#45;engine&#45;&gt;type&#45;engine -->
<g id="edge22" class="edge">
<title>3d&#45;engine&#45;&gt;type&#45;engine</title>
<path fill="none" stroke="red" stroke-width="2" d="M480.23,-260.12C520.59,-246.27 575.36,-227.6 580.5,-226.5 659.69,-209.61 684.71,-221.12 766.47,-209.03"/>
<polygon fill="red" stroke="red" stroke-width="2" points="766.92,-212.5 776.25,-207.49 765.83,-205.58 766.92,-212.5"/>
<text text-anchor="middle" x="596.25" y="-229.7" font-family="Times,serif" font-size="14.00">«use»</text>
</g>
<!-- algo&#45;engine -->
<g id="node3" class="node">
<title>algo&#45;engine</title>
<polygon fill="white" stroke="black" stroke-width="2" points="100,-373.5 0,-373.5 0,-343.5 100,-343.5 100,-373.5"/>
<text text-anchor="middle" x="50" y="-353.45" font-family="Times,serif" font-size="14.00">algo&#45;engine</text>
</g>
<!-- algo&#45;engine&#45;&gt;3d&#45;engine -->
<g id="edge4" class="edge">
<title>algo&#45;engine&#45;&gt;3d&#45;engine</title>
<path fill="none" stroke="black" d="M77.3,-342.51C98.79,-331.42 129.84,-316.91 158.75,-309 231.26,-289.17 317.67,-281.62 374.75,-278.75"/>
<polygon fill="black" stroke="black" points="374.77,-282.25 384.6,-278.29 374.45,-275.26 374.77,-282.25"/>
<text text-anchor="middle" x="185.38" y="-312.2" font-family="Times,serif" font-size="14.00">«include»</text>
</g>
<!-- core -->
<g id="node7" class="node">
<title>core</title>
<polygon fill="white" stroke="black" stroke-width="2" points="677,-30 577,-30 577,0 677,0 677,-30"/>
<text text-anchor="middle" x="627" y="-9.95" font-family="Times,serif" font-size="14.00">core</text>
</g>
<!-- bbox&#45;engine&#45;&gt;core -->
<g id="edge5" class="edge">
<title>bbox&#45;engine&#45;&gt;core</title>
<path fill="none" stroke="black" d="M727.68,-81.5C715.77,-71.5 699.39,-58.34 684,-48 678.13,-44.05 671.73,-40.13 665.42,-36.46"/>
<polygon fill="black" stroke="black" points="667.4,-33.55 656.98,-31.66 663.95,-39.64 667.4,-33.55"/>
<text text-anchor="middle" x="733.13" y="-51.2" font-family="Times,serif" font-size="14.00">«include»</text>
</g>
<!-- components -->
<g id="node5" class="node">
<title>components</title>
<polygon fill="white" stroke="black" stroke-width="2" points="762,-208.5 662,-208.5 662,-178.5 762,-178.5 762,-208.5"/>
<text text-anchor="middle" x="712" y="-188.45" font-family="Times,serif" font-size="14.00">components</text>
</g>
<!-- components&#45;&gt;bbox&#45;engine -->
<g id="edge6" class="edge">
<title>components&#45;&gt;bbox&#45;engine</title>
<path fill="none" stroke="black" d="M709.11,-177.58C707.3,-164.6 706.37,-145.57 712.75,-130.5 714.02,-127.5 715.72,-124.64 717.67,-121.95"/>
<polygon fill="black" stroke="black" points="720.12,-124.47 724.06,-114.64 714.85,-119.86 720.12,-124.47"/>
<text text-anchor="middle" x="739.38" y="-140.45" font-family="Times,serif" font-size="14.00">«include»</text>
</g>
<!-- connect -->
<g id="node6" class="node">
<title>connect</title>
<polygon fill="white" stroke="black" stroke-width="2" points="454,-456 354,-456 354,-426 454,-426 454,-456"/>
<text text-anchor="middle" x="404" y="-435.95" font-family="Times,serif" font-size="14.00">connect</text>
</g>
<!-- util -->
<g id="node21" class="node">
<title>util</title>
<polygon fill="white" stroke="black" stroke-width="2" points="454,-373.5 354,-373.5 354,-343.5 454,-343.5 454,-373.5"/>
<text text-anchor="middle" x="404" y="-353.45" font-family="Times,serif" font-size="14.00">util</text>
</g>
<!-- connect&#45;&gt;util -->
<g id="edge7" class="edge">
<title>connect&#45;&gt;util</title>
<path fill="none" stroke="black" d="M404,-425.24C404,-414.18 404,-398.78 404,-385.66"/>
<polygon fill="black" stroke="black" points="407.5,-385.96 404,-375.96 400.5,-385.96 407.5,-385.96"/>
<text text-anchor="middle" x="430.63" y="-394.7" font-family="Times,serif" font-size="14.00">«include»</text>
</g>
<!-- dimensions -->
<g id="node8" class="node">
<title>dimensions</title>
<polygon fill="white" stroke="black" stroke-width="2" points="690,-456 590,-456 590,-426 690,-426 690,-456"/>
<text text-anchor="middle" x="640" y="-435.95" font-family="Times,serif" font-size="14.00">dimensions</text>
</g>
<!-- fillet -->
<g id="node9" class="node">
<title>fillet</title>
<polygon fill="white" stroke="black" stroke-width="2" points="218,-373.5 118,-373.5 118,-343.5 218,-343.5 218,-373.5"/>
<text text-anchor="middle" x="168" y="-353.45" font-family="Times,serif" font-size="14.00">fillet</text>
</g>
<!-- fillet&#45;&gt;3d&#45;engine -->
<g id="edge8" class="edge">
<title>fillet&#45;&gt;3d&#45;engine</title>
<path fill="none" stroke="black" d="M187.56,-342.68C203.07,-331.68 225.73,-317.21 247.75,-309 288.64,-293.75 337.21,-285.73 374.92,-281.53"/>
<polygon fill="black" stroke="black" points="375.16,-285.03 384.74,-280.51 374.43,-278.06 375.16,-285.03"/>
<text text-anchor="middle" x="274.38" y="-312.2" font-family="Times,serif" font-size="14.00">«include»</text>
</g>
<!-- grid -->
<g id="node10" class="node">
<title>grid</title>
<polygon fill="white" stroke="black" stroke-width="2" points="336,-373.5 236,-373.5 236,-343.5 336,-343.5 336,-373.5"/>
<text text-anchor="middle" x="286" y="-353.45" font-family="Times,serif" font-size="14.00">grid</text>
</g>
<!-- grid&#45;&gt;3d&#45;engine -->
<g id="edge9" class="edge">
<title>grid&#45;&gt;3d&#45;engine</title>
<path fill="none" stroke="black" d="M293.11,-342.67C299.05,-331.81 308.51,-317.53 320.75,-309 336.75,-297.84 356.51,-290.57 375.16,-285.83"/>
<polygon fill="black" stroke="black" points="375.86,-289.26 384.81,-283.6 374.28,-282.44 375.86,-289.26"/>
<text text-anchor="middle" x="347.38" y="-312.2" font-family="Times,serif" font-size="14.00">«include»</text>
</g>
<!-- hole -->
<g id="node11" class="node">
<title>hole</title>
<polygon fill="white" stroke="black" stroke-width="2" points="572,-456 472,-456 472,-426 572,-426 572,-456"/>
<text text-anchor="middle" x="522" y="-435.95" font-family="Times,serif" font-size="14.00">hole</text>
</g>
<!-- label -->
<g id="node12" class="node">
<title>label</title>
<polygon fill="white" stroke="black" stroke-width="2" points="572,-373.5 472,-373.5 472,-343.5 572,-343.5 572,-373.5"/>
<text text-anchor="middle" x="522" y="-353.45" font-family="Times,serif" font-size="14.00">label</text>
</g>
<!-- hole&#45;&gt;label -->
<g id="edge10" class="edge">
<title>hole&#45;&gt;label</title>
<path fill="none" stroke="black" d="M522,-425.24C522,-414.18 522,-398.78 522,-385.66"/>
<polygon fill="black" stroke="black" points="525.5,-385.96 522,-375.96 518.5,-385.96 525.5,-385.96"/>
<text text-anchor="middle" x="548.63" y="-394.7" font-family="Times,serif" font-size="14.00">«include»</text>
</g>
<!-- label&#45;&gt;3d&#45;engine -->
<g id="edge11" class="edge">
<title>label&#45;&gt;3d&#45;engine</title>
<path fill="none" stroke="black" d="M479.95,-342.51C471.48,-338.03 463.21,-332.42 456.75,-325.5 450.76,-319.08 446.48,-310.61 443.48,-302.55"/>
<polygon fill="black" stroke="black" points="446.84,-301.59 440.48,-293.11 440.17,-303.7 446.84,-301.59"/>
<text text-anchor="middle" x="483.38" y="-312.2" font-family="Times,serif" font-size="14.00">«include»</text>
</g>
<!-- limits -->
<g id="node13" class="node">
<title>limits</title>
<polygon fill="white" stroke="black" stroke-width="2" points="352,-112.5 252,-112.5 252,-82.5 352,-82.5 352,-112.5"/>
<text text-anchor="middle" x="302" y="-92.45" font-family="Times,serif" font-size="14.00">limits</text>
</g>
<!-- limits&#45;&gt;core -->
<g id="edge12" class="edge">
<title>limits&#45;&gt;core</title>
<path fill="none" stroke="black" d="M303.61,-81.77C305.66,-70.66 310.28,-56.01 320.75,-48 357.83,-19.64 486.87,-15.08 565.13,-15.05"/>
<polygon fill="black" stroke="black" points="564.76,-18.55 574.77,-15.07 564.78,-11.55 564.76,-18.55"/>
<text text-anchor="middle" x="347.38" y="-51.2" font-family="Times,serif" font-size="14.00">«include»</text>
</g>
<!-- mngm&#45;engine&#45;&gt;core -->
<g id="edge13" class="edge">
<title>mngm&#45;engine&#45;&gt;core</title>
<path fill="none" stroke="black" d="M627,-81.74C627,-70.68 627,-55.28 627,-42.16"/>
<polygon fill="black" stroke="black" points="630.5,-42.46 627,-32.46 623.5,-42.46 630.5,-42.46"/>
<text text-anchor="middle" x="653.63" y="-51.2" font-family="Times,serif" font-size="14.00">«include»</text>
</g>
<!-- polymorphic&#45;engine&#45;&gt;3d&#45;engine -->
<g id="edge23" class="edge">
<title>polymorphic&#45;engine&#45;&gt;3d&#45;engine</title>
<path fill="none" stroke="red" stroke-width="2" d="M620.67,-342.65C610.22,-337.54 598.71,-331.57 588.5,-325.5 577.53,-318.98 576.61,-314.3 565,-309 544.8,-299.77 521.55,-292.95 500.45,-288.02"/>
<polygon fill="red" stroke="red" stroke-width="2" points="501.45,-284.66 490.94,-285.92 499.95,-291.5 501.45,-284.66"/>
<text text-anchor="middle" x="604.25" y="-312.2" font-family="Times,serif" font-size="14.00">«use»</text>
</g>
<!-- polymorphic&#45;engine&#45;&gt;bbox&#45;engine -->
<g id="edge24" class="edge">
<title>polymorphic&#45;engine&#45;&gt;bbox&#45;engine</title>
<path fill="none" stroke="red" stroke-width="2" d="M702.29,-342.51C759.01,-322.3 849.41,-280.32 889,-208.5 912.17,-166.47 856.58,-135.46 807.87,-117.27"/>
<polygon fill="red" stroke="red" stroke-width="2" points="809.13,-114.01 798.54,-113.94 806.78,-120.6 809.13,-114.01"/>
<text text-anchor="middle" x="892.44" y="-229.7" font-family="Times,serif" font-size="14.00">«use»</text>
</g>
<!-- polymorphic&#45;engine&#45;&gt;core -->
<g id="edge14" class="edge">
<title>polymorphic&#45;engine&#45;&gt;core</title>
<path fill="none" stroke="black" d="M717.05,-353.34C805.7,-345.79 955,-325.84 955,-277 955,-277 955,-277 955,-96.5 955,-42.34 784.19,-24.43 689.1,-18.65"/>
<polygon fill="black" stroke="black" points="689.59,-15.17 679.4,-18.09 689.18,-22.16 689.59,-15.17"/>
<text text-anchor="middle" x="981.63" y="-188.45" font-family="Times,serif" font-size="14.00">«include»</text>
</g>
<!-- polymorphic&#45;engine&#45;&gt;mngm&#45;engine -->
<g id="edge25" class="edge">
<title>polymorphic&#45;engine&#45;&gt;mngm&#45;engine</title>
<path fill="none" stroke="red" stroke-width="2" d="M651.53,-342.83C647.33,-301 635.24,-180.58 629.76,-125.99"/>
<polygon fill="red" stroke="red" stroke-width="2" points="633.27,-125.94 628.79,-116.34 626.31,-126.64 633.27,-125.94"/>
<text text-anchor="middle" x="657.25" y="-229.7" font-family="Times,serif" font-size="14.00">«use»</text>
</g>
<!-- quaternions -->
<g id="node16" class="node">
<title>quaternions</title>
<polygon fill="white" stroke="black" stroke-width="2" points="808,-456 708,-456 708,-426 808,-426 808,-456"/>
<text text-anchor="middle" x="758" y="-435.95" font-family="Times,serif" font-size="14.00">quaternions</text>
</g>
<!-- template -->
<g id="node17" class="node">
<title>template</title>
<polygon fill="white" stroke="black" stroke-width="2" points="926,-456 826,-456 826,-426 926,-426 926,-456"/>
<text text-anchor="middle" x="876" y="-435.95" font-family="Times,serif" font-size="14.00">template</text>
</g>
<!-- traits&#45;engine&#45;&gt;core -->
<g id="edge15" class="edge">
<title>traits&#45;engine&#45;&gt;core</title>
<path fill="none" stroke="black" d="M382.26,-129.52C382.41,-115.58 384.9,-95.12 396.75,-82.5 439.91,-36.54 512.65,-21.69 564.83,-17.22"/>
<polygon fill="black" stroke="black" points="565.07,-20.71 574.79,-16.49 564.56,-13.73 565.07,-20.71"/>
<text text-anchor="middle" x="423.38" y="-92.45" font-family="Times,serif" font-size="14.00">«include»</text>
</g>
<!-- type&#45;engine&#45;&gt;bbox&#45;engine -->
<g id="edge26" class="edge">
<title>type&#45;engine&#45;&gt;bbox&#45;engine</title>
<path fill="none" stroke="red" stroke-width="2" d="M808.86,-177.59C802.32,-172.52 795.32,-166.59 789.5,-160.5 783.54,-154.26 772.14,-138.33 762.36,-124.18"/>
<polygon fill="red" stroke="red" stroke-width="2" points="765.25,-122.21 756.72,-115.93 759.48,-126.16 765.25,-122.21"/>
<text text-anchor="middle" x="805.25" y="-140.45" font-family="Times,serif" font-size="14.00">«use»</text>
</g>
<!-- type&#45;engine&#45;&gt;core -->
<g id="edge16" class="edge">
<title>type&#45;engine&#45;&gt;core</title>
<path fill="none" stroke="black" d="M829.79,-177.63C828.8,-155.14 824.16,-111.98 804,-82.5 778.48,-45.18 729.19,-28.77 689.09,-21.57"/>
<polygon fill="black" stroke="black" points="689.71,-18.12 679.28,-19.98 688.59,-25.03 689.71,-18.12"/>
<text text-anchor="middle" x="844.79" y="-92.45" font-family="Times,serif" font-size="14.00">«include»</text>
</g>
<!-- unsafe_defs&#45;&gt;core -->
<g id="edge17" class="edge">
<title>unsafe_defs&#45;&gt;core</title>
<path fill="none" stroke="black" d="M525.97,-81.71C537.85,-71.67 554.29,-58.39 569.75,-48 575.64,-44.04 582.06,-40.11 588.4,-36.43"/>
<polygon fill="black" stroke="black" points="589.9,-39.6 596.89,-31.64 586.46,-33.51 589.9,-39.6"/>
<text text-anchor="middle" x="596.38" y="-51.2" font-family="Times,serif" font-size="14.00">«include»</text>
</g>
<!-- util&#45;&gt;3d&#45;engine -->
<g id="edge18" class="edge">
<title>util&#45;&gt;3d&#45;engine</title>
<path fill="none" stroke="black" d="M389.25,-342.76C381.33,-332.98 374.37,-319.98 380.75,-309 382.91,-305.29 385.68,-301.97 388.83,-299.01"/>
<polygon fill="black" stroke="black" points="390.93,-301.81 396.7,-292.92 386.65,-296.27 390.93,-301.81"/>
<text text-anchor="middle" x="407.38" y="-312.2" font-family="Times,serif" font-size="14.00">«include»</text>
</g>
</g>
</svg>
