<?xml version="1.0" encoding="UTF-8" standalone="no"?>
<!DOCTYPE svg PUBLIC "-//W3C//DTD SVG 1.1//EN"
 "http://www.w3.org/Graphics/SVG/1.1/DTD/svg11.dtd">
<!-- Generated by graphviz version 5.0.0 (0)
 -->
<!-- Title: foundation Pages: 1 -->
<svg width="934pt" height="458pt"
 viewBox="0.00 0.00 934.00 458.00" xmlns="http://www.w3.org/2000/svg" xmlns:xlink="http://www.w3.org/1999/xlink">
<g id="graph0" class="graph" transform="scale(1 1) rotate(0) translate(4 454)">
<title>foundation</title>
<polygon fill="white" stroke="transparent" points="-4,4 -4,-454 930,-454 930,4 -4,4"/>
<!-- 2d&#45;engine -->
<g id="node1" class="node">
<title>2d&#45;engine</title>
<polygon fill="white" stroke="black" stroke-width="2" points="453,-207 353,-207 353,-177 453,-177 453,-207"/>
<text text-anchor="middle" x="403" y="-188.3" font-family="Times,serif" font-size="14.00">2d&#45;engine</text>
</g>
<!-- bbox&#45;engine -->
<g id="node4" class="node">
<title>bbox&#45;engine</title>
<polygon fill="white" stroke="black" stroke-width="2" points="525,-111 421,-111 421,-81 525,-81 525,-111"/>
<text text-anchor="middle" x="473" y="-92.3" font-family="Times,serif" font-size="14.00">bbox&#45;engine</text>
</g>
<!-- 2d&#45;engine&#45;&gt;bbox&#45;engine -->
<g id="edge22" class="edge">
<title>2d&#45;engine&#45;&gt;bbox&#45;engine</title>
<path fill="none" stroke="red" stroke-width="2" d="M407.74,-176.94C412.66,-163.67 421.29,-143.68 433,-129 436.24,-124.93 440.09,-121.05 444.1,-117.49"/>
<polygon fill="red" stroke="red" stroke-width="2" points="446.41,-120.12 451.9,-111.05 441.96,-114.72 446.41,-120.12"/>
<text text-anchor="middle" x="454" y="-140.3" font-family="Times,serif" font-size="14.00">«use»</text>
</g>
<!-- mngm&#45;engine -->
<g id="node14" class="node">
<title>mngm&#45;engine</title>
<polygon fill="white" stroke="black" stroke-width="2" points="267,-111 153,-111 153,-81 267,-81 267,-111"/>
<text text-anchor="middle" x="210" y="-92.3" font-family="Times,serif" font-size="14.00">mngm&#45;engine</text>
</g>
<!-- 2d&#45;engine&#45;&gt;mngm&#45;engine -->
<g id="edge21" class="edge">
<title>2d&#45;engine&#45;&gt;mngm&#45;engine</title>
<path fill="none" stroke="red" stroke-width="2" d="M352.7,-179.27C327,-172.85 298.71,-165 287,-159 266.25,-148.37 245.84,-131.56 231.25,-118.13"/>
<polygon fill="red" stroke="red" stroke-width="2" points="233.45,-115.39 223.78,-111.07 228.65,-120.48 233.45,-115.39"/>
<text text-anchor="middle" x="308" y="-140.3" font-family="Times,serif" font-size="14.00">«use»</text>
</g>
<!-- unsafe_defs -->
<g id="node18" class="node">
<title>unsafe_defs</title>
<polygon fill="white" stroke="black" stroke-width="2" points="387.5,-111 286.5,-111 286.5,-81 387.5,-81 387.5,-111"/>
<text text-anchor="middle" x="337" y="-92.3" font-family="Times,serif" font-size="14.00">unsafe_defs</text>
</g>
<!-- 2d&#45;engine&#45;&gt;unsafe_defs -->
<g id="edge1" class="edge">
<title>2d&#45;engine&#45;&gt;unsafe_defs</title>
<path fill="none" stroke="black" d="M359.91,-176.85C352.08,-172.35 344.87,-166.52 340,-159 332.84,-147.95 331.83,-133.32 332.74,-121.05"/>
<polygon fill="black" stroke="black" points="336.22,-121.36 333.91,-111.02 329.27,-120.54 336.22,-121.36"/>
<text text-anchor="middle" x="374.5" y="-140.3" font-family="Times,serif" font-size="14.00">«include»</text>
</g>
<!-- 3d&#45;engine -->
<g id="node2" class="node">
<title>3d&#45;engine</title>
<polygon fill="white" stroke="black" stroke-width="2" points="454,-288 354,-288 354,-258 454,-258 454,-288"/>
<text text-anchor="middle" x="404" y="-269.3" font-family="Times,serif" font-size="14.00">3d&#45;engine</text>
</g>
<!-- 3d&#45;engine&#45;&gt;2d&#45;engine -->
<g id="edge23" class="edge">
<title>3d&#45;engine&#45;&gt;2d&#45;engine</title>
<path fill="none" stroke="red" stroke-width="2" d="M403.82,-257.88C403.68,-246.64 403.48,-230.66 403.31,-217.37"/>
<polygon fill="red" stroke="red" stroke-width="2" points="406.8,-216.96 403.18,-207 399.8,-217.04 406.8,-216.96"/>
<text text-anchor="middle" x="425" y="-228.8" font-family="Times,serif" font-size="14.00">«use»</text>
</g>
<!-- 3d&#45;engine&#45;&gt;bbox&#45;engine -->
<g id="edge24" class="edge">
<title>3d&#45;engine&#45;&gt;bbox&#45;engine</title>
<path fill="none" stroke="red" stroke-width="2" d="M430.21,-257.84C437.39,-252.95 444.66,-246.94 450,-240 476.5,-205.57 477.7,-152.47 475.69,-121.59"/>
<polygon fill="red" stroke="red" stroke-width="2" points="479.15,-120.98 474.84,-111.3 472.17,-121.55 479.15,-120.98"/>
<text text-anchor="middle" x="495" y="-188.3" font-family="Times,serif" font-size="14.00">«use»</text>
</g>
<!-- 3d&#45;engine&#45;&gt;mngm&#45;engine -->
<g id="edge25" class="edge">
<title>3d&#45;engine&#45;&gt;mngm&#45;engine</title>
<path fill="none" stroke="red" stroke-width="2" d="M353.64,-269.17C311.15,-263.78 252.78,-248.7 224,-207 206.55,-181.72 205.41,-145.22 207.03,-121.31"/>
<polygon fill="red" stroke="red" stroke-width="2" points="210.53,-121.56 207.92,-111.29 203.55,-120.94 210.53,-121.56"/>
<text text-anchor="middle" x="245" y="-188.3" font-family="Times,serif" font-size="14.00">«use»</text>
</g>
<!-- type_trait -->
<g id="node17" class="node">
<title>type_trait</title>
<polygon fill="white" stroke="black" stroke-width="2" points="729,-159 629,-159 629,-129 729,-129 729,-159"/>
<text text-anchor="middle" x="679" y="-140.3" font-family="Times,serif" font-size="14.00">type_trait</text>
</g>
<!-- 3d&#45;engine&#45;&gt;type_trait -->
<g id="edge3" class="edge">
<title>3d&#45;engine&#45;&gt;type_trait</title>
<path fill="none" stroke="black" d="M454.19,-260.01C457.17,-259.32 460.12,-258.65 463,-258 551.22,-238.08 595.63,-270.53 660,-207 670.08,-197.05 674.84,-181.91 677.08,-169.09"/>
<polygon fill="black" stroke="black" points="680.57,-169.39 678.42,-159.02 673.63,-168.47 680.57,-169.39"/>
<text text-anchor="middle" x="672.5" y="-228.8" font-family="Times,serif" font-size="14.00">«include»</text>
</g>
<!-- 3d&#45;engine&#45;&gt;unsafe_defs -->
<g id="edge2" class="edge">
<title>3d&#45;engine&#45;&gt;unsafe_defs</title>
<path fill="none" stroke="black" d="M353.76,-260.54C325.35,-251.21 292.16,-234.87 275,-207 256.22,-176.51 286.64,-140.15 311.12,-117.82"/>
<polygon fill="black" stroke="black" points="313.59,-120.32 318.8,-111.09 308.97,-115.06 313.59,-120.32"/>
<text text-anchor="middle" x="309.5" y="-188.3" font-family="Times,serif" font-size="14.00">«include»</text>
</g>
<!-- algo&#45;engine -->
<g id="node3" class="node">
<title>algo&#45;engine</title>
<polygon fill="white" stroke="black" stroke-width="2" points="808,-369 708,-369 708,-339 808,-339 808,-369"/>
<text text-anchor="middle" x="758" y="-350.3" font-family="Times,serif" font-size="14.00">algo&#45;engine</text>
</g>
<!-- algo&#45;engine&#45;&gt;3d&#45;engine -->
<g id="edge4" class="edge">
<title>algo&#45;engine&#45;&gt;3d&#45;engine</title>
<path fill="none" stroke="black" d="M736.83,-338.87C719.21,-327.89 693.04,-313.32 668,-306 583.21,-281.21 555.2,-301.13 464.03,-287.94"/>
<polygon fill="black" stroke="black" points="464.53,-284.48 454.11,-286.41 463.46,-291.4 464.53,-284.48"/>
<text text-anchor="middle" x="738.5" y="-309.8" font-family="Times,serif" font-size="14.00">«include»</text>
</g>
<!-- core -->
<g id="node7" class="node">
<title>core</title>
<polygon fill="white" stroke="black" stroke-width="2" points="387,-30 287,-30 287,0 387,0 387,-30"/>
<text text-anchor="middle" x="337" y="-11.3" font-family="Times,serif" font-size="14.00">core</text>
</g>
<!-- bbox&#45;engine&#45;&gt;core -->
<g id="edge5" class="edge">
<title>bbox&#45;engine&#45;&gt;core</title>
<path fill="none" stroke="black" d="M456.35,-80.93C444.05,-70.95 426.63,-57.68 410,-48 401.48,-43.04 392.05,-38.36 382.87,-34.2"/>
<polygon fill="black" stroke="black" points="384.01,-30.87 373.45,-30.04 381.19,-37.28 384.01,-30.87"/>
<text text-anchor="middle" x="466.5" y="-51.8" font-family="Times,serif" font-size="14.00">«include»</text>
</g>
<!-- components -->
<g id="node5" class="node">
<title>components</title>
<polygon fill="white" stroke="black" stroke-width="2" points="651,-207 549,-207 549,-177 651,-177 651,-207"/>
<text text-anchor="middle" x="600" y="-188.3" font-family="Times,serif" font-size="14.00">components</text>
</g>
<!-- components&#45;&gt;bbox&#45;engine -->
<g id="edge6" class="edge">
<title>components&#45;&gt;bbox&#45;engine</title>
<path fill="none" stroke="black" d="M577.26,-176.78C568.89,-171.38 559.4,-165.06 551,-159 532.65,-145.76 512.7,-129.87 497.56,-117.49"/>
<polygon fill="black" stroke="black" points="499.64,-114.66 489.69,-111.01 495.19,-120.07 499.64,-114.66"/>
<text text-anchor="middle" x="585.5" y="-140.3" font-family="Times,serif" font-size="14.00">«include»</text>
</g>
<!-- connect -->
<g id="node6" class="node">
<title>connect</title>
<polygon fill="white" stroke="black" stroke-width="2" points="690,-450 590,-450 590,-420 690,-420 690,-450"/>
<text text-anchor="middle" x="640" y="-431.3" font-family="Times,serif" font-size="14.00">connect</text>
</g>
<!-- util -->
<g id="node19" class="node">
<title>util</title>
<polygon fill="white" stroke="black" stroke-width="2" points="690,-369 590,-369 590,-339 690,-339 690,-369"/>
<text text-anchor="middle" x="640" y="-350.3" font-family="Times,serif" font-size="14.00">util</text>
</g>
<!-- connect&#45;&gt;util -->
<g id="edge7" class="edge">
<title>connect&#45;&gt;util</title>
<path fill="none" stroke="black" d="M640,-419.88C640,-408.64 640,-392.66 640,-379.37"/>
<polygon fill="black" stroke="black" points="643.5,-379 640,-369 636.5,-379 643.5,-379"/>
<text text-anchor="middle" x="674.5" y="-390.8" font-family="Times,serif" font-size="14.00">«include»</text>
</g>
<!-- drawio -->
<g id="node8" class="node">
<title>drawio</title>
<polygon fill="white" stroke="black" stroke-width="2" points="572,-288 472,-288 472,-258 572,-258 572,-288"/>
<text text-anchor="middle" x="522" y="-269.3" font-family="Times,serif" font-size="14.00">drawio</text>
</g>
<!-- drawio&#45;&gt;2d&#45;engine -->
<g id="edge8" class="edge">
<title>drawio&#45;&gt;2d&#45;engine</title>
<path fill="none" stroke="black" d="M500.73,-257.88C481.77,-245.29 453.85,-226.76 432.69,-212.71"/>
<polygon fill="black" stroke="black" points="434.36,-209.62 424.09,-207 430.49,-215.45 434.36,-209.62"/>
<text text-anchor="middle" x="508.5" y="-228.8" font-family="Times,serif" font-size="14.00">«include»</text>
</g>
<!-- fillet -->
<g id="node9" class="node">
<title>fillet</title>
<polygon fill="white" stroke="black" stroke-width="2" points="926,-369 826,-369 826,-339 926,-339 926,-369"/>
<text text-anchor="middle" x="876" y="-350.3" font-family="Times,serif" font-size="14.00">fillet</text>
</g>
<!-- fillet&#45;&gt;3d&#45;engine -->
<g id="edge9" class="edge">
<title>fillet&#45;&gt;3d&#45;engine</title>
<path fill="none" stroke="black" d="M852.97,-338.91C833.5,-327.79 804.47,-313.02 777,-306 644.74,-272.19 603.25,-306.53 464.27,-287.95"/>
<polygon fill="black" stroke="black" points="464.49,-284.45 454.1,-286.52 463.51,-291.38 464.49,-284.45"/>
<text text-anchor="middle" x="850.5" y="-309.8" font-family="Times,serif" font-size="14.00">«include»</text>
</g>
<!-- grid -->
<g id="node10" class="node">
<title>grid</title>
<polygon fill="white" stroke="black" stroke-width="2" points="218,-369 118,-369 118,-339 218,-339 218,-369"/>
<text text-anchor="middle" x="168" y="-350.3" font-family="Times,serif" font-size="14.00">grid</text>
</g>
<!-- grid&#45;&gt;3d&#45;engine -->
<g id="edge10" class="edge">
<title>grid&#45;&gt;3d&#45;engine</title>
<path fill="none" stroke="black" d="M185.54,-338.98C199.71,-328.35 220.59,-314.22 241,-306 273.71,-292.82 312.35,-284.94 343.8,-280.29"/>
<polygon fill="black" stroke="black" points="344.33,-283.75 353.75,-278.89 343.36,-276.82 344.33,-283.75"/>
<text text-anchor="middle" x="275.5" y="-309.8" font-family="Times,serif" font-size="14.00">«include»</text>
</g>
<!-- hole -->
<g id="node11" class="node">
<title>hole</title>
<polygon fill="white" stroke="black" stroke-width="2" points="336,-450 236,-450 236,-420 336,-420 336,-450"/>
<text text-anchor="middle" x="286" y="-431.3" font-family="Times,serif" font-size="14.00">hole</text>
</g>
<!-- label -->
<g id="node12" class="node">
<title>label</title>
<polygon fill="white" stroke="black" stroke-width="2" points="336,-369 236,-369 236,-339 336,-339 336,-369"/>
<text text-anchor="middle" x="286" y="-350.3" font-family="Times,serif" font-size="14.00">label</text>
</g>
<!-- hole&#45;&gt;label -->
<g id="edge11" class="edge">
<title>hole&#45;&gt;label</title>
<path fill="none" stroke="black" d="M286,-419.88C286,-408.64 286,-392.66 286,-379.37"/>
<polygon fill="black" stroke="black" points="289.5,-379 286,-369 282.5,-379 289.5,-379"/>
<text text-anchor="middle" x="320.5" y="-390.8" font-family="Times,serif" font-size="14.00">«include»</text>
</g>
<!-- label&#45;&gt;3d&#45;engine -->
<g id="edge12" class="edge">
<title>label&#45;&gt;3d&#45;engine</title>
<path fill="none" stroke="black" d="M297,-338.81C305.45,-328.65 317.85,-315.19 331,-306 338.33,-300.87 346.62,-296.29 354.91,-292.31"/>
<polygon fill="black" stroke="black" points="356.57,-295.4 364.22,-288.08 353.67,-289.03 356.57,-295.4"/>
<text text-anchor="middle" x="365.5" y="-309.8" font-family="Times,serif" font-size="14.00">«include»</text>
</g>
<!-- limits -->
<g id="node13" class="node">
<title>limits</title>
<polygon fill="white" stroke="black" stroke-width="2" points="135,-111 35,-111 35,-81 135,-81 135,-111"/>
<text text-anchor="middle" x="85" y="-92.3" font-family="Times,serif" font-size="14.00">limits</text>
</g>
<!-- limits&#45;&gt;core -->
<g id="edge13" class="edge">
<title>limits&#45;&gt;core</title>
<path fill="none" stroke="black" d="M106.67,-80.88C123.76,-70.35 148.56,-56.38 172,-48 205.72,-35.94 245.03,-28.09 276.82,-23.18"/>
<polygon fill="black" stroke="black" points="277.48,-26.62 286.86,-21.69 276.45,-19.7 277.48,-26.62"/>
<text text-anchor="middle" x="206.5" y="-51.8" font-family="Times,serif" font-size="14.00">«include»</text>
</g>
<!-- mngm&#45;engine&#45;&gt;core -->
<g id="edge14" class="edge">
<title>mngm&#45;engine&#45;&gt;core</title>
<path fill="none" stroke="black" d="M223.72,-80.96C234.11,-70.87 249.09,-57.44 264,-48 272.07,-42.89 281.09,-38.21 289.97,-34.1"/>
<polygon fill="black" stroke="black" points="291.41,-37.29 299.12,-30.02 288.57,-30.89 291.41,-37.29"/>
<text text-anchor="middle" x="298.5" y="-51.8" font-family="Times,serif" font-size="14.00">«include»</text>
</g>
<!-- profile -->
<g id="node15" class="node">
<title>profile</title>
<polygon fill="white" stroke="black" stroke-width="2" points="454,-369 354,-369 354,-339 454,-339 454,-369"/>
<text text-anchor="middle" x="404" y="-350.3" font-family="Times,serif" font-size="14.00">profile</text>
</g>
<!-- profile&#45;&gt;3d&#45;engine -->
<g id="edge15" class="edge">
<title>profile&#45;&gt;3d&#45;engine</title>
<path fill="none" stroke="black" d="M404,-338.88C404,-327.64 404,-311.66 404,-298.37"/>
<polygon fill="black" stroke="black" points="407.5,-298 404,-288 400.5,-298 407.5,-298"/>
<text text-anchor="middle" x="438.5" y="-309.8" font-family="Times,serif" font-size="14.00">«include»</text>
</g>
<!-- template -->
<g id="node16" class="node">
<title>template</title>
<polygon fill="white" stroke="black" stroke-width="2" points="572,-369 472,-369 472,-339 572,-339 572,-369"/>
<text text-anchor="middle" x="522" y="-350.3" font-family="Times,serif" font-size="14.00">template</text>
</g>
<!-- template&#45;&gt;3d&#45;engine -->
<g id="edge16" class="edge">
<title>template&#45;&gt;3d&#45;engine</title>
<path fill="none" stroke="black" d="M511,-338.81C502.55,-328.65 490.15,-315.19 477,-306 469.67,-300.87 461.38,-296.29 453.09,-292.31"/>
<polygon fill="black" stroke="black" points="454.33,-289.03 443.78,-288.08 451.43,-295.4 454.33,-289.03"/>
<text text-anchor="middle" x="529.5" y="-309.8" font-family="Times,serif" font-size="14.00">«include»</text>
</g>
<!-- type_trait&#45;&gt;core -->
<g id="edge17" class="edge">
<title>type_trait&#45;&gt;core</title>
<path fill="none" stroke="black" d="M658.31,-128.9C626.69,-108.01 563.81,-69.07 505,-48 470.45,-35.62 430.09,-27.74 397.59,-22.89"/>
<polygon fill="black" stroke="black" points="397.73,-19.37 387.33,-21.42 396.73,-26.3 397.73,-19.37"/>
<text text-anchor="middle" x="662.5" y="-92.3" font-family="Times,serif" font-size="14.00">«include»</text>
</g>
<!-- unsafe_defs&#45;&gt;core -->
<g id="edge18" class="edge">
<title>unsafe_defs&#45;&gt;core</title>
<path fill="none" stroke="black" d="M337,-80.88C337,-69.64 337,-53.66 337,-40.37"/>
<polygon fill="black" stroke="black" points="340.5,-40 337,-30 333.5,-40 340.5,-40"/>
<text text-anchor="middle" x="371.5" y="-51.8" font-family="Times,serif" font-size="14.00">«include»</text>
</g>
<!-- util&#45;&gt;3d&#45;engine -->
<g id="edge19" class="edge">
<title>util&#45;&gt;3d&#45;engine</title>
<path fill="none" stroke="black" d="M622.78,-338.84C608.85,-328.13 588.29,-313.96 568,-306 526.68,-289.78 511.32,-296.48 464.06,-288.03"/>
<polygon fill="black" stroke="black" points="464.65,-284.58 454.16,-286.13 463.32,-291.46 464.65,-284.58"/>
<text text-anchor="middle" x="629.5" y="-309.8" font-family="Times,serif" font-size="14.00">«include»</text>
</g>
<!-- xsect -->
<g id="node20" class="node">
<title>xsect</title>
<polygon fill="white" stroke="black" stroke-width="2" points="100,-369 0,-369 0,-339 100,-339 100,-369"/>
<text text-anchor="middle" x="50" y="-350.3" font-family="Times,serif" font-size="14.00">xsect</text>
</g>
<!-- xsect&#45;&gt;3d&#45;engine -->
<g id="edge20" class="edge">
<title>xsect&#45;&gt;3d&#45;engine</title>
<path fill="none" stroke="black" d="M71.86,-338.88C89.72,-328.05 116.02,-313.7 141,-306 208.52,-285.19 289.69,-277.84 343.83,-275.28"/>
<polygon fill="black" stroke="black" points="344.11,-278.77 353.95,-274.84 343.81,-271.78 344.11,-278.77"/>
<text text-anchor="middle" x="175.5" y="-309.8" font-family="Times,serif" font-size="14.00">«include»</text>
</g>
<!-- xsect&#45;&gt;mngm&#45;engine -->
<g id="edge26" class="edge">
<title>xsect&#45;&gt;mngm&#45;engine</title>
<path fill="none" stroke="red" stroke-width="2" d="M58.83,-338.87C85.16,-296.74 163.33,-171.67 195.71,-119.87"/>
<polygon fill="red" stroke="red" stroke-width="2" points="198.87,-121.42 201.2,-111.08 192.93,-117.71 198.87,-121.42"/>
<text text-anchor="middle" x="151" y="-228.8" font-family="Times,serif" font-size="14.00">«use»</text>
</g>
</g>
</svg>
