<?xml version="1.0" encoding="UTF-8" standalone="no"?>
<!DOCTYPE svg PUBLIC "-//W3C//DTD SVG 1.1//EN"
 "http://www.w3.org/Graphics/SVG/1.1/DTD/svg11.dtd">
<!-- Generated by graphviz version 8.1.0 (20230707.0739)
 -->
<!-- Title: foundation Pages: 1 -->
<svg width="1285pt" height="467pt"
 viewBox="0.00 0.00 1285.25 467.00" xmlns="http://www.w3.org/2000/svg" xmlns:xlink="http://www.w3.org/1999/xlink">
<g id="graph0" class="graph" transform="scale(1 1) rotate(0) translate(4 463)">
<title>foundation</title>
<polygon fill="white" stroke="none" points="-4,4 -4,-463 1281.25,-463 1281.25,4 -4,4"/>
<!-- 2d&#45;engine -->
<g id="node1" class="node">
<title>2d&#45;engine</title>
<polygon fill="white" stroke="black" stroke-width="2" points="1043,-209.25 943,-209.25 943,-179.25 1043,-179.25 1043,-209.25"/>
<text text-anchor="middle" x="993" y="-189.58" font-family="Times,serif" font-size="14.00">2d&#45;engine</text>
</g>
<!-- bbox&#45;engine -->
<g id="node4" class="node">
<title>bbox&#45;engine</title>
<polygon fill="white" stroke="black" stroke-width="2" points="931.13,-113.25 828.88,-113.25 828.88,-83.25 931.13,-83.25 931.13,-113.25"/>
<text text-anchor="middle" x="880" y="-93.58" font-family="Times,serif" font-size="14.00">bbox&#45;engine</text>
</g>
<!-- 2d&#45;engine&#45;&gt;bbox&#45;engine -->
<g id="edge22" class="edge">
<title>2d&#45;engine&#45;&gt;bbox&#45;engine</title>
<path fill="none" stroke="red" stroke-width="2" d="M973,-178.56C965.89,-173.22 957.88,-167.06 950.75,-161.25 942.15,-154.24 922.77,-137.22 906.46,-122.78"/>
<polygon fill="red" stroke="red" stroke-width="2" points="908.63,-120.26 898.82,-116.24 903.98,-125.49 908.63,-120.26"/>
<text text-anchor="middle" x="971.63" y="-141.58" font-family="Times,serif" font-size="14.00">«use»</text>
</g>
<!-- mngm&#45;engine -->
<g id="node14" class="node">
<title>mngm&#45;engine</title>
<polygon fill="white" stroke="black" stroke-width="2" points="1180.75,-113.25 1067.25,-113.25 1067.25,-83.25 1180.75,-83.25 1180.75,-113.25"/>
<text text-anchor="middle" x="1124" y="-93.58" font-family="Times,serif" font-size="14.00">mngm&#45;engine</text>
</g>
<!-- 2d&#45;engine&#45;&gt;mngm&#45;engine -->
<g id="edge21" class="edge">
<title>2d&#45;engine&#45;&gt;mngm&#45;engine</title>
<path fill="none" stroke="red" stroke-width="2" d="M1038.34,-178.37C1048.94,-173.78 1059.81,-168.09 1069,-161.25 1082.87,-150.93 1082.31,-144.2 1093.75,-131.25 1096.04,-128.65 1098.47,-125.97 1100.92,-123.32"/>
<polygon fill="red" stroke="red" stroke-width="2" points="1103.34,-125.72 1107.63,-116.03 1098.24,-120.93 1103.34,-125.72"/>
<text text-anchor="middle" x="1113.63" y="-141.58" font-family="Times,serif" font-size="14.00">«use»</text>
</g>
<!-- unsafe_defs -->
<g id="node19" class="node">
<title>unsafe_defs</title>
<polygon fill="white" stroke="black" stroke-width="2" points="1049,-113.25 949,-113.25 949,-83.25 1049,-83.25 1049,-113.25"/>
<text text-anchor="middle" x="999" y="-93.58" font-family="Times,serif" font-size="14.00">unsafe_defs</text>
</g>
<!-- 2d&#45;engine&#45;&gt;unsafe_defs -->
<g id="edge1" class="edge">
<title>2d&#45;engine&#45;&gt;unsafe_defs</title>
<path fill="none" stroke="black" d="M993.94,-178.56C994.86,-164.16 996.28,-141.91 997.38,-124.64"/>
<polygon fill="black" stroke="black" points="1000.91,-125.35 998.05,-115.14 993.92,-124.9 1000.91,-125.35"/>
<text text-anchor="middle" x="1031.13" y="-141.58" font-family="Times,serif" font-size="14.00">«include»</text>
</g>
<!-- 3d&#45;engine -->
<g id="node2" class="node">
<title>3d&#45;engine</title>
<polygon fill="white" stroke="black" stroke-width="2" points="663,-292.5 563,-292.5 563,-262.5 663,-262.5 663,-292.5"/>
<text text-anchor="middle" x="613" y="-272.83" font-family="Times,serif" font-size="14.00">3d&#45;engine</text>
</g>
<!-- 3d&#45;engine&#45;&gt;2d&#45;engine -->
<g id="edge2" class="edge">
<title>3d&#45;engine&#45;&gt;2d&#45;engine</title>
<path fill="none" stroke="black" d="M663.82,-263.63C705.57,-253.24 766.32,-238.54 819.75,-227.25 856.74,-219.43 898.41,-211.7 931.61,-205.8"/>
<polygon fill="black" stroke="black" points="931.84,-209.14 941.07,-203.95 930.62,-202.24 931.84,-209.14"/>
<text text-anchor="middle" x="854.13" y="-231.2" font-family="Times,serif" font-size="14.00">«include»</text>
</g>
<!-- polymorphic&#45;engine -->
<g id="node15" class="node">
<title>polymorphic&#45;engine</title>
<polygon fill="white" stroke="black" stroke-width="2" points="993.5,-375.75 836.5,-375.75 836.5,-345.75 993.5,-345.75 993.5,-375.75"/>
<text text-anchor="middle" x="915" y="-356.08" font-family="Times,serif" font-size="14.00">polymorphic&#45;engine</text>
</g>
<!-- 3d&#45;engine&#45;&gt;polymorphic&#45;engine -->
<g id="edge23" class="edge">
<title>3d&#45;engine&#45;&gt;polymorphic&#45;engine</title>
<path fill="none" stroke="red" stroke-width="2" d="M663.85,-278.56C710.54,-280.27 780.81,-287.05 837,-310.5 848.71,-315.39 849.18,-320.72 859.75,-327.75 865.15,-331.34 870.97,-334.96 876.73,-338.41"/>
<polygon fill="red" stroke="red" stroke-width="2" points="875.22,-341.75 885.62,-343.78 878.75,-335.71 875.22,-341.75"/>
<text text-anchor="middle" x="880.63" y="-314.45" font-family="Times,serif" font-size="14.00">«use»</text>
</g>
<!-- type_trait -->
<g id="node18" class="node">
<title>type_trait</title>
<polygon fill="white" stroke="black" stroke-width="2" points="665,-161.25 565,-161.25 565,-131.25 665,-131.25 665,-161.25"/>
<text text-anchor="middle" x="615" y="-141.58" font-family="Times,serif" font-size="14.00">type_trait</text>
</g>
<!-- 3d&#45;engine&#45;&gt;type_trait -->
<g id="edge3" class="edge">
<title>3d&#45;engine&#45;&gt;type_trait</title>
<path fill="none" stroke="black" d="M613.23,-261.67C613.57,-239.96 614.2,-199.2 614.61,-172.65"/>
<polygon fill="black" stroke="black" points="618.12,-172.96 614.77,-162.9 611.12,-172.85 618.12,-172.96"/>
<text text-anchor="middle" x="648.13" y="-231.2" font-family="Times,serif" font-size="14.00">«include»</text>
</g>
<!-- algo&#45;engine -->
<g id="node3" class="node">
<title>algo&#45;engine</title>
<polygon fill="white" stroke="black" stroke-width="2" points="572,-375.75 472,-375.75 472,-345.75 572,-345.75 572,-375.75"/>
<text text-anchor="middle" x="522" y="-356.08" font-family="Times,serif" font-size="14.00">algo&#45;engine</text>
</g>
<!-- algo&#45;engine&#45;&gt;3d&#45;engine -->
<g id="edge4" class="edge">
<title>algo&#45;engine&#45;&gt;3d&#45;engine</title>
<path fill="none" stroke="black" d="M523.83,-344.75C525.85,-334.04 530.05,-319.92 538.75,-310.5 542.96,-305.94 547.93,-302.01 553.27,-298.61"/>
<polygon fill="black" stroke="black" points="554.55,-301.35 561.55,-293.39 551.11,-295.25 554.55,-301.35"/>
<text text-anchor="middle" x="573.13" y="-314.45" font-family="Times,serif" font-size="14.00">«include»</text>
</g>
<!-- core -->
<g id="node7" class="node">
<title>core</title>
<polygon fill="white" stroke="black" stroke-width="2" points="996,-30 896,-30 896,0 996,0 996,-30"/>
<text text-anchor="middle" x="946" y="-10.33" font-family="Times,serif" font-size="14.00">core</text>
</g>
<!-- bbox&#45;engine&#45;&gt;core -->
<g id="edge5" class="edge">
<title>bbox&#45;engine&#45;&gt;core</title>
<path fill="none" stroke="black" d="M881.96,-82.66C883.97,-72.15 887.97,-58.1 895.75,-48 898.74,-44.12 902.35,-40.57 906.24,-37.38"/>
<polygon fill="black" stroke="black" points="908.06,-39.66 914.09,-30.94 903.94,-34 908.06,-39.66"/>
<text text-anchor="middle" x="930.13" y="-51.95" font-family="Times,serif" font-size="14.00">«include»</text>
</g>
<!-- components -->
<g id="node5" class="node">
<title>components</title>
<polygon fill="white" stroke="black" stroke-width="2" points="873.13,-209.25 770.88,-209.25 770.88,-179.25 873.13,-179.25 873.13,-209.25"/>
<text text-anchor="middle" x="822" y="-189.58" font-family="Times,serif" font-size="14.00">components</text>
</g>
<!-- components&#45;&gt;bbox&#45;engine -->
<g id="edge6" class="edge">
<title>components&#45;&gt;bbox&#45;engine</title>
<path fill="none" stroke="black" d="M818.23,-178.35C815.73,-165.04 814.28,-145.5 822.75,-131.25 825.11,-127.29 828.15,-123.78 831.61,-120.68"/>
<polygon fill="black" stroke="black" points="833.39,-122.96 839.28,-114.16 829.19,-117.37 833.39,-122.96"/>
<text text-anchor="middle" x="857.13" y="-141.58" font-family="Times,serif" font-size="14.00">«include»</text>
</g>
<!-- connect -->
<g id="node6" class="node">
<title>connect</title>
<polygon fill="white" stroke="black" stroke-width="2" points="454,-459 354,-459 354,-429 454,-429 454,-459"/>
<text text-anchor="middle" x="404" y="-439.33" font-family="Times,serif" font-size="14.00">connect</text>
</g>
<!-- util -->
<g id="node20" class="node">
<title>util</title>
<polygon fill="white" stroke="black" stroke-width="2" points="454,-375.75 354,-375.75 354,-345.75 454,-345.75 454,-375.75"/>
<text text-anchor="middle" x="404" y="-356.08" font-family="Times,serif" font-size="14.00">util</text>
</g>
<!-- connect&#45;&gt;util -->
<g id="edge7" class="edge">
<title>connect&#45;&gt;util</title>
<path fill="none" stroke="black" d="M404,-428.1C404,-416.76 404,-400.88 404,-387.5"/>
<polygon fill="black" stroke="black" points="407.5,-387.56 404,-377.56 400.5,-387.56 407.5,-387.56"/>
<text text-anchor="middle" x="438.13" y="-397.7" font-family="Times,serif" font-size="14.00">«include»</text>
</g>
<!-- drawio -->
<g id="node8" class="node">
<title>drawio</title>
<polygon fill="white" stroke="black" stroke-width="2" points="1043,-292.5 943,-292.5 943,-262.5 1043,-262.5 1043,-292.5"/>
<text text-anchor="middle" x="993" y="-272.83" font-family="Times,serif" font-size="14.00">drawio</text>
</g>
<!-- drawio&#45;&gt;2d&#45;engine -->
<g id="edge8" class="edge">
<title>drawio&#45;&gt;2d&#45;engine</title>
<path fill="none" stroke="black" d="M993,-261.6C993,-250.26 993,-234.38 993,-221"/>
<polygon fill="black" stroke="black" points="996.5,-221.06 993,-211.06 989.5,-221.06 996.5,-221.06"/>
<text text-anchor="middle" x="1027.13" y="-231.2" font-family="Times,serif" font-size="14.00">«include»</text>
</g>
<!-- fillet -->
<g id="node9" class="node">
<title>fillet</title>
<polygon fill="white" stroke="black" stroke-width="2" points="690,-375.75 590,-375.75 590,-345.75 690,-345.75 690,-375.75"/>
<text text-anchor="middle" x="640" y="-356.08" font-family="Times,serif" font-size="14.00">fillet</text>
</g>
<!-- fillet&#45;&gt;3d&#45;engine -->
<g id="edge9" class="edge">
<title>fillet&#45;&gt;3d&#45;engine</title>
<path fill="none" stroke="black" d="M624.28,-344.82C620.05,-339.84 616.02,-333.96 613.75,-327.75 611.02,-320.31 610.17,-311.79 610.2,-303.96"/>
<polygon fill="black" stroke="black" points="613.73,-304.35 610.74,-294.18 606.74,-303.99 613.73,-304.35"/>
<text text-anchor="middle" x="648.13" y="-314.45" font-family="Times,serif" font-size="14.00">«include»</text>
</g>
<!-- grid -->
<g id="node10" class="node">
<title>grid</title>
<polygon fill="white" stroke="black" stroke-width="2" points="808,-375.75 708,-375.75 708,-345.75 808,-345.75 808,-375.75"/>
<text text-anchor="middle" x="758" y="-356.08" font-family="Times,serif" font-size="14.00">grid</text>
</g>
<!-- grid&#45;&gt;3d&#45;engine -->
<g id="edge10" class="edge">
<title>grid&#45;&gt;3d&#45;engine</title>
<path fill="none" stroke="black" d="M731.92,-344.84C723.16,-339.63 713.41,-333.61 704.75,-327.75 694.24,-320.64 692.87,-317.04 682,-310.5 674.68,-306.1 666.65,-301.88 658.75,-298.03"/>
<polygon fill="black" stroke="black" points="660.39,-294.46 649.85,-293.36 657.41,-300.79 660.39,-294.46"/>
<text text-anchor="middle" x="739.13" y="-314.45" font-family="Times,serif" font-size="14.00">«include»</text>
</g>
<!-- hole -->
<g id="node11" class="node">
<title>hole</title>
<polygon fill="white" stroke="black" stroke-width="2" points="100,-459 0,-459 0,-429 100,-429 100,-459"/>
<text text-anchor="middle" x="50" y="-439.33" font-family="Times,serif" font-size="14.00">hole</text>
</g>
<!-- label -->
<g id="node12" class="node">
<title>label</title>
<polygon fill="white" stroke="black" stroke-width="2" points="100,-375.75 0,-375.75 0,-345.75 100,-345.75 100,-375.75"/>
<text text-anchor="middle" x="50" y="-356.08" font-family="Times,serif" font-size="14.00">label</text>
</g>
<!-- hole&#45;&gt;label -->
<g id="edge11" class="edge">
<title>hole&#45;&gt;label</title>
<path fill="none" stroke="black" d="M50,-428.1C50,-416.76 50,-400.88 50,-387.5"/>
<polygon fill="black" stroke="black" points="53.5,-387.56 50,-377.56 46.5,-387.56 53.5,-387.56"/>
<text text-anchor="middle" x="84.13" y="-397.7" font-family="Times,serif" font-size="14.00">«include»</text>
</g>
<!-- label&#45;&gt;3d&#45;engine -->
<g id="edge12" class="edge">
<title>label&#45;&gt;3d&#45;engine</title>
<path fill="none" stroke="black" d="M72.77,-344.82C91.73,-333.23 119.86,-317.93 146.75,-310.5 221.22,-289.91 442.96,-282.25 551.61,-279.67"/>
<polygon fill="black" stroke="black" points="551.48,-283.15 561.39,-279.42 551.32,-276.15 551.48,-283.15"/>
<text text-anchor="middle" x="181.13" y="-314.45" font-family="Times,serif" font-size="14.00">«include»</text>
</g>
<!-- limits -->
<g id="node13" class="node">
<title>limits</title>
<polygon fill="white" stroke="black" stroke-width="2" points="811,-113.25 711,-113.25 711,-83.25 811,-83.25 811,-113.25"/>
<text text-anchor="middle" x="761" y="-93.58" font-family="Times,serif" font-size="14.00">limits</text>
</g>
<!-- limits&#45;&gt;core -->
<g id="edge13" class="edge">
<title>limits&#45;&gt;core</title>
<path fill="none" stroke="black" d="M773.5,-82.62C783.76,-71.52 799.25,-56.73 815.75,-48 836.89,-36.81 862.04,-29.45 884.58,-24.64"/>
<polygon fill="black" stroke="black" points="884.94,-27.94 894.06,-22.55 883.57,-21.08 884.94,-27.94"/>
<text text-anchor="middle" x="850.13" y="-51.95" font-family="Times,serif" font-size="14.00">«include»</text>
</g>
<!-- mngm&#45;engine&#45;&gt;core -->
<g id="edge14" class="edge">
<title>mngm&#45;engine&#45;&gt;core</title>
<path fill="none" stroke="black" d="M1105.13,-82.46C1090.69,-71.72 1069.94,-57.46 1050,-48 1036.54,-41.62 1021.5,-36.13 1007.14,-31.59"/>
<polygon fill="black" stroke="black" points="1008.42,-28.02 997.83,-28.46 1006.38,-34.71 1008.42,-28.02"/>
<text text-anchor="middle" x="1113.13" y="-51.95" font-family="Times,serif" font-size="14.00">«include»</text>
</g>
<!-- polymorphic&#45;engine&#45;&gt;3d&#45;engine -->
<g id="edge24" class="edge">
<title>polymorphic&#45;engine&#45;&gt;3d&#45;engine</title>
<path fill="none" stroke="red" stroke-width="2" d="M835.55,-345.25C820.49,-340.82 805.24,-335.1 791.75,-327.75 781.81,-322.33 783.09,-315.63 773,-310.5 743.29,-295.38 707.08,-287.4 676.63,-283.19"/>
<polygon fill="red" stroke="red" stroke-width="2" points="677.32,-279.38 666.96,-281.61 676.45,-286.32 677.32,-279.38"/>
<text text-anchor="middle" x="812.63" y="-314.45" font-family="Times,serif" font-size="14.00">«use»</text>
</g>
<!-- polymorphic&#45;engine&#45;&gt;bbox&#45;engine -->
<g id="edge25" class="edge">
<title>polymorphic&#45;engine&#45;&gt;bbox&#45;engine</title>
<path fill="none" stroke="red" stroke-width="2" d="M914.6,-344.86C913.36,-308.15 908.55,-210.5 891,-131.25 890.64,-129.64 890.23,-127.99 889.78,-126.34"/>
<polygon fill="red" stroke="red" stroke-width="2" points="892.23,-124.49 885.86,-116.03 885.56,-126.62 892.23,-124.49"/>
<text text-anchor="middle" x="928.63" y="-231.2" font-family="Times,serif" font-size="14.00">«use»</text>
</g>
<!-- polymorphic&#45;engine&#45;&gt;core -->
<g id="edge15" class="edge">
<title>polymorphic&#45;engine&#45;&gt;core</title>
<path fill="none" stroke="black" d="M994.17,-353.44C1081.25,-344.26 1209,-323.18 1209,-278.5 1209,-278.5 1209,-278.5 1209,-97.25 1209,-63.43 1181.75,-62.08 1151,-48 1105.75,-27.28 1049.64,-19.6 1007.56,-16.93"/>
<polygon fill="black" stroke="black" points="1007.82,-13.38 997.64,-16.32 1007.43,-20.37 1007.82,-13.38"/>
<text text-anchor="middle" x="1243.13" y="-189.58" font-family="Times,serif" font-size="14.00">«include»</text>
</g>
<!-- polymorphic&#45;engine&#45;&gt;mngm&#45;engine -->
<g id="edge26" class="edge">
<title>polymorphic&#45;engine&#45;&gt;mngm&#45;engine</title>
<path fill="none" stroke="red" stroke-width="2" d="M960.37,-344.77C989.01,-333.66 1025.48,-316.31 1052,-292.5 1103.36,-246.39 1115.8,-227.54 1135,-161.25 1138.24,-150.05 1136.88,-137.43 1134.18,-126.5"/>
<polygon fill="red" stroke="red" stroke-width="2" points="1136.7,-124.78 1130.44,-116.24 1130.01,-126.82 1136.7,-124.78"/>
<text text-anchor="middle" x="1129.63" y="-231.2" font-family="Times,serif" font-size="14.00">«use»</text>
</g>
<!-- profile -->
<g id="node16" class="node">
<title>profile</title>
<polygon fill="white" stroke="black" stroke-width="2" points="218,-375.75 118,-375.75 118,-345.75 218,-345.75 218,-375.75"/>
<text text-anchor="middle" x="168" y="-356.08" font-family="Times,serif" font-size="14.00">profile</text>
</g>
<!-- profile&#45;&gt;3d&#45;engine -->
<g id="edge16" class="edge">
<title>profile&#45;&gt;3d&#45;engine</title>
<path fill="none" stroke="black" d="M188.75,-344.94C206.05,-333.42 231.82,-318.16 256.75,-310.5 310.12,-294.1 464.27,-284.95 551.3,-280.96"/>
<polygon fill="black" stroke="black" points="551.25,-284.42 561.08,-280.47 550.94,-277.43 551.25,-284.42"/>
<text text-anchor="middle" x="291.13" y="-314.45" font-family="Times,serif" font-size="14.00">«include»</text>
</g>
<!-- template -->
<g id="node17" class="node">
<title>template</title>
<polygon fill="white" stroke="black" stroke-width="2" points="336,-375.75 236,-375.75 236,-345.75 336,-345.75 336,-375.75"/>
<text text-anchor="middle" x="286" y="-356.08" font-family="Times,serif" font-size="14.00">template</text>
</g>
<!-- template&#45;&gt;3d&#45;engine -->
<g id="edge17" class="edge">
<title>template&#45;&gt;3d&#45;engine</title>
<path fill="none" stroke="black" d="M303.46,-344.88C317.86,-333.49 339.32,-318.43 360.75,-310.5 422.98,-287.47 499.09,-280.46 551.34,-278.59"/>
<polygon fill="black" stroke="black" points="551.22,-282.06 561.11,-278.26 551.01,-275.06 551.22,-282.06"/>
<text text-anchor="middle" x="395.13" y="-314.45" font-family="Times,serif" font-size="14.00">«include»</text>
</g>
<!-- type_trait&#45;&gt;core -->
<g id="edge18" class="edge">
<title>type_trait&#45;&gt;core</title>
<path fill="none" stroke="black" d="M615.43,-130.27C616.66,-116.14 620.75,-95.36 633.75,-83.25 669.57,-49.87 804.52,-30.54 884.82,-21.76"/>
<polygon fill="black" stroke="black" points="884.72,-25.19 894.29,-20.65 883.98,-18.23 884.72,-25.19"/>
<text text-anchor="middle" x="668.13" y="-93.58" font-family="Times,serif" font-size="14.00">«include»</text>
</g>
<!-- unsafe_defs&#45;&gt;core -->
<g id="edge19" class="edge">
<title>unsafe_defs&#45;&gt;core</title>
<path fill="none" stroke="black" d="M989.28,-82.35C981.51,-70.44 970.47,-53.51 961.49,-39.74"/>
<polygon fill="black" stroke="black" points="964.05,-38.27 955.66,-31.81 958.19,-42.1 964.05,-38.27"/>
<text text-anchor="middle" x="1012.13" y="-51.95" font-family="Times,serif" font-size="14.00">«include»</text>
</g>
<!-- util&#45;&gt;3d&#45;engine -->
<g id="edge20" class="edge">
<title>util&#45;&gt;3d&#45;engine</title>
<path fill="none" stroke="black" d="M415.85,-344.93C425.62,-333.73 440.5,-318.89 456.75,-310.5 485.89,-295.45 521.52,-287.48 551.39,-283.26"/>
<polygon fill="black" stroke="black" points="551.65,-286.62 561.11,-281.86 550.75,-279.68 551.65,-286.62"/>
<text text-anchor="middle" x="491.13" y="-314.45" font-family="Times,serif" font-size="14.00">«include»</text>
</g>
</g>
</svg>
