<?xml version="1.0" encoding="UTF-8" standalone="no"?>
<!DOCTYPE svg PUBLIC "-//W3C//DTD SVG 1.1//EN"
 "http://www.w3.org/Graphics/SVG/1.1/DTD/svg11.dtd">
<!-- Generated by graphviz version 2.44.0 (0)
 -->
<!-- Title: foundation Pages: 1 -->
<svg width="1176pt" height="539pt"
 viewBox="0.00 0.00 1176.00 539.00" xmlns="http://www.w3.org/2000/svg" xmlns:xlink="http://www.w3.org/1999/xlink">
<g id="graph0" class="graph" transform="scale(1 1) rotate(0) translate(4 535)">
<title>foundation</title>
<polygon fill="white" stroke="transparent" points="-4,4 -4,-535 1172,-535 1172,4 -4,4"/>
<!-- 2d -->
<g id="node1" class="node">
<title>2d</title>
<polygon fill="white" stroke="black" stroke-width="2" points="578,-273 478,-273 478,-243 578,-243 578,-273"/>
<text text-anchor="middle" x="528" y="-254.3" font-family="Times-Roman" font-size="14.00">2d</text>
</g>
<!-- unsafe_defs -->
<g id="node18" class="node">
<title>unsafe_defs</title>
<polygon fill="white" stroke="black" stroke-width="2" points="451,-192 351,-192 351,-162 451,-162 451,-192"/>
<text text-anchor="middle" x="401" y="-173.3" font-family="Times-Roman" font-size="14.00">unsafe_defs</text>
</g>
<!-- 2d&#45;&gt;unsafe_defs -->
<g id="edge1" class="edge">
<title>2d&#45;&gt;unsafe_defs</title>
<path fill="none" stroke="black" d="M505.29,-242.88C484.89,-230.18 454.73,-211.42 432.09,-197.34"/>
<polygon fill="black" stroke="black" points="433.85,-194.31 423.51,-192 430.15,-200.26 433.85,-194.31"/>
<text text-anchor="middle" x="508" y="-213.8" font-family="Times-Roman" font-size="14.00">«include»</text>
</g>
<!-- 3d -->
<g id="node2" class="node">
<title>3d</title>
<polygon fill="white" stroke="black" stroke-width="2" points="578,-369 478,-369 478,-339 578,-339 578,-369"/>
<text text-anchor="middle" x="528" y="-350.3" font-family="Times-Roman" font-size="14.00">3d</text>
</g>
<!-- 3d&#45;&gt;2d -->
<g id="edge2" class="edge">
<title>3d&#45;&gt;2d</title>
<path fill="none" stroke="black" d="M528,-338.72C528,-324.01 528,-300.79 528,-283.2"/>
<polygon fill="black" stroke="black" points="531.5,-283.1 528,-273.1 524.5,-283.1 531.5,-283.1"/>
<text text-anchor="middle" x="560" y="-302.3" font-family="Times-Roman" font-size="14.00">«include»</text>
</g>
<!-- algo -->
<g id="node3" class="node">
<title>algo</title>
<polygon fill="white" stroke="black" stroke-width="2" points="224,-450 124,-450 124,-420 224,-420 224,-450"/>
<text text-anchor="middle" x="174" y="-431.3" font-family="Times-Roman" font-size="14.00">algo</text>
</g>
<!-- algo&#45;&gt;3d -->
<g id="edge3" class="edge">
<title>algo&#45;&gt;3d</title>
<path fill="none" stroke="black" d="M199,-420C219.37,-409.24 249.21,-394.91 277,-387 340.44,-368.93 415.81,-361.05 467.29,-357.62"/>
<polygon fill="black" stroke="black" points="467.82,-361.1 477.58,-356.97 467.38,-354.11 467.82,-361.1"/>
<text text-anchor="middle" x="309" y="-390.8" font-family="Times-Roman" font-size="14.00">«include»</text>
</g>
<!-- base_geo -->
<g id="node4" class="node">
<title>base_geo</title>
<polygon fill="white" stroke="black" stroke-width="2" points="278,-30 178,-30 178,0 278,0 278,-30"/>
<text text-anchor="middle" x="228" y="-11.3" font-family="Times-Roman" font-size="14.00">base_geo</text>
</g>
<!-- base_string -->
<g id="node5" class="node">
<title>base_string</title>
<polygon fill="white" stroke="black" stroke-width="2" points="159,-30 59,-30 59,0 159,0 159,-30"/>
<text text-anchor="middle" x="109" y="-11.3" font-family="Times-Roman" font-size="14.00">base_string</text>
</g>
<!-- connect -->
<g id="node6" class="node">
<title>connect</title>
<polygon fill="white" stroke="black" stroke-width="2" points="755,-531 655,-531 655,-501 755,-501 755,-531"/>
<text text-anchor="middle" x="705" y="-512.3" font-family="Times-Roman" font-size="14.00">connect</text>
</g>
<!-- symbol -->
<g id="node13" class="node">
<title>symbol</title>
<polygon fill="white" stroke="black" stroke-width="2" points="696,-450 596,-450 596,-420 696,-420 696,-450"/>
<text text-anchor="middle" x="646" y="-431.3" font-family="Times-Roman" font-size="14.00">symbol</text>
</g>
<!-- connect&#45;&gt;symbol -->
<g id="edge4" class="edge">
<title>connect&#45;&gt;symbol</title>
<path fill="none" stroke="black" d="M687.05,-500.81C681.17,-495.61 674.89,-489.42 670,-483 664.55,-475.85 659.75,-467.28 655.91,-459.42"/>
<polygon fill="black" stroke="black" points="659.09,-457.95 651.71,-450.34 652.73,-460.89 659.09,-457.95"/>
<text text-anchor="middle" x="702" y="-471.8" font-family="Times-Roman" font-size="14.00">«include»</text>
</g>
<!-- util -->
<g id="node19" class="node">
<title>util</title>
<polygon fill="white" stroke="black" stroke-width="2" points="814,-450 714,-450 714,-420 814,-420 814,-450"/>
<text text-anchor="middle" x="764" y="-431.3" font-family="Times-Roman" font-size="14.00">util</text>
</g>
<!-- connect&#45;&gt;util -->
<g id="edge5" class="edge">
<title>connect&#45;&gt;util</title>
<path fill="none" stroke="black" d="M718.82,-500.79C723.81,-495.39 729.36,-489.08 734,-483 739.74,-475.48 745.47,-466.85 750.37,-459.05"/>
<polygon fill="black" stroke="black" points="753.43,-460.76 755.67,-450.4 747.46,-457.1 753.43,-460.76"/>
<text text-anchor="middle" x="776" y="-471.8" font-family="Times-Roman" font-size="14.00">«include»</text>
</g>
<!-- defs -->
<g id="node7" class="node">
<title>defs</title>
<polygon fill="white" stroke="black" stroke-width="2" points="278,-111 178,-111 178,-81 278,-81 278,-111"/>
<text text-anchor="middle" x="228" y="-92.3" font-family="Times-Roman" font-size="14.00">defs</text>
</g>
<!-- defs&#45;&gt;base_geo -->
<g id="edge6" class="edge">
<title>defs&#45;&gt;base_geo</title>
<path fill="none" stroke="black" d="M228,-80.88C228,-69.64 228,-53.66 228,-40.37"/>
<polygon fill="black" stroke="black" points="231.5,-40 228,-30 224.5,-40 231.5,-40"/>
<text text-anchor="middle" x="260" y="-51.8" font-family="Times-Roman" font-size="14.00">«include»</text>
</g>
<!-- defs&#45;&gt;base_string -->
<g id="edge7" class="edge">
<title>defs&#45;&gt;base_string</title>
<path fill="none" stroke="black" d="M193,-81C182.05,-75.98 170.18,-69.85 160,-63 149.18,-55.72 138.39,-46.19 129.54,-37.62"/>
<polygon fill="black" stroke="black" points="131.86,-34.99 122.31,-30.41 126.92,-39.95 131.86,-34.99"/>
<text text-anchor="middle" x="192" y="-51.8" font-family="Times-Roman" font-size="14.00">«include»</text>
</g>
<!-- drawio -->
<g id="node8" class="node">
<title>drawio</title>
<polygon fill="white" stroke="black" stroke-width="2" points="696,-369 596,-369 596,-339 696,-339 696,-369"/>
<text text-anchor="middle" x="646" y="-350.3" font-family="Times-Roman" font-size="14.00">drawio</text>
</g>
<!-- drawio&#45;&gt;2d -->
<g id="edge8" class="edge">
<title>drawio&#45;&gt;2d</title>
<path fill="none" stroke="black" d="M637.35,-338.89C628.39,-325.21 613.29,-304.58 596,-291 589.65,-286.01 582.4,-281.57 575.05,-277.69"/>
<polygon fill="black" stroke="black" points="576.27,-274.39 565.75,-273.09 573.17,-280.66 576.27,-274.39"/>
<text text-anchor="middle" x="657" y="-302.3" font-family="Times-Roman" font-size="14.00">«include»</text>
</g>
<!-- fillet -->
<g id="node9" class="node">
<title>fillet</title>
<polygon fill="white" stroke="black" stroke-width="2" points="342,-450 242,-450 242,-420 342,-420 342,-450"/>
<text text-anchor="middle" x="292" y="-431.3" font-family="Times-Roman" font-size="14.00">fillet</text>
</g>
<!-- fillet&#45;&gt;3d -->
<g id="edge9" class="edge">
<title>fillet&#45;&gt;3d</title>
<path fill="none" stroke="black" d="M312.61,-419.93C328.89,-409.43 352.53,-395.47 375,-387 404.75,-375.78 439.33,-368.12 468.07,-363.12"/>
<polygon fill="black" stroke="black" points="468.7,-366.57 477.98,-361.46 467.54,-359.66 468.7,-366.57"/>
<text text-anchor="middle" x="407" y="-390.8" font-family="Times-Roman" font-size="14.00">«include»</text>
</g>
<!-- grid -->
<g id="node10" class="node">
<title>grid</title>
<polygon fill="white" stroke="black" stroke-width="2" points="460,-450 360,-450 360,-420 460,-420 460,-450"/>
<text text-anchor="middle" x="410" y="-431.3" font-family="Times-Roman" font-size="14.00">grid</text>
</g>
<!-- grid&#45;&gt;3d -->
<g id="edge10" class="edge">
<title>grid&#45;&gt;3d</title>
<path fill="none" stroke="black" d="M422.59,-420C432.16,-409.93 446.01,-396.51 460,-387 467.29,-382.04 475.47,-377.47 483.56,-373.43"/>
<polygon fill="black" stroke="black" points="485.1,-376.58 492.61,-369.1 482.08,-370.26 485.1,-376.58"/>
<text text-anchor="middle" x="492" y="-390.8" font-family="Times-Roman" font-size="14.00">«include»</text>
</g>
<!-- hole -->
<g id="node11" class="node">
<title>hole</title>
<polygon fill="white" stroke="black" stroke-width="2" points="100,-450 0,-450 0,-420 100,-420 100,-450"/>
<text text-anchor="middle" x="50" y="-431.3" font-family="Times-Roman" font-size="14.00">hole</text>
</g>
<!-- hole&#45;&gt;3d -->
<g id="edge12" class="edge">
<title>hole&#45;&gt;3d</title>
<path fill="none" stroke="black" d="M79.07,-419.79C102.7,-408.9 137.23,-394.52 169,-387 272.01,-362.61 395.66,-356.48 467.68,-355.13"/>
<polygon fill="black" stroke="black" points="467.98,-358.62 477.92,-354.96 467.87,-351.62 467.98,-358.62"/>
<text text-anchor="middle" x="201" y="-390.8" font-family="Times-Roman" font-size="14.00">«include»</text>
</g>
<!-- type_trait -->
<g id="node17" class="node">
<title>type_trait</title>
<polygon fill="white" stroke="black" stroke-width="2" points="109,-321 9,-321 9,-291 109,-291 109,-321"/>
<text text-anchor="middle" x="59" y="-302.3" font-family="Times-Roman" font-size="14.00">type_trait</text>
</g>
<!-- hole&#45;&gt;type_trait -->
<g id="edge11" class="edge">
<title>hole&#45;&gt;type_trait</title>
<path fill="none" stroke="black" d="M51,-419.92C52.51,-398.56 55.41,-357.68 57.27,-331.4"/>
<polygon fill="black" stroke="black" points="60.78,-331.36 58,-321.14 53.8,-330.87 60.78,-331.36"/>
<text text-anchor="middle" x="86" y="-390.8" font-family="Times-Roman" font-size="14.00">«include»</text>
</g>
<!-- profile -->
<g id="node12" class="node">
<title>profile</title>
<polygon fill="white" stroke="black" stroke-width="2" points="578,-450 478,-450 478,-420 578,-420 578,-450"/>
<text text-anchor="middle" x="528" y="-431.3" font-family="Times-Roman" font-size="14.00">profile</text>
</g>
<!-- profile&#45;&gt;3d -->
<g id="edge13" class="edge">
<title>profile&#45;&gt;3d</title>
<path fill="none" stroke="black" d="M528,-419.88C528,-408.64 528,-392.66 528,-379.37"/>
<polygon fill="black" stroke="black" points="531.5,-379 528,-369 524.5,-379 531.5,-379"/>
<text text-anchor="middle" x="560" y="-390.8" font-family="Times-Roman" font-size="14.00">«include»</text>
</g>
<!-- symbol&#45;&gt;3d -->
<g id="edge14" class="edge">
<title>symbol&#45;&gt;3d</title>
<path fill="none" stroke="black" d="M633.41,-420C623.84,-409.93 609.99,-396.51 596,-387 588.71,-382.04 580.53,-377.47 572.44,-373.43"/>
<polygon fill="black" stroke="black" points="573.92,-370.26 563.39,-369.1 570.9,-376.58 573.92,-370.26"/>
<text text-anchor="middle" x="646" y="-390.8" font-family="Times-Roman" font-size="14.00">«include»</text>
</g>
<!-- template -->
<g id="node14" class="node">
<title>template</title>
<polygon fill="white" stroke="black" stroke-width="2" points="932,-450 832,-450 832,-420 932,-420 932,-450"/>
<text text-anchor="middle" x="882" y="-431.3" font-family="Times-Roman" font-size="14.00">template</text>
</g>
<!-- template&#45;&gt;3d -->
<g id="edge15" class="edge">
<title>template&#45;&gt;3d</title>
<path fill="none" stroke="black" d="M857.99,-419.95C838.07,-409.01 808.63,-394.47 781,-387 700.43,-365.22 674.33,-381.74 588.08,-368.96"/>
<polygon fill="black" stroke="black" points="588.54,-365.49 578.12,-367.4 587.45,-372.41 588.54,-365.49"/>
<text text-anchor="middle" x="854" y="-390.8" font-family="Times-Roman" font-size="14.00">«include»</text>
</g>
<!-- torus -->
<g id="node15" class="node">
<title>torus</title>
<polygon fill="white" stroke="black" stroke-width="2" points="1050,-450 950,-450 950,-420 1050,-420 1050,-450"/>
<text text-anchor="middle" x="1000" y="-431.3" font-family="Times-Roman" font-size="14.00">torus</text>
</g>
<!-- torus&#45;&gt;3d -->
<g id="edge16" class="edge">
<title>torus&#45;&gt;3d</title>
<path fill="none" stroke="black" d="M974.2,-419.95C952.44,-408.86 920.12,-394.1 890,-387 761.9,-356.8 722.39,-387.09 588.34,-368.97"/>
<polygon fill="black" stroke="black" points="588.49,-365.45 578.1,-367.51 587.51,-372.38 588.49,-365.45"/>
<text text-anchor="middle" x="966" y="-390.8" font-family="Times-Roman" font-size="14.00">«include»</text>
</g>
<!-- tube -->
<g id="node16" class="node">
<title>tube</title>
<polygon fill="white" stroke="black" stroke-width="2" points="1168,-450 1068,-450 1068,-420 1168,-420 1168,-450"/>
<text text-anchor="middle" x="1118" y="-431.3" font-family="Times-Roman" font-size="14.00">tube</text>
</g>
<!-- tube&#45;&gt;3d -->
<g id="edge17" class="edge">
<title>tube&#45;&gt;3d</title>
<path fill="none" stroke="black" d="M1090.73,-419.84C1067.74,-408.67 1033.64,-393.88 1002,-387 824.77,-348.45 771.72,-392.81 588.07,-368.92"/>
<polygon fill="black" stroke="black" points="588.47,-365.44 578.09,-367.57 587.53,-372.38 588.47,-365.44"/>
<text text-anchor="middle" x="1080" y="-390.8" font-family="Times-Roman" font-size="14.00">«include»</text>
</g>
<!-- type_trait&#45;&gt;base_string -->
<g id="edge18" class="edge">
<title>type_trait&#45;&gt;base_string</title>
<path fill="none" stroke="black" d="M70.14,-290.92C81.98,-274.52 99,-246.13 99,-218.5 99,-218.5 99,-218.5 99,-95 99,-76.47 101.74,-55.68 104.35,-40.08"/>
<polygon fill="black" stroke="black" points="107.81,-40.66 106.11,-30.2 100.91,-39.44 107.81,-40.66"/>
<text text-anchor="middle" x="131" y="-173.3" font-family="Times-Roman" font-size="14.00">«include»</text>
</g>
<!-- unsafe_defs&#45;&gt;defs -->
<g id="edge19" class="edge">
<title>unsafe_defs&#45;&gt;defs</title>
<path fill="none" stroke="black" d="M370.07,-161.88C341.53,-148.84 299,-129.42 267.91,-115.23"/>
<polygon fill="black" stroke="black" points="269.21,-111.97 258.66,-111 266.3,-118.34 269.21,-111.97"/>
<text text-anchor="middle" x="362" y="-132.8" font-family="Times-Roman" font-size="14.00">«include»</text>
</g>
<!-- util&#45;&gt;3d -->
<g id="edge20" class="edge">
<title>util&#45;&gt;3d</title>
<path fill="none" stroke="black" d="M743.71,-419.8C727.66,-409.23 704.32,-395.24 682,-387 644.44,-373.13 630.89,-377.26 588.09,-369.08"/>
<polygon fill="black" stroke="black" points="588.67,-365.63 578.18,-367.07 587.28,-372.49 588.67,-365.63"/>
<text text-anchor="middle" x="745" y="-390.8" font-family="Times-Roman" font-size="14.00">«include»</text>
</g>
</g>
</svg>
