<?xml version="1.0" encoding="UTF-8" standalone="no"?>
<!DOCTYPE svg PUBLIC "-//W3C//DTD SVG 1.1//EN"
 "http://www.w3.org/Graphics/SVG/1.1/DTD/svg11.dtd">
<!-- Generated by graphviz version 2.44.0 (0)
 -->
<!-- Title: foundation Pages: 1 -->
<svg width="1170pt" height="524pt"
 viewBox="0.00 0.00 1170.00 524.00" xmlns="http://www.w3.org/2000/svg" xmlns:xlink="http://www.w3.org/1999/xlink">
<g id="graph0" class="graph" transform="scale(1 1) rotate(0) translate(4 520)">
<title>foundation</title>
<polygon fill="white" stroke="transparent" points="-4,4 -4,-520 1166,-520 1166,4 -4,4"/>
<!-- 2d -->
<g id="node1" class="node">
<title>2d</title>
<polygon fill="white" stroke="black" stroke-width="2" points="595,-273 495,-273 495,-243 595,-243 595,-273"/>
<text text-anchor="middle" x="545" y="-254.3" font-family="Times-Roman" font-size="14.00">2d</text>
</g>
<!-- unsafe_defs -->
<g id="node18" class="node">
<title>unsafe_defs</title>
<polygon fill="white" stroke="black" stroke-width="2" points="595,-192 495,-192 495,-162 595,-162 595,-192"/>
<text text-anchor="middle" x="545" y="-173.3" font-family="Times-Roman" font-size="14.00">unsafe_defs</text>
</g>
<!-- 2d&#45;&gt;unsafe_defs -->
<g id="edge1" class="edge">
<title>2d&#45;&gt;unsafe_defs</title>
<path fill="none" stroke="black" d="M545,-242.88C545,-231.64 545,-215.66 545,-202.37"/>
<polygon fill="black" stroke="black" points="548.5,-202 545,-192 541.5,-202 548.5,-202"/>
<text text-anchor="middle" x="577" y="-213.8" font-family="Times-Roman" font-size="14.00">«include»</text>
</g>
<!-- 3d -->
<g id="node2" class="node">
<title>3d</title>
<polygon fill="white" stroke="black" stroke-width="2" points="572,-354 472,-354 472,-324 572,-324 572,-354"/>
<text text-anchor="middle" x="522" y="-335.3" font-family="Times-Roman" font-size="14.00">3d</text>
</g>
<!-- 3d&#45;&gt;2d -->
<g id="edge2" class="edge">
<title>3d&#45;&gt;2d</title>
<path fill="none" stroke="black" d="M526.11,-323.88C529.42,-312.53 534.13,-296.34 538.02,-282.97"/>
<polygon fill="black" stroke="black" points="541.49,-283.58 540.92,-273 534.77,-281.62 541.49,-283.58"/>
<text text-anchor="middle" x="568" y="-294.8" font-family="Times-Roman" font-size="14.00">«include»</text>
</g>
<!-- type_trait -->
<g id="node17" class="node">
<title>type_trait</title>
<polygon fill="white" stroke="black" stroke-width="2" points="476,-273 376,-273 376,-243 476,-243 476,-273"/>
<text text-anchor="middle" x="426" y="-254.3" font-family="Times-Roman" font-size="14.00">type_trait</text>
</g>
<!-- 3d&#45;&gt;type_trait -->
<g id="edge3" class="edge">
<title>3d&#45;&gt;type_trait</title>
<path fill="none" stroke="black" d="M491.37,-323.96C482.09,-318.97 472.2,-312.87 464,-306 455.64,-299 447.81,-289.94 441.45,-281.64"/>
<polygon fill="black" stroke="black" points="444.14,-279.38 435.4,-273.39 438.49,-283.53 444.14,-279.38"/>
<text text-anchor="middle" x="496" y="-294.8" font-family="Times-Roman" font-size="14.00">«include»</text>
</g>
<!-- algo -->
<g id="node3" class="node">
<title>algo</title>
<polygon fill="white" stroke="black" stroke-width="2" points="1162,-435 1062,-435 1062,-405 1162,-405 1162,-435"/>
<text text-anchor="middle" x="1112" y="-416.3" font-family="Times-Roman" font-size="14.00">algo</text>
</g>
<!-- algo&#45;&gt;3d -->
<g id="edge4" class="edge">
<title>algo&#45;&gt;3d</title>
<path fill="none" stroke="black" d="M1084.48,-404.84C1061.29,-393.68 1026.88,-378.89 995,-372 818.14,-333.8 765.27,-377.77 582.05,-353.91"/>
<polygon fill="black" stroke="black" points="582.47,-350.44 572.09,-352.57 581.53,-357.38 582.47,-350.44"/>
<text text-anchor="middle" x="1073" y="-375.8" font-family="Times-Roman" font-size="14.00">«include»</text>
</g>
<!-- base_geo -->
<g id="node4" class="node">
<title>base_geo</title>
<polygon fill="white" stroke="black" stroke-width="2" points="596,-30 496,-30 496,0 596,0 596,-30"/>
<text text-anchor="middle" x="546" y="-11.3" font-family="Times-Roman" font-size="14.00">base_geo</text>
</g>
<!-- base_string -->
<g id="node5" class="node">
<title>base_string</title>
<polygon fill="white" stroke="black" stroke-width="2" points="477,-30 377,-30 377,0 477,0 477,-30"/>
<text text-anchor="middle" x="427" y="-11.3" font-family="Times-Roman" font-size="14.00">base_string</text>
</g>
<!-- connect -->
<g id="node6" class="node">
<title>connect</title>
<polygon fill="white" stroke="black" stroke-width="2" points="631,-516 531,-516 531,-486 631,-486 631,-516"/>
<text text-anchor="middle" x="581" y="-497.3" font-family="Times-Roman" font-size="14.00">connect</text>
</g>
<!-- symbol -->
<g id="node13" class="node">
<title>symbol</title>
<polygon fill="white" stroke="black" stroke-width="2" points="572,-435 472,-435 472,-405 572,-405 572,-435"/>
<text text-anchor="middle" x="522" y="-416.3" font-family="Times-Roman" font-size="14.00">symbol</text>
</g>
<!-- connect&#45;&gt;symbol -->
<g id="edge5" class="edge">
<title>connect&#45;&gt;symbol</title>
<path fill="none" stroke="black" d="M563.05,-485.81C557.17,-480.61 550.89,-474.42 546,-468 540.55,-460.85 535.75,-452.28 531.91,-444.42"/>
<polygon fill="black" stroke="black" points="535.09,-442.95 527.71,-435.34 528.73,-445.89 535.09,-442.95"/>
<text text-anchor="middle" x="578" y="-456.8" font-family="Times-Roman" font-size="14.00">«include»</text>
</g>
<!-- util -->
<g id="node19" class="node">
<title>util</title>
<polygon fill="white" stroke="black" stroke-width="2" points="690,-435 590,-435 590,-405 690,-405 690,-435"/>
<text text-anchor="middle" x="640" y="-416.3" font-family="Times-Roman" font-size="14.00">util</text>
</g>
<!-- connect&#45;&gt;util -->
<g id="edge6" class="edge">
<title>connect&#45;&gt;util</title>
<path fill="none" stroke="black" d="M594.82,-485.79C599.81,-480.39 605.36,-474.08 610,-468 615.74,-460.48 621.47,-451.85 626.37,-444.05"/>
<polygon fill="black" stroke="black" points="629.43,-445.76 631.67,-435.4 623.46,-442.1 629.43,-445.76"/>
<text text-anchor="middle" x="652" y="-456.8" font-family="Times-Roman" font-size="14.00">«include»</text>
</g>
<!-- defs -->
<g id="node7" class="node">
<title>defs</title>
<polygon fill="white" stroke="black" stroke-width="2" points="595,-111 495,-111 495,-81 595,-81 595,-111"/>
<text text-anchor="middle" x="545" y="-92.3" font-family="Times-Roman" font-size="14.00">defs</text>
</g>
<!-- defs&#45;&gt;base_geo -->
<g id="edge7" class="edge">
<title>defs&#45;&gt;base_geo</title>
<path fill="none" stroke="black" d="M545.18,-80.88C545.32,-69.64 545.52,-53.66 545.69,-40.37"/>
<polygon fill="black" stroke="black" points="549.2,-40.04 545.82,-30 542.2,-39.96 549.2,-40.04"/>
<text text-anchor="middle" x="578" y="-51.8" font-family="Times-Roman" font-size="14.00">«include»</text>
</g>
<!-- defs&#45;&gt;base_string -->
<g id="edge8" class="edge">
<title>defs&#45;&gt;base_string</title>
<path fill="none" stroke="black" d="M510.52,-80.94C499.73,-75.91 488.03,-69.79 478,-63 467.2,-55.69 456.42,-46.16 447.56,-37.59"/>
<polygon fill="black" stroke="black" points="449.88,-34.96 440.33,-30.38 444.94,-39.92 449.88,-34.96"/>
<text text-anchor="middle" x="510" y="-51.8" font-family="Times-Roman" font-size="14.00">«include»</text>
</g>
<!-- drawio -->
<g id="node8" class="node">
<title>drawio</title>
<polygon fill="white" stroke="black" stroke-width="2" points="690,-354 590,-354 590,-324 690,-324 690,-354"/>
<text text-anchor="middle" x="640" y="-335.3" font-family="Times-Roman" font-size="14.00">drawio</text>
</g>
<!-- drawio&#45;&gt;2d -->
<g id="edge9" class="edge">
<title>drawio&#45;&gt;2d</title>
<path fill="none" stroke="black" d="M631.54,-323.98C624.96,-313.9 615.1,-300.48 604,-291 598.46,-286.26 592.1,-281.93 585.66,-278.09"/>
<polygon fill="black" stroke="black" points="587.32,-275.01 576.89,-273.16 583.89,-281.11 587.32,-275.01"/>
<text text-anchor="middle" x="650" y="-294.8" font-family="Times-Roman" font-size="14.00">«include»</text>
</g>
<!-- fillet -->
<g id="node9" class="node">
<title>fillet</title>
<polygon fill="white" stroke="black" stroke-width="2" points="218,-435 118,-435 118,-405 218,-405 218,-435"/>
<text text-anchor="middle" x="168" y="-416.3" font-family="Times-Roman" font-size="14.00">fillet</text>
</g>
<!-- fillet&#45;&gt;3d -->
<g id="edge10" class="edge">
<title>fillet&#45;&gt;3d</title>
<path fill="none" stroke="black" d="M193,-405C213.37,-394.24 243.21,-379.91 271,-372 334.44,-353.93 409.81,-346.05 461.29,-342.62"/>
<polygon fill="black" stroke="black" points="461.82,-346.1 471.58,-341.97 461.38,-339.11 461.82,-346.1"/>
<text text-anchor="middle" x="303" y="-375.8" font-family="Times-Roman" font-size="14.00">«include»</text>
</g>
<!-- grid -->
<g id="node10" class="node">
<title>grid</title>
<polygon fill="white" stroke="black" stroke-width="2" points="336,-435 236,-435 236,-405 336,-405 336,-435"/>
<text text-anchor="middle" x="286" y="-416.3" font-family="Times-Roman" font-size="14.00">grid</text>
</g>
<!-- grid&#45;&gt;3d -->
<g id="edge11" class="edge">
<title>grid&#45;&gt;3d</title>
<path fill="none" stroke="black" d="M306.61,-404.93C322.89,-394.43 346.53,-380.47 369,-372 398.75,-360.78 433.33,-353.12 462.07,-348.12"/>
<polygon fill="black" stroke="black" points="462.7,-351.57 471.98,-346.46 461.54,-344.66 462.7,-351.57"/>
<text text-anchor="middle" x="401" y="-375.8" font-family="Times-Roman" font-size="14.00">«include»</text>
</g>
<!-- hole -->
<g id="node11" class="node">
<title>hole</title>
<polygon fill="white" stroke="black" stroke-width="2" points="100,-435 0,-435 0,-405 100,-405 100,-435"/>
<text text-anchor="middle" x="50" y="-416.3" font-family="Times-Roman" font-size="14.00">hole</text>
</g>
<!-- hole&#45;&gt;3d -->
<g id="edge13" class="edge">
<title>hole&#45;&gt;3d</title>
<path fill="none" stroke="black" d="M77.06,-404.98C99.47,-394.06 132.47,-379.52 163,-372 265.79,-346.68 389.51,-340.85 461.6,-339.81"/>
<polygon fill="black" stroke="black" points="461.9,-343.3 471.85,-339.69 461.81,-336.31 461.9,-343.3"/>
<text text-anchor="middle" x="195" y="-375.8" font-family="Times-Roman" font-size="14.00">«include»</text>
</g>
<!-- hole&#45;&gt;type_trait -->
<g id="edge12" class="edge">
<title>hole&#45;&gt;type_trait</title>
<path fill="none" stroke="black" d="M66.79,-404.85C79.44,-394.71 97.53,-381.26 115,-372 197.99,-328.02 301.84,-294.12 366.04,-275.37"/>
<polygon fill="black" stroke="black" points="367.36,-278.63 376,-272.49 365.42,-271.91 367.36,-278.63"/>
<text text-anchor="middle" x="253" y="-335.3" font-family="Times-Roman" font-size="14.00">«include»</text>
</g>
<!-- profile -->
<g id="node12" class="node">
<title>profile</title>
<polygon fill="white" stroke="black" stroke-width="2" points="454,-435 354,-435 354,-405 454,-405 454,-435"/>
<text text-anchor="middle" x="404" y="-416.3" font-family="Times-Roman" font-size="14.00">profile</text>
</g>
<!-- profile&#45;&gt;3d -->
<g id="edge14" class="edge">
<title>profile&#45;&gt;3d</title>
<path fill="none" stroke="black" d="M416.59,-405C426.16,-394.93 440.01,-381.51 454,-372 461.29,-367.04 469.47,-362.47 477.56,-358.43"/>
<polygon fill="black" stroke="black" points="479.1,-361.58 486.61,-354.1 476.08,-355.26 479.1,-361.58"/>
<text text-anchor="middle" x="486" y="-375.8" font-family="Times-Roman" font-size="14.00">«include»</text>
</g>
<!-- symbol&#45;&gt;3d -->
<g id="edge15" class="edge">
<title>symbol&#45;&gt;3d</title>
<path fill="none" stroke="black" d="M522,-404.88C522,-393.64 522,-377.66 522,-364.37"/>
<polygon fill="black" stroke="black" points="525.5,-364 522,-354 518.5,-364 525.5,-364"/>
<text text-anchor="middle" x="554" y="-375.8" font-family="Times-Roman" font-size="14.00">«include»</text>
</g>
<!-- template -->
<g id="node14" class="node">
<title>template</title>
<polygon fill="white" stroke="black" stroke-width="2" points="808,-435 708,-435 708,-405 808,-405 808,-435"/>
<text text-anchor="middle" x="758" y="-416.3" font-family="Times-Roman" font-size="14.00">template</text>
</g>
<!-- template&#45;&gt;3d -->
<g id="edge16" class="edge">
<title>template&#45;&gt;3d</title>
<path fill="none" stroke="black" d="M737.71,-404.8C721.66,-394.23 698.32,-380.24 676,-372 638.44,-358.13 624.89,-362.26 582.09,-354.08"/>
<polygon fill="black" stroke="black" points="582.67,-350.63 572.18,-352.07 581.28,-357.49 582.67,-350.63"/>
<text text-anchor="middle" x="739" y="-375.8" font-family="Times-Roman" font-size="14.00">«include»</text>
</g>
<!-- torus -->
<g id="node15" class="node">
<title>torus</title>
<polygon fill="white" stroke="black" stroke-width="2" points="926,-435 826,-435 826,-405 926,-405 926,-435"/>
<text text-anchor="middle" x="876" y="-416.3" font-family="Times-Roman" font-size="14.00">torus</text>
</g>
<!-- torus&#45;&gt;3d -->
<g id="edge17" class="edge">
<title>torus&#45;&gt;3d</title>
<path fill="none" stroke="black" d="M851.99,-404.95C832.07,-394.01 802.63,-379.47 775,-372 694.43,-350.22 668.33,-366.74 582.08,-353.96"/>
<polygon fill="black" stroke="black" points="582.54,-350.49 572.12,-352.4 581.45,-357.41 582.54,-350.49"/>
<text text-anchor="middle" x="848" y="-375.8" font-family="Times-Roman" font-size="14.00">«include»</text>
</g>
<!-- tube -->
<g id="node16" class="node">
<title>tube</title>
<polygon fill="white" stroke="black" stroke-width="2" points="1044,-435 944,-435 944,-405 1044,-405 1044,-435"/>
<text text-anchor="middle" x="994" y="-416.3" font-family="Times-Roman" font-size="14.00">tube</text>
</g>
<!-- tube&#45;&gt;3d -->
<g id="edge18" class="edge">
<title>tube&#45;&gt;3d</title>
<path fill="none" stroke="black" d="M968.2,-404.95C946.44,-393.86 914.12,-379.1 884,-372 755.9,-341.8 716.39,-372.09 582.34,-353.97"/>
<polygon fill="black" stroke="black" points="582.49,-350.45 572.1,-352.51 581.51,-357.38 582.49,-350.45"/>
<text text-anchor="middle" x="959" y="-375.8" font-family="Times-Roman" font-size="14.00">«include»</text>
</g>
<!-- type_trait&#45;&gt;base_string -->
<g id="edge19" class="edge">
<title>type_trait&#45;&gt;base_string</title>
<path fill="none" stroke="black" d="M426.06,-242.65C426.22,-202.8 426.69,-90.45 426.9,-40.49"/>
<polygon fill="black" stroke="black" points="430.4,-40.29 426.94,-30.28 423.4,-40.26 430.4,-40.29"/>
<text text-anchor="middle" x="459" y="-132.8" font-family="Times-Roman" font-size="14.00">«include»</text>
</g>
<!-- unsafe_defs&#45;&gt;defs -->
<g id="edge20" class="edge">
<title>unsafe_defs&#45;&gt;defs</title>
<path fill="none" stroke="black" d="M545,-161.88C545,-150.64 545,-134.66 545,-121.37"/>
<polygon fill="black" stroke="black" points="548.5,-121 545,-111 541.5,-121 548.5,-121"/>
<text text-anchor="middle" x="577" y="-132.8" font-family="Times-Roman" font-size="14.00">«include»</text>
</g>
<!-- util&#45;&gt;3d -->
<g id="edge21" class="edge">
<title>util&#45;&gt;3d</title>
<path fill="none" stroke="black" d="M627.41,-405C617.84,-394.93 603.99,-381.51 590,-372 582.71,-367.04 574.53,-362.47 566.44,-358.43"/>
<polygon fill="black" stroke="black" points="567.92,-355.26 557.39,-354.1 564.9,-361.58 567.92,-355.26"/>
<text text-anchor="middle" x="640" y="-375.8" font-family="Times-Roman" font-size="14.00">«include»</text>
</g>
</g>
</svg>
