<?xml version="1.0" encoding="UTF-8" standalone="no"?>
<!DOCTYPE svg PUBLIC "-//W3C//DTD SVG 1.1//EN"
 "http://www.w3.org/Graphics/SVG/1.1/DTD/svg11.dtd">
<!-- Generated by graphviz version 2.44.0 (0)
 -->
<!-- Title: foundation Pages: 1 -->
<svg width="1170pt" height="539pt"
 viewBox="0.00 0.00 1170.00 539.00" xmlns="http://www.w3.org/2000/svg" xmlns:xlink="http://www.w3.org/1999/xlink">
<g id="graph0" class="graph" transform="scale(1 1) rotate(0) translate(4 535)">
<title>foundation</title>
<polygon fill="white" stroke="transparent" points="-4,4 -4,-535 1166,-535 1166,4 -4,4"/>
<!-- 2d -->
<g id="node1" class="node">
<title>2d</title>
<polygon fill="white" stroke="black" stroke-width="2" points="676,-288 576,-288 576,-258 676,-258 676,-288"/>
<text text-anchor="middle" x="626" y="-269.3" font-family="Times-Roman" font-size="14.00">2d</text>
</g>
<!-- unsafe_defs -->
<g id="node19" class="node">
<title>unsafe_defs</title>
<polygon fill="white" stroke="black" stroke-width="2" points="676,-192 576,-192 576,-162 676,-162 676,-192"/>
<text text-anchor="middle" x="626" y="-173.3" font-family="Times-Roman" font-size="14.00">unsafe_defs</text>
</g>
<!-- 2d&#45;&gt;unsafe_defs -->
<g id="edge1" class="edge">
<title>2d&#45;&gt;unsafe_defs</title>
<path fill="none" stroke="black" d="M626,-257.72C626,-243.01 626,-219.79 626,-202.2"/>
<polygon fill="black" stroke="black" points="629.5,-202.1 626,-192.1 622.5,-202.1 629.5,-202.1"/>
<text text-anchor="middle" x="658" y="-221.3" font-family="Times-Roman" font-size="14.00">«include»</text>
</g>
<!-- 3d -->
<g id="node2" class="node">
<title>3d</title>
<polygon fill="white" stroke="black" stroke-width="2" points="572,-369 472,-369 472,-339 572,-339 572,-369"/>
<text text-anchor="middle" x="522" y="-350.3" font-family="Times-Roman" font-size="14.00">3d</text>
</g>
<!-- 3d&#45;&gt;2d -->
<g id="edge2" class="edge">
<title>3d&#45;&gt;2d</title>
<path fill="none" stroke="black" d="M538.4,-338.9C551.99,-327.27 570.28,-311.78 578,-306 583.49,-301.88 589.48,-297.68 595.31,-293.73"/>
<polygon fill="black" stroke="black" points="597.29,-296.62 603.66,-288.16 593.4,-290.79 597.29,-296.62"/>
<text text-anchor="middle" x="610" y="-309.8" font-family="Times-Roman" font-size="14.00">«include»</text>
</g>
<!-- bbox -->
<g id="node6" class="node">
<title>bbox</title>
<polygon fill="white" stroke="black" stroke-width="2" points="544,-240 444,-240 444,-210 544,-210 544,-240"/>
<text text-anchor="middle" x="494" y="-221.3" font-family="Times-Roman" font-size="14.00">bbox</text>
</g>
<!-- 3d&#45;&gt;bbox -->
<g id="edge3" class="edge">
<title>3d&#45;&gt;bbox</title>
<path fill="none" stroke="black" d="M505.21,-338.99C500.32,-333.89 495.59,-327.72 493,-321 484.19,-298.15 485.93,-269.84 488.96,-250.1"/>
<polygon fill="black" stroke="black" points="492.43,-250.55 490.71,-240.1 485.53,-249.34 492.43,-250.55"/>
<text text-anchor="middle" x="525" y="-309.8" font-family="Times-Roman" font-size="14.00">«include»</text>
</g>
<!-- type_trait -->
<g id="node18" class="node">
<title>type_trait</title>
<polygon fill="white" stroke="black" stroke-width="2" points="437,-288 337,-288 337,-258 437,-258 437,-288"/>
<text text-anchor="middle" x="387" y="-269.3" font-family="Times-Roman" font-size="14.00">type_trait</text>
</g>
<!-- 3d&#45;&gt;type_trait -->
<g id="edge4" class="edge">
<title>3d&#45;&gt;type_trait</title>
<path fill="none" stroke="black" d="M471.77,-348.46C450.07,-344.26 425.66,-336.25 408,-321 401.07,-315.02 396.33,-306.31 393.13,-298"/>
<polygon fill="black" stroke="black" points="396.39,-296.7 389.95,-288.29 389.73,-298.88 396.39,-296.7"/>
<text text-anchor="middle" x="440" y="-309.8" font-family="Times-Roman" font-size="14.00">«include»</text>
</g>
<!-- algo -->
<g id="node3" class="node">
<title>algo</title>
<polygon fill="white" stroke="black" stroke-width="2" points="1162,-450 1062,-450 1062,-420 1162,-420 1162,-450"/>
<text text-anchor="middle" x="1112" y="-431.3" font-family="Times-Roman" font-size="14.00">algo</text>
</g>
<!-- algo&#45;&gt;3d -->
<g id="edge5" class="edge">
<title>algo&#45;&gt;3d</title>
<path fill="none" stroke="black" d="M1084.47,-419.87C1061.28,-408.72 1026.87,-393.94 995,-387 827.19,-350.48 779.83,-386.67 609,-369 600.27,-368.1 591.07,-366.89 582.07,-365.57"/>
<polygon fill="black" stroke="black" points="582.43,-362.09 572.02,-364.04 581.38,-369.01 582.43,-362.09"/>
<text text-anchor="middle" x="1073" y="-390.8" font-family="Times-Roman" font-size="14.00">«include»</text>
</g>
<!-- base_geo -->
<g id="node4" class="node">
<title>base_geo</title>
<polygon fill="white" stroke="black" stroke-width="2" points="557,-30 457,-30 457,0 557,0 557,-30"/>
<text text-anchor="middle" x="507" y="-11.3" font-family="Times-Roman" font-size="14.00">base_geo</text>
</g>
<!-- base_string -->
<g id="node5" class="node">
<title>base_string</title>
<polygon fill="white" stroke="black" stroke-width="2" points="438,-30 338,-30 338,0 438,0 438,-30"/>
<text text-anchor="middle" x="388" y="-11.3" font-family="Times-Roman" font-size="14.00">base_string</text>
</g>
<!-- defs -->
<g id="node8" class="node">
<title>defs</title>
<polygon fill="white" stroke="black" stroke-width="2" points="552,-111 452,-111 452,-81 552,-81 552,-111"/>
<text text-anchor="middle" x="502" y="-92.3" font-family="Times-Roman" font-size="14.00">defs</text>
</g>
<!-- bbox&#45;&gt;defs -->
<g id="edge6" class="edge">
<title>bbox&#45;&gt;defs</title>
<path fill="none" stroke="black" d="M494.89,-209.92C496.23,-188.56 498.81,-147.68 500.46,-121.4"/>
<polygon fill="black" stroke="black" points="503.97,-121.34 501.11,-111.14 496.99,-120.9 503.97,-121.34"/>
<text text-anchor="middle" x="530" y="-173.3" font-family="Times-Roman" font-size="14.00">«include»</text>
</g>
<!-- connect -->
<g id="node7" class="node">
<title>connect</title>
<polygon fill="white" stroke="black" stroke-width="2" points="807,-531 707,-531 707,-501 807,-501 807,-531"/>
<text text-anchor="middle" x="757" y="-512.3" font-family="Times-Roman" font-size="14.00">connect</text>
</g>
<!-- symbol -->
<g id="node14" class="node">
<title>symbol</title>
<polygon fill="white" stroke="black" stroke-width="2" points="572,-450 472,-450 472,-420 572,-420 572,-450"/>
<text text-anchor="middle" x="522" y="-431.3" font-family="Times-Roman" font-size="14.00">symbol</text>
</g>
<!-- connect&#45;&gt;symbol -->
<g id="edge7" class="edge">
<title>connect&#45;&gt;symbol</title>
<path fill="none" stroke="black" d="M715.26,-500.97C675.61,-487.64 615.91,-467.57 573.36,-453.27"/>
<polygon fill="black" stroke="black" points="574.34,-449.9 563.75,-450.03 572.11,-456.54 574.34,-449.9"/>
<text text-anchor="middle" x="693" y="-471.8" font-family="Times-Roman" font-size="14.00">«include»</text>
</g>
<!-- util -->
<g id="node20" class="node">
<title>util</title>
<polygon fill="white" stroke="black" stroke-width="2" points="1044,-450 944,-450 944,-420 1044,-420 1044,-450"/>
<text text-anchor="middle" x="994" y="-431.3" font-family="Times-Roman" font-size="14.00">util</text>
</g>
<!-- connect&#45;&gt;util -->
<g id="edge8" class="edge">
<title>connect&#45;&gt;util</title>
<path fill="none" stroke="black" d="M799.1,-500.97C839.08,-487.64 899.29,-467.57 942.2,-453.27"/>
<polygon fill="black" stroke="black" points="943.52,-456.52 951.9,-450.03 941.3,-449.88 943.52,-456.52"/>
<text text-anchor="middle" x="928" y="-471.8" font-family="Times-Roman" font-size="14.00">«include»</text>
</g>
<!-- defs&#45;&gt;base_geo -->
<g id="edge9" class="edge">
<title>defs&#45;&gt;base_geo</title>
<path fill="none" stroke="black" d="M502.89,-80.88C503.6,-69.64 504.62,-53.66 505.46,-40.37"/>
<polygon fill="black" stroke="black" points="508.98,-40.2 506.11,-30 501.99,-39.76 508.98,-40.2"/>
<text text-anchor="middle" x="537" y="-51.8" font-family="Times-Roman" font-size="14.00">«include»</text>
</g>
<!-- defs&#45;&gt;base_string -->
<g id="edge10" class="edge">
<title>defs&#45;&gt;base_string</title>
<path fill="none" stroke="black" d="M468.49,-80.92C458.02,-75.9 446.68,-69.78 437,-63 426.65,-55.75 416.38,-46.33 407.93,-37.83"/>
<polygon fill="black" stroke="black" points="410.2,-35.14 400.74,-30.37 405.16,-40 410.2,-35.14"/>
<text text-anchor="middle" x="469" y="-51.8" font-family="Times-Roman" font-size="14.00">«include»</text>
</g>
<!-- drawio -->
<g id="node9" class="node">
<title>drawio</title>
<polygon fill="white" stroke="black" stroke-width="2" points="718,-369 618,-369 618,-339 718,-339 718,-369"/>
<text text-anchor="middle" x="668" y="-350.3" font-family="Times-Roman" font-size="14.00">drawio</text>
</g>
<!-- drawio&#45;&gt;2d -->
<g id="edge11" class="edge">
<title>drawio&#45;&gt;2d</title>
<path fill="none" stroke="black" d="M661.89,-338.8C657.7,-329.36 651.85,-316.76 646,-306 644.37,-303.01 642.58,-299.91 640.76,-296.87"/>
<polygon fill="black" stroke="black" points="643.58,-294.78 635.34,-288.12 637.62,-298.46 643.58,-294.78"/>
<text text-anchor="middle" x="686" y="-309.8" font-family="Times-Roman" font-size="14.00">«include»</text>
</g>
<!-- fillet -->
<g id="node10" class="node">
<title>fillet</title>
<polygon fill="white" stroke="black" stroke-width="2" points="218,-450 118,-450 118,-420 218,-420 218,-450"/>
<text text-anchor="middle" x="168" y="-431.3" font-family="Times-Roman" font-size="14.00">fillet</text>
</g>
<!-- fillet&#45;&gt;3d -->
<g id="edge12" class="edge">
<title>fillet&#45;&gt;3d</title>
<path fill="none" stroke="black" d="M193,-420C213.37,-409.24 243.21,-394.91 271,-387 334.44,-368.93 409.81,-361.05 461.29,-357.62"/>
<polygon fill="black" stroke="black" points="461.82,-361.1 471.58,-356.97 461.38,-354.11 461.82,-361.1"/>
<text text-anchor="middle" x="303" y="-390.8" font-family="Times-Roman" font-size="14.00">«include»</text>
</g>
<!-- grid -->
<g id="node11" class="node">
<title>grid</title>
<polygon fill="white" stroke="black" stroke-width="2" points="336,-450 236,-450 236,-420 336,-420 336,-450"/>
<text text-anchor="middle" x="286" y="-431.3" font-family="Times-Roman" font-size="14.00">grid</text>
</g>
<!-- grid&#45;&gt;3d -->
<g id="edge13" class="edge">
<title>grid&#45;&gt;3d</title>
<path fill="none" stroke="black" d="M306.61,-419.93C322.89,-409.43 346.53,-395.47 369,-387 398.75,-375.78 433.33,-368.12 462.07,-363.12"/>
<polygon fill="black" stroke="black" points="462.7,-366.57 471.98,-361.46 461.54,-359.66 462.7,-366.57"/>
<text text-anchor="middle" x="401" y="-390.8" font-family="Times-Roman" font-size="14.00">«include»</text>
</g>
<!-- hole -->
<g id="node12" class="node">
<title>hole</title>
<polygon fill="white" stroke="black" stroke-width="2" points="100,-450 0,-450 0,-420 100,-420 100,-450"/>
<text text-anchor="middle" x="50" y="-431.3" font-family="Times-Roman" font-size="14.00">hole</text>
</g>
<!-- hole&#45;&gt;3d -->
<g id="edge15" class="edge">
<title>hole&#45;&gt;3d</title>
<path fill="none" stroke="black" d="M77.06,-419.98C99.47,-409.06 132.47,-394.52 163,-387 265.79,-361.68 389.51,-355.85 461.6,-354.81"/>
<polygon fill="black" stroke="black" points="461.9,-358.3 471.85,-354.69 461.81,-351.31 461.9,-358.3"/>
<text text-anchor="middle" x="195" y="-390.8" font-family="Times-Roman" font-size="14.00">«include»</text>
</g>
<!-- hole&#45;&gt;type_trait -->
<g id="edge14" class="edge">
<title>hole&#45;&gt;type_trait</title>
<path fill="none" stroke="black" d="M67.19,-419.87C79.88,-409.87 97.86,-396.58 115,-387 188.05,-346.15 278.87,-311.34 334.89,-291.55"/>
<polygon fill="black" stroke="black" points="336.31,-294.76 344.59,-288.15 333.99,-288.16 336.31,-294.76"/>
<text text-anchor="middle" x="244" y="-350.3" font-family="Times-Roman" font-size="14.00">«include»</text>
</g>
<!-- profile -->
<g id="node13" class="node">
<title>profile</title>
<polygon fill="white" stroke="black" stroke-width="2" points="454,-450 354,-450 354,-420 454,-420 454,-450"/>
<text text-anchor="middle" x="404" y="-431.3" font-family="Times-Roman" font-size="14.00">profile</text>
</g>
<!-- profile&#45;&gt;3d -->
<g id="edge16" class="edge">
<title>profile&#45;&gt;3d</title>
<path fill="none" stroke="black" d="M416.59,-420C426.16,-409.93 440.01,-396.51 454,-387 461.29,-382.04 469.47,-377.47 477.56,-373.43"/>
<polygon fill="black" stroke="black" points="479.1,-376.58 486.61,-369.1 476.08,-370.26 479.1,-376.58"/>
<text text-anchor="middle" x="486" y="-390.8" font-family="Times-Roman" font-size="14.00">«include»</text>
</g>
<!-- symbol&#45;&gt;3d -->
<g id="edge17" class="edge">
<title>symbol&#45;&gt;3d</title>
<path fill="none" stroke="black" d="M522,-419.88C522,-408.64 522,-392.66 522,-379.37"/>
<polygon fill="black" stroke="black" points="525.5,-379 522,-369 518.5,-379 525.5,-379"/>
<text text-anchor="middle" x="554" y="-390.8" font-family="Times-Roman" font-size="14.00">«include»</text>
</g>
<!-- template -->
<g id="node15" class="node">
<title>template</title>
<polygon fill="white" stroke="black" stroke-width="2" points="690,-450 590,-450 590,-420 690,-420 690,-450"/>
<text text-anchor="middle" x="640" y="-431.3" font-family="Times-Roman" font-size="14.00">template</text>
</g>
<!-- template&#45;&gt;3d -->
<g id="edge18" class="edge">
<title>template&#45;&gt;3d</title>
<path fill="none" stroke="black" d="M627.41,-420C617.84,-409.93 603.99,-396.51 590,-387 582.71,-382.04 574.53,-377.47 566.44,-373.43"/>
<polygon fill="black" stroke="black" points="567.92,-370.26 557.39,-369.1 564.9,-376.58 567.92,-370.26"/>
<text text-anchor="middle" x="640" y="-390.8" font-family="Times-Roman" font-size="14.00">«include»</text>
</g>
<!-- torus -->
<g id="node16" class="node">
<title>torus</title>
<polygon fill="white" stroke="black" stroke-width="2" points="808,-450 708,-450 708,-420 808,-420 808,-450"/>
<text text-anchor="middle" x="758" y="-431.3" font-family="Times-Roman" font-size="14.00">torus</text>
</g>
<!-- torus&#45;&gt;3d -->
<g id="edge19" class="edge">
<title>torus&#45;&gt;3d</title>
<path fill="none" stroke="black" d="M737.67,-419.91C721.6,-409.4 698.25,-395.44 676,-387 658.91,-380.51 617.56,-372.06 582.01,-365.47"/>
<polygon fill="black" stroke="black" points="582.63,-362.02 572.16,-363.66 581.36,-368.91 582.63,-362.02"/>
<text text-anchor="middle" x="739" y="-390.8" font-family="Times-Roman" font-size="14.00">«include»</text>
</g>
<!-- tube -->
<g id="node17" class="node">
<title>tube</title>
<polygon fill="white" stroke="black" stroke-width="2" points="926,-450 826,-450 826,-420 926,-420 926,-450"/>
<text text-anchor="middle" x="876" y="-431.3" font-family="Times-Roman" font-size="14.00">tube</text>
</g>
<!-- tube&#45;&gt;3d -->
<g id="edge20" class="edge">
<title>tube&#45;&gt;3d</title>
<path fill="none" stroke="black" d="M851.56,-419.84C831.62,-409 802.39,-394.63 775,-387 703.51,-367.08 682.55,-378.9 609,-369 600.3,-367.83 591.12,-366.48 582.13,-365.09"/>
<polygon fill="black" stroke="black" points="582.5,-361.61 572.08,-363.51 581.42,-368.52 582.5,-361.61"/>
<text text-anchor="middle" x="848" y="-390.8" font-family="Times-Roman" font-size="14.00">«include»</text>
</g>
<!-- type_trait&#45;&gt;base_string -->
<g id="edge21" class="edge">
<title>type_trait&#45;&gt;base_string</title>
<path fill="none" stroke="black" d="M387.06,-257.87C387.22,-216.09 387.7,-92.74 387.91,-40.17"/>
<polygon fill="black" stroke="black" points="391.41,-40.1 387.94,-30.08 384.41,-40.07 391.41,-40.1"/>
<text text-anchor="middle" x="420" y="-132.8" font-family="Times-Roman" font-size="14.00">«include»</text>
</g>
<!-- unsafe_defs&#45;&gt;defs -->
<g id="edge22" class="edge">
<title>unsafe_defs&#45;&gt;defs</title>
<path fill="none" stroke="black" d="M603.83,-161.88C583.99,-149.24 554.72,-130.59 532.65,-116.53"/>
<polygon fill="black" stroke="black" points="534.29,-113.42 523.98,-111 530.53,-119.33 534.29,-113.42"/>
<text text-anchor="middle" x="608" y="-132.8" font-family="Times-Roman" font-size="14.00">«include»</text>
</g>
<!-- util&#45;&gt;3d -->
<g id="edge23" class="edge">
<title>util&#45;&gt;3d</title>
<path fill="none" stroke="black" d="M967.75,-419.78C945.99,-408.74 913.89,-394.14 884,-387 764.87,-358.53 730.71,-382.75 609,-369 600.27,-368.01 591.09,-366.77 582.09,-365.43"/>
<polygon fill="black" stroke="black" points="582.45,-361.94 572.04,-363.88 581.39,-368.86 582.45,-361.94"/>
<text text-anchor="middle" x="959" y="-390.8" font-family="Times-Roman" font-size="14.00">«include»</text>
</g>
</g>
</svg>
